G04*
G04 #@! TF.GenerationSoftware,Altium Limited,Altium Designer,20.2.6 (244)*
G04*
G04 Layer_Color=128*
%FSLAX25Y25*%
%MOIN*%
G70*
G04*
G04 #@! TF.SameCoordinates,FDEE98C7-7E5E-487F-AEB3-E854705123D1*
G04*
G04*
G04 #@! TF.FilePolarity,Positive*
G04*
G01*
G75*
%ADD30R,0.04900X0.27600*%
%ADD31R,0.04300X0.31500*%
D30*
X394685Y262244D02*
D03*
X384842D02*
D03*
X394685Y218937D02*
D03*
X384842D02*
D03*
X276575Y262244D02*
D03*
X266732D02*
D03*
X276575Y218937D02*
D03*
X266732D02*
D03*
X237205D02*
D03*
X227362D02*
D03*
X315945Y262244D02*
D03*
X306102D02*
D03*
X315945Y301614D02*
D03*
X306102D02*
D03*
X276575D02*
D03*
X266732D02*
D03*
X237205D02*
D03*
X227362D02*
D03*
X197835Y218937D02*
D03*
X187992D02*
D03*
X237205Y262244D02*
D03*
X227362D02*
D03*
X434055Y218937D02*
D03*
X424213D02*
D03*
X434055Y262244D02*
D03*
X424213D02*
D03*
X473425Y218937D02*
D03*
X463583D02*
D03*
X394685Y301614D02*
D03*
X384842D02*
D03*
X355315D02*
D03*
X345472D02*
D03*
X473425Y262244D02*
D03*
X463583D02*
D03*
X473425Y301614D02*
D03*
X463583D02*
D03*
X434055D02*
D03*
X424213D02*
D03*
X197835Y262244D02*
D03*
X187992D02*
D03*
X197835Y301614D02*
D03*
X187992D02*
D03*
X355315Y262244D02*
D03*
X345472D02*
D03*
X318321Y218226D02*
D03*
X308478D02*
D03*
X345472Y218937D02*
D03*
X355315D02*
D03*
D31*
X377736Y262244D02*
D03*
X401791D02*
D03*
X377736Y218937D02*
D03*
X401791D02*
D03*
X259626Y262244D02*
D03*
X283681D02*
D03*
X259626Y218937D02*
D03*
X283681D02*
D03*
X220256D02*
D03*
X244311D02*
D03*
X298996Y262244D02*
D03*
X323051D02*
D03*
X298996Y301614D02*
D03*
X323051D02*
D03*
X259626D02*
D03*
X283681D02*
D03*
X220256D02*
D03*
X244311D02*
D03*
X180886Y218937D02*
D03*
X204941D02*
D03*
X220256Y262244D02*
D03*
X244311D02*
D03*
X417106Y218937D02*
D03*
X441161D02*
D03*
X417106Y262244D02*
D03*
X441161D02*
D03*
X456476Y218937D02*
D03*
X480532D02*
D03*
X377736Y301614D02*
D03*
X401791D02*
D03*
X338366D02*
D03*
X362421D02*
D03*
X456476Y262244D02*
D03*
X480532D02*
D03*
X456476Y301614D02*
D03*
X480532D02*
D03*
X417106D02*
D03*
X441161D02*
D03*
X180886Y262244D02*
D03*
X204941D02*
D03*
X180886Y301614D02*
D03*
X204941D02*
D03*
X338366Y262244D02*
D03*
X362421D02*
D03*
X301372Y218226D02*
D03*
X325427D02*
D03*
X362421Y218937D02*
D03*
X338366D02*
D03*
M02*
