M48
;Layer_Color=9474304
;FILE_FORMAT=2:4
INCH,TZ
;TYPE=PLATED
T2F00S00C0.0280
T3F00S00C0.0787
T4F00S00C0.1240
;TYPE=NON_PLATED
T5F00S00C0.0984
%
T02
X17323Y14567
X23622
X22835Y13780
X29528Y14567
X35433
X41339
X48618Y21571
X48499Y23760
X47126Y24134
X47524Y28125
X48618Y29961
X45083Y29921
X44882Y28346
X46380Y27946
X43006Y27919
X42150Y28318
X40945Y29882
X39370Y28346
X38482Y28220
X37008Y28740
X37209Y29882
X36807Y26102
X36911Y24814
X38307Y24494
X38919Y23446
X41931Y23819
X42403Y24503
X42913Y23622
X44724Y23543
X44882Y25197
X42811Y21457
X40744Y21339
X40945Y19685
X42420Y19427
X45710Y19736
X46409Y19173
X38583Y19685
X37087Y19252
X37087Y21062
X36807Y21890
X35433Y19685
X34571Y19134
X32087Y19646
X31340Y19614
X33189Y20866
X33272Y21693
X33228Y23543
X31929Y24008
X33386Y28071
X35433Y15748
X41339
X29528
Y17717
X30354Y19606
X28641Y19675
X27559Y19685
X26670Y19251
X24291Y19724
X23228Y19685
X22146Y19535
X20901Y19629
X18866Y19917
X18253Y19650
X18219Y23986
X18819Y24449
X19961Y23740
X20866Y24016
X22743Y23869
X25472Y23898
X26250Y24062
X27839Y23624
X29134Y24016
X29256Y25442
X29134Y27953
X27559Y27954
X27004Y27022
X25398Y29488
X25000Y30039
X23228Y28346
X22288Y28146
X20001Y28012
X19291Y28346
X21059Y29764
X17308Y29961
X17225Y23898
X17323Y15748
X23622
X25398Y21449
X29567Y21693
X31102Y24016
X29213Y29961
X28236Y32086
X26273Y32607
X25502Y32036
X22087Y32244
X22736Y32903
X20000Y33150
X18869Y32020
X17441Y31929
X18898Y38583
X24803Y37795
Y36614
X30709
Y37795
X30669Y34055
X31950Y32472
X34073Y32493
X34554Y34055
X36560Y32071
X38522Y32741
X39291Y32913
X42047
X42030Y32070
X44724Y31890
X46417Y32992
X42520Y36614
Y37795
X36614
Y36614
X48819
Y37795
X47531Y33122
T03
X20244Y14695
X22244Y14748
X26150Y14695
X28150Y14748
X32055Y14695
X34055Y14748
X37961Y14695
X39961Y14748
X43866Y14695
X45866Y14748
X28181Y37667
X26181Y37614
X22276Y37667
X20276Y37614
X32087
X34087Y37667
X37992Y37614
X39992Y37667
X43898Y37614
X45898Y37667
T04
X33031Y17756
X38937
X44843
X27126
X21220
X21299Y34606
X27205
X33110
X39016
X44921
T05
X13780Y13780
X53150
X13780Y37402
X53150
M30
