G04*
G04 #@! TF.GenerationSoftware,Altium Limited,Altium Designer,21.1.1 (26)*
G04*
G04 Layer_Color=32896*
%FSLAX25Y25*%
%MOIN*%
G70*
G04*
G04 #@! TF.SameCoordinates,037F275B-A6FD-482A-AA4E-5CA96C5587D5*
G04*
G04*
G04 #@! TF.FilePolarity,Positive*
G04*
G01*
G75*
%ADD10C,0.00787*%
%ADD12C,0.01000*%
%ADD46C,0.02000*%
%ADD47C,0.00984*%
%ADD48C,0.00600*%
D10*
X463504Y201969D02*
Y214035D01*
Y209035D02*
Y221260D01*
X473504D01*
Y201969D02*
Y221260D01*
X463504Y201969D02*
X473504D01*
X167323Y363484D02*
X171260D01*
X167323Y368799D02*
X171260D01*
X162783Y349693D02*
X175800D01*
X162783Y358969D02*
X175800D01*
X446850Y331988D02*
X450787D01*
X446850Y337303D02*
X450787D01*
X500689Y162697D02*
X504626D01*
X500689Y168012D02*
X504626D01*
X493492Y181804D02*
X506508D01*
X493492Y172527D02*
X506508D01*
X210630Y168012D02*
X214567D01*
X210630Y162697D02*
X214567D01*
X206090Y172527D02*
X219107D01*
X206090Y181804D02*
X219107D01*
X213964Y358969D02*
X226981D01*
X213964Y349693D02*
X226981D01*
X218504Y368799D02*
X222441D01*
X218504Y363484D02*
X222441D01*
X257271Y358969D02*
X270288D01*
X257271Y349693D02*
X270288D01*
X261811Y368799D02*
X265748D01*
X261811Y363484D02*
X265748D01*
X304515Y358969D02*
X317532D01*
X304515Y349693D02*
X317532D01*
X309055Y368799D02*
X312992D01*
X309055Y363484D02*
X312992D01*
X351760Y358969D02*
X364776D01*
X351760Y349693D02*
X364776D01*
X356299Y368799D02*
X360236D01*
X356299Y363484D02*
X360236D01*
X391129Y327473D02*
X404146D01*
X391129Y318197D02*
X404146D01*
X395669Y337303D02*
X399606D01*
X395669Y331988D02*
X399606D01*
X442311Y327473D02*
X455327D01*
X442311Y318197D02*
X455327D01*
X446850Y162697D02*
X450787D01*
X446850Y168012D02*
X450787D01*
X442311Y181804D02*
X455327D01*
X442311Y172527D02*
X455327D01*
X399606Y162697D02*
X403543D01*
X399606Y168012D02*
X403543D01*
X395066Y181804D02*
X408083D01*
X395066Y172527D02*
X408083D01*
X352362Y162697D02*
X356299D01*
X352362Y168012D02*
X356299D01*
X347822Y181804D02*
X360839D01*
X347822Y172527D02*
X360839D01*
X305118Y162697D02*
X309055D01*
X305118Y168012D02*
X309055D01*
X300578Y181804D02*
X313595D01*
X300578Y172527D02*
X313595D01*
X257874Y162697D02*
X261811D01*
X257874Y168012D02*
X261811D01*
X253334Y181804D02*
X266351D01*
X253334Y172527D02*
X266351D01*
X495000Y188347D02*
X505000D01*
Y207638D01*
X495000D02*
X505000D01*
X495000Y195413D02*
Y207638D01*
Y188347D02*
Y200413D01*
X412685Y300578D02*
Y313595D01*
X421961Y300578D02*
Y313595D01*
X451968Y301181D02*
Y312992D01*
X453543Y301181D02*
Y312992D01*
X451968D02*
X453543D01*
X451968Y301181D02*
X453543D01*
X373228D02*
Y312992D01*
X374803Y301181D02*
Y312992D01*
X373228D02*
X374803D01*
X373228Y301181D02*
X374803D01*
X294488D02*
Y312992D01*
X296063Y301181D02*
Y312992D01*
X294488D02*
X296063D01*
X294488Y301181D02*
X296063D01*
X215748D02*
Y312992D01*
X217323Y301181D02*
Y312992D01*
X215748D02*
X217323D01*
X215748Y301181D02*
X217323D01*
D12*
X180104Y239187D02*
X182071D01*
X181088D01*
Y234267D01*
X182071Y233283D01*
X183055D01*
X184039Y234267D01*
X178136Y238203D02*
X177152Y239187D01*
X175184D01*
X174200Y238203D01*
Y237219D01*
X175184Y236235D01*
X174200Y235251D01*
Y234267D01*
X175184Y233283D01*
X177152D01*
X178136Y234267D01*
Y235251D01*
X177152Y236235D01*
X178136Y237219D01*
Y238203D01*
X177152Y236235D02*
X175184D01*
X156482Y269699D02*
X157466Y270683D01*
X159433D01*
X160417Y269699D01*
Y265763D01*
X159433Y264779D01*
X157466D01*
X156482Y265763D01*
Y267731D01*
X158449D01*
X154514Y264779D02*
Y270683D01*
X150578Y264779D01*
Y270683D01*
X148610D02*
Y264779D01*
X145658D01*
X144674Y265763D01*
Y269699D01*
X145658Y270683D01*
X148610D01*
X160417Y255920D02*
X156482D01*
X158449Y257888D02*
Y253952D01*
X154514Y252969D02*
X152546D01*
X153530D01*
Y258872D01*
X154514Y257888D01*
X145658Y252969D02*
X149594D01*
X145658Y256904D01*
Y257888D01*
X146642Y258872D01*
X148610D01*
X149594Y257888D01*
X143691Y258872D02*
Y254936D01*
X141723Y252969D01*
X139755Y254936D01*
Y258872D01*
X534865Y220534D02*
X532866D01*
X533866D01*
Y214536D01*
X534865D01*
X532866D01*
X529867D02*
Y218535D01*
X526868D01*
X525868Y217535D01*
Y214536D01*
X523869Y212537D02*
Y218535D01*
X520870D01*
X519870Y217535D01*
Y215536D01*
X520870Y214536D01*
X523869D01*
X517871Y218535D02*
Y215536D01*
X516871Y214536D01*
X513872D01*
Y218535D01*
X510873Y219534D02*
Y218535D01*
X511873D01*
X509873D01*
X510873D01*
Y215536D01*
X509873Y214536D01*
X506874Y213536D02*
X502876D01*
X500876Y220534D02*
X496878D01*
X498877D01*
Y214536D01*
X491879D02*
X493879D01*
X494878Y215536D01*
Y217535D01*
X493879Y218535D01*
X491879D01*
X490879Y217535D01*
Y216535D01*
X494878D01*
X488880Y214536D02*
X485881D01*
X484881Y215536D01*
X485881Y216535D01*
X487881D01*
X488880Y217535D01*
X487881Y218535D01*
X484881D01*
X481882Y219534D02*
Y218535D01*
X482882D01*
X480883D01*
X481882D01*
Y215536D01*
X480883Y214536D01*
X235529Y185977D02*
X233530D01*
X234530D01*
Y191975D01*
X235529Y190976D01*
X230531D02*
X229531Y191975D01*
X227532D01*
X226532Y190976D01*
Y186977D01*
X227532Y185977D01*
X229531D01*
X230531Y186977D01*
Y190976D01*
X224533D02*
X223533Y191975D01*
X221534D01*
X220534Y190976D01*
Y186977D01*
X221534Y185977D01*
X223533D01*
X224533Y186977D01*
Y190976D01*
X218535Y185977D02*
Y189976D01*
X215536D01*
X214536Y188976D01*
Y185977D01*
X208538Y191975D02*
X212537D01*
Y188976D01*
X210537D01*
X212537D01*
Y185977D01*
X206539D02*
X204539D01*
X205539D01*
Y191975D01*
X206539Y190976D01*
X198541Y185977D02*
Y191975D01*
X201540Y188976D01*
X197542D01*
X158227Y347395D02*
X156228D01*
X157227D01*
Y353393D01*
X158227Y352393D01*
X153229D02*
X152229Y353393D01*
X150230D01*
X149230Y352393D01*
Y348394D01*
X150230Y347395D01*
X152229D01*
X153229Y348394D01*
Y352393D01*
X147231D02*
X146231Y353393D01*
X144231D01*
X143232Y352393D01*
Y348394D01*
X144231Y347395D01*
X146231D01*
X147231Y348394D01*
Y352393D01*
X141232Y347395D02*
Y351393D01*
X138233D01*
X137234Y350394D01*
Y347395D01*
X131236Y353393D02*
X135234D01*
Y350394D01*
X133235D01*
X135234D01*
Y347395D01*
X129236Y353393D02*
X125238D01*
Y352393D01*
X129236Y348394D01*
Y347395D01*
X495810Y319836D02*
X493811D01*
X494810D01*
Y325834D01*
X495810Y324834D01*
X490812D02*
X489812Y325834D01*
X487813D01*
X486813Y324834D01*
Y320835D01*
X487813Y319836D01*
X489812D01*
X490812Y320835D01*
Y324834D01*
X484813D02*
X483814Y325834D01*
X481814D01*
X480815Y324834D01*
Y320835D01*
X481814Y319836D01*
X483814D01*
X484813Y320835D01*
Y324834D01*
X478815Y319836D02*
Y323834D01*
X475816D01*
X474817Y322835D01*
Y319836D01*
X468819Y325834D02*
X472817D01*
Y322835D01*
X470818D01*
X472817D01*
Y319836D01*
X466819D02*
X464820D01*
X465820D01*
Y325834D01*
X466819Y324834D01*
X192537Y162355D02*
Y168353D01*
X189538D01*
X188538Y167354D01*
Y165354D01*
X189538Y164355D01*
X192537D01*
X190538D02*
X188538Y162355D01*
X186539D02*
X184539D01*
X185539D01*
Y168353D01*
X186539Y167354D01*
X178542Y162355D02*
Y168353D01*
X181541Y165354D01*
X177542D01*
X156666Y364204D02*
X155666Y365204D01*
X153667D01*
X152667Y364204D01*
Y360205D01*
X153667Y359206D01*
X155666D01*
X156666Y360205D01*
Y364204D01*
X150668D02*
X149668Y365204D01*
X147669D01*
X146669Y364204D01*
Y363204D01*
X147669Y362205D01*
X148668D01*
X147669D01*
X146669Y361205D01*
Y360205D01*
X147669Y359206D01*
X149668D01*
X150668Y360205D01*
X144670Y359206D02*
Y365204D01*
X141671D01*
X140671Y364204D01*
Y362205D01*
X141671Y361205D01*
X144670D01*
X142670D02*
X140671Y359206D01*
X138672Y365204D02*
X134673D01*
Y364204D01*
X138672Y360205D01*
Y359206D01*
X476440Y331647D02*
Y337645D01*
X473441D01*
X472441Y336645D01*
Y334646D01*
X473441Y333646D01*
X476440D01*
X474440D02*
X472441Y331647D01*
X470442D02*
X468442D01*
X469442D01*
Y337645D01*
X470442Y336645D01*
X273776Y316898D02*
X277775D01*
X273776Y320897D01*
Y321897D01*
X274776Y322896D01*
X276775D01*
X277775Y321897D01*
X267778Y316898D02*
X271777D01*
X267778Y320897D01*
Y321897D01*
X268778Y322896D01*
X270777D01*
X271777Y321897D01*
X265779D02*
X264779Y322896D01*
X262780D01*
X261780Y321897D01*
Y317898D01*
X262780Y316898D01*
X264779D01*
X265779Y317898D01*
Y321897D01*
X259781Y314899D02*
Y320897D01*
X256782D01*
X255782Y319897D01*
Y317898D01*
X256782Y316898D01*
X259781D01*
X249784Y322896D02*
X253783D01*
Y319897D01*
X251783D01*
X253783D01*
Y316898D01*
X506998Y304088D02*
X510996D01*
X506998Y308086D01*
Y309086D01*
X507997Y310086D01*
X509997D01*
X510996Y309086D01*
X501000Y304088D02*
X504998D01*
X501000Y308086D01*
Y309086D01*
X501999Y310086D01*
X503999D01*
X504998Y309086D01*
X499000Y308086D02*
Y305087D01*
X498001Y304088D01*
X495002D01*
Y308086D01*
X489004Y310086D02*
X493002D01*
Y307087D01*
X491003D01*
X493002D01*
Y304088D01*
X341643Y315899D02*
X345642D01*
X341643Y319897D01*
Y320897D01*
X342643Y321897D01*
X344642D01*
X345642Y320897D01*
X335645Y315899D02*
X339644D01*
X335645Y319897D01*
Y320897D01*
X336645Y321897D01*
X338644D01*
X339644Y320897D01*
X333646Y315899D02*
Y319897D01*
X330647D01*
X329647Y318898D01*
Y315899D01*
X323649Y321897D02*
X327648D01*
Y318898D01*
X325649D01*
X327648D01*
Y315899D01*
X415009Y288340D02*
X419007D01*
X415009Y292338D01*
Y293338D01*
X416008Y294338D01*
X418008D01*
X419007Y293338D01*
X413009Y288340D02*
Y289339D01*
X412010D01*
Y288340D01*
X413009D01*
X404012D02*
X408011D01*
X404012Y292338D01*
Y293338D01*
X405012Y294338D01*
X407011D01*
X408011Y293338D01*
X402013Y292338D02*
Y289339D01*
X401013Y288340D01*
X398014D01*
Y292338D01*
X392016Y294338D02*
X396015D01*
Y291339D01*
X394016D01*
X396015D01*
Y288340D01*
D46*
X206224Y255906D02*
X205873Y256870D01*
X204985Y257383D01*
X203974Y257205D01*
X203315Y256418D01*
Y255393D01*
X203974Y254607D01*
X204985Y254428D01*
X205873Y254941D01*
X206224Y255906D01*
D47*
X448917Y299606D02*
X448179Y300032D01*
Y299180D01*
X448917Y299606D01*
X370177D02*
X369439Y300032D01*
Y299180D01*
X370177Y299606D01*
X291437D02*
X290699Y300032D01*
Y299180D01*
X291437Y299606D01*
X212697D02*
X211959Y300032D01*
Y299180D01*
X212697Y299606D01*
D48*
X190815Y243143D02*
Y244355D01*
X163515Y276542D02*
X190815D01*
X163515Y243143D02*
Y276542D01*
Y243143D02*
X190815D01*
Y275330D02*
Y276542D01*
Y258681D02*
Y261004D01*
M02*
