G04*
G04 #@! TF.GenerationSoftware,Altium Limited,Altium Designer,21.1.1 (26)*
G04*
G04 Layer_Physical_Order=4*
G04 Layer_Color=16711680*
%FSLAX25Y25*%
%MOIN*%
G70*
G04*
G04 #@! TF.SameCoordinates,9566E8A9-A93A-4A59-9488-A4E323ADFB2D*
G04*
G04*
G04 #@! TF.FilePolarity,Positive*
G04*
G01*
G75*
%ADD12C,0.01000*%
%ADD21C,0.07874*%
%ADD22R,0.02756X0.02756*%
%ADD23C,0.12402*%
%ADD24R,0.04724X0.04724*%
%ADD25C,0.04724*%
%ADD26C,0.09843*%
%ADD27C,0.05000*%
%ADD28R,0.07316X0.05928*%
%ADD29R,0.01968X0.01968*%
%ADD30R,0.02047X0.02205*%
%ADD31R,0.05315X0.03937*%
%ADD32R,0.06127X0.05924*%
%ADD33R,0.03937X0.10630*%
%ADD34R,0.31500X0.04300*%
%ADD35R,0.27600X0.04900*%
G36*
X547244Y118110D02*
X118110D01*
Y393701D01*
X547244D01*
Y118110D01*
D02*
G37*
%LPC*%
G36*
X193413Y389291D02*
Y386327D01*
X196378D01*
X196323Y386740D01*
X195971Y387592D01*
X195410Y388323D01*
X194678Y388884D01*
X193827Y389237D01*
X193413Y389291D01*
D02*
G37*
G36*
X192413D02*
X192000Y389237D01*
X191148Y388884D01*
X190417Y388323D01*
X189856Y387592D01*
X189504Y386740D01*
X189449Y386327D01*
X192413D01*
Y389291D01*
D02*
G37*
G36*
X196378Y385327D02*
X193413D01*
Y382362D01*
X193827Y382417D01*
X194678Y382769D01*
X195410Y383330D01*
X195971Y384062D01*
X196323Y384913D01*
X196378Y385327D01*
D02*
G37*
G36*
X192413D02*
X189449D01*
X189504Y384913D01*
X189856Y384062D01*
X190417Y383330D01*
X191148Y382769D01*
X192000Y382417D01*
X192413Y382362D01*
Y385327D01*
D02*
G37*
G36*
X531996Y379916D02*
Y374516D01*
X537397D01*
X537332Y375177D01*
X536993Y376293D01*
X536443Y377321D01*
X535703Y378223D01*
X534802Y378963D01*
X533773Y379513D01*
X532657Y379851D01*
X531996Y379916D01*
D02*
G37*
G36*
X530996D02*
X530335Y379851D01*
X529219Y379513D01*
X528191Y378963D01*
X527289Y378223D01*
X526549Y377321D01*
X525999Y376293D01*
X525661Y375177D01*
X525595Y374516D01*
X530996D01*
Y379916D01*
D02*
G37*
G36*
X138295D02*
Y374516D01*
X143696D01*
X143631Y375177D01*
X143292Y376293D01*
X142743Y377321D01*
X142002Y378223D01*
X141101Y378963D01*
X140072Y379513D01*
X138956Y379851D01*
X138295Y379916D01*
D02*
G37*
G36*
X137295D02*
X136635Y379851D01*
X135518Y379513D01*
X134490Y378963D01*
X133588Y378223D01*
X132848Y377321D01*
X132298Y376293D01*
X131960Y375177D01*
X131895Y374516D01*
X137295D01*
Y379916D01*
D02*
G37*
G36*
X466221Y381653D02*
X464932Y381483D01*
X463731Y380986D01*
X462699Y380194D01*
X461908Y379163D01*
X461411Y377962D01*
X461241Y376673D01*
X461411Y375384D01*
X461908Y374183D01*
X462699Y373152D01*
X463731Y372361D01*
X464932Y371863D01*
X466221Y371694D01*
X467509Y371863D01*
X468710Y372361D01*
X469742Y373152D01*
X470533Y374183D01*
X471030Y375384D01*
X471200Y376673D01*
X471030Y377962D01*
X470533Y379163D01*
X469742Y380194D01*
X468710Y380986D01*
X467509Y381483D01*
X466221Y381653D01*
D02*
G37*
G36*
X418976D02*
X417688Y381483D01*
X416487Y380986D01*
X415455Y380194D01*
X414664Y379163D01*
X414166Y377962D01*
X413997Y376673D01*
X414166Y375384D01*
X414664Y374183D01*
X415455Y373152D01*
X416487Y372361D01*
X417688Y371863D01*
X418976Y371694D01*
X420265Y371863D01*
X421466Y372361D01*
X422498Y373152D01*
X423289Y374183D01*
X423786Y375384D01*
X423956Y376673D01*
X423786Y377962D01*
X423289Y379163D01*
X422498Y380194D01*
X421466Y380986D01*
X420265Y381483D01*
X418976Y381653D01*
D02*
G37*
G36*
X371732D02*
X370444Y381483D01*
X369243Y380986D01*
X368211Y380194D01*
X367420Y379163D01*
X366922Y377962D01*
X366753Y376673D01*
X366922Y375384D01*
X367420Y374183D01*
X368211Y373152D01*
X369243Y372361D01*
X370444Y371863D01*
X371732Y371694D01*
X373021Y371863D01*
X374222Y372361D01*
X375253Y373152D01*
X376045Y374183D01*
X376542Y375384D01*
X376712Y376673D01*
X376542Y377962D01*
X376045Y379163D01*
X375253Y380194D01*
X374222Y380986D01*
X373021Y381483D01*
X371732Y381653D01*
D02*
G37*
G36*
X324488D02*
X323199Y381483D01*
X321998Y380986D01*
X320967Y380194D01*
X320176Y379163D01*
X319678Y377962D01*
X319509Y376673D01*
X319678Y375384D01*
X320176Y374183D01*
X320967Y373152D01*
X321998Y372361D01*
X323199Y371863D01*
X324488Y371694D01*
X325777Y371863D01*
X326978Y372361D01*
X328009Y373152D01*
X328801Y374183D01*
X329298Y375384D01*
X329468Y376673D01*
X329298Y377962D01*
X328801Y379163D01*
X328009Y380194D01*
X326978Y380986D01*
X325777Y381483D01*
X324488Y381653D01*
D02*
G37*
G36*
X277244D02*
X275955Y381483D01*
X274754Y380986D01*
X273723Y380194D01*
X272932Y379163D01*
X272434Y377962D01*
X272265Y376673D01*
X272434Y375384D01*
X272932Y374183D01*
X273723Y373152D01*
X274754Y372361D01*
X275955Y371863D01*
X277244Y371694D01*
X278533Y371863D01*
X279734Y372361D01*
X280765Y373152D01*
X281557Y374183D01*
X282054Y375384D01*
X282224Y376673D01*
X282054Y377962D01*
X281557Y379163D01*
X280765Y380194D01*
X279734Y380986D01*
X278533Y381483D01*
X277244Y381653D01*
D02*
G37*
G36*
X230000D02*
X228711Y381483D01*
X227510Y380986D01*
X226479Y380194D01*
X225688Y379163D01*
X225190Y377962D01*
X225020Y376673D01*
X225190Y375384D01*
X225688Y374183D01*
X226479Y373152D01*
X227510Y372361D01*
X228711Y371863D01*
X230000Y371694D01*
X231289Y371863D01*
X232490Y372361D01*
X233521Y373152D01*
X234313Y374183D01*
X234810Y375384D01*
X234980Y376673D01*
X234810Y377962D01*
X234313Y379163D01*
X233521Y380194D01*
X232490Y380986D01*
X231289Y381483D01*
X230000Y381653D01*
D02*
G37*
G36*
X182756D02*
X181467Y381483D01*
X180266Y380986D01*
X179235Y380194D01*
X178443Y379163D01*
X177946Y377962D01*
X177776Y376673D01*
X177946Y375384D01*
X178443Y374183D01*
X179235Y373152D01*
X180266Y372361D01*
X181467Y371863D01*
X182756Y371694D01*
X184045Y371863D01*
X185246Y372361D01*
X186277Y373152D01*
X187068Y374183D01*
X187566Y375384D01*
X187735Y376673D01*
X187566Y377962D01*
X187068Y379163D01*
X186277Y380194D01*
X185246Y380986D01*
X184045Y381483D01*
X182756Y381653D01*
D02*
G37*
G36*
X486221Y381121D02*
X484932Y380952D01*
X483731Y380454D01*
X482699Y379663D01*
X481908Y378631D01*
X481411Y377431D01*
X481241Y376142D01*
X481411Y374853D01*
X481908Y373652D01*
X482699Y372621D01*
X483731Y371829D01*
X484932Y371332D01*
X486221Y371162D01*
X487509Y371332D01*
X488710Y371829D01*
X489742Y372621D01*
X490533Y373652D01*
X491030Y374853D01*
X491200Y376142D01*
X491030Y377431D01*
X490533Y378631D01*
X489742Y379663D01*
X488710Y380454D01*
X487509Y380952D01*
X486221Y381121D01*
D02*
G37*
G36*
X438976D02*
X437688Y380952D01*
X436487Y380454D01*
X435455Y379663D01*
X434664Y378631D01*
X434166Y377431D01*
X433997Y376142D01*
X434166Y374853D01*
X434664Y373652D01*
X435455Y372621D01*
X436487Y371829D01*
X437688Y371332D01*
X438976Y371162D01*
X440265Y371332D01*
X441466Y371829D01*
X442497Y372621D01*
X443289Y373652D01*
X443786Y374853D01*
X443956Y376142D01*
X443786Y377431D01*
X443289Y378631D01*
X442497Y379663D01*
X441466Y380454D01*
X440265Y380952D01*
X438976Y381121D01*
D02*
G37*
G36*
X391732D02*
X390443Y380952D01*
X389243Y380454D01*
X388211Y379663D01*
X387420Y378631D01*
X386922Y377431D01*
X386753Y376142D01*
X386922Y374853D01*
X387420Y373652D01*
X388211Y372621D01*
X389243Y371829D01*
X390443Y371332D01*
X391732Y371162D01*
X393021Y371332D01*
X394222Y371829D01*
X395253Y372621D01*
X396045Y373652D01*
X396542Y374853D01*
X396712Y376142D01*
X396542Y377431D01*
X396045Y378631D01*
X395253Y379663D01*
X394222Y380454D01*
X393021Y380952D01*
X391732Y381121D01*
D02*
G37*
G36*
X344488D02*
X343199Y380952D01*
X341998Y380454D01*
X340967Y379663D01*
X340176Y378631D01*
X339678Y377431D01*
X339509Y376142D01*
X339678Y374853D01*
X340176Y373652D01*
X340967Y372621D01*
X341998Y371829D01*
X343199Y371332D01*
X344488Y371162D01*
X345777Y371332D01*
X346978Y371829D01*
X348009Y372621D01*
X348801Y373652D01*
X349298Y374853D01*
X349468Y376142D01*
X349298Y377431D01*
X348801Y378631D01*
X348009Y379663D01*
X346978Y380454D01*
X345777Y380952D01*
X344488Y381121D01*
D02*
G37*
G36*
X297244D02*
X295955Y380952D01*
X294754Y380454D01*
X293723Y379663D01*
X292932Y378631D01*
X292434Y377431D01*
X292265Y376142D01*
X292434Y374853D01*
X292932Y373652D01*
X293723Y372621D01*
X294754Y371829D01*
X295955Y371332D01*
X297244Y371162D01*
X298533Y371332D01*
X299734Y371829D01*
X300765Y372621D01*
X301557Y373652D01*
X302054Y374853D01*
X302224Y376142D01*
X302054Y377431D01*
X301557Y378631D01*
X300765Y379663D01*
X299734Y380454D01*
X298533Y380952D01*
X297244Y381121D01*
D02*
G37*
G36*
X250000D02*
X248711Y380952D01*
X247510Y380454D01*
X246479Y379663D01*
X245688Y378631D01*
X245190Y377431D01*
X245020Y376142D01*
X245190Y374853D01*
X245688Y373652D01*
X246479Y372621D01*
X247510Y371829D01*
X248711Y371332D01*
X250000Y371162D01*
X251289Y371332D01*
X252490Y371829D01*
X253521Y372621D01*
X254312Y373652D01*
X254810Y374853D01*
X254980Y376142D01*
X254810Y377431D01*
X254312Y378631D01*
X253521Y379663D01*
X252490Y380454D01*
X251289Y380952D01*
X250000Y381121D01*
D02*
G37*
G36*
X202756D02*
X201467Y380952D01*
X200266Y380454D01*
X199235Y379663D01*
X198443Y378631D01*
X197946Y377431D01*
X197776Y376142D01*
X197946Y374853D01*
X198443Y373652D01*
X199235Y372621D01*
X200266Y371829D01*
X201467Y371332D01*
X202756Y371162D01*
X204045Y371332D01*
X205246Y371829D01*
X206277Y372621D01*
X207068Y373652D01*
X207566Y374853D01*
X207735Y376142D01*
X207566Y377431D01*
X207068Y378631D01*
X206277Y379663D01*
X205246Y380454D01*
X204045Y380952D01*
X202756Y381121D01*
D02*
G37*
G36*
X537397Y373516D02*
X531996D01*
Y368115D01*
X532657Y368180D01*
X533773Y368519D01*
X534802Y369069D01*
X535703Y369809D01*
X536443Y370710D01*
X536993Y371739D01*
X537332Y372855D01*
X537397Y373516D01*
D02*
G37*
G36*
X530996D02*
X525595D01*
X525661Y372855D01*
X525999Y371739D01*
X526549Y370710D01*
X527289Y369809D01*
X528191Y369069D01*
X529219Y368519D01*
X530335Y368180D01*
X530996Y368115D01*
Y373516D01*
D02*
G37*
G36*
X143696D02*
X138295D01*
Y368115D01*
X138956Y368180D01*
X140072Y368519D01*
X141101Y369069D01*
X142002Y369809D01*
X142743Y370710D01*
X143292Y371739D01*
X143631Y372855D01*
X143696Y373516D01*
D02*
G37*
G36*
X137295D02*
X131895D01*
X131960Y372855D01*
X132298Y371739D01*
X132848Y370710D01*
X133588Y369809D01*
X134490Y369069D01*
X135518Y368519D01*
X136635Y368180D01*
X137295Y368115D01*
Y373516D01*
D02*
G37*
G36*
X470882Y368520D02*
X469004D01*
Y366642D01*
X471004D01*
Y368224D01*
X470882D01*
Y368520D01*
D02*
G37*
G36*
X468004D02*
X466126D01*
Y368224D01*
X466004D01*
Y366642D01*
X468004D01*
Y368520D01*
D02*
G37*
G36*
X423638D02*
X421760D01*
Y366642D01*
X423760D01*
Y368224D01*
X423638D01*
Y368520D01*
D02*
G37*
G36*
X420760D02*
X418882D01*
Y368224D01*
X418760D01*
Y366642D01*
X420760D01*
Y368520D01*
D02*
G37*
G36*
X376394D02*
X374516D01*
Y366642D01*
X376516D01*
Y368224D01*
X376394D01*
Y368520D01*
D02*
G37*
G36*
X373516D02*
X371638D01*
Y368224D01*
X371516D01*
Y366642D01*
X373516D01*
Y368520D01*
D02*
G37*
G36*
X329150D02*
X327272D01*
Y366642D01*
X329272D01*
Y368224D01*
X329150D01*
Y368520D01*
D02*
G37*
G36*
X326272D02*
X324394D01*
Y368224D01*
X324272D01*
Y366642D01*
X326272D01*
Y368520D01*
D02*
G37*
G36*
X281906D02*
X280028D01*
Y366642D01*
X282028D01*
Y368224D01*
X281906D01*
Y368520D01*
D02*
G37*
G36*
X279028D02*
X277150D01*
Y368224D01*
X277028D01*
Y366642D01*
X279028D01*
Y368520D01*
D02*
G37*
G36*
X234661D02*
X232784D01*
Y366642D01*
X234784D01*
Y368224D01*
X234661D01*
Y368520D01*
D02*
G37*
G36*
X231784D02*
X229906D01*
Y368224D01*
X229784D01*
Y366642D01*
X231784D01*
Y368520D01*
D02*
G37*
G36*
X187417D02*
X185539D01*
Y366642D01*
X187539D01*
Y368224D01*
X187417D01*
Y368520D01*
D02*
G37*
G36*
X184539D02*
X182661D01*
Y368224D01*
X182539D01*
Y366642D01*
X184539D01*
Y368520D01*
D02*
G37*
G36*
X485843D02*
X481087D01*
Y368224D01*
X480965D01*
Y364059D01*
X481087D01*
Y363764D01*
X485843D01*
Y364059D01*
X485965D01*
Y368224D01*
X485843D01*
Y368520D01*
D02*
G37*
G36*
X478362D02*
X473606D01*
Y368224D01*
X473484D01*
Y364059D01*
X473606D01*
Y363764D01*
X478362D01*
Y364059D01*
X478484D01*
Y368224D01*
X478362D01*
Y368520D01*
D02*
G37*
G36*
X471004Y365642D02*
X469004D01*
Y363764D01*
X470882D01*
Y364059D01*
X471004D01*
Y365642D01*
D02*
G37*
G36*
X468004D02*
X466004D01*
Y364059D01*
X466126D01*
Y363764D01*
X468004D01*
Y365642D01*
D02*
G37*
G36*
X438598Y368520D02*
X433843D01*
Y368224D01*
X433720D01*
Y364059D01*
X433843D01*
Y363764D01*
X438598D01*
Y364059D01*
X438721D01*
Y368224D01*
X438598D01*
Y368520D01*
D02*
G37*
G36*
X431118D02*
X426362D01*
Y368224D01*
X426240D01*
Y364059D01*
X426362D01*
Y363764D01*
X431118D01*
Y364059D01*
X431240D01*
Y368224D01*
X431118D01*
Y368520D01*
D02*
G37*
G36*
X423760Y365642D02*
X421760D01*
Y363764D01*
X423638D01*
Y364059D01*
X423760D01*
Y365642D01*
D02*
G37*
G36*
X420760D02*
X418760D01*
Y364059D01*
X418882D01*
Y363764D01*
X420760D01*
Y365642D01*
D02*
G37*
G36*
X391354Y368520D02*
X386598D01*
Y368224D01*
X386476D01*
Y364059D01*
X386598D01*
Y363764D01*
X391354D01*
Y364059D01*
X391476D01*
Y368224D01*
X391354D01*
Y368520D01*
D02*
G37*
G36*
X383874D02*
X379118D01*
Y368224D01*
X378996D01*
Y364059D01*
X379118D01*
Y363764D01*
X383874D01*
Y364059D01*
X383996D01*
Y368224D01*
X383874D01*
Y368520D01*
D02*
G37*
G36*
X376516Y365642D02*
X374516D01*
Y363764D01*
X376394D01*
Y364059D01*
X376516D01*
Y365642D01*
D02*
G37*
G36*
X373516D02*
X371516D01*
Y364059D01*
X371638D01*
Y363764D01*
X373516D01*
Y365642D01*
D02*
G37*
G36*
X344110Y368520D02*
X339354D01*
Y368224D01*
X339232D01*
Y364059D01*
X339354D01*
Y363764D01*
X344110D01*
Y364059D01*
X344232D01*
Y368224D01*
X344110D01*
Y368520D01*
D02*
G37*
G36*
X336630D02*
X331874D01*
Y368224D01*
X331752D01*
Y364059D01*
X331874D01*
Y363764D01*
X336630D01*
Y364059D01*
X336752D01*
Y368224D01*
X336630D01*
Y368520D01*
D02*
G37*
G36*
X329272Y365642D02*
X327272D01*
Y363764D01*
X329150D01*
Y364059D01*
X329272D01*
Y365642D01*
D02*
G37*
G36*
X326272D02*
X324272D01*
Y364059D01*
X324394D01*
Y363764D01*
X326272D01*
Y365642D01*
D02*
G37*
G36*
X296866Y368520D02*
X292110D01*
Y368224D01*
X291988D01*
Y364059D01*
X292110D01*
Y363764D01*
X296866D01*
Y364059D01*
X296988D01*
Y368224D01*
X296866D01*
Y368520D01*
D02*
G37*
G36*
X289386D02*
X284630D01*
Y368224D01*
X284508D01*
Y364059D01*
X284630D01*
Y363764D01*
X289386D01*
Y364059D01*
X289508D01*
Y368224D01*
X289386D01*
Y368520D01*
D02*
G37*
G36*
X282028Y365642D02*
X280028D01*
Y363764D01*
X281906D01*
Y364059D01*
X282028D01*
Y365642D01*
D02*
G37*
G36*
X279028D02*
X277028D01*
Y364059D01*
X277150D01*
Y363764D01*
X279028D01*
Y365642D01*
D02*
G37*
G36*
X249622Y368520D02*
X244866D01*
Y368224D01*
X244744D01*
Y364059D01*
X244866D01*
Y363764D01*
X249622D01*
Y364059D01*
X249744D01*
Y368224D01*
X249622D01*
Y368520D01*
D02*
G37*
G36*
X242142D02*
X237386D01*
Y368224D01*
X237264D01*
Y364059D01*
X237386D01*
Y363764D01*
X242142D01*
Y364059D01*
X242264D01*
Y368224D01*
X242142D01*
Y368520D01*
D02*
G37*
G36*
X234784Y365642D02*
X232784D01*
Y363764D01*
X234661D01*
Y364059D01*
X234784D01*
Y365642D01*
D02*
G37*
G36*
X231784D02*
X229784D01*
Y364059D01*
X229906D01*
Y363764D01*
X231784D01*
Y365642D01*
D02*
G37*
G36*
X202378Y368520D02*
X197622D01*
Y368224D01*
X197500D01*
Y364059D01*
X197622D01*
Y363764D01*
X202378D01*
Y364059D01*
X202500D01*
Y368224D01*
X202378D01*
Y368520D01*
D02*
G37*
G36*
X194898D02*
X190142D01*
Y368224D01*
X190020D01*
Y364059D01*
X190142D01*
Y363764D01*
X194898D01*
Y364059D01*
X195020D01*
Y368224D01*
X194898D01*
Y368520D01*
D02*
G37*
G36*
X187539Y365642D02*
X185539D01*
Y363764D01*
X187417D01*
Y364059D01*
X187539D01*
Y365642D01*
D02*
G37*
G36*
X184539D02*
X182539D01*
Y364059D01*
X182661D01*
Y363764D01*
X184539D01*
Y365642D01*
D02*
G37*
G36*
X311012Y369948D02*
X310098Y369827D01*
X309247Y369475D01*
X308516Y368914D01*
X307955Y368183D01*
X307602Y367331D01*
X307482Y366418D01*
X307602Y365504D01*
X307955Y364652D01*
X308516Y363921D01*
X309247Y363360D01*
X310098Y363008D01*
X311012Y362887D01*
X311926Y363008D01*
X312777Y363360D01*
X313508Y363921D01*
X314069Y364652D01*
X314422Y365504D01*
X314542Y366418D01*
X314422Y367331D01*
X314069Y368183D01*
X313508Y368914D01*
X312777Y369475D01*
X311926Y369827D01*
X311012Y369948D01*
D02*
G37*
G36*
X511811Y369672D02*
X510897Y369552D01*
X510046Y369199D01*
X509315Y368638D01*
X508754Y367907D01*
X508401Y367055D01*
X508281Y366142D01*
X508401Y365228D01*
X508754Y364377D01*
X509315Y363646D01*
X510046Y363085D01*
X510897Y362732D01*
X511811Y362612D01*
X512725Y362732D01*
X513576Y363085D01*
X514307Y363646D01*
X514868Y364377D01*
X515221Y365228D01*
X515341Y366142D01*
X515221Y367055D01*
X514868Y367907D01*
X514307Y368638D01*
X513576Y369199D01*
X512725Y369552D01*
X511811Y369672D01*
D02*
G37*
G36*
X452756D02*
X451842Y369552D01*
X450991Y369199D01*
X450260Y368638D01*
X449699Y367907D01*
X449346Y367055D01*
X449226Y366142D01*
X449346Y365228D01*
X449699Y364377D01*
X450260Y363646D01*
X450991Y363085D01*
X451842Y362732D01*
X452756Y362612D01*
X453670Y362732D01*
X454521Y363085D01*
X455252Y363646D01*
X455813Y364377D01*
X456166Y365228D01*
X456286Y366142D01*
X456166Y367055D01*
X455813Y367907D01*
X455252Y368638D01*
X454521Y369199D01*
X453670Y369552D01*
X452756Y369672D01*
D02*
G37*
G36*
X405512D02*
X404598Y369552D01*
X403747Y369199D01*
X403016Y368638D01*
X402455Y367907D01*
X402102Y367055D01*
X401982Y366142D01*
X402102Y365228D01*
X402455Y364377D01*
X403016Y363646D01*
X403747Y363085D01*
X404598Y362732D01*
X405512Y362612D01*
X406426Y362732D01*
X407277Y363085D01*
X408008Y363646D01*
X408569Y364377D01*
X408922Y365228D01*
X409042Y366142D01*
X408922Y367055D01*
X408569Y367907D01*
X408008Y368638D01*
X407277Y369199D01*
X406426Y369552D01*
X405512Y369672D01*
D02*
G37*
G36*
X358268D02*
X357354Y369552D01*
X356503Y369199D01*
X355771Y368638D01*
X355210Y367907D01*
X354858Y367055D01*
X354737Y366142D01*
X354858Y365228D01*
X355210Y364377D01*
X355771Y363646D01*
X356503Y363085D01*
X357354Y362732D01*
X358268Y362612D01*
X359181Y362732D01*
X360033Y363085D01*
X360764Y363646D01*
X361325Y364377D01*
X361678Y365228D01*
X361798Y366142D01*
X361678Y367055D01*
X361325Y367907D01*
X360764Y368638D01*
X360033Y369199D01*
X359181Y369552D01*
X358268Y369672D01*
D02*
G37*
G36*
X263779D02*
X262866Y369552D01*
X262014Y369199D01*
X261283Y368638D01*
X260722Y367907D01*
X260370Y367055D01*
X260249Y366142D01*
X260370Y365228D01*
X260722Y364377D01*
X261283Y363646D01*
X262014Y363085D01*
X262866Y362732D01*
X263779Y362612D01*
X264693Y362732D01*
X265545Y363085D01*
X266276Y363646D01*
X266837Y364377D01*
X267189Y365228D01*
X267310Y366142D01*
X267189Y367055D01*
X266837Y367907D01*
X266276Y368638D01*
X265545Y369199D01*
X264693Y369552D01*
X263779Y369672D01*
D02*
G37*
G36*
X216535D02*
X215622Y369552D01*
X214770Y369199D01*
X214039Y368638D01*
X213478Y367907D01*
X213125Y367055D01*
X213005Y366142D01*
X213125Y365228D01*
X213478Y364377D01*
X214039Y363646D01*
X214770Y363085D01*
X215622Y362732D01*
X216535Y362612D01*
X217449Y362732D01*
X218301Y363085D01*
X219032Y363646D01*
X219593Y364377D01*
X219945Y365228D01*
X220066Y366142D01*
X219945Y367055D01*
X219593Y367907D01*
X219032Y368638D01*
X218301Y369199D01*
X217449Y369552D01*
X216535Y369672D01*
D02*
G37*
G36*
X475984Y353299D02*
X474573Y353160D01*
X473215Y352748D01*
X471964Y352079D01*
X470868Y351179D01*
X469968Y350083D01*
X469299Y348832D01*
X468888Y347475D01*
X468749Y346063D01*
X468888Y344651D01*
X469299Y343294D01*
X469968Y342043D01*
X470868Y340947D01*
X471964Y340047D01*
X473215Y339378D01*
X474573Y338966D01*
X475984Y338827D01*
X477396Y338966D01*
X478753Y339378D01*
X480004Y340047D01*
X481101Y340947D01*
X482000Y342043D01*
X482669Y343294D01*
X483081Y344651D01*
X483220Y346063D01*
X483081Y347475D01*
X482669Y348832D01*
X482000Y350083D01*
X481101Y351179D01*
X480004Y352079D01*
X478753Y352748D01*
X477396Y353160D01*
X475984Y353299D01*
D02*
G37*
G36*
X428740D02*
X427328Y353160D01*
X425971Y352748D01*
X424720Y352079D01*
X423624Y351179D01*
X422724Y350083D01*
X422055Y348832D01*
X421644Y347475D01*
X421504Y346063D01*
X421644Y344651D01*
X422055Y343294D01*
X422724Y342043D01*
X423624Y340947D01*
X424720Y340047D01*
X425971Y339378D01*
X427328Y338966D01*
X428740Y338827D01*
X430152Y338966D01*
X431509Y339378D01*
X432760Y340047D01*
X433856Y340947D01*
X434756Y342043D01*
X435425Y343294D01*
X435837Y344651D01*
X435976Y346063D01*
X435837Y347475D01*
X435425Y348832D01*
X434756Y350083D01*
X433856Y351179D01*
X432760Y352079D01*
X431509Y352748D01*
X430152Y353160D01*
X428740Y353299D01*
D02*
G37*
G36*
X381496D02*
X380084Y353160D01*
X378727Y352748D01*
X377476Y352079D01*
X376380Y351179D01*
X375480Y350083D01*
X374811Y348832D01*
X374399Y347475D01*
X374260Y346063D01*
X374399Y344651D01*
X374811Y343294D01*
X375480Y342043D01*
X376380Y340947D01*
X377476Y340047D01*
X378727Y339378D01*
X380084Y338966D01*
X381496Y338827D01*
X382908Y338966D01*
X384265Y339378D01*
X385516Y340047D01*
X386612Y340947D01*
X387512Y342043D01*
X388181Y343294D01*
X388593Y344651D01*
X388732Y346063D01*
X388593Y347475D01*
X388181Y348832D01*
X387512Y350083D01*
X386612Y351179D01*
X385516Y352079D01*
X384265Y352748D01*
X382908Y353160D01*
X381496Y353299D01*
D02*
G37*
G36*
X334252D02*
X332840Y353160D01*
X331483Y352748D01*
X330232Y352079D01*
X329136Y351179D01*
X328236Y350083D01*
X327567Y348832D01*
X327155Y347475D01*
X327016Y346063D01*
X327155Y344651D01*
X327567Y343294D01*
X328236Y342043D01*
X329136Y340947D01*
X330232Y340047D01*
X331483Y339378D01*
X332840Y338966D01*
X334252Y338827D01*
X335664Y338966D01*
X337021Y339378D01*
X338272Y340047D01*
X339368Y340947D01*
X340268Y342043D01*
X340937Y343294D01*
X341349Y344651D01*
X341488Y346063D01*
X341349Y347475D01*
X340937Y348832D01*
X340268Y350083D01*
X339368Y351179D01*
X338272Y352079D01*
X337021Y352748D01*
X335664Y353160D01*
X334252Y353299D01*
D02*
G37*
G36*
X287008D02*
X285596Y353160D01*
X284239Y352748D01*
X282988Y352079D01*
X281891Y351179D01*
X280992Y350083D01*
X280323Y348832D01*
X279911Y347475D01*
X279772Y346063D01*
X279911Y344651D01*
X280323Y343294D01*
X280992Y342043D01*
X281891Y340947D01*
X282988Y340047D01*
X284239Y339378D01*
X285596Y338966D01*
X287008Y338827D01*
X288420Y338966D01*
X289777Y339378D01*
X291028Y340047D01*
X292124Y340947D01*
X293024Y342043D01*
X293693Y343294D01*
X294105Y344651D01*
X294244Y346063D01*
X294105Y347475D01*
X293693Y348832D01*
X293024Y350083D01*
X292124Y351179D01*
X291028Y352079D01*
X289777Y352748D01*
X288420Y353160D01*
X287008Y353299D01*
D02*
G37*
G36*
X239764D02*
X238352Y353160D01*
X236995Y352748D01*
X235744Y352079D01*
X234647Y351179D01*
X233748Y350083D01*
X233079Y348832D01*
X232667Y347475D01*
X232528Y346063D01*
X232667Y344651D01*
X233079Y343294D01*
X233748Y342043D01*
X234647Y340947D01*
X235744Y340047D01*
X236995Y339378D01*
X238352Y338966D01*
X239764Y338827D01*
X241175Y338966D01*
X242533Y339378D01*
X243784Y340047D01*
X244880Y340947D01*
X245780Y342043D01*
X246449Y343294D01*
X246860Y344651D01*
X246999Y346063D01*
X246860Y347475D01*
X246449Y348832D01*
X245780Y350083D01*
X244880Y351179D01*
X243784Y352079D01*
X242533Y352748D01*
X241175Y353160D01*
X239764Y353299D01*
D02*
G37*
G36*
X192520D02*
X191108Y353160D01*
X189751Y352748D01*
X188500Y352079D01*
X187403Y351179D01*
X186504Y350083D01*
X185835Y348832D01*
X185423Y347475D01*
X185284Y346063D01*
X185423Y344651D01*
X185835Y343294D01*
X186504Y342043D01*
X187403Y340947D01*
X188500Y340047D01*
X189751Y339378D01*
X191108Y338966D01*
X192520Y338827D01*
X193931Y338966D01*
X195289Y339378D01*
X196540Y340047D01*
X197636Y340947D01*
X198536Y342043D01*
X199205Y343294D01*
X199616Y344651D01*
X199755Y346063D01*
X199616Y347475D01*
X199205Y348832D01*
X198536Y350083D01*
X197636Y351179D01*
X196540Y352079D01*
X195289Y352748D01*
X193931Y353160D01*
X192520Y353299D01*
D02*
G37*
G36*
X511811Y314554D02*
X510897Y314434D01*
X510046Y314081D01*
X509315Y313520D01*
X508754Y312789D01*
X508656Y312553D01*
X503657D01*
Y313205D01*
X496343D01*
Y312553D01*
X465153D01*
X464568Y312437D01*
X464071Y312105D01*
X463485Y311519D01*
X463154Y311023D01*
X463037Y310438D01*
Y308616D01*
X460055D01*
Y313402D01*
X454118D01*
Y300772D01*
X460055D01*
Y305557D01*
X463981D01*
X464566Y305674D01*
X465063Y306005D01*
X465648Y306591D01*
X465980Y307087D01*
X466096Y307672D01*
Y309494D01*
X496343D01*
Y307405D01*
X496343Y307268D01*
Y306906D01*
X496343Y306768D01*
Y304437D01*
X500000D01*
X503657D01*
Y306768D01*
X503657Y306906D01*
Y307268D01*
X503657Y307405D01*
Y309494D01*
X508656D01*
X508754Y309259D01*
X509315Y308527D01*
X510046Y307966D01*
X510897Y307614D01*
X511811Y307493D01*
X512725Y307614D01*
X513576Y307966D01*
X514307Y308527D01*
X514868Y309259D01*
X515221Y310110D01*
X515341Y311024D01*
X515221Y311937D01*
X514868Y312789D01*
X514307Y313520D01*
X513576Y314081D01*
X512725Y314434D01*
X511811Y314554D01*
D02*
G37*
G36*
X421386Y314595D02*
X413259D01*
Y312553D01*
X398224D01*
X397638Y312437D01*
X397142Y312105D01*
X396556Y311519D01*
X396225Y311023D01*
X396108Y310438D01*
Y308616D01*
X381315D01*
Y313402D01*
X375378D01*
Y300772D01*
X381315D01*
Y305557D01*
X397052D01*
X397637Y305674D01*
X398133Y306005D01*
X398719Y306591D01*
X399051Y307087D01*
X399167Y307672D01*
Y309494D01*
X413259D01*
Y306671D01*
Y304040D01*
X417323D01*
X421386D01*
Y306671D01*
Y309104D01*
X445457D01*
Y300772D01*
X451394D01*
Y313402D01*
X445457D01*
Y312162D01*
X421386D01*
Y314595D01*
D02*
G37*
G36*
X372654Y313402D02*
X366717D01*
Y308616D01*
X352169D01*
X351584Y308500D01*
X351452Y308411D01*
X339304D01*
Y312926D01*
X329988D01*
Y308616D01*
X302575D01*
Y313402D01*
X296638D01*
Y300772D01*
X302575D01*
Y305557D01*
X329988D01*
Y304998D01*
X339304D01*
Y305352D01*
X351965D01*
X352550Y305469D01*
X352682Y305557D01*
X366717D01*
Y300772D01*
X372654D01*
Y313402D01*
D02*
G37*
G36*
X293913D02*
X287976D01*
Y306451D01*
X265803D01*
Y307221D01*
X261756D01*
Y306451D01*
X223835D01*
Y313402D01*
X217898D01*
Y300772D01*
X223835D01*
Y303392D01*
X261756D01*
Y303016D01*
X261795D01*
Y301681D01*
X263779D01*
X265764D01*
Y303016D01*
X265803D01*
Y303392D01*
X287976D01*
Y300772D01*
X293913D01*
Y313402D01*
D02*
G37*
G36*
X339304Y301302D02*
X335146D01*
Y297838D01*
X339304D01*
Y301302D01*
D02*
G37*
G36*
X334146D02*
X329988D01*
Y297838D01*
X334146D01*
Y301302D01*
D02*
G37*
G36*
X503657Y303437D02*
X500000D01*
X496343D01*
Y300969D01*
X498471D01*
Y296805D01*
X418852D01*
Y299578D01*
X421386D01*
Y303040D01*
X417323D01*
X413259D01*
Y299578D01*
X415793D01*
Y296805D01*
X339304D01*
Y296838D01*
X335146D01*
Y293374D01*
X339304D01*
Y293746D01*
X508656D01*
X508754Y293511D01*
X509315Y292779D01*
X510046Y292218D01*
X510897Y291866D01*
X511311Y291811D01*
Y295276D01*
Y298740D01*
X510897Y298686D01*
X510046Y298333D01*
X509315Y297772D01*
X508754Y297041D01*
X508656Y296805D01*
X501529D01*
Y300969D01*
X503657D01*
Y303437D01*
D02*
G37*
G36*
X512311Y298740D02*
Y295776D01*
X515275D01*
X515221Y296189D01*
X514868Y297041D01*
X514307Y297772D01*
X513576Y298333D01*
X512725Y298686D01*
X512311Y298740D01*
D02*
G37*
G36*
X265764Y300681D02*
X263779D01*
X261795D01*
Y299197D01*
X262250D01*
Y295861D01*
X262367Y295276D01*
X262698Y294780D01*
X263284Y294194D01*
X263780Y293863D01*
X264365Y293746D01*
X329988D01*
Y293374D01*
X334146D01*
Y296838D01*
X329988D01*
Y296805D01*
X265309D01*
Y299197D01*
X265764D01*
Y300681D01*
D02*
G37*
G36*
X515275Y294776D02*
X512311D01*
Y291811D01*
X512725Y291866D01*
X513576Y292218D01*
X514307Y292779D01*
X514868Y293511D01*
X515221Y294362D01*
X515275Y294776D01*
D02*
G37*
G36*
X215173Y313402D02*
X209236D01*
Y300772D01*
X210675D01*
Y275984D01*
X210792Y275399D01*
X211123Y274903D01*
X213328Y272698D01*
X213824Y272367D01*
X214409Y272250D01*
X225341D01*
X225410Y272084D01*
X225949Y271382D01*
X226651Y270843D01*
X227469Y270504D01*
X228346Y270388D01*
X229224Y270504D01*
X230042Y270843D01*
X230744Y271382D01*
X231283Y272084D01*
X231622Y272902D01*
X231738Y273780D01*
X231622Y274657D01*
X231283Y275475D01*
X230744Y276178D01*
X230042Y276716D01*
X229224Y277055D01*
X228346Y277171D01*
X227469Y277055D01*
X226651Y276716D01*
X225949Y276178D01*
X225410Y275475D01*
X225341Y275309D01*
X215043D01*
X213734Y276618D01*
Y300772D01*
X215173D01*
Y313402D01*
D02*
G37*
G36*
X200254Y275020D02*
X166753D01*
Y268720D01*
X200254D01*
Y275020D01*
D02*
G37*
G36*
X183003Y268214D02*
X168703D01*
Y266293D01*
X140269D01*
X139560Y266837D01*
X138709Y267189D01*
X138295Y267244D01*
Y263779D01*
Y260315D01*
X138709Y260370D01*
X139560Y260722D01*
X140292Y261283D01*
X140852Y262014D01*
X141205Y262866D01*
X141254Y263234D01*
X168703D01*
Y261314D01*
X183003D01*
Y264764D01*
Y268214D01*
D02*
G37*
G36*
X198303D02*
X184003D01*
Y265264D01*
X198303D01*
Y268214D01*
D02*
G37*
G36*
X137295Y267244D02*
X136882Y267189D01*
X136030Y266837D01*
X135299Y266276D01*
X134738Y265545D01*
X134385Y264693D01*
X134331Y264280D01*
X137295D01*
Y267244D01*
D02*
G37*
G36*
X198303Y264264D02*
X184003D01*
Y261314D01*
X198303D01*
Y264264D01*
D02*
G37*
G36*
X137295Y263280D02*
X134331D01*
X134385Y262866D01*
X134738Y262014D01*
X135299Y261283D01*
X136030Y260722D01*
X136882Y260370D01*
X137295Y260315D01*
Y263280D01*
D02*
G37*
G36*
X231709Y267142D02*
X224984D01*
Y260417D01*
X226817D01*
Y256539D01*
X226729Y256451D01*
X198303D01*
Y258371D01*
X168703D01*
Y251471D01*
X198303D01*
Y253392D01*
X227362D01*
X227947Y253508D01*
X228444Y253840D01*
X229428Y254824D01*
X229759Y255320D01*
X229876Y255906D01*
Y260417D01*
X231709D01*
Y267142D01*
D02*
G37*
G36*
X200254Y250965D02*
X166753D01*
Y244665D01*
X200254D01*
Y250965D01*
D02*
G37*
G36*
X345026Y233718D02*
Y230753D01*
X347990D01*
X347936Y231167D01*
X347583Y232019D01*
X347022Y232750D01*
X346291Y233311D01*
X345439Y233663D01*
X345026Y233718D01*
D02*
G37*
G36*
X344026D02*
X343612Y233663D01*
X342760Y233311D01*
X342029Y232750D01*
X341468Y232019D01*
X341116Y231167D01*
X341061Y230753D01*
X344026D01*
Y233718D01*
D02*
G37*
G36*
X322835Y235814D02*
X321921Y235693D01*
X321070Y235341D01*
X320338Y234780D01*
X319777Y234049D01*
X319425Y233197D01*
X319304Y232283D01*
X319425Y231370D01*
X319777Y230518D01*
X320338Y229787D01*
X321070Y229226D01*
X321921Y228873D01*
X322835Y228753D01*
X323748Y228873D01*
X324600Y229226D01*
X325331Y229787D01*
X325892Y230518D01*
X326245Y231370D01*
X326365Y232283D01*
X326245Y233197D01*
X325892Y234049D01*
X325331Y234780D01*
X324600Y235341D01*
X323748Y235693D01*
X322835Y235814D01*
D02*
G37*
G36*
X347990Y229753D02*
X345026D01*
Y226789D01*
X345439Y226844D01*
X346291Y227196D01*
X347022Y227757D01*
X347583Y228488D01*
X347936Y229340D01*
X347990Y229753D01*
D02*
G37*
G36*
X344026D02*
X341061D01*
X341116Y229340D01*
X341468Y228488D01*
X342029Y227757D01*
X342760Y227196D01*
X343612Y226844D01*
X344026Y226789D01*
Y229753D01*
D02*
G37*
G36*
X476772Y184795D02*
X475360Y184656D01*
X474003Y184244D01*
X472752Y183575D01*
X471655Y182675D01*
X470755Y181579D01*
X470087Y180328D01*
X469675Y178971D01*
X469536Y177559D01*
X469675Y176147D01*
X470087Y174790D01*
X470755Y173539D01*
X471655Y172443D01*
X472752Y171543D01*
X474003Y170874D01*
X475360Y170463D01*
X476772Y170323D01*
X478183Y170463D01*
X479541Y170874D01*
X480792Y171543D01*
X481888Y172443D01*
X482788Y173539D01*
X483457Y174790D01*
X483868Y176147D01*
X484007Y177559D01*
X483868Y178971D01*
X483457Y180328D01*
X482788Y181579D01*
X481888Y182675D01*
X480792Y183575D01*
X479541Y184244D01*
X478183Y184656D01*
X476772Y184795D01*
D02*
G37*
G36*
X429528D02*
X428116Y184656D01*
X426759Y184244D01*
X425508Y183575D01*
X424411Y182675D01*
X423511Y181579D01*
X422843Y180328D01*
X422431Y178971D01*
X422292Y177559D01*
X422431Y176147D01*
X422843Y174790D01*
X423511Y173539D01*
X424411Y172443D01*
X425508Y171543D01*
X426759Y170874D01*
X428116Y170463D01*
X429528Y170323D01*
X430939Y170463D01*
X432297Y170874D01*
X433547Y171543D01*
X434644Y172443D01*
X435544Y173539D01*
X436212Y174790D01*
X436624Y176147D01*
X436763Y177559D01*
X436624Y178971D01*
X436212Y180328D01*
X435544Y181579D01*
X434644Y182675D01*
X433547Y183575D01*
X432297Y184244D01*
X430939Y184656D01*
X429528Y184795D01*
D02*
G37*
G36*
X382283D02*
X380872Y184656D01*
X379515Y184244D01*
X378264Y183575D01*
X377167Y182675D01*
X376267Y181579D01*
X375599Y180328D01*
X375187Y178971D01*
X375048Y177559D01*
X375187Y176147D01*
X375599Y174790D01*
X376267Y173539D01*
X377167Y172443D01*
X378264Y171543D01*
X379515Y170874D01*
X380872Y170463D01*
X382283Y170323D01*
X383695Y170463D01*
X385052Y170874D01*
X386303Y171543D01*
X387400Y172443D01*
X388300Y173539D01*
X388968Y174790D01*
X389380Y176147D01*
X389519Y177559D01*
X389380Y178971D01*
X388968Y180328D01*
X388300Y181579D01*
X387400Y182675D01*
X386303Y183575D01*
X385052Y184244D01*
X383695Y184656D01*
X382283Y184795D01*
D02*
G37*
G36*
X335039D02*
X333628Y184656D01*
X332270Y184244D01*
X331019Y183575D01*
X329923Y182675D01*
X329023Y181579D01*
X328355Y180328D01*
X327943Y178971D01*
X327804Y177559D01*
X327943Y176147D01*
X328355Y174790D01*
X329023Y173539D01*
X329923Y172443D01*
X331019Y171543D01*
X332270Y170874D01*
X333628Y170463D01*
X335039Y170323D01*
X336451Y170463D01*
X337808Y170874D01*
X339059Y171543D01*
X340156Y172443D01*
X341056Y173539D01*
X341724Y174790D01*
X342136Y176147D01*
X342275Y177559D01*
X342136Y178971D01*
X341724Y180328D01*
X341056Y181579D01*
X340156Y182675D01*
X339059Y183575D01*
X337808Y184244D01*
X336451Y184656D01*
X335039Y184795D01*
D02*
G37*
G36*
X287795D02*
X286384Y184656D01*
X285026Y184244D01*
X283775Y183575D01*
X282679Y182675D01*
X281779Y181579D01*
X281110Y180328D01*
X280699Y178971D01*
X280560Y177559D01*
X280699Y176147D01*
X281110Y174790D01*
X281779Y173539D01*
X282679Y172443D01*
X283775Y171543D01*
X285026Y170874D01*
X286384Y170463D01*
X287795Y170323D01*
X289207Y170463D01*
X290564Y170874D01*
X291815Y171543D01*
X292912Y172443D01*
X293811Y173539D01*
X294480Y174790D01*
X294892Y176147D01*
X295031Y177559D01*
X294892Y178971D01*
X294480Y180328D01*
X293811Y181579D01*
X292912Y182675D01*
X291815Y183575D01*
X290564Y184244D01*
X289207Y184656D01*
X287795Y184795D01*
D02*
G37*
G36*
X240551D02*
X239140Y184656D01*
X237782Y184244D01*
X236531Y183575D01*
X235435Y182675D01*
X234535Y181579D01*
X233866Y180328D01*
X233455Y178971D01*
X233316Y177559D01*
X233455Y176147D01*
X233866Y174790D01*
X234535Y173539D01*
X235435Y172443D01*
X236531Y171543D01*
X237782Y170874D01*
X239140Y170463D01*
X240551Y170323D01*
X241963Y170463D01*
X243320Y170874D01*
X244571Y171543D01*
X245668Y172443D01*
X246567Y173539D01*
X247236Y174790D01*
X247648Y176147D01*
X247787Y177559D01*
X247648Y178971D01*
X247236Y180328D01*
X246567Y181579D01*
X245668Y182675D01*
X244571Y183575D01*
X243320Y184244D01*
X241963Y184656D01*
X240551Y184795D01*
D02*
G37*
G36*
X193307D02*
X191895Y184656D01*
X190538Y184244D01*
X189287Y183575D01*
X188191Y182675D01*
X187291Y181579D01*
X186622Y180328D01*
X186211Y178971D01*
X186072Y177559D01*
X186211Y176147D01*
X186622Y174790D01*
X187291Y173539D01*
X188191Y172443D01*
X189287Y171543D01*
X190538Y170874D01*
X191895Y170463D01*
X193307Y170323D01*
X194719Y170463D01*
X196076Y170874D01*
X197327Y171543D01*
X198424Y172443D01*
X199323Y173539D01*
X199992Y174790D01*
X200404Y176147D01*
X200543Y177559D01*
X200404Y178971D01*
X199992Y180328D01*
X199323Y181579D01*
X198424Y182675D01*
X197327Y183575D01*
X196076Y184244D01*
X194719Y184656D01*
X193307Y184795D01*
D02*
G37*
G36*
X439386Y159858D02*
X437508D01*
Y157980D01*
X439508D01*
Y159563D01*
X439386D01*
Y159858D01*
D02*
G37*
G36*
X297654D02*
X295776D01*
Y157980D01*
X297776D01*
Y159563D01*
X297654D01*
Y159858D01*
D02*
G37*
G36*
X250410D02*
X248532D01*
Y157980D01*
X250532D01*
Y159563D01*
X250410D01*
Y159858D01*
D02*
G37*
G36*
X203165D02*
X201287D01*
Y157980D01*
X203287D01*
Y159563D01*
X203165D01*
Y159858D01*
D02*
G37*
G36*
X344898D02*
X343020D01*
Y157980D01*
X345020D01*
Y159563D01*
X344898D01*
Y159858D01*
D02*
G37*
G36*
X486630D02*
X484752D01*
Y157980D01*
X486752D01*
Y159563D01*
X486630D01*
Y159858D01*
D02*
G37*
G36*
X392142D02*
X390264D01*
Y157980D01*
X392264D01*
Y159563D01*
X392142D01*
Y159858D01*
D02*
G37*
G36*
X512311Y160945D02*
Y157980D01*
X515275D01*
X515221Y158394D01*
X514868Y159245D01*
X514307Y159976D01*
X513576Y160538D01*
X512725Y160890D01*
X512311Y160945D01*
D02*
G37*
G36*
X511311D02*
X510897Y160890D01*
X510046Y160538D01*
X509315Y159976D01*
X508754Y159245D01*
X508401Y158394D01*
X508347Y157980D01*
X511311D01*
Y160945D01*
D02*
G37*
G36*
X453256D02*
Y157980D01*
X456220D01*
X456166Y158394D01*
X455813Y159245D01*
X455252Y159976D01*
X454521Y160538D01*
X453670Y160890D01*
X453256Y160945D01*
D02*
G37*
G36*
X452256D02*
X451842Y160890D01*
X450991Y160538D01*
X450260Y159976D01*
X449699Y159245D01*
X449346Y158394D01*
X449292Y157980D01*
X452256D01*
Y160945D01*
D02*
G37*
G36*
X406012D02*
Y157980D01*
X408976D01*
X408922Y158394D01*
X408569Y159245D01*
X408008Y159976D01*
X407277Y160538D01*
X406426Y160890D01*
X406012Y160945D01*
D02*
G37*
G36*
X405012D02*
X404598Y160890D01*
X403747Y160538D01*
X403016Y159976D01*
X402455Y159245D01*
X402102Y158394D01*
X402047Y157980D01*
X405012D01*
Y160945D01*
D02*
G37*
G36*
X358768D02*
Y157980D01*
X361732D01*
X361678Y158394D01*
X361325Y159245D01*
X360764Y159976D01*
X360033Y160538D01*
X359181Y160890D01*
X358768Y160945D01*
D02*
G37*
G36*
X357768D02*
X357354Y160890D01*
X356503Y160538D01*
X355771Y159976D01*
X355210Y159245D01*
X354858Y158394D01*
X354803Y157980D01*
X357768D01*
Y160945D01*
D02*
G37*
G36*
X311524D02*
Y157980D01*
X314488D01*
X314434Y158394D01*
X314081Y159245D01*
X313520Y159976D01*
X312789Y160538D01*
X311937Y160890D01*
X311524Y160945D01*
D02*
G37*
G36*
X310524D02*
X310110Y160890D01*
X309259Y160538D01*
X308527Y159976D01*
X307966Y159245D01*
X307614Y158394D01*
X307559Y157980D01*
X310524D01*
Y160945D01*
D02*
G37*
G36*
X264280D02*
Y157980D01*
X267244D01*
X267189Y158394D01*
X266837Y159245D01*
X266276Y159976D01*
X265545Y160538D01*
X264693Y160890D01*
X264280Y160945D01*
D02*
G37*
G36*
X263280D02*
X262866Y160890D01*
X262014Y160538D01*
X261283Y159976D01*
X260722Y159245D01*
X260370Y158394D01*
X260315Y157980D01*
X263280D01*
Y160945D01*
D02*
G37*
G36*
X217035D02*
Y157980D01*
X220000D01*
X219945Y158394D01*
X219593Y159245D01*
X219032Y159976D01*
X218301Y160538D01*
X217449Y160890D01*
X217035Y160945D01*
D02*
G37*
G36*
X216035D02*
X215622Y160890D01*
X214770Y160538D01*
X214039Y159976D01*
X213478Y159245D01*
X213125Y158394D01*
X213071Y157980D01*
X216035D01*
Y160945D01*
D02*
G37*
G36*
X389264Y159858D02*
X387386D01*
Y159563D01*
X387264D01*
Y157980D01*
X389264D01*
Y159858D01*
D02*
G37*
G36*
X342020D02*
X340142D01*
Y159563D01*
X340020D01*
Y157980D01*
X342020D01*
Y159858D01*
D02*
G37*
G36*
X483752D02*
X481874D01*
Y159563D01*
X481752D01*
Y157980D01*
X483752D01*
Y159858D01*
D02*
G37*
G36*
X247532D02*
X245654D01*
Y159563D01*
X245532D01*
Y157980D01*
X247532D01*
Y159858D01*
D02*
G37*
G36*
X200287D02*
X198409D01*
Y159563D01*
X198287D01*
Y157980D01*
X200287D01*
Y159858D01*
D02*
G37*
G36*
X294776D02*
X292898D01*
Y159563D01*
X292776D01*
Y157980D01*
X294776D01*
Y159858D01*
D02*
G37*
G36*
X436508D02*
X434630D01*
Y159563D01*
X434508D01*
Y157980D01*
X436508D01*
Y159858D01*
D02*
G37*
G36*
X486752Y156980D02*
X484752D01*
Y155102D01*
X486630D01*
Y155398D01*
X486752D01*
Y156980D01*
D02*
G37*
G36*
X483752D02*
X481752D01*
Y155398D01*
X481874D01*
Y155102D01*
X483752D01*
Y156980D01*
D02*
G37*
G36*
X479150Y159858D02*
X474394D01*
Y159563D01*
X474272D01*
Y155398D01*
X474394D01*
Y155102D01*
X479150D01*
Y155398D01*
X479272D01*
Y159563D01*
X479150D01*
Y159858D01*
D02*
G37*
G36*
X471669D02*
X466913D01*
Y159563D01*
X466791D01*
Y155398D01*
X466913D01*
Y155102D01*
X471669D01*
Y155398D01*
X471791D01*
Y159563D01*
X471669D01*
Y159858D01*
D02*
G37*
G36*
X439508Y156980D02*
X437508D01*
Y155102D01*
X439386D01*
Y155398D01*
X439508D01*
Y156980D01*
D02*
G37*
G36*
X436508D02*
X434508D01*
Y155398D01*
X434630D01*
Y155102D01*
X436508D01*
Y156980D01*
D02*
G37*
G36*
X431906Y159858D02*
X427150D01*
Y159563D01*
X427028D01*
Y155398D01*
X427150D01*
Y155102D01*
X431906D01*
Y155398D01*
X432028D01*
Y159563D01*
X431906D01*
Y159858D01*
D02*
G37*
G36*
X424425D02*
X419669D01*
Y159563D01*
X419547D01*
Y155398D01*
X419669D01*
Y155102D01*
X424425D01*
Y155398D01*
X424547D01*
Y159563D01*
X424425D01*
Y159858D01*
D02*
G37*
G36*
X392264Y156980D02*
X390264D01*
Y155102D01*
X392142D01*
Y155398D01*
X392264D01*
Y156980D01*
D02*
G37*
G36*
X389264D02*
X387264D01*
Y155398D01*
X387386D01*
Y155102D01*
X389264D01*
Y156980D01*
D02*
G37*
G36*
X384661Y159858D02*
X379906D01*
Y159563D01*
X379784D01*
Y155398D01*
X379906D01*
Y155102D01*
X384661D01*
Y155398D01*
X384784D01*
Y159563D01*
X384661D01*
Y159858D01*
D02*
G37*
G36*
X377181D02*
X372425D01*
Y159563D01*
X372303D01*
Y155398D01*
X372425D01*
Y155102D01*
X377181D01*
Y155398D01*
X377303D01*
Y159563D01*
X377181D01*
Y159858D01*
D02*
G37*
G36*
X345020Y156980D02*
X343020D01*
Y155102D01*
X344898D01*
Y155398D01*
X345020D01*
Y156980D01*
D02*
G37*
G36*
X342020D02*
X340020D01*
Y155398D01*
X340142D01*
Y155102D01*
X342020D01*
Y156980D01*
D02*
G37*
G36*
X337417Y159858D02*
X332661D01*
Y159563D01*
X332539D01*
Y155398D01*
X332661D01*
Y155102D01*
X337417D01*
Y155398D01*
X337539D01*
Y159563D01*
X337417D01*
Y159858D01*
D02*
G37*
G36*
X329937D02*
X325181D01*
Y159563D01*
X325059D01*
Y155398D01*
X325181D01*
Y155102D01*
X329937D01*
Y155398D01*
X330059D01*
Y159563D01*
X329937D01*
Y159858D01*
D02*
G37*
G36*
X297776Y156980D02*
X295776D01*
Y155102D01*
X297654D01*
Y155398D01*
X297776D01*
Y156980D01*
D02*
G37*
G36*
X294776D02*
X292776D01*
Y155398D01*
X292898D01*
Y155102D01*
X294776D01*
Y156980D01*
D02*
G37*
G36*
X290173Y159858D02*
X285417D01*
Y159563D01*
X285295D01*
Y155398D01*
X285417D01*
Y155102D01*
X290173D01*
Y155398D01*
X290295D01*
Y159563D01*
X290173D01*
Y159858D01*
D02*
G37*
G36*
X282693D02*
X277937D01*
Y159563D01*
X277815D01*
Y155398D01*
X277937D01*
Y155102D01*
X282693D01*
Y155398D01*
X282815D01*
Y159563D01*
X282693D01*
Y159858D01*
D02*
G37*
G36*
X250532Y156980D02*
X248532D01*
Y155102D01*
X250410D01*
Y155398D01*
X250532D01*
Y156980D01*
D02*
G37*
G36*
X247532D02*
X245532D01*
Y155398D01*
X245654D01*
Y155102D01*
X247532D01*
Y156980D01*
D02*
G37*
G36*
X242929Y159858D02*
X238173D01*
Y159563D01*
X238051D01*
Y155398D01*
X238173D01*
Y155102D01*
X242929D01*
Y155398D01*
X243051D01*
Y159563D01*
X242929D01*
Y159858D01*
D02*
G37*
G36*
X235449D02*
X230693D01*
Y159563D01*
X230571D01*
Y155398D01*
X230693D01*
Y155102D01*
X235449D01*
Y155398D01*
X235571D01*
Y159563D01*
X235449D01*
Y159858D01*
D02*
G37*
G36*
X203287Y156980D02*
X201287D01*
Y155102D01*
X203165D01*
Y155398D01*
X203287D01*
Y156980D01*
D02*
G37*
G36*
X200287D02*
X198287D01*
Y155398D01*
X198409D01*
Y155102D01*
X200287D01*
Y156980D01*
D02*
G37*
G36*
X195685Y159858D02*
X190929D01*
Y159563D01*
X190807D01*
Y155398D01*
X190929D01*
Y155102D01*
X195685D01*
Y155398D01*
X195807D01*
Y159563D01*
X195685D01*
Y159858D01*
D02*
G37*
G36*
X188205D02*
X183449D01*
Y159563D01*
X183327D01*
Y155398D01*
X183449D01*
Y155102D01*
X188205D01*
Y155398D01*
X188327D01*
Y159563D01*
X188205D01*
Y159858D01*
D02*
G37*
G36*
X515275Y156980D02*
X512311D01*
Y154016D01*
X512725Y154070D01*
X513576Y154423D01*
X514307Y154984D01*
X514868Y155715D01*
X515221Y156567D01*
X515275Y156980D01*
D02*
G37*
G36*
X511311D02*
X508347D01*
X508401Y156567D01*
X508754Y155715D01*
X509315Y154984D01*
X510046Y154423D01*
X510897Y154070D01*
X511311Y154016D01*
Y156980D01*
D02*
G37*
G36*
X456220D02*
X453256D01*
Y154016D01*
X453670Y154070D01*
X454521Y154423D01*
X455252Y154984D01*
X455813Y155715D01*
X456166Y156567D01*
X456220Y156980D01*
D02*
G37*
G36*
X452256D02*
X449292D01*
X449346Y156567D01*
X449699Y155715D01*
X450260Y154984D01*
X450991Y154423D01*
X451842Y154070D01*
X452256Y154016D01*
Y156980D01*
D02*
G37*
G36*
X408976D02*
X406012D01*
Y154016D01*
X406426Y154070D01*
X407277Y154423D01*
X408008Y154984D01*
X408569Y155715D01*
X408922Y156567D01*
X408976Y156980D01*
D02*
G37*
G36*
X405012D02*
X402047D01*
X402102Y156567D01*
X402455Y155715D01*
X403016Y154984D01*
X403747Y154423D01*
X404598Y154070D01*
X405012Y154016D01*
Y156980D01*
D02*
G37*
G36*
X361732D02*
X358768D01*
Y154016D01*
X359181Y154070D01*
X360033Y154423D01*
X360764Y154984D01*
X361325Y155715D01*
X361678Y156567D01*
X361732Y156980D01*
D02*
G37*
G36*
X357768D02*
X354803D01*
X354858Y156567D01*
X355210Y155715D01*
X355771Y154984D01*
X356503Y154423D01*
X357354Y154070D01*
X357768Y154016D01*
Y156980D01*
D02*
G37*
G36*
X314488D02*
X311524D01*
Y154016D01*
X311937Y154070D01*
X312789Y154423D01*
X313520Y154984D01*
X314081Y155715D01*
X314434Y156567D01*
X314488Y156980D01*
D02*
G37*
G36*
X310524D02*
X307559D01*
X307614Y156567D01*
X307966Y155715D01*
X308527Y154984D01*
X309259Y154423D01*
X310110Y154070D01*
X310524Y154016D01*
Y156980D01*
D02*
G37*
G36*
X267244D02*
X264280D01*
Y154016D01*
X264693Y154070D01*
X265545Y154423D01*
X266276Y154984D01*
X266837Y155715D01*
X267189Y156567D01*
X267244Y156980D01*
D02*
G37*
G36*
X263280D02*
X260315D01*
X260370Y156567D01*
X260722Y155715D01*
X261283Y154984D01*
X262014Y154423D01*
X262866Y154070D01*
X263280Y154016D01*
Y156980D01*
D02*
G37*
G36*
X220000D02*
X217035D01*
Y154016D01*
X217449Y154070D01*
X218301Y154423D01*
X219032Y154984D01*
X219593Y155715D01*
X219945Y156567D01*
X220000Y156980D01*
D02*
G37*
G36*
X216035D02*
X213071D01*
X213125Y156567D01*
X213478Y155715D01*
X214039Y154984D01*
X214770Y154423D01*
X215622Y154070D01*
X216035Y154016D01*
Y156980D01*
D02*
G37*
G36*
X466535Y152460D02*
X465247Y152290D01*
X464046Y151793D01*
X463014Y151001D01*
X462223Y149970D01*
X461726Y148769D01*
X461556Y147480D01*
X461726Y146192D01*
X462223Y144991D01*
X463014Y143959D01*
X464046Y143168D01*
X465247Y142670D01*
X466535Y142501D01*
X467824Y142670D01*
X469025Y143168D01*
X470056Y143959D01*
X470848Y144991D01*
X471345Y146192D01*
X471515Y147480D01*
X471345Y148769D01*
X470848Y149970D01*
X470056Y151001D01*
X469025Y151793D01*
X467824Y152290D01*
X466535Y152460D01*
D02*
G37*
G36*
X419291D02*
X418003Y152290D01*
X416802Y151793D01*
X415770Y151001D01*
X414979Y149970D01*
X414481Y148769D01*
X414312Y147480D01*
X414481Y146192D01*
X414979Y144991D01*
X415770Y143959D01*
X416802Y143168D01*
X418003Y142670D01*
X419291Y142501D01*
X420580Y142670D01*
X421781Y143168D01*
X422812Y143959D01*
X423604Y144991D01*
X424101Y146192D01*
X424271Y147480D01*
X424101Y148769D01*
X423604Y149970D01*
X422812Y151001D01*
X421781Y151793D01*
X420580Y152290D01*
X419291Y152460D01*
D02*
G37*
G36*
X372047D02*
X370758Y152290D01*
X369557Y151793D01*
X368526Y151001D01*
X367735Y149970D01*
X367237Y148769D01*
X367068Y147480D01*
X367237Y146192D01*
X367735Y144991D01*
X368526Y143959D01*
X369557Y143168D01*
X370758Y142670D01*
X372047Y142501D01*
X373336Y142670D01*
X374537Y143168D01*
X375568Y143959D01*
X376360Y144991D01*
X376857Y146192D01*
X377027Y147480D01*
X376857Y148769D01*
X376360Y149970D01*
X375568Y151001D01*
X374537Y151793D01*
X373336Y152290D01*
X372047Y152460D01*
D02*
G37*
G36*
X324803D02*
X323514Y152290D01*
X322313Y151793D01*
X321282Y151001D01*
X320491Y149970D01*
X319993Y148769D01*
X319824Y147480D01*
X319993Y146192D01*
X320491Y144991D01*
X321282Y143959D01*
X322313Y143168D01*
X323514Y142670D01*
X324803Y142501D01*
X326092Y142670D01*
X327293Y143168D01*
X328324Y143959D01*
X329116Y144991D01*
X329613Y146192D01*
X329783Y147480D01*
X329613Y148769D01*
X329116Y149970D01*
X328324Y151001D01*
X327293Y151793D01*
X326092Y152290D01*
X324803Y152460D01*
D02*
G37*
G36*
X277559D02*
X276270Y152290D01*
X275069Y151793D01*
X274038Y151001D01*
X273247Y149970D01*
X272749Y148769D01*
X272579Y147480D01*
X272749Y146192D01*
X273247Y144991D01*
X274038Y143959D01*
X275069Y143168D01*
X276270Y142670D01*
X277559Y142501D01*
X278848Y142670D01*
X280049Y143168D01*
X281080Y143959D01*
X281872Y144991D01*
X282369Y146192D01*
X282539Y147480D01*
X282369Y148769D01*
X281872Y149970D01*
X281080Y151001D01*
X280049Y151793D01*
X278848Y152290D01*
X277559Y152460D01*
D02*
G37*
G36*
X230315D02*
X229026Y152290D01*
X227825Y151793D01*
X226794Y151001D01*
X226003Y149970D01*
X225505Y148769D01*
X225335Y147480D01*
X225505Y146192D01*
X226003Y144991D01*
X226794Y143959D01*
X227825Y143168D01*
X229026Y142670D01*
X230315Y142501D01*
X231604Y142670D01*
X232805Y143168D01*
X233836Y143959D01*
X234627Y144991D01*
X235125Y146192D01*
X235295Y147480D01*
X235125Y148769D01*
X234627Y149970D01*
X233836Y151001D01*
X232805Y151793D01*
X231604Y152290D01*
X230315Y152460D01*
D02*
G37*
G36*
X183071D02*
X181782Y152290D01*
X180581Y151793D01*
X179550Y151001D01*
X178758Y149970D01*
X178261Y148769D01*
X178091Y147480D01*
X178261Y146192D01*
X178758Y144991D01*
X179550Y143959D01*
X180581Y143168D01*
X181782Y142670D01*
X183071Y142501D01*
X184360Y142670D01*
X185561Y143168D01*
X186592Y143959D01*
X187383Y144991D01*
X187881Y146192D01*
X188050Y147480D01*
X187881Y148769D01*
X187383Y149970D01*
X186592Y151001D01*
X185561Y151793D01*
X184360Y152290D01*
X183071Y152460D01*
D02*
G37*
G36*
X486535Y151928D02*
X485247Y151759D01*
X484046Y151261D01*
X483014Y150470D01*
X482223Y149439D01*
X481726Y148238D01*
X481556Y146949D01*
X481726Y145660D01*
X482223Y144459D01*
X483014Y143428D01*
X484046Y142636D01*
X485247Y142139D01*
X486535Y141969D01*
X487824Y142139D01*
X489025Y142636D01*
X490057Y143428D01*
X490848Y144459D01*
X491345Y145660D01*
X491515Y146949D01*
X491345Y148238D01*
X490848Y149439D01*
X490057Y150470D01*
X489025Y151261D01*
X487824Y151759D01*
X486535Y151928D01*
D02*
G37*
G36*
X439291D02*
X438002Y151759D01*
X436801Y151261D01*
X435770Y150470D01*
X434979Y149439D01*
X434481Y148238D01*
X434312Y146949D01*
X434481Y145660D01*
X434979Y144459D01*
X435770Y143428D01*
X436801Y142636D01*
X438002Y142139D01*
X439291Y141969D01*
X440580Y142139D01*
X441781Y142636D01*
X442812Y143428D01*
X443604Y144459D01*
X444101Y145660D01*
X444271Y146949D01*
X444101Y148238D01*
X443604Y149439D01*
X442812Y150470D01*
X441781Y151261D01*
X440580Y151759D01*
X439291Y151928D01*
D02*
G37*
G36*
X392047D02*
X390758Y151759D01*
X389557Y151261D01*
X388526Y150470D01*
X387735Y149439D01*
X387237Y148238D01*
X387068Y146949D01*
X387237Y145660D01*
X387735Y144459D01*
X388526Y143428D01*
X389557Y142636D01*
X390758Y142139D01*
X392047Y141969D01*
X393336Y142139D01*
X394537Y142636D01*
X395568Y143428D01*
X396360Y144459D01*
X396857Y145660D01*
X397027Y146949D01*
X396857Y148238D01*
X396360Y149439D01*
X395568Y150470D01*
X394537Y151261D01*
X393336Y151759D01*
X392047Y151928D01*
D02*
G37*
G36*
X344803D02*
X343514Y151759D01*
X342313Y151261D01*
X341282Y150470D01*
X340491Y149439D01*
X339993Y148238D01*
X339824Y146949D01*
X339993Y145660D01*
X340491Y144459D01*
X341282Y143428D01*
X342313Y142636D01*
X343514Y142139D01*
X344803Y141969D01*
X346092Y142139D01*
X347293Y142636D01*
X348324Y143428D01*
X349116Y144459D01*
X349613Y145660D01*
X349783Y146949D01*
X349613Y148238D01*
X349116Y149439D01*
X348324Y150470D01*
X347293Y151261D01*
X346092Y151759D01*
X344803Y151928D01*
D02*
G37*
G36*
X297559D02*
X296270Y151759D01*
X295069Y151261D01*
X294038Y150470D01*
X293247Y149439D01*
X292749Y148238D01*
X292579Y146949D01*
X292749Y145660D01*
X293247Y144459D01*
X294038Y143428D01*
X295069Y142636D01*
X296270Y142139D01*
X297559Y141969D01*
X298848Y142139D01*
X300049Y142636D01*
X301080Y143428D01*
X301871Y144459D01*
X302369Y145660D01*
X302539Y146949D01*
X302369Y148238D01*
X301871Y149439D01*
X301080Y150470D01*
X300049Y151261D01*
X298848Y151759D01*
X297559Y151928D01*
D02*
G37*
G36*
X250315D02*
X249026Y151759D01*
X247825Y151261D01*
X246794Y150470D01*
X246003Y149439D01*
X245505Y148238D01*
X245335Y146949D01*
X245505Y145660D01*
X246003Y144459D01*
X246794Y143428D01*
X247825Y142636D01*
X249026Y142139D01*
X250315Y141969D01*
X251604Y142139D01*
X252805Y142636D01*
X253836Y143428D01*
X254627Y144459D01*
X255125Y145660D01*
X255295Y146949D01*
X255125Y148238D01*
X254627Y149439D01*
X253836Y150470D01*
X252805Y151261D01*
X251604Y151759D01*
X250315Y151928D01*
D02*
G37*
G36*
X203071D02*
X201782Y151759D01*
X200581Y151261D01*
X199550Y150470D01*
X198758Y149439D01*
X198261Y148238D01*
X198091Y146949D01*
X198261Y145660D01*
X198758Y144459D01*
X199550Y143428D01*
X200581Y142636D01*
X201782Y142139D01*
X203071Y141969D01*
X204360Y142139D01*
X205561Y142636D01*
X206592Y143428D01*
X207383Y144459D01*
X207881Y145660D01*
X208050Y146949D01*
X207881Y148238D01*
X207383Y149439D01*
X206592Y150470D01*
X205561Y151261D01*
X204360Y151759D01*
X203071Y151928D01*
D02*
G37*
G36*
X531996Y143696D02*
Y138295D01*
X537397D01*
X537332Y138956D01*
X536993Y140072D01*
X536443Y141101D01*
X535703Y142002D01*
X534802Y142743D01*
X533773Y143292D01*
X532657Y143631D01*
X531996Y143696D01*
D02*
G37*
G36*
X530996D02*
X530335Y143631D01*
X529219Y143292D01*
X528191Y142743D01*
X527289Y142002D01*
X526549Y141101D01*
X525999Y140072D01*
X525661Y138956D01*
X525595Y138295D01*
X530996D01*
Y143696D01*
D02*
G37*
G36*
X138295D02*
Y138295D01*
X143696D01*
X143631Y138956D01*
X143292Y140072D01*
X142743Y141101D01*
X142002Y142002D01*
X141101Y142743D01*
X140072Y143292D01*
X138956Y143631D01*
X138295Y143696D01*
D02*
G37*
G36*
X137295D02*
X136635Y143631D01*
X135518Y143292D01*
X134490Y142743D01*
X133588Y142002D01*
X132848Y141101D01*
X132298Y140072D01*
X131960Y138956D01*
X131895Y138295D01*
X137295D01*
Y143696D01*
D02*
G37*
G36*
X192913Y141325D02*
X192000Y141205D01*
X191148Y140852D01*
X190417Y140292D01*
X189856Y139560D01*
X189504Y138709D01*
X189383Y137795D01*
X189504Y136882D01*
X189856Y136030D01*
X190417Y135299D01*
X191148Y134738D01*
X192000Y134385D01*
X192913Y134265D01*
X193827Y134385D01*
X194678Y134738D01*
X195410Y135299D01*
X195971Y136030D01*
X196323Y136882D01*
X196444Y137795D01*
X196323Y138709D01*
X195971Y139560D01*
X195410Y140292D01*
X194678Y140852D01*
X193827Y141205D01*
X192913Y141325D01*
D02*
G37*
G36*
X537397Y137295D02*
X531996D01*
Y131895D01*
X532657Y131960D01*
X533773Y132298D01*
X534802Y132848D01*
X535703Y133588D01*
X536443Y134490D01*
X536993Y135518D01*
X537332Y136635D01*
X537397Y137295D01*
D02*
G37*
G36*
X530996D02*
X525595D01*
X525661Y136635D01*
X525999Y135518D01*
X526549Y134490D01*
X527289Y133588D01*
X528191Y132848D01*
X529219Y132298D01*
X530335Y131960D01*
X530996Y131895D01*
Y137295D01*
D02*
G37*
G36*
X143696D02*
X138295D01*
Y131895D01*
X138956Y131960D01*
X140072Y132298D01*
X141101Y132848D01*
X142002Y133588D01*
X142743Y134490D01*
X143292Y135518D01*
X143631Y136635D01*
X143696Y137295D01*
D02*
G37*
G36*
X137295D02*
X131895D01*
X131960Y136635D01*
X132298Y135518D01*
X132848Y134490D01*
X133588Y133588D01*
X134490Y132848D01*
X135518Y132298D01*
X136635Y131960D01*
X137295Y131895D01*
Y137295D01*
D02*
G37*
%LPD*%
D12*
X264365Y295276D02*
X334646D01*
X417323D01*
X263779Y295861D02*
Y301378D01*
Y295861D02*
X264365Y295276D01*
X220866Y306390D02*
Y307087D01*
X290945Y306390D02*
Y307087D01*
X289476Y304921D02*
X290945Y306390D01*
X220866D02*
X222335Y304921D01*
X289476D01*
X333374Y306882D02*
X351965D01*
X333169Y307087D02*
X333374Y306882D01*
X334646Y295276D02*
Y297338D01*
X417323Y295276D02*
X499414D01*
X417323D02*
Y303540D01*
X464567Y307672D02*
Y310438D01*
X465153Y311024D01*
X457087Y307087D02*
X463981D01*
X464567Y307672D01*
X446957Y310633D02*
X448425Y309165D01*
Y307087D02*
Y309165D01*
X417323Y310633D02*
X446957D01*
X416932Y311024D02*
X417323Y310633D01*
X398224Y311024D02*
X416932D01*
X397638Y310438D02*
X398224Y311024D01*
X397638Y307672D02*
Y310438D01*
X397052Y307087D02*
X397638Y307672D01*
X378346Y307087D02*
X397052D01*
X351965Y306882D02*
X352169Y307087D01*
X369685D01*
X299606D02*
X333169D01*
X212205Y275984D02*
Y307087D01*
Y275984D02*
X214409Y273780D01*
X228346D01*
Y255906D02*
Y263779D01*
X183503Y254921D02*
X227362D01*
X228346Y255906D01*
X465153Y311024D02*
X498819D01*
X137795Y263779D02*
X138779Y264764D01*
X183503D01*
X499414Y295276D02*
X511811D01*
X500000Y295861D02*
Y303937D01*
X499414Y295276D02*
X500000Y295861D01*
X501181Y311024D02*
X511811D01*
X500000Y309842D02*
X501181Y311024D01*
X498819D02*
X500000Y309842D01*
D21*
X183071Y147480D02*
D03*
X203071Y146949D02*
D03*
X250315D02*
D03*
X230315Y147480D02*
D03*
X277559D02*
D03*
X297559Y146949D02*
D03*
X324803Y147480D02*
D03*
X344803Y146949D02*
D03*
X372047Y147480D02*
D03*
X392047Y146949D02*
D03*
X419291Y147480D02*
D03*
X439291Y146949D02*
D03*
X466535Y147480D02*
D03*
X486535Y146949D02*
D03*
X202756Y376142D02*
D03*
X182756Y376673D02*
D03*
X250000Y376142D02*
D03*
X230000Y376673D02*
D03*
X297244Y376142D02*
D03*
X277244Y376673D02*
D03*
X344488Y376142D02*
D03*
X324488Y376673D02*
D03*
X371732D02*
D03*
X391732Y376142D02*
D03*
X418976Y376673D02*
D03*
X438976Y376142D02*
D03*
X466221Y376673D02*
D03*
X486221Y376142D02*
D03*
D22*
X200787Y157480D02*
D03*
X193307D02*
D03*
X185827D02*
D03*
X233071D02*
D03*
X240551D02*
D03*
X248031D02*
D03*
X295276D02*
D03*
X287795D02*
D03*
X280315D02*
D03*
X342520D02*
D03*
X335039D02*
D03*
X327559D02*
D03*
X389764D02*
D03*
X382283D02*
D03*
X374803D02*
D03*
X437008D02*
D03*
X429528D02*
D03*
X422047D02*
D03*
X484252D02*
D03*
X476772D02*
D03*
X469291D02*
D03*
X185039Y366142D02*
D03*
X192520D02*
D03*
X200000D02*
D03*
X232283D02*
D03*
X239764D02*
D03*
X247244D02*
D03*
X279528D02*
D03*
X287008D02*
D03*
X294488D02*
D03*
X326772D02*
D03*
X334252D02*
D03*
X341732D02*
D03*
X388976D02*
D03*
X381496D02*
D03*
X374016D02*
D03*
X436221D02*
D03*
X428740D02*
D03*
X421260D02*
D03*
X483465D02*
D03*
X475984D02*
D03*
X468504D02*
D03*
D23*
X193307Y177559D02*
D03*
X240551D02*
D03*
X287795D02*
D03*
X335039D02*
D03*
X382283D02*
D03*
X429528D02*
D03*
X476772D02*
D03*
X192520Y346063D02*
D03*
X239764D02*
D03*
X287008D02*
D03*
X334252D02*
D03*
X381496D02*
D03*
X428740D02*
D03*
X475984D02*
D03*
D24*
X228346Y263779D02*
D03*
D25*
Y273780D02*
D03*
D26*
X137795Y137795D02*
D03*
X531496D02*
D03*
Y374016D02*
D03*
X137795D02*
D03*
D27*
X344526Y230254D02*
D03*
X322835Y232283D02*
D03*
X137795Y263779D02*
D03*
X511811Y295276D02*
D03*
Y311024D02*
D03*
X216535Y366142D02*
D03*
X263779D02*
D03*
X311012Y366418D02*
D03*
X358268Y366142D02*
D03*
X405512D02*
D03*
X192913Y385827D02*
D03*
Y137795D02*
D03*
X452756Y366142D02*
D03*
X511811D02*
D03*
X216535Y157480D02*
D03*
X263779D02*
D03*
X311024D02*
D03*
X358268D02*
D03*
X405512D02*
D03*
X452756D02*
D03*
X511811D02*
D03*
D28*
X334646Y297338D02*
D03*
Y308962D02*
D03*
D29*
X263779Y301181D02*
D03*
D30*
Y305118D02*
D03*
D31*
X500000Y310236D02*
D03*
Y303937D02*
D03*
D32*
X417323Y303540D02*
D03*
Y310633D02*
D03*
D33*
X457087Y307087D02*
D03*
X448425D02*
D03*
X378346D02*
D03*
X369685D02*
D03*
X299606D02*
D03*
X290945D02*
D03*
X220866D02*
D03*
X212205D02*
D03*
D34*
X183503Y247815D02*
D03*
Y271870D02*
D03*
D35*
Y264764D02*
D03*
Y254921D02*
D03*
M02*
