M48
;Layer_Color=9474304
;FILE_FORMAT=2:4
INCH,TZ
;TYPE=PLATED
T2F00S00C0.0280
T3F00S00C0.0394
T4F00S00C0.0787
T5F00S00C0.0984
T6F00S00C0.1240
%
T02
X19291Y13780
X51181Y15748
Y29528
Y31102
X45276Y15748
X40551
X35827
X34453Y23025
X32283Y23228
X31102Y15748
X26378
X21654
X13780Y26378
X19291Y38583
X21654Y36614
X26378
X31101Y36642
X35827Y36614
X40551
X45276
X51181
T03
X22835Y26378
Y27378
T04
X18307Y14748
X20307Y14695
X23031Y14748
X25031Y14695
X27756Y14748
X29756Y14695
X32480Y14748
X34480Y14695
X37205Y14748
X39205Y14695
X41929Y14748
X43929Y14695
X46654Y14748
X48654Y14695
X29724Y37614
X27724Y37667
X25000Y37614
X23000Y37667
X20276Y37614
X18276Y37667
X32449
X34449Y37614
X37173Y37667
X39173Y37614
X41898Y37667
X43898Y37614
X46622Y37667
X48622Y37614
T05
X13780Y13780
X53150
X13780Y37402
X53150
T06
X47677Y17756
X42953
X38228
X33504
X28780
X24055
X19331
X19252Y34606
X23976
X28701
X33425
X38150
X42874
X47598
M30
