G04*
G04 #@! TF.GenerationSoftware,Altium Limited,Altium Designer,21.1.1 (26)*
G04*
G04 Layer_Color=16711935*
%FSLAX25Y25*%
%MOIN*%
G70*
G04*
G04 #@! TF.SameCoordinates,9566E8A9-A93A-4A59-9488-A4E323ADFB2D*
G04*
G04*
G04 #@! TF.FilePolarity,Negative*
G04*
G01*
G75*
%ADD15C,0.08674*%
%ADD16R,0.03556X0.03556*%
%ADD17C,0.13202*%
%ADD18R,0.05524X0.05524*%
%ADD19C,0.05524*%
%ADD20C,0.10642*%
%ADD28R,0.07316X0.05928*%
%ADD32R,0.06127X0.05924*%
%ADD35R,0.27600X0.04900*%
%ADD36R,0.02769X0.02769*%
%ADD37R,0.02847X0.03005*%
%ADD38R,0.06115X0.04737*%
%ADD39R,0.04737X0.11430*%
%ADD40R,0.32300X0.05100*%
D15*
X183071Y147480D02*
D03*
X203071Y146949D02*
D03*
X250315D02*
D03*
X230315Y147480D02*
D03*
X277559D02*
D03*
X297559Y146949D02*
D03*
X324803Y147480D02*
D03*
X344803Y146949D02*
D03*
X372047Y147480D02*
D03*
X392047Y146949D02*
D03*
X419291Y147480D02*
D03*
X439291Y146949D02*
D03*
X466535Y147480D02*
D03*
X486535Y146949D02*
D03*
X202756Y376142D02*
D03*
X182756Y376673D02*
D03*
X250000Y376142D02*
D03*
X230000Y376673D02*
D03*
X297244Y376142D02*
D03*
X277244Y376673D02*
D03*
X344488Y376142D02*
D03*
X324488Y376673D02*
D03*
X371732D02*
D03*
X391732Y376142D02*
D03*
X418976Y376673D02*
D03*
X438976Y376142D02*
D03*
X466221Y376673D02*
D03*
X486221Y376142D02*
D03*
D16*
X200787Y157480D02*
D03*
X193307D02*
D03*
X185827D02*
D03*
X233071D02*
D03*
X240551D02*
D03*
X248031D02*
D03*
X295276D02*
D03*
X287795D02*
D03*
X280315D02*
D03*
X342520D02*
D03*
X335039D02*
D03*
X327559D02*
D03*
X389764D02*
D03*
X382283D02*
D03*
X374803D02*
D03*
X437008D02*
D03*
X429528D02*
D03*
X422047D02*
D03*
X484252D02*
D03*
X476772D02*
D03*
X469291D02*
D03*
X185039Y366142D02*
D03*
X192520D02*
D03*
X200000D02*
D03*
X232283D02*
D03*
X239764D02*
D03*
X247244D02*
D03*
X279528D02*
D03*
X287008D02*
D03*
X294488D02*
D03*
X326772D02*
D03*
X334252D02*
D03*
X341732D02*
D03*
X388976D02*
D03*
X381496D02*
D03*
X374016D02*
D03*
X436221D02*
D03*
X428740D02*
D03*
X421260D02*
D03*
X483465D02*
D03*
X475984D02*
D03*
X468504D02*
D03*
D17*
X193307Y177559D02*
D03*
X240551D02*
D03*
X287795D02*
D03*
X335039D02*
D03*
X382283D02*
D03*
X429528D02*
D03*
X476772D02*
D03*
X192520Y346063D02*
D03*
X239764D02*
D03*
X287008D02*
D03*
X334252D02*
D03*
X381496D02*
D03*
X428740D02*
D03*
X475984D02*
D03*
D18*
X228346Y263779D02*
D03*
D19*
Y273780D02*
D03*
D20*
X137795Y137795D02*
D03*
X531496D02*
D03*
Y374016D02*
D03*
X137795D02*
D03*
D28*
X334646Y297338D02*
D03*
Y308962D02*
D03*
D32*
X417323Y303540D02*
D03*
Y310633D02*
D03*
D35*
X183503Y264764D02*
D03*
Y254921D02*
D03*
D36*
X263779Y301181D02*
D03*
D37*
Y305118D02*
D03*
D38*
X500000Y310236D02*
D03*
Y303937D02*
D03*
D39*
X457087Y307087D02*
D03*
X448425D02*
D03*
X378346D02*
D03*
X369685D02*
D03*
X299606D02*
D03*
X290945D02*
D03*
X220866D02*
D03*
X212205D02*
D03*
D40*
X183503Y247815D02*
D03*
Y271870D02*
D03*
M02*
