G04*
G04 #@! TF.GenerationSoftware,Altium Limited,Altium Designer,21.1.1 (26)*
G04*
G04 Layer_Physical_Order=1*
G04 Layer_Color=255*
%FSLAX25Y25*%
%MOIN*%
G70*
G04*
G04 #@! TF.SameCoordinates,01C9CA7A-74B7-4461-9927-2E12136583BC*
G04*
G04*
G04 #@! TF.FilePolarity,Positive*
G04*
G01*
G75*
%ADD12C,0.01000*%
%ADD13R,0.12500X0.04488*%
%ADD22C,0.04724*%
%ADD23R,0.04724X0.04724*%
%ADD24R,0.04724X0.04724*%
%ADD25C,0.07874*%
%ADD26R,0.03937X0.03937*%
%ADD27C,0.12402*%
%ADD28C,0.09843*%
%ADD29C,0.05000*%
G36*
X547244Y118110D02*
X118110D01*
Y393701D01*
X547244D01*
Y118110D01*
D02*
G37*
%LPC*%
G36*
X149106Y389291D02*
X148693Y389237D01*
X147841Y388884D01*
X147110Y388323D01*
X146549Y387592D01*
X146196Y386740D01*
X146142Y386327D01*
X149106D01*
Y389291D01*
D02*
G37*
G36*
X531996Y379916D02*
Y374516D01*
X537397D01*
X537332Y375177D01*
X536993Y376293D01*
X536443Y377321D01*
X535703Y378223D01*
X534802Y378963D01*
X533773Y379513D01*
X532657Y379851D01*
X531996Y379916D01*
D02*
G37*
G36*
X530996D02*
X530335Y379851D01*
X529219Y379513D01*
X528191Y378963D01*
X527289Y378223D01*
X526549Y377321D01*
X525999Y376293D01*
X525661Y375177D01*
X525595Y374516D01*
X530996D01*
Y379916D01*
D02*
G37*
G36*
X138295D02*
Y374516D01*
X143696D01*
X143631Y375177D01*
X143292Y376293D01*
X142743Y377321D01*
X142002Y378223D01*
X141101Y378963D01*
X140072Y379513D01*
X138956Y379851D01*
X138295Y379916D01*
D02*
G37*
G36*
X137295D02*
X136635Y379851D01*
X135518Y379513D01*
X134490Y378963D01*
X133588Y378223D01*
X132848Y377321D01*
X132298Y376293D01*
X131960Y375177D01*
X131895Y374516D01*
X137295D01*
Y379916D01*
D02*
G37*
G36*
X466221Y381653D02*
X464932Y381483D01*
X463731Y380986D01*
X462699Y380194D01*
X461908Y379163D01*
X461411Y377962D01*
X461241Y376673D01*
X461411Y375384D01*
X461908Y374183D01*
X462699Y373152D01*
X463731Y372361D01*
X464932Y371863D01*
X466221Y371694D01*
X467509Y371863D01*
X468710Y372361D01*
X469742Y373152D01*
X470533Y374183D01*
X471030Y375384D01*
X471200Y376673D01*
X471030Y377962D01*
X470533Y379163D01*
X469742Y380194D01*
X468710Y380986D01*
X467509Y381483D01*
X466221Y381653D01*
D02*
G37*
G36*
X418976D02*
X417688Y381483D01*
X416487Y380986D01*
X415455Y380194D01*
X414664Y379163D01*
X414166Y377962D01*
X413997Y376673D01*
X414166Y375384D01*
X414664Y374183D01*
X415455Y373152D01*
X416487Y372361D01*
X417688Y371863D01*
X418976Y371694D01*
X420265Y371863D01*
X421466Y372361D01*
X422498Y373152D01*
X423289Y374183D01*
X423786Y375384D01*
X423956Y376673D01*
X423786Y377962D01*
X423289Y379163D01*
X422498Y380194D01*
X421466Y380986D01*
X420265Y381483D01*
X418976Y381653D01*
D02*
G37*
G36*
X324488D02*
X323199Y381483D01*
X321998Y380986D01*
X320967Y380194D01*
X320176Y379163D01*
X319678Y377962D01*
X319509Y376673D01*
X319678Y375384D01*
X320176Y374183D01*
X320967Y373152D01*
X321998Y372361D01*
X323199Y371863D01*
X324488Y371694D01*
X325777Y371863D01*
X326978Y372361D01*
X328009Y373152D01*
X328801Y374183D01*
X329298Y375384D01*
X329468Y376673D01*
X329298Y377962D01*
X328801Y379163D01*
X328009Y380194D01*
X326978Y380986D01*
X325777Y381483D01*
X324488Y381653D01*
D02*
G37*
G36*
X277244D02*
X275955Y381483D01*
X274754Y380986D01*
X273723Y380194D01*
X272932Y379163D01*
X272434Y377962D01*
X272265Y376673D01*
X272434Y375384D01*
X272932Y374183D01*
X273723Y373152D01*
X274754Y372361D01*
X275955Y371863D01*
X277244Y371694D01*
X278533Y371863D01*
X279734Y372361D01*
X280765Y373152D01*
X281557Y374183D01*
X282054Y375384D01*
X282224Y376673D01*
X282054Y377962D01*
X281557Y379163D01*
X280765Y380194D01*
X279734Y380986D01*
X278533Y381483D01*
X277244Y381653D01*
D02*
G37*
G36*
X230000D02*
X228711Y381483D01*
X227510Y380986D01*
X226479Y380194D01*
X225688Y379163D01*
X225190Y377962D01*
X225020Y376673D01*
X225190Y375384D01*
X225688Y374183D01*
X226479Y373152D01*
X227510Y372361D01*
X228711Y371863D01*
X230000Y371694D01*
X231289Y371863D01*
X232490Y372361D01*
X233521Y373152D01*
X234313Y374183D01*
X234810Y375384D01*
X234980Y376673D01*
X234810Y377962D01*
X234313Y379163D01*
X233521Y380194D01*
X232490Y380986D01*
X231289Y381483D01*
X230000Y381653D01*
D02*
G37*
G36*
X182756D02*
X181467Y381483D01*
X180266Y380986D01*
X179235Y380194D01*
X178443Y379163D01*
X177946Y377962D01*
X177776Y376673D01*
X177946Y375384D01*
X178443Y374183D01*
X179235Y373152D01*
X180266Y372361D01*
X181467Y371863D01*
X182756Y371694D01*
X184045Y371863D01*
X185246Y372361D01*
X186277Y373152D01*
X187068Y374183D01*
X187566Y375384D01*
X187735Y376673D01*
X187566Y377962D01*
X187068Y379163D01*
X186277Y380194D01*
X185246Y380986D01*
X184045Y381483D01*
X182756Y381653D01*
D02*
G37*
G36*
X486221Y381121D02*
X484932Y380952D01*
X483731Y380454D01*
X482699Y379663D01*
X481908Y378631D01*
X481411Y377431D01*
X481241Y376142D01*
X481411Y374853D01*
X481908Y373652D01*
X482699Y372621D01*
X483731Y371829D01*
X484932Y371332D01*
X486221Y371162D01*
X487509Y371332D01*
X488710Y371829D01*
X489742Y372621D01*
X490533Y373652D01*
X491030Y374853D01*
X491200Y376142D01*
X491030Y377431D01*
X490533Y378631D01*
X489742Y379663D01*
X488710Y380454D01*
X487509Y380952D01*
X486221Y381121D01*
D02*
G37*
G36*
X438976D02*
X437688Y380952D01*
X436487Y380454D01*
X435455Y379663D01*
X434664Y378631D01*
X434166Y377431D01*
X433997Y376142D01*
X434166Y374853D01*
X434664Y373652D01*
X435455Y372621D01*
X436487Y371829D01*
X437688Y371332D01*
X438976Y371162D01*
X440265Y371332D01*
X441466Y371829D01*
X442497Y372621D01*
X443289Y373652D01*
X443786Y374853D01*
X443956Y376142D01*
X443786Y377431D01*
X443289Y378631D01*
X442497Y379663D01*
X441466Y380454D01*
X440265Y380952D01*
X438976Y381121D01*
D02*
G37*
G36*
X391732D02*
X390443Y380952D01*
X389243Y380454D01*
X388211Y379663D01*
X387420Y378631D01*
X386922Y377431D01*
X386753Y376142D01*
X386922Y374853D01*
X387420Y373652D01*
X388211Y372621D01*
X389243Y371829D01*
X390443Y371332D01*
X391732Y371162D01*
X393021Y371332D01*
X394222Y371829D01*
X395253Y372621D01*
X396045Y373652D01*
X396542Y374853D01*
X396712Y376142D01*
X396542Y377431D01*
X396045Y378631D01*
X395253Y379663D01*
X394222Y380454D01*
X393021Y380952D01*
X391732Y381121D01*
D02*
G37*
G36*
X344488D02*
X343199Y380952D01*
X341998Y380454D01*
X340967Y379663D01*
X340176Y378631D01*
X339678Y377431D01*
X339509Y376142D01*
X339678Y374853D01*
X340176Y373652D01*
X340967Y372621D01*
X341998Y371829D01*
X343199Y371332D01*
X344488Y371162D01*
X345777Y371332D01*
X346978Y371829D01*
X348009Y372621D01*
X348801Y373652D01*
X349298Y374853D01*
X349468Y376142D01*
X349298Y377431D01*
X348801Y378631D01*
X348009Y379663D01*
X346978Y380454D01*
X345777Y380952D01*
X344488Y381121D01*
D02*
G37*
G36*
X297244D02*
X295955Y380952D01*
X294754Y380454D01*
X293723Y379663D01*
X292932Y378631D01*
X292434Y377431D01*
X292265Y376142D01*
X292434Y374853D01*
X292932Y373652D01*
X293723Y372621D01*
X294754Y371829D01*
X295955Y371332D01*
X297244Y371162D01*
X298533Y371332D01*
X299734Y371829D01*
X300765Y372621D01*
X301557Y373652D01*
X302054Y374853D01*
X302224Y376142D01*
X302054Y377431D01*
X301557Y378631D01*
X300765Y379663D01*
X299734Y380454D01*
X298533Y380952D01*
X297244Y381121D01*
D02*
G37*
G36*
X250000D02*
X248711Y380952D01*
X247510Y380454D01*
X246479Y379663D01*
X245688Y378631D01*
X245190Y377431D01*
X245020Y376142D01*
X245190Y374853D01*
X245688Y373652D01*
X246479Y372621D01*
X247510Y371829D01*
X248711Y371332D01*
X250000Y371162D01*
X251289Y371332D01*
X252490Y371829D01*
X253521Y372621D01*
X254312Y373652D01*
X254810Y374853D01*
X254980Y376142D01*
X254810Y377431D01*
X254312Y378631D01*
X253521Y379663D01*
X252490Y380454D01*
X251289Y380952D01*
X250000Y381121D01*
D02*
G37*
G36*
X202756D02*
X201467Y380952D01*
X200266Y380454D01*
X199235Y379663D01*
X198443Y378631D01*
X197946Y377431D01*
X197776Y376142D01*
X197946Y374853D01*
X198443Y373652D01*
X199235Y372621D01*
X200266Y371829D01*
X201467Y371332D01*
X202756Y371162D01*
X204045Y371332D01*
X205246Y371829D01*
X206277Y372621D01*
X207068Y373652D01*
X207566Y374853D01*
X207735Y376142D01*
X207566Y377431D01*
X207068Y378631D01*
X206277Y379663D01*
X205246Y380454D01*
X204045Y380952D01*
X202756Y381121D01*
D02*
G37*
G36*
X537397Y373516D02*
X531996D01*
Y368115D01*
X532657Y368180D01*
X533773Y368519D01*
X534802Y369069D01*
X535703Y369809D01*
X536443Y370710D01*
X536993Y371739D01*
X537332Y372855D01*
X537397Y373516D01*
D02*
G37*
G36*
X530996D02*
X525595D01*
X525661Y372855D01*
X525999Y371739D01*
X526549Y370710D01*
X527289Y369809D01*
X528191Y369069D01*
X529219Y368519D01*
X530335Y368180D01*
X530996Y368115D01*
Y373516D01*
D02*
G37*
G36*
X143696D02*
X138295D01*
Y368115D01*
X138956Y368180D01*
X140072Y368519D01*
X141101Y369069D01*
X142002Y369809D01*
X142743Y370710D01*
X143292Y371739D01*
X143631Y372855D01*
X143696Y373516D01*
D02*
G37*
G36*
X137295D02*
X131895D01*
X131960Y372855D01*
X132298Y371739D01*
X132848Y370710D01*
X133588Y369809D01*
X134490Y369069D01*
X135518Y368519D01*
X136635Y368180D01*
X137295Y368115D01*
Y373516D01*
D02*
G37*
G36*
X188008Y369110D02*
X185539D01*
Y366642D01*
X188008D01*
Y369110D01*
D02*
G37*
G36*
X486433D02*
X480496D01*
Y363173D01*
X486433D01*
Y369110D01*
D02*
G37*
G36*
X471472Y365642D02*
X469004D01*
Y363173D01*
X471472D01*
Y365642D01*
D02*
G37*
G36*
X468004D02*
X465535D01*
Y363173D01*
X468004D01*
Y365642D01*
D02*
G37*
G36*
X439189Y369110D02*
X433252D01*
Y363173D01*
X439189D01*
Y369110D01*
D02*
G37*
G36*
X424228Y365642D02*
X421760D01*
Y363173D01*
X424228D01*
Y365642D01*
D02*
G37*
G36*
X420760D02*
X418291D01*
Y363173D01*
X420760D01*
Y365642D01*
D02*
G37*
G36*
X391945Y369110D02*
X386008D01*
Y363173D01*
X391945D01*
Y369110D01*
D02*
G37*
G36*
X376984Y365642D02*
X374516D01*
Y363173D01*
X376984D01*
Y365642D01*
D02*
G37*
G36*
X373516D02*
X371047D01*
Y363173D01*
X373516D01*
Y365642D01*
D02*
G37*
G36*
X344701Y369110D02*
X338764D01*
Y363173D01*
X344701D01*
Y369110D01*
D02*
G37*
G36*
X329740Y365642D02*
X327272D01*
Y363173D01*
X329740D01*
Y365642D01*
D02*
G37*
G36*
X326272D02*
X323803D01*
Y363173D01*
X326272D01*
Y365642D01*
D02*
G37*
G36*
X297457Y369110D02*
X291520D01*
Y363173D01*
X297457D01*
Y369110D01*
D02*
G37*
G36*
X282496Y365642D02*
X280028D01*
Y363173D01*
X282496D01*
Y365642D01*
D02*
G37*
G36*
X279028D02*
X276559D01*
Y363173D01*
X279028D01*
Y365642D01*
D02*
G37*
G36*
X250213Y369110D02*
X244276D01*
Y363173D01*
X250213D01*
Y369110D01*
D02*
G37*
G36*
X235252Y365642D02*
X232784D01*
Y363173D01*
X235252D01*
Y365642D01*
D02*
G37*
G36*
X231784D02*
X229315D01*
Y363173D01*
X231784D01*
Y365642D01*
D02*
G37*
G36*
X202969Y369110D02*
X197031D01*
Y363173D01*
X202969D01*
Y369110D01*
D02*
G37*
G36*
X188008Y365642D02*
X185539D01*
Y363173D01*
X188008D01*
Y365642D01*
D02*
G37*
G36*
X523622Y369672D02*
X522708Y369552D01*
X521857Y369199D01*
X521126Y368638D01*
X520565Y367907D01*
X520212Y367055D01*
X520092Y366142D01*
X520212Y365228D01*
X520565Y364377D01*
X521126Y363646D01*
X521857Y363085D01*
X522708Y362732D01*
X523622Y362612D01*
X524536Y362732D01*
X525387Y363085D01*
X526118Y363646D01*
X526679Y364377D01*
X527032Y365228D01*
X527152Y366142D01*
X527032Y367055D01*
X526679Y367907D01*
X526118Y368638D01*
X525387Y369199D01*
X524536Y369552D01*
X523622Y369672D01*
D02*
G37*
G36*
X413386D02*
X412472Y369552D01*
X411621Y369199D01*
X410890Y368638D01*
X410329Y367907D01*
X409976Y367055D01*
X409856Y366142D01*
X409976Y365228D01*
X410329Y364377D01*
X410890Y363646D01*
X411621Y363085D01*
X412472Y362732D01*
X413386Y362612D01*
X414299Y362732D01*
X415151Y363085D01*
X415882Y363646D01*
X416443Y364377D01*
X416796Y365228D01*
X416916Y366142D01*
X416796Y367055D01*
X416443Y367907D01*
X415882Y368638D01*
X415151Y369199D01*
X414299Y369552D01*
X413386Y369672D01*
D02*
G37*
G36*
X366142D02*
X365228Y369552D01*
X364377Y369199D01*
X363646Y368638D01*
X363085Y367907D01*
X362732Y367055D01*
X362612Y366142D01*
X362732Y365228D01*
X363085Y364377D01*
X363646Y363646D01*
X364377Y363085D01*
X365228Y362732D01*
X366142Y362612D01*
X367055Y362732D01*
X367907Y363085D01*
X368638Y363646D01*
X369199Y364377D01*
X369552Y365228D01*
X369672Y366142D01*
X369552Y367055D01*
X369199Y367907D01*
X368638Y368638D01*
X367907Y369199D01*
X367055Y369552D01*
X366142Y369672D01*
D02*
G37*
G36*
X318898D02*
X317984Y369552D01*
X317132Y369199D01*
X316401Y368638D01*
X315840Y367907D01*
X315488Y367055D01*
X315367Y366142D01*
X315488Y365228D01*
X315840Y364377D01*
X316401Y363646D01*
X317132Y363085D01*
X317984Y362732D01*
X318898Y362612D01*
X319811Y362732D01*
X320663Y363085D01*
X321394Y363646D01*
X321955Y364377D01*
X322307Y365228D01*
X322428Y366142D01*
X322307Y367055D01*
X321955Y367907D01*
X321394Y368638D01*
X320663Y369199D01*
X319811Y369552D01*
X318898Y369672D01*
D02*
G37*
G36*
X271654D02*
X270740Y369552D01*
X269888Y369199D01*
X269157Y368638D01*
X268596Y367907D01*
X268244Y367055D01*
X268123Y366142D01*
X268244Y365228D01*
X268596Y364377D01*
X269157Y363646D01*
X269888Y363085D01*
X270740Y362732D01*
X271654Y362612D01*
X272567Y362732D01*
X273419Y363085D01*
X274150Y363646D01*
X274711Y364377D01*
X275063Y365228D01*
X275184Y366142D01*
X275063Y367055D01*
X274711Y367907D01*
X274150Y368638D01*
X273419Y369199D01*
X272567Y369552D01*
X271654Y369672D01*
D02*
G37*
G36*
X224410D02*
X223496Y369552D01*
X222644Y369199D01*
X221913Y368638D01*
X221352Y367907D01*
X221000Y367055D01*
X220879Y366142D01*
X221000Y365228D01*
X221352Y364377D01*
X221913Y363646D01*
X222644Y363085D01*
X223496Y362732D01*
X224410Y362612D01*
X225323Y362732D01*
X226174Y363085D01*
X226906Y363646D01*
X227467Y364377D01*
X227819Y365228D01*
X227940Y366142D01*
X227819Y367055D01*
X227467Y367907D01*
X226906Y368638D01*
X226174Y369199D01*
X225323Y369552D01*
X224410Y369672D01*
D02*
G37*
G36*
X461318Y369653D02*
X460404Y369532D01*
X459553Y369180D01*
X458821Y368619D01*
X458260Y367887D01*
X457908Y367036D01*
X457788Y366122D01*
X457908Y365209D01*
X458260Y364357D01*
X458821Y363626D01*
X459553Y363065D01*
X460404Y362712D01*
X461318Y362592D01*
X462231Y362712D01*
X463083Y363065D01*
X463814Y363626D01*
X464375Y364357D01*
X464728Y365209D01*
X464848Y366122D01*
X464728Y367036D01*
X464375Y367887D01*
X463814Y368619D01*
X463083Y369180D01*
X462231Y369532D01*
X461318Y369653D01*
D02*
G37*
G36*
X524122Y357795D02*
Y354831D01*
X527086D01*
X527032Y355244D01*
X526679Y356096D01*
X526118Y356827D01*
X525387Y357388D01*
X524536Y357741D01*
X524122Y357795D01*
D02*
G37*
G36*
X523122D02*
X522708Y357741D01*
X521857Y357388D01*
X521126Y356827D01*
X520565Y356096D01*
X520212Y355244D01*
X520158Y354831D01*
X523122D01*
Y357795D01*
D02*
G37*
G36*
X461130D02*
Y354831D01*
X464094D01*
X464040Y355244D01*
X463687Y356096D01*
X463126Y356827D01*
X462395Y357388D01*
X461544Y357741D01*
X461130Y357795D01*
D02*
G37*
G36*
X460130D02*
X459716Y357741D01*
X458865Y357388D01*
X458134Y356827D01*
X457573Y356096D01*
X457220Y355244D01*
X457165Y354831D01*
X460130D01*
Y357795D01*
D02*
G37*
G36*
X413886D02*
Y354831D01*
X416850D01*
X416796Y355244D01*
X416443Y356096D01*
X415882Y356827D01*
X415151Y357388D01*
X414299Y357741D01*
X413886Y357795D01*
D02*
G37*
G36*
X412886D02*
X412472Y357741D01*
X411621Y357388D01*
X410890Y356827D01*
X410329Y356096D01*
X409976Y355244D01*
X409922Y354831D01*
X412886D01*
Y357795D01*
D02*
G37*
G36*
X366642D02*
Y354831D01*
X369606D01*
X369552Y355244D01*
X369199Y356096D01*
X368638Y356827D01*
X367907Y357388D01*
X367055Y357741D01*
X366642Y357795D01*
D02*
G37*
G36*
X365642D02*
X365228Y357741D01*
X364377Y357388D01*
X363646Y356827D01*
X363085Y356096D01*
X362732Y355244D01*
X362677Y354831D01*
X365642D01*
Y357795D01*
D02*
G37*
G36*
X527086Y353831D02*
X524122D01*
Y350866D01*
X524536Y350921D01*
X525387Y351273D01*
X526118Y351835D01*
X526679Y352566D01*
X527032Y353417D01*
X527086Y353831D01*
D02*
G37*
G36*
X523122D02*
X520158D01*
X520212Y353417D01*
X520565Y352566D01*
X521126Y351835D01*
X521857Y351273D01*
X522708Y350921D01*
X523122Y350866D01*
Y353831D01*
D02*
G37*
G36*
X464094D02*
X461130D01*
Y350866D01*
X461544Y350921D01*
X462395Y351273D01*
X463126Y351835D01*
X463687Y352566D01*
X464040Y353417D01*
X464094Y353831D01*
D02*
G37*
G36*
X460130D02*
X457165D01*
X457220Y353417D01*
X457573Y352566D01*
X458134Y351835D01*
X458865Y351273D01*
X459716Y350921D01*
X460130Y350866D01*
Y353831D01*
D02*
G37*
G36*
X416850D02*
X413886D01*
Y350866D01*
X414299Y350921D01*
X415151Y351273D01*
X415882Y351835D01*
X416443Y352566D01*
X416796Y353417D01*
X416850Y353831D01*
D02*
G37*
G36*
X412886D02*
X409922D01*
X409976Y353417D01*
X410329Y352566D01*
X410890Y351835D01*
X411621Y351273D01*
X412472Y350921D01*
X412886Y350866D01*
Y353831D01*
D02*
G37*
G36*
X369606D02*
X366642D01*
Y350866D01*
X367055Y350921D01*
X367907Y351273D01*
X368638Y351835D01*
X369199Y352566D01*
X369552Y353417D01*
X369606Y353831D01*
D02*
G37*
G36*
X365642D02*
X362677D01*
X362732Y353417D01*
X363085Y352566D01*
X363646Y351835D01*
X364377Y351273D01*
X365228Y350921D01*
X365642Y350866D01*
Y353831D01*
D02*
G37*
G36*
X311175Y347302D02*
Y344337D01*
X314139D01*
X314085Y344751D01*
X313732Y345602D01*
X313171Y346333D01*
X312440Y346894D01*
X311588Y347247D01*
X311175Y347302D01*
D02*
G37*
G36*
X310175D02*
X309761Y347247D01*
X308910Y346894D01*
X308178Y346333D01*
X307617Y345602D01*
X307265Y344751D01*
X307210Y344337D01*
X310175D01*
Y347302D01*
D02*
G37*
G36*
X264133Y346957D02*
Y343993D01*
X267097D01*
X267043Y344407D01*
X266690Y345258D01*
X266129Y345989D01*
X265398Y346550D01*
X264546Y346903D01*
X264133Y346957D01*
D02*
G37*
G36*
X263133D02*
X262719Y346903D01*
X261868Y346550D01*
X261137Y345989D01*
X260576Y345258D01*
X260223Y344407D01*
X260169Y343993D01*
X263133D01*
Y346957D01*
D02*
G37*
G36*
X216575Y345925D02*
Y342961D01*
X219539D01*
X219485Y343375D01*
X219132Y344226D01*
X218571Y344957D01*
X217840Y345518D01*
X216989Y345871D01*
X216575Y345925D01*
D02*
G37*
G36*
X215575D02*
X215161Y345871D01*
X214310Y345518D01*
X213579Y344957D01*
X213018Y344226D01*
X212665Y343375D01*
X212611Y342961D01*
X215575D01*
Y345925D01*
D02*
G37*
G36*
X314139Y343337D02*
X311175D01*
Y340373D01*
X311588Y340427D01*
X312440Y340780D01*
X313171Y341341D01*
X313732Y342072D01*
X314085Y342923D01*
X314139Y343337D01*
D02*
G37*
G36*
X310175D02*
X307210D01*
X307265Y342923D01*
X307617Y342072D01*
X308178Y341341D01*
X308910Y340780D01*
X309761Y340427D01*
X310175Y340373D01*
Y343337D01*
D02*
G37*
G36*
X267097Y342993D02*
X264133D01*
Y340029D01*
X264546Y340083D01*
X265398Y340436D01*
X266129Y340997D01*
X266690Y341728D01*
X267043Y342579D01*
X267097Y342993D01*
D02*
G37*
G36*
X263133D02*
X260169D01*
X260223Y342579D01*
X260576Y341728D01*
X261137Y340997D01*
X261868Y340436D01*
X262719Y340083D01*
X263133Y340029D01*
Y342993D01*
D02*
G37*
G36*
X219539Y341961D02*
X216575D01*
Y338997D01*
X216989Y339051D01*
X217840Y339404D01*
X218571Y339965D01*
X219132Y340696D01*
X219485Y341547D01*
X219539Y341961D01*
D02*
G37*
G36*
X215575D02*
X212611D01*
X212665Y341547D01*
X213018Y340696D01*
X213579Y339965D01*
X214310Y339404D01*
X215161Y339051D01*
X215575Y338997D01*
Y341961D01*
D02*
G37*
G36*
X150106Y389291D02*
Y385827D01*
X149606D01*
Y385327D01*
X146142D01*
X146196Y384913D01*
X146549Y384062D01*
X147110Y383330D01*
X147841Y382769D01*
X148077Y382672D01*
Y366727D01*
X148193Y366142D01*
X148525Y365646D01*
X149111Y365060D01*
X149607Y364729D01*
X150192Y364612D01*
X182071D01*
Y363173D01*
X184539D01*
Y366142D01*
Y369110D01*
X182071D01*
Y367671D01*
X151136D01*
Y382672D01*
X151371Y382769D01*
X152102Y383330D01*
X152664Y384062D01*
X152761Y384297D01*
X238628D01*
Y371608D01*
X232869D01*
X232284Y371492D01*
X231788Y371160D01*
X231202Y370574D01*
X230871Y370078D01*
X230754Y369493D01*
Y369110D01*
X229315D01*
Y366642D01*
X235252D01*
Y368549D01*
X236795D01*
Y363173D01*
X238234D01*
Y354917D01*
X238351Y354331D01*
X238682Y353835D01*
X238854Y353663D01*
X238686Y353192D01*
X238352Y353160D01*
X236995Y352748D01*
X235744Y352079D01*
X234647Y351179D01*
X233748Y350083D01*
X233079Y348832D01*
X232667Y347475D01*
X232528Y346063D01*
X232667Y344651D01*
X233079Y343294D01*
X233748Y342043D01*
X234647Y340947D01*
X235744Y340047D01*
X236995Y339378D01*
X238352Y338966D01*
X239764Y338827D01*
X241175Y338966D01*
X242533Y339378D01*
X243784Y340047D01*
X244880Y340947D01*
X245780Y342043D01*
X246449Y343294D01*
X246860Y344651D01*
X246999Y346063D01*
X246860Y347475D01*
X246449Y348832D01*
X245780Y350083D01*
X244880Y351179D01*
X243784Y352079D01*
X243368Y352301D01*
X243493Y352801D01*
X274061D01*
Y308991D01*
X274178Y308406D01*
X274509Y307910D01*
X275095Y307324D01*
X275591Y306993D01*
X276176Y306876D01*
X317150D01*
Y305221D01*
X331650D01*
Y311709D01*
X317150D01*
Y309935D01*
X277120D01*
Y353745D01*
X277004Y354330D01*
X276672Y354826D01*
X276086Y355412D01*
X275590Y355744D01*
X275005Y355860D01*
X241293D01*
Y363173D01*
X242732D01*
Y369110D01*
X241419D01*
X241304Y369389D01*
X241257Y369610D01*
X241570Y370079D01*
X241687Y370665D01*
Y384297D01*
X285872D01*
Y371608D01*
X280113D01*
X279528Y371492D01*
X279032Y371160D01*
X278446Y370574D01*
X278115Y370078D01*
X277998Y369493D01*
Y369110D01*
X276559D01*
Y366642D01*
X282496D01*
Y368549D01*
X284039D01*
Y363173D01*
X285478D01*
Y354917D01*
X285595Y354331D01*
X285926Y353835D01*
X286098Y353663D01*
X285930Y353192D01*
X285596Y353160D01*
X284239Y352748D01*
X282988Y352079D01*
X281891Y351179D01*
X280992Y350083D01*
X280323Y348832D01*
X279911Y347475D01*
X279772Y346063D01*
X279911Y344651D01*
X280323Y343294D01*
X280992Y342043D01*
X281891Y340947D01*
X282988Y340047D01*
X284239Y339378D01*
X285596Y338966D01*
X287008Y338827D01*
X288420Y338966D01*
X289777Y339378D01*
X291028Y340047D01*
X292124Y340947D01*
X293024Y342043D01*
X293693Y343294D01*
X294105Y344651D01*
X294244Y346063D01*
X294105Y347475D01*
X293693Y348832D01*
X293024Y350083D01*
X292124Y351179D01*
X291028Y352079D01*
X290612Y352301D01*
X290737Y352801D01*
X321305D01*
Y321709D01*
X317150D01*
Y315220D01*
X331650D01*
Y321709D01*
X324364D01*
Y353745D01*
X324248Y354330D01*
X323916Y354826D01*
X323330Y355412D01*
X322834Y355744D01*
X322249Y355860D01*
X288537D01*
Y363173D01*
X289976D01*
Y369110D01*
X288663D01*
X288548Y369389D01*
X288501Y369610D01*
X288814Y370079D01*
X288931Y370665D01*
Y384297D01*
X333116D01*
Y371608D01*
X327357D01*
X326772Y371492D01*
X326276Y371160D01*
X325690Y370574D01*
X325359Y370078D01*
X325242Y369493D01*
Y369110D01*
X323803D01*
Y366642D01*
X329740D01*
Y368549D01*
X331283D01*
Y363173D01*
X332723D01*
Y354917D01*
X332839Y354331D01*
X333171Y353835D01*
X333342Y353663D01*
X333174Y353192D01*
X332840Y353160D01*
X331483Y352748D01*
X330232Y352079D01*
X329136Y351179D01*
X328236Y350083D01*
X327567Y348832D01*
X327155Y347475D01*
X327016Y346063D01*
X327155Y344651D01*
X327567Y343294D01*
X328236Y342043D01*
X329136Y340947D01*
X330232Y340047D01*
X331483Y339378D01*
X332840Y338966D01*
X334252Y338827D01*
X335664Y338966D01*
X337021Y339378D01*
X338272Y340047D01*
X339368Y340947D01*
X340268Y342043D01*
X340490Y342459D01*
X340990Y342333D01*
Y321709D01*
X337642D01*
Y315220D01*
X352142D01*
Y321709D01*
X344049D01*
Y353745D01*
X343933Y354330D01*
X343601Y354826D01*
X343015Y355412D01*
X342519Y355744D01*
X341934Y355860D01*
X335781D01*
Y363173D01*
X337221D01*
Y369110D01*
X335908D01*
X335792Y369389D01*
X335745Y369610D01*
X336059Y370079D01*
X336175Y370665D01*
Y384297D01*
X380360D01*
Y379775D01*
X377165Y376580D01*
X376693Y376815D01*
X376542Y377962D01*
X376045Y379163D01*
X375253Y380194D01*
X374222Y380986D01*
X373021Y381483D01*
X371732Y381653D01*
X370444Y381483D01*
X369243Y380986D01*
X368211Y380194D01*
X367420Y379163D01*
X366922Y377962D01*
X366753Y376673D01*
X366922Y375384D01*
X367420Y374183D01*
X368211Y373152D01*
X369243Y372361D01*
X370444Y371863D01*
X371732Y371694D01*
X372168Y371751D01*
X372510Y371386D01*
X372486Y371268D01*
Y369110D01*
X371047D01*
Y366642D01*
X376984D01*
Y369110D01*
X375545D01*
Y370634D01*
X382971Y378060D01*
X383303Y378556D01*
X383419Y379142D01*
Y384297D01*
X427604D01*
Y371608D01*
X421846D01*
X421260Y371492D01*
X420764Y371160D01*
X420178Y370574D01*
X419847Y370078D01*
X419730Y369493D01*
Y369110D01*
X418291D01*
Y366642D01*
X424228D01*
Y368549D01*
X425772D01*
Y363173D01*
X427211D01*
Y355860D01*
X421846D01*
X421260Y355744D01*
X420764Y355412D01*
X419958Y354606D01*
X419626Y354110D01*
X419510Y353524D01*
Y300067D01*
X419378Y299935D01*
X352142Y299935D01*
Y301709D01*
X337642D01*
Y295220D01*
X352142D01*
Y296876D01*
X420012Y296876D01*
X420597Y296992D01*
X421093Y297324D01*
X422121Y298352D01*
X422452Y298848D01*
X422569Y299433D01*
Y341444D01*
X423069Y341623D01*
X423624Y340947D01*
X424720Y340047D01*
X425971Y339378D01*
X427328Y338966D01*
X428740Y338827D01*
X430152Y338966D01*
X431509Y339378D01*
X432760Y340047D01*
X433856Y340947D01*
X434756Y342043D01*
X435425Y343294D01*
X435837Y344651D01*
X435976Y346063D01*
X435837Y347475D01*
X435425Y348832D01*
X434756Y350083D01*
X433856Y351179D01*
X432760Y352079D01*
X431509Y352748D01*
X430152Y353160D01*
X429818Y353192D01*
X429650Y353663D01*
X429822Y353835D01*
X430153Y354331D01*
X430269Y354917D01*
Y363173D01*
X431709D01*
Y369110D01*
X430396D01*
X430280Y369389D01*
X430233Y369610D01*
X430547Y370079D01*
X430663Y370665D01*
Y384297D01*
X474849D01*
Y371608D01*
X469090D01*
X468504Y371492D01*
X468008Y371160D01*
X467422Y370574D01*
X467091Y370078D01*
X466974Y369493D01*
Y369110D01*
X465535D01*
Y366642D01*
X471472D01*
Y368549D01*
X473016D01*
Y363173D01*
X474455D01*
Y355860D01*
X469090D01*
X468504Y355744D01*
X468008Y355412D01*
X467202Y354606D01*
X466870Y354110D01*
X466754Y353524D01*
Y288931D01*
X352142D01*
Y291709D01*
X337642D01*
Y285221D01*
X352142D01*
Y285872D01*
X467698D01*
X468283Y285989D01*
X468779Y286320D01*
X469365Y286906D01*
X469696Y287402D01*
X469813Y287987D01*
Y341444D01*
X470313Y341623D01*
X470868Y340947D01*
X471964Y340047D01*
X473215Y339378D01*
X474573Y338966D01*
X475984Y338827D01*
X477396Y338966D01*
X478753Y339378D01*
X480004Y340047D01*
X481101Y340947D01*
X482000Y342043D01*
X482669Y343294D01*
X483081Y344651D01*
X483220Y346063D01*
X483081Y347475D01*
X482669Y348832D01*
X482000Y350083D01*
X481101Y351179D01*
X480004Y352079D01*
X478753Y352748D01*
X477396Y353160D01*
X477062Y353192D01*
X476894Y353663D01*
X477066Y353835D01*
X477397Y354331D01*
X477514Y354917D01*
Y363173D01*
X478953D01*
Y369110D01*
X477640D01*
X477524Y369389D01*
X477478Y369610D01*
X477791Y370079D01*
X477907Y370665D01*
Y385827D01*
X477791Y386412D01*
X477459Y386908D01*
X476963Y387240D01*
X476378Y387356D01*
X152761D01*
X152664Y387592D01*
X152102Y388323D01*
X151371Y388884D01*
X150520Y389237D01*
X150106Y389291D01*
D02*
G37*
G36*
X384465Y369110D02*
X378528D01*
Y363173D01*
X379967D01*
Y355860D01*
X374602D01*
X374016Y355744D01*
X373520Y355412D01*
X372714Y354606D01*
X372382Y354110D01*
X372266Y353524D01*
Y308616D01*
X352142D01*
Y311709D01*
X337642D01*
Y305221D01*
X352142D01*
Y305557D01*
X373210D01*
X373795Y305674D01*
X374291Y306005D01*
X374877Y306591D01*
X375208Y307087D01*
X375325Y307672D01*
Y341444D01*
X375825Y341623D01*
X376380Y340947D01*
X377476Y340047D01*
X378727Y339378D01*
X380084Y338966D01*
X381496Y338827D01*
X382908Y338966D01*
X384265Y339378D01*
X385516Y340047D01*
X386612Y340947D01*
X387512Y342043D01*
X388181Y343294D01*
X388593Y344651D01*
X388732Y346063D01*
X388593Y347475D01*
X388181Y348832D01*
X387512Y350083D01*
X386612Y351179D01*
X385516Y352079D01*
X384265Y352748D01*
X382908Y353160D01*
X382574Y353192D01*
X382406Y353663D01*
X382577Y353835D01*
X382909Y354331D01*
X383026Y354917D01*
Y363173D01*
X384465D01*
Y369110D01*
D02*
G37*
G36*
X497299Y314386D02*
X490575D01*
Y307661D01*
X497299D01*
Y314386D01*
D02*
G37*
G36*
X503937Y314415D02*
X503059Y314299D01*
X502241Y313961D01*
X501539Y313422D01*
X501000Y312719D01*
X500661Y311901D01*
X500546Y311024D01*
X500661Y310146D01*
X501000Y309328D01*
X501539Y308626D01*
X502241Y308087D01*
X503059Y307748D01*
X503937Y307632D01*
X504815Y307748D01*
X505633Y308087D01*
X506335Y308626D01*
X506874Y309328D01*
X507213Y310146D01*
X507328Y311024D01*
X507213Y311901D01*
X506874Y312719D01*
X506335Y313422D01*
X505633Y313961D01*
X504815Y314299D01*
X503937Y314415D01*
D02*
G37*
G36*
X523622Y314554D02*
X522708Y314434D01*
X521857Y314081D01*
X521126Y313520D01*
X520565Y312789D01*
X520212Y311937D01*
X520092Y311024D01*
X520212Y310110D01*
X520565Y309259D01*
X521126Y308527D01*
X521857Y307966D01*
X522708Y307614D01*
X523622Y307493D01*
X524536Y307614D01*
X525387Y307966D01*
X526118Y308527D01*
X526679Y309259D01*
X527032Y310110D01*
X527152Y311024D01*
X527032Y311937D01*
X526679Y312789D01*
X526118Y313520D01*
X525387Y314081D01*
X524536Y314434D01*
X523622Y314554D01*
D02*
G37*
G36*
X512311Y298740D02*
Y295776D01*
X515275D01*
X515221Y296189D01*
X514868Y297041D01*
X514307Y297772D01*
X513576Y298333D01*
X512725Y298686D01*
X512311Y298740D01*
D02*
G37*
G36*
X511311D02*
X510897Y298686D01*
X510046Y298333D01*
X509315Y297772D01*
X508754Y297041D01*
X508401Y296189D01*
X508347Y295776D01*
X511311D01*
Y298740D01*
D02*
G37*
G36*
X195488Y369110D02*
X189551D01*
Y363173D01*
X190990D01*
Y354917D01*
X191107Y354331D01*
X191438Y353835D01*
X191610Y353663D01*
X191442Y353192D01*
X191108Y353160D01*
X189751Y352748D01*
X188500Y352079D01*
X187403Y351179D01*
X186504Y350083D01*
X185835Y348832D01*
X185423Y347475D01*
X185284Y346063D01*
X185423Y344651D01*
X185835Y343294D01*
X186504Y342043D01*
X187403Y340947D01*
X188500Y340047D01*
X189751Y339378D01*
X191108Y338966D01*
X192520Y338827D01*
X193931Y338966D01*
X195289Y339378D01*
X196540Y340047D01*
X197636Y340947D01*
X198536Y342043D01*
X199205Y343294D01*
X199616Y344651D01*
X199755Y346063D01*
X199616Y347475D01*
X199205Y348832D01*
X198536Y350083D01*
X197636Y351179D01*
X196540Y352079D01*
X196124Y352301D01*
X196249Y352801D01*
X226817D01*
Y299050D01*
X226934Y298465D01*
X227265Y297969D01*
X227851Y297383D01*
X228347Y297052D01*
X228932Y296935D01*
X317150D01*
Y295220D01*
X331650D01*
Y301709D01*
X317150D01*
Y299994D01*
X229876D01*
Y353745D01*
X229759Y354330D01*
X229428Y354826D01*
X228842Y355412D01*
X228346Y355744D01*
X227761Y355860D01*
X194049D01*
Y363173D01*
X195488D01*
Y369110D01*
D02*
G37*
G36*
X515275Y294776D02*
X512311D01*
Y291811D01*
X512725Y291866D01*
X513576Y292218D01*
X514307Y292779D01*
X514868Y293511D01*
X515221Y294362D01*
X515275Y294776D01*
D02*
G37*
G36*
X511311D02*
X508347D01*
X508401Y294362D01*
X508754Y293511D01*
X509315Y292779D01*
X510046Y292218D01*
X510897Y291866D01*
X511311Y291811D01*
Y294776D01*
D02*
G37*
G36*
X331650Y291709D02*
X317150D01*
Y289935D01*
X205728D01*
X205143Y289819D01*
X204647Y289487D01*
X203643Y288483D01*
X203311Y287987D01*
X203195Y287402D01*
Y179139D01*
X203132Y178822D01*
Y175508D01*
X203195Y175192D01*
Y170884D01*
X197123D01*
X197001Y171369D01*
X197327Y171543D01*
X198424Y172443D01*
X199323Y173539D01*
X199992Y174790D01*
X200404Y176147D01*
X200543Y177559D01*
X200404Y178971D01*
X199992Y180328D01*
X199323Y181579D01*
X198424Y182675D01*
X197327Y183575D01*
X196076Y184244D01*
X194719Y184656D01*
X193307Y184795D01*
X191895Y184656D01*
X190538Y184244D01*
X189287Y183575D01*
X188191Y182675D01*
X187291Y181579D01*
X186622Y180328D01*
X186211Y178971D01*
X186072Y177559D01*
X186211Y176147D01*
X186622Y174790D01*
X187291Y173539D01*
X188191Y172443D01*
X189287Y171543D01*
X190538Y170874D01*
X191895Y170463D01*
X192229Y170430D01*
X192397Y169959D01*
X192226Y169787D01*
X191894Y169291D01*
X191778Y168705D01*
Y160449D01*
X190339D01*
Y154512D01*
X196276D01*
Y160449D01*
X194836D01*
Y167825D01*
X201643D01*
X201864Y167376D01*
X201667Y167119D01*
X201314Y166268D01*
X201194Y165354D01*
X201314Y164441D01*
X201667Y163589D01*
X202228Y162858D01*
X202959Y162297D01*
X203811Y161944D01*
X204724Y161824D01*
X205638Y161944D01*
X206489Y162297D01*
X207221Y162858D01*
X207782Y163589D01*
X208134Y164441D01*
X208255Y165354D01*
X208134Y166268D01*
X207782Y167119D01*
X207221Y167851D01*
X206489Y168412D01*
X206168Y168545D01*
X206003Y169154D01*
X206137Y169355D01*
X206254Y169940D01*
Y174036D01*
X206702Y174257D01*
X206896Y174108D01*
X207748Y173755D01*
X208161Y173701D01*
Y177165D01*
Y180630D01*
X207748Y180575D01*
X206896Y180223D01*
X206702Y180074D01*
X206254Y180295D01*
Y286768D01*
X206362Y286876D01*
X317150D01*
Y285221D01*
X331650D01*
Y291709D01*
D02*
G37*
G36*
Y281709D02*
X317150D01*
Y279935D01*
X254784D01*
X254198Y279819D01*
X253702Y279487D01*
X250887Y276672D01*
X250555Y276176D01*
X250439Y275590D01*
Y179139D01*
X250376Y178822D01*
Y175508D01*
X250439Y175192D01*
Y170427D01*
X243503D01*
X243486Y170468D01*
X243419Y170927D01*
X244571Y171543D01*
X245668Y172443D01*
X246567Y173539D01*
X247236Y174790D01*
X247648Y176147D01*
X247787Y177559D01*
X247648Y178971D01*
X247236Y180328D01*
X246567Y181579D01*
X245668Y182675D01*
X244571Y183575D01*
X243320Y184244D01*
X241963Y184656D01*
X240551Y184795D01*
X239140Y184656D01*
X237782Y184244D01*
X236531Y183575D01*
X235435Y182675D01*
X234535Y181579D01*
X233866Y180328D01*
X233455Y178971D01*
X233316Y177559D01*
X233455Y176147D01*
X233866Y174790D01*
X234535Y173539D01*
X235435Y172443D01*
X236531Y171543D01*
X237782Y170874D01*
X239140Y170463D01*
X239274Y170449D01*
X239388Y170176D01*
X239437Y169931D01*
X239138Y169483D01*
X239022Y168898D01*
Y160449D01*
X237583D01*
Y154512D01*
X243520D01*
Y160449D01*
X242081D01*
Y167368D01*
X251383D01*
X251968Y167485D01*
X252464Y167816D01*
X253050Y168402D01*
X253381Y168898D01*
X253498Y169483D01*
Y174036D01*
X253946Y174257D01*
X254140Y174108D01*
X254992Y173755D01*
X255405Y173701D01*
Y177165D01*
Y180630D01*
X254992Y180575D01*
X254140Y180223D01*
X253946Y180074D01*
X253498Y180295D01*
Y274957D01*
X255417Y276876D01*
X317150D01*
Y275220D01*
X331650D01*
Y281709D01*
D02*
G37*
G36*
X228346Y277171D02*
X227469Y277055D01*
X226651Y276716D01*
X225949Y276178D01*
X225410Y275475D01*
X225071Y274657D01*
X224955Y273780D01*
X225071Y272902D01*
X225410Y272084D01*
X225949Y271382D01*
X226651Y270843D01*
X227469Y270504D01*
X228346Y270388D01*
X229224Y270504D01*
X230042Y270843D01*
X230744Y271382D01*
X231283Y272084D01*
X231622Y272902D01*
X231738Y273780D01*
X231622Y274657D01*
X231283Y275475D01*
X230744Y276178D01*
X230042Y276716D01*
X229224Y277055D01*
X228346Y277171D01*
D02*
G37*
G36*
X331650Y271709D02*
X317150D01*
Y269935D01*
X299902D01*
X299316Y269818D01*
X298820Y269487D01*
X298131Y268798D01*
X297800Y268302D01*
X297683Y267717D01*
Y179139D01*
X297620Y178822D01*
Y175508D01*
X297683Y175192D01*
Y170884D01*
X297556D01*
X297239Y170821D01*
X291525D01*
X291400Y171321D01*
X291815Y171543D01*
X292912Y172443D01*
X293811Y173539D01*
X294480Y174790D01*
X294892Y176147D01*
X295031Y177559D01*
X294892Y178971D01*
X294480Y180328D01*
X293811Y181579D01*
X292912Y182675D01*
X291815Y183575D01*
X290564Y184244D01*
X289207Y184656D01*
X287795Y184795D01*
X286384Y184656D01*
X285026Y184244D01*
X283775Y183575D01*
X282679Y182675D01*
X281779Y181579D01*
X281110Y180328D01*
X280699Y178971D01*
X280560Y177559D01*
X280699Y176147D01*
X281110Y174790D01*
X281779Y173539D01*
X282679Y172443D01*
X283775Y171543D01*
X285026Y170874D01*
X286384Y170463D01*
X286717Y170430D01*
X286886Y169959D01*
X286714Y169787D01*
X286382Y169291D01*
X286266Y168705D01*
Y160449D01*
X284827D01*
Y154512D01*
X290764D01*
Y160449D01*
X289325D01*
Y167762D01*
X296083D01*
X296304Y167314D01*
X296155Y167119D01*
X295803Y166268D01*
X295682Y165354D01*
X295803Y164441D01*
X296155Y163589D01*
X296716Y162858D01*
X297447Y162297D01*
X298299Y161944D01*
X299213Y161824D01*
X300126Y161944D01*
X300978Y162297D01*
X301709Y162858D01*
X302270Y163589D01*
X302623Y164441D01*
X302743Y165354D01*
X302623Y166268D01*
X302270Y167119D01*
X301709Y167851D01*
X300978Y168412D01*
X300712Y168521D01*
X300524Y169141D01*
X300626Y169292D01*
X300742Y169877D01*
Y174036D01*
X301190Y174257D01*
X301384Y174108D01*
X302236Y173755D01*
X302650Y173701D01*
Y177165D01*
Y180630D01*
X302236Y180575D01*
X301384Y180223D01*
X301190Y180074D01*
X300742Y180295D01*
Y266876D01*
X317150D01*
Y265220D01*
X331650D01*
Y271709D01*
D02*
G37*
G36*
X138295Y267244D02*
Y264280D01*
X141260D01*
X141205Y264693D01*
X140852Y265545D01*
X140292Y266276D01*
X139560Y266837D01*
X138709Y267189D01*
X138295Y267244D01*
D02*
G37*
G36*
X137295D02*
X136882Y267189D01*
X136030Y266837D01*
X135299Y266276D01*
X134738Y265545D01*
X134385Y264693D01*
X134331Y264280D01*
X137295D01*
Y267244D01*
D02*
G37*
G36*
X231709Y267142D02*
X224984D01*
Y260417D01*
X231709D01*
Y267142D01*
D02*
G37*
G36*
X141260Y263280D02*
X138295D01*
Y260315D01*
X138709Y260370D01*
X139560Y260722D01*
X140292Y261283D01*
X140852Y262014D01*
X141205Y262866D01*
X141260Y263280D01*
D02*
G37*
G36*
X137295D02*
X134331D01*
X134385Y262866D01*
X134738Y262014D01*
X135299Y261283D01*
X136030Y260722D01*
X136882Y260370D01*
X137295Y260315D01*
Y263280D01*
D02*
G37*
G36*
X352142Y251709D02*
X345392D01*
Y248965D01*
X352142D01*
Y251709D01*
D02*
G37*
G36*
X344392D02*
X337642D01*
Y248965D01*
X344392D01*
Y251709D01*
D02*
G37*
G36*
X352142Y247965D02*
X344892D01*
X337642D01*
Y245220D01*
X343325D01*
Y233545D01*
X342760Y233311D01*
X342029Y232750D01*
X341468Y232019D01*
X341116Y231167D01*
X341061Y230753D01*
X347990D01*
X347936Y231167D01*
X347583Y232019D01*
X347022Y232750D01*
X346384Y233239D01*
Y245220D01*
X352142D01*
Y247965D01*
D02*
G37*
G36*
X331650Y251709D02*
X317150D01*
Y245220D01*
X321305D01*
Y235438D01*
X321070Y235341D01*
X320338Y234780D01*
X319777Y234049D01*
X319425Y233197D01*
X319304Y232283D01*
X319425Y231370D01*
X319777Y230518D01*
X320338Y229787D01*
X321070Y229226D01*
X321921Y228873D01*
X322835Y228753D01*
X323748Y228873D01*
X324600Y229226D01*
X325331Y229787D01*
X325892Y230518D01*
X326245Y231370D01*
X326365Y232283D01*
X326245Y233197D01*
X325892Y234049D01*
X325331Y234780D01*
X324600Y235341D01*
X324364Y235438D01*
Y245220D01*
X331650D01*
Y251709D01*
D02*
G37*
G36*
X347990Y229753D02*
X345026D01*
Y226789D01*
X345439Y226844D01*
X346291Y227196D01*
X347022Y227757D01*
X347583Y228488D01*
X347936Y229340D01*
X347990Y229753D01*
D02*
G37*
G36*
X344026D02*
X341061D01*
X341116Y229340D01*
X341468Y228488D01*
X342029Y227757D01*
X342760Y227196D01*
X343612Y226844D01*
X344026Y226789D01*
Y229753D01*
D02*
G37*
G36*
X352142Y281709D02*
X337642D01*
Y275220D01*
X352142D01*
Y276935D01*
X466974D01*
Y219898D01*
X465142D01*
Y213173D01*
X471866D01*
Y219898D01*
X470033D01*
Y277879D01*
X469917Y278464D01*
X469585Y278960D01*
X469000Y279546D01*
X468503Y279877D01*
X467918Y279994D01*
X352142D01*
Y281709D01*
D02*
G37*
G36*
X511236Y192339D02*
X504512D01*
Y185614D01*
X511236D01*
Y192339D01*
D02*
G37*
G36*
X441445Y180630D02*
Y177665D01*
X444409D01*
X444355Y178079D01*
X444002Y178930D01*
X443441Y179662D01*
X442710Y180223D01*
X441859Y180575D01*
X441445Y180630D01*
D02*
G37*
G36*
X440445D02*
X440031Y180575D01*
X439180Y180223D01*
X438449Y179662D01*
X437888Y178930D01*
X437535Y178079D01*
X437480Y177665D01*
X440445D01*
Y180630D01*
D02*
G37*
G36*
X394201D02*
Y177665D01*
X397165D01*
X397111Y178079D01*
X396758Y178930D01*
X396197Y179662D01*
X395466Y180223D01*
X394615Y180575D01*
X394201Y180630D01*
D02*
G37*
G36*
X393201D02*
X392787Y180575D01*
X391936Y180223D01*
X391205Y179662D01*
X390644Y178930D01*
X390291Y178079D01*
X390236Y177665D01*
X393201D01*
Y180630D01*
D02*
G37*
G36*
X347240D02*
Y177665D01*
X350204D01*
X350150Y178079D01*
X349797Y178930D01*
X349236Y179662D01*
X348505Y180223D01*
X347654Y180575D01*
X347240Y180630D01*
D02*
G37*
G36*
X303650D02*
Y177665D01*
X306614D01*
X306559Y178079D01*
X306207Y178930D01*
X305646Y179662D01*
X304915Y180223D01*
X304063Y180575D01*
X303650Y180630D01*
D02*
G37*
G36*
X256405D02*
Y177665D01*
X259370D01*
X259315Y178079D01*
X258963Y178930D01*
X258402Y179662D01*
X257671Y180223D01*
X256819Y180575D01*
X256405Y180630D01*
D02*
G37*
G36*
X209161D02*
Y177665D01*
X212126D01*
X212071Y178079D01*
X211719Y178930D01*
X211158Y179662D01*
X210426Y180223D01*
X209575Y180575D01*
X209161Y180630D01*
D02*
G37*
G36*
X138295D02*
Y177665D01*
X141260D01*
X141205Y178079D01*
X140852Y178930D01*
X140292Y179662D01*
X139560Y180223D01*
X138709Y180575D01*
X138295Y180630D01*
D02*
G37*
G36*
X137295D02*
X136882Y180575D01*
X136030Y180223D01*
X135299Y179662D01*
X134738Y178930D01*
X134385Y178079D01*
X134331Y177665D01*
X137295D01*
Y180630D01*
D02*
G37*
G36*
X507874Y182368D02*
X506996Y182252D01*
X506178Y181913D01*
X505476Y181374D01*
X504937Y180672D01*
X504598Y179854D01*
X504483Y178976D01*
X504598Y178099D01*
X504937Y177281D01*
X505476Y176578D01*
X506178Y176040D01*
X506996Y175701D01*
X507874Y175585D01*
X508752Y175701D01*
X509570Y176040D01*
X510272Y176578D01*
X510811Y177281D01*
X511150Y178099D01*
X511265Y178976D01*
X511150Y179854D01*
X510811Y180672D01*
X510272Y181374D01*
X509570Y181913D01*
X508752Y182252D01*
X507874Y182368D01*
D02*
G37*
G36*
X444409Y176665D02*
X441445D01*
Y173701D01*
X441859Y173755D01*
X442710Y174108D01*
X443441Y174669D01*
X444002Y175400D01*
X444355Y176252D01*
X444409Y176665D01*
D02*
G37*
G36*
X440445D02*
X437480D01*
X437535Y176252D01*
X437888Y175400D01*
X438449Y174669D01*
X439180Y174108D01*
X440031Y173755D01*
X440445Y173701D01*
Y176665D01*
D02*
G37*
G36*
X397165D02*
X394201D01*
Y173701D01*
X394615Y173755D01*
X395466Y174108D01*
X396197Y174669D01*
X396758Y175400D01*
X397111Y176252D01*
X397165Y176665D01*
D02*
G37*
G36*
X393201D02*
X390236D01*
X390291Y176252D01*
X390644Y175400D01*
X391205Y174669D01*
X391936Y174108D01*
X392787Y173755D01*
X393201Y173701D01*
Y176665D01*
D02*
G37*
G36*
X350204D02*
X347240D01*
Y173701D01*
X347654Y173755D01*
X348505Y174108D01*
X349236Y174669D01*
X349797Y175400D01*
X350150Y176252D01*
X350204Y176665D01*
D02*
G37*
G36*
X331650Y261709D02*
X317150D01*
Y255221D01*
X331650D01*
Y256876D01*
X332112D01*
X332227Y256899D01*
X333116D01*
Y185846D01*
X333233Y185260D01*
X333345Y185092D01*
X333135Y184506D01*
X332270Y184244D01*
X331019Y183575D01*
X329923Y182675D01*
X329023Y181579D01*
X328355Y180328D01*
X327943Y178971D01*
X327804Y177559D01*
X327943Y176147D01*
X328355Y174790D01*
X329023Y173539D01*
X329923Y172443D01*
X331019Y171543D01*
X332270Y170874D01*
X333628Y170463D01*
X333961Y170430D01*
X334130Y169959D01*
X333958Y169787D01*
X333626Y169291D01*
X333510Y168705D01*
Y160449D01*
X332071D01*
Y154512D01*
X338008D01*
Y160449D01*
X336569D01*
Y167762D01*
X341934D01*
X342519Y167878D01*
X343015Y168210D01*
X343822Y169016D01*
X344153Y169512D01*
X344270Y170098D01*
Y174084D01*
X344718Y174305D01*
X344975Y174108D01*
X345827Y173755D01*
X346240Y173701D01*
Y177165D01*
Y180630D01*
X345827Y180575D01*
X344975Y180223D01*
X344718Y180025D01*
X344270Y180246D01*
Y184454D01*
X344153Y185039D01*
X343822Y185535D01*
X343015Y186341D01*
X342519Y186673D01*
X341934Y186789D01*
X336175D01*
Y257842D01*
X336059Y258428D01*
X335727Y258924D01*
X335141Y259510D01*
X334645Y259841D01*
X334060Y259958D01*
X332135D01*
X331650Y260243D01*
Y261709D01*
D02*
G37*
G36*
X306614Y176665D02*
X303650D01*
Y173701D01*
X304063Y173755D01*
X304915Y174108D01*
X305646Y174669D01*
X306207Y175400D01*
X306559Y176252D01*
X306614Y176665D01*
D02*
G37*
G36*
X259370D02*
X256405D01*
Y173701D01*
X256819Y173755D01*
X257671Y174108D01*
X258402Y174669D01*
X258963Y175400D01*
X259315Y176252D01*
X259370Y176665D01*
D02*
G37*
G36*
X212126D02*
X209161D01*
Y173701D01*
X209575Y173755D01*
X210426Y174108D01*
X211158Y174669D01*
X211719Y175400D01*
X212071Y176252D01*
X212126Y176665D01*
D02*
G37*
G36*
X141260D02*
X138295D01*
Y173701D01*
X138709Y173755D01*
X139560Y174108D01*
X140292Y174669D01*
X140852Y175400D01*
X141205Y176252D01*
X141260Y176665D01*
D02*
G37*
G36*
X137295D02*
X134331D01*
X134385Y176252D01*
X134738Y175400D01*
X135299Y174669D01*
X136030Y174108D01*
X136882Y173755D01*
X137295Y173701D01*
Y176665D01*
D02*
G37*
G36*
X440945Y168885D02*
X440031Y168764D01*
X439180Y168412D01*
X438449Y167851D01*
X437888Y167119D01*
X437535Y166268D01*
X437415Y165354D01*
X437535Y164441D01*
X437888Y163589D01*
X438449Y162858D01*
X439180Y162297D01*
X440031Y161944D01*
X440945Y161824D01*
X441859Y161944D01*
X442710Y162297D01*
X443441Y162858D01*
X444002Y163589D01*
X444355Y164441D01*
X444475Y165354D01*
X444355Y166268D01*
X444002Y167119D01*
X443441Y167851D01*
X442710Y168412D01*
X441859Y168764D01*
X440945Y168885D01*
D02*
G37*
G36*
X389764D02*
X388850Y168764D01*
X387999Y168412D01*
X387267Y167851D01*
X386706Y167119D01*
X386354Y166268D01*
X386234Y165354D01*
X386354Y164441D01*
X386706Y163589D01*
X387267Y162858D01*
X387999Y162297D01*
X388850Y161944D01*
X389764Y161824D01*
X390677Y161944D01*
X391529Y162297D01*
X392260Y162858D01*
X392821Y163589D01*
X393174Y164441D01*
X393294Y165354D01*
X393174Y166268D01*
X392821Y167119D01*
X392260Y167851D01*
X391529Y168412D01*
X390677Y168764D01*
X389764Y168885D01*
D02*
G37*
G36*
X346457D02*
X345543Y168764D01*
X344692Y168412D01*
X343960Y167851D01*
X343399Y167119D01*
X343047Y166268D01*
X342927Y165354D01*
X343047Y164441D01*
X343399Y163589D01*
X343960Y162858D01*
X344692Y162297D01*
X345543Y161944D01*
X346457Y161824D01*
X347370Y161944D01*
X348222Y162297D01*
X348953Y162858D01*
X349514Y163589D01*
X349867Y164441D01*
X349987Y165354D01*
X349867Y166268D01*
X349514Y167119D01*
X348953Y167851D01*
X348222Y168412D01*
X347370Y168764D01*
X346457Y168885D01*
D02*
G37*
G36*
X255906D02*
X254992Y168764D01*
X254140Y168412D01*
X253409Y167851D01*
X252848Y167119D01*
X252496Y166268D01*
X252375Y165354D01*
X252496Y164441D01*
X252848Y163589D01*
X253409Y162858D01*
X254140Y162297D01*
X254992Y161944D01*
X255906Y161824D01*
X256819Y161944D01*
X257671Y162297D01*
X258402Y162858D01*
X258963Y163589D01*
X259315Y164441D01*
X259436Y165354D01*
X259315Y166268D01*
X258963Y167119D01*
X258402Y167851D01*
X257671Y168412D01*
X256819Y168764D01*
X255906Y168885D01*
D02*
G37*
G36*
X138148Y168720D02*
X137234Y168600D01*
X136382Y168247D01*
X135651Y167686D01*
X135090Y166955D01*
X134738Y166104D01*
X134617Y165190D01*
X134738Y164276D01*
X135090Y163425D01*
X135651Y162694D01*
X136382Y162133D01*
X137234Y161780D01*
X138148Y161660D01*
X139061Y161780D01*
X139913Y162133D01*
X140644Y162694D01*
X141205Y163425D01*
X141558Y164276D01*
X141678Y165190D01*
X141558Y166104D01*
X141205Y166955D01*
X140644Y167686D01*
X139913Y168247D01*
X139061Y168600D01*
X138148Y168720D01*
D02*
G37*
G36*
X389264Y160449D02*
X386795D01*
Y157980D01*
X389264D01*
Y160449D01*
D02*
G37*
G36*
X342020D02*
X339551D01*
Y157980D01*
X342020D01*
Y160449D01*
D02*
G37*
G36*
X483752D02*
X481284D01*
Y157980D01*
X483752D01*
Y160449D01*
D02*
G37*
G36*
X247532D02*
X245063D01*
Y157980D01*
X247532D01*
Y160449D01*
D02*
G37*
G36*
X200287D02*
X197819D01*
Y157980D01*
X200287D01*
Y160449D01*
D02*
G37*
G36*
X294776D02*
X292307D01*
Y157980D01*
X294776D01*
Y160449D01*
D02*
G37*
G36*
X436508D02*
X434039D01*
Y157980D01*
X436508D01*
Y160449D01*
D02*
G37*
G36*
X483752Y156980D02*
X481284D01*
Y154512D01*
X483752D01*
Y156980D01*
D02*
G37*
G36*
X468504Y209927D02*
X467626Y209811D01*
X466808Y209472D01*
X466106Y208933D01*
X465567Y208231D01*
X465228Y207413D01*
X465113Y206535D01*
X465228Y205658D01*
X465567Y204840D01*
X466106Y204137D01*
X466808Y203599D01*
X466974Y203530D01*
Y169877D01*
X467091Y169292D01*
X467422Y168796D01*
X468008Y168210D01*
X468504Y167878D01*
X469090Y167762D01*
X474849D01*
Y160449D01*
X473803D01*
Y154512D01*
X479740D01*
Y160449D01*
X477907D01*
Y168705D01*
X477791Y169291D01*
X477459Y169787D01*
X477323Y169923D01*
X477491Y170394D01*
X478183Y170463D01*
X479541Y170874D01*
X480792Y171543D01*
X481888Y172443D01*
X482788Y173539D01*
X483457Y174790D01*
X483868Y176147D01*
X484007Y177559D01*
X483868Y178971D01*
X483457Y180328D01*
X482788Y181579D01*
X481888Y182675D01*
X480792Y183575D01*
X479541Y184244D01*
X478183Y184656D01*
X476772Y184795D01*
X475360Y184656D01*
X474003Y184244D01*
X472752Y183575D01*
X471655Y182675D01*
X470755Y181579D01*
X470533Y181163D01*
X470033Y181289D01*
Y203530D01*
X470199Y203599D01*
X470902Y204137D01*
X471441Y204840D01*
X471780Y205658D01*
X471895Y206535D01*
X471780Y207413D01*
X471441Y208231D01*
X470902Y208933D01*
X470199Y209472D01*
X469382Y209811D01*
X468504Y209927D01*
D02*
G37*
G36*
X472260Y160449D02*
X466323D01*
Y154512D01*
X472260D01*
Y160449D01*
D02*
G37*
G36*
X436508Y156980D02*
X434039D01*
Y154512D01*
X436508D01*
Y156980D01*
D02*
G37*
G36*
X352142Y271709D02*
X337642D01*
Y265220D01*
X352142D01*
Y266187D01*
X419731D01*
Y169877D01*
X419847Y169292D01*
X420178Y168796D01*
X420764Y168210D01*
X421260Y167878D01*
X421846Y167762D01*
X427998D01*
Y160449D01*
X426559D01*
Y154512D01*
X432496D01*
Y160449D01*
X431057D01*
Y168705D01*
X430940Y169291D01*
X430609Y169787D01*
X430437Y169959D01*
X430606Y170430D01*
X430939Y170463D01*
X432297Y170874D01*
X433547Y171543D01*
X434644Y172443D01*
X435544Y173539D01*
X436212Y174790D01*
X436624Y176147D01*
X436763Y177559D01*
X436624Y178971D01*
X436212Y180328D01*
X435544Y181579D01*
X434644Y182675D01*
X433547Y183575D01*
X432297Y184244D01*
X430939Y184656D01*
X429528Y184795D01*
X428116Y184656D01*
X426759Y184244D01*
X425508Y183575D01*
X424411Y182675D01*
X423511Y181579D01*
X423289Y181163D01*
X422789Y181289D01*
Y267131D01*
X422673Y267716D01*
X422341Y268212D01*
X421756Y268798D01*
X421259Y269129D01*
X420674Y269246D01*
X352142D01*
Y271709D01*
D02*
G37*
G36*
X425016Y160449D02*
X419079D01*
Y154512D01*
X425016D01*
Y160449D01*
D02*
G37*
G36*
X389264Y156980D02*
X386795D01*
Y154512D01*
X389264D01*
Y156980D01*
D02*
G37*
G36*
X352142Y261709D02*
X337642D01*
Y255221D01*
X352142D01*
Y256876D01*
X362006D01*
X362120Y256899D01*
X372486D01*
Y169877D01*
X372603Y169292D01*
X372934Y168796D01*
X373520Y168210D01*
X374016Y167878D01*
X374602Y167762D01*
X380754D01*
Y160449D01*
X379315D01*
Y154512D01*
X385252D01*
Y160449D01*
X383813D01*
Y168705D01*
X383696Y169291D01*
X383365Y169787D01*
X383193Y169959D01*
X383362Y170430D01*
X383695Y170463D01*
X385052Y170874D01*
X386303Y171543D01*
X387400Y172443D01*
X388300Y173539D01*
X388968Y174790D01*
X389380Y176147D01*
X389519Y177559D01*
X389380Y178971D01*
X388968Y180328D01*
X388300Y181579D01*
X387400Y182675D01*
X386303Y183575D01*
X385052Y184244D01*
X383695Y184656D01*
X382283Y184795D01*
X380872Y184656D01*
X379515Y184244D01*
X378264Y183575D01*
X377167Y182675D01*
X376267Y181579D01*
X376045Y181163D01*
X375545Y181289D01*
Y257842D01*
X375429Y258428D01*
X375097Y258924D01*
X374511Y259510D01*
X374015Y259841D01*
X373430Y259958D01*
X362029D01*
X361914Y259935D01*
X352142D01*
Y261709D01*
D02*
G37*
G36*
X377772Y160449D02*
X371835D01*
Y154512D01*
X377772D01*
Y160449D01*
D02*
G37*
G36*
X342020Y156980D02*
X339551D01*
Y154512D01*
X342020D01*
Y156980D01*
D02*
G37*
G36*
X330528Y160449D02*
X324591D01*
Y154512D01*
X330528D01*
Y160449D01*
D02*
G37*
G36*
X294776Y156980D02*
X292307D01*
Y154512D01*
X294776D01*
Y156980D01*
D02*
G37*
G36*
X283283Y160449D02*
X277346D01*
Y154512D01*
X283283D01*
Y160449D01*
D02*
G37*
G36*
X247532Y156980D02*
X245063D01*
Y154512D01*
X247532D01*
Y156980D01*
D02*
G37*
G36*
X236039Y160449D02*
X230102D01*
Y154512D01*
X236039D01*
Y160449D01*
D02*
G37*
G36*
X200287Y156980D02*
X197819D01*
Y154512D01*
X200287D01*
Y156980D01*
D02*
G37*
G36*
X188795Y160449D02*
X182858D01*
Y154512D01*
X188795D01*
Y160449D01*
D02*
G37*
G36*
X466535Y152460D02*
X465247Y152290D01*
X464046Y151793D01*
X463014Y151001D01*
X462223Y149970D01*
X461726Y148769D01*
X461556Y147480D01*
X461726Y146192D01*
X462223Y144991D01*
X463014Y143959D01*
X464046Y143168D01*
X465247Y142670D01*
X466535Y142501D01*
X467824Y142670D01*
X469025Y143168D01*
X470056Y143959D01*
X470848Y144991D01*
X471345Y146192D01*
X471515Y147480D01*
X471345Y148769D01*
X470848Y149970D01*
X470056Y151001D01*
X469025Y151793D01*
X467824Y152290D01*
X466535Y152460D01*
D02*
G37*
G36*
X419291D02*
X418003Y152290D01*
X416802Y151793D01*
X415770Y151001D01*
X414979Y149970D01*
X414481Y148769D01*
X414312Y147480D01*
X414481Y146192D01*
X414979Y144991D01*
X415770Y143959D01*
X416802Y143168D01*
X418003Y142670D01*
X419291Y142501D01*
X420580Y142670D01*
X421781Y143168D01*
X422812Y143959D01*
X423604Y144991D01*
X424101Y146192D01*
X424271Y147480D01*
X424101Y148769D01*
X423604Y149970D01*
X422812Y151001D01*
X421781Y151793D01*
X420580Y152290D01*
X419291Y152460D01*
D02*
G37*
G36*
X372047D02*
X370758Y152290D01*
X369557Y151793D01*
X368526Y151001D01*
X367735Y149970D01*
X367237Y148769D01*
X367068Y147480D01*
X367237Y146192D01*
X367735Y144991D01*
X368526Y143959D01*
X369557Y143168D01*
X370758Y142670D01*
X372047Y142501D01*
X373336Y142670D01*
X374537Y143168D01*
X375568Y143959D01*
X376360Y144991D01*
X376857Y146192D01*
X377027Y147480D01*
X376857Y148769D01*
X376360Y149970D01*
X375568Y151001D01*
X374537Y151793D01*
X373336Y152290D01*
X372047Y152460D01*
D02*
G37*
G36*
X324803D02*
X323514Y152290D01*
X322313Y151793D01*
X321282Y151001D01*
X320491Y149970D01*
X319993Y148769D01*
X319824Y147480D01*
X319993Y146192D01*
X320491Y144991D01*
X321282Y143959D01*
X322313Y143168D01*
X323514Y142670D01*
X324803Y142501D01*
X326092Y142670D01*
X327293Y143168D01*
X328324Y143959D01*
X329116Y144991D01*
X329613Y146192D01*
X329783Y147480D01*
X329613Y148769D01*
X329116Y149970D01*
X328324Y151001D01*
X327293Y151793D01*
X326092Y152290D01*
X324803Y152460D01*
D02*
G37*
G36*
X277559D02*
X276270Y152290D01*
X275069Y151793D01*
X274038Y151001D01*
X273247Y149970D01*
X272749Y148769D01*
X272579Y147480D01*
X272749Y146192D01*
X273247Y144991D01*
X274038Y143959D01*
X275069Y143168D01*
X276270Y142670D01*
X277559Y142501D01*
X278848Y142670D01*
X280049Y143168D01*
X281080Y143959D01*
X281872Y144991D01*
X282369Y146192D01*
X282539Y147480D01*
X282369Y148769D01*
X281872Y149970D01*
X281080Y151001D01*
X280049Y151793D01*
X278848Y152290D01*
X277559Y152460D01*
D02*
G37*
G36*
X230315D02*
X229026Y152290D01*
X227825Y151793D01*
X226794Y151001D01*
X226003Y149970D01*
X225505Y148769D01*
X225335Y147480D01*
X225505Y146192D01*
X226003Y144991D01*
X226794Y143959D01*
X227825Y143168D01*
X229026Y142670D01*
X230315Y142501D01*
X231604Y142670D01*
X232805Y143168D01*
X233836Y143959D01*
X234627Y144991D01*
X235125Y146192D01*
X235295Y147480D01*
X235125Y148769D01*
X234627Y149970D01*
X233836Y151001D01*
X232805Y151793D01*
X231604Y152290D01*
X230315Y152460D01*
D02*
G37*
G36*
X183071D02*
X181782Y152290D01*
X180581Y151793D01*
X179550Y151001D01*
X178758Y149970D01*
X178261Y148769D01*
X178091Y147480D01*
X178261Y146192D01*
X178758Y144991D01*
X179550Y143959D01*
X180581Y143168D01*
X181782Y142670D01*
X183071Y142501D01*
X184360Y142670D01*
X185561Y143168D01*
X186592Y143959D01*
X187383Y144991D01*
X187881Y146192D01*
X188050Y147480D01*
X187881Y148769D01*
X187383Y149970D01*
X186592Y151001D01*
X185561Y151793D01*
X184360Y152290D01*
X183071Y152460D01*
D02*
G37*
G36*
X486535Y151928D02*
X485247Y151759D01*
X484046Y151261D01*
X483014Y150470D01*
X482223Y149439D01*
X481726Y148238D01*
X481556Y146949D01*
X481726Y145660D01*
X482223Y144459D01*
X483014Y143428D01*
X484046Y142636D01*
X485247Y142139D01*
X486535Y141969D01*
X487824Y142139D01*
X489025Y142636D01*
X490057Y143428D01*
X490848Y144459D01*
X491345Y145660D01*
X491515Y146949D01*
X491345Y148238D01*
X490848Y149439D01*
X490057Y150470D01*
X489025Y151261D01*
X487824Y151759D01*
X486535Y151928D01*
D02*
G37*
G36*
X439291D02*
X438002Y151759D01*
X436801Y151261D01*
X435770Y150470D01*
X434979Y149439D01*
X434481Y148238D01*
X434312Y146949D01*
X434481Y145660D01*
X434979Y144459D01*
X435770Y143428D01*
X436801Y142636D01*
X438002Y142139D01*
X439291Y141969D01*
X440580Y142139D01*
X441781Y142636D01*
X442812Y143428D01*
X443604Y144459D01*
X444101Y145660D01*
X444271Y146949D01*
X444101Y148238D01*
X443604Y149439D01*
X442812Y150470D01*
X441781Y151261D01*
X440580Y151759D01*
X439291Y151928D01*
D02*
G37*
G36*
X392047D02*
X390758Y151759D01*
X389557Y151261D01*
X388526Y150470D01*
X387735Y149439D01*
X387237Y148238D01*
X387068Y146949D01*
X387237Y145660D01*
X387735Y144459D01*
X388526Y143428D01*
X389557Y142636D01*
X390758Y142139D01*
X392047Y141969D01*
X393336Y142139D01*
X394537Y142636D01*
X395568Y143428D01*
X396360Y144459D01*
X396857Y145660D01*
X397027Y146949D01*
X396857Y148238D01*
X396360Y149439D01*
X395568Y150470D01*
X394537Y151261D01*
X393336Y151759D01*
X392047Y151928D01*
D02*
G37*
G36*
X344803D02*
X343514Y151759D01*
X342313Y151261D01*
X341282Y150470D01*
X340491Y149439D01*
X339993Y148238D01*
X339824Y146949D01*
X339993Y145660D01*
X340491Y144459D01*
X341282Y143428D01*
X342313Y142636D01*
X343514Y142139D01*
X344803Y141969D01*
X346092Y142139D01*
X347293Y142636D01*
X348324Y143428D01*
X349116Y144459D01*
X349613Y145660D01*
X349783Y146949D01*
X349613Y148238D01*
X349116Y149439D01*
X348324Y150470D01*
X347293Y151261D01*
X346092Y151759D01*
X344803Y151928D01*
D02*
G37*
G36*
X297559D02*
X296270Y151759D01*
X295069Y151261D01*
X294038Y150470D01*
X293247Y149439D01*
X292749Y148238D01*
X292579Y146949D01*
X292749Y145660D01*
X293247Y144459D01*
X294038Y143428D01*
X295069Y142636D01*
X296270Y142139D01*
X297559Y141969D01*
X298848Y142139D01*
X300049Y142636D01*
X301080Y143428D01*
X301871Y144459D01*
X302369Y145660D01*
X302539Y146949D01*
X302369Y148238D01*
X301871Y149439D01*
X301080Y150470D01*
X300049Y151261D01*
X298848Y151759D01*
X297559Y151928D01*
D02*
G37*
G36*
X250315D02*
X249026Y151759D01*
X247825Y151261D01*
X246794Y150470D01*
X246003Y149439D01*
X245505Y148238D01*
X245335Y146949D01*
X245505Y145660D01*
X246003Y144459D01*
X246794Y143428D01*
X247825Y142636D01*
X249026Y142139D01*
X250315Y141969D01*
X251604Y142139D01*
X252805Y142636D01*
X253836Y143428D01*
X254627Y144459D01*
X255125Y145660D01*
X255295Y146949D01*
X255125Y148238D01*
X254627Y149439D01*
X253836Y150470D01*
X252805Y151261D01*
X251604Y151759D01*
X250315Y151928D01*
D02*
G37*
G36*
X203071D02*
X201782Y151759D01*
X200581Y151261D01*
X199550Y150470D01*
X198758Y149439D01*
X198261Y148238D01*
X198091Y146949D01*
X198261Y145660D01*
X198758Y144459D01*
X199550Y143428D01*
X200581Y142636D01*
X201782Y142139D01*
X203071Y141969D01*
X204360Y142139D01*
X205561Y142636D01*
X206592Y143428D01*
X207383Y144459D01*
X207881Y145660D01*
X208050Y146949D01*
X207881Y148238D01*
X207383Y149439D01*
X206592Y150470D01*
X205561Y151261D01*
X204360Y151759D01*
X203071Y151928D01*
D02*
G37*
G36*
X487220Y160449D02*
X484752D01*
Y157480D01*
Y154512D01*
X487220D01*
Y155951D01*
X494534D01*
Y139325D01*
X454285D01*
Y157480D01*
X454169Y158066D01*
X453837Y158562D01*
X453341Y158893D01*
X452756Y159010D01*
X439976D01*
Y160449D01*
X437508D01*
Y157480D01*
Y154512D01*
X439976D01*
Y155951D01*
X451227D01*
Y139325D01*
X407041D01*
Y157480D01*
X406925Y158066D01*
X406593Y158562D01*
X406097Y158893D01*
X405512Y159010D01*
X392732D01*
Y160449D01*
X390264D01*
Y157480D01*
Y154512D01*
X392732D01*
Y155951D01*
X403982D01*
Y139325D01*
X359797D01*
Y157480D01*
X359681Y158066D01*
X359349Y158562D01*
X358853Y158893D01*
X358268Y159010D01*
X345488D01*
Y160449D01*
X343020D01*
Y157480D01*
Y154512D01*
X345488D01*
Y155951D01*
X356738D01*
Y139325D01*
X312553D01*
Y157480D01*
X312437Y158066D01*
X312105Y158562D01*
X311609Y158893D01*
X311024Y159010D01*
X298244D01*
Y160449D01*
X295776D01*
Y157480D01*
Y154512D01*
X298244D01*
Y155951D01*
X309494D01*
Y139325D01*
X265309D01*
Y157480D01*
X265193Y158066D01*
X264861Y158562D01*
X264365Y158893D01*
X263779Y159010D01*
X251000D01*
Y160449D01*
X248532D01*
Y157480D01*
Y154512D01*
X251000D01*
Y155951D01*
X262250D01*
Y139325D01*
X218065D01*
Y157480D01*
X217948Y158066D01*
X217617Y158562D01*
X217121Y158893D01*
X216535Y159010D01*
X203756D01*
Y160449D01*
X201287D01*
Y157480D01*
Y154512D01*
X203756D01*
Y155951D01*
X215006D01*
Y139325D01*
X160635D01*
X160538Y139560D01*
X159976Y140292D01*
X159245Y140852D01*
X158394Y141205D01*
X157980Y141260D01*
Y137795D01*
Y134331D01*
X158394Y134385D01*
X159245Y134738D01*
X159976Y135299D01*
X160538Y136030D01*
X160635Y136266D01*
X495477D01*
X496063Y136382D01*
X496559Y136714D01*
X497144Y137300D01*
X497476Y137796D01*
X497592Y138381D01*
Y157480D01*
X497476Y158066D01*
X497144Y158562D01*
X496648Y158893D01*
X496063Y159010D01*
X487220D01*
Y160449D01*
D02*
G37*
G36*
X531996Y143696D02*
Y138295D01*
X537397D01*
X537332Y138956D01*
X536993Y140072D01*
X536443Y141101D01*
X535703Y142002D01*
X534802Y142743D01*
X533773Y143292D01*
X532657Y143631D01*
X531996Y143696D01*
D02*
G37*
G36*
X530996D02*
X530335Y143631D01*
X529219Y143292D01*
X528191Y142743D01*
X527289Y142002D01*
X526549Y141101D01*
X525999Y140072D01*
X525661Y138956D01*
X525595Y138295D01*
X530996D01*
Y143696D01*
D02*
G37*
G36*
X156980Y141260D02*
X156567Y141205D01*
X155715Y140852D01*
X154984Y140292D01*
X154423Y139560D01*
X154070Y138709D01*
X154016Y138295D01*
X156980D01*
Y141260D01*
D02*
G37*
G36*
X138295Y143696D02*
Y138295D01*
X143696D01*
X143631Y138956D01*
X143292Y140072D01*
X142743Y141101D01*
X142002Y142002D01*
X141101Y142743D01*
X140072Y143292D01*
X138956Y143631D01*
X138295Y143696D01*
D02*
G37*
G36*
X137295D02*
X136635Y143631D01*
X135518Y143292D01*
X134490Y142743D01*
X133588Y142002D01*
X132848Y141101D01*
X132298Y140072D01*
X131960Y138956D01*
X131895Y138295D01*
X137295D01*
Y143696D01*
D02*
G37*
G36*
X156980Y137295D02*
X154016D01*
X154070Y136882D01*
X154423Y136030D01*
X154984Y135299D01*
X155715Y134738D01*
X156567Y134385D01*
X156980Y134331D01*
Y137295D01*
D02*
G37*
G36*
X537397D02*
X531996D01*
Y131895D01*
X532657Y131960D01*
X533773Y132298D01*
X534802Y132848D01*
X535703Y133588D01*
X536443Y134490D01*
X536993Y135518D01*
X537332Y136635D01*
X537397Y137295D01*
D02*
G37*
G36*
X530996D02*
X525595D01*
X525661Y136635D01*
X525999Y135518D01*
X526549Y134490D01*
X527289Y133588D01*
X528191Y132848D01*
X529219Y132298D01*
X530335Y131960D01*
X530996Y131895D01*
Y137295D01*
D02*
G37*
G36*
X143696D02*
X138295D01*
Y131895D01*
X138956Y131960D01*
X140072Y132298D01*
X141101Y132848D01*
X142002Y133588D01*
X142743Y134490D01*
X143292Y135518D01*
X143631Y136635D01*
X143696Y137295D01*
D02*
G37*
G36*
X137295D02*
X131895D01*
X131960Y136635D01*
X132298Y135518D01*
X132848Y134490D01*
X133588Y133588D01*
X134490Y132848D01*
X135518Y132298D01*
X136635Y131960D01*
X137295Y131895D01*
Y137295D01*
D02*
G37*
%LPD*%
D12*
X468284Y287987D02*
Y353524D01*
X469090Y354331D01*
X475398D01*
X204724Y178885D02*
Y287402D01*
X204661Y175508D02*
Y178822D01*
X204724Y169940D02*
Y175445D01*
X204661Y178822D02*
X204724Y178885D01*
X204661Y175508D02*
X204724Y175445D01*
X193307Y168705D02*
X193956Y169354D01*
X204139D02*
X204724Y169940D01*
X193956Y169354D02*
X204139D01*
X251969Y178885D02*
Y275590D01*
X251905Y175508D02*
Y178822D01*
Y175508D02*
X251969Y175445D01*
Y169483D02*
Y175445D01*
X251905Y178822D02*
X251969Y178885D01*
X251383Y168898D02*
X251969Y169483D01*
X240551Y168898D02*
X251383D01*
X299150Y175508D02*
Y178822D01*
Y175508D02*
X299213Y175445D01*
Y169877D02*
Y175445D01*
Y178885D02*
Y267717D01*
X299150Y178822D02*
X299213Y178885D01*
X297556Y169354D02*
X298690D01*
X297493Y169291D02*
X297556Y169354D01*
X288381Y169291D02*
X297493D01*
X298690Y169354D02*
X299213Y169877D01*
X216535Y137795D02*
X263779D01*
X157480D02*
X216535D01*
Y157480D01*
X263779Y137795D02*
X311024D01*
X263779D02*
Y157480D01*
X311024Y137795D02*
X358268D01*
X311024D02*
Y157480D01*
X358268Y137795D02*
X405512D01*
X358268D02*
Y157480D01*
X405512Y137795D02*
X452756D01*
X405512D02*
Y157480D01*
X452756Y137795D02*
X495477D01*
X452756D02*
Y157480D01*
X484252D02*
X496063D01*
X495477Y137795D02*
X496063Y138381D01*
Y157480D01*
X149606Y385827D02*
X240158D01*
X150192Y366142D02*
X185039D01*
X149606Y366727D02*
Y385827D01*
Y366727D02*
X150192Y366142D01*
X240158Y370665D02*
Y385827D01*
X468504Y216535D02*
Y277879D01*
Y169877D02*
Y206535D01*
X469090Y169291D02*
X475792D01*
X468504Y169877D02*
X469090Y169291D01*
X476378Y157874D02*
Y168705D01*
X475792Y169291D02*
X476378Y168705D01*
Y157874D02*
X476772Y157480D01*
X344892Y278465D02*
X467918D01*
X421260Y169877D02*
Y267131D01*
X467918Y278465D02*
X468504Y277879D01*
X345632Y267717D02*
X420674D01*
X421260Y267131D01*
X344854Y230582D02*
Y248465D01*
X324400Y258405D02*
X332112D01*
X344943Y268406D02*
X345632Y267717D01*
X299902Y268406D02*
X324400D01*
X344945Y288405D02*
X345949Y287402D01*
X467698D01*
X468284Y287987D01*
X205728Y288405D02*
X324400D01*
X228346Y299050D02*
X228932Y298465D01*
X228346Y299050D02*
Y353745D01*
X228932Y298465D02*
X324400D01*
X344892Y298406D02*
X420012Y298406D01*
X346266Y307087D02*
X373210D01*
X344947Y308405D02*
X346266Y307087D01*
X373210D02*
X373795Y307672D01*
Y353524D01*
X276176Y308405D02*
X324400D01*
X344323Y318406D02*
X344854D01*
X342520Y320209D02*
X344323Y318406D01*
X342520Y320209D02*
Y353745D01*
X322835Y320027D02*
Y353745D01*
Y320027D02*
X324362Y318500D01*
X287594Y354331D02*
X322249D01*
X322835Y353745D01*
X344526Y230254D02*
X344854Y230582D01*
X322835Y232283D02*
Y246878D01*
X324362Y248406D01*
X204724Y287402D02*
X205728Y288405D01*
X193307Y157480D02*
Y168705D01*
X254784Y278405D02*
X324362D01*
X251969Y275590D02*
X254784Y278405D01*
X287795Y157480D02*
Y168705D01*
X288381Y169291D01*
X240551Y157480D02*
Y168898D01*
X299213Y267717D02*
X299902Y268406D01*
X332112Y258405D02*
X332135Y258428D01*
X334060D01*
X334646Y257842D01*
Y185846D02*
Y257842D01*
Y185846D02*
X335231Y185260D01*
X341934D01*
X342740Y170098D02*
Y184454D01*
X341934Y185260D02*
X342740Y184454D01*
X335625Y169291D02*
X341934D01*
X342740Y170098D01*
X335039Y168705D02*
X335625Y169291D01*
X335039Y157480D02*
Y168705D01*
X362029Y258428D02*
X373430D01*
X374016Y257842D01*
Y169877D02*
Y257842D01*
X344854Y258405D02*
X362006D01*
X362029Y258428D01*
X374602Y169291D02*
X381698D01*
X374016Y169877D02*
X374602Y169291D01*
X382283Y157480D02*
Y168705D01*
X381698Y169291D02*
X382283Y168705D01*
X421846Y169291D02*
X428942D01*
X421260Y169877D02*
X421846Y169291D01*
X428942D02*
X429528Y168705D01*
Y157480D02*
Y168705D01*
X475984Y354917D02*
Y366142D01*
X475398Y354331D02*
X475984Y354917D01*
X420012Y298406D02*
X421039Y299433D01*
Y353524D01*
X421846Y354331D02*
X428154D01*
X421039Y353524D02*
X421846Y354331D01*
X428740Y354917D02*
Y366142D01*
X428154Y354331D02*
X428740Y354917D01*
X373795Y353524D02*
X374602Y354331D01*
X380910D01*
X381496Y354917D01*
Y366142D01*
X334838Y354331D02*
X341934D01*
X342520Y353745D01*
X334252Y354917D02*
Y366142D01*
Y354917D02*
X334838Y354331D01*
X227761D02*
X228346Y353745D01*
X193105Y354331D02*
X227761D01*
X192520Y354917D02*
X193105Y354331D01*
X192520Y354917D02*
Y366142D01*
X275590Y308991D02*
X276176Y308405D01*
X275590Y308991D02*
Y353745D01*
X275005Y354331D02*
X275590Y353745D01*
X240350Y354331D02*
X275005D01*
X239764Y354917D02*
X240350Y354331D01*
X239764Y354917D02*
Y366142D01*
X287008Y354917D02*
Y366142D01*
Y354917D02*
X287594Y354331D01*
X232283Y366142D02*
Y369493D01*
X374016Y366142D02*
Y371268D01*
X381890Y379142D02*
Y385827D01*
X374016Y371268D02*
X381890Y379142D01*
X232869Y370079D02*
X239572D01*
X232283Y369493D02*
X232869Y370079D01*
X239572D02*
X240158Y370665D01*
X429134Y385827D02*
X476378D01*
X381890D02*
X429134D01*
X428548Y370079D02*
X429134Y370665D01*
Y385827D01*
X421846Y370079D02*
X428548D01*
X421260Y369493D02*
X421846Y370079D01*
X421260Y366142D02*
Y369493D01*
X334646Y385827D02*
X381890D01*
X287402D02*
X334646D01*
X334060Y370079D02*
X334646Y370665D01*
X327357Y370079D02*
X334060D01*
X334646Y370665D02*
Y385827D01*
X326772Y366142D02*
Y369493D01*
X327357Y370079D01*
X240158Y385827D02*
X287402D01*
X280113Y370079D02*
X286816D01*
X287402Y370665D01*
Y385827D01*
X279527Y366142D02*
Y369493D01*
X280113Y370079D01*
X476378Y370665D02*
Y385827D01*
X469090Y370079D02*
X475792D01*
X476378Y370665D01*
X468504Y369493D02*
X469090Y370079D01*
X468504Y366142D02*
Y369493D01*
X200787Y157480D02*
X216535D01*
X248031D02*
X263779D01*
X295276D02*
X311024D01*
X342520D02*
X358268D01*
X389764D02*
X405512D01*
X437008D02*
X452756D01*
D13*
X344892Y248465D02*
D03*
X324400D02*
D03*
X344892Y258465D02*
D03*
X324400D02*
D03*
X344892Y268465D02*
D03*
X324400D02*
D03*
X344892Y278465D02*
D03*
X324400D02*
D03*
X344892Y288465D02*
D03*
X324400D02*
D03*
X344892Y298465D02*
D03*
X324400D02*
D03*
X344892Y308465D02*
D03*
X324400D02*
D03*
X344892Y318465D02*
D03*
X324400D02*
D03*
D22*
X503937Y311024D02*
D03*
X507874Y178976D02*
D03*
X468504Y206535D02*
D03*
X228346Y273780D02*
D03*
D23*
X493937Y311024D02*
D03*
D24*
X507874Y188976D02*
D03*
X468504Y216535D02*
D03*
X228346Y263779D02*
D03*
D25*
X183071Y147480D02*
D03*
X203071Y146949D02*
D03*
X250315D02*
D03*
X230315Y147480D02*
D03*
X277559D02*
D03*
X297559Y146949D02*
D03*
X324803Y147480D02*
D03*
X344803Y146949D02*
D03*
X372047Y147480D02*
D03*
X392047Y146949D02*
D03*
X419291Y147480D02*
D03*
X439291Y146949D02*
D03*
X466535Y147480D02*
D03*
X486535Y146949D02*
D03*
X202756Y376142D02*
D03*
X182756Y376673D02*
D03*
X250000Y376142D02*
D03*
X230000Y376673D02*
D03*
X297244Y376142D02*
D03*
X277244Y376673D02*
D03*
X344488Y376142D02*
D03*
X324488Y376673D02*
D03*
X371732D02*
D03*
X391732Y376142D02*
D03*
X418976Y376673D02*
D03*
X438976Y376142D02*
D03*
X466221Y376673D02*
D03*
X486221Y376142D02*
D03*
D26*
X200787Y157480D02*
D03*
X193307D02*
D03*
X185827D02*
D03*
X233071D02*
D03*
X240551D02*
D03*
X248031D02*
D03*
X295276D02*
D03*
X287795D02*
D03*
X280315D02*
D03*
X342520D02*
D03*
X335039D02*
D03*
X327559D02*
D03*
X389764D02*
D03*
X382283D02*
D03*
X374803D02*
D03*
X437008D02*
D03*
X429528D02*
D03*
X422047D02*
D03*
X484252D02*
D03*
X476772D02*
D03*
X469291D02*
D03*
X185039Y366142D02*
D03*
X192520D02*
D03*
X200000D02*
D03*
X232283D02*
D03*
X239764D02*
D03*
X247244D02*
D03*
X279528D02*
D03*
X287008D02*
D03*
X294488D02*
D03*
X326772D02*
D03*
X334252D02*
D03*
X341732D02*
D03*
X388976D02*
D03*
X381496D02*
D03*
X374016D02*
D03*
X436221D02*
D03*
X428740D02*
D03*
X421260D02*
D03*
X483465D02*
D03*
X475984D02*
D03*
X468504D02*
D03*
D27*
X193307Y177559D02*
D03*
X240551D02*
D03*
X287795D02*
D03*
X335039D02*
D03*
X382283D02*
D03*
X429528D02*
D03*
X476772D02*
D03*
X192520Y346063D02*
D03*
X239764D02*
D03*
X287008D02*
D03*
X334252D02*
D03*
X381496D02*
D03*
X428740D02*
D03*
X475984D02*
D03*
D28*
X137795Y137795D02*
D03*
X531496D02*
D03*
Y374016D02*
D03*
X137795D02*
D03*
D29*
X523622Y354331D02*
D03*
X460630D02*
D03*
X137795Y177165D02*
D03*
X208661D02*
D03*
X204724Y165354D02*
D03*
X255906Y177165D02*
D03*
Y165354D02*
D03*
X303150Y177165D02*
D03*
X299213Y165354D02*
D03*
X346740Y177165D02*
D03*
X346457Y165354D02*
D03*
X393701Y177165D02*
D03*
X389764Y165354D02*
D03*
X440945Y177165D02*
D03*
Y165354D02*
D03*
X138148Y165190D02*
D03*
X157480Y137795D02*
D03*
X310675Y343837D02*
D03*
X263633Y343493D02*
D03*
X216075Y342461D02*
D03*
X366142Y354331D02*
D03*
X413386D02*
D03*
X461318Y366122D02*
D03*
X523622Y366142D02*
D03*
X149606Y385827D02*
D03*
X344526Y230254D02*
D03*
X322835Y232283D02*
D03*
X137795Y263779D02*
D03*
X511811Y295276D02*
D03*
X523622Y311024D02*
D03*
X224410Y366142D02*
D03*
X271654D02*
D03*
X318898D02*
D03*
X366142D02*
D03*
X413386D02*
D03*
M02*
