M48
;Layer_Color=9474304
;FILE_FORMAT=2:4
INCH,TZ
;TYPE=PLATED
T2F00S00C0.0280
T3F00S00C0.0394
T4F00S00C0.0787
T5F00S00C0.0984
T6F00S00C0.1240
%
T02
X15748Y13780
X51181Y29528
X52362Y31102
X44094Y17717
Y16535
X38976
X39370Y17717
X34674
X34646Y16535
X34453Y23025
X32283Y23228
X30315Y17717
X29921Y16535
X25591
Y17717
X20866
X20472Y16535
X13815Y16519
X13780Y17717
Y26378
X14961Y38583
X22441Y36614
X21607Y34246
X26363Y34349
X27165Y36614
X31067Y34384
X31890Y36614
X36614
Y35433
X41339
Y36614
X46132Y36612
X46063Y35433
X52362
Y36614
T03
X50787Y17898
Y18898
X50394Y31102
X49394
X46850Y21654
Y20654
X22835Y26378
Y27378
T04
X18307Y14748
X20307Y14695
X23031Y14748
X25031Y14695
X27756Y14748
X29756Y14695
X32480Y14748
X34480Y14695
X37205Y14748
X39205Y14695
X41929Y14748
X43929Y14695
X46654Y14748
X48654Y14695
X29724Y37614
X27724Y37667
X25000Y37614
X23000Y37667
X20276Y37614
X18276Y37667
X32449
X34449Y37614
X37173Y37667
X39173Y37614
X41898Y37667
X43898Y37614
X46622Y37667
X48622Y37614
T05
X13780Y13780
X53150
X13780Y37402
X53150
T06
X47677Y17756
X42953
X38228
X33504
X28780
X24055
X19331
X19252Y34606
X23976
X28701
X33425
X38150
X42874
X47598
M30
