G04*
G04 #@! TF.GenerationSoftware,Altium Limited,Altium Designer,21.1.1 (26)*
G04*
G04 Layer_Color=32896*
%FSLAX25Y25*%
%MOIN*%
G70*
G04*
G04 #@! TF.SameCoordinates,01C9CA7A-74B7-4461-9927-2E12136583BC*
G04*
G04*
G04 #@! TF.FilePolarity,Positive*
G04*
G01*
G75*
%ADD10C,0.00787*%
%ADD12C,0.01000*%
%ADD46C,0.02000*%
%ADD47C,0.00984*%
%ADD48C,0.00600*%
D10*
X206090Y349693D02*
X219107D01*
X206090Y358969D02*
X219107D01*
X210630Y363484D02*
X214567D01*
X210630Y368799D02*
X214567D01*
X253334Y349693D02*
X266351D01*
X253334Y358969D02*
X266351D01*
X257874Y363484D02*
X261811D01*
X257874Y368799D02*
X261811D01*
X300578Y349693D02*
X313595D01*
X300578Y358969D02*
X313595D01*
X305118Y363484D02*
X309055D01*
X305118Y368799D02*
X309055D01*
X347822Y349693D02*
X360839D01*
X347822Y358969D02*
X360839D01*
X352362Y363484D02*
X356299D01*
X352362Y368799D02*
X356299D01*
X395066Y349693D02*
X408083D01*
X395066Y358969D02*
X408083D01*
X399606Y363484D02*
X403543D01*
X399606Y368799D02*
X403543D01*
X442311Y349693D02*
X455327D01*
X442311Y358969D02*
X455327D01*
X446850Y363484D02*
X450787D01*
X446850Y368799D02*
X450787D01*
X493492Y349693D02*
X506508D01*
X493492Y358969D02*
X506508D01*
X508504Y306024D02*
Y316024D01*
X489213D02*
X508504D01*
X489213Y306024D02*
Y316024D01*
Y306024D02*
X501437D01*
X496437D02*
X508504D01*
X454724Y168012D02*
X458661D01*
X454724Y162697D02*
X458661D01*
X450185Y172527D02*
X463201D01*
X450185Y181804D02*
X463201D01*
X403543Y168012D02*
X407480D01*
X403543Y162697D02*
X407480D01*
X399004Y172527D02*
X412020D01*
X399004Y181804D02*
X412020D01*
X360236Y168012D02*
X364173D01*
X360236Y162697D02*
X364173D01*
X355697Y172527D02*
X368713D01*
X355697Y181804D02*
X368713D01*
X312992Y168012D02*
X316929D01*
X312992Y162697D02*
X316929D01*
X308452Y172527D02*
X321469D01*
X308452Y181804D02*
X321469D01*
X265748Y168012D02*
X269685D01*
X265748Y162697D02*
X269685D01*
X261208Y172527D02*
X274225D01*
X261208Y181804D02*
X274225D01*
X218504Y168012D02*
X222441D01*
X218504Y162697D02*
X222441D01*
X213964Y172527D02*
X226981D01*
X213964Y181804D02*
X226981D01*
X167323Y168012D02*
X171260D01*
X167323Y162697D02*
X171260D01*
X162783Y172527D02*
X175800D01*
X162783Y181804D02*
X175800D01*
X498032Y363484D02*
X501968D01*
X498032Y368799D02*
X501968D01*
X502874Y174409D02*
X512874D01*
Y193701D01*
X502874D02*
X512874D01*
X502874Y181476D02*
Y193701D01*
Y174409D02*
Y186476D01*
X463504Y201969D02*
X473504D01*
Y221260D01*
X463504D02*
X473504D01*
X463504Y209035D02*
Y221260D01*
Y201969D02*
Y214035D01*
X412685Y300578D02*
Y313595D01*
X421961Y300578D02*
Y313595D01*
X451968Y301181D02*
Y312992D01*
X453543Y301181D02*
Y312992D01*
X451968D02*
X453543D01*
X451968Y301181D02*
X453543D01*
X373228D02*
Y312992D01*
X374803Y301181D02*
Y312992D01*
X373228D02*
X374803D01*
X373228Y301181D02*
X374803D01*
X294488D02*
Y312992D01*
X296063Y301181D02*
Y312992D01*
X294488D02*
X296063D01*
X294488Y301181D02*
X296063D01*
X215748D02*
Y312992D01*
X217323Y301181D02*
Y312992D01*
X215748D02*
X217323D01*
X215748Y301181D02*
X217323D01*
X233347Y266280D02*
Y278346D01*
Y259055D02*
Y271280D01*
X223346Y259055D02*
X233347D01*
X223346D02*
Y278346D01*
X233347D01*
D12*
X156482Y269699D02*
X157466Y270683D01*
X159433D01*
X160417Y269699D01*
Y265763D01*
X159433Y264779D01*
X157466D01*
X156482Y265763D01*
Y267731D01*
X158449D01*
X154514Y264779D02*
Y270683D01*
X150578Y264779D01*
Y270683D01*
X148610D02*
Y264779D01*
X145658D01*
X144674Y265763D01*
Y269699D01*
X145658Y270683D01*
X148610D01*
X160417Y255920D02*
X156482D01*
X158449Y257888D02*
Y253952D01*
X154514Y252969D02*
X152546D01*
X153530D01*
Y258872D01*
X154514Y257888D01*
X145658Y252969D02*
X149594D01*
X145658Y256904D01*
Y257888D01*
X146642Y258872D01*
X148610D01*
X149594Y257888D01*
X143691Y258872D02*
Y254936D01*
X141723Y252969D01*
X139755Y254936D01*
Y258872D01*
X479747Y232345D02*
X481746D01*
X482746Y231346D01*
Y227347D01*
X481746Y226347D01*
X479747D01*
X478748Y227347D01*
Y231346D01*
X479747Y232345D01*
X476748Y230346D02*
Y227347D01*
X475748Y226347D01*
X472749D01*
Y230346D01*
X469750Y231346D02*
Y230346D01*
X470750D01*
X468751D01*
X469750D01*
Y227347D01*
X468751Y226347D01*
X465752Y224348D02*
Y230346D01*
X462753D01*
X461753Y229346D01*
Y227347D01*
X462753Y226347D01*
X465752D01*
X459754Y230346D02*
Y227347D01*
X458754Y226347D01*
X455755D01*
Y230346D01*
X452756Y231346D02*
Y230346D01*
X453756D01*
X451756D01*
X452756D01*
Y227347D01*
X451756Y226347D01*
X448757Y225347D02*
X444759D01*
X442759Y232345D02*
X438760D01*
X440760D01*
Y226347D01*
X433762D02*
X435761D01*
X436761Y227347D01*
Y229346D01*
X435761Y230346D01*
X433762D01*
X432762Y229346D01*
Y228346D01*
X436761D01*
X430763Y226347D02*
X427764D01*
X426764Y227347D01*
X427764Y228346D01*
X429763D01*
X430763Y229346D01*
X429763Y230346D01*
X426764D01*
X423765Y231346D02*
Y230346D01*
X424765D01*
X422766D01*
X423765D01*
Y227347D01*
X422766Y226347D01*
X534865Y208723D02*
X532866D01*
X533866D01*
Y202725D01*
X534865D01*
X532866D01*
X529867D02*
Y206724D01*
X526868D01*
X525868Y205724D01*
Y202725D01*
X523869Y200726D02*
Y206724D01*
X520870D01*
X519870Y205724D01*
Y203725D01*
X520870Y202725D01*
X523869D01*
X517871Y206724D02*
Y203725D01*
X516871Y202725D01*
X513872D01*
Y206724D01*
X510873Y207723D02*
Y206724D01*
X511873D01*
X509873D01*
X510873D01*
Y203725D01*
X509873Y202725D01*
X506874Y201725D02*
X502876D01*
X500876Y208723D02*
X496878D01*
X498877D01*
Y202725D01*
X491879D02*
X493879D01*
X494878Y203725D01*
Y205724D01*
X493879Y206724D01*
X491879D01*
X490879Y205724D01*
Y204724D01*
X494878D01*
X488880Y202725D02*
X485881D01*
X484881Y203725D01*
X485881Y204724D01*
X487881D01*
X488880Y205724D01*
X487881Y206724D01*
X484881D01*
X481882Y207723D02*
Y206724D01*
X482882D01*
X480883D01*
X481882D01*
Y203725D01*
X480883Y202725D01*
X522493Y330271D02*
X526491D01*
Y327272D01*
X524492D01*
X526491D01*
Y324272D01*
X520493D02*
X518494D01*
X519494D01*
Y328271D01*
X520493D01*
X515495Y324272D02*
X513496D01*
X514495D01*
Y330271D01*
X515495D01*
X509497Y329271D02*
Y328271D01*
X510497D01*
X508497D01*
X509497D01*
Y325272D01*
X508497Y324272D01*
X502499D02*
X504498D01*
X505498Y325272D01*
Y327272D01*
X504498Y328271D01*
X502499D01*
X501500Y327272D01*
Y326272D01*
X505498D01*
X499500Y328271D02*
Y324272D01*
Y326272D01*
X498500Y327272D01*
X497501Y328271D01*
X496501D01*
X493502Y323273D02*
X489503D01*
X484505Y330271D02*
X486504D01*
X487504Y329271D01*
Y325272D01*
X486504Y324272D01*
X484505D01*
X483505Y325272D01*
Y329271D01*
X484505Y330271D01*
X481506Y328271D02*
Y325272D01*
X480506Y324272D01*
X477507D01*
Y328271D01*
X474508Y329271D02*
Y328271D01*
X475508D01*
X473509D01*
X474508D01*
Y325272D01*
X473509Y324272D01*
X184348Y185977D02*
X182349D01*
X183349D01*
Y191975D01*
X184348Y190976D01*
X179350D02*
X178350Y191975D01*
X176351D01*
X175351Y190976D01*
Y186977D01*
X176351Y185977D01*
X178350D01*
X179350Y186977D01*
Y190976D01*
X173352D02*
X172352Y191975D01*
X170353D01*
X169353Y190976D01*
Y186977D01*
X170353Y185977D01*
X172352D01*
X173352Y186977D01*
Y190976D01*
X167354Y185977D02*
Y189976D01*
X164355D01*
X163355Y188976D01*
Y185977D01*
X157357Y191975D02*
X161356D01*
Y188976D01*
X159356D01*
X161356D01*
Y185977D01*
X155358D02*
X153358D01*
X154358D01*
Y191975D01*
X155358Y190976D01*
X147360Y185977D02*
Y191975D01*
X150359Y188976D01*
X146361D01*
X523369Y339521D02*
X521370D01*
X522369D01*
Y345519D01*
X523369Y344519D01*
X518371D02*
X517371Y345519D01*
X515372D01*
X514372Y344519D01*
Y340520D01*
X515372Y339521D01*
X517371D01*
X518371Y340520D01*
Y344519D01*
X512373D02*
X511373Y345519D01*
X509374D01*
X508374Y344519D01*
Y340520D01*
X509374Y339521D01*
X511373D01*
X512373Y340520D01*
Y344519D01*
X506375Y339521D02*
Y343519D01*
X503375D01*
X502376Y342520D01*
Y339521D01*
X496378Y345519D02*
X500376D01*
Y342520D01*
X498377D01*
X500376D01*
Y339521D01*
X494378D02*
X492379D01*
X493379D01*
Y345519D01*
X494378Y344519D01*
X176789Y150544D02*
Y156542D01*
X173790D01*
X172790Y155543D01*
Y153543D01*
X173790Y152544D01*
X176789D01*
X174790D02*
X172790Y150544D01*
X170791D02*
X168791D01*
X169791D01*
Y156542D01*
X170791Y155543D01*
X162793Y150544D02*
Y156542D01*
X165793Y153543D01*
X161794D01*
X501400Y373000D02*
Y378998D01*
X498401D01*
X497401Y377998D01*
Y375999D01*
X498401Y374999D01*
X501400D01*
X499401D02*
X497401Y373000D01*
X495402D02*
X493403D01*
X494402D01*
Y378998D01*
X495402Y377998D01*
X273776Y312961D02*
X277775D01*
X273776Y316960D01*
Y317960D01*
X274776Y318959D01*
X276775D01*
X277775Y317960D01*
X267778Y312961D02*
X271777D01*
X267778Y316960D01*
Y317960D01*
X268778Y318959D01*
X270777D01*
X271777Y317960D01*
X265779D02*
X264779Y318959D01*
X262780D01*
X261780Y317960D01*
Y313961D01*
X262780Y312961D01*
X264779D01*
X265779Y313961D01*
Y317960D01*
X259781Y310962D02*
Y316960D01*
X256782D01*
X255782Y315960D01*
Y313961D01*
X256782Y312961D01*
X259781D01*
X249784Y318959D02*
X253783D01*
Y315960D01*
X251783D01*
X253783D01*
Y312961D01*
X491250Y284402D02*
X495248D01*
X491250Y288401D01*
Y289401D01*
X492249Y290401D01*
X494249D01*
X495248Y289401D01*
X485252Y284402D02*
X489250D01*
X485252Y288401D01*
Y289401D01*
X486251Y290401D01*
X488251D01*
X489250Y289401D01*
X483252Y288401D02*
Y285402D01*
X482253Y284402D01*
X479254D01*
Y288401D01*
X473255Y290401D02*
X477254D01*
Y287402D01*
X475255D01*
X477254D01*
Y284402D01*
X341643Y315899D02*
X345642D01*
X341643Y319897D01*
Y320897D01*
X342643Y321897D01*
X344642D01*
X345642Y320897D01*
X335645Y315899D02*
X339644D01*
X335645Y319897D01*
Y320897D01*
X336645Y321897D01*
X338644D01*
X339644Y320897D01*
X333646Y315899D02*
Y319897D01*
X330647D01*
X329647Y318898D01*
Y315899D01*
X323649Y321897D02*
X327648D01*
Y318898D01*
X325649D01*
X327648D01*
Y315899D01*
X418946Y315899D02*
X422944D01*
X418946Y319897D01*
Y320897D01*
X419945Y321897D01*
X421945D01*
X422944Y320897D01*
X416946Y315899D02*
Y316898D01*
X415947D01*
Y315899D01*
X416946D01*
X407949D02*
X411948D01*
X407949Y319897D01*
Y320897D01*
X408949Y321897D01*
X410948D01*
X411948Y320897D01*
X405950Y319897D02*
Y316898D01*
X404950Y315899D01*
X401951D01*
Y319897D01*
X395953Y321897D02*
X399952D01*
Y318898D01*
X397953D01*
X399952D01*
Y315899D01*
D46*
X206224Y255906D02*
X205873Y256870D01*
X204985Y257383D01*
X203974Y257205D01*
X203315Y256418D01*
Y255393D01*
X203974Y254607D01*
X204985Y254428D01*
X205873Y254941D01*
X206224Y255906D01*
D47*
X448917Y299606D02*
X448179Y300032D01*
Y299180D01*
X448917Y299606D01*
X370177D02*
X369439Y300032D01*
Y299180D01*
X370177Y299606D01*
X291437D02*
X290699Y300032D01*
Y299180D01*
X291437Y299606D01*
X212697D02*
X211959Y300032D01*
Y299180D01*
X212697Y299606D01*
D48*
X190815Y243143D02*
Y244355D01*
X163515Y276542D02*
X190815D01*
X163515Y243143D02*
Y276542D01*
Y243143D02*
X190815D01*
Y275330D02*
Y276542D01*
Y258681D02*
Y261004D01*
M02*
