G04*
G04 #@! TF.GenerationSoftware,Altium Limited,Altium Designer,21.1.1 (26)*
G04*
G04 Layer_Physical_Order=3*
G04 Layer_Color=16440176*
%FSLAX25Y25*%
%MOIN*%
G70*
G04*
G04 #@! TF.SameCoordinates,01C9CA7A-74B7-4461-9927-2E12136583BC*
G04*
G04*
G04 #@! TF.FilePolarity,Positive*
G04*
G01*
G75*
%ADD26R,0.03937X0.03937*%
%ADD28C,0.09843*%
%ADD29C,0.05000*%
G36*
X547244Y118110D02*
X118110D01*
Y393701D01*
X547244D01*
Y118110D01*
D02*
G37*
%LPC*%
G36*
X150106Y389291D02*
Y386327D01*
X153071D01*
X153016Y386740D01*
X152664Y387592D01*
X152102Y388323D01*
X151371Y388884D01*
X150520Y389237D01*
X150106Y389291D01*
D02*
G37*
G36*
X149106D02*
X148693Y389237D01*
X147841Y388884D01*
X147110Y388323D01*
X146549Y387592D01*
X146196Y386740D01*
X146142Y386327D01*
X149106D01*
Y389291D01*
D02*
G37*
G36*
X153071Y385327D02*
X150106D01*
Y382362D01*
X150520Y382417D01*
X151371Y382769D01*
X152102Y383330D01*
X152664Y384062D01*
X153016Y384913D01*
X153071Y385327D01*
D02*
G37*
G36*
X149106D02*
X146142D01*
X146196Y384913D01*
X146549Y384062D01*
X147110Y383330D01*
X147841Y382769D01*
X148693Y382417D01*
X149106Y382362D01*
Y385327D01*
D02*
G37*
G36*
X531996Y379916D02*
Y374516D01*
X537397D01*
X537332Y375177D01*
X536993Y376293D01*
X536443Y377321D01*
X535703Y378223D01*
X534802Y378963D01*
X533773Y379513D01*
X532657Y379851D01*
X531996Y379916D01*
D02*
G37*
G36*
X530996D02*
X530335Y379851D01*
X529219Y379513D01*
X528191Y378963D01*
X527289Y378223D01*
X526549Y377321D01*
X525999Y376293D01*
X525661Y375177D01*
X525595Y374516D01*
X530996D01*
Y379916D01*
D02*
G37*
G36*
X138295D02*
Y374516D01*
X143696D01*
X143631Y375177D01*
X143292Y376293D01*
X142743Y377321D01*
X142002Y378223D01*
X141101Y378963D01*
X140072Y379513D01*
X138956Y379851D01*
X138295Y379916D01*
D02*
G37*
G36*
X137295D02*
X136635Y379851D01*
X135518Y379513D01*
X134490Y378963D01*
X133588Y378223D01*
X132848Y377321D01*
X132298Y376293D01*
X131960Y375177D01*
X131895Y374516D01*
X137295D01*
Y379916D01*
D02*
G37*
G36*
X466221Y381653D02*
X464932Y381483D01*
X463731Y380986D01*
X462699Y380194D01*
X461908Y379163D01*
X461411Y377962D01*
X461241Y376673D01*
X461411Y375384D01*
X461908Y374183D01*
X462699Y373152D01*
X463731Y372361D01*
X464932Y371863D01*
X466221Y371694D01*
X467509Y371863D01*
X468710Y372361D01*
X469742Y373152D01*
X470533Y374183D01*
X471030Y375384D01*
X471200Y376673D01*
X471030Y377962D01*
X470533Y379163D01*
X469742Y380194D01*
X468710Y380986D01*
X467509Y381483D01*
X466221Y381653D01*
D02*
G37*
G36*
X418976D02*
X417688Y381483D01*
X416487Y380986D01*
X415455Y380194D01*
X414664Y379163D01*
X414166Y377962D01*
X413997Y376673D01*
X414166Y375384D01*
X414664Y374183D01*
X415455Y373152D01*
X416487Y372361D01*
X417688Y371863D01*
X418976Y371694D01*
X420265Y371863D01*
X421466Y372361D01*
X422498Y373152D01*
X423289Y374183D01*
X423786Y375384D01*
X423956Y376673D01*
X423786Y377962D01*
X423289Y379163D01*
X422498Y380194D01*
X421466Y380986D01*
X420265Y381483D01*
X418976Y381653D01*
D02*
G37*
G36*
X371732D02*
X370444Y381483D01*
X369243Y380986D01*
X368211Y380194D01*
X367420Y379163D01*
X366922Y377962D01*
X366753Y376673D01*
X366922Y375384D01*
X367420Y374183D01*
X368211Y373152D01*
X369243Y372361D01*
X370444Y371863D01*
X371732Y371694D01*
X373021Y371863D01*
X374222Y372361D01*
X375253Y373152D01*
X376045Y374183D01*
X376542Y375384D01*
X376712Y376673D01*
X376542Y377962D01*
X376045Y379163D01*
X375253Y380194D01*
X374222Y380986D01*
X373021Y381483D01*
X371732Y381653D01*
D02*
G37*
G36*
X324488D02*
X323199Y381483D01*
X321998Y380986D01*
X320967Y380194D01*
X320176Y379163D01*
X319678Y377962D01*
X319509Y376673D01*
X319678Y375384D01*
X320176Y374183D01*
X320967Y373152D01*
X321998Y372361D01*
X323199Y371863D01*
X324488Y371694D01*
X325777Y371863D01*
X326978Y372361D01*
X328009Y373152D01*
X328801Y374183D01*
X329298Y375384D01*
X329468Y376673D01*
X329298Y377962D01*
X328801Y379163D01*
X328009Y380194D01*
X326978Y380986D01*
X325777Y381483D01*
X324488Y381653D01*
D02*
G37*
G36*
X277244D02*
X275955Y381483D01*
X274754Y380986D01*
X273723Y380194D01*
X272932Y379163D01*
X272434Y377962D01*
X272265Y376673D01*
X272434Y375384D01*
X272932Y374183D01*
X273723Y373152D01*
X274754Y372361D01*
X275955Y371863D01*
X277244Y371694D01*
X278533Y371863D01*
X279734Y372361D01*
X280765Y373152D01*
X281557Y374183D01*
X282054Y375384D01*
X282224Y376673D01*
X282054Y377962D01*
X281557Y379163D01*
X280765Y380194D01*
X279734Y380986D01*
X278533Y381483D01*
X277244Y381653D01*
D02*
G37*
G36*
X230000D02*
X228711Y381483D01*
X227510Y380986D01*
X226479Y380194D01*
X225688Y379163D01*
X225190Y377962D01*
X225020Y376673D01*
X225190Y375384D01*
X225688Y374183D01*
X226479Y373152D01*
X227510Y372361D01*
X228711Y371863D01*
X230000Y371694D01*
X231289Y371863D01*
X232490Y372361D01*
X233521Y373152D01*
X234313Y374183D01*
X234810Y375384D01*
X234980Y376673D01*
X234810Y377962D01*
X234313Y379163D01*
X233521Y380194D01*
X232490Y380986D01*
X231289Y381483D01*
X230000Y381653D01*
D02*
G37*
G36*
X182756D02*
X181467Y381483D01*
X180266Y380986D01*
X179235Y380194D01*
X178443Y379163D01*
X177946Y377962D01*
X177776Y376673D01*
X177946Y375384D01*
X178443Y374183D01*
X179235Y373152D01*
X180266Y372361D01*
X181467Y371863D01*
X182756Y371694D01*
X184045Y371863D01*
X185246Y372361D01*
X186277Y373152D01*
X187068Y374183D01*
X187566Y375384D01*
X187735Y376673D01*
X187566Y377962D01*
X187068Y379163D01*
X186277Y380194D01*
X185246Y380986D01*
X184045Y381483D01*
X182756Y381653D01*
D02*
G37*
G36*
X486221Y381121D02*
X484932Y380952D01*
X483731Y380454D01*
X482699Y379663D01*
X481908Y378631D01*
X481411Y377431D01*
X481241Y376142D01*
X481411Y374853D01*
X481908Y373652D01*
X482699Y372621D01*
X483731Y371829D01*
X484932Y371332D01*
X486221Y371162D01*
X487509Y371332D01*
X488710Y371829D01*
X489742Y372621D01*
X490533Y373652D01*
X491030Y374853D01*
X491200Y376142D01*
X491030Y377431D01*
X490533Y378631D01*
X489742Y379663D01*
X488710Y380454D01*
X487509Y380952D01*
X486221Y381121D01*
D02*
G37*
G36*
X438976D02*
X437688Y380952D01*
X436487Y380454D01*
X435455Y379663D01*
X434664Y378631D01*
X434166Y377431D01*
X433997Y376142D01*
X434166Y374853D01*
X434664Y373652D01*
X435455Y372621D01*
X436487Y371829D01*
X437688Y371332D01*
X438976Y371162D01*
X440265Y371332D01*
X441466Y371829D01*
X442497Y372621D01*
X443289Y373652D01*
X443786Y374853D01*
X443956Y376142D01*
X443786Y377431D01*
X443289Y378631D01*
X442497Y379663D01*
X441466Y380454D01*
X440265Y380952D01*
X438976Y381121D01*
D02*
G37*
G36*
X391732D02*
X390443Y380952D01*
X389243Y380454D01*
X388211Y379663D01*
X387420Y378631D01*
X386922Y377431D01*
X386753Y376142D01*
X386922Y374853D01*
X387420Y373652D01*
X388211Y372621D01*
X389243Y371829D01*
X390443Y371332D01*
X391732Y371162D01*
X393021Y371332D01*
X394222Y371829D01*
X395253Y372621D01*
X396045Y373652D01*
X396542Y374853D01*
X396712Y376142D01*
X396542Y377431D01*
X396045Y378631D01*
X395253Y379663D01*
X394222Y380454D01*
X393021Y380952D01*
X391732Y381121D01*
D02*
G37*
G36*
X344488D02*
X343199Y380952D01*
X341998Y380454D01*
X340967Y379663D01*
X340176Y378631D01*
X339678Y377431D01*
X339509Y376142D01*
X339678Y374853D01*
X340176Y373652D01*
X340967Y372621D01*
X341998Y371829D01*
X343199Y371332D01*
X344488Y371162D01*
X345777Y371332D01*
X346978Y371829D01*
X348009Y372621D01*
X348801Y373652D01*
X349298Y374853D01*
X349468Y376142D01*
X349298Y377431D01*
X348801Y378631D01*
X348009Y379663D01*
X346978Y380454D01*
X345777Y380952D01*
X344488Y381121D01*
D02*
G37*
G36*
X297244D02*
X295955Y380952D01*
X294754Y380454D01*
X293723Y379663D01*
X292932Y378631D01*
X292434Y377431D01*
X292265Y376142D01*
X292434Y374853D01*
X292932Y373652D01*
X293723Y372621D01*
X294754Y371829D01*
X295955Y371332D01*
X297244Y371162D01*
X298533Y371332D01*
X299734Y371829D01*
X300765Y372621D01*
X301557Y373652D01*
X302054Y374853D01*
X302224Y376142D01*
X302054Y377431D01*
X301557Y378631D01*
X300765Y379663D01*
X299734Y380454D01*
X298533Y380952D01*
X297244Y381121D01*
D02*
G37*
G36*
X250000D02*
X248711Y380952D01*
X247510Y380454D01*
X246479Y379663D01*
X245688Y378631D01*
X245190Y377431D01*
X245020Y376142D01*
X245190Y374853D01*
X245688Y373652D01*
X246479Y372621D01*
X247510Y371829D01*
X248711Y371332D01*
X250000Y371162D01*
X251289Y371332D01*
X252490Y371829D01*
X253521Y372621D01*
X254312Y373652D01*
X254810Y374853D01*
X254980Y376142D01*
X254810Y377431D01*
X254312Y378631D01*
X253521Y379663D01*
X252490Y380454D01*
X251289Y380952D01*
X250000Y381121D01*
D02*
G37*
G36*
X202756D02*
X201467Y380952D01*
X200266Y380454D01*
X199235Y379663D01*
X198443Y378631D01*
X197946Y377431D01*
X197776Y376142D01*
X197946Y374853D01*
X198443Y373652D01*
X199235Y372621D01*
X200266Y371829D01*
X201467Y371332D01*
X202756Y371162D01*
X204045Y371332D01*
X205246Y371829D01*
X206277Y372621D01*
X207068Y373652D01*
X207566Y374853D01*
X207735Y376142D01*
X207566Y377431D01*
X207068Y378631D01*
X206277Y379663D01*
X205246Y380454D01*
X204045Y380952D01*
X202756Y381121D01*
D02*
G37*
G36*
X537397Y373516D02*
X531996D01*
Y368115D01*
X532657Y368180D01*
X533773Y368519D01*
X534802Y369069D01*
X535703Y369809D01*
X536443Y370710D01*
X536993Y371739D01*
X537332Y372855D01*
X537397Y373516D01*
D02*
G37*
G36*
X530996D02*
X525595D01*
X525661Y372855D01*
X525999Y371739D01*
X526549Y370710D01*
X527289Y369809D01*
X528191Y369069D01*
X529219Y368519D01*
X530335Y368180D01*
X530996Y368115D01*
Y373516D01*
D02*
G37*
G36*
X143696D02*
X138295D01*
Y368115D01*
X138956Y368180D01*
X140072Y368519D01*
X141101Y369069D01*
X142002Y369809D01*
X142743Y370710D01*
X143292Y371739D01*
X143631Y372855D01*
X143696Y373516D01*
D02*
G37*
G36*
X137295D02*
X131895D01*
X131960Y372855D01*
X132298Y371739D01*
X132848Y370710D01*
X133588Y369809D01*
X134490Y369069D01*
X135518Y368519D01*
X136635Y368180D01*
X137295Y368115D01*
Y373516D01*
D02*
G37*
G36*
X471472Y369110D02*
X469004D01*
Y366642D01*
X471472D01*
Y369110D01*
D02*
G37*
G36*
X468004D02*
X465535D01*
Y366642D01*
X468004D01*
Y369110D01*
D02*
G37*
G36*
X424228D02*
X421760D01*
Y366642D01*
X424228D01*
Y369110D01*
D02*
G37*
G36*
X420760D02*
X418291D01*
Y366642D01*
X420760D01*
Y369110D01*
D02*
G37*
G36*
X376984D02*
X374516D01*
Y366642D01*
X376984D01*
Y369110D01*
D02*
G37*
G36*
X373516D02*
X371047D01*
Y366642D01*
X373516D01*
Y369110D01*
D02*
G37*
G36*
X329740D02*
X327272D01*
Y366642D01*
X329740D01*
Y369110D01*
D02*
G37*
G36*
X326272D02*
X323803D01*
Y366642D01*
X326272D01*
Y369110D01*
D02*
G37*
G36*
X282496D02*
X280028D01*
Y366642D01*
X282496D01*
Y369110D01*
D02*
G37*
G36*
X279028D02*
X276559D01*
Y366642D01*
X279028D01*
Y369110D01*
D02*
G37*
G36*
X235252D02*
X232784D01*
Y366642D01*
X235252D01*
Y369110D01*
D02*
G37*
G36*
X231784D02*
X229315D01*
Y366642D01*
X231784D01*
Y369110D01*
D02*
G37*
G36*
X188008D02*
X185539D01*
Y366642D01*
X188008D01*
Y369110D01*
D02*
G37*
G36*
X184539D02*
X182071D01*
Y366642D01*
X184539D01*
Y369110D01*
D02*
G37*
G36*
X486433D02*
X480496D01*
Y363173D01*
X486433D01*
Y369110D01*
D02*
G37*
G36*
X478953D02*
X473016D01*
Y363173D01*
X478953D01*
Y369110D01*
D02*
G37*
G36*
X471472Y365642D02*
X469004D01*
Y363173D01*
X471472D01*
Y365642D01*
D02*
G37*
G36*
X468004D02*
X465535D01*
Y363173D01*
X468004D01*
Y365642D01*
D02*
G37*
G36*
X439189Y369110D02*
X433252D01*
Y363173D01*
X439189D01*
Y369110D01*
D02*
G37*
G36*
X431709D02*
X425772D01*
Y363173D01*
X431709D01*
Y369110D01*
D02*
G37*
G36*
X424228Y365642D02*
X421760D01*
Y363173D01*
X424228D01*
Y365642D01*
D02*
G37*
G36*
X420760D02*
X418291D01*
Y363173D01*
X420760D01*
Y365642D01*
D02*
G37*
G36*
X391945Y369110D02*
X386008D01*
Y363173D01*
X391945D01*
Y369110D01*
D02*
G37*
G36*
X384465D02*
X378528D01*
Y363173D01*
X384465D01*
Y369110D01*
D02*
G37*
G36*
X376984Y365642D02*
X374516D01*
Y363173D01*
X376984D01*
Y365642D01*
D02*
G37*
G36*
X373516D02*
X371047D01*
Y363173D01*
X373516D01*
Y365642D01*
D02*
G37*
G36*
X344701Y369110D02*
X338764D01*
Y363173D01*
X344701D01*
Y369110D01*
D02*
G37*
G36*
X337221D02*
X331283D01*
Y363173D01*
X337221D01*
Y369110D01*
D02*
G37*
G36*
X329740Y365642D02*
X327272D01*
Y363173D01*
X329740D01*
Y365642D01*
D02*
G37*
G36*
X326272D02*
X323803D01*
Y363173D01*
X326272D01*
Y365642D01*
D02*
G37*
G36*
X297457Y369110D02*
X291520D01*
Y363173D01*
X297457D01*
Y369110D01*
D02*
G37*
G36*
X289976D02*
X284039D01*
Y363173D01*
X289976D01*
Y369110D01*
D02*
G37*
G36*
X282496Y365642D02*
X280028D01*
Y363173D01*
X282496D01*
Y365642D01*
D02*
G37*
G36*
X279028D02*
X276559D01*
Y363173D01*
X279028D01*
Y365642D01*
D02*
G37*
G36*
X250213Y369110D02*
X244276D01*
Y363173D01*
X250213D01*
Y369110D01*
D02*
G37*
G36*
X242732D02*
X236795D01*
Y363173D01*
X242732D01*
Y369110D01*
D02*
G37*
G36*
X235252Y365642D02*
X232784D01*
Y363173D01*
X235252D01*
Y365642D01*
D02*
G37*
G36*
X231784D02*
X229315D01*
Y363173D01*
X231784D01*
Y365642D01*
D02*
G37*
G36*
X202969Y369110D02*
X197031D01*
Y363173D01*
X202969D01*
Y369110D01*
D02*
G37*
G36*
X195488D02*
X189551D01*
Y363173D01*
X195488D01*
Y369110D01*
D02*
G37*
G36*
X188008Y365642D02*
X185539D01*
Y363173D01*
X188008D01*
Y365642D01*
D02*
G37*
G36*
X184539D02*
X182071D01*
Y363173D01*
X184539D01*
Y365642D01*
D02*
G37*
G36*
X523622Y369672D02*
X522708Y369552D01*
X521857Y369199D01*
X521126Y368638D01*
X520565Y367907D01*
X520212Y367055D01*
X520092Y366142D01*
X520212Y365228D01*
X520565Y364377D01*
X521126Y363646D01*
X521857Y363085D01*
X522708Y362732D01*
X523622Y362612D01*
X524536Y362732D01*
X525387Y363085D01*
X526118Y363646D01*
X526679Y364377D01*
X527032Y365228D01*
X527152Y366142D01*
X527032Y367055D01*
X526679Y367907D01*
X526118Y368638D01*
X525387Y369199D01*
X524536Y369552D01*
X523622Y369672D01*
D02*
G37*
G36*
X413386D02*
X412472Y369552D01*
X411621Y369199D01*
X410890Y368638D01*
X410329Y367907D01*
X409976Y367055D01*
X409856Y366142D01*
X409976Y365228D01*
X410329Y364377D01*
X410890Y363646D01*
X411621Y363085D01*
X412472Y362732D01*
X413386Y362612D01*
X414299Y362732D01*
X415151Y363085D01*
X415882Y363646D01*
X416443Y364377D01*
X416796Y365228D01*
X416916Y366142D01*
X416796Y367055D01*
X416443Y367907D01*
X415882Y368638D01*
X415151Y369199D01*
X414299Y369552D01*
X413386Y369672D01*
D02*
G37*
G36*
X366142D02*
X365228Y369552D01*
X364377Y369199D01*
X363646Y368638D01*
X363085Y367907D01*
X362732Y367055D01*
X362612Y366142D01*
X362732Y365228D01*
X363085Y364377D01*
X363646Y363646D01*
X364377Y363085D01*
X365228Y362732D01*
X366142Y362612D01*
X367055Y362732D01*
X367907Y363085D01*
X368638Y363646D01*
X369199Y364377D01*
X369552Y365228D01*
X369672Y366142D01*
X369552Y367055D01*
X369199Y367907D01*
X368638Y368638D01*
X367907Y369199D01*
X367055Y369552D01*
X366142Y369672D01*
D02*
G37*
G36*
X318898D02*
X317984Y369552D01*
X317132Y369199D01*
X316401Y368638D01*
X315840Y367907D01*
X315488Y367055D01*
X315367Y366142D01*
X315488Y365228D01*
X315840Y364377D01*
X316401Y363646D01*
X317132Y363085D01*
X317984Y362732D01*
X318898Y362612D01*
X319811Y362732D01*
X320663Y363085D01*
X321394Y363646D01*
X321955Y364377D01*
X322307Y365228D01*
X322428Y366142D01*
X322307Y367055D01*
X321955Y367907D01*
X321394Y368638D01*
X320663Y369199D01*
X319811Y369552D01*
X318898Y369672D01*
D02*
G37*
G36*
X271654D02*
X270740Y369552D01*
X269888Y369199D01*
X269157Y368638D01*
X268596Y367907D01*
X268244Y367055D01*
X268123Y366142D01*
X268244Y365228D01*
X268596Y364377D01*
X269157Y363646D01*
X269888Y363085D01*
X270740Y362732D01*
X271654Y362612D01*
X272567Y362732D01*
X273419Y363085D01*
X274150Y363646D01*
X274711Y364377D01*
X275063Y365228D01*
X275184Y366142D01*
X275063Y367055D01*
X274711Y367907D01*
X274150Y368638D01*
X273419Y369199D01*
X272567Y369552D01*
X271654Y369672D01*
D02*
G37*
G36*
X224410D02*
X223496Y369552D01*
X222644Y369199D01*
X221913Y368638D01*
X221352Y367907D01*
X221000Y367055D01*
X220879Y366142D01*
X221000Y365228D01*
X221352Y364377D01*
X221913Y363646D01*
X222644Y363085D01*
X223496Y362732D01*
X224410Y362612D01*
X225323Y362732D01*
X226174Y363085D01*
X226906Y363646D01*
X227467Y364377D01*
X227819Y365228D01*
X227940Y366142D01*
X227819Y367055D01*
X227467Y367907D01*
X226906Y368638D01*
X226174Y369199D01*
X225323Y369552D01*
X224410Y369672D01*
D02*
G37*
G36*
X461318Y369653D02*
X460404Y369532D01*
X459553Y369180D01*
X458821Y368619D01*
X458260Y367887D01*
X457908Y367036D01*
X457788Y366122D01*
X457908Y365209D01*
X458260Y364357D01*
X458821Y363626D01*
X459553Y363065D01*
X460404Y362712D01*
X461318Y362592D01*
X462231Y362712D01*
X463083Y363065D01*
X463814Y363626D01*
X464375Y364357D01*
X464728Y365209D01*
X464848Y366122D01*
X464728Y367036D01*
X464375Y367887D01*
X463814Y368619D01*
X463083Y369180D01*
X462231Y369532D01*
X461318Y369653D01*
D02*
G37*
G36*
X524122Y357795D02*
Y354831D01*
X527086D01*
X527032Y355244D01*
X526679Y356096D01*
X526118Y356827D01*
X525387Y357388D01*
X524536Y357741D01*
X524122Y357795D01*
D02*
G37*
G36*
X523122D02*
X522708Y357741D01*
X521857Y357388D01*
X521126Y356827D01*
X520565Y356096D01*
X520212Y355244D01*
X520158Y354831D01*
X523122D01*
Y357795D01*
D02*
G37*
G36*
X461130D02*
Y354831D01*
X464094D01*
X464040Y355244D01*
X463687Y356096D01*
X463126Y356827D01*
X462395Y357388D01*
X461544Y357741D01*
X461130Y357795D01*
D02*
G37*
G36*
X460130D02*
X459716Y357741D01*
X458865Y357388D01*
X458134Y356827D01*
X457573Y356096D01*
X457220Y355244D01*
X457165Y354831D01*
X460130D01*
Y357795D01*
D02*
G37*
G36*
X413886D02*
Y354831D01*
X416850D01*
X416796Y355244D01*
X416443Y356096D01*
X415882Y356827D01*
X415151Y357388D01*
X414299Y357741D01*
X413886Y357795D01*
D02*
G37*
G36*
X412886D02*
X412472Y357741D01*
X411621Y357388D01*
X410890Y356827D01*
X410329Y356096D01*
X409976Y355244D01*
X409922Y354831D01*
X412886D01*
Y357795D01*
D02*
G37*
G36*
X366642D02*
Y354831D01*
X369606D01*
X369552Y355244D01*
X369199Y356096D01*
X368638Y356827D01*
X367907Y357388D01*
X367055Y357741D01*
X366642Y357795D01*
D02*
G37*
G36*
X365642D02*
X365228Y357741D01*
X364377Y357388D01*
X363646Y356827D01*
X363085Y356096D01*
X362732Y355244D01*
X362677Y354831D01*
X365642D01*
Y357795D01*
D02*
G37*
G36*
X527086Y353831D02*
X524122D01*
Y350866D01*
X524536Y350921D01*
X525387Y351273D01*
X526118Y351835D01*
X526679Y352566D01*
X527032Y353417D01*
X527086Y353831D01*
D02*
G37*
G36*
X523122D02*
X520158D01*
X520212Y353417D01*
X520565Y352566D01*
X521126Y351835D01*
X521857Y351273D01*
X522708Y350921D01*
X523122Y350866D01*
Y353831D01*
D02*
G37*
G36*
X464094D02*
X461130D01*
Y350866D01*
X461544Y350921D01*
X462395Y351273D01*
X463126Y351835D01*
X463687Y352566D01*
X464040Y353417D01*
X464094Y353831D01*
D02*
G37*
G36*
X460130D02*
X457165D01*
X457220Y353417D01*
X457573Y352566D01*
X458134Y351835D01*
X458865Y351273D01*
X459716Y350921D01*
X460130Y350866D01*
Y353831D01*
D02*
G37*
G36*
X416850D02*
X413886D01*
Y350866D01*
X414299Y350921D01*
X415151Y351273D01*
X415882Y351835D01*
X416443Y352566D01*
X416796Y353417D01*
X416850Y353831D01*
D02*
G37*
G36*
X412886D02*
X409922D01*
X409976Y353417D01*
X410329Y352566D01*
X410890Y351835D01*
X411621Y351273D01*
X412472Y350921D01*
X412886Y350866D01*
Y353831D01*
D02*
G37*
G36*
X369606D02*
X366642D01*
Y350866D01*
X367055Y350921D01*
X367907Y351273D01*
X368638Y351835D01*
X369199Y352566D01*
X369552Y353417D01*
X369606Y353831D01*
D02*
G37*
G36*
X365642D02*
X362677D01*
X362732Y353417D01*
X363085Y352566D01*
X363646Y351835D01*
X364377Y351273D01*
X365228Y350921D01*
X365642Y350866D01*
Y353831D01*
D02*
G37*
G36*
X311175Y347302D02*
Y344337D01*
X314139D01*
X314085Y344751D01*
X313732Y345602D01*
X313171Y346333D01*
X312440Y346894D01*
X311588Y347247D01*
X311175Y347302D01*
D02*
G37*
G36*
X310175D02*
X309761Y347247D01*
X308910Y346894D01*
X308178Y346333D01*
X307617Y345602D01*
X307265Y344751D01*
X307210Y344337D01*
X310175D01*
Y347302D01*
D02*
G37*
G36*
X264133Y346957D02*
Y343993D01*
X267097D01*
X267043Y344407D01*
X266690Y345258D01*
X266129Y345989D01*
X265398Y346550D01*
X264546Y346903D01*
X264133Y346957D01*
D02*
G37*
G36*
X263133D02*
X262719Y346903D01*
X261868Y346550D01*
X261137Y345989D01*
X260576Y345258D01*
X260223Y344407D01*
X260169Y343993D01*
X263133D01*
Y346957D01*
D02*
G37*
G36*
X216575Y345925D02*
Y342961D01*
X219539D01*
X219485Y343375D01*
X219132Y344226D01*
X218571Y344957D01*
X217840Y345518D01*
X216989Y345871D01*
X216575Y345925D01*
D02*
G37*
G36*
X215575D02*
X215161Y345871D01*
X214310Y345518D01*
X213579Y344957D01*
X213018Y344226D01*
X212665Y343375D01*
X212611Y342961D01*
X215575D01*
Y345925D01*
D02*
G37*
G36*
X314139Y343337D02*
X311175D01*
Y340373D01*
X311588Y340427D01*
X312440Y340780D01*
X313171Y341341D01*
X313732Y342072D01*
X314085Y342923D01*
X314139Y343337D01*
D02*
G37*
G36*
X310175D02*
X307210D01*
X307265Y342923D01*
X307617Y342072D01*
X308178Y341341D01*
X308910Y340780D01*
X309761Y340427D01*
X310175Y340373D01*
Y343337D01*
D02*
G37*
G36*
X267097Y342993D02*
X264133D01*
Y340029D01*
X264546Y340083D01*
X265398Y340436D01*
X266129Y340997D01*
X266690Y341728D01*
X267043Y342579D01*
X267097Y342993D01*
D02*
G37*
G36*
X263133D02*
X260169D01*
X260223Y342579D01*
X260576Y341728D01*
X261137Y340997D01*
X261868Y340436D01*
X262719Y340083D01*
X263133Y340029D01*
Y342993D01*
D02*
G37*
G36*
X219539Y341961D02*
X216575D01*
Y338997D01*
X216989Y339051D01*
X217840Y339404D01*
X218571Y339965D01*
X219132Y340696D01*
X219485Y341547D01*
X219539Y341961D01*
D02*
G37*
G36*
X215575D02*
X212611D01*
X212665Y341547D01*
X213018Y340696D01*
X213579Y339965D01*
X214310Y339404D01*
X215161Y339051D01*
X215575Y338997D01*
Y341961D01*
D02*
G37*
G36*
X475984Y353299D02*
X474573Y353160D01*
X473215Y352748D01*
X471964Y352079D01*
X470868Y351179D01*
X469968Y350083D01*
X469299Y348832D01*
X468888Y347475D01*
X468749Y346063D01*
X468888Y344651D01*
X469299Y343294D01*
X469968Y342043D01*
X470868Y340947D01*
X471964Y340047D01*
X473215Y339378D01*
X474573Y338966D01*
X475984Y338827D01*
X477396Y338966D01*
X478753Y339378D01*
X480004Y340047D01*
X481101Y340947D01*
X482000Y342043D01*
X482669Y343294D01*
X483081Y344651D01*
X483220Y346063D01*
X483081Y347475D01*
X482669Y348832D01*
X482000Y350083D01*
X481101Y351179D01*
X480004Y352079D01*
X478753Y352748D01*
X477396Y353160D01*
X475984Y353299D01*
D02*
G37*
G36*
X428740D02*
X427328Y353160D01*
X425971Y352748D01*
X424720Y352079D01*
X423624Y351179D01*
X422724Y350083D01*
X422055Y348832D01*
X421644Y347475D01*
X421504Y346063D01*
X421644Y344651D01*
X422055Y343294D01*
X422724Y342043D01*
X423624Y340947D01*
X424720Y340047D01*
X425971Y339378D01*
X427328Y338966D01*
X428740Y338827D01*
X430152Y338966D01*
X431509Y339378D01*
X432760Y340047D01*
X433856Y340947D01*
X434756Y342043D01*
X435425Y343294D01*
X435837Y344651D01*
X435976Y346063D01*
X435837Y347475D01*
X435425Y348832D01*
X434756Y350083D01*
X433856Y351179D01*
X432760Y352079D01*
X431509Y352748D01*
X430152Y353160D01*
X428740Y353299D01*
D02*
G37*
G36*
X381496D02*
X380084Y353160D01*
X378727Y352748D01*
X377476Y352079D01*
X376380Y351179D01*
X375480Y350083D01*
X374811Y348832D01*
X374399Y347475D01*
X374260Y346063D01*
X374399Y344651D01*
X374811Y343294D01*
X375480Y342043D01*
X376380Y340947D01*
X377476Y340047D01*
X378727Y339378D01*
X380084Y338966D01*
X381496Y338827D01*
X382908Y338966D01*
X384265Y339378D01*
X385516Y340047D01*
X386612Y340947D01*
X387512Y342043D01*
X388181Y343294D01*
X388593Y344651D01*
X388732Y346063D01*
X388593Y347475D01*
X388181Y348832D01*
X387512Y350083D01*
X386612Y351179D01*
X385516Y352079D01*
X384265Y352748D01*
X382908Y353160D01*
X381496Y353299D01*
D02*
G37*
G36*
X334252D02*
X332840Y353160D01*
X331483Y352748D01*
X330232Y352079D01*
X329136Y351179D01*
X328236Y350083D01*
X327567Y348832D01*
X327155Y347475D01*
X327016Y346063D01*
X327155Y344651D01*
X327567Y343294D01*
X328236Y342043D01*
X329136Y340947D01*
X330232Y340047D01*
X331483Y339378D01*
X332840Y338966D01*
X334252Y338827D01*
X335664Y338966D01*
X337021Y339378D01*
X338272Y340047D01*
X339368Y340947D01*
X340268Y342043D01*
X340937Y343294D01*
X341349Y344651D01*
X341488Y346063D01*
X341349Y347475D01*
X340937Y348832D01*
X340268Y350083D01*
X339368Y351179D01*
X338272Y352079D01*
X337021Y352748D01*
X335664Y353160D01*
X334252Y353299D01*
D02*
G37*
G36*
X287008D02*
X285596Y353160D01*
X284239Y352748D01*
X282988Y352079D01*
X281891Y351179D01*
X280992Y350083D01*
X280323Y348832D01*
X279911Y347475D01*
X279772Y346063D01*
X279911Y344651D01*
X280323Y343294D01*
X280992Y342043D01*
X281891Y340947D01*
X282988Y340047D01*
X284239Y339378D01*
X285596Y338966D01*
X287008Y338827D01*
X288420Y338966D01*
X289777Y339378D01*
X291028Y340047D01*
X292124Y340947D01*
X293024Y342043D01*
X293693Y343294D01*
X294105Y344651D01*
X294244Y346063D01*
X294105Y347475D01*
X293693Y348832D01*
X293024Y350083D01*
X292124Y351179D01*
X291028Y352079D01*
X289777Y352748D01*
X288420Y353160D01*
X287008Y353299D01*
D02*
G37*
G36*
X239764D02*
X238352Y353160D01*
X236995Y352748D01*
X235744Y352079D01*
X234647Y351179D01*
X233748Y350083D01*
X233079Y348832D01*
X232667Y347475D01*
X232528Y346063D01*
X232667Y344651D01*
X233079Y343294D01*
X233748Y342043D01*
X234647Y340947D01*
X235744Y340047D01*
X236995Y339378D01*
X238352Y338966D01*
X239764Y338827D01*
X241175Y338966D01*
X242533Y339378D01*
X243784Y340047D01*
X244880Y340947D01*
X245780Y342043D01*
X246449Y343294D01*
X246860Y344651D01*
X246999Y346063D01*
X246860Y347475D01*
X246449Y348832D01*
X245780Y350083D01*
X244880Y351179D01*
X243784Y352079D01*
X242533Y352748D01*
X241175Y353160D01*
X239764Y353299D01*
D02*
G37*
G36*
X192520D02*
X191108Y353160D01*
X189751Y352748D01*
X188500Y352079D01*
X187403Y351179D01*
X186504Y350083D01*
X185835Y348832D01*
X185423Y347475D01*
X185284Y346063D01*
X185423Y344651D01*
X185835Y343294D01*
X186504Y342043D01*
X187403Y340947D01*
X188500Y340047D01*
X189751Y339378D01*
X191108Y338966D01*
X192520Y338827D01*
X193931Y338966D01*
X195289Y339378D01*
X196540Y340047D01*
X197636Y340947D01*
X198536Y342043D01*
X199205Y343294D01*
X199616Y344651D01*
X199755Y346063D01*
X199616Y347475D01*
X199205Y348832D01*
X198536Y350083D01*
X197636Y351179D01*
X196540Y352079D01*
X195289Y352748D01*
X193931Y353160D01*
X192520Y353299D01*
D02*
G37*
G36*
X497299Y314386D02*
X490575D01*
Y307661D01*
X497299D01*
Y314386D01*
D02*
G37*
G36*
X503937Y314415D02*
X503059Y314299D01*
X502241Y313961D01*
X501539Y313422D01*
X501000Y312719D01*
X500661Y311901D01*
X500546Y311024D01*
X500661Y310146D01*
X501000Y309328D01*
X501539Y308626D01*
X502241Y308087D01*
X503059Y307748D01*
X503937Y307632D01*
X504815Y307748D01*
X505633Y308087D01*
X506335Y308626D01*
X506874Y309328D01*
X507213Y310146D01*
X507328Y311024D01*
X507213Y311901D01*
X506874Y312719D01*
X506335Y313422D01*
X505633Y313961D01*
X504815Y314299D01*
X503937Y314415D01*
D02*
G37*
G36*
X523622Y314554D02*
X522708Y314434D01*
X521857Y314081D01*
X521126Y313520D01*
X520565Y312789D01*
X520212Y311937D01*
X520092Y311024D01*
X520212Y310110D01*
X520565Y309259D01*
X521126Y308527D01*
X521857Y307966D01*
X522708Y307614D01*
X523622Y307493D01*
X524536Y307614D01*
X525387Y307966D01*
X526118Y308527D01*
X526679Y309259D01*
X527032Y310110D01*
X527152Y311024D01*
X527032Y311937D01*
X526679Y312789D01*
X526118Y313520D01*
X525387Y314081D01*
X524536Y314434D01*
X523622Y314554D01*
D02*
G37*
G36*
X512311Y298740D02*
Y295776D01*
X515275D01*
X515221Y296189D01*
X514868Y297041D01*
X514307Y297772D01*
X513576Y298333D01*
X512725Y298686D01*
X512311Y298740D01*
D02*
G37*
G36*
X511311D02*
X510897Y298686D01*
X510046Y298333D01*
X509315Y297772D01*
X508754Y297041D01*
X508401Y296189D01*
X508347Y295776D01*
X511311D01*
Y298740D01*
D02*
G37*
G36*
X515275Y294776D02*
X512311D01*
Y291811D01*
X512725Y291866D01*
X513576Y292218D01*
X514307Y292779D01*
X514868Y293511D01*
X515221Y294362D01*
X515275Y294776D01*
D02*
G37*
G36*
X511311D02*
X508347D01*
X508401Y294362D01*
X508754Y293511D01*
X509315Y292779D01*
X510046Y292218D01*
X510897Y291866D01*
X511311Y291811D01*
Y294776D01*
D02*
G37*
G36*
X228346Y277171D02*
X227469Y277055D01*
X226651Y276716D01*
X225949Y276178D01*
X225410Y275475D01*
X225071Y274657D01*
X224955Y273780D01*
X225071Y272902D01*
X225410Y272084D01*
X225949Y271382D01*
X226651Y270843D01*
X227469Y270504D01*
X228346Y270388D01*
X229224Y270504D01*
X230042Y270843D01*
X230744Y271382D01*
X231283Y272084D01*
X231622Y272902D01*
X231738Y273780D01*
X231622Y274657D01*
X231283Y275475D01*
X230744Y276178D01*
X230042Y276716D01*
X229224Y277055D01*
X228346Y277171D01*
D02*
G37*
G36*
X138295Y267244D02*
Y264280D01*
X141260D01*
X141205Y264693D01*
X140852Y265545D01*
X140292Y266276D01*
X139560Y266837D01*
X138709Y267189D01*
X138295Y267244D01*
D02*
G37*
G36*
X137295D02*
X136882Y267189D01*
X136030Y266837D01*
X135299Y266276D01*
X134738Y265545D01*
X134385Y264693D01*
X134331Y264280D01*
X137295D01*
Y267244D01*
D02*
G37*
G36*
X231709Y267142D02*
X224984D01*
Y260417D01*
X231709D01*
Y267142D01*
D02*
G37*
G36*
X141260Y263280D02*
X138295D01*
Y260315D01*
X138709Y260370D01*
X139560Y260722D01*
X140292Y261283D01*
X140852Y262014D01*
X141205Y262866D01*
X141260Y263280D01*
D02*
G37*
G36*
X137295D02*
X134331D01*
X134385Y262866D01*
X134738Y262014D01*
X135299Y261283D01*
X136030Y260722D01*
X136882Y260370D01*
X137295Y260315D01*
Y263280D01*
D02*
G37*
G36*
X345026Y233718D02*
Y230753D01*
X347990D01*
X347936Y231167D01*
X347583Y232019D01*
X347022Y232750D01*
X346291Y233311D01*
X345439Y233663D01*
X345026Y233718D01*
D02*
G37*
G36*
X344026D02*
X343612Y233663D01*
X342760Y233311D01*
X342029Y232750D01*
X341468Y232019D01*
X341116Y231167D01*
X341061Y230753D01*
X344026D01*
Y233718D01*
D02*
G37*
G36*
X322835Y235814D02*
X321921Y235693D01*
X321070Y235341D01*
X320338Y234780D01*
X319777Y234049D01*
X319425Y233197D01*
X319304Y232283D01*
X319425Y231370D01*
X319777Y230518D01*
X320338Y229787D01*
X321070Y229226D01*
X321921Y228873D01*
X322835Y228753D01*
X323748Y228873D01*
X324600Y229226D01*
X325331Y229787D01*
X325892Y230518D01*
X326245Y231370D01*
X326365Y232283D01*
X326245Y233197D01*
X325892Y234049D01*
X325331Y234780D01*
X324600Y235341D01*
X323748Y235693D01*
X322835Y235814D01*
D02*
G37*
G36*
X347990Y229753D02*
X345026D01*
Y226789D01*
X345439Y226844D01*
X346291Y227196D01*
X347022Y227757D01*
X347583Y228488D01*
X347936Y229340D01*
X347990Y229753D01*
D02*
G37*
G36*
X344026D02*
X341061D01*
X341116Y229340D01*
X341468Y228488D01*
X342029Y227757D01*
X342760Y227196D01*
X343612Y226844D01*
X344026Y226789D01*
Y229753D01*
D02*
G37*
G36*
X471866Y219898D02*
X465142D01*
Y213173D01*
X471866D01*
Y219898D01*
D02*
G37*
G36*
X468504Y209927D02*
X467626Y209811D01*
X466808Y209472D01*
X466106Y208933D01*
X465567Y208231D01*
X465228Y207413D01*
X465113Y206535D01*
X465228Y205658D01*
X465567Y204840D01*
X466106Y204137D01*
X466808Y203599D01*
X467626Y203260D01*
X468504Y203144D01*
X469382Y203260D01*
X470199Y203599D01*
X470902Y204137D01*
X471441Y204840D01*
X471780Y205658D01*
X471895Y206535D01*
X471780Y207413D01*
X471441Y208231D01*
X470902Y208933D01*
X470199Y209472D01*
X469382Y209811D01*
X468504Y209927D01*
D02*
G37*
G36*
X511236Y192339D02*
X504512D01*
Y185614D01*
X511236D01*
Y192339D01*
D02*
G37*
G36*
X441445Y180630D02*
Y177665D01*
X444409D01*
X444355Y178079D01*
X444002Y178930D01*
X443441Y179662D01*
X442710Y180223D01*
X441859Y180575D01*
X441445Y180630D01*
D02*
G37*
G36*
X440445D02*
X440031Y180575D01*
X439180Y180223D01*
X438449Y179662D01*
X437888Y178930D01*
X437535Y178079D01*
X437480Y177665D01*
X440445D01*
Y180630D01*
D02*
G37*
G36*
X394201D02*
Y177665D01*
X397165D01*
X397111Y178079D01*
X396758Y178930D01*
X396197Y179662D01*
X395466Y180223D01*
X394615Y180575D01*
X394201Y180630D01*
D02*
G37*
G36*
X393201D02*
X392787Y180575D01*
X391936Y180223D01*
X391205Y179662D01*
X390644Y178930D01*
X390291Y178079D01*
X390236Y177665D01*
X393201D01*
Y180630D01*
D02*
G37*
G36*
X347240D02*
Y177665D01*
X350204D01*
X350150Y178079D01*
X349797Y178930D01*
X349236Y179662D01*
X348505Y180223D01*
X347654Y180575D01*
X347240Y180630D01*
D02*
G37*
G36*
X346240D02*
X345827Y180575D01*
X344975Y180223D01*
X344244Y179662D01*
X343683Y178930D01*
X343330Y178079D01*
X343276Y177665D01*
X346240D01*
Y180630D01*
D02*
G37*
G36*
X303650D02*
Y177665D01*
X306614D01*
X306559Y178079D01*
X306207Y178930D01*
X305646Y179662D01*
X304915Y180223D01*
X304063Y180575D01*
X303650Y180630D01*
D02*
G37*
G36*
X302650D02*
X302236Y180575D01*
X301384Y180223D01*
X300653Y179662D01*
X300092Y178930D01*
X299740Y178079D01*
X299685Y177665D01*
X302650D01*
Y180630D01*
D02*
G37*
G36*
X256405D02*
Y177665D01*
X259370D01*
X259315Y178079D01*
X258963Y178930D01*
X258402Y179662D01*
X257671Y180223D01*
X256819Y180575D01*
X256405Y180630D01*
D02*
G37*
G36*
X255405D02*
X254992Y180575D01*
X254140Y180223D01*
X253409Y179662D01*
X252848Y178930D01*
X252496Y178079D01*
X252441Y177665D01*
X255405D01*
Y180630D01*
D02*
G37*
G36*
X209161D02*
Y177665D01*
X212126D01*
X212071Y178079D01*
X211719Y178930D01*
X211158Y179662D01*
X210426Y180223D01*
X209575Y180575D01*
X209161Y180630D01*
D02*
G37*
G36*
X208161D02*
X207748Y180575D01*
X206896Y180223D01*
X206165Y179662D01*
X205604Y178930D01*
X205252Y178079D01*
X205197Y177665D01*
X208161D01*
Y180630D01*
D02*
G37*
G36*
X138295D02*
Y177665D01*
X141260D01*
X141205Y178079D01*
X140852Y178930D01*
X140292Y179662D01*
X139560Y180223D01*
X138709Y180575D01*
X138295Y180630D01*
D02*
G37*
G36*
X137295D02*
X136882Y180575D01*
X136030Y180223D01*
X135299Y179662D01*
X134738Y178930D01*
X134385Y178079D01*
X134331Y177665D01*
X137295D01*
Y180630D01*
D02*
G37*
G36*
X507874Y182368D02*
X506996Y182252D01*
X506178Y181913D01*
X505476Y181374D01*
X504937Y180672D01*
X504598Y179854D01*
X504483Y178976D01*
X504598Y178099D01*
X504937Y177281D01*
X505476Y176578D01*
X506178Y176040D01*
X506996Y175701D01*
X507874Y175585D01*
X508752Y175701D01*
X509570Y176040D01*
X510272Y176578D01*
X510811Y177281D01*
X511150Y178099D01*
X511265Y178976D01*
X511150Y179854D01*
X510811Y180672D01*
X510272Y181374D01*
X509570Y181913D01*
X508752Y182252D01*
X507874Y182368D01*
D02*
G37*
G36*
X444409Y176665D02*
X441445D01*
Y173701D01*
X441859Y173755D01*
X442710Y174108D01*
X443441Y174669D01*
X444002Y175400D01*
X444355Y176252D01*
X444409Y176665D01*
D02*
G37*
G36*
X440445D02*
X437480D01*
X437535Y176252D01*
X437888Y175400D01*
X438449Y174669D01*
X439180Y174108D01*
X440031Y173755D01*
X440445Y173701D01*
Y176665D01*
D02*
G37*
G36*
X397165D02*
X394201D01*
Y173701D01*
X394615Y173755D01*
X395466Y174108D01*
X396197Y174669D01*
X396758Y175400D01*
X397111Y176252D01*
X397165Y176665D01*
D02*
G37*
G36*
X393201D02*
X390236D01*
X390291Y176252D01*
X390644Y175400D01*
X391205Y174669D01*
X391936Y174108D01*
X392787Y173755D01*
X393201Y173701D01*
Y176665D01*
D02*
G37*
G36*
X350204D02*
X347240D01*
Y173701D01*
X347654Y173755D01*
X348505Y174108D01*
X349236Y174669D01*
X349797Y175400D01*
X350150Y176252D01*
X350204Y176665D01*
D02*
G37*
G36*
X346240D02*
X343276D01*
X343330Y176252D01*
X343683Y175400D01*
X344244Y174669D01*
X344975Y174108D01*
X345827Y173755D01*
X346240Y173701D01*
Y176665D01*
D02*
G37*
G36*
X306614D02*
X303650D01*
Y173701D01*
X304063Y173755D01*
X304915Y174108D01*
X305646Y174669D01*
X306207Y175400D01*
X306559Y176252D01*
X306614Y176665D01*
D02*
G37*
G36*
X302650D02*
X299685D01*
X299740Y176252D01*
X300092Y175400D01*
X300653Y174669D01*
X301384Y174108D01*
X302236Y173755D01*
X302650Y173701D01*
Y176665D01*
D02*
G37*
G36*
X259370D02*
X256405D01*
Y173701D01*
X256819Y173755D01*
X257671Y174108D01*
X258402Y174669D01*
X258963Y175400D01*
X259315Y176252D01*
X259370Y176665D01*
D02*
G37*
G36*
X255405D02*
X252441D01*
X252496Y176252D01*
X252848Y175400D01*
X253409Y174669D01*
X254140Y174108D01*
X254992Y173755D01*
X255405Y173701D01*
Y176665D01*
D02*
G37*
G36*
X212126D02*
X209161D01*
Y173701D01*
X209575Y173755D01*
X210426Y174108D01*
X211158Y174669D01*
X211719Y175400D01*
X212071Y176252D01*
X212126Y176665D01*
D02*
G37*
G36*
X208161D02*
X205197D01*
X205252Y176252D01*
X205604Y175400D01*
X206165Y174669D01*
X206896Y174108D01*
X207748Y173755D01*
X208161Y173701D01*
Y176665D01*
D02*
G37*
G36*
X141260D02*
X138295D01*
Y173701D01*
X138709Y173755D01*
X139560Y174108D01*
X140292Y174669D01*
X140852Y175400D01*
X141205Y176252D01*
X141260Y176665D01*
D02*
G37*
G36*
X137295D02*
X134331D01*
X134385Y176252D01*
X134738Y175400D01*
X135299Y174669D01*
X136030Y174108D01*
X136882Y173755D01*
X137295Y173701D01*
Y176665D01*
D02*
G37*
G36*
X476772Y184795D02*
X475360Y184656D01*
X474003Y184244D01*
X472752Y183575D01*
X471655Y182675D01*
X470755Y181579D01*
X470087Y180328D01*
X469675Y178971D01*
X469536Y177559D01*
X469675Y176147D01*
X470087Y174790D01*
X470755Y173539D01*
X471655Y172443D01*
X472752Y171543D01*
X474003Y170874D01*
X475360Y170463D01*
X476772Y170323D01*
X478183Y170463D01*
X479541Y170874D01*
X480792Y171543D01*
X481888Y172443D01*
X482788Y173539D01*
X483457Y174790D01*
X483868Y176147D01*
X484007Y177559D01*
X483868Y178971D01*
X483457Y180328D01*
X482788Y181579D01*
X481888Y182675D01*
X480792Y183575D01*
X479541Y184244D01*
X478183Y184656D01*
X476772Y184795D01*
D02*
G37*
G36*
X429528D02*
X428116Y184656D01*
X426759Y184244D01*
X425508Y183575D01*
X424411Y182675D01*
X423511Y181579D01*
X422843Y180328D01*
X422431Y178971D01*
X422292Y177559D01*
X422431Y176147D01*
X422843Y174790D01*
X423511Y173539D01*
X424411Y172443D01*
X425508Y171543D01*
X426759Y170874D01*
X428116Y170463D01*
X429528Y170323D01*
X430939Y170463D01*
X432297Y170874D01*
X433547Y171543D01*
X434644Y172443D01*
X435544Y173539D01*
X436212Y174790D01*
X436624Y176147D01*
X436763Y177559D01*
X436624Y178971D01*
X436212Y180328D01*
X435544Y181579D01*
X434644Y182675D01*
X433547Y183575D01*
X432297Y184244D01*
X430939Y184656D01*
X429528Y184795D01*
D02*
G37*
G36*
X382283D02*
X380872Y184656D01*
X379515Y184244D01*
X378264Y183575D01*
X377167Y182675D01*
X376267Y181579D01*
X375599Y180328D01*
X375187Y178971D01*
X375048Y177559D01*
X375187Y176147D01*
X375599Y174790D01*
X376267Y173539D01*
X377167Y172443D01*
X378264Y171543D01*
X379515Y170874D01*
X380872Y170463D01*
X382283Y170323D01*
X383695Y170463D01*
X385052Y170874D01*
X386303Y171543D01*
X387400Y172443D01*
X388300Y173539D01*
X388968Y174790D01*
X389380Y176147D01*
X389519Y177559D01*
X389380Y178971D01*
X388968Y180328D01*
X388300Y181579D01*
X387400Y182675D01*
X386303Y183575D01*
X385052Y184244D01*
X383695Y184656D01*
X382283Y184795D01*
D02*
G37*
G36*
X335039D02*
X333628Y184656D01*
X332270Y184244D01*
X331019Y183575D01*
X329923Y182675D01*
X329023Y181579D01*
X328355Y180328D01*
X327943Y178971D01*
X327804Y177559D01*
X327943Y176147D01*
X328355Y174790D01*
X329023Y173539D01*
X329923Y172443D01*
X331019Y171543D01*
X332270Y170874D01*
X333628Y170463D01*
X335039Y170323D01*
X336451Y170463D01*
X337808Y170874D01*
X339059Y171543D01*
X340156Y172443D01*
X341056Y173539D01*
X341724Y174790D01*
X342136Y176147D01*
X342275Y177559D01*
X342136Y178971D01*
X341724Y180328D01*
X341056Y181579D01*
X340156Y182675D01*
X339059Y183575D01*
X337808Y184244D01*
X336451Y184656D01*
X335039Y184795D01*
D02*
G37*
G36*
X287795D02*
X286384Y184656D01*
X285026Y184244D01*
X283775Y183575D01*
X282679Y182675D01*
X281779Y181579D01*
X281110Y180328D01*
X280699Y178971D01*
X280560Y177559D01*
X280699Y176147D01*
X281110Y174790D01*
X281779Y173539D01*
X282679Y172443D01*
X283775Y171543D01*
X285026Y170874D01*
X286384Y170463D01*
X287795Y170323D01*
X289207Y170463D01*
X290564Y170874D01*
X291815Y171543D01*
X292912Y172443D01*
X293811Y173539D01*
X294480Y174790D01*
X294892Y176147D01*
X295031Y177559D01*
X294892Y178971D01*
X294480Y180328D01*
X293811Y181579D01*
X292912Y182675D01*
X291815Y183575D01*
X290564Y184244D01*
X289207Y184656D01*
X287795Y184795D01*
D02*
G37*
G36*
X240551D02*
X239140Y184656D01*
X237782Y184244D01*
X236531Y183575D01*
X235435Y182675D01*
X234535Y181579D01*
X233866Y180328D01*
X233455Y178971D01*
X233316Y177559D01*
X233455Y176147D01*
X233866Y174790D01*
X234535Y173539D01*
X235435Y172443D01*
X236531Y171543D01*
X237782Y170874D01*
X239140Y170463D01*
X240551Y170323D01*
X241963Y170463D01*
X243320Y170874D01*
X244571Y171543D01*
X245668Y172443D01*
X246567Y173539D01*
X247236Y174790D01*
X247648Y176147D01*
X247787Y177559D01*
X247648Y178971D01*
X247236Y180328D01*
X246567Y181579D01*
X245668Y182675D01*
X244571Y183575D01*
X243320Y184244D01*
X241963Y184656D01*
X240551Y184795D01*
D02*
G37*
G36*
X193307D02*
X191895Y184656D01*
X190538Y184244D01*
X189287Y183575D01*
X188191Y182675D01*
X187291Y181579D01*
X186622Y180328D01*
X186211Y178971D01*
X186072Y177559D01*
X186211Y176147D01*
X186622Y174790D01*
X187291Y173539D01*
X188191Y172443D01*
X189287Y171543D01*
X190538Y170874D01*
X191895Y170463D01*
X193307Y170323D01*
X194719Y170463D01*
X196076Y170874D01*
X197327Y171543D01*
X198424Y172443D01*
X199323Y173539D01*
X199992Y174790D01*
X200404Y176147D01*
X200543Y177559D01*
X200404Y178971D01*
X199992Y180328D01*
X199323Y181579D01*
X198424Y182675D01*
X197327Y183575D01*
X196076Y184244D01*
X194719Y184656D01*
X193307Y184795D01*
D02*
G37*
G36*
X440945Y168885D02*
X440031Y168764D01*
X439180Y168412D01*
X438449Y167851D01*
X437888Y167119D01*
X437535Y166268D01*
X437415Y165354D01*
X437535Y164441D01*
X437888Y163589D01*
X438449Y162858D01*
X439180Y162297D01*
X440031Y161944D01*
X440945Y161824D01*
X441859Y161944D01*
X442710Y162297D01*
X443441Y162858D01*
X444002Y163589D01*
X444355Y164441D01*
X444475Y165354D01*
X444355Y166268D01*
X444002Y167119D01*
X443441Y167851D01*
X442710Y168412D01*
X441859Y168764D01*
X440945Y168885D01*
D02*
G37*
G36*
X389764D02*
X388850Y168764D01*
X387999Y168412D01*
X387267Y167851D01*
X386706Y167119D01*
X386354Y166268D01*
X386234Y165354D01*
X386354Y164441D01*
X386706Y163589D01*
X387267Y162858D01*
X387999Y162297D01*
X388850Y161944D01*
X389764Y161824D01*
X390677Y161944D01*
X391529Y162297D01*
X392260Y162858D01*
X392821Y163589D01*
X393174Y164441D01*
X393294Y165354D01*
X393174Y166268D01*
X392821Y167119D01*
X392260Y167851D01*
X391529Y168412D01*
X390677Y168764D01*
X389764Y168885D01*
D02*
G37*
G36*
X346457D02*
X345543Y168764D01*
X344692Y168412D01*
X343960Y167851D01*
X343399Y167119D01*
X343047Y166268D01*
X342927Y165354D01*
X343047Y164441D01*
X343399Y163589D01*
X343960Y162858D01*
X344692Y162297D01*
X345543Y161944D01*
X346457Y161824D01*
X347370Y161944D01*
X348222Y162297D01*
X348953Y162858D01*
X349514Y163589D01*
X349867Y164441D01*
X349987Y165354D01*
X349867Y166268D01*
X349514Y167119D01*
X348953Y167851D01*
X348222Y168412D01*
X347370Y168764D01*
X346457Y168885D01*
D02*
G37*
G36*
X299213D02*
X298299Y168764D01*
X297447Y168412D01*
X296716Y167851D01*
X296155Y167119D01*
X295803Y166268D01*
X295682Y165354D01*
X295803Y164441D01*
X296155Y163589D01*
X296716Y162858D01*
X297447Y162297D01*
X298299Y161944D01*
X299213Y161824D01*
X300126Y161944D01*
X300978Y162297D01*
X301709Y162858D01*
X302270Y163589D01*
X302623Y164441D01*
X302743Y165354D01*
X302623Y166268D01*
X302270Y167119D01*
X301709Y167851D01*
X300978Y168412D01*
X300126Y168764D01*
X299213Y168885D01*
D02*
G37*
G36*
X255906D02*
X254992Y168764D01*
X254140Y168412D01*
X253409Y167851D01*
X252848Y167119D01*
X252496Y166268D01*
X252375Y165354D01*
X252496Y164441D01*
X252848Y163589D01*
X253409Y162858D01*
X254140Y162297D01*
X254992Y161944D01*
X255906Y161824D01*
X256819Y161944D01*
X257671Y162297D01*
X258402Y162858D01*
X258963Y163589D01*
X259315Y164441D01*
X259436Y165354D01*
X259315Y166268D01*
X258963Y167119D01*
X258402Y167851D01*
X257671Y168412D01*
X256819Y168764D01*
X255906Y168885D01*
D02*
G37*
G36*
X204724D02*
X203811Y168764D01*
X202959Y168412D01*
X202228Y167851D01*
X201667Y167119D01*
X201314Y166268D01*
X201194Y165354D01*
X201314Y164441D01*
X201667Y163589D01*
X202228Y162858D01*
X202959Y162297D01*
X203811Y161944D01*
X204724Y161824D01*
X205638Y161944D01*
X206489Y162297D01*
X207221Y162858D01*
X207782Y163589D01*
X208134Y164441D01*
X208255Y165354D01*
X208134Y166268D01*
X207782Y167119D01*
X207221Y167851D01*
X206489Y168412D01*
X205638Y168764D01*
X204724Y168885D01*
D02*
G37*
G36*
X138148Y168720D02*
X137234Y168600D01*
X136382Y168247D01*
X135651Y167686D01*
X135090Y166955D01*
X134738Y166104D01*
X134617Y165190D01*
X134738Y164276D01*
X135090Y163425D01*
X135651Y162694D01*
X136382Y162133D01*
X137234Y161780D01*
X138148Y161660D01*
X139061Y161780D01*
X139913Y162133D01*
X140644Y162694D01*
X141205Y163425D01*
X141558Y164276D01*
X141678Y165190D01*
X141558Y166104D01*
X141205Y166955D01*
X140644Y167686D01*
X139913Y168247D01*
X139061Y168600D01*
X138148Y168720D01*
D02*
G37*
G36*
X439976Y160449D02*
X437508D01*
Y157980D01*
X439976D01*
Y160449D01*
D02*
G37*
G36*
X298244D02*
X295776D01*
Y157980D01*
X298244D01*
Y160449D01*
D02*
G37*
G36*
X251000D02*
X248532D01*
Y157980D01*
X251000D01*
Y160449D01*
D02*
G37*
G36*
X203756D02*
X201287D01*
Y157980D01*
X203756D01*
Y160449D01*
D02*
G37*
G36*
X345488D02*
X343020D01*
Y157980D01*
X345488D01*
Y160449D01*
D02*
G37*
G36*
X487220D02*
X484752D01*
Y157980D01*
X487220D01*
Y160449D01*
D02*
G37*
G36*
X392732D02*
X390264D01*
Y157980D01*
X392732D01*
Y160449D01*
D02*
G37*
G36*
X389264D02*
X386795D01*
Y157980D01*
X389264D01*
Y160449D01*
D02*
G37*
G36*
X342020D02*
X339551D01*
Y157980D01*
X342020D01*
Y160449D01*
D02*
G37*
G36*
X483752D02*
X481284D01*
Y157980D01*
X483752D01*
Y160449D01*
D02*
G37*
G36*
X247532D02*
X245063D01*
Y157980D01*
X247532D01*
Y160449D01*
D02*
G37*
G36*
X200287D02*
X197819D01*
Y157980D01*
X200287D01*
Y160449D01*
D02*
G37*
G36*
X294776D02*
X292307D01*
Y157980D01*
X294776D01*
Y160449D01*
D02*
G37*
G36*
X436508D02*
X434039D01*
Y157980D01*
X436508D01*
Y160449D01*
D02*
G37*
G36*
X487220Y156980D02*
X484752D01*
Y154512D01*
X487220D01*
Y156980D01*
D02*
G37*
G36*
X483752D02*
X481284D01*
Y154512D01*
X483752D01*
Y156980D01*
D02*
G37*
G36*
X479740Y160449D02*
X473803D01*
Y154512D01*
X479740D01*
Y160449D01*
D02*
G37*
G36*
X472260D02*
X466323D01*
Y154512D01*
X472260D01*
Y160449D01*
D02*
G37*
G36*
X439976Y156980D02*
X437508D01*
Y154512D01*
X439976D01*
Y156980D01*
D02*
G37*
G36*
X436508D02*
X434039D01*
Y154512D01*
X436508D01*
Y156980D01*
D02*
G37*
G36*
X432496Y160449D02*
X426559D01*
Y154512D01*
X432496D01*
Y160449D01*
D02*
G37*
G36*
X425016D02*
X419079D01*
Y154512D01*
X425016D01*
Y160449D01*
D02*
G37*
G36*
X392732Y156980D02*
X390264D01*
Y154512D01*
X392732D01*
Y156980D01*
D02*
G37*
G36*
X389264D02*
X386795D01*
Y154512D01*
X389264D01*
Y156980D01*
D02*
G37*
G36*
X385252Y160449D02*
X379315D01*
Y154512D01*
X385252D01*
Y160449D01*
D02*
G37*
G36*
X377772D02*
X371835D01*
Y154512D01*
X377772D01*
Y160449D01*
D02*
G37*
G36*
X345488Y156980D02*
X343020D01*
Y154512D01*
X345488D01*
Y156980D01*
D02*
G37*
G36*
X342020D02*
X339551D01*
Y154512D01*
X342020D01*
Y156980D01*
D02*
G37*
G36*
X338008Y160449D02*
X332071D01*
Y154512D01*
X338008D01*
Y160449D01*
D02*
G37*
G36*
X330528D02*
X324591D01*
Y154512D01*
X330528D01*
Y160449D01*
D02*
G37*
G36*
X298244Y156980D02*
X295776D01*
Y154512D01*
X298244D01*
Y156980D01*
D02*
G37*
G36*
X294776D02*
X292307D01*
Y154512D01*
X294776D01*
Y156980D01*
D02*
G37*
G36*
X290764Y160449D02*
X284827D01*
Y154512D01*
X290764D01*
Y160449D01*
D02*
G37*
G36*
X283283D02*
X277346D01*
Y154512D01*
X283283D01*
Y160449D01*
D02*
G37*
G36*
X251000Y156980D02*
X248532D01*
Y154512D01*
X251000D01*
Y156980D01*
D02*
G37*
G36*
X247532D02*
X245063D01*
Y154512D01*
X247532D01*
Y156980D01*
D02*
G37*
G36*
X243520Y160449D02*
X237583D01*
Y154512D01*
X243520D01*
Y160449D01*
D02*
G37*
G36*
X236039D02*
X230102D01*
Y154512D01*
X236039D01*
Y160449D01*
D02*
G37*
G36*
X203756Y156980D02*
X201287D01*
Y154512D01*
X203756D01*
Y156980D01*
D02*
G37*
G36*
X200287D02*
X197819D01*
Y154512D01*
X200287D01*
Y156980D01*
D02*
G37*
G36*
X196276Y160449D02*
X190339D01*
Y154512D01*
X196276D01*
Y160449D01*
D02*
G37*
G36*
X188795D02*
X182858D01*
Y154512D01*
X188795D01*
Y160449D01*
D02*
G37*
G36*
X466535Y152460D02*
X465247Y152290D01*
X464046Y151793D01*
X463014Y151001D01*
X462223Y149970D01*
X461726Y148769D01*
X461556Y147480D01*
X461726Y146192D01*
X462223Y144991D01*
X463014Y143959D01*
X464046Y143168D01*
X465247Y142670D01*
X466535Y142501D01*
X467824Y142670D01*
X469025Y143168D01*
X470056Y143959D01*
X470848Y144991D01*
X471345Y146192D01*
X471515Y147480D01*
X471345Y148769D01*
X470848Y149970D01*
X470056Y151001D01*
X469025Y151793D01*
X467824Y152290D01*
X466535Y152460D01*
D02*
G37*
G36*
X419291D02*
X418003Y152290D01*
X416802Y151793D01*
X415770Y151001D01*
X414979Y149970D01*
X414481Y148769D01*
X414312Y147480D01*
X414481Y146192D01*
X414979Y144991D01*
X415770Y143959D01*
X416802Y143168D01*
X418003Y142670D01*
X419291Y142501D01*
X420580Y142670D01*
X421781Y143168D01*
X422812Y143959D01*
X423604Y144991D01*
X424101Y146192D01*
X424271Y147480D01*
X424101Y148769D01*
X423604Y149970D01*
X422812Y151001D01*
X421781Y151793D01*
X420580Y152290D01*
X419291Y152460D01*
D02*
G37*
G36*
X372047D02*
X370758Y152290D01*
X369557Y151793D01*
X368526Y151001D01*
X367735Y149970D01*
X367237Y148769D01*
X367068Y147480D01*
X367237Y146192D01*
X367735Y144991D01*
X368526Y143959D01*
X369557Y143168D01*
X370758Y142670D01*
X372047Y142501D01*
X373336Y142670D01*
X374537Y143168D01*
X375568Y143959D01*
X376360Y144991D01*
X376857Y146192D01*
X377027Y147480D01*
X376857Y148769D01*
X376360Y149970D01*
X375568Y151001D01*
X374537Y151793D01*
X373336Y152290D01*
X372047Y152460D01*
D02*
G37*
G36*
X324803D02*
X323514Y152290D01*
X322313Y151793D01*
X321282Y151001D01*
X320491Y149970D01*
X319993Y148769D01*
X319824Y147480D01*
X319993Y146192D01*
X320491Y144991D01*
X321282Y143959D01*
X322313Y143168D01*
X323514Y142670D01*
X324803Y142501D01*
X326092Y142670D01*
X327293Y143168D01*
X328324Y143959D01*
X329116Y144991D01*
X329613Y146192D01*
X329783Y147480D01*
X329613Y148769D01*
X329116Y149970D01*
X328324Y151001D01*
X327293Y151793D01*
X326092Y152290D01*
X324803Y152460D01*
D02*
G37*
G36*
X277559D02*
X276270Y152290D01*
X275069Y151793D01*
X274038Y151001D01*
X273247Y149970D01*
X272749Y148769D01*
X272579Y147480D01*
X272749Y146192D01*
X273247Y144991D01*
X274038Y143959D01*
X275069Y143168D01*
X276270Y142670D01*
X277559Y142501D01*
X278848Y142670D01*
X280049Y143168D01*
X281080Y143959D01*
X281872Y144991D01*
X282369Y146192D01*
X282539Y147480D01*
X282369Y148769D01*
X281872Y149970D01*
X281080Y151001D01*
X280049Y151793D01*
X278848Y152290D01*
X277559Y152460D01*
D02*
G37*
G36*
X230315D02*
X229026Y152290D01*
X227825Y151793D01*
X226794Y151001D01*
X226003Y149970D01*
X225505Y148769D01*
X225335Y147480D01*
X225505Y146192D01*
X226003Y144991D01*
X226794Y143959D01*
X227825Y143168D01*
X229026Y142670D01*
X230315Y142501D01*
X231604Y142670D01*
X232805Y143168D01*
X233836Y143959D01*
X234627Y144991D01*
X235125Y146192D01*
X235295Y147480D01*
X235125Y148769D01*
X234627Y149970D01*
X233836Y151001D01*
X232805Y151793D01*
X231604Y152290D01*
X230315Y152460D01*
D02*
G37*
G36*
X183071D02*
X181782Y152290D01*
X180581Y151793D01*
X179550Y151001D01*
X178758Y149970D01*
X178261Y148769D01*
X178091Y147480D01*
X178261Y146192D01*
X178758Y144991D01*
X179550Y143959D01*
X180581Y143168D01*
X181782Y142670D01*
X183071Y142501D01*
X184360Y142670D01*
X185561Y143168D01*
X186592Y143959D01*
X187383Y144991D01*
X187881Y146192D01*
X188050Y147480D01*
X187881Y148769D01*
X187383Y149970D01*
X186592Y151001D01*
X185561Y151793D01*
X184360Y152290D01*
X183071Y152460D01*
D02*
G37*
G36*
X486535Y151928D02*
X485247Y151759D01*
X484046Y151261D01*
X483014Y150470D01*
X482223Y149439D01*
X481726Y148238D01*
X481556Y146949D01*
X481726Y145660D01*
X482223Y144459D01*
X483014Y143428D01*
X484046Y142636D01*
X485247Y142139D01*
X486535Y141969D01*
X487824Y142139D01*
X489025Y142636D01*
X490057Y143428D01*
X490848Y144459D01*
X491345Y145660D01*
X491515Y146949D01*
X491345Y148238D01*
X490848Y149439D01*
X490057Y150470D01*
X489025Y151261D01*
X487824Y151759D01*
X486535Y151928D01*
D02*
G37*
G36*
X439291D02*
X438002Y151759D01*
X436801Y151261D01*
X435770Y150470D01*
X434979Y149439D01*
X434481Y148238D01*
X434312Y146949D01*
X434481Y145660D01*
X434979Y144459D01*
X435770Y143428D01*
X436801Y142636D01*
X438002Y142139D01*
X439291Y141969D01*
X440580Y142139D01*
X441781Y142636D01*
X442812Y143428D01*
X443604Y144459D01*
X444101Y145660D01*
X444271Y146949D01*
X444101Y148238D01*
X443604Y149439D01*
X442812Y150470D01*
X441781Y151261D01*
X440580Y151759D01*
X439291Y151928D01*
D02*
G37*
G36*
X392047D02*
X390758Y151759D01*
X389557Y151261D01*
X388526Y150470D01*
X387735Y149439D01*
X387237Y148238D01*
X387068Y146949D01*
X387237Y145660D01*
X387735Y144459D01*
X388526Y143428D01*
X389557Y142636D01*
X390758Y142139D01*
X392047Y141969D01*
X393336Y142139D01*
X394537Y142636D01*
X395568Y143428D01*
X396360Y144459D01*
X396857Y145660D01*
X397027Y146949D01*
X396857Y148238D01*
X396360Y149439D01*
X395568Y150470D01*
X394537Y151261D01*
X393336Y151759D01*
X392047Y151928D01*
D02*
G37*
G36*
X344803D02*
X343514Y151759D01*
X342313Y151261D01*
X341282Y150470D01*
X340491Y149439D01*
X339993Y148238D01*
X339824Y146949D01*
X339993Y145660D01*
X340491Y144459D01*
X341282Y143428D01*
X342313Y142636D01*
X343514Y142139D01*
X344803Y141969D01*
X346092Y142139D01*
X347293Y142636D01*
X348324Y143428D01*
X349116Y144459D01*
X349613Y145660D01*
X349783Y146949D01*
X349613Y148238D01*
X349116Y149439D01*
X348324Y150470D01*
X347293Y151261D01*
X346092Y151759D01*
X344803Y151928D01*
D02*
G37*
G36*
X297559D02*
X296270Y151759D01*
X295069Y151261D01*
X294038Y150470D01*
X293247Y149439D01*
X292749Y148238D01*
X292579Y146949D01*
X292749Y145660D01*
X293247Y144459D01*
X294038Y143428D01*
X295069Y142636D01*
X296270Y142139D01*
X297559Y141969D01*
X298848Y142139D01*
X300049Y142636D01*
X301080Y143428D01*
X301871Y144459D01*
X302369Y145660D01*
X302539Y146949D01*
X302369Y148238D01*
X301871Y149439D01*
X301080Y150470D01*
X300049Y151261D01*
X298848Y151759D01*
X297559Y151928D01*
D02*
G37*
G36*
X250315D02*
X249026Y151759D01*
X247825Y151261D01*
X246794Y150470D01*
X246003Y149439D01*
X245505Y148238D01*
X245335Y146949D01*
X245505Y145660D01*
X246003Y144459D01*
X246794Y143428D01*
X247825Y142636D01*
X249026Y142139D01*
X250315Y141969D01*
X251604Y142139D01*
X252805Y142636D01*
X253836Y143428D01*
X254627Y144459D01*
X255125Y145660D01*
X255295Y146949D01*
X255125Y148238D01*
X254627Y149439D01*
X253836Y150470D01*
X252805Y151261D01*
X251604Y151759D01*
X250315Y151928D01*
D02*
G37*
G36*
X203071D02*
X201782Y151759D01*
X200581Y151261D01*
X199550Y150470D01*
X198758Y149439D01*
X198261Y148238D01*
X198091Y146949D01*
X198261Y145660D01*
X198758Y144459D01*
X199550Y143428D01*
X200581Y142636D01*
X201782Y142139D01*
X203071Y141969D01*
X204360Y142139D01*
X205561Y142636D01*
X206592Y143428D01*
X207383Y144459D01*
X207881Y145660D01*
X208050Y146949D01*
X207881Y148238D01*
X207383Y149439D01*
X206592Y150470D01*
X205561Y151261D01*
X204360Y151759D01*
X203071Y151928D01*
D02*
G37*
G36*
X531996Y143696D02*
Y138295D01*
X537397D01*
X537332Y138956D01*
X536993Y140072D01*
X536443Y141101D01*
X535703Y142002D01*
X534802Y142743D01*
X533773Y143292D01*
X532657Y143631D01*
X531996Y143696D01*
D02*
G37*
G36*
X530996D02*
X530335Y143631D01*
X529219Y143292D01*
X528191Y142743D01*
X527289Y142002D01*
X526549Y141101D01*
X525999Y140072D01*
X525661Y138956D01*
X525595Y138295D01*
X530996D01*
Y143696D01*
D02*
G37*
G36*
X157980Y141260D02*
Y138295D01*
X160945D01*
X160890Y138709D01*
X160538Y139560D01*
X159976Y140292D01*
X159245Y140852D01*
X158394Y141205D01*
X157980Y141260D01*
D02*
G37*
G36*
X156980D02*
X156567Y141205D01*
X155715Y140852D01*
X154984Y140292D01*
X154423Y139560D01*
X154070Y138709D01*
X154016Y138295D01*
X156980D01*
Y141260D01*
D02*
G37*
G36*
X138295Y143696D02*
Y138295D01*
X143696D01*
X143631Y138956D01*
X143292Y140072D01*
X142743Y141101D01*
X142002Y142002D01*
X141101Y142743D01*
X140072Y143292D01*
X138956Y143631D01*
X138295Y143696D01*
D02*
G37*
G36*
X137295D02*
X136635Y143631D01*
X135518Y143292D01*
X134490Y142743D01*
X133588Y142002D01*
X132848Y141101D01*
X132298Y140072D01*
X131960Y138956D01*
X131895Y138295D01*
X137295D01*
Y143696D01*
D02*
G37*
G36*
X160945Y137295D02*
X157980D01*
Y134331D01*
X158394Y134385D01*
X159245Y134738D01*
X159976Y135299D01*
X160538Y136030D01*
X160890Y136882D01*
X160945Y137295D01*
D02*
G37*
G36*
X156980D02*
X154016D01*
X154070Y136882D01*
X154423Y136030D01*
X154984Y135299D01*
X155715Y134738D01*
X156567Y134385D01*
X156980Y134331D01*
Y137295D01*
D02*
G37*
G36*
X537397D02*
X531996D01*
Y131895D01*
X532657Y131960D01*
X533773Y132298D01*
X534802Y132848D01*
X535703Y133588D01*
X536443Y134490D01*
X536993Y135518D01*
X537332Y136635D01*
X537397Y137295D01*
D02*
G37*
G36*
X530996D02*
X525595D01*
X525661Y136635D01*
X525999Y135518D01*
X526549Y134490D01*
X527289Y133588D01*
X528191Y132848D01*
X529219Y132298D01*
X530335Y131960D01*
X530996Y131895D01*
Y137295D01*
D02*
G37*
G36*
X143696D02*
X138295D01*
Y131895D01*
X138956Y131960D01*
X140072Y132298D01*
X141101Y132848D01*
X142002Y133588D01*
X142743Y134490D01*
X143292Y135518D01*
X143631Y136635D01*
X143696Y137295D01*
D02*
G37*
G36*
X137295D02*
X131895D01*
X131960Y136635D01*
X132298Y135518D01*
X132848Y134490D01*
X133588Y133588D01*
X134490Y132848D01*
X135518Y132298D01*
X136635Y131960D01*
X137295Y131895D01*
Y137295D01*
D02*
G37*
%LPD*%
D26*
X200787Y157480D02*
D03*
X248031D02*
D03*
X295276D02*
D03*
X342520D02*
D03*
X389764D02*
D03*
X437008D02*
D03*
X484252D02*
D03*
X185039Y366142D02*
D03*
X232283D02*
D03*
X279528D02*
D03*
X326772D02*
D03*
X374016D02*
D03*
X421260D02*
D03*
X468504D02*
D03*
D28*
X137795Y137795D02*
D03*
X531496D02*
D03*
Y374016D02*
D03*
X137795D02*
D03*
D29*
X523622Y354331D02*
D03*
X460630D02*
D03*
X137795Y177165D02*
D03*
X208661D02*
D03*
X255906D02*
D03*
X303150D02*
D03*
X346740D02*
D03*
X393701D02*
D03*
X440945D02*
D03*
X157480Y137795D02*
D03*
X310675Y343837D02*
D03*
X263633Y343493D02*
D03*
X216075Y342461D02*
D03*
X366142Y354331D02*
D03*
X413386D02*
D03*
X149606Y385827D02*
D03*
X344526Y230254D02*
D03*
X137795Y263779D02*
D03*
X511811Y295276D02*
D03*
M02*
