M48
;Layer_Color=9474304
;FILE_FORMAT=2:4
INCH,TZ
;TYPE=PLATED
T1F00S00C0.0236
%
G90
G05
T01
G00X46968Y15748
M15
G01X46890
M16
G00X47717Y15748
M15
G01X47638
M16
G00X48465Y15748
M15
G01X48386
M16
G00X43740Y15748
M15
G01X43661
M16
G00X42992Y15748
M15
G01X42913
M16
G00X42244Y15748
M15
G01X42165
M16
G00X39016Y15748
M15
G01X38937
M16
G00X38268Y15748
M15
G01X38189
M16
G00X37520Y15748
M15
G01X37441
M16
G00X34291Y15748
M15
G01X34213
M16
G00X33543Y15748
M15
G01X33465
M16
G00X32795Y15748
M15
G01X32717
M16
G00X29567Y15748
M15
G01X29488
M16
G00X28819Y15748
M15
G01X28740
M16
G00X28071Y15748
M15
G01X27992
M16
G00X24843Y15748
M15
G01X24764
M16
G00X24094Y15748
M15
G01X24016
M16
G00X23346Y15748
M15
G01X23268
M16
G00X20118Y15748
M15
G01X20039
M16
G00X19370Y15748
M15
G01X19291
M16
G00X18622Y15748
M15
G01X18543
M16
G00X18465Y36614
M15
G01X18543
M16
G00X19213Y36614
M15
G01X19291
M16
G00X19961Y36614
M15
G01X20039
M16
G00X23189Y36614
M15
G01X23268
M16
G00X23937Y36614
M15
G01X24016
M16
G00X24685Y36614
M15
G01X24764
M16
G00X27913Y36614
M15
G01X27992
M16
G00X28661Y36614
M15
G01X28740
M16
G00X29409Y36614
M15
G01X29488
M16
G00X32638Y36614
M15
G01X32717
M16
G00X33386Y36614
M15
G01X33465
M16
G00X34134Y36614
M15
G01X34213
M16
G00X37362Y36614
M15
G01X37441
M16
G00X38110Y36614
M15
G01X38189
M16
G00X38858Y36614
M15
G01X38937
M16
G00X42087Y36614
M15
G01X42165
M16
G00X42835Y36614
M15
G01X42913
M16
G00X43583Y36614
M15
G01X43661
M16
G00X46811Y36614
M15
G01X46890
M16
G00X47559Y36614
M15
G01X47638
M16
G00X48307Y36614
M15
G01X48386
M16
M30
