M48
;Layer_Color=9474304
;FILE_FORMAT=2:4
INCH,TZ
;TYPE=PLATED
T1F00S00C0.0217
%
G90
G05
T01
G00X46971Y15748
M15
G01X46887
M16
G00X47719Y15748
M15
G01X47635
M16
G00X48467Y15748
M15
G01X48383
M16
G00X43743Y15748
M15
G01X43659
M16
G00X42994Y15748
M15
G01X42911
M16
G00X42246Y15748
M15
G01X42163
M16
G00X39018Y15748
M15
G01X38935
M16
G00X38270Y15748
M15
G01X38187
M16
G00X37522Y15748
M15
G01X37439
M16
G00X34294Y15748
M15
G01X34210
M16
G00X33546Y15748
M15
G01X33462
M16
G00X32798Y15748
M15
G01X32714
M16
G00X29569Y15748
M15
G01X29486
M16
G00X28821Y15748
M15
G01X28738
M16
G00X28073Y15748
M15
G01X27990
M16
G00X24845Y15748
M15
G01X24761
M16
G00X24097Y15748
M15
G01X24013
M16
G00X23349Y15748
M15
G01X23265
M16
G00X20120Y15748
M15
G01X20037
M16
G00X19372Y15748
M15
G01X19289
M16
G00X18624Y15748
M15
G01X18541
M16
G00X18462Y36614
M15
G01X18546
M16
G00X19210Y36614
M15
G01X19294
M16
G00X19958Y36614
M15
G01X20042
M16
G00X23187Y36614
M15
G01X23270
M16
G00X23935Y36614
M15
G01X24018
M16
G00X24683Y36614
M15
G01X24766
M16
G00X27911Y36614
M15
G01X27994
M16
G00X28659Y36614
M15
G01X28743
M16
G00X29407Y36614
M15
G01X29491
M16
G00X32635Y36614
M15
G01X32719
M16
G00X33383Y36614
M15
G01X33467
M16
G00X34132Y36614
M15
G01X34215
M16
G00X37360Y36614
M15
G01X37443
M16
G00X38108Y36614
M15
G01X38191
M16
G00X38856Y36614
M15
G01X38939
M16
G00X42084Y36614
M15
G01X42168
M16
G00X42832Y36614
M15
G01X42916
M16
G00X43580Y36614
M15
G01X43664
M16
G00X46809Y36614
M15
G01X46892
M16
G00X47557Y36614
M15
G01X47640
M16
G00X48305Y36614
M15
G01X48388
M16
M30
