G04*
G04 #@! TF.GenerationSoftware,Altium Limited,Altium Designer,20.2.6 (244)*
G04*
G04 Layer_Color=32768*
%FSLAX25Y25*%
%MOIN*%
G70*
G04*
G04 #@! TF.SameCoordinates,78553FFF-4CE1-44D2-B870-6997896BCA41*
G04*
G04*
G04 #@! TF.FilePolarity,Positive*
G04*
G01*
G75*
%ADD39C,0.00394*%
G36*
X343354Y211783D02*
X343383Y211769D01*
X343419Y211740D01*
X343426Y211733D01*
X343433Y211705D01*
X343448Y211662D01*
X343455Y211604D01*
Y209389D01*
X343448Y209346D01*
X343440Y209303D01*
X343419Y209260D01*
X343412Y209252D01*
X343390Y209238D01*
X343361Y209224D01*
X343319Y209217D01*
X343304D01*
X343283Y209224D01*
X343247Y209238D01*
X343218Y209260D01*
X343211Y209267D01*
X343197Y209295D01*
X343182Y209338D01*
X343175Y209403D01*
Y210364D01*
X339597D01*
X339891Y209446D01*
Y209439D01*
X339898Y209410D01*
X339906Y209382D01*
Y209346D01*
X339898Y209324D01*
X339891Y209295D01*
X339870Y209260D01*
X339863Y209252D01*
X339841Y209238D01*
X339812Y209224D01*
X339769Y209217D01*
X339762D01*
X339741Y209224D01*
X339712Y209231D01*
X339676Y209252D01*
X339669Y209260D01*
X339655Y209274D01*
X339640Y209310D01*
X339619Y209360D01*
X339210Y210643D01*
X343175D01*
Y211618D01*
X343182Y211654D01*
X343189Y211705D01*
X343218Y211740D01*
X343225Y211748D01*
X343247Y211769D01*
X343275Y211783D01*
X343319Y211791D01*
X343326D01*
X343354Y211783D01*
D02*
G37*
G36*
X351329Y209217D02*
X350920D01*
X350913Y209224D01*
X350884Y209252D01*
X350841Y209303D01*
X350784Y209360D01*
X350719Y209439D01*
X350633Y209532D01*
X350540Y209632D01*
X350432Y209747D01*
X350318Y209869D01*
X350196Y209998D01*
X349931Y210278D01*
X349651Y210572D01*
X349357Y210873D01*
X349350Y210880D01*
X349343Y210887D01*
X349292Y210937D01*
X349228Y211002D01*
X349149Y211081D01*
X349063Y211167D01*
X348970Y211253D01*
X348884Y211325D01*
X348812Y211389D01*
X348805Y211396D01*
X348783Y211411D01*
X348747Y211439D01*
X348705Y211468D01*
X348604Y211532D01*
X348554Y211561D01*
X348504Y211583D01*
X348497D01*
X348482Y211590D01*
X348454Y211604D01*
X348425Y211611D01*
X348339Y211633D01*
X348238Y211640D01*
X348231D01*
X348224D01*
X348181Y211633D01*
X348109Y211626D01*
X348023Y211604D01*
X347923Y211568D01*
X347815Y211518D01*
X347708Y211446D01*
X347600Y211346D01*
X347586Y211332D01*
X347557Y211296D01*
X347514Y211231D01*
X347457Y211153D01*
X347407Y211052D01*
X347364Y210930D01*
X347335Y210794D01*
X347321Y210643D01*
Y210579D01*
X347335Y210514D01*
X347349Y210428D01*
X347371Y210321D01*
X347414Y210213D01*
X347464Y210099D01*
X347536Y209991D01*
X347543Y209977D01*
X347572Y209948D01*
X347622Y209898D01*
X347679Y209840D01*
X347758Y209783D01*
X347844Y209718D01*
X347944Y209668D01*
X348059Y209632D01*
X348074Y209625D01*
X348102Y209618D01*
X348138Y209597D01*
X348167Y209575D01*
X348174Y209568D01*
X348181Y209554D01*
X348188Y209518D01*
X348195Y209482D01*
Y209475D01*
X348188Y209446D01*
X348181Y209417D01*
X348160Y209389D01*
X348152Y209382D01*
X348131Y209374D01*
X348102Y209360D01*
X348066Y209353D01*
X348059D01*
X348038D01*
X348002Y209360D01*
X347952Y209374D01*
X347894Y209396D01*
X347815Y209424D01*
X347729Y209468D01*
X347636Y209525D01*
X347622Y209532D01*
X347593Y209554D01*
X347536Y209597D01*
X347478Y209647D01*
X347407Y209718D01*
X347335Y209797D01*
X347263Y209898D01*
X347199Y210005D01*
Y210012D01*
X347192Y210020D01*
X347177Y210055D01*
X347149Y210120D01*
X347120Y210199D01*
X347091Y210292D01*
X347063Y210400D01*
X347048Y210514D01*
X347041Y210636D01*
Y210686D01*
X347048Y210722D01*
X347055Y210772D01*
X347063Y210823D01*
X347084Y210945D01*
X347127Y211088D01*
X347192Y211239D01*
X347235Y211317D01*
X347285Y211389D01*
X347342Y211468D01*
X347407Y211540D01*
X347414Y211547D01*
X347421Y211554D01*
X347443Y211576D01*
X347471Y211597D01*
X347543Y211662D01*
X347643Y211733D01*
X347765Y211798D01*
X347909Y211862D01*
X348066Y211905D01*
X348145Y211912D01*
X348231Y211920D01*
X348238D01*
X348267D01*
X348303D01*
X348346Y211912D01*
X348403Y211905D01*
X348461Y211891D01*
X348590Y211855D01*
X348597D01*
X348619Y211841D01*
X348647Y211826D01*
X348690Y211805D01*
X348747Y211776D01*
X348805Y211740D01*
X348869Y211690D01*
X348941Y211640D01*
X348948Y211633D01*
X348977Y211611D01*
X349020Y211568D01*
X349084Y211518D01*
X349163Y211439D01*
X349264Y211346D01*
X349378Y211231D01*
X349515Y211095D01*
X349529Y211081D01*
X349558Y211052D01*
X349608Y211002D01*
X349673Y210930D01*
X349759Y210851D01*
X349852Y210751D01*
X349959Y210643D01*
X350067Y210529D01*
X350189Y210400D01*
X350311Y210271D01*
X350561Y210005D01*
X350805Y209740D01*
X350920Y209618D01*
X351028Y209496D01*
X351049D01*
Y211640D01*
X350942D01*
X350934D01*
X350927D01*
X350891Y211647D01*
X350841Y211654D01*
X350805Y211676D01*
X350798Y211683D01*
X350777Y211705D01*
X350762Y211733D01*
X350755Y211776D01*
Y211783D01*
X350762Y211812D01*
X350777Y211841D01*
X350805Y211877D01*
X350813Y211884D01*
X350841Y211898D01*
X350884Y211912D01*
X350942Y211920D01*
X351329D01*
Y209217D01*
D02*
G37*
G36*
X342171Y290412D02*
X342229Y290405D01*
X342293Y290397D01*
X342372Y290383D01*
X342451Y290369D01*
X342623Y290318D01*
X342802Y290247D01*
X342888Y290204D01*
X342982Y290154D01*
X343068Y290089D01*
X343146Y290017D01*
X343154Y290010D01*
X343161Y289996D01*
X343182Y289974D01*
X343211Y289946D01*
X343240Y289903D01*
X343275Y289860D01*
X343311Y289802D01*
X343347Y289745D01*
X343426Y289594D01*
X343491Y289422D01*
X343519Y289329D01*
X343541Y289229D01*
X343548Y289121D01*
X343555Y289014D01*
Y288949D01*
X343548Y288870D01*
X343534Y288770D01*
X343512Y288655D01*
X343483Y288526D01*
X343440Y288390D01*
X343383Y288246D01*
X343376Y288232D01*
X343361Y288203D01*
X343333Y288153D01*
X343297Y288089D01*
X343254Y288017D01*
X343204Y287938D01*
X343139Y287852D01*
X343075Y287773D01*
X343068Y287766D01*
X343053Y287752D01*
X343010Y287716D01*
X342953Y287673D01*
X342917Y287658D01*
X342888Y287651D01*
X342881D01*
X342852Y287658D01*
X342824Y287666D01*
X342788Y287687D01*
X342781Y287694D01*
X342766Y287716D01*
X342752Y287744D01*
X342745Y287780D01*
Y287788D01*
X342752Y287816D01*
X342774Y287859D01*
X342809Y287902D01*
X342817Y287909D01*
X342831Y287924D01*
X342852Y287952D01*
X342881Y287988D01*
X342917Y288038D01*
X342960Y288096D01*
X342996Y288153D01*
X343039Y288225D01*
X343125Y288390D01*
X343204Y288576D01*
X343232Y288677D01*
X343254Y288784D01*
X343268Y288892D01*
X343275Y288999D01*
Y289049D01*
X343268Y289085D01*
Y289121D01*
X343261Y289171D01*
X343232Y289286D01*
X343197Y289415D01*
X343139Y289551D01*
X343053Y289687D01*
X343003Y289752D01*
X342946Y289817D01*
X342938Y289824D01*
X342931Y289831D01*
X342910Y289845D01*
X342881Y289867D01*
X342852Y289888D01*
X342809Y289917D01*
X342709Y289982D01*
X342580Y290039D01*
X342422Y290089D01*
X342250Y290125D01*
X342150Y290139D01*
X342049D01*
X342042D01*
X342028D01*
X342006D01*
X341970Y290132D01*
X341928D01*
X341884Y290125D01*
X341777Y290103D01*
X341655Y290075D01*
X341526Y290024D01*
X341404Y289953D01*
X341289Y289860D01*
X341275Y289845D01*
X341246Y289809D01*
X341196Y289752D01*
X341139Y289666D01*
X341089Y289566D01*
X341038Y289444D01*
X341010Y289307D01*
X340995Y289150D01*
Y289078D01*
X341003Y289035D01*
X341010Y288992D01*
X341024Y288877D01*
X341053Y288741D01*
X341096Y288598D01*
X341153Y288440D01*
X341232Y288275D01*
Y288268D01*
X341239Y288261D01*
X341253Y288218D01*
X341275Y288168D01*
X341282Y288124D01*
Y288117D01*
X341275Y288089D01*
X341268Y288060D01*
X341246Y288031D01*
X341239Y288024D01*
X341218Y288017D01*
X341182Y288003D01*
X341132Y287995D01*
X339267D01*
Y289960D01*
X339275Y290003D01*
X339282Y290046D01*
X339311Y290089D01*
X339318Y290096D01*
X339339Y290118D01*
X339368Y290132D01*
X339411Y290139D01*
X339418D01*
X339447Y290132D01*
X339475Y290118D01*
X339511Y290089D01*
X339518Y290082D01*
X339526Y290053D01*
X339540Y290010D01*
X339547Y289946D01*
Y288275D01*
X340924D01*
X340917Y288289D01*
X340909Y288318D01*
X340888Y288361D01*
X340866Y288426D01*
X340845Y288497D01*
X340816Y288576D01*
X340773Y288741D01*
Y288748D01*
X340766Y288777D01*
X340752Y288827D01*
X340744Y288884D01*
X340730Y288949D01*
X340723Y289021D01*
X340716Y289178D01*
Y289229D01*
X340723Y289264D01*
X340730Y289307D01*
X340737Y289365D01*
X340759Y289487D01*
X340809Y289623D01*
X340874Y289774D01*
X340917Y289845D01*
X340967Y289917D01*
X341024Y289989D01*
X341089Y290060D01*
X341096Y290068D01*
X341103Y290075D01*
X341125Y290096D01*
X341153Y290118D01*
X341196Y290146D01*
X341239Y290175D01*
X341289Y290204D01*
X341347Y290240D01*
X341490Y290304D01*
X341655Y290361D01*
X341849Y290405D01*
X341956Y290412D01*
X342064Y290419D01*
X342071D01*
X342092D01*
X342128D01*
X342171Y290412D01*
D02*
G37*
G36*
X343354Y286224D02*
X343383Y286210D01*
X343419Y286181D01*
X343426Y286174D01*
X343433Y286146D01*
X343448Y286103D01*
X343455Y286045D01*
Y283830D01*
X343448Y283787D01*
X343440Y283744D01*
X343419Y283701D01*
X343412Y283693D01*
X343390Y283679D01*
X343361Y283665D01*
X343319Y283658D01*
X343304D01*
X343283Y283665D01*
X343247Y283679D01*
X343218Y283701D01*
X343211Y283708D01*
X343197Y283736D01*
X343182Y283780D01*
X343175Y283844D01*
Y284805D01*
X339597D01*
X339891Y283887D01*
Y283880D01*
X339898Y283851D01*
X339906Y283822D01*
Y283787D01*
X339898Y283765D01*
X339891Y283736D01*
X339870Y283701D01*
X339863Y283693D01*
X339841Y283679D01*
X339812Y283665D01*
X339769Y283658D01*
X339762D01*
X339741Y283665D01*
X339712Y283672D01*
X339676Y283693D01*
X339669Y283701D01*
X339655Y283715D01*
X339640Y283751D01*
X339619Y283801D01*
X339210Y285084D01*
X343175D01*
Y286059D01*
X343182Y286095D01*
X343189Y286146D01*
X343218Y286181D01*
X343225Y286189D01*
X343247Y286210D01*
X343275Y286224D01*
X343319Y286232D01*
X343326D01*
X343354Y286224D01*
D02*
G37*
G36*
X350189Y290498D02*
X350232D01*
X350282Y290491D01*
X350404Y290462D01*
X350547Y290426D01*
X350698Y290369D01*
X350863Y290290D01*
X350942Y290240D01*
X351020Y290182D01*
X351028D01*
X351035Y290168D01*
X351056Y290146D01*
X351085Y290125D01*
X351150Y290053D01*
X351221Y289953D01*
X351300Y289831D01*
X351365Y289680D01*
X351393Y289594D01*
X351415Y289508D01*
X351422Y289408D01*
X351429Y289307D01*
Y289272D01*
X351422Y289250D01*
X351415Y289178D01*
X351400Y289092D01*
X351372Y288985D01*
X351336Y288870D01*
X351278Y288755D01*
X351207Y288634D01*
X351200Y288619D01*
X351164Y288583D01*
X351114Y288526D01*
X351035Y288454D01*
X350942Y288375D01*
X350820Y288289D01*
X350683Y288211D01*
X350518Y288139D01*
X350511D01*
X350490Y288132D01*
X350461Y288117D01*
X350418Y288103D01*
X350361Y288089D01*
X350296Y288067D01*
X350224Y288046D01*
X350146Y288024D01*
X350052Y288003D01*
X349952Y287981D01*
X349737Y287945D01*
X349500Y287924D01*
X349242Y287917D01*
X349235D01*
X349221D01*
X349192D01*
X349156D01*
X349106Y287924D01*
X349049Y287931D01*
X348920Y287945D01*
X348769Y287967D01*
X348604Y288003D01*
X348432Y288053D01*
X348260Y288124D01*
X348253D01*
X348246Y288132D01*
X348203Y288153D01*
X348138Y288189D01*
X348052Y288239D01*
X347952Y288297D01*
X347851Y288368D01*
X347744Y288454D01*
X347643Y288547D01*
X347629Y288562D01*
X347600Y288598D01*
X347550Y288655D01*
X347493Y288727D01*
X347421Y288820D01*
X347349Y288928D01*
X347278Y289042D01*
X347213Y289171D01*
Y289178D01*
X347206Y289186D01*
X347199Y289207D01*
X347184Y289236D01*
X347156Y289307D01*
X347127Y289401D01*
X347098Y289515D01*
X347070Y289645D01*
X347048Y289788D01*
X347041Y289938D01*
Y289989D01*
X347048Y290039D01*
X347055Y290103D01*
X347070Y290175D01*
X347091Y290254D01*
X347120Y290333D01*
X347156Y290405D01*
Y290412D01*
X347163Y290419D01*
X347192Y290448D01*
X347235Y290476D01*
X347263Y290491D01*
X347292D01*
X347299D01*
X347328Y290483D01*
X347364Y290476D01*
X347392Y290448D01*
X347400Y290440D01*
X347407Y290426D01*
X347421Y290390D01*
X347428Y290354D01*
Y290347D01*
X347421Y290326D01*
X347414Y290297D01*
X347392Y290254D01*
Y290247D01*
X347378Y290232D01*
X347371Y290204D01*
X347357Y290161D01*
X347342Y290111D01*
X347335Y290053D01*
X347321Y289989D01*
Y289852D01*
X347328Y289809D01*
X347335Y289752D01*
X347349Y289680D01*
X347371Y289609D01*
X347392Y289523D01*
X347421Y289437D01*
X347457Y289343D01*
X347500Y289243D01*
X347557Y289143D01*
X347622Y289035D01*
X347693Y288935D01*
X347780Y288827D01*
X347880Y288727D01*
X347887Y288720D01*
X347909Y288705D01*
X347937Y288677D01*
X347980Y288641D01*
X348030Y288605D01*
X348095Y288562D01*
X348174Y288512D01*
X348253Y288461D01*
X348346Y288411D01*
X348454Y288361D01*
X348561Y288318D01*
X348676Y288282D01*
X348805Y288246D01*
X348934Y288218D01*
X349070Y288203D01*
X349214Y288196D01*
X349221D01*
X349235D01*
X349264D01*
X349300D01*
X349350Y288203D01*
X349407D01*
X349479D01*
X349565Y288211D01*
X349558D01*
X349551Y288225D01*
X349529Y288239D01*
X349500Y288253D01*
X349436Y288311D01*
X349350Y288375D01*
X349257Y288461D01*
X349156Y288547D01*
X349070Y288648D01*
X348991Y288748D01*
X348984Y288763D01*
X348963Y288798D01*
X348934Y288856D01*
X348898Y288928D01*
X348862Y289014D01*
X348834Y289121D01*
X348812Y289236D01*
X348805Y289358D01*
Y289401D01*
X348812Y289437D01*
X348819Y289472D01*
X348826Y289515D01*
X348848Y289630D01*
X348898Y289752D01*
X348963Y289881D01*
X349006Y289953D01*
X349056Y290017D01*
X349113Y290089D01*
X349178Y290154D01*
X349185Y290161D01*
X349192Y290168D01*
X349214Y290189D01*
X349242Y290211D01*
X349278Y290232D01*
X349321Y290268D01*
X349436Y290333D01*
X349565Y290397D01*
X349723Y290448D01*
X349902Y290491D01*
X350002Y290498D01*
X350103Y290505D01*
X350110D01*
X350124D01*
X350153D01*
X350189Y290498D01*
D02*
G37*
G36*
X351228Y286224D02*
X351257Y286210D01*
X351293Y286181D01*
X351300Y286174D01*
X351307Y286146D01*
X351322Y286103D01*
X351329Y286045D01*
Y283830D01*
X351322Y283787D01*
X351314Y283744D01*
X351293Y283701D01*
X351286Y283693D01*
X351264Y283679D01*
X351236Y283665D01*
X351192Y283658D01*
X351178D01*
X351157Y283665D01*
X351121Y283679D01*
X351092Y283701D01*
X351085Y283708D01*
X351071Y283736D01*
X351056Y283780D01*
X351049Y283844D01*
Y284805D01*
X347471D01*
X347765Y283887D01*
Y283880D01*
X347772Y283851D01*
X347780Y283822D01*
Y283787D01*
X347772Y283765D01*
X347765Y283736D01*
X347744Y283701D01*
X347737Y283693D01*
X347715Y283679D01*
X347686Y283665D01*
X347643Y283658D01*
X347636D01*
X347615Y283665D01*
X347586Y283672D01*
X347550Y283693D01*
X347543Y283701D01*
X347529Y283715D01*
X347514Y283751D01*
X347493Y283801D01*
X347084Y285084D01*
X351049D01*
Y286059D01*
X351056Y286095D01*
X351063Y286146D01*
X351092Y286181D01*
X351099Y286189D01*
X351121Y286210D01*
X351150Y286224D01*
X351192Y286232D01*
X351200D01*
X351228Y286224D01*
D02*
G37*
%LPC*%
G36*
X350103Y290218D02*
X350096D01*
X350081D01*
X350060D01*
X350031D01*
X349945Y290204D01*
X349845Y290189D01*
X349730Y290154D01*
X349608Y290111D01*
X349486Y290046D01*
X349371Y289953D01*
X349357Y289938D01*
X349328Y289910D01*
X349278Y289852D01*
X349228Y289781D01*
X349178Y289687D01*
X349128Y289587D01*
X349099Y289472D01*
X349084Y289351D01*
Y289336D01*
X349092Y289293D01*
X349099Y289236D01*
X349120Y289150D01*
X349149Y289057D01*
X349199Y288949D01*
X349271Y288842D01*
X349364Y288727D01*
X349371Y288720D01*
X349400Y288691D01*
X349450Y288648D01*
X349515Y288598D01*
X349608Y288526D01*
X349723Y288454D01*
X349859Y288368D01*
X350024Y288275D01*
X350031D01*
X350052Y288282D01*
X350081Y288289D01*
X350124Y288297D01*
X350174Y288311D01*
X350232Y288332D01*
X350361Y288375D01*
X350504Y288433D01*
X350648Y288497D01*
X350784Y288583D01*
X350848Y288626D01*
X350899Y288677D01*
X350913Y288691D01*
X350942Y288727D01*
X350977Y288784D01*
X351028Y288856D01*
X351071Y288949D01*
X351114Y289064D01*
X351142Y289186D01*
X351150Y289315D01*
Y289351D01*
X351142Y289379D01*
X351135Y289444D01*
X351114Y289537D01*
X351078Y289637D01*
X351028Y289745D01*
X350956Y289852D01*
X350863Y289953D01*
X350848Y289967D01*
X350813Y289996D01*
X350748Y290039D01*
X350655Y290089D01*
X350547Y290139D01*
X350418Y290182D01*
X350268Y290211D01*
X350103Y290218D01*
D02*
G37*
%LPD*%
D39*
X352766Y216382D02*
Y224843D01*
X337018Y216382D02*
X352766D01*
X347845Y219922D02*
X349813D01*
X347845D02*
Y221890D01*
X349813Y219922D02*
Y221890D01*
X347845D02*
X349813D01*
X352766Y224843D02*
Y232717D01*
X339971Y219922D02*
X341939D01*
Y221890D01*
X339971Y219922D02*
Y221890D01*
X337018Y216382D02*
Y224843D01*
X339971Y221890D02*
X341939D01*
X337018Y224843D02*
Y232717D01*
X347845Y227796D02*
X349813D01*
Y229764D01*
X347845Y227796D02*
Y229764D01*
X349813D01*
X352766Y232717D02*
Y240591D01*
X347845Y235670D02*
X349813D01*
Y237638D01*
X347845Y235670D02*
Y237638D01*
X349813D01*
X339971Y227796D02*
X341939D01*
Y229764D01*
X339971Y227796D02*
Y229764D01*
X341939D01*
X339971Y235670D02*
X341939D01*
Y237638D01*
X339971Y235670D02*
Y237638D01*
X337018Y232717D02*
Y240591D01*
X339971Y237638D02*
X341939D01*
X352766Y240591D02*
Y248465D01*
X347845Y243544D02*
X349813D01*
Y245512D01*
X347845Y243544D02*
Y245512D01*
X349813D01*
X352766Y248465D02*
Y256339D01*
X347845Y251418D02*
X349813D01*
Y253386D01*
X347845Y251418D02*
Y253386D01*
X339971Y243544D02*
X341939D01*
Y245512D01*
X339971Y243544D02*
Y245512D01*
X337018Y240591D02*
Y248465D01*
X339971Y245512D02*
X341939D01*
X339971Y251418D02*
X341939D01*
Y253386D01*
X339971Y251418D02*
Y253386D01*
X337018Y248465D02*
Y256339D01*
X347845Y253386D02*
X349813D01*
X352766Y256339D02*
Y264213D01*
X347845Y259292D02*
X349813D01*
Y261260D01*
X347845Y259292D02*
Y261260D01*
X349813D01*
X352766Y264213D02*
Y272087D01*
X339971Y253386D02*
X341939D01*
X339971Y259292D02*
X341939D01*
Y261260D01*
X339971Y259292D02*
Y261260D01*
X337018Y256339D02*
Y264213D01*
X339971Y261260D02*
X341939D01*
X337018Y264213D02*
Y272087D01*
X347845Y267166D02*
X349813D01*
Y269134D01*
X347845Y267166D02*
Y269134D01*
X349813D01*
X352766Y272087D02*
Y280548D01*
X349813Y275040D02*
Y277008D01*
X347845Y275040D02*
Y277008D01*
Y275040D02*
X349813D01*
X347845Y277008D02*
X349813D01*
X339971Y267166D02*
X341939D01*
Y269134D01*
X339971Y267166D02*
Y269134D01*
X341939D01*
X339971Y275040D02*
X341939D01*
Y277008D01*
X339971Y275040D02*
Y277008D01*
X337018Y272087D02*
Y280548D01*
X339971Y277008D02*
X341939D01*
X337018Y280548D02*
X352766D01*
M02*
