G04*
G04 #@! TF.GenerationSoftware,Altium Limited,Altium Designer,20.2.6 (244)*
G04*
G04 Layer_Color=128*
%FSLAX25Y25*%
%MOIN*%
G70*
G04*
G04 #@! TF.SameCoordinates,78553FFF-4CE1-44D2-B870-6997896BCA41*
G04*
G04*
G04 #@! TF.FilePolarity,Positive*
G04*
G01*
G75*
%ADD30R,0.03543X0.06102*%
%ADD31R,0.05500X0.05800*%
%ADD32R,0.31500X0.04300*%
%ADD33R,0.27600X0.04900*%
D30*
X164075Y366142D02*
D03*
X174508D02*
D03*
X443602Y334646D02*
D03*
X454035D02*
D03*
X497441Y165354D02*
D03*
X507874D02*
D03*
X217815Y165354D02*
D03*
X207382D02*
D03*
X225689Y366142D02*
D03*
X215256D02*
D03*
X268996D02*
D03*
X258563D02*
D03*
X316240D02*
D03*
X305807D02*
D03*
X363484D02*
D03*
X353051D02*
D03*
X402854Y334646D02*
D03*
X392421D02*
D03*
X443602Y165354D02*
D03*
X454035D02*
D03*
X396358D02*
D03*
X406791D02*
D03*
X349114D02*
D03*
X359547D02*
D03*
X301870D02*
D03*
X312303D02*
D03*
X254626D02*
D03*
X265059D02*
D03*
D31*
X172838Y354331D02*
D03*
X165745D02*
D03*
X496454Y177165D02*
D03*
X503546D02*
D03*
X216145D02*
D03*
X209052D02*
D03*
X216926Y354331D02*
D03*
X224019D02*
D03*
X260233D02*
D03*
X267326D02*
D03*
X307477D02*
D03*
X314570D02*
D03*
X354721D02*
D03*
X361814D02*
D03*
X394091Y322835D02*
D03*
X401184D02*
D03*
X445272D02*
D03*
X452365D02*
D03*
X445272Y177165D02*
D03*
X452365D02*
D03*
X398028D02*
D03*
X405121D02*
D03*
X350784D02*
D03*
X357877D02*
D03*
X303540D02*
D03*
X310633D02*
D03*
X256296D02*
D03*
X263389D02*
D03*
D32*
X183503Y247815D02*
D03*
Y271870D02*
D03*
D33*
Y264764D02*
D03*
Y254921D02*
D03*
M02*
