G04*
G04 #@! TF.GenerationSoftware,Altium Limited,Altium Designer,20.2.6 (244)*
G04*
G04 Layer_Color=16711935*
%FSLAX25Y25*%
%MOIN*%
G70*
G04*
G04 #@! TF.SameCoordinates,78553FFF-4CE1-44D2-B870-6997896BCA41*
G04*
G04*
G04 #@! TF.FilePolarity,Positive*
G04*
G01*
G75*
%ADD10C,0.00787*%
%ADD11C,0.00394*%
%ADD37C,0.02000*%
%ADD41C,0.00100*%
D10*
X345285Y240905D02*
X344498D01*
X345285D01*
X428248Y285728D02*
Y289075D01*
X422146D02*
X428248D01*
X422146Y285728D02*
Y289075D01*
Y285728D02*
X428248D01*
X396025Y297539D02*
Y300886D01*
X389923D02*
X396025D01*
X389923Y297539D02*
Y300886D01*
Y297539D02*
X396025D01*
X369193Y305413D02*
Y308760D01*
X363090D02*
X369193D01*
X363090Y305413D02*
Y308760D01*
Y305413D02*
X369193D01*
X284350Y317224D02*
Y320571D01*
Y317224D02*
X290453D01*
Y320571D01*
X284350D02*
X290453D01*
X241043Y309350D02*
Y312697D01*
Y309350D02*
X247146D01*
Y312697D01*
X241043D02*
X247146D01*
X174114Y297539D02*
Y300886D01*
Y297539D02*
X180217D01*
Y300886D01*
X174114D02*
X180217D01*
X203051Y205610D02*
X206398D01*
Y211713D01*
X203051D02*
X206398D01*
X203051Y205610D02*
Y211713D01*
X297539Y205610D02*
X300886D01*
Y211713D01*
X297539D02*
X300886D01*
X297539Y205610D02*
Y211713D01*
X332972Y205610D02*
X336319D01*
Y211713D01*
X332972D02*
X336319D01*
X332972Y205610D02*
Y211713D01*
X250295Y205610D02*
X253642D01*
Y211713D01*
X250295D02*
X253642D01*
X250295Y205610D02*
Y211713D01*
X372342Y205610D02*
X375689D01*
Y211713D01*
X372342D02*
X375689D01*
X372342Y205610D02*
Y211713D01*
X419587Y205610D02*
X422933D01*
Y211713D01*
X419587D02*
X422933D01*
X419587Y205610D02*
Y211713D01*
X466831Y237106D02*
X470177D01*
Y243209D01*
X466831D02*
X470177D01*
X466831Y237106D02*
Y243209D01*
X351279Y329035D02*
Y332382D01*
Y329035D02*
X357382D01*
Y332382D01*
X351279D02*
X357382D01*
X165354Y351870D02*
Y356791D01*
X173228D01*
Y351870D02*
Y356791D01*
X165354Y351870D02*
X173228D01*
X503937Y174705D02*
Y179626D01*
X496063Y174705D02*
X503937D01*
X496063D02*
Y179626D01*
X503937D01*
X208661Y174705D02*
Y179626D01*
X216535D01*
Y174705D02*
Y179626D01*
X208661Y174705D02*
X216535D01*
X216535Y351870D02*
X224410D01*
Y356791D01*
X216535D02*
X224410D01*
X216535Y351870D02*
Y356791D01*
X259842Y351870D02*
X267717D01*
Y356791D01*
X259842D02*
X267717D01*
X259842Y351870D02*
Y356791D01*
X307087Y351870D02*
X314961D01*
Y356791D01*
X307087D02*
X314961D01*
X307087Y351870D02*
Y356791D01*
X354331Y351870D02*
X362205D01*
Y356791D01*
X354331D02*
X362205D01*
X354331Y351870D02*
Y356791D01*
X393701Y320374D02*
X401575D01*
Y325295D01*
X393701D02*
X401575D01*
X393701Y320374D02*
Y325295D01*
X444882Y320374D02*
X452756D01*
Y325295D01*
X444882D02*
X452756D01*
X444882Y320374D02*
Y325295D01*
Y174705D02*
X452756D01*
Y179626D01*
X444882D02*
X452756D01*
X444882Y174705D02*
Y179626D01*
X397638Y174705D02*
X405512D01*
Y179626D01*
X397638D02*
X405512D01*
X397638Y174705D02*
Y179626D01*
X350394Y174705D02*
X358268D01*
Y179626D01*
X350394D02*
X358268D01*
X350394Y174705D02*
Y179626D01*
X303150Y174705D02*
X311024D01*
Y179626D01*
X303150D02*
X311024D01*
X303150Y174705D02*
Y179626D01*
X255906Y174705D02*
X263779D01*
Y179626D01*
X255906D02*
X263779D01*
X255906Y174705D02*
Y179626D01*
X324644Y243465D02*
X344648D01*
Y244843D01*
X324644Y243465D02*
Y244843D01*
Y323465D02*
X344648D01*
Y322087D02*
Y323465D01*
X324644Y322087D02*
Y323465D01*
D11*
X162894Y362894D02*
Y369390D01*
X175689Y362894D02*
Y369390D01*
X162894Y362894D02*
X175689D01*
X162894Y369390D02*
X175689D01*
X442421Y331398D02*
Y337894D01*
X455217Y331398D02*
Y337894D01*
X442421Y331398D02*
X455217D01*
X442421Y337894D02*
X455217D01*
X496260Y162106D02*
Y168602D01*
X509055Y162106D02*
Y168602D01*
X496260Y162106D02*
X509055D01*
X496260Y168602D02*
X509055D01*
X218996Y162106D02*
Y168602D01*
X206201Y162106D02*
Y168602D01*
X218996D01*
X206201Y162106D02*
X218996D01*
X214075Y369390D02*
X226870D01*
X214075Y362894D02*
X226870D01*
Y369390D01*
X214075Y362894D02*
Y369390D01*
X257382D02*
X270177D01*
X257382Y362894D02*
X270177D01*
Y369390D01*
X257382Y362894D02*
Y369390D01*
X304626D02*
X317421D01*
X304626Y362894D02*
X317421D01*
Y369390D01*
X304626Y362894D02*
Y369390D01*
X351870D02*
X364665D01*
X351870Y362894D02*
X364665D01*
Y369390D01*
X351870Y362894D02*
Y369390D01*
X391240Y337894D02*
X404035D01*
X391240Y331398D02*
X404035D01*
Y337894D01*
X391240Y331398D02*
Y337894D01*
X442421Y162106D02*
X455217D01*
X442421Y168602D02*
X455217D01*
X442421Y162106D02*
Y168602D01*
X455217Y162106D02*
Y168602D01*
X395177Y162106D02*
X407972D01*
X395177Y168602D02*
X407972D01*
X395177Y162106D02*
Y168602D01*
X407972Y162106D02*
Y168602D01*
X347933Y162106D02*
X360728D01*
X347933Y168602D02*
X360728D01*
X347933Y162106D02*
Y168602D01*
X360728Y162106D02*
Y168602D01*
X300689Y162106D02*
X313484D01*
X300689Y168602D02*
X313484D01*
X300689Y162106D02*
Y168602D01*
X313484Y162106D02*
Y168602D01*
X253445Y162106D02*
X266240D01*
X253445Y168602D02*
X266240D01*
X253445Y162106D02*
Y168602D01*
X266240Y162106D02*
Y168602D01*
X324644Y243465D02*
X344648D01*
X324644D02*
Y323465D01*
X344648D01*
Y243465D02*
Y323465D01*
X324644Y243465D02*
X344648D01*
X324644D02*
Y323465D01*
X344648D01*
D37*
X177504Y254921D02*
X177153Y255885D01*
X176264Y256399D01*
X175253Y256220D01*
X174594Y255434D01*
Y254408D01*
X175253Y253622D01*
X176264Y253444D01*
X177153Y253957D01*
X177504Y254921D01*
D41*
X164015Y276043D02*
X190315D01*
X164015Y243642D02*
Y276043D01*
Y243642D02*
X190315D01*
Y276043D01*
M02*
