G04*
G04 #@! TF.GenerationSoftware,Altium Limited,Altium Designer,20.2.6 (244)*
G04*
G04 Layer_Color=16711935*
%FSLAX25Y25*%
%MOIN*%
G70*
G04*
G04 #@! TF.SameCoordinates,70978490-7E89-439C-AABC-52AAB5A27C99*
G04*
G04*
G04 #@! TF.FilePolarity,Positive*
G04*
G01*
G75*
%ADD10C,0.00787*%
%ADD33C,0.02000*%
%ADD34C,0.00394*%
%ADD39C,0.00100*%
D10*
X313681Y235728D02*
X312894D01*
X313681D01*
X489862Y319783D02*
Y325886D01*
X486516Y319783D02*
X489862D01*
X486516D02*
Y325886D01*
X489862D01*
X182776Y323721D02*
Y329823D01*
X179429Y323721D02*
X182776D01*
X179429D02*
Y329823D01*
X182776D01*
X210335Y323721D02*
Y329823D01*
X206988Y323721D02*
X210335D01*
X206988D02*
Y329823D01*
X210335D01*
X430807Y319783D02*
Y325886D01*
X427461Y319783D02*
X430807D01*
X427461D02*
Y325886D01*
X430807D01*
X458366Y319783D02*
Y325886D01*
X455020Y319783D02*
X458366D01*
X455020D02*
Y325886D01*
X458366D01*
X470768Y174114D02*
Y180217D01*
X474114D01*
Y174114D02*
Y180217D01*
X470768Y174114D02*
X474114D01*
X171555D02*
Y180217D01*
X174902D01*
Y174114D02*
Y180217D01*
X171555Y174114D02*
X174902D01*
X222736D02*
Y180217D01*
X226083D01*
Y174114D02*
Y180217D01*
X222736Y174114D02*
X226083D01*
X372342D02*
Y180217D01*
X375689D01*
Y174114D02*
Y180217D01*
X372342Y174114D02*
X375689D01*
X431398D02*
Y180217D01*
X434744D01*
Y174114D02*
Y180217D01*
X431398Y174114D02*
X434744D01*
X181102Y143209D02*
Y148130D01*
Y143209D02*
X188976D01*
Y148130D01*
X181102D02*
X188976D01*
X421260Y143209D02*
Y148130D01*
Y143209D02*
X429134D01*
Y148130D01*
X421260D02*
X429134D01*
X468504Y375492D02*
Y380413D01*
Y375492D02*
X476378D01*
Y380413D01*
X468504D02*
X476378D01*
X232283Y375492D02*
Y380413D01*
Y375492D02*
X240158D01*
Y380413D01*
X232283D02*
X240158D01*
X362205Y148130D02*
X370079D01*
Y143209D02*
Y148130D01*
X362205Y143209D02*
X370079D01*
X362205D02*
Y148130D01*
X303150D02*
X311024D01*
Y143209D02*
Y148130D01*
X303150Y143209D02*
X311024D01*
X303150D02*
Y148130D01*
X244094D02*
X251969D01*
Y143209D02*
Y148130D01*
X244094Y143209D02*
X251969D01*
X244094D02*
Y148130D01*
X409449Y380413D02*
X417323D01*
Y375492D02*
Y380413D01*
X409449Y375492D02*
X417323D01*
X409449D02*
Y380413D01*
X350394D02*
X358268D01*
Y375492D02*
Y380413D01*
X350394Y375492D02*
X358268D01*
X350394D02*
Y380413D01*
X291729D02*
X299603D01*
Y375492D02*
Y380413D01*
X291729Y375492D02*
X299603D01*
X291729D02*
Y380413D01*
D33*
X396185Y254744D02*
X395834Y255708D01*
X394946Y256221D01*
X393935Y256043D01*
X393275Y255257D01*
Y254231D01*
X393935Y253445D01*
X394946Y253267D01*
X395834Y253780D01*
X396185Y254744D01*
Y211437D02*
X395834Y212401D01*
X394946Y212914D01*
X393935Y212736D01*
X393275Y211950D01*
Y210924D01*
X393935Y210138D01*
X394946Y209959D01*
X395834Y210472D01*
X396185Y211437D01*
X278075Y254744D02*
X277724Y255708D01*
X276835Y256221D01*
X275825Y256043D01*
X275165Y255257D01*
Y254231D01*
X275825Y253445D01*
X276835Y253267D01*
X277724Y253780D01*
X278075Y254744D01*
Y211437D02*
X277724Y212401D01*
X276835Y212914D01*
X275825Y212736D01*
X275165Y211950D01*
Y210924D01*
X275825Y210138D01*
X276835Y209959D01*
X277724Y210472D01*
X278075Y211437D01*
X238705D02*
X238354Y212401D01*
X237465Y212914D01*
X236455Y212736D01*
X235795Y211950D01*
Y210924D01*
X236455Y210138D01*
X237465Y209959D01*
X238354Y210472D01*
X238705Y211437D01*
X317445Y254744D02*
X317094Y255708D01*
X316205Y256221D01*
X315195Y256043D01*
X314535Y255257D01*
Y254231D01*
X315195Y253445D01*
X316205Y253267D01*
X317094Y253780D01*
X317445Y254744D01*
Y294114D02*
X317094Y295078D01*
X316205Y295591D01*
X315195Y295413D01*
X314535Y294627D01*
Y293601D01*
X315195Y292815D01*
X316205Y292637D01*
X317094Y293150D01*
X317445Y294114D01*
X278075D02*
X277724Y295078D01*
X276835Y295591D01*
X275825Y295413D01*
X275165Y294627D01*
Y293601D01*
X275825Y292815D01*
X276835Y292637D01*
X277724Y293150D01*
X278075Y294114D01*
X238705D02*
X238354Y295078D01*
X237465Y295591D01*
X236455Y295413D01*
X235795Y294627D01*
Y293601D01*
X236455Y292815D01*
X237465Y292637D01*
X238354Y293150D01*
X238705Y294114D01*
X199335Y211437D02*
X198984Y212401D01*
X198095Y212914D01*
X197085Y212736D01*
X196425Y211950D01*
Y210924D01*
X197085Y210138D01*
X198095Y209959D01*
X198984Y210472D01*
X199335Y211437D01*
X238705Y254744D02*
X238354Y255708D01*
X237465Y256221D01*
X236455Y256043D01*
X235795Y255257D01*
Y254231D01*
X236455Y253445D01*
X237465Y253267D01*
X238354Y253780D01*
X238705Y254744D01*
X435555Y211437D02*
X435204Y212401D01*
X434316Y212914D01*
X433305Y212736D01*
X432646Y211950D01*
Y210924D01*
X433305Y210138D01*
X434316Y209959D01*
X435204Y210472D01*
X435555Y211437D01*
Y254744D02*
X435204Y255708D01*
X434316Y256221D01*
X433305Y256043D01*
X432646Y255257D01*
Y254231D01*
X433305Y253445D01*
X434316Y253267D01*
X435204Y253780D01*
X435555Y254744D01*
X474925Y211437D02*
X474574Y212401D01*
X473686Y212914D01*
X472675Y212736D01*
X472016Y211950D01*
Y210924D01*
X472675Y210138D01*
X473686Y209959D01*
X474574Y210472D01*
X474925Y211437D01*
X396185Y294114D02*
X395834Y295078D01*
X394946Y295591D01*
X393935Y295413D01*
X393275Y294627D01*
Y293601D01*
X393935Y292815D01*
X394946Y292637D01*
X395834Y293150D01*
X396185Y294114D01*
X356815D02*
X356464Y295078D01*
X355575Y295591D01*
X354565Y295413D01*
X353905Y294627D01*
Y293601D01*
X354565Y292815D01*
X355575Y292637D01*
X356464Y293150D01*
X356815Y294114D01*
X474925Y254744D02*
X474574Y255708D01*
X473686Y256221D01*
X472675Y256043D01*
X472016Y255257D01*
Y254231D01*
X472675Y253445D01*
X473686Y253267D01*
X474574Y253780D01*
X474925Y254744D01*
Y294114D02*
X474574Y295078D01*
X473686Y295591D01*
X472675Y295413D01*
X472016Y294627D01*
Y293601D01*
X472675Y292815D01*
X473686Y292637D01*
X474574Y293150D01*
X474925Y294114D01*
X435555D02*
X435204Y295078D01*
X434316Y295591D01*
X433305Y295413D01*
X432646Y294627D01*
Y293601D01*
X433305Y292815D01*
X434316Y292637D01*
X435204Y293150D01*
X435555Y294114D01*
X199335Y254744D02*
X198984Y255708D01*
X198095Y256221D01*
X197085Y256043D01*
X196425Y255257D01*
Y254231D01*
X197085Y253445D01*
X198095Y253267D01*
X198984Y253780D01*
X199335Y254744D01*
Y294114D02*
X198984Y295078D01*
X198095Y295591D01*
X197085Y295413D01*
X196425Y294627D01*
Y293601D01*
X197085Y292815D01*
X198095Y292637D01*
X198984Y293150D01*
X199335Y294114D01*
X356815Y254744D02*
X356464Y255708D01*
X355575Y256221D01*
X354565Y256043D01*
X353905Y255257D01*
Y254231D01*
X354565Y253445D01*
X355575Y253267D01*
X356464Y253780D01*
X356815Y254744D01*
X319821Y210726D02*
X319470Y211690D01*
X318581Y212203D01*
X317571Y212025D01*
X316911Y211239D01*
Y210213D01*
X317571Y209427D01*
X318581Y209248D01*
X319470Y209761D01*
X319821Y210726D01*
X356815Y211437D02*
X356464Y212401D01*
X355575Y212914D01*
X354565Y212736D01*
X353905Y211950D01*
Y210924D01*
X354565Y210138D01*
X355575Y209959D01*
X356464Y210472D01*
X356815Y211437D01*
D34*
X320709Y230591D02*
X340709D01*
Y320590D01*
X320709D02*
X340709D01*
X320709Y230591D02*
Y320590D01*
Y230591D02*
X340709D01*
Y320590D01*
X320709D02*
X340709D01*
X191437Y154232D02*
Y160728D01*
X178642Y154232D02*
Y160728D01*
Y154232D02*
X191437D01*
X178642Y160728D02*
X191437D01*
X431595Y154232D02*
Y160728D01*
X418799Y154232D02*
Y160728D01*
Y154232D02*
X431595D01*
X418799Y160728D02*
X431595D01*
X478839Y362894D02*
Y369390D01*
X466043Y362894D02*
Y369390D01*
Y362894D02*
X478839D01*
X466043Y369390D02*
X478839D01*
X242618Y362894D02*
Y369390D01*
X229823Y362894D02*
Y369390D01*
Y362894D02*
X242618D01*
X229823Y369390D02*
X242618D01*
X359744Y160728D02*
X372539D01*
X359744Y154232D02*
X372539D01*
X359744D02*
Y160728D01*
X372539Y154232D02*
Y160728D01*
X300689D02*
X313484D01*
X300689Y154232D02*
X313484D01*
X300689D02*
Y160728D01*
X313484Y154232D02*
Y160728D01*
X241634D02*
X254429D01*
X241634Y154232D02*
X254429D01*
X241634D02*
Y160728D01*
X254429Y154232D02*
Y160728D01*
X406988Y369390D02*
X419783D01*
X406988Y362894D02*
X419783D01*
X406988D02*
Y369390D01*
X419783Y362894D02*
Y369390D01*
X347933D02*
X360728D01*
X347933Y362894D02*
X360728D01*
X347933D02*
Y369390D01*
X360728Y362894D02*
Y369390D01*
X287598D02*
X300394D01*
X287598Y362894D02*
X300394D01*
X287598D02*
Y369390D01*
X300394Y362894D02*
Y369390D01*
D39*
X373564Y269056D02*
X405964D01*
Y242756D02*
Y269056D01*
X373564Y242756D02*
X405964D01*
X373564D02*
Y269056D01*
Y225748D02*
X405964D01*
Y199448D02*
Y225748D01*
X373564Y199448D02*
X405964D01*
X373564D02*
Y225748D01*
X255453Y269056D02*
X287854D01*
Y242756D02*
Y269056D01*
X255453Y242756D02*
X287854D01*
X255453D02*
Y269056D01*
Y225748D02*
X287854D01*
Y199448D02*
Y225748D01*
X255453Y199448D02*
X287854D01*
X255453D02*
Y225748D01*
X216084D02*
X248483D01*
Y199448D02*
Y225748D01*
X216084Y199448D02*
X248483D01*
X216084D02*
Y225748D01*
X294824Y269056D02*
X327224D01*
Y242756D02*
Y269056D01*
X294824Y242756D02*
X327224D01*
X294824D02*
Y269056D01*
Y308426D02*
X327224D01*
Y282126D02*
Y308426D01*
X294824Y282126D02*
X327224D01*
X294824D02*
Y308426D01*
X255453D02*
X287854D01*
Y282126D02*
Y308426D01*
X255453Y282126D02*
X287854D01*
X255453D02*
Y308426D01*
X216084D02*
X248483D01*
Y282126D02*
Y308426D01*
X216084Y282126D02*
X248483D01*
X216084D02*
Y308426D01*
X176713Y225748D02*
X209113D01*
Y199448D02*
Y225748D01*
X176713Y199448D02*
X209113D01*
X176713D02*
Y225748D01*
X216084Y269056D02*
X248483D01*
Y242756D02*
Y269056D01*
X216084Y242756D02*
X248483D01*
X216084D02*
Y269056D01*
X412934Y225748D02*
X445334D01*
Y199448D02*
Y225748D01*
X412934Y199448D02*
X445334D01*
X412934D02*
Y225748D01*
Y269056D02*
X445334D01*
Y242756D02*
Y269056D01*
X412934Y242756D02*
X445334D01*
X412934D02*
Y269056D01*
X452304Y225748D02*
X484704D01*
Y199448D02*
Y225748D01*
X452304Y199448D02*
X484704D01*
X452304D02*
Y225748D01*
X373564Y308426D02*
X405964D01*
Y282126D02*
Y308426D01*
X373564Y282126D02*
X405964D01*
X373564D02*
Y308426D01*
X334194D02*
X366594D01*
Y282126D02*
Y308426D01*
X334194Y282126D02*
X366594D01*
X334194D02*
Y308426D01*
X452304Y269056D02*
X484704D01*
Y242756D02*
Y269056D01*
X452304Y242756D02*
X484704D01*
X452304D02*
Y269056D01*
Y308426D02*
X484704D01*
Y282126D02*
Y308426D01*
X452304Y282126D02*
X484704D01*
X452304D02*
Y308426D01*
X412934D02*
X445334D01*
Y282126D02*
Y308426D01*
X412934Y282126D02*
X445334D01*
X412934D02*
Y308426D01*
X176713Y269056D02*
X209113D01*
Y242756D02*
Y269056D01*
X176713Y242756D02*
X209113D01*
X176713D02*
Y269056D01*
Y308426D02*
X209113D01*
Y282126D02*
Y308426D01*
X176713Y282126D02*
X209113D01*
X176713D02*
Y308426D01*
X334194Y269056D02*
X366594D01*
Y242756D02*
Y269056D01*
X334194Y242756D02*
X366594D01*
X334194D02*
Y269056D01*
X297200Y225037D02*
X329600D01*
Y198737D02*
Y225037D01*
X297200Y198737D02*
X329600D01*
X297200D02*
Y225037D01*
X334194Y199448D02*
Y225748D01*
Y199448D02*
X366594D01*
Y225748D01*
X334194D02*
X366594D01*
M02*
