G04*
G04 #@! TF.GenerationSoftware,Altium Limited,Altium Designer,21.1.1 (26)*
G04*
G04 Layer_Color=8388736*
%FSLAX25Y25*%
%MOIN*%
G70*
G04*
G04 #@! TF.SameCoordinates,5D9DAD53-06A7-4B73-8655-5B298560343D*
G04*
G04*
G04 #@! TF.FilePolarity,Positive*
G04*
G01*
G75*
%ADD11C,0.00787*%
G36*
X179684Y298878D02*
X178228D01*
X178225D01*
X178214D01*
X178196D01*
X178174D01*
X178148Y298874D01*
X178115D01*
X178046Y298870D01*
X177966Y298863D01*
X177886Y298852D01*
X177810Y298838D01*
X177777Y298830D01*
X177744Y298819D01*
X177737Y298816D01*
X177719Y298809D01*
X177693Y298790D01*
X177657Y298768D01*
X177620Y298743D01*
X177580Y298707D01*
X177540Y298663D01*
X177507Y298612D01*
X177504Y298605D01*
X177493Y298587D01*
X177482Y298554D01*
X177468Y298510D01*
X177449Y298459D01*
X177438Y298394D01*
X177427Y298324D01*
X177424Y298248D01*
Y298212D01*
X177427Y298190D01*
Y298157D01*
X177431Y298124D01*
X177446Y298044D01*
X177464Y297957D01*
X177493Y297873D01*
X177533Y297793D01*
X177559Y297757D01*
X177588Y297724D01*
X177591Y297720D01*
X177595Y297717D01*
X177606Y297709D01*
X177620Y297698D01*
X177642Y297687D01*
X177664Y297673D01*
X177697Y297658D01*
X177729Y297644D01*
X177770Y297629D01*
X177817Y297618D01*
X177872Y297604D01*
X177930Y297593D01*
X177995Y297582D01*
X178064Y297575D01*
X178145Y297567D01*
X178228D01*
X179684D01*
Y297232D01*
X178228D01*
X178225D01*
X178210D01*
X178192D01*
X178166D01*
X178134Y297236D01*
X178097D01*
X178053Y297240D01*
X178010Y297243D01*
X177912Y297254D01*
X177810Y297269D01*
X177711Y297291D01*
X177664Y297305D01*
X177620Y297320D01*
X177617D01*
X177609Y297323D01*
X177599Y297331D01*
X177584Y297338D01*
X177544Y297360D01*
X177493Y297393D01*
X177435Y297436D01*
X177376Y297487D01*
X177315Y297553D01*
X177260Y297633D01*
Y297637D01*
X177253Y297644D01*
X177249Y297655D01*
X177238Y297673D01*
X177227Y297695D01*
X177216Y297724D01*
X177205Y297753D01*
X177191Y297789D01*
X177176Y297829D01*
X177165Y297873D01*
X177154Y297920D01*
X177144Y297975D01*
X177136Y298030D01*
X177129Y298088D01*
X177122Y298219D01*
Y298252D01*
X177125Y298277D01*
Y298306D01*
X177129Y298343D01*
X177133Y298383D01*
X177136Y298423D01*
X177151Y298514D01*
X177173Y298612D01*
X177202Y298707D01*
X177242Y298798D01*
Y298801D01*
X177249Y298809D01*
X177256Y298819D01*
X177264Y298834D01*
X177293Y298874D01*
X177333Y298921D01*
X177384Y298976D01*
X177442Y299027D01*
X177515Y299078D01*
X177595Y299118D01*
X177599D01*
X177606Y299122D01*
X177620Y299125D01*
X177639Y299132D01*
X177660Y299140D01*
X177690Y299147D01*
X177722Y299158D01*
X177762Y299165D01*
X177806Y299173D01*
X177853Y299184D01*
X177904Y299191D01*
X177959Y299198D01*
X178021Y299205D01*
X178086Y299209D01*
X178155Y299213D01*
X178228D01*
X179684D01*
Y298878D01*
D02*
G37*
G36*
X177872Y296490D02*
X177868D01*
X177861Y296486D01*
X177846Y296483D01*
X177828Y296479D01*
X177806Y296475D01*
X177780Y296468D01*
X177726Y296450D01*
X177660Y296424D01*
X177599Y296392D01*
X177540Y296355D01*
X177489Y296311D01*
X177486Y296304D01*
X177471Y296290D01*
X177453Y296261D01*
X177435Y296224D01*
X177413Y296181D01*
X177395Y296126D01*
X177380Y296064D01*
X177376Y295999D01*
Y295977D01*
X177380Y295962D01*
X177384Y295922D01*
X177395Y295871D01*
X177413Y295813D01*
X177438Y295751D01*
X177475Y295689D01*
X177526Y295631D01*
X177533Y295624D01*
X177555Y295605D01*
X177588Y295584D01*
X177631Y295554D01*
X177686Y295525D01*
X177748Y295503D01*
X177821Y295485D01*
X177901Y295478D01*
X177904D01*
X177912D01*
X177922D01*
X177937Y295482D01*
X177977Y295485D01*
X178024Y295496D01*
X178083Y295511D01*
X178141Y295536D01*
X178199Y295573D01*
X178254Y295620D01*
X178261Y295627D01*
X178276Y295645D01*
X178297Y295674D01*
X178323Y295715D01*
X178348Y295765D01*
X178370Y295827D01*
X178385Y295897D01*
X178392Y295973D01*
Y296006D01*
X178388Y296031D01*
X178385Y296064D01*
X178377Y296100D01*
X178370Y296144D01*
X178359Y296191D01*
X178632Y296155D01*
Y296137D01*
X178629Y296122D01*
Y296075D01*
X178636Y296035D01*
X178643Y295988D01*
X178654Y295933D01*
X178672Y295871D01*
X178698Y295813D01*
X178730Y295751D01*
Y295747D01*
X178734Y295744D01*
X178749Y295725D01*
X178774Y295700D01*
X178807Y295671D01*
X178854Y295642D01*
X178909Y295616D01*
X178971Y295598D01*
X179007Y295591D01*
X179047D01*
X179051D01*
X179054D01*
X179076D01*
X179105Y295598D01*
X179146Y295605D01*
X179189Y295620D01*
X179236Y295638D01*
X179284Y295667D01*
X179327Y295707D01*
X179331Y295711D01*
X179346Y295729D01*
X179364Y295755D01*
X179386Y295787D01*
X179404Y295831D01*
X179422Y295882D01*
X179437Y295940D01*
X179440Y296006D01*
Y296035D01*
X179433Y296068D01*
X179426Y296111D01*
X179411Y296159D01*
X179393Y296206D01*
X179364Y296257D01*
X179327Y296304D01*
X179324Y296308D01*
X179306Y296322D01*
X179280Y296344D01*
X179244Y296370D01*
X179197Y296395D01*
X179138Y296421D01*
X179069Y296443D01*
X178989Y296457D01*
X179044Y296766D01*
X179047D01*
X179058Y296763D01*
X179073Y296759D01*
X179095Y296756D01*
X179120Y296748D01*
X179149Y296737D01*
X179218Y296716D01*
X179298Y296679D01*
X179378Y296636D01*
X179455Y296581D01*
X179524Y296512D01*
X179528Y296508D01*
X179531Y296501D01*
X179539Y296490D01*
X179550Y296475D01*
X179564Y296457D01*
X179579Y296432D01*
X179593Y296406D01*
X179611Y296373D01*
X179641Y296301D01*
X179670Y296217D01*
X179688Y296119D01*
X179695Y296068D01*
Y295977D01*
X179692Y295937D01*
X179684Y295889D01*
X179673Y295831D01*
X179655Y295765D01*
X179633Y295700D01*
X179604Y295635D01*
Y295631D01*
X179601Y295627D01*
X179590Y295605D01*
X179568Y295573D01*
X179542Y295536D01*
X179506Y295493D01*
X179466Y295449D01*
X179419Y295405D01*
X179364Y295369D01*
X179357Y295365D01*
X179338Y295354D01*
X179306Y295340D01*
X179266Y295321D01*
X179218Y295303D01*
X179164Y295289D01*
X179102Y295278D01*
X179040Y295274D01*
X179033D01*
X179011D01*
X178982Y295278D01*
X178942Y295285D01*
X178894Y295296D01*
X178843Y295314D01*
X178792Y295336D01*
X178742Y295365D01*
X178734Y295369D01*
X178720Y295380D01*
X178694Y295402D01*
X178665Y295431D01*
X178632Y295467D01*
X178596Y295511D01*
X178563Y295562D01*
X178530Y295624D01*
Y295620D01*
X178527Y295613D01*
X178523Y295602D01*
X178519Y295587D01*
X178505Y295547D01*
X178483Y295496D01*
X178454Y295438D01*
X178418Y295380D01*
X178370Y295325D01*
X178316Y295274D01*
X178308Y295270D01*
X178287Y295256D01*
X178250Y295234D01*
X178203Y295212D01*
X178145Y295190D01*
X178075Y295169D01*
X177995Y295154D01*
X177908Y295150D01*
X177904D01*
X177893D01*
X177875D01*
X177853Y295154D01*
X177824Y295158D01*
X177791Y295165D01*
X177755Y295172D01*
X177715Y295180D01*
X177628Y295209D01*
X177580Y295230D01*
X177537Y295252D01*
X177489Y295281D01*
X177442Y295314D01*
X177395Y295351D01*
X177351Y295394D01*
X177347Y295398D01*
X177340Y295405D01*
X177329Y295420D01*
X177315Y295438D01*
X177296Y295460D01*
X177278Y295489D01*
X177256Y295522D01*
X177238Y295562D01*
X177216Y295602D01*
X177194Y295649D01*
X177176Y295696D01*
X177158Y295751D01*
X177144Y295809D01*
X177133Y295871D01*
X177125Y295933D01*
X177122Y296002D01*
Y296035D01*
X177125Y296057D01*
X177129Y296086D01*
X177133Y296119D01*
X177140Y296155D01*
X177147Y296195D01*
X177169Y296282D01*
X177205Y296373D01*
X177227Y296421D01*
X177253Y296464D01*
X177286Y296508D01*
X177318Y296552D01*
X177322Y296555D01*
X177329Y296563D01*
X177340Y296574D01*
X177355Y296585D01*
X177373Y296603D01*
X177398Y296621D01*
X177424Y296643D01*
X177456Y296665D01*
X177493Y296686D01*
X177529Y296708D01*
X177617Y296748D01*
X177719Y296781D01*
X177773Y296792D01*
X177831Y296799D01*
X177872Y296490D01*
D02*
G37*
G36*
X427716Y298878D02*
X426260D01*
X426256D01*
X426245D01*
X426227D01*
X426205D01*
X426180Y298874D01*
X426147D01*
X426078Y298870D01*
X425998Y298863D01*
X425918Y298852D01*
X425841Y298838D01*
X425808Y298830D01*
X425776Y298819D01*
X425768Y298816D01*
X425750Y298809D01*
X425725Y298790D01*
X425688Y298768D01*
X425652Y298743D01*
X425612Y298707D01*
X425572Y298663D01*
X425539Y298612D01*
X425535Y298605D01*
X425524Y298587D01*
X425514Y298554D01*
X425499Y298510D01*
X425481Y298459D01*
X425470Y298394D01*
X425459Y298324D01*
X425455Y298248D01*
Y298212D01*
X425459Y298190D01*
Y298157D01*
X425463Y298124D01*
X425477Y298044D01*
X425495Y297957D01*
X425524Y297873D01*
X425564Y297793D01*
X425590Y297757D01*
X425619Y297724D01*
X425623Y297720D01*
X425626Y297717D01*
X425637Y297709D01*
X425652Y297698D01*
X425674Y297687D01*
X425696Y297673D01*
X425728Y297658D01*
X425761Y297644D01*
X425801Y297629D01*
X425848Y297618D01*
X425903Y297604D01*
X425961Y297593D01*
X426027Y297582D01*
X426096Y297575D01*
X426176Y297567D01*
X426260D01*
X427716D01*
Y297232D01*
X426260D01*
X426256D01*
X426241D01*
X426223D01*
X426198D01*
X426165Y297236D01*
X426129D01*
X426085Y297240D01*
X426041Y297243D01*
X425943Y297254D01*
X425841Y297269D01*
X425743Y297291D01*
X425696Y297305D01*
X425652Y297320D01*
X425648D01*
X425641Y297323D01*
X425630Y297331D01*
X425615Y297338D01*
X425575Y297360D01*
X425524Y297393D01*
X425466Y297436D01*
X425408Y297487D01*
X425346Y297553D01*
X425291Y297633D01*
Y297637D01*
X425284Y297644D01*
X425281Y297655D01*
X425270Y297673D01*
X425259Y297695D01*
X425248Y297724D01*
X425237Y297753D01*
X425222Y297789D01*
X425208Y297829D01*
X425197Y297873D01*
X425186Y297920D01*
X425175Y297975D01*
X425168Y298030D01*
X425161Y298088D01*
X425153Y298219D01*
Y298252D01*
X425157Y298277D01*
Y298306D01*
X425161Y298343D01*
X425164Y298383D01*
X425168Y298423D01*
X425182Y298514D01*
X425204Y298612D01*
X425233Y298707D01*
X425273Y298798D01*
Y298801D01*
X425281Y298809D01*
X425288Y298819D01*
X425295Y298834D01*
X425324Y298874D01*
X425364Y298921D01*
X425415Y298976D01*
X425473Y299027D01*
X425546Y299078D01*
X425626Y299118D01*
X425630D01*
X425637Y299122D01*
X425652Y299125D01*
X425670Y299132D01*
X425692Y299140D01*
X425721Y299147D01*
X425754Y299158D01*
X425794Y299165D01*
X425838Y299173D01*
X425885Y299184D01*
X425936Y299191D01*
X425990Y299198D01*
X426052Y299205D01*
X426118Y299209D01*
X426187Y299213D01*
X426260D01*
X427716D01*
Y298878D01*
D02*
G37*
G36*
X425881Y296479D02*
X425878D01*
X425870D01*
X425859Y296475D01*
X425841Y296472D01*
X425801Y296461D01*
X425746Y296446D01*
X425692Y296424D01*
X425630Y296395D01*
X425575Y296359D01*
X425524Y296315D01*
X425521Y296308D01*
X425506Y296293D01*
X425488Y296264D01*
X425466Y296224D01*
X425444Y296181D01*
X425426Y296126D01*
X425412Y296064D01*
X425408Y295995D01*
Y295973D01*
X425412Y295958D01*
X425415Y295915D01*
X425430Y295864D01*
X425448Y295802D01*
X425477Y295740D01*
X425521Y295674D01*
X425546Y295645D01*
X425575Y295616D01*
X425579Y295613D01*
X425583Y295609D01*
X425594Y295602D01*
X425604Y295591D01*
X425645Y295565D01*
X425696Y295536D01*
X425757Y295511D01*
X425834Y295485D01*
X425925Y295467D01*
X425972Y295460D01*
X426023D01*
X426027D01*
X426034D01*
X426049D01*
X426067Y295463D01*
X426089D01*
X426114Y295467D01*
X426172Y295478D01*
X426241Y295496D01*
X426311Y295522D01*
X426376Y295558D01*
X426438Y295609D01*
X426442D01*
X426445Y295616D01*
X426464Y295635D01*
X426489Y295667D01*
X426518Y295711D01*
X426544Y295769D01*
X426569Y295835D01*
X426587Y295911D01*
X426595Y295955D01*
Y296024D01*
X426591Y296053D01*
X426587Y296090D01*
X426576Y296133D01*
X426566Y296177D01*
X426547Y296224D01*
X426525Y296271D01*
X426522Y296275D01*
X426514Y296290D01*
X426496Y296311D01*
X426478Y296341D01*
X426453Y296370D01*
X426420Y296399D01*
X426387Y296432D01*
X426347Y296457D01*
X426387Y296748D01*
X427683Y296504D01*
Y295252D01*
X427388D01*
Y296261D01*
X426707Y296395D01*
X426711Y296392D01*
X426715Y296384D01*
X426722Y296373D01*
X426733Y296355D01*
X426744Y296333D01*
X426758Y296308D01*
X426788Y296250D01*
X426817Y296177D01*
X426842Y296097D01*
X426860Y296009D01*
X426868Y295966D01*
Y295886D01*
X426864Y295864D01*
X426860Y295835D01*
X426857Y295802D01*
X426849Y295765D01*
X426838Y295725D01*
X426813Y295638D01*
X426795Y295591D01*
X426769Y295544D01*
X426744Y295496D01*
X426715Y295449D01*
X426678Y295405D01*
X426638Y295361D01*
X426635Y295358D01*
X426627Y295351D01*
X426616Y295340D01*
X426598Y295325D01*
X426573Y295307D01*
X426547Y295289D01*
X426514Y295267D01*
X426478Y295245D01*
X426438Y295227D01*
X426394Y295205D01*
X426343Y295187D01*
X426293Y295169D01*
X426238Y295154D01*
X426176Y295143D01*
X426114Y295136D01*
X426049Y295132D01*
X426045D01*
X426034D01*
X426016D01*
X425990Y295136D01*
X425961Y295139D01*
X425928Y295143D01*
X425888Y295150D01*
X425848Y295158D01*
X425754Y295180D01*
X425656Y295216D01*
X425604Y295238D01*
X425557Y295267D01*
X425506Y295296D01*
X425459Y295332D01*
X425455Y295336D01*
X425444Y295343D01*
X425430Y295358D01*
X425412Y295376D01*
X425390Y295402D01*
X425361Y295431D01*
X425335Y295467D01*
X425306Y295507D01*
X425277Y295551D01*
X425251Y295602D01*
X425226Y295656D01*
X425201Y295715D01*
X425182Y295776D01*
X425168Y295846D01*
X425157Y295918D01*
X425153Y295995D01*
Y296028D01*
X425157Y296053D01*
X425161Y296082D01*
X425164Y296115D01*
X425168Y296155D01*
X425179Y296195D01*
X425201Y296286D01*
X425233Y296377D01*
X425255Y296424D01*
X425281Y296472D01*
X425310Y296515D01*
X425343Y296559D01*
X425346Y296563D01*
X425350Y296570D01*
X425364Y296577D01*
X425379Y296592D01*
X425397Y296610D01*
X425419Y296628D01*
X425448Y296650D01*
X425481Y296668D01*
X425514Y296690D01*
X425554Y296712D01*
X425641Y296752D01*
X425743Y296785D01*
X425798Y296796D01*
X425856Y296803D01*
X425881Y296479D01*
D02*
G37*
G36*
X455275Y298878D02*
X453819D01*
X453815D01*
X453804D01*
X453786D01*
X453764D01*
X453739Y298874D01*
X453706D01*
X453637Y298870D01*
X453557Y298863D01*
X453477Y298852D01*
X453400Y298838D01*
X453367Y298830D01*
X453335Y298819D01*
X453327Y298816D01*
X453309Y298809D01*
X453284Y298790D01*
X453247Y298768D01*
X453211Y298743D01*
X453171Y298707D01*
X453131Y298663D01*
X453098Y298612D01*
X453094Y298605D01*
X453084Y298587D01*
X453073Y298554D01*
X453058Y298510D01*
X453040Y298459D01*
X453029Y298394D01*
X453018Y298324D01*
X453014Y298248D01*
Y298212D01*
X453018Y298190D01*
Y298157D01*
X453022Y298124D01*
X453036Y298044D01*
X453054Y297957D01*
X453084Y297873D01*
X453124Y297793D01*
X453149Y297757D01*
X453178Y297724D01*
X453182Y297720D01*
X453185Y297717D01*
X453196Y297709D01*
X453211Y297698D01*
X453233Y297687D01*
X453255Y297673D01*
X453287Y297658D01*
X453320Y297644D01*
X453360Y297629D01*
X453407Y297618D01*
X453462Y297604D01*
X453520Y297593D01*
X453586Y297582D01*
X453655Y297575D01*
X453735Y297567D01*
X453819D01*
X455275D01*
Y297232D01*
X453819D01*
X453815D01*
X453801D01*
X453782D01*
X453757D01*
X453724Y297236D01*
X453688D01*
X453644Y297240D01*
X453600Y297243D01*
X453502Y297254D01*
X453400Y297269D01*
X453302Y297291D01*
X453255Y297305D01*
X453211Y297320D01*
X453207D01*
X453200Y297323D01*
X453189Y297331D01*
X453174Y297338D01*
X453134Y297360D01*
X453084Y297393D01*
X453025Y297436D01*
X452967Y297487D01*
X452905Y297553D01*
X452851Y297633D01*
Y297637D01*
X452843Y297644D01*
X452840Y297655D01*
X452829Y297673D01*
X452818Y297695D01*
X452807Y297724D01*
X452796Y297753D01*
X452781Y297789D01*
X452767Y297829D01*
X452756Y297873D01*
X452745Y297920D01*
X452734Y297975D01*
X452727Y298030D01*
X452719Y298088D01*
X452712Y298219D01*
Y298252D01*
X452716Y298277D01*
Y298306D01*
X452719Y298343D01*
X452723Y298383D01*
X452727Y298423D01*
X452741Y298514D01*
X452763Y298612D01*
X452792Y298707D01*
X452832Y298798D01*
Y298801D01*
X452840Y298809D01*
X452847Y298819D01*
X452854Y298834D01*
X452883Y298874D01*
X452923Y298921D01*
X452974Y298976D01*
X453032Y299027D01*
X453105Y299078D01*
X453185Y299118D01*
X453189D01*
X453196Y299122D01*
X453211Y299125D01*
X453229Y299132D01*
X453251Y299140D01*
X453280Y299147D01*
X453313Y299158D01*
X453353Y299165D01*
X453397Y299173D01*
X453444Y299184D01*
X453495Y299191D01*
X453549Y299198D01*
X453611Y299205D01*
X453677Y299209D01*
X453746Y299213D01*
X453819D01*
X455275D01*
Y298878D01*
D02*
G37*
G36*
X454001Y296814D02*
X454052D01*
X454110Y296810D01*
X454179Y296803D01*
X454256Y296796D01*
X454339Y296785D01*
X454423Y296770D01*
X454514Y296752D01*
X454601Y296730D01*
X454689Y296705D01*
X454773Y296672D01*
X454852Y296636D01*
X454929Y296595D01*
X454994Y296548D01*
X454998Y296545D01*
X455005Y296537D01*
X455020Y296523D01*
X455042Y296504D01*
X455064Y296483D01*
X455086Y296453D01*
X455115Y296417D01*
X455140Y296381D01*
X455166Y296337D01*
X455195Y296290D01*
X455217Y296235D01*
X455242Y296181D01*
X455260Y296119D01*
X455275Y296053D01*
X455282Y295984D01*
X455286Y295911D01*
Y295882D01*
X455282Y295860D01*
Y295835D01*
X455278Y295806D01*
X455264Y295736D01*
X455246Y295660D01*
X455217Y295580D01*
X455173Y295500D01*
X455147Y295460D01*
X455118Y295423D01*
X455115Y295420D01*
X455111Y295416D01*
X455100Y295405D01*
X455089Y295394D01*
X455071Y295376D01*
X455049Y295361D01*
X454998Y295321D01*
X454933Y295281D01*
X454852Y295245D01*
X454762Y295212D01*
X454660Y295190D01*
X454634Y295500D01*
X454638D01*
X454641Y295503D01*
X454663Y295507D01*
X454696Y295518D01*
X454736Y295533D01*
X454780Y295547D01*
X454823Y295569D01*
X454864Y295594D01*
X454896Y295620D01*
X454904Y295627D01*
X454918Y295642D01*
X454940Y295667D01*
X454965Y295704D01*
X454987Y295751D01*
X455009Y295802D01*
X455024Y295864D01*
X455031Y295929D01*
Y295955D01*
X455027Y295984D01*
X455020Y296017D01*
X455009Y296060D01*
X454994Y296104D01*
X454976Y296148D01*
X454947Y296191D01*
X454944Y296199D01*
X454929Y296217D01*
X454904Y296242D01*
X454867Y296275D01*
X454823Y296311D01*
X454773Y296352D01*
X454707Y296388D01*
X454634Y296424D01*
X454631D01*
X454623Y296428D01*
X454612Y296432D01*
X454598Y296439D01*
X454576Y296443D01*
X454550Y296450D01*
X454521Y296457D01*
X454485Y296464D01*
X454445Y296475D01*
X454401Y296483D01*
X454354Y296490D01*
X454303Y296494D01*
X454245Y296501D01*
X454186Y296504D01*
X454121Y296508D01*
X454055D01*
X454059Y296504D01*
X454081Y296490D01*
X454110Y296464D01*
X454146Y296432D01*
X454190Y296395D01*
X454230Y296348D01*
X454270Y296297D01*
X454307Y296239D01*
Y296235D01*
X454310Y296231D01*
X454321Y296210D01*
X454332Y296177D01*
X454350Y296133D01*
X454365Y296082D01*
X454376Y296024D01*
X454387Y295962D01*
X454390Y295897D01*
Y295867D01*
X454387Y295846D01*
X454383Y295816D01*
X454379Y295787D01*
X454372Y295751D01*
X454361Y295715D01*
X454336Y295631D01*
X454318Y295587D01*
X454292Y295544D01*
X454267Y295500D01*
X454237Y295452D01*
X454201Y295409D01*
X454161Y295369D01*
X454157Y295365D01*
X454150Y295358D01*
X454139Y295347D01*
X454121Y295336D01*
X454095Y295318D01*
X454070Y295300D01*
X454037Y295281D01*
X454001Y295260D01*
X453961Y295238D01*
X453917Y295219D01*
X453866Y295201D01*
X453815Y295183D01*
X453760Y295172D01*
X453699Y295161D01*
X453637Y295154D01*
X453571Y295150D01*
X453568D01*
X453560D01*
X453549D01*
X453531D01*
X453509Y295154D01*
X453488D01*
X453429Y295165D01*
X453360Y295176D01*
X453287Y295194D01*
X453207Y295219D01*
X453131Y295256D01*
X453127D01*
X453124Y295260D01*
X453113Y295267D01*
X453098Y295274D01*
X453062Y295296D01*
X453014Y295329D01*
X452963Y295369D01*
X452912Y295416D01*
X452861Y295474D01*
X452818Y295536D01*
Y295540D01*
X452814Y295544D01*
X452807Y295554D01*
X452803Y295569D01*
X452785Y295605D01*
X452767Y295653D01*
X452745Y295715D01*
X452730Y295784D01*
X452716Y295860D01*
X452712Y295944D01*
Y295962D01*
X452716Y295980D01*
Y296009D01*
X452719Y296042D01*
X452727Y296079D01*
X452738Y296122D01*
X452749Y296166D01*
X452763Y296217D01*
X452781Y296268D01*
X452803Y296319D01*
X452832Y296373D01*
X452865Y296424D01*
X452902Y296475D01*
X452945Y296526D01*
X452996Y296574D01*
X453000Y296577D01*
X453011Y296585D01*
X453025Y296595D01*
X453051Y296610D01*
X453084Y296632D01*
X453120Y296650D01*
X453167Y296672D01*
X453218Y296694D01*
X453280Y296719D01*
X453349Y296741D01*
X453426Y296759D01*
X453509Y296777D01*
X453604Y296796D01*
X453706Y296807D01*
X453815Y296814D01*
X453932Y296817D01*
X453935D01*
X453939D01*
X453950D01*
X453964D01*
X454001Y296814D01*
D02*
G37*
G36*
X482834Y298878D02*
X481378D01*
X481374D01*
X481363D01*
X481345D01*
X481323D01*
X481298Y298874D01*
X481265D01*
X481196Y298870D01*
X481116Y298863D01*
X481036Y298852D01*
X480959Y298838D01*
X480927Y298830D01*
X480894Y298819D01*
X480886Y298816D01*
X480868Y298809D01*
X480843Y298790D01*
X480806Y298768D01*
X480770Y298743D01*
X480730Y298707D01*
X480690Y298663D01*
X480657Y298612D01*
X480653Y298605D01*
X480643Y298587D01*
X480632Y298554D01*
X480617Y298510D01*
X480599Y298459D01*
X480588Y298394D01*
X480577Y298324D01*
X480573Y298248D01*
Y298212D01*
X480577Y298190D01*
Y298157D01*
X480581Y298124D01*
X480595Y298044D01*
X480613Y297957D01*
X480643Y297873D01*
X480683Y297793D01*
X480708Y297757D01*
X480737Y297724D01*
X480741Y297720D01*
X480745Y297717D01*
X480755Y297709D01*
X480770Y297698D01*
X480792Y297687D01*
X480814Y297673D01*
X480846Y297658D01*
X480879Y297644D01*
X480919Y297629D01*
X480967Y297618D01*
X481021Y297604D01*
X481079Y297593D01*
X481145Y297582D01*
X481214Y297575D01*
X481294Y297567D01*
X481378D01*
X482834D01*
Y297232D01*
X481378D01*
X481374D01*
X481360D01*
X481341D01*
X481316D01*
X481283Y297236D01*
X481247D01*
X481203Y297240D01*
X481159Y297243D01*
X481061Y297254D01*
X480959Y297269D01*
X480861Y297291D01*
X480814Y297305D01*
X480770Y297320D01*
X480766D01*
X480759Y297323D01*
X480748Y297331D01*
X480734Y297338D01*
X480693Y297360D01*
X480643Y297393D01*
X480584Y297436D01*
X480526Y297487D01*
X480464Y297553D01*
X480410Y297633D01*
Y297637D01*
X480402Y297644D01*
X480399Y297655D01*
X480388Y297673D01*
X480377Y297695D01*
X480366Y297724D01*
X480355Y297753D01*
X480340Y297789D01*
X480326Y297829D01*
X480315Y297873D01*
X480304Y297920D01*
X480293Y297975D01*
X480286Y298030D01*
X480279Y298088D01*
X480271Y298219D01*
Y298252D01*
X480275Y298277D01*
Y298306D01*
X480279Y298343D01*
X480282Y298383D01*
X480286Y298423D01*
X480300Y298514D01*
X480322Y298612D01*
X480351Y298707D01*
X480391Y298798D01*
Y298801D01*
X480399Y298809D01*
X480406Y298819D01*
X480413Y298834D01*
X480442Y298874D01*
X480482Y298921D01*
X480533Y298976D01*
X480592Y299027D01*
X480664Y299078D01*
X480745Y299118D01*
X480748D01*
X480755Y299122D01*
X480770Y299125D01*
X480788Y299132D01*
X480810Y299140D01*
X480839Y299147D01*
X480872Y299158D01*
X480912Y299165D01*
X480956Y299173D01*
X481003Y299184D01*
X481054Y299191D01*
X481109Y299198D01*
X481170Y299205D01*
X481236Y299209D01*
X481305Y299213D01*
X481378D01*
X482834D01*
Y298878D01*
D02*
G37*
G36*
X482801Y295150D02*
X482557D01*
X482554Y295154D01*
X482546Y295161D01*
X482532Y295176D01*
X482510Y295190D01*
X482484Y295212D01*
X482455Y295241D01*
X482419Y295270D01*
X482375Y295303D01*
X482332Y295336D01*
X482281Y295376D01*
X482222Y295416D01*
X482164Y295456D01*
X482099Y295500D01*
X482029Y295544D01*
X481953Y295587D01*
X481877Y295631D01*
X481873Y295635D01*
X481858Y295642D01*
X481837Y295653D01*
X481804Y295671D01*
X481764Y295689D01*
X481720Y295711D01*
X481669Y295736D01*
X481611Y295762D01*
X481545Y295791D01*
X481480Y295824D01*
X481407Y295853D01*
X481330Y295882D01*
X481174Y295940D01*
X481007Y295995D01*
X481003D01*
X480992Y295999D01*
X480974Y296002D01*
X480952Y296009D01*
X480923Y296017D01*
X480886Y296024D01*
X480846Y296035D01*
X480803Y296042D01*
X480752Y296053D01*
X480697Y296064D01*
X480581Y296082D01*
X480453Y296100D01*
X480315Y296111D01*
Y296428D01*
X480319D01*
X480330D01*
X480344D01*
X480366Y296424D01*
X480395D01*
X480431Y296421D01*
X480472Y296417D01*
X480515Y296413D01*
X480566Y296406D01*
X480617Y296399D01*
X480679Y296388D01*
X480741Y296377D01*
X480806Y296366D01*
X480879Y296352D01*
X481028Y296315D01*
X481032D01*
X481047Y296311D01*
X481068Y296304D01*
X481101Y296293D01*
X481138Y296282D01*
X481181Y296268D01*
X481232Y296253D01*
X481287Y296231D01*
X481349Y296210D01*
X481411Y296188D01*
X481549Y296133D01*
X481695Y296068D01*
X481840Y295995D01*
X481844Y295991D01*
X481858Y295984D01*
X481877Y295973D01*
X481906Y295958D01*
X481938Y295940D01*
X481978Y295915D01*
X482022Y295889D01*
X482069Y295860D01*
X482175Y295791D01*
X482284Y295718D01*
X482397Y295635D01*
X482503Y295547D01*
Y296781D01*
X482801D01*
Y295150D01*
D02*
G37*
G36*
X400157Y216201D02*
X398701D01*
X398697D01*
X398686D01*
X398668D01*
X398646D01*
X398621Y216197D01*
X398588D01*
X398519Y216193D01*
X398439Y216186D01*
X398358Y216175D01*
X398282Y216160D01*
X398249Y216153D01*
X398217Y216142D01*
X398209Y216139D01*
X398191Y216131D01*
X398166Y216113D01*
X398129Y216091D01*
X398093Y216066D01*
X398053Y216030D01*
X398013Y215986D01*
X397980Y215935D01*
X397976Y215928D01*
X397965Y215909D01*
X397955Y215877D01*
X397940Y215833D01*
X397922Y215782D01*
X397911Y215716D01*
X397900Y215647D01*
X397896Y215571D01*
Y215534D01*
X397900Y215513D01*
Y215480D01*
X397903Y215447D01*
X397918Y215367D01*
X397936Y215280D01*
X397965Y215196D01*
X398005Y215116D01*
X398031Y215079D01*
X398060Y215047D01*
X398064Y215043D01*
X398067Y215039D01*
X398078Y215032D01*
X398093Y215021D01*
X398115Y215010D01*
X398136Y214996D01*
X398169Y214981D01*
X398202Y214967D01*
X398242Y214952D01*
X398289Y214941D01*
X398344Y214927D01*
X398402Y214916D01*
X398468Y214905D01*
X398537Y214897D01*
X398617Y214890D01*
X398701D01*
X400157D01*
Y214555D01*
X398701D01*
X398697D01*
X398682D01*
X398664D01*
X398639D01*
X398606Y214559D01*
X398570D01*
X398526Y214563D01*
X398482Y214566D01*
X398384Y214577D01*
X398282Y214592D01*
X398184Y214614D01*
X398136Y214628D01*
X398093Y214643D01*
X398089D01*
X398082Y214646D01*
X398071Y214653D01*
X398056Y214661D01*
X398016Y214683D01*
X397965Y214715D01*
X397907Y214759D01*
X397849Y214810D01*
X397787Y214876D01*
X397732Y214956D01*
Y214959D01*
X397725Y214967D01*
X397722Y214978D01*
X397711Y214996D01*
X397700Y215018D01*
X397689Y215047D01*
X397678Y215076D01*
X397663Y215112D01*
X397649Y215152D01*
X397638Y215196D01*
X397627Y215243D01*
X397616Y215298D01*
X397609Y215352D01*
X397601Y215411D01*
X397594Y215542D01*
Y215575D01*
X397598Y215600D01*
Y215629D01*
X397601Y215666D01*
X397605Y215705D01*
X397609Y215746D01*
X397623Y215837D01*
X397645Y215935D01*
X397674Y216030D01*
X397714Y216121D01*
Y216124D01*
X397722Y216131D01*
X397729Y216142D01*
X397736Y216157D01*
X397765Y216197D01*
X397805Y216244D01*
X397856Y216299D01*
X397914Y216350D01*
X397987Y216401D01*
X398067Y216441D01*
X398071D01*
X398078Y216444D01*
X398093Y216448D01*
X398111Y216455D01*
X398133Y216463D01*
X398162Y216470D01*
X398195Y216481D01*
X398235Y216488D01*
X398278Y216495D01*
X398326Y216506D01*
X398377Y216514D01*
X398431Y216521D01*
X398493Y216528D01*
X398559Y216532D01*
X398628Y216535D01*
X398701D01*
X400157D01*
Y216201D01*
D02*
G37*
G36*
X398402Y214126D02*
X398424D01*
X398449Y214122D01*
X398508Y214115D01*
X398573Y214100D01*
X398639Y214078D01*
X398708Y214046D01*
X398774Y214006D01*
X398777D01*
X398781Y213998D01*
X398799Y213984D01*
X398828Y213955D01*
X398865Y213915D01*
X398901Y213864D01*
X398941Y213802D01*
X398974Y213733D01*
X398999Y213649D01*
Y213653D01*
X399003Y213656D01*
X399006Y213667D01*
X399014Y213682D01*
X399028Y213714D01*
X399050Y213758D01*
X399079Y213805D01*
X399116Y213853D01*
X399156Y213896D01*
X399199Y213936D01*
X399207Y213940D01*
X399221Y213951D01*
X399250Y213966D01*
X399287Y213980D01*
X399334Y213998D01*
X399389Y214013D01*
X399450Y214024D01*
X399516Y214028D01*
X399520D01*
X399527D01*
X399541D01*
X399563Y214024D01*
X399585Y214020D01*
X399614Y214017D01*
X399676Y214002D01*
X399749Y213980D01*
X399825Y213944D01*
X399866Y213922D01*
X399905Y213896D01*
X399942Y213864D01*
X399978Y213831D01*
X399982Y213827D01*
X399986Y213820D01*
X399996Y213809D01*
X400007Y213794D01*
X400022Y213776D01*
X400037Y213751D01*
X400055Y213722D01*
X400073Y213693D01*
X400091Y213656D01*
X400109Y213616D01*
X400124Y213573D01*
X400139Y213525D01*
X400160Y213423D01*
X400164Y213365D01*
X400168Y213307D01*
Y213274D01*
X400164Y213252D01*
X400160Y213223D01*
X400157Y213190D01*
X400153Y213154D01*
X400142Y213118D01*
X400120Y213030D01*
X400087Y212943D01*
X400066Y212899D01*
X400040Y212855D01*
X400007Y212815D01*
X399975Y212775D01*
X399971Y212772D01*
X399967Y212768D01*
X399956Y212757D01*
X399942Y212742D01*
X399920Y212728D01*
X399898Y212710D01*
X399844Y212673D01*
X399775Y212637D01*
X399694Y212604D01*
X399603Y212579D01*
X399556Y212575D01*
X399505Y212572D01*
X399501D01*
X399498D01*
X399476D01*
X399443Y212575D01*
X399403Y212582D01*
X399352Y212593D01*
X399301Y212612D01*
X399250Y212633D01*
X399199Y212666D01*
X399192Y212670D01*
X399178Y212684D01*
X399156Y212706D01*
X399127Y212735D01*
X399094Y212775D01*
X399061Y212823D01*
X399028Y212877D01*
X398999Y212943D01*
Y212939D01*
X398995Y212932D01*
X398992Y212921D01*
X398985Y212906D01*
X398966Y212863D01*
X398941Y212812D01*
X398904Y212757D01*
X398865Y212699D01*
X398814Y212644D01*
X398755Y212593D01*
X398752D01*
X398748Y212590D01*
X398726Y212575D01*
X398690Y212553D01*
X398642Y212531D01*
X398584Y212510D01*
X398515Y212488D01*
X398439Y212473D01*
X398355Y212470D01*
X398351D01*
X398340D01*
X398322D01*
X398300Y212473D01*
X398275Y212477D01*
X398242Y212480D01*
X398206Y212488D01*
X398166Y212499D01*
X398082Y212524D01*
X398035Y212542D01*
X397991Y212568D01*
X397944Y212593D01*
X397900Y212622D01*
X397856Y212659D01*
X397813Y212699D01*
X397809Y212702D01*
X397802Y212710D01*
X397791Y212721D01*
X397780Y212739D01*
X397762Y212764D01*
X397743Y212790D01*
X397725Y212823D01*
X397703Y212859D01*
X397681Y212899D01*
X397663Y212946D01*
X397645Y212997D01*
X397627Y213048D01*
X397616Y213107D01*
X397605Y213168D01*
X397598Y213230D01*
X397594Y213299D01*
Y213336D01*
X397598Y213361D01*
X397601Y213394D01*
X397605Y213431D01*
X397612Y213471D01*
X397623Y213514D01*
X397649Y213613D01*
X397667Y213664D01*
X397685Y213711D01*
X397711Y213762D01*
X397740Y213813D01*
X397773Y213860D01*
X397813Y213904D01*
X397816Y213907D01*
X397823Y213915D01*
X397834Y213926D01*
X397853Y213940D01*
X397874Y213955D01*
X397900Y213977D01*
X397929Y213995D01*
X397965Y214017D01*
X398002Y214038D01*
X398045Y214057D01*
X398136Y214093D01*
X398191Y214107D01*
X398246Y214119D01*
X398304Y214126D01*
X398362Y214129D01*
X398366D01*
X398373D01*
X398388D01*
X398402Y214126D01*
D02*
G37*
G36*
X317479Y216201D02*
X316023D01*
X316020D01*
X316009D01*
X315991D01*
X315969D01*
X315943Y216197D01*
X315911D01*
X315842Y216193D01*
X315761Y216186D01*
X315681Y216175D01*
X315605Y216160D01*
X315572Y216153D01*
X315539Y216142D01*
X315532Y216139D01*
X315514Y216131D01*
X315488Y216113D01*
X315452Y216091D01*
X315416Y216066D01*
X315376Y216030D01*
X315336Y215986D01*
X315303Y215935D01*
X315299Y215928D01*
X315288Y215909D01*
X315277Y215877D01*
X315263Y215833D01*
X315245Y215782D01*
X315234Y215716D01*
X315223Y215647D01*
X315219Y215571D01*
Y215534D01*
X315223Y215513D01*
Y215480D01*
X315226Y215447D01*
X315241Y215367D01*
X315259Y215280D01*
X315288Y215196D01*
X315328Y215116D01*
X315354Y215079D01*
X315383Y215047D01*
X315387Y215043D01*
X315390Y215039D01*
X315401Y215032D01*
X315416Y215021D01*
X315438Y215010D01*
X315459Y214996D01*
X315492Y214981D01*
X315525Y214967D01*
X315565Y214952D01*
X315612Y214941D01*
X315667Y214927D01*
X315725Y214916D01*
X315791Y214905D01*
X315860Y214897D01*
X315940Y214890D01*
X316023D01*
X317479D01*
Y214555D01*
X316023D01*
X316020D01*
X316005D01*
X315987D01*
X315962D01*
X315929Y214559D01*
X315893D01*
X315849Y214563D01*
X315805Y214566D01*
X315707Y214577D01*
X315605Y214592D01*
X315507Y214614D01*
X315459Y214628D01*
X315416Y214643D01*
X315412D01*
X315405Y214646D01*
X315394Y214653D01*
X315379Y214661D01*
X315339Y214683D01*
X315288Y214715D01*
X315230Y214759D01*
X315172Y214810D01*
X315110Y214876D01*
X315055Y214956D01*
Y214959D01*
X315048Y214967D01*
X315044Y214978D01*
X315033Y214996D01*
X315022Y215018D01*
X315012Y215047D01*
X315001Y215076D01*
X314986Y215112D01*
X314971Y215152D01*
X314961Y215196D01*
X314950Y215243D01*
X314939Y215298D01*
X314932Y215352D01*
X314924Y215411D01*
X314917Y215542D01*
Y215575D01*
X314921Y215600D01*
Y215629D01*
X314924Y215666D01*
X314928Y215705D01*
X314932Y215746D01*
X314946Y215837D01*
X314968Y215935D01*
X314997Y216030D01*
X315037Y216121D01*
Y216124D01*
X315044Y216131D01*
X315052Y216142D01*
X315059Y216157D01*
X315088Y216197D01*
X315128Y216244D01*
X315179Y216299D01*
X315237Y216350D01*
X315310Y216401D01*
X315390Y216441D01*
X315394D01*
X315401Y216444D01*
X315416Y216448D01*
X315434Y216455D01*
X315456Y216463D01*
X315485Y216470D01*
X315517Y216481D01*
X315558Y216488D01*
X315601Y216495D01*
X315649Y216506D01*
X315700Y216514D01*
X315754Y216521D01*
X315816Y216528D01*
X315882Y216532D01*
X315951Y216535D01*
X316023D01*
X317479D01*
Y216201D01*
D02*
G37*
G36*
X316701Y214122D02*
X316733Y214119D01*
X316773Y214115D01*
X316813Y214107D01*
X316861Y214097D01*
X316955Y214071D01*
X317006Y214053D01*
X317061Y214031D01*
X317112Y214006D01*
X317159Y213973D01*
X317210Y213940D01*
X317254Y213900D01*
X317257Y213896D01*
X317265Y213889D01*
X317276Y213878D01*
X317290Y213860D01*
X317308Y213838D01*
X317330Y213809D01*
X317349Y213780D01*
X317374Y213744D01*
X317396Y213707D01*
X317414Y213664D01*
X317454Y213565D01*
X317469Y213514D01*
X317479Y213456D01*
X317487Y213398D01*
X317490Y213336D01*
Y213310D01*
X317487Y213292D01*
Y213274D01*
X317483Y213248D01*
X317472Y213187D01*
X317458Y213118D01*
X317432Y213041D01*
X317399Y212965D01*
X317356Y212888D01*
Y212884D01*
X317349Y212881D01*
X317341Y212870D01*
X317330Y212855D01*
X317301Y212819D01*
X317261Y212772D01*
X317207Y212724D01*
X317141Y212670D01*
X317065Y212622D01*
X316977Y212579D01*
X316973D01*
X316966Y212575D01*
X316952Y212568D01*
X316933Y212561D01*
X316908Y212553D01*
X316875Y212542D01*
X316839Y212535D01*
X316799Y212524D01*
X316752Y212513D01*
X316697Y212502D01*
X316639Y212495D01*
X316577Y212488D01*
X316508Y212480D01*
X316435Y212473D01*
X316355Y212470D01*
X316271D01*
X316267D01*
X316249D01*
X316224D01*
X316191D01*
X316151Y212473D01*
X316104D01*
X316049Y212477D01*
X315994Y212484D01*
X315871Y212495D01*
X315740Y212513D01*
X315616Y212539D01*
X315554Y212557D01*
X315499Y212575D01*
X315496D01*
X315488Y212579D01*
X315474Y212586D01*
X315452Y212593D01*
X315430Y212604D01*
X315401Y212619D01*
X315339Y212655D01*
X315270Y212699D01*
X315197Y212750D01*
X315128Y212815D01*
X315066Y212888D01*
Y212892D01*
X315059Y212899D01*
X315052Y212910D01*
X315044Y212925D01*
X315033Y212946D01*
X315019Y212968D01*
X315004Y212997D01*
X314993Y213026D01*
X314964Y213096D01*
X314939Y213179D01*
X314924Y213270D01*
X314917Y213372D01*
Y213401D01*
X314921Y213420D01*
Y213445D01*
X314924Y213474D01*
X314939Y213543D01*
X314957Y213620D01*
X314986Y213700D01*
X315026Y213780D01*
X315052Y213820D01*
X315081Y213856D01*
X315084Y213860D01*
X315088Y213864D01*
X315099Y213875D01*
X315110Y213885D01*
X315128Y213900D01*
X315150Y213918D01*
X315201Y213955D01*
X315266Y213991D01*
X315347Y214028D01*
X315438Y214057D01*
X315543Y214078D01*
X315568Y213780D01*
X315565D01*
X315558Y213776D01*
X315550D01*
X315536Y213773D01*
X315496Y213762D01*
X315452Y213747D01*
X315401Y213729D01*
X315350Y213703D01*
X315303Y213674D01*
X315263Y213638D01*
X315259Y213634D01*
X315248Y213620D01*
X315234Y213594D01*
X315219Y213565D01*
X315201Y213525D01*
X315186Y213478D01*
X315175Y213423D01*
X315172Y213365D01*
Y213339D01*
X315175Y213314D01*
X315179Y213281D01*
X315186Y213241D01*
X315197Y213201D01*
X315212Y213158D01*
X315234Y213118D01*
X315237Y213114D01*
X315245Y213099D01*
X315259Y213077D01*
X315281Y213056D01*
X315306Y213026D01*
X315336Y212997D01*
X315368Y212968D01*
X315408Y212939D01*
X315412Y212935D01*
X315430Y212928D01*
X315456Y212914D01*
X315488Y212899D01*
X315532Y212881D01*
X315583Y212863D01*
X315641Y212844D01*
X315707Y212826D01*
X315710D01*
X315714Y212823D01*
X315725D01*
X315740Y212819D01*
X315776Y212812D01*
X315823Y212801D01*
X315882Y212793D01*
X315943Y212786D01*
X316013Y212783D01*
X316085Y212779D01*
X316089D01*
X316100D01*
X316118D01*
X316147D01*
X316140Y212783D01*
X316122Y212797D01*
X316096Y212819D01*
X316060Y212844D01*
X316023Y212881D01*
X315984Y212925D01*
X315943Y212976D01*
X315907Y213034D01*
X315903Y213041D01*
X315893Y213063D01*
X315878Y213096D01*
X315863Y213136D01*
X315845Y213190D01*
X315831Y213248D01*
X315820Y213314D01*
X315816Y213383D01*
Y213412D01*
X315820Y213434D01*
X315823Y213463D01*
X315827Y213492D01*
X315834Y213529D01*
X315845Y213565D01*
X315871Y213649D01*
X315889Y213693D01*
X315911Y213736D01*
X315936Y213784D01*
X315969Y213827D01*
X316002Y213871D01*
X316042Y213911D01*
X316045Y213915D01*
X316053Y213922D01*
X316063Y213929D01*
X316082Y213944D01*
X316107Y213962D01*
X316133Y213980D01*
X316165Y213998D01*
X316202Y214017D01*
X316242Y214038D01*
X316286Y214057D01*
X316336Y214075D01*
X316388Y214093D01*
X316446Y214107D01*
X316508Y214115D01*
X316569Y214122D01*
X316639Y214126D01*
X316642D01*
X316657D01*
X316675D01*
X316701Y214122D01*
D02*
G37*
G36*
X372598Y259508D02*
X371142D01*
X371138D01*
X371127D01*
X371109D01*
X371087D01*
X371061Y259504D01*
X371029D01*
X370960Y259500D01*
X370880Y259493D01*
X370799Y259482D01*
X370723Y259468D01*
X370690Y259460D01*
X370657Y259449D01*
X370650Y259446D01*
X370632Y259438D01*
X370606Y259420D01*
X370570Y259398D01*
X370534Y259373D01*
X370494Y259337D01*
X370454Y259293D01*
X370421Y259242D01*
X370417Y259235D01*
X370406Y259216D01*
X370395Y259184D01*
X370381Y259140D01*
X370363Y259089D01*
X370352Y259023D01*
X370341Y258954D01*
X370337Y258878D01*
Y258841D01*
X370341Y258820D01*
Y258787D01*
X370344Y258754D01*
X370359Y258674D01*
X370377Y258587D01*
X370406Y258503D01*
X370446Y258423D01*
X370472Y258386D01*
X370501Y258354D01*
X370505Y258350D01*
X370508Y258347D01*
X370519Y258339D01*
X370534Y258328D01*
X370556Y258317D01*
X370577Y258303D01*
X370610Y258288D01*
X370643Y258274D01*
X370683Y258259D01*
X370730Y258248D01*
X370785Y258234D01*
X370843Y258223D01*
X370909Y258212D01*
X370978Y258205D01*
X371058Y258197D01*
X371142D01*
X372598D01*
Y257862D01*
X371142D01*
X371138D01*
X371123D01*
X371105D01*
X371080D01*
X371047Y257866D01*
X371011D01*
X370967Y257870D01*
X370923Y257873D01*
X370825Y257884D01*
X370723Y257899D01*
X370625Y257921D01*
X370577Y257935D01*
X370534Y257950D01*
X370530D01*
X370523Y257953D01*
X370512Y257961D01*
X370497Y257968D01*
X370457Y257990D01*
X370406Y258022D01*
X370348Y258066D01*
X370290Y258117D01*
X370228Y258183D01*
X370173Y258263D01*
Y258266D01*
X370166Y258274D01*
X370163Y258285D01*
X370151Y258303D01*
X370141Y258325D01*
X370130Y258354D01*
X370119Y258383D01*
X370104Y258419D01*
X370090Y258459D01*
X370079Y258503D01*
X370068Y258550D01*
X370057Y258605D01*
X370050Y258660D01*
X370042Y258718D01*
X370035Y258849D01*
Y258882D01*
X370039Y258907D01*
Y258936D01*
X370042Y258973D01*
X370046Y259013D01*
X370050Y259053D01*
X370064Y259144D01*
X370086Y259242D01*
X370115Y259337D01*
X370155Y259428D01*
Y259431D01*
X370163Y259438D01*
X370170Y259449D01*
X370177Y259464D01*
X370206Y259504D01*
X370246Y259551D01*
X370297Y259606D01*
X370355Y259657D01*
X370428Y259708D01*
X370508Y259748D01*
X370512D01*
X370519Y259752D01*
X370534Y259755D01*
X370552Y259762D01*
X370574Y259770D01*
X370603Y259777D01*
X370636Y259788D01*
X370676Y259795D01*
X370719Y259803D01*
X370767Y259813D01*
X370818Y259821D01*
X370872Y259828D01*
X370934Y259835D01*
X371000Y259839D01*
X371069Y259842D01*
X371142D01*
X372598D01*
Y259508D01*
D02*
G37*
G36*
X371975Y257193D02*
X371983Y257185D01*
X371986Y257171D01*
X371997Y257153D01*
X372008Y257131D01*
X372023Y257105D01*
X372059Y257043D01*
X372099Y256971D01*
X372150Y256898D01*
X372208Y256821D01*
X372270Y256745D01*
X372274Y256741D01*
X372277Y256738D01*
X372288Y256727D01*
X372299Y256712D01*
X372336Y256679D01*
X372379Y256636D01*
X372430Y256592D01*
X372488Y256545D01*
X372547Y256505D01*
X372608Y256468D01*
Y256268D01*
X370079D01*
Y256577D01*
X372048D01*
X372044Y256581D01*
X372030Y256599D01*
X372008Y256621D01*
X371983Y256658D01*
X371950Y256698D01*
X371913Y256749D01*
X371873Y256807D01*
X371833Y256872D01*
Y256876D01*
X371830Y256880D01*
X371815Y256901D01*
X371797Y256938D01*
X371775Y256981D01*
X371749Y257032D01*
X371724Y257087D01*
X371698Y257142D01*
X371677Y257196D01*
X371975D01*
Y257193D01*
D02*
G37*
G36*
X371433Y255471D02*
X371477D01*
X371524Y255467D01*
X371578Y255464D01*
X371691Y255453D01*
X371811Y255434D01*
X371932Y255413D01*
X371986Y255398D01*
X372041Y255383D01*
X372044D01*
X372052Y255380D01*
X372066Y255373D01*
X372084Y255365D01*
X372110Y255358D01*
X372135Y255344D01*
X372197Y255314D01*
X372263Y255278D01*
X372332Y255231D01*
X372401Y255176D01*
X372459Y255111D01*
Y255107D01*
X372467Y255103D01*
X372474Y255092D01*
X372481Y255078D01*
X372496Y255060D01*
X372507Y255038D01*
X372536Y254983D01*
X372561Y254918D01*
X372587Y254841D01*
X372601Y254750D01*
X372608Y254652D01*
Y254619D01*
X372605Y254579D01*
X372598Y254532D01*
X372587Y254477D01*
X372572Y254419D01*
X372554Y254357D01*
X372525Y254299D01*
Y254295D01*
X372521Y254292D01*
X372510Y254273D01*
X372492Y254244D01*
X372467Y254208D01*
X372430Y254168D01*
X372390Y254124D01*
X372343Y254084D01*
X372288Y254044D01*
X372281Y254040D01*
X372263Y254026D01*
X372230Y254011D01*
X372183Y253986D01*
X372128Y253964D01*
X372066Y253935D01*
X371993Y253909D01*
X371913Y253888D01*
X371910D01*
X371902Y253884D01*
X371891Y253880D01*
X371873Y253877D01*
X371851Y253873D01*
X371826Y253869D01*
X371793Y253862D01*
X371757Y253858D01*
X371717Y253851D01*
X371673Y253847D01*
X371622Y253844D01*
X371571Y253836D01*
X371513Y253833D01*
X371455D01*
X371389Y253829D01*
X371320D01*
X371316D01*
X371302D01*
X371276D01*
X371247D01*
X371207Y253833D01*
X371164D01*
X371116Y253836D01*
X371065Y253840D01*
X370949Y253851D01*
X370829Y253869D01*
X370712Y253891D01*
X370657Y253906D01*
X370603Y253924D01*
X370599D01*
X370592Y253927D01*
X370577Y253935D01*
X370559Y253942D01*
X370534Y253949D01*
X370508Y253964D01*
X370446Y253993D01*
X370381Y254029D01*
X370308Y254077D01*
X370243Y254131D01*
X370181Y254197D01*
Y254201D01*
X370173Y254204D01*
X370166Y254215D01*
X370159Y254230D01*
X370148Y254248D01*
X370133Y254266D01*
X370108Y254321D01*
X370082Y254386D01*
X370057Y254463D01*
X370042Y254554D01*
X370035Y254652D01*
Y254688D01*
X370039Y254714D01*
X370042Y254743D01*
X370050Y254779D01*
X370057Y254819D01*
X370068Y254863D01*
X370082Y254907D01*
X370097Y254954D01*
X370119Y255001D01*
X370144Y255049D01*
X370173Y255096D01*
X370210Y255143D01*
X370250Y255187D01*
X370293Y255227D01*
X370297Y255231D01*
X370308Y255238D01*
X370326Y255249D01*
X370355Y255267D01*
X370388Y255285D01*
X370432Y255303D01*
X370483Y255329D01*
X370541Y255351D01*
X370606Y255373D01*
X370683Y255394D01*
X370767Y255416D01*
X370861Y255434D01*
X370963Y255453D01*
X371073Y255464D01*
X371193Y255471D01*
X371320Y255474D01*
X371324D01*
X371338D01*
X371364D01*
X371393D01*
X371433Y255471D01*
D02*
G37*
G36*
X372598Y298878D02*
X371142D01*
X371138D01*
X371127D01*
X371109D01*
X371087D01*
X371061Y298874D01*
X371029D01*
X370960Y298870D01*
X370880Y298863D01*
X370799Y298852D01*
X370723Y298838D01*
X370690Y298830D01*
X370657Y298819D01*
X370650Y298816D01*
X370632Y298809D01*
X370606Y298790D01*
X370570Y298768D01*
X370534Y298743D01*
X370494Y298707D01*
X370454Y298663D01*
X370421Y298612D01*
X370417Y298605D01*
X370406Y298587D01*
X370395Y298554D01*
X370381Y298510D01*
X370363Y298459D01*
X370352Y298394D01*
X370341Y298324D01*
X370337Y298248D01*
Y298212D01*
X370341Y298190D01*
Y298157D01*
X370344Y298124D01*
X370359Y298044D01*
X370377Y297957D01*
X370406Y297873D01*
X370446Y297793D01*
X370472Y297757D01*
X370501Y297724D01*
X370505Y297720D01*
X370508Y297717D01*
X370519Y297709D01*
X370534Y297698D01*
X370556Y297687D01*
X370577Y297673D01*
X370610Y297658D01*
X370643Y297644D01*
X370683Y297629D01*
X370730Y297618D01*
X370785Y297604D01*
X370843Y297593D01*
X370909Y297582D01*
X370978Y297575D01*
X371058Y297567D01*
X371142D01*
X372598D01*
Y297232D01*
X371142D01*
X371138D01*
X371123D01*
X371105D01*
X371080D01*
X371047Y297236D01*
X371011D01*
X370967Y297240D01*
X370923Y297243D01*
X370825Y297254D01*
X370723Y297269D01*
X370625Y297291D01*
X370577Y297305D01*
X370534Y297320D01*
X370530D01*
X370523Y297323D01*
X370512Y297331D01*
X370497Y297338D01*
X370457Y297360D01*
X370406Y297393D01*
X370348Y297436D01*
X370290Y297487D01*
X370228Y297553D01*
X370173Y297633D01*
Y297637D01*
X370166Y297644D01*
X370163Y297655D01*
X370151Y297673D01*
X370141Y297695D01*
X370130Y297724D01*
X370119Y297753D01*
X370104Y297789D01*
X370090Y297829D01*
X370079Y297873D01*
X370068Y297920D01*
X370057Y297975D01*
X370050Y298030D01*
X370042Y298088D01*
X370035Y298219D01*
Y298252D01*
X370039Y298277D01*
Y298306D01*
X370042Y298343D01*
X370046Y298383D01*
X370050Y298423D01*
X370064Y298514D01*
X370086Y298612D01*
X370115Y298707D01*
X370155Y298798D01*
Y298801D01*
X370163Y298809D01*
X370170Y298819D01*
X370177Y298834D01*
X370206Y298874D01*
X370246Y298921D01*
X370297Y298976D01*
X370355Y299027D01*
X370428Y299078D01*
X370508Y299118D01*
X370512D01*
X370519Y299122D01*
X370534Y299125D01*
X370552Y299132D01*
X370574Y299140D01*
X370603Y299147D01*
X370636Y299158D01*
X370676Y299165D01*
X370719Y299173D01*
X370767Y299184D01*
X370818Y299191D01*
X370872Y299198D01*
X370934Y299205D01*
X371000Y299209D01*
X371069Y299213D01*
X371142D01*
X372598D01*
Y298878D01*
D02*
G37*
G36*
X371975Y296563D02*
X371983Y296555D01*
X371986Y296541D01*
X371997Y296523D01*
X372008Y296501D01*
X372023Y296475D01*
X372059Y296413D01*
X372099Y296341D01*
X372150Y296268D01*
X372208Y296191D01*
X372270Y296115D01*
X372274Y296111D01*
X372277Y296108D01*
X372288Y296097D01*
X372299Y296082D01*
X372336Y296049D01*
X372379Y296006D01*
X372430Y295962D01*
X372488Y295915D01*
X372547Y295875D01*
X372608Y295838D01*
Y295638D01*
X370079D01*
Y295948D01*
X372048D01*
X372044Y295951D01*
X372030Y295969D01*
X372008Y295991D01*
X371983Y296028D01*
X371950Y296068D01*
X371913Y296119D01*
X371873Y296177D01*
X371833Y296242D01*
Y296246D01*
X371830Y296250D01*
X371815Y296271D01*
X371797Y296308D01*
X371775Y296352D01*
X371749Y296403D01*
X371724Y296457D01*
X371698Y296512D01*
X371677Y296566D01*
X371975D01*
Y296563D01*
D02*
G37*
G36*
Y294604D02*
X371983Y294597D01*
X371986Y294583D01*
X371997Y294564D01*
X372008Y294543D01*
X372023Y294517D01*
X372059Y294455D01*
X372099Y294382D01*
X372150Y294309D01*
X372208Y294233D01*
X372270Y294157D01*
X372274Y294153D01*
X372277Y294149D01*
X372288Y294138D01*
X372299Y294124D01*
X372336Y294091D01*
X372379Y294047D01*
X372430Y294004D01*
X372488Y293956D01*
X372547Y293916D01*
X372608Y293880D01*
Y293680D01*
X370079D01*
Y293989D01*
X372048D01*
X372044Y293993D01*
X372030Y294011D01*
X372008Y294033D01*
X371983Y294069D01*
X371950Y294109D01*
X371913Y294160D01*
X371873Y294218D01*
X371833Y294284D01*
Y294288D01*
X371830Y294291D01*
X371815Y294313D01*
X371797Y294350D01*
X371775Y294393D01*
X371749Y294444D01*
X371724Y294499D01*
X371698Y294553D01*
X371677Y294608D01*
X371975D01*
Y294604D01*
D02*
G37*
G36*
X400157Y298878D02*
X398701D01*
X398697D01*
X398686D01*
X398668D01*
X398646D01*
X398621Y298874D01*
X398588D01*
X398519Y298870D01*
X398439Y298863D01*
X398358Y298852D01*
X398282Y298838D01*
X398249Y298830D01*
X398217Y298819D01*
X398209Y298816D01*
X398191Y298809D01*
X398166Y298790D01*
X398129Y298768D01*
X398093Y298743D01*
X398053Y298707D01*
X398013Y298663D01*
X397980Y298612D01*
X397976Y298605D01*
X397965Y298587D01*
X397955Y298554D01*
X397940Y298510D01*
X397922Y298459D01*
X397911Y298394D01*
X397900Y298324D01*
X397896Y298248D01*
Y298212D01*
X397900Y298190D01*
Y298157D01*
X397903Y298124D01*
X397918Y298044D01*
X397936Y297957D01*
X397965Y297873D01*
X398005Y297793D01*
X398031Y297757D01*
X398060Y297724D01*
X398064Y297720D01*
X398067Y297717D01*
X398078Y297709D01*
X398093Y297698D01*
X398115Y297687D01*
X398136Y297673D01*
X398169Y297658D01*
X398202Y297644D01*
X398242Y297629D01*
X398289Y297618D01*
X398344Y297604D01*
X398402Y297593D01*
X398468Y297582D01*
X398537Y297575D01*
X398617Y297567D01*
X398701D01*
X400157D01*
Y297232D01*
X398701D01*
X398697D01*
X398682D01*
X398664D01*
X398639D01*
X398606Y297236D01*
X398570D01*
X398526Y297240D01*
X398482Y297243D01*
X398384Y297254D01*
X398282Y297269D01*
X398184Y297291D01*
X398136Y297305D01*
X398093Y297320D01*
X398089D01*
X398082Y297323D01*
X398071Y297331D01*
X398056Y297338D01*
X398016Y297360D01*
X397965Y297393D01*
X397907Y297436D01*
X397849Y297487D01*
X397787Y297553D01*
X397732Y297633D01*
Y297637D01*
X397725Y297644D01*
X397722Y297655D01*
X397711Y297673D01*
X397700Y297695D01*
X397689Y297724D01*
X397678Y297753D01*
X397663Y297789D01*
X397649Y297829D01*
X397638Y297873D01*
X397627Y297920D01*
X397616Y297975D01*
X397609Y298030D01*
X397601Y298088D01*
X397594Y298219D01*
Y298252D01*
X397598Y298277D01*
Y298306D01*
X397601Y298343D01*
X397605Y298383D01*
X397609Y298423D01*
X397623Y298514D01*
X397645Y298612D01*
X397674Y298707D01*
X397714Y298798D01*
Y298801D01*
X397722Y298809D01*
X397729Y298819D01*
X397736Y298834D01*
X397765Y298874D01*
X397805Y298921D01*
X397856Y298976D01*
X397914Y299027D01*
X397987Y299078D01*
X398067Y299118D01*
X398071D01*
X398078Y299122D01*
X398093Y299125D01*
X398111Y299132D01*
X398133Y299140D01*
X398162Y299147D01*
X398195Y299158D01*
X398235Y299165D01*
X398278Y299173D01*
X398326Y299184D01*
X398377Y299191D01*
X398431Y299198D01*
X398493Y299205D01*
X398559Y299209D01*
X398628Y299213D01*
X398701D01*
X400157D01*
Y298878D01*
D02*
G37*
G36*
X399534Y296563D02*
X399541Y296555D01*
X399545Y296541D01*
X399556Y296523D01*
X399567Y296501D01*
X399582Y296475D01*
X399618Y296413D01*
X399658Y296341D01*
X399709Y296268D01*
X399767Y296191D01*
X399829Y296115D01*
X399833Y296111D01*
X399836Y296108D01*
X399847Y296097D01*
X399858Y296082D01*
X399895Y296049D01*
X399938Y296006D01*
X399989Y295962D01*
X400047Y295915D01*
X400106Y295875D01*
X400168Y295838D01*
Y295638D01*
X397638D01*
Y295948D01*
X399607D01*
X399603Y295951D01*
X399589Y295969D01*
X399567Y295991D01*
X399541Y296028D01*
X399509Y296068D01*
X399472Y296119D01*
X399432Y296177D01*
X399392Y296242D01*
Y296246D01*
X399389Y296250D01*
X399374Y296271D01*
X399356Y296308D01*
X399334Y296352D01*
X399309Y296403D01*
X399283Y296457D01*
X399258Y296512D01*
X399236Y296566D01*
X399534D01*
Y296563D01*
D02*
G37*
G36*
X397707Y294885D02*
X397740Y294881D01*
X397776Y294874D01*
X397813Y294866D01*
X397853Y294852D01*
X397856D01*
X397860Y294848D01*
X397882Y294841D01*
X397914Y294826D01*
X397958Y294805D01*
X398009Y294775D01*
X398067Y294739D01*
X398126Y294699D01*
X398187Y294648D01*
X398191D01*
X398195Y294641D01*
X398217Y294623D01*
X398249Y294590D01*
X398297Y294543D01*
X398351Y294488D01*
X398417Y294419D01*
X398490Y294335D01*
X398566Y294244D01*
X398570Y294240D01*
X398581Y294226D01*
X398599Y294204D01*
X398621Y294179D01*
X398650Y294146D01*
X398682Y294106D01*
X398719Y294066D01*
X398759Y294018D01*
X398846Y293927D01*
X398934Y293836D01*
X398977Y293793D01*
X399021Y293753D01*
X399061Y293716D01*
X399101Y293687D01*
X399105D01*
X399108Y293680D01*
X399119Y293672D01*
X399134Y293665D01*
X399174Y293640D01*
X399221Y293611D01*
X399279Y293585D01*
X399341Y293560D01*
X399411Y293545D01*
X399476Y293538D01*
X399480D01*
X399483D01*
X399505Y293542D01*
X399541Y293545D01*
X399582Y293556D01*
X399633Y293571D01*
X399683Y293596D01*
X399734Y293629D01*
X399785Y293672D01*
X399793Y293680D01*
X399807Y293698D01*
X399825Y293724D01*
X399851Y293763D01*
X399873Y293814D01*
X399895Y293873D01*
X399909Y293942D01*
X399913Y294018D01*
Y294040D01*
X399909Y294055D01*
X399905Y294098D01*
X399895Y294149D01*
X399880Y294204D01*
X399855Y294266D01*
X399822Y294324D01*
X399778Y294379D01*
X399771Y294386D01*
X399753Y294401D01*
X399724Y294422D01*
X399680Y294444D01*
X399629Y294470D01*
X399563Y294492D01*
X399491Y294506D01*
X399407Y294513D01*
X399440Y294830D01*
X399443D01*
X399454Y294826D01*
X399472D01*
X399498Y294823D01*
X399527Y294815D01*
X399560Y294808D01*
X399600Y294797D01*
X399640Y294786D01*
X399727Y294757D01*
X399815Y294714D01*
X399858Y294688D01*
X399902Y294655D01*
X399942Y294623D01*
X399978Y294586D01*
X399982Y294583D01*
X399986Y294575D01*
X399996Y294564D01*
X400007Y294546D01*
X400022Y294524D01*
X400037Y294499D01*
X400055Y294470D01*
X400073Y294433D01*
X400091Y294393D01*
X400109Y294350D01*
X400124Y294302D01*
X400139Y294251D01*
X400149Y294197D01*
X400160Y294138D01*
X400164Y294077D01*
X400168Y294011D01*
Y293975D01*
X400164Y293949D01*
X400160Y293920D01*
X400157Y293884D01*
X400149Y293844D01*
X400142Y293804D01*
X400117Y293709D01*
X400080Y293614D01*
X400058Y293567D01*
X400033Y293520D01*
X400000Y293476D01*
X399964Y293436D01*
X399960Y293432D01*
X399956Y293425D01*
X399942Y293418D01*
X399927Y293403D01*
X399909Y293385D01*
X399884Y293367D01*
X399858Y293349D01*
X399825Y293327D01*
X399756Y293290D01*
X399669Y293254D01*
X399625Y293239D01*
X399574Y293232D01*
X399523Y293225D01*
X399469Y293221D01*
X399461D01*
X399443D01*
X399414Y293225D01*
X399374Y293228D01*
X399330Y293236D01*
X399279Y293250D01*
X399225Y293265D01*
X399170Y293287D01*
X399163Y293290D01*
X399145Y293298D01*
X399116Y293312D01*
X399076Y293334D01*
X399032Y293363D01*
X398977Y293400D01*
X398923Y293443D01*
X398861Y293494D01*
X398854Y293501D01*
X398832Y293520D01*
X398814Y293538D01*
X398795Y293556D01*
X398774Y293578D01*
X398744Y293607D01*
X398715Y293636D01*
X398682Y293672D01*
X398646Y293709D01*
X398606Y293753D01*
X398566Y293800D01*
X398519Y293851D01*
X398471Y293909D01*
X398420Y293967D01*
X398417Y293971D01*
X398410Y293978D01*
X398399Y293993D01*
X398384Y294011D01*
X398362Y294033D01*
X398340Y294058D01*
X398293Y294117D01*
X398238Y294179D01*
X398184Y294237D01*
X398136Y294288D01*
X398118Y294309D01*
X398100Y294328D01*
X398096Y294331D01*
X398085Y294342D01*
X398071Y294357D01*
X398049Y294375D01*
X398024Y294393D01*
X397998Y294415D01*
X397936Y294459D01*
Y293217D01*
X397638D01*
Y294888D01*
X397641D01*
X397656D01*
X397678D01*
X397707Y294885D01*
D02*
G37*
G36*
X479711Y222203D02*
X480315D01*
Y221894D01*
X479711D01*
Y220798D01*
X479427D01*
X477796Y221952D01*
Y222203D01*
X479427D01*
Y222545D01*
X479711D01*
Y222203D01*
D02*
G37*
G36*
X480315Y219800D02*
X478346D01*
X478349Y219797D01*
X478364Y219779D01*
X478386Y219757D01*
X478411Y219720D01*
X478444Y219680D01*
X478480Y219629D01*
X478520Y219571D01*
X478560Y219506D01*
Y219502D01*
X478564Y219498D01*
X478579Y219477D01*
X478597Y219440D01*
X478619Y219396D01*
X478644Y219345D01*
X478670Y219291D01*
X478695Y219236D01*
X478717Y219182D01*
X478418D01*
Y219185D01*
X478411Y219193D01*
X478408Y219207D01*
X478397Y219225D01*
X478386Y219247D01*
X478371Y219273D01*
X478335Y219335D01*
X478295Y219407D01*
X478244Y219480D01*
X478186Y219557D01*
X478124Y219633D01*
X478120Y219637D01*
X478116Y219640D01*
X478105Y219651D01*
X478095Y219666D01*
X478058Y219699D01*
X478015Y219742D01*
X477963Y219786D01*
X477905Y219833D01*
X477847Y219873D01*
X477785Y219910D01*
Y220110D01*
X480315D01*
Y219800D01*
D02*
G37*
G36*
X479347Y218512D02*
X479383D01*
X479427Y218508D01*
X479470Y218505D01*
X479569Y218494D01*
X479671Y218479D01*
X479769Y218457D01*
X479816Y218443D01*
X479860Y218428D01*
X479864D01*
X479871Y218425D01*
X479882Y218417D01*
X479896Y218410D01*
X479936Y218388D01*
X479987Y218355D01*
X480046Y218312D01*
X480104Y218261D01*
X480166Y218195D01*
X480220Y218115D01*
Y218111D01*
X480228Y218104D01*
X480231Y218093D01*
X480242Y218075D01*
X480253Y218053D01*
X480264Y218024D01*
X480275Y217995D01*
X480290Y217959D01*
X480304Y217919D01*
X480315Y217875D01*
X480326Y217828D01*
X480337Y217773D01*
X480344Y217718D01*
X480351Y217660D01*
X480359Y217529D01*
Y217496D01*
X480355Y217471D01*
Y217442D01*
X480351Y217405D01*
X480348Y217365D01*
X480344Y217325D01*
X480330Y217234D01*
X480308Y217136D01*
X480279Y217041D01*
X480238Y216950D01*
Y216947D01*
X480231Y216939D01*
X480224Y216929D01*
X480217Y216914D01*
X480188Y216874D01*
X480148Y216827D01*
X480097Y216772D01*
X480038Y216721D01*
X479965Y216670D01*
X479885Y216630D01*
X479882D01*
X479875Y216626D01*
X479860Y216623D01*
X479842Y216616D01*
X479820Y216608D01*
X479791Y216601D01*
X479758Y216590D01*
X479718Y216583D01*
X479674Y216576D01*
X479627Y216565D01*
X479576Y216557D01*
X479521Y216550D01*
X479460Y216543D01*
X479394Y216539D01*
X479325Y216535D01*
X479252D01*
X477796D01*
Y216870D01*
X479252D01*
X479256D01*
X479267D01*
X479285D01*
X479307D01*
X479332Y216874D01*
X479365D01*
X479434Y216878D01*
X479514Y216885D01*
X479594Y216896D01*
X479671Y216910D01*
X479703Y216918D01*
X479736Y216929D01*
X479743Y216932D01*
X479762Y216939D01*
X479787Y216958D01*
X479824Y216980D01*
X479860Y217005D01*
X479900Y217041D01*
X479940Y217085D01*
X479973Y217136D01*
X479976Y217143D01*
X479987Y217161D01*
X479998Y217194D01*
X480013Y217238D01*
X480031Y217289D01*
X480042Y217354D01*
X480053Y217424D01*
X480056Y217500D01*
Y217536D01*
X480053Y217558D01*
Y217591D01*
X480049Y217624D01*
X480035Y217704D01*
X480017Y217791D01*
X479987Y217875D01*
X479947Y217955D01*
X479922Y217991D01*
X479893Y218024D01*
X479889Y218028D01*
X479885Y218032D01*
X479875Y218039D01*
X479860Y218050D01*
X479838Y218061D01*
X479816Y218075D01*
X479783Y218090D01*
X479751Y218104D01*
X479711Y218119D01*
X479663Y218130D01*
X479609Y218144D01*
X479551Y218155D01*
X479485Y218166D01*
X479416Y218173D01*
X479336Y218181D01*
X479252D01*
X477796D01*
Y218516D01*
X479252D01*
X479256D01*
X479270D01*
X479288D01*
X479314D01*
X479347Y218512D01*
D02*
G37*
G36*
X451962Y222571D02*
X451992Y222567D01*
X452024Y222563D01*
X452064Y222556D01*
X452104Y222549D01*
X452199Y222527D01*
X452297Y222491D01*
X452348Y222469D01*
X452396Y222440D01*
X452447Y222410D01*
X452494Y222374D01*
X452497Y222370D01*
X452508Y222363D01*
X452523Y222348D01*
X452541Y222330D01*
X452563Y222305D01*
X452592Y222276D01*
X452618Y222239D01*
X452647Y222199D01*
X452676Y222156D01*
X452701Y222105D01*
X452727Y222050D01*
X452752Y221992D01*
X452771Y221930D01*
X452785Y221861D01*
X452796Y221788D01*
X452800Y221711D01*
Y221679D01*
X452796Y221653D01*
X452792Y221624D01*
X452789Y221591D01*
X452785Y221551D01*
X452774Y221511D01*
X452752Y221420D01*
X452719Y221329D01*
X452698Y221282D01*
X452672Y221235D01*
X452643Y221191D01*
X452610Y221147D01*
X452607Y221144D01*
X452603Y221136D01*
X452589Y221129D01*
X452574Y221115D01*
X452556Y221096D01*
X452534Y221078D01*
X452505Y221056D01*
X452472Y221038D01*
X452439Y221016D01*
X452399Y220994D01*
X452312Y220954D01*
X452210Y220922D01*
X452155Y220911D01*
X452097Y220903D01*
X452072Y221227D01*
X452075D01*
X452082D01*
X452093Y221231D01*
X452112Y221235D01*
X452152Y221246D01*
X452206Y221260D01*
X452261Y221282D01*
X452323Y221311D01*
X452377Y221347D01*
X452428Y221391D01*
X452432Y221398D01*
X452447Y221413D01*
X452465Y221442D01*
X452487Y221482D01*
X452508Y221526D01*
X452527Y221581D01*
X452541Y221642D01*
X452545Y221711D01*
Y221733D01*
X452541Y221748D01*
X452537Y221792D01*
X452523Y221843D01*
X452505Y221904D01*
X452476Y221966D01*
X452432Y222032D01*
X452407Y222061D01*
X452377Y222090D01*
X452374Y222094D01*
X452370Y222097D01*
X452359Y222105D01*
X452348Y222115D01*
X452308Y222141D01*
X452257Y222170D01*
X452195Y222196D01*
X452119Y222221D01*
X452028Y222239D01*
X451981Y222247D01*
X451930D01*
X451926D01*
X451919D01*
X451904D01*
X451886Y222243D01*
X451864D01*
X451839Y222239D01*
X451780Y222228D01*
X451711Y222210D01*
X451642Y222185D01*
X451577Y222148D01*
X451515Y222097D01*
X451511D01*
X451507Y222090D01*
X451489Y222072D01*
X451464Y222039D01*
X451435Y221995D01*
X451409Y221937D01*
X451384Y221872D01*
X451365Y221795D01*
X451358Y221751D01*
Y221682D01*
X451362Y221653D01*
X451365Y221617D01*
X451376Y221573D01*
X451387Y221530D01*
X451405Y221482D01*
X451427Y221435D01*
X451431Y221431D01*
X451438Y221417D01*
X451456Y221395D01*
X451475Y221366D01*
X451500Y221337D01*
X451533Y221307D01*
X451566Y221275D01*
X451606Y221249D01*
X451566Y220958D01*
X450270Y221202D01*
Y222454D01*
X450565D01*
Y221446D01*
X451245Y221311D01*
X451242Y221315D01*
X451238Y221322D01*
X451231Y221333D01*
X451220Y221351D01*
X451209Y221373D01*
X451194Y221398D01*
X451165Y221457D01*
X451136Y221530D01*
X451111Y221610D01*
X451092Y221697D01*
X451085Y221741D01*
Y221821D01*
X451089Y221843D01*
X451092Y221872D01*
X451096Y221904D01*
X451103Y221941D01*
X451114Y221981D01*
X451140Y222068D01*
X451158Y222115D01*
X451183Y222163D01*
X451209Y222210D01*
X451238Y222257D01*
X451274Y222301D01*
X451314Y222345D01*
X451318Y222348D01*
X451325Y222356D01*
X451336Y222367D01*
X451355Y222381D01*
X451380Y222399D01*
X451405Y222418D01*
X451438Y222440D01*
X451475Y222461D01*
X451515Y222480D01*
X451558Y222501D01*
X451609Y222520D01*
X451660Y222538D01*
X451715Y222552D01*
X451777Y222563D01*
X451839Y222571D01*
X451904Y222574D01*
X451908D01*
X451919D01*
X451937D01*
X451962Y222571D01*
D02*
G37*
G36*
X452756Y219800D02*
X450787D01*
X450790Y219797D01*
X450805Y219779D01*
X450827Y219757D01*
X450852Y219720D01*
X450885Y219680D01*
X450921Y219629D01*
X450961Y219571D01*
X451001Y219506D01*
Y219502D01*
X451005Y219498D01*
X451020Y219477D01*
X451038Y219440D01*
X451060Y219396D01*
X451085Y219345D01*
X451111Y219291D01*
X451136Y219236D01*
X451158Y219182D01*
X450859D01*
Y219185D01*
X450852Y219193D01*
X450848Y219207D01*
X450838Y219225D01*
X450827Y219247D01*
X450812Y219273D01*
X450776Y219335D01*
X450736Y219407D01*
X450685Y219480D01*
X450627Y219557D01*
X450565Y219633D01*
X450561Y219637D01*
X450557Y219640D01*
X450546Y219651D01*
X450535Y219666D01*
X450499Y219699D01*
X450455Y219742D01*
X450405Y219786D01*
X450346Y219833D01*
X450288Y219873D01*
X450226Y219910D01*
Y220110D01*
X452756D01*
Y219800D01*
D02*
G37*
G36*
X451788Y218512D02*
X451824D01*
X451868Y218508D01*
X451911Y218505D01*
X452010Y218494D01*
X452112Y218479D01*
X452210Y218457D01*
X452257Y218443D01*
X452301Y218428D01*
X452305D01*
X452312Y218425D01*
X452323Y218417D01*
X452337Y218410D01*
X452377Y218388D01*
X452428Y218355D01*
X452487Y218312D01*
X452545Y218261D01*
X452607Y218195D01*
X452661Y218115D01*
Y218111D01*
X452669Y218104D01*
X452672Y218093D01*
X452683Y218075D01*
X452694Y218053D01*
X452705Y218024D01*
X452716Y217995D01*
X452730Y217959D01*
X452745Y217919D01*
X452756Y217875D01*
X452767Y217828D01*
X452778Y217773D01*
X452785Y217718D01*
X452792Y217660D01*
X452800Y217529D01*
Y217496D01*
X452796Y217471D01*
Y217442D01*
X452792Y217405D01*
X452789Y217365D01*
X452785Y217325D01*
X452771Y217234D01*
X452749Y217136D01*
X452719Y217041D01*
X452679Y216950D01*
Y216947D01*
X452672Y216939D01*
X452665Y216929D01*
X452658Y216914D01*
X452629Y216874D01*
X452589Y216827D01*
X452537Y216772D01*
X452479Y216721D01*
X452407Y216670D01*
X452326Y216630D01*
X452323D01*
X452316Y216626D01*
X452301Y216623D01*
X452283Y216616D01*
X452261Y216608D01*
X452232Y216601D01*
X452199Y216590D01*
X452159Y216583D01*
X452115Y216576D01*
X452068Y216565D01*
X452017Y216557D01*
X451962Y216550D01*
X451900Y216543D01*
X451835Y216539D01*
X451766Y216535D01*
X451693D01*
X450237D01*
Y216870D01*
X451693D01*
X451697D01*
X451708D01*
X451726D01*
X451748D01*
X451773Y216874D01*
X451806D01*
X451875Y216878D01*
X451955Y216885D01*
X452035Y216896D01*
X452112Y216910D01*
X452144Y216918D01*
X452177Y216929D01*
X452184Y216932D01*
X452203Y216939D01*
X452228Y216958D01*
X452264Y216980D01*
X452301Y217005D01*
X452341Y217041D01*
X452381Y217085D01*
X452414Y217136D01*
X452417Y217143D01*
X452428Y217161D01*
X452439Y217194D01*
X452454Y217238D01*
X452472Y217289D01*
X452483Y217354D01*
X452494Y217424D01*
X452497Y217500D01*
Y217536D01*
X452494Y217558D01*
Y217591D01*
X452490Y217624D01*
X452476Y217704D01*
X452457Y217791D01*
X452428Y217875D01*
X452388Y217955D01*
X452363Y217991D01*
X452334Y218024D01*
X452330Y218028D01*
X452326Y218032D01*
X452316Y218039D01*
X452301Y218050D01*
X452279Y218061D01*
X452257Y218075D01*
X452224Y218090D01*
X452192Y218104D01*
X452152Y218119D01*
X452104Y218130D01*
X452050Y218144D01*
X451992Y218155D01*
X451926Y218166D01*
X451857Y218173D01*
X451777Y218181D01*
X451693D01*
X450237D01*
Y218516D01*
X451693D01*
X451697D01*
X451711D01*
X451729D01*
X451755D01*
X451788Y218512D01*
D02*
G37*
G36*
X424443Y222552D02*
X424465D01*
X424523Y222541D01*
X424593Y222531D01*
X424665Y222512D01*
X424746Y222487D01*
X424822Y222450D01*
X424826D01*
X424829Y222447D01*
X424840Y222440D01*
X424855Y222432D01*
X424891Y222410D01*
X424938Y222378D01*
X424989Y222338D01*
X425040Y222290D01*
X425091Y222232D01*
X425135Y222170D01*
Y222166D01*
X425139Y222163D01*
X425146Y222152D01*
X425149Y222137D01*
X425168Y222101D01*
X425186Y222054D01*
X425208Y221992D01*
X425222Y221923D01*
X425237Y221846D01*
X425241Y221762D01*
Y221744D01*
X425237Y221726D01*
Y221697D01*
X425233Y221664D01*
X425226Y221628D01*
X425215Y221584D01*
X425204Y221540D01*
X425190Y221490D01*
X425171Y221439D01*
X425149Y221388D01*
X425120Y221333D01*
X425088Y221282D01*
X425051Y221231D01*
X425008Y221180D01*
X424957Y221133D01*
X424953Y221129D01*
X424942Y221122D01*
X424928Y221111D01*
X424902Y221096D01*
X424869Y221075D01*
X424833Y221056D01*
X424786Y221035D01*
X424735Y221013D01*
X424673Y220987D01*
X424604Y220965D01*
X424527Y220947D01*
X424443Y220929D01*
X424349Y220911D01*
X424247Y220900D01*
X424138Y220893D01*
X424021Y220889D01*
X424017D01*
X424014D01*
X424003D01*
X423988D01*
X423952Y220893D01*
X423901D01*
X423843Y220896D01*
X423774Y220903D01*
X423697Y220911D01*
X423614Y220922D01*
X423530Y220936D01*
X423439Y220954D01*
X423351Y220976D01*
X423264Y221002D01*
X423180Y221035D01*
X423100Y221071D01*
X423024Y221111D01*
X422958Y221158D01*
X422955Y221162D01*
X422947Y221169D01*
X422933Y221184D01*
X422911Y221202D01*
X422889Y221224D01*
X422867Y221253D01*
X422838Y221289D01*
X422813Y221326D01*
X422787Y221369D01*
X422758Y221417D01*
X422736Y221471D01*
X422711Y221526D01*
X422692Y221588D01*
X422678Y221653D01*
X422671Y221722D01*
X422667Y221795D01*
Y221824D01*
X422671Y221846D01*
Y221872D01*
X422674Y221901D01*
X422689Y221970D01*
X422707Y222046D01*
X422736Y222127D01*
X422780Y222207D01*
X422805Y222247D01*
X422834Y222283D01*
X422838Y222287D01*
X422842Y222290D01*
X422853Y222301D01*
X422864Y222312D01*
X422882Y222330D01*
X422904Y222345D01*
X422955Y222385D01*
X423020Y222425D01*
X423100Y222461D01*
X423191Y222494D01*
X423293Y222516D01*
X423319Y222207D01*
X423315D01*
X423311Y222203D01*
X423289Y222199D01*
X423257Y222188D01*
X423217Y222174D01*
X423173Y222159D01*
X423129Y222137D01*
X423089Y222112D01*
X423057Y222086D01*
X423049Y222079D01*
X423035Y222065D01*
X423013Y222039D01*
X422987Y222003D01*
X422965Y221955D01*
X422944Y221904D01*
X422929Y221843D01*
X422922Y221777D01*
Y221751D01*
X422926Y221722D01*
X422933Y221690D01*
X422944Y221646D01*
X422958Y221602D01*
X422976Y221559D01*
X423006Y221515D01*
X423009Y221508D01*
X423024Y221490D01*
X423049Y221464D01*
X423086Y221431D01*
X423129Y221395D01*
X423180Y221355D01*
X423246Y221318D01*
X423319Y221282D01*
X423322D01*
X423329Y221278D01*
X423340Y221275D01*
X423355Y221267D01*
X423377Y221264D01*
X423402Y221256D01*
X423431Y221249D01*
X423468Y221242D01*
X423508Y221231D01*
X423552Y221224D01*
X423599Y221217D01*
X423650Y221213D01*
X423708Y221205D01*
X423766Y221202D01*
X423832Y221198D01*
X423897D01*
X423894Y221202D01*
X423872Y221217D01*
X423843Y221242D01*
X423806Y221275D01*
X423763Y221311D01*
X423723Y221358D01*
X423683Y221409D01*
X423646Y221468D01*
Y221471D01*
X423643Y221475D01*
X423632Y221497D01*
X423621Y221530D01*
X423602Y221573D01*
X423588Y221624D01*
X423577Y221682D01*
X423566Y221744D01*
X423562Y221810D01*
Y221839D01*
X423566Y221861D01*
X423570Y221890D01*
X423573Y221919D01*
X423581Y221955D01*
X423592Y221992D01*
X423617Y222076D01*
X423635Y222119D01*
X423661Y222163D01*
X423686Y222207D01*
X423715Y222254D01*
X423752Y222298D01*
X423792Y222338D01*
X423795Y222341D01*
X423803Y222348D01*
X423814Y222359D01*
X423832Y222370D01*
X423857Y222389D01*
X423883Y222407D01*
X423916Y222425D01*
X423952Y222447D01*
X423992Y222469D01*
X424036Y222487D01*
X424087Y222505D01*
X424138Y222523D01*
X424192Y222534D01*
X424254Y222545D01*
X424316Y222552D01*
X424381Y222556D01*
X424385D01*
X424392D01*
X424403D01*
X424422D01*
X424443Y222552D01*
D02*
G37*
G36*
X425197Y219800D02*
X423228D01*
X423231Y219797D01*
X423246Y219779D01*
X423268Y219757D01*
X423293Y219720D01*
X423326Y219680D01*
X423362Y219629D01*
X423402Y219571D01*
X423442Y219506D01*
Y219502D01*
X423446Y219498D01*
X423461Y219477D01*
X423479Y219440D01*
X423501Y219396D01*
X423526Y219345D01*
X423552Y219291D01*
X423577Y219236D01*
X423599Y219182D01*
X423300D01*
Y219185D01*
X423293Y219193D01*
X423289Y219207D01*
X423279Y219225D01*
X423268Y219247D01*
X423253Y219273D01*
X423217Y219335D01*
X423177Y219407D01*
X423126Y219480D01*
X423068Y219557D01*
X423006Y219633D01*
X423002Y219637D01*
X422998Y219640D01*
X422987Y219651D01*
X422976Y219666D01*
X422940Y219699D01*
X422896Y219742D01*
X422845Y219786D01*
X422787Y219833D01*
X422729Y219873D01*
X422667Y219910D01*
Y220110D01*
X425197D01*
Y219800D01*
D02*
G37*
G36*
X424229Y218512D02*
X424265D01*
X424309Y218508D01*
X424352Y218505D01*
X424451Y218494D01*
X424553Y218479D01*
X424651Y218457D01*
X424698Y218443D01*
X424742Y218428D01*
X424746D01*
X424753Y218425D01*
X424764Y218417D01*
X424778Y218410D01*
X424818Y218388D01*
X424869Y218355D01*
X424928Y218312D01*
X424986Y218261D01*
X425048Y218195D01*
X425102Y218115D01*
Y218111D01*
X425109Y218104D01*
X425113Y218093D01*
X425124Y218075D01*
X425135Y218053D01*
X425146Y218024D01*
X425157Y217995D01*
X425171Y217959D01*
X425186Y217919D01*
X425197Y217875D01*
X425208Y217828D01*
X425219Y217773D01*
X425226Y217718D01*
X425233Y217660D01*
X425241Y217529D01*
Y217496D01*
X425237Y217471D01*
Y217442D01*
X425233Y217405D01*
X425230Y217365D01*
X425226Y217325D01*
X425211Y217234D01*
X425190Y217136D01*
X425161Y217041D01*
X425120Y216950D01*
Y216947D01*
X425113Y216939D01*
X425106Y216929D01*
X425099Y216914D01*
X425069Y216874D01*
X425029Y216827D01*
X424978Y216772D01*
X424920Y216721D01*
X424847Y216670D01*
X424767Y216630D01*
X424764D01*
X424756Y216626D01*
X424742Y216623D01*
X424724Y216616D01*
X424702Y216608D01*
X424673Y216601D01*
X424640Y216590D01*
X424600Y216583D01*
X424556Y216576D01*
X424509Y216565D01*
X424458Y216557D01*
X424403Y216550D01*
X424341Y216543D01*
X424276Y216539D01*
X424207Y216535D01*
X424134D01*
X422678D01*
Y216870D01*
X424134D01*
X424138D01*
X424149D01*
X424167D01*
X424189D01*
X424214Y216874D01*
X424247D01*
X424316Y216878D01*
X424396Y216885D01*
X424476Y216896D01*
X424553Y216910D01*
X424585Y216918D01*
X424618Y216929D01*
X424625Y216932D01*
X424644Y216939D01*
X424669Y216958D01*
X424706Y216980D01*
X424742Y217005D01*
X424782Y217041D01*
X424822Y217085D01*
X424855Y217136D01*
X424858Y217143D01*
X424869Y217161D01*
X424880Y217194D01*
X424895Y217238D01*
X424913Y217289D01*
X424924Y217354D01*
X424935Y217424D01*
X424938Y217500D01*
Y217536D01*
X424935Y217558D01*
Y217591D01*
X424931Y217624D01*
X424917Y217704D01*
X424898Y217791D01*
X424869Y217875D01*
X424829Y217955D01*
X424804Y217991D01*
X424775Y218024D01*
X424771Y218028D01*
X424767Y218032D01*
X424756Y218039D01*
X424742Y218050D01*
X424720Y218061D01*
X424698Y218075D01*
X424665Y218090D01*
X424633Y218104D01*
X424593Y218119D01*
X424545Y218130D01*
X424491Y218144D01*
X424432Y218155D01*
X424367Y218166D01*
X424298Y218173D01*
X424218Y218181D01*
X424134D01*
X422678D01*
Y218516D01*
X424134D01*
X424138D01*
X424152D01*
X424170D01*
X424196D01*
X424229Y218512D01*
D02*
G37*
G36*
X202486Y222552D02*
X202493Y222545D01*
X202508Y222531D01*
X202530Y222516D01*
X202555Y222494D01*
X202584Y222465D01*
X202621Y222436D01*
X202664Y222403D01*
X202708Y222370D01*
X202759Y222330D01*
X202817Y222290D01*
X202875Y222250D01*
X202941Y222207D01*
X203010Y222163D01*
X203086Y222119D01*
X203163Y222076D01*
X203167Y222072D01*
X203181Y222065D01*
X203203Y222054D01*
X203236Y222036D01*
X203276Y222017D01*
X203319Y221995D01*
X203370Y221970D01*
X203429Y221944D01*
X203494Y221915D01*
X203560Y221883D01*
X203632Y221853D01*
X203709Y221824D01*
X203865Y221766D01*
X204033Y221711D01*
X204036D01*
X204047Y221708D01*
X204066Y221704D01*
X204087Y221697D01*
X204117Y221690D01*
X204153Y221682D01*
X204193Y221672D01*
X204237Y221664D01*
X204288Y221653D01*
X204342Y221642D01*
X204459Y221624D01*
X204586Y221606D01*
X204724Y221595D01*
Y221278D01*
X204721D01*
X204710D01*
X204695D01*
X204674Y221282D01*
X204644D01*
X204608Y221286D01*
X204568Y221289D01*
X204524Y221293D01*
X204473Y221300D01*
X204422Y221307D01*
X204360Y221318D01*
X204298Y221329D01*
X204233Y221340D01*
X204160Y221355D01*
X204011Y221391D01*
X204007D01*
X203993Y221395D01*
X203971Y221402D01*
X203938Y221413D01*
X203902Y221424D01*
X203858Y221439D01*
X203807Y221453D01*
X203752Y221475D01*
X203691Y221497D01*
X203629Y221519D01*
X203490Y221573D01*
X203345Y221639D01*
X203199Y221711D01*
X203196Y221715D01*
X203181Y221722D01*
X203163Y221733D01*
X203134Y221748D01*
X203101Y221766D01*
X203061Y221792D01*
X203017Y221817D01*
X202970Y221846D01*
X202864Y221915D01*
X202755Y221988D01*
X202642Y222072D01*
X202537Y222159D01*
Y220925D01*
X202238D01*
Y222556D01*
X202482D01*
X202486Y222552D01*
D02*
G37*
G36*
X204724Y219800D02*
X202755D01*
X202759Y219797D01*
X202773Y219779D01*
X202795Y219757D01*
X202821Y219720D01*
X202853Y219680D01*
X202890Y219629D01*
X202930Y219571D01*
X202970Y219506D01*
Y219502D01*
X202974Y219498D01*
X202988Y219477D01*
X203006Y219440D01*
X203028Y219396D01*
X203054Y219345D01*
X203079Y219291D01*
X203105Y219236D01*
X203126Y219182D01*
X202828D01*
Y219185D01*
X202821Y219193D01*
X202817Y219207D01*
X202806Y219225D01*
X202795Y219247D01*
X202781Y219273D01*
X202744Y219335D01*
X202704Y219407D01*
X202653Y219480D01*
X202595Y219557D01*
X202533Y219633D01*
X202530Y219637D01*
X202526Y219640D01*
X202515Y219651D01*
X202504Y219666D01*
X202468Y219699D01*
X202424Y219742D01*
X202373Y219786D01*
X202315Y219833D01*
X202256Y219873D01*
X202195Y219910D01*
Y220110D01*
X204724D01*
Y219800D01*
D02*
G37*
G36*
X203756Y218512D02*
X203793D01*
X203836Y218508D01*
X203880Y218505D01*
X203978Y218494D01*
X204080Y218479D01*
X204178Y218457D01*
X204226Y218443D01*
X204269Y218428D01*
X204273D01*
X204280Y218425D01*
X204291Y218417D01*
X204306Y218410D01*
X204346Y218388D01*
X204397Y218355D01*
X204455Y218312D01*
X204513Y218261D01*
X204575Y218195D01*
X204630Y218115D01*
Y218111D01*
X204637Y218104D01*
X204641Y218093D01*
X204652Y218075D01*
X204662Y218053D01*
X204674Y218024D01*
X204684Y217995D01*
X204699Y217959D01*
X204714Y217919D01*
X204724Y217875D01*
X204735Y217828D01*
X204746Y217773D01*
X204753Y217718D01*
X204761Y217660D01*
X204768Y217529D01*
Y217496D01*
X204765Y217471D01*
Y217442D01*
X204761Y217405D01*
X204757Y217365D01*
X204753Y217325D01*
X204739Y217234D01*
X204717Y217136D01*
X204688Y217041D01*
X204648Y216950D01*
Y216947D01*
X204641Y216939D01*
X204633Y216929D01*
X204626Y216914D01*
X204597Y216874D01*
X204557Y216827D01*
X204506Y216772D01*
X204448Y216721D01*
X204375Y216670D01*
X204295Y216630D01*
X204291D01*
X204284Y216626D01*
X204269Y216623D01*
X204251Y216616D01*
X204229Y216608D01*
X204200Y216601D01*
X204168Y216590D01*
X204127Y216583D01*
X204084Y216576D01*
X204036Y216565D01*
X203986Y216557D01*
X203931Y216550D01*
X203869Y216543D01*
X203803Y216539D01*
X203734Y216535D01*
X203661D01*
X202205D01*
Y216870D01*
X203661D01*
X203665D01*
X203676D01*
X203694D01*
X203716D01*
X203742Y216874D01*
X203774D01*
X203843Y216878D01*
X203924Y216885D01*
X204004Y216896D01*
X204080Y216910D01*
X204113Y216918D01*
X204146Y216929D01*
X204153Y216932D01*
X204171Y216939D01*
X204197Y216958D01*
X204233Y216980D01*
X204269Y217005D01*
X204309Y217041D01*
X204349Y217085D01*
X204382Y217136D01*
X204386Y217143D01*
X204397Y217161D01*
X204408Y217194D01*
X204422Y217238D01*
X204440Y217289D01*
X204451Y217354D01*
X204462Y217424D01*
X204466Y217500D01*
Y217536D01*
X204462Y217558D01*
Y217591D01*
X204459Y217624D01*
X204444Y217704D01*
X204426Y217791D01*
X204397Y217875D01*
X204357Y217955D01*
X204331Y217991D01*
X204302Y218024D01*
X204298Y218028D01*
X204295Y218032D01*
X204284Y218039D01*
X204269Y218050D01*
X204248Y218061D01*
X204226Y218075D01*
X204193Y218090D01*
X204160Y218104D01*
X204120Y218119D01*
X204073Y218130D01*
X204018Y218144D01*
X203960Y218155D01*
X203894Y218166D01*
X203825Y218173D01*
X203745Y218181D01*
X203661D01*
X202205D01*
Y218516D01*
X203661D01*
X203665D01*
X203680D01*
X203698D01*
X203723D01*
X203756Y218512D01*
D02*
G37*
G36*
X176503Y222556D02*
X176528Y222552D01*
X176561Y222549D01*
X176597Y222541D01*
X176638Y222531D01*
X176721Y222505D01*
X176769Y222487D01*
X176812Y222461D01*
X176860Y222436D01*
X176903Y222407D01*
X176947Y222370D01*
X176991Y222330D01*
X176994Y222327D01*
X177002Y222319D01*
X177013Y222308D01*
X177023Y222290D01*
X177042Y222265D01*
X177060Y222239D01*
X177078Y222207D01*
X177100Y222170D01*
X177122Y222130D01*
X177140Y222083D01*
X177158Y222032D01*
X177176Y221981D01*
X177187Y221923D01*
X177198Y221861D01*
X177205Y221799D01*
X177209Y221730D01*
Y221693D01*
X177205Y221668D01*
X177202Y221635D01*
X177198Y221599D01*
X177191Y221559D01*
X177180Y221515D01*
X177154Y221417D01*
X177136Y221366D01*
X177118Y221318D01*
X177093Y221267D01*
X177063Y221217D01*
X177031Y221169D01*
X176991Y221126D01*
X176987Y221122D01*
X176980Y221115D01*
X176969Y221104D01*
X176951Y221089D01*
X176929Y221075D01*
X176903Y221053D01*
X176874Y221035D01*
X176838Y221013D01*
X176801Y220991D01*
X176758Y220973D01*
X176667Y220936D01*
X176612Y220922D01*
X176558Y220911D01*
X176499Y220903D01*
X176441Y220900D01*
X176437D01*
X176430D01*
X176416D01*
X176401Y220903D01*
X176379D01*
X176354Y220907D01*
X176295Y220914D01*
X176230Y220929D01*
X176164Y220951D01*
X176095Y220984D01*
X176030Y221024D01*
X176026D01*
X176022Y221031D01*
X176004Y221045D01*
X175975Y221075D01*
X175939Y221115D01*
X175902Y221165D01*
X175862Y221227D01*
X175830Y221297D01*
X175804Y221380D01*
Y221377D01*
X175800Y221373D01*
X175797Y221362D01*
X175789Y221347D01*
X175775Y221315D01*
X175753Y221271D01*
X175724Y221224D01*
X175688Y221176D01*
X175647Y221133D01*
X175604Y221093D01*
X175596Y221089D01*
X175582Y221078D01*
X175553Y221064D01*
X175516Y221049D01*
X175469Y221031D01*
X175415Y221016D01*
X175353Y221005D01*
X175287Y221002D01*
X175284D01*
X175276D01*
X175262D01*
X175240Y221005D01*
X175218Y221009D01*
X175189Y221013D01*
X175127Y221027D01*
X175054Y221049D01*
X174978Y221085D01*
X174938Y221107D01*
X174898Y221133D01*
X174861Y221165D01*
X174825Y221198D01*
X174821Y221202D01*
X174818Y221209D01*
X174807Y221220D01*
X174796Y221235D01*
X174781Y221253D01*
X174767Y221278D01*
X174748Y221307D01*
X174730Y221337D01*
X174712Y221373D01*
X174694Y221413D01*
X174679Y221457D01*
X174665Y221504D01*
X174643Y221606D01*
X174639Y221664D01*
X174636Y221722D01*
Y221755D01*
X174639Y221777D01*
X174643Y221806D01*
X174646Y221839D01*
X174650Y221875D01*
X174661Y221912D01*
X174683Y221999D01*
X174716Y222086D01*
X174738Y222130D01*
X174763Y222174D01*
X174796Y222214D01*
X174829Y222254D01*
X174832Y222257D01*
X174836Y222261D01*
X174847Y222272D01*
X174861Y222287D01*
X174883Y222301D01*
X174905Y222319D01*
X174960Y222356D01*
X175029Y222392D01*
X175109Y222425D01*
X175200Y222450D01*
X175247Y222454D01*
X175298Y222458D01*
X175302D01*
X175305D01*
X175327D01*
X175360Y222454D01*
X175400Y222447D01*
X175451Y222436D01*
X175502Y222418D01*
X175553Y222396D01*
X175604Y222363D01*
X175611Y222359D01*
X175626Y222345D01*
X175647Y222323D01*
X175677Y222294D01*
X175709Y222254D01*
X175742Y222207D01*
X175775Y222152D01*
X175804Y222086D01*
Y222090D01*
X175808Y222097D01*
X175811Y222108D01*
X175819Y222123D01*
X175837Y222166D01*
X175862Y222217D01*
X175899Y222272D01*
X175939Y222330D01*
X175990Y222385D01*
X176048Y222436D01*
X176051D01*
X176055Y222440D01*
X176077Y222454D01*
X176113Y222476D01*
X176161Y222498D01*
X176219Y222520D01*
X176288Y222541D01*
X176365Y222556D01*
X176448Y222560D01*
X176452D01*
X176463D01*
X176481D01*
X176503Y222556D01*
D02*
G37*
G36*
X177165Y219800D02*
X175196D01*
X175200Y219797D01*
X175214Y219779D01*
X175236Y219757D01*
X175262Y219720D01*
X175294Y219680D01*
X175331Y219629D01*
X175371Y219571D01*
X175411Y219506D01*
Y219502D01*
X175415Y219498D01*
X175429Y219477D01*
X175447Y219440D01*
X175469Y219396D01*
X175495Y219345D01*
X175520Y219291D01*
X175546Y219236D01*
X175567Y219182D01*
X175269D01*
Y219185D01*
X175262Y219193D01*
X175258Y219207D01*
X175247Y219225D01*
X175236Y219247D01*
X175222Y219273D01*
X175185Y219335D01*
X175145Y219407D01*
X175094Y219480D01*
X175036Y219557D01*
X174974Y219633D01*
X174970Y219637D01*
X174967Y219640D01*
X174956Y219651D01*
X174945Y219666D01*
X174908Y219699D01*
X174865Y219742D01*
X174814Y219786D01*
X174756Y219833D01*
X174697Y219873D01*
X174636Y219910D01*
Y220110D01*
X177165D01*
Y219800D01*
D02*
G37*
G36*
X176197Y218512D02*
X176233D01*
X176277Y218508D01*
X176321Y218505D01*
X176419Y218494D01*
X176521Y218479D01*
X176619Y218457D01*
X176667Y218443D01*
X176710Y218428D01*
X176714D01*
X176721Y218425D01*
X176732Y218417D01*
X176747Y218410D01*
X176787Y218388D01*
X176838Y218355D01*
X176896Y218312D01*
X176954Y218261D01*
X177016Y218195D01*
X177071Y218115D01*
Y218111D01*
X177078Y218104D01*
X177082Y218093D01*
X177093Y218075D01*
X177103Y218053D01*
X177114Y218024D01*
X177125Y217995D01*
X177140Y217959D01*
X177154Y217919D01*
X177165Y217875D01*
X177176Y217828D01*
X177187Y217773D01*
X177194Y217718D01*
X177202Y217660D01*
X177209Y217529D01*
Y217496D01*
X177205Y217471D01*
Y217442D01*
X177202Y217405D01*
X177198Y217365D01*
X177194Y217325D01*
X177180Y217234D01*
X177158Y217136D01*
X177129Y217041D01*
X177089Y216950D01*
Y216947D01*
X177082Y216939D01*
X177074Y216929D01*
X177067Y216914D01*
X177038Y216874D01*
X176998Y216827D01*
X176947Y216772D01*
X176889Y216721D01*
X176816Y216670D01*
X176736Y216630D01*
X176732D01*
X176725Y216626D01*
X176710Y216623D01*
X176692Y216616D01*
X176670Y216608D01*
X176641Y216601D01*
X176608Y216590D01*
X176568Y216583D01*
X176525Y216576D01*
X176477Y216565D01*
X176426Y216557D01*
X176372Y216550D01*
X176310Y216543D01*
X176244Y216539D01*
X176175Y216535D01*
X176102D01*
X174646D01*
Y216870D01*
X176102D01*
X176106D01*
X176117D01*
X176135D01*
X176157D01*
X176182Y216874D01*
X176215D01*
X176285Y216878D01*
X176365Y216885D01*
X176445Y216896D01*
X176521Y216910D01*
X176554Y216918D01*
X176587Y216929D01*
X176594Y216932D01*
X176612Y216939D01*
X176638Y216958D01*
X176674Y216980D01*
X176710Y217005D01*
X176750Y217041D01*
X176790Y217085D01*
X176823Y217136D01*
X176827Y217143D01*
X176838Y217161D01*
X176849Y217194D01*
X176863Y217238D01*
X176881Y217289D01*
X176892Y217354D01*
X176903Y217424D01*
X176907Y217500D01*
Y217536D01*
X176903Y217558D01*
Y217591D01*
X176900Y217624D01*
X176885Y217704D01*
X176867Y217791D01*
X176838Y217875D01*
X176798Y217955D01*
X176772Y217991D01*
X176743Y218024D01*
X176740Y218028D01*
X176736Y218032D01*
X176725Y218039D01*
X176710Y218050D01*
X176689Y218061D01*
X176667Y218075D01*
X176634Y218090D01*
X176601Y218104D01*
X176561Y218119D01*
X176514Y218130D01*
X176459Y218144D01*
X176401Y218155D01*
X176335Y218166D01*
X176266Y218173D01*
X176186Y218181D01*
X176102D01*
X174646D01*
Y218516D01*
X176102D01*
X176106D01*
X176121D01*
X176139D01*
X176164D01*
X176197Y218512D01*
D02*
G37*
G36*
X262361Y298878D02*
X260905D01*
X260902D01*
X260891D01*
X260873D01*
X260851D01*
X260825Y298874D01*
X260793D01*
X260723Y298870D01*
X260643Y298863D01*
X260563Y298852D01*
X260487Y298838D01*
X260454Y298830D01*
X260421Y298819D01*
X260414Y298816D01*
X260396Y298809D01*
X260370Y298790D01*
X260334Y298768D01*
X260297Y298743D01*
X260258Y298707D01*
X260217Y298663D01*
X260185Y298612D01*
X260181Y298605D01*
X260170Y298587D01*
X260159Y298554D01*
X260145Y298510D01*
X260126Y298459D01*
X260116Y298394D01*
X260105Y298324D01*
X260101Y298248D01*
Y298212D01*
X260105Y298190D01*
Y298157D01*
X260108Y298124D01*
X260123Y298044D01*
X260141Y297957D01*
X260170Y297873D01*
X260210Y297793D01*
X260236Y297757D01*
X260265Y297724D01*
X260268Y297720D01*
X260272Y297717D01*
X260283Y297709D01*
X260297Y297698D01*
X260319Y297687D01*
X260341Y297673D01*
X260374Y297658D01*
X260407Y297644D01*
X260447Y297629D01*
X260494Y297618D01*
X260549Y297604D01*
X260607Y297593D01*
X260672Y297582D01*
X260742Y297575D01*
X260822Y297567D01*
X260905D01*
X262361D01*
Y297232D01*
X260905D01*
X260902D01*
X260887D01*
X260869D01*
X260843D01*
X260811Y297236D01*
X260774D01*
X260731Y297240D01*
X260687Y297243D01*
X260589Y297254D01*
X260487Y297269D01*
X260388Y297291D01*
X260341Y297305D01*
X260297Y297320D01*
X260294D01*
X260287Y297323D01*
X260276Y297331D01*
X260261Y297338D01*
X260221Y297360D01*
X260170Y297393D01*
X260112Y297436D01*
X260054Y297487D01*
X259992Y297553D01*
X259937Y297633D01*
Y297637D01*
X259930Y297644D01*
X259926Y297655D01*
X259915Y297673D01*
X259904Y297695D01*
X259893Y297724D01*
X259883Y297753D01*
X259868Y297789D01*
X259853Y297829D01*
X259842Y297873D01*
X259832Y297920D01*
X259821Y297975D01*
X259813Y298030D01*
X259806Y298088D01*
X259799Y298219D01*
Y298252D01*
X259803Y298277D01*
Y298306D01*
X259806Y298343D01*
X259810Y298383D01*
X259813Y298423D01*
X259828Y298514D01*
X259850Y298612D01*
X259879Y298707D01*
X259919Y298798D01*
Y298801D01*
X259926Y298809D01*
X259933Y298819D01*
X259941Y298834D01*
X259970Y298874D01*
X260010Y298921D01*
X260061Y298976D01*
X260119Y299027D01*
X260192Y299078D01*
X260272Y299118D01*
X260276D01*
X260283Y299122D01*
X260297Y299125D01*
X260316Y299132D01*
X260338Y299140D01*
X260367Y299147D01*
X260399Y299158D01*
X260439Y299165D01*
X260483Y299173D01*
X260530Y299184D01*
X260581Y299191D01*
X260636Y299198D01*
X260698Y299205D01*
X260763Y299209D01*
X260833Y299213D01*
X260905D01*
X262361D01*
Y298878D01*
D02*
G37*
G36*
X261739Y296563D02*
X261746Y296555D01*
X261750Y296541D01*
X261761Y296523D01*
X261772Y296501D01*
X261786Y296475D01*
X261823Y296413D01*
X261863Y296341D01*
X261914Y296268D01*
X261972Y296191D01*
X262034Y296115D01*
X262037Y296111D01*
X262041Y296108D01*
X262052Y296097D01*
X262063Y296082D01*
X262099Y296049D01*
X262143Y296006D01*
X262194Y295962D01*
X262252Y295915D01*
X262310Y295875D01*
X262372Y295838D01*
Y295638D01*
X259842D01*
Y295948D01*
X261812D01*
X261808Y295951D01*
X261794Y295969D01*
X261772Y295991D01*
X261746Y296028D01*
X261714Y296068D01*
X261677Y296119D01*
X261637Y296177D01*
X261597Y296242D01*
Y296246D01*
X261593Y296250D01*
X261579Y296271D01*
X261561Y296308D01*
X261539Y296352D01*
X261513Y296403D01*
X261488Y296457D01*
X261462Y296512D01*
X261440Y296566D01*
X261739D01*
Y296563D01*
D02*
G37*
G36*
X261582Y294841D02*
X261615Y294837D01*
X261655Y294834D01*
X261695Y294826D01*
X261743Y294815D01*
X261837Y294790D01*
X261888Y294772D01*
X261943Y294750D01*
X261994Y294724D01*
X262041Y294692D01*
X262092Y294659D01*
X262136Y294619D01*
X262139Y294615D01*
X262147Y294608D01*
X262158Y294597D01*
X262172Y294579D01*
X262190Y294557D01*
X262212Y294528D01*
X262230Y294499D01*
X262256Y294462D01*
X262278Y294426D01*
X262296Y294382D01*
X262336Y294284D01*
X262351Y294233D01*
X262361Y294175D01*
X262369Y294117D01*
X262372Y294055D01*
Y294029D01*
X262369Y294011D01*
Y293993D01*
X262365Y293967D01*
X262354Y293905D01*
X262340Y293836D01*
X262314Y293760D01*
X262281Y293683D01*
X262238Y293607D01*
Y293603D01*
X262230Y293600D01*
X262223Y293589D01*
X262212Y293574D01*
X262183Y293538D01*
X262143Y293491D01*
X262088Y293443D01*
X262023Y293389D01*
X261946Y293341D01*
X261859Y293298D01*
X261855D01*
X261848Y293294D01*
X261834Y293287D01*
X261815Y293279D01*
X261790Y293272D01*
X261757Y293261D01*
X261721Y293254D01*
X261681Y293243D01*
X261633Y293232D01*
X261579Y293221D01*
X261521Y293214D01*
X261459Y293207D01*
X261389Y293199D01*
X261317Y293192D01*
X261237Y293188D01*
X261153D01*
X261149D01*
X261131D01*
X261106D01*
X261073D01*
X261033Y293192D01*
X260985D01*
X260931Y293196D01*
X260876Y293203D01*
X260753Y293214D01*
X260622Y293232D01*
X260498Y293258D01*
X260436Y293276D01*
X260381Y293294D01*
X260378D01*
X260370Y293298D01*
X260356Y293305D01*
X260334Y293312D01*
X260312Y293323D01*
X260283Y293338D01*
X260221Y293374D01*
X260152Y293418D01*
X260079Y293469D01*
X260010Y293534D01*
X259948Y293607D01*
Y293611D01*
X259941Y293618D01*
X259933Y293629D01*
X259926Y293643D01*
X259915Y293665D01*
X259901Y293687D01*
X259886Y293716D01*
X259875Y293745D01*
X259846Y293814D01*
X259821Y293898D01*
X259806Y293989D01*
X259799Y294091D01*
Y294120D01*
X259803Y294138D01*
Y294164D01*
X259806Y294193D01*
X259821Y294262D01*
X259839Y294339D01*
X259868Y294419D01*
X259908Y294499D01*
X259933Y294539D01*
X259963Y294575D01*
X259966Y294579D01*
X259970Y294583D01*
X259981Y294593D01*
X259992Y294604D01*
X260010Y294619D01*
X260032Y294637D01*
X260083Y294673D01*
X260148Y294710D01*
X260228Y294746D01*
X260319Y294775D01*
X260425Y294797D01*
X260450Y294499D01*
X260447D01*
X260439Y294495D01*
X260432D01*
X260418Y294492D01*
X260378Y294481D01*
X260334Y294466D01*
X260283Y294448D01*
X260232Y294422D01*
X260185Y294393D01*
X260145Y294357D01*
X260141Y294353D01*
X260130Y294339D01*
X260116Y294313D01*
X260101Y294284D01*
X260083Y294244D01*
X260068Y294197D01*
X260057Y294142D01*
X260054Y294084D01*
Y294058D01*
X260057Y294033D01*
X260061Y294000D01*
X260068Y293960D01*
X260079Y293920D01*
X260094Y293876D01*
X260116Y293836D01*
X260119Y293833D01*
X260126Y293818D01*
X260141Y293796D01*
X260163Y293774D01*
X260188Y293745D01*
X260217Y293716D01*
X260250Y293687D01*
X260290Y293658D01*
X260294Y293654D01*
X260312Y293647D01*
X260338Y293633D01*
X260370Y293618D01*
X260414Y293600D01*
X260465Y293582D01*
X260523Y293563D01*
X260589Y293545D01*
X260592D01*
X260596Y293542D01*
X260607D01*
X260622Y293538D01*
X260658Y293531D01*
X260705Y293520D01*
X260763Y293512D01*
X260825Y293505D01*
X260894Y293501D01*
X260967Y293498D01*
X260971D01*
X260982D01*
X261000D01*
X261029D01*
X261022Y293501D01*
X261004Y293516D01*
X260978Y293538D01*
X260942Y293563D01*
X260905Y293600D01*
X260865Y293643D01*
X260825Y293694D01*
X260789Y293753D01*
X260785Y293760D01*
X260774Y293782D01*
X260760Y293814D01*
X260745Y293854D01*
X260727Y293909D01*
X260713Y293967D01*
X260702Y294033D01*
X260698Y294102D01*
Y294131D01*
X260702Y294153D01*
X260705Y294182D01*
X260709Y294211D01*
X260716Y294248D01*
X260727Y294284D01*
X260753Y294368D01*
X260771Y294411D01*
X260793Y294455D01*
X260818Y294502D01*
X260851Y294546D01*
X260884Y294590D01*
X260924Y294630D01*
X260927Y294634D01*
X260934Y294641D01*
X260945Y294648D01*
X260964Y294663D01*
X260989Y294681D01*
X261015Y294699D01*
X261047Y294717D01*
X261084Y294735D01*
X261124Y294757D01*
X261168Y294775D01*
X261218Y294794D01*
X261269Y294812D01*
X261328Y294826D01*
X261389Y294834D01*
X261451Y294841D01*
X261521Y294845D01*
X261524D01*
X261539D01*
X261557D01*
X261582Y294841D01*
D02*
G37*
G36*
X372598Y216201D02*
X371142D01*
X371138D01*
X371127D01*
X371109D01*
X371087D01*
X371061Y216197D01*
X371029D01*
X370960Y216193D01*
X370880Y216186D01*
X370799Y216175D01*
X370723Y216160D01*
X370690Y216153D01*
X370657Y216142D01*
X370650Y216139D01*
X370632Y216131D01*
X370606Y216113D01*
X370570Y216091D01*
X370534Y216066D01*
X370494Y216030D01*
X370454Y215986D01*
X370421Y215935D01*
X370417Y215928D01*
X370406Y215909D01*
X370395Y215877D01*
X370381Y215833D01*
X370363Y215782D01*
X370352Y215716D01*
X370341Y215647D01*
X370337Y215571D01*
Y215534D01*
X370341Y215513D01*
Y215480D01*
X370344Y215447D01*
X370359Y215367D01*
X370377Y215280D01*
X370406Y215196D01*
X370446Y215116D01*
X370472Y215079D01*
X370501Y215047D01*
X370505Y215043D01*
X370508Y215039D01*
X370519Y215032D01*
X370534Y215021D01*
X370556Y215010D01*
X370577Y214996D01*
X370610Y214981D01*
X370643Y214967D01*
X370683Y214952D01*
X370730Y214941D01*
X370785Y214927D01*
X370843Y214916D01*
X370909Y214905D01*
X370978Y214897D01*
X371058Y214890D01*
X371142D01*
X372598D01*
Y214555D01*
X371142D01*
X371138D01*
X371123D01*
X371105D01*
X371080D01*
X371047Y214559D01*
X371011D01*
X370967Y214563D01*
X370923Y214566D01*
X370825Y214577D01*
X370723Y214592D01*
X370625Y214614D01*
X370577Y214628D01*
X370534Y214643D01*
X370530D01*
X370523Y214646D01*
X370512Y214653D01*
X370497Y214661D01*
X370457Y214683D01*
X370406Y214715D01*
X370348Y214759D01*
X370290Y214810D01*
X370228Y214876D01*
X370173Y214956D01*
Y214959D01*
X370166Y214967D01*
X370163Y214978D01*
X370151Y214996D01*
X370141Y215018D01*
X370130Y215047D01*
X370119Y215076D01*
X370104Y215112D01*
X370090Y215152D01*
X370079Y215196D01*
X370068Y215243D01*
X370057Y215298D01*
X370050Y215352D01*
X370042Y215411D01*
X370035Y215542D01*
Y215575D01*
X370039Y215600D01*
Y215629D01*
X370042Y215666D01*
X370046Y215705D01*
X370050Y215746D01*
X370064Y215837D01*
X370086Y215935D01*
X370115Y216030D01*
X370155Y216121D01*
Y216124D01*
X370163Y216131D01*
X370170Y216142D01*
X370177Y216157D01*
X370206Y216197D01*
X370246Y216244D01*
X370297Y216299D01*
X370355Y216350D01*
X370428Y216401D01*
X370508Y216441D01*
X370512D01*
X370519Y216444D01*
X370534Y216448D01*
X370552Y216455D01*
X370574Y216463D01*
X370603Y216470D01*
X370636Y216481D01*
X370676Y216488D01*
X370719Y216495D01*
X370767Y216506D01*
X370818Y216514D01*
X370872Y216521D01*
X370934Y216528D01*
X371000Y216532D01*
X371069Y216535D01*
X371142D01*
X372598D01*
Y216201D01*
D02*
G37*
G36*
X370148Y214166D02*
X370181Y214162D01*
X370217Y214155D01*
X370253Y214148D01*
X370293Y214133D01*
X370297D01*
X370301Y214129D01*
X370323Y214122D01*
X370355Y214107D01*
X370399Y214086D01*
X370450Y214057D01*
X370508Y214020D01*
X370567Y213980D01*
X370628Y213929D01*
X370632D01*
X370636Y213922D01*
X370657Y213904D01*
X370690Y213871D01*
X370738Y213824D01*
X370792Y213769D01*
X370858Y213700D01*
X370931Y213616D01*
X371007Y213525D01*
X371011Y213522D01*
X371022Y213507D01*
X371040Y213485D01*
X371061Y213460D01*
X371091Y213427D01*
X371123Y213387D01*
X371160Y213347D01*
X371200Y213299D01*
X371287Y213209D01*
X371375Y213118D01*
X371418Y213074D01*
X371462Y213034D01*
X371502Y212997D01*
X371542Y212968D01*
X371546D01*
X371549Y212961D01*
X371560Y212954D01*
X371575Y212946D01*
X371615Y212921D01*
X371662Y212892D01*
X371720Y212866D01*
X371782Y212841D01*
X371851Y212826D01*
X371917Y212819D01*
X371921D01*
X371924D01*
X371946Y212823D01*
X371983Y212826D01*
X372023Y212837D01*
X372074Y212852D01*
X372124Y212877D01*
X372175Y212910D01*
X372226Y212954D01*
X372234Y212961D01*
X372248Y212979D01*
X372266Y213005D01*
X372292Y213045D01*
X372314Y213096D01*
X372336Y213154D01*
X372350Y213223D01*
X372354Y213299D01*
Y213321D01*
X372350Y213336D01*
X372346Y213380D01*
X372336Y213431D01*
X372321Y213485D01*
X372295Y213547D01*
X372263Y213605D01*
X372219Y213660D01*
X372212Y213667D01*
X372194Y213682D01*
X372165Y213703D01*
X372121Y213725D01*
X372070Y213751D01*
X372004Y213773D01*
X371932Y213787D01*
X371848Y213794D01*
X371881Y214111D01*
X371884D01*
X371895Y214107D01*
X371913D01*
X371939Y214104D01*
X371968Y214097D01*
X372001Y214089D01*
X372041Y214078D01*
X372081Y214068D01*
X372168Y214038D01*
X372255Y213995D01*
X372299Y213969D01*
X372343Y213936D01*
X372383Y213904D01*
X372419Y213867D01*
X372423Y213864D01*
X372427Y213856D01*
X372438Y213845D01*
X372448Y213827D01*
X372463Y213805D01*
X372478Y213780D01*
X372496Y213751D01*
X372514Y213714D01*
X372532Y213674D01*
X372550Y213631D01*
X372565Y213583D01*
X372579Y213532D01*
X372590Y213478D01*
X372601Y213420D01*
X372605Y213358D01*
X372608Y213292D01*
Y213256D01*
X372605Y213230D01*
X372601Y213201D01*
X372598Y213165D01*
X372590Y213125D01*
X372583Y213085D01*
X372558Y212990D01*
X372521Y212895D01*
X372499Y212848D01*
X372474Y212801D01*
X372441Y212757D01*
X372405Y212717D01*
X372401Y212713D01*
X372397Y212706D01*
X372383Y212699D01*
X372368Y212684D01*
X372350Y212666D01*
X372325Y212648D01*
X372299Y212630D01*
X372266Y212608D01*
X372197Y212572D01*
X372110Y212535D01*
X372066Y212521D01*
X372015Y212513D01*
X371964Y212506D01*
X371910Y212502D01*
X371902D01*
X371884D01*
X371855Y212506D01*
X371815Y212510D01*
X371771Y212517D01*
X371720Y212531D01*
X371666Y212546D01*
X371611Y212568D01*
X371604Y212572D01*
X371586Y212579D01*
X371557Y212593D01*
X371516Y212615D01*
X371473Y212644D01*
X371418Y212681D01*
X371364Y212724D01*
X371302Y212775D01*
X371294Y212783D01*
X371273Y212801D01*
X371254Y212819D01*
X371236Y212837D01*
X371214Y212859D01*
X371185Y212888D01*
X371156Y212917D01*
X371123Y212954D01*
X371087Y212990D01*
X371047Y213034D01*
X371007Y213081D01*
X370960Y213132D01*
X370912Y213190D01*
X370861Y213248D01*
X370858Y213252D01*
X370850Y213259D01*
X370840Y213274D01*
X370825Y213292D01*
X370803Y213314D01*
X370781Y213339D01*
X370734Y213398D01*
X370679Y213460D01*
X370625Y213518D01*
X370577Y213569D01*
X370559Y213591D01*
X370541Y213609D01*
X370537Y213613D01*
X370527Y213623D01*
X370512Y213638D01*
X370490Y213656D01*
X370465Y213674D01*
X370439Y213696D01*
X370377Y213740D01*
Y212499D01*
X370079D01*
Y214169D01*
X370082D01*
X370097D01*
X370119D01*
X370148Y214166D01*
D02*
G37*
G36*
X345039Y216201D02*
X343583D01*
X343579D01*
X343568D01*
X343550D01*
X343528D01*
X343502Y216197D01*
X343470D01*
X343401Y216193D01*
X343320Y216186D01*
X343240Y216175D01*
X343164Y216160D01*
X343131Y216153D01*
X343098Y216142D01*
X343091Y216139D01*
X343073Y216131D01*
X343047Y216113D01*
X343011Y216091D01*
X342975Y216066D01*
X342935Y216030D01*
X342895Y215986D01*
X342862Y215935D01*
X342858Y215928D01*
X342847Y215909D01*
X342836Y215877D01*
X342822Y215833D01*
X342804Y215782D01*
X342793Y215716D01*
X342782Y215647D01*
X342778Y215571D01*
Y215534D01*
X342782Y215513D01*
Y215480D01*
X342785Y215447D01*
X342800Y215367D01*
X342818Y215280D01*
X342847Y215196D01*
X342887Y215116D01*
X342913Y215079D01*
X342942Y215047D01*
X342946Y215043D01*
X342949Y215039D01*
X342960Y215032D01*
X342975Y215021D01*
X342997Y215010D01*
X343018Y214996D01*
X343051Y214981D01*
X343084Y214967D01*
X343124Y214952D01*
X343171Y214941D01*
X343226Y214927D01*
X343284Y214916D01*
X343350Y214905D01*
X343419Y214897D01*
X343499Y214890D01*
X343583D01*
X345039D01*
Y214555D01*
X343583D01*
X343579D01*
X343564D01*
X343546D01*
X343521D01*
X343488Y214559D01*
X343451D01*
X343408Y214563D01*
X343364Y214566D01*
X343266Y214577D01*
X343164Y214592D01*
X343066Y214614D01*
X343018Y214628D01*
X342975Y214643D01*
X342971D01*
X342964Y214646D01*
X342953Y214653D01*
X342938Y214661D01*
X342898Y214683D01*
X342847Y214715D01*
X342789Y214759D01*
X342731Y214810D01*
X342669Y214876D01*
X342614Y214956D01*
Y214959D01*
X342607Y214967D01*
X342603Y214978D01*
X342593Y214996D01*
X342582Y215018D01*
X342571Y215047D01*
X342560Y215076D01*
X342545Y215112D01*
X342531Y215152D01*
X342520Y215196D01*
X342509Y215243D01*
X342498Y215298D01*
X342491Y215352D01*
X342483Y215411D01*
X342476Y215542D01*
Y215575D01*
X342480Y215600D01*
Y215629D01*
X342483Y215666D01*
X342487Y215705D01*
X342491Y215746D01*
X342505Y215837D01*
X342527Y215935D01*
X342556Y216030D01*
X342596Y216121D01*
Y216124D01*
X342603Y216131D01*
X342611Y216142D01*
X342618Y216157D01*
X342647Y216197D01*
X342687Y216244D01*
X342738Y216299D01*
X342796Y216350D01*
X342869Y216401D01*
X342949Y216441D01*
X342953D01*
X342960Y216444D01*
X342975Y216448D01*
X342993Y216455D01*
X343015Y216463D01*
X343044Y216470D01*
X343077Y216481D01*
X343117Y216488D01*
X343160Y216495D01*
X343208Y216506D01*
X343259Y216514D01*
X343313Y216521D01*
X343375Y216528D01*
X343441Y216532D01*
X343510Y216535D01*
X343583D01*
X345039D01*
Y216201D01*
D02*
G37*
G36*
X344416Y213885D02*
X344423Y213878D01*
X344427Y213864D01*
X344438Y213845D01*
X344449Y213824D01*
X344463Y213798D01*
X344500Y213736D01*
X344540Y213664D01*
X344591Y213591D01*
X344649Y213514D01*
X344711Y213438D01*
X344715Y213434D01*
X344718Y213431D01*
X344729Y213420D01*
X344740Y213405D01*
X344777Y213372D01*
X344820Y213329D01*
X344871Y213285D01*
X344929Y213238D01*
X344988Y213198D01*
X345050Y213161D01*
Y212961D01*
X342520D01*
Y213270D01*
X344489D01*
X344485Y213274D01*
X344471Y213292D01*
X344449Y213314D01*
X344423Y213350D01*
X344391Y213390D01*
X344354Y213441D01*
X344314Y213500D01*
X344274Y213565D01*
Y213569D01*
X344270Y213573D01*
X344256Y213594D01*
X344238Y213631D01*
X344216Y213674D01*
X344191Y213725D01*
X344165Y213780D01*
X344140Y213835D01*
X344118Y213889D01*
X344416D01*
Y213885D01*
D02*
G37*
G36*
X289920Y298878D02*
X288464D01*
X288461D01*
X288450D01*
X288432D01*
X288410D01*
X288384Y298874D01*
X288352D01*
X288282Y298870D01*
X288202Y298863D01*
X288122Y298852D01*
X288046Y298838D01*
X288013Y298830D01*
X287980Y298819D01*
X287973Y298816D01*
X287955Y298809D01*
X287929Y298790D01*
X287893Y298768D01*
X287857Y298743D01*
X287817Y298707D01*
X287776Y298663D01*
X287744Y298612D01*
X287740Y298605D01*
X287729Y298587D01*
X287718Y298554D01*
X287704Y298510D01*
X287685Y298459D01*
X287675Y298394D01*
X287664Y298324D01*
X287660Y298248D01*
Y298212D01*
X287664Y298190D01*
Y298157D01*
X287667Y298124D01*
X287682Y298044D01*
X287700Y297957D01*
X287729Y297873D01*
X287769Y297793D01*
X287795Y297757D01*
X287824Y297724D01*
X287827Y297720D01*
X287831Y297717D01*
X287842Y297709D01*
X287857Y297698D01*
X287878Y297687D01*
X287900Y297673D01*
X287933Y297658D01*
X287966Y297644D01*
X288006Y297629D01*
X288053Y297618D01*
X288108Y297604D01*
X288166Y297593D01*
X288231Y297582D01*
X288301Y297575D01*
X288381Y297567D01*
X288464D01*
X289920D01*
Y297232D01*
X288464D01*
X288461D01*
X288446D01*
X288428D01*
X288403D01*
X288370Y297236D01*
X288333D01*
X288290Y297240D01*
X288246Y297243D01*
X288148Y297254D01*
X288046Y297269D01*
X287948Y297291D01*
X287900Y297305D01*
X287857Y297320D01*
X287853D01*
X287846Y297323D01*
X287835Y297331D01*
X287820Y297338D01*
X287780Y297360D01*
X287729Y297393D01*
X287671Y297436D01*
X287613Y297487D01*
X287551Y297553D01*
X287496Y297633D01*
Y297637D01*
X287489Y297644D01*
X287485Y297655D01*
X287474Y297673D01*
X287463Y297695D01*
X287453Y297724D01*
X287442Y297753D01*
X287427Y297789D01*
X287413Y297829D01*
X287402Y297873D01*
X287391Y297920D01*
X287380Y297975D01*
X287372Y298030D01*
X287365Y298088D01*
X287358Y298219D01*
Y298252D01*
X287362Y298277D01*
Y298306D01*
X287365Y298343D01*
X287369Y298383D01*
X287372Y298423D01*
X287387Y298514D01*
X287409Y298612D01*
X287438Y298707D01*
X287478Y298798D01*
Y298801D01*
X287485Y298809D01*
X287493Y298819D01*
X287500Y298834D01*
X287529Y298874D01*
X287569Y298921D01*
X287620Y298976D01*
X287678Y299027D01*
X287751Y299078D01*
X287831Y299118D01*
X287835D01*
X287842Y299122D01*
X287857Y299125D01*
X287875Y299132D01*
X287897Y299140D01*
X287926Y299147D01*
X287959Y299158D01*
X287999Y299165D01*
X288042Y299173D01*
X288089Y299184D01*
X288141Y299191D01*
X288195Y299198D01*
X288257Y299205D01*
X288322Y299209D01*
X288392Y299213D01*
X288464D01*
X289920D01*
Y298878D01*
D02*
G37*
G36*
X287471Y296843D02*
X287504Y296839D01*
X287540Y296832D01*
X287576Y296825D01*
X287616Y296810D01*
X287620D01*
X287624Y296807D01*
X287645Y296799D01*
X287678Y296785D01*
X287722Y296763D01*
X287773Y296734D01*
X287831Y296697D01*
X287889Y296657D01*
X287951Y296606D01*
X287955D01*
X287959Y296599D01*
X287980Y296581D01*
X288013Y296548D01*
X288060Y296501D01*
X288115Y296446D01*
X288180Y296377D01*
X288253Y296293D01*
X288330Y296202D01*
X288333Y296199D01*
X288344Y296184D01*
X288363Y296162D01*
X288384Y296137D01*
X288414Y296104D01*
X288446Y296064D01*
X288483Y296024D01*
X288523Y295977D01*
X288610Y295886D01*
X288697Y295795D01*
X288741Y295751D01*
X288785Y295711D01*
X288825Y295674D01*
X288865Y295645D01*
X288868D01*
X288872Y295638D01*
X288883Y295631D01*
X288898Y295624D01*
X288938Y295598D01*
X288985Y295569D01*
X289043Y295544D01*
X289105Y295518D01*
X289174Y295503D01*
X289240Y295496D01*
X289243D01*
X289247D01*
X289269Y295500D01*
X289305Y295503D01*
X289345Y295514D01*
X289396Y295529D01*
X289447Y295554D01*
X289498Y295587D01*
X289549Y295631D01*
X289556Y295638D01*
X289571Y295656D01*
X289589Y295682D01*
X289615Y295722D01*
X289636Y295773D01*
X289658Y295831D01*
X289673Y295900D01*
X289677Y295977D01*
Y295999D01*
X289673Y296013D01*
X289669Y296057D01*
X289658Y296108D01*
X289644Y296162D01*
X289618Y296224D01*
X289586Y296282D01*
X289542Y296337D01*
X289535Y296344D01*
X289516Y296359D01*
X289487Y296381D01*
X289444Y296403D01*
X289393Y296428D01*
X289327Y296450D01*
X289254Y296464D01*
X289171Y296472D01*
X289203Y296788D01*
X289207D01*
X289218Y296785D01*
X289236D01*
X289262Y296781D01*
X289291Y296774D01*
X289323Y296766D01*
X289364Y296756D01*
X289404Y296745D01*
X289491Y296716D01*
X289578Y296672D01*
X289622Y296646D01*
X289666Y296614D01*
X289706Y296581D01*
X289742Y296545D01*
X289746Y296541D01*
X289749Y296534D01*
X289760Y296523D01*
X289771Y296504D01*
X289786Y296483D01*
X289800Y296457D01*
X289819Y296428D01*
X289837Y296392D01*
X289855Y296352D01*
X289873Y296308D01*
X289888Y296261D01*
X289902Y296210D01*
X289913Y296155D01*
X289924Y296097D01*
X289928Y296035D01*
X289931Y295969D01*
Y295933D01*
X289928Y295907D01*
X289924Y295878D01*
X289920Y295842D01*
X289913Y295802D01*
X289906Y295762D01*
X289880Y295667D01*
X289844Y295573D01*
X289822Y295525D01*
X289797Y295478D01*
X289764Y295434D01*
X289727Y295394D01*
X289724Y295391D01*
X289720Y295383D01*
X289706Y295376D01*
X289691Y295361D01*
X289673Y295343D01*
X289647Y295325D01*
X289622Y295307D01*
X289589Y295285D01*
X289520Y295249D01*
X289433Y295212D01*
X289389Y295198D01*
X289338Y295190D01*
X289287Y295183D01*
X289232Y295180D01*
X289225D01*
X289207D01*
X289178Y295183D01*
X289138Y295187D01*
X289094Y295194D01*
X289043Y295209D01*
X288989Y295223D01*
X288934Y295245D01*
X288927Y295249D01*
X288909Y295256D01*
X288879Y295270D01*
X288839Y295292D01*
X288796Y295321D01*
X288741Y295358D01*
X288686Y295402D01*
X288625Y295452D01*
X288617Y295460D01*
X288596Y295478D01*
X288577Y295496D01*
X288559Y295514D01*
X288537Y295536D01*
X288508Y295565D01*
X288479Y295594D01*
X288446Y295631D01*
X288410Y295667D01*
X288370Y295711D01*
X288330Y295758D01*
X288282Y295809D01*
X288235Y295867D01*
X288184Y295926D01*
X288180Y295929D01*
X288173Y295937D01*
X288162Y295951D01*
X288148Y295969D01*
X288126Y295991D01*
X288104Y296017D01*
X288057Y296075D01*
X288002Y296137D01*
X287948Y296195D01*
X287900Y296246D01*
X287882Y296268D01*
X287864Y296286D01*
X287860Y296290D01*
X287849Y296301D01*
X287835Y296315D01*
X287813Y296333D01*
X287787Y296352D01*
X287762Y296373D01*
X287700Y296417D01*
Y295176D01*
X287402D01*
Y296847D01*
X287405D01*
X287420D01*
X287442D01*
X287471Y296843D01*
D02*
G37*
G36*
X288756Y294841D02*
X288799D01*
X288847Y294837D01*
X288901Y294834D01*
X289014Y294823D01*
X289134Y294805D01*
X289254Y294783D01*
X289309Y294768D01*
X289364Y294754D01*
X289367D01*
X289374Y294750D01*
X289389Y294743D01*
X289407Y294735D01*
X289433Y294728D01*
X289458Y294714D01*
X289520Y294684D01*
X289586Y294648D01*
X289655Y294601D01*
X289724Y294546D01*
X289782Y294481D01*
Y294477D01*
X289789Y294473D01*
X289797Y294462D01*
X289804Y294448D01*
X289819Y294430D01*
X289829Y294408D01*
X289859Y294353D01*
X289884Y294288D01*
X289910Y294211D01*
X289924Y294120D01*
X289931Y294022D01*
Y293989D01*
X289928Y293949D01*
X289920Y293902D01*
X289910Y293847D01*
X289895Y293789D01*
X289877Y293727D01*
X289848Y293669D01*
Y293665D01*
X289844Y293662D01*
X289833Y293643D01*
X289815Y293614D01*
X289789Y293578D01*
X289753Y293538D01*
X289713Y293494D01*
X289666Y293454D01*
X289611Y293414D01*
X289604Y293410D01*
X289586Y293396D01*
X289553Y293381D01*
X289506Y293356D01*
X289451Y293334D01*
X289389Y293305D01*
X289316Y293279D01*
X289236Y293258D01*
X289232D01*
X289225Y293254D01*
X289214Y293250D01*
X289196Y293247D01*
X289174Y293243D01*
X289149Y293239D01*
X289116Y293232D01*
X289080Y293228D01*
X289040Y293221D01*
X288996Y293217D01*
X288945Y293214D01*
X288894Y293207D01*
X288836Y293203D01*
X288777D01*
X288712Y293199D01*
X288643D01*
X288639D01*
X288625D01*
X288599D01*
X288570D01*
X288530Y293203D01*
X288486D01*
X288439Y293207D01*
X288388Y293210D01*
X288271Y293221D01*
X288151Y293239D01*
X288035Y293261D01*
X287980Y293276D01*
X287926Y293294D01*
X287922D01*
X287915Y293298D01*
X287900Y293305D01*
X287882Y293312D01*
X287857Y293319D01*
X287831Y293334D01*
X287769Y293363D01*
X287704Y293400D01*
X287631Y293447D01*
X287565Y293501D01*
X287504Y293567D01*
Y293571D01*
X287496Y293574D01*
X287489Y293585D01*
X287482Y293600D01*
X287471Y293618D01*
X287456Y293636D01*
X287431Y293691D01*
X287405Y293756D01*
X287380Y293833D01*
X287365Y293924D01*
X287358Y294022D01*
Y294058D01*
X287362Y294084D01*
X287365Y294113D01*
X287372Y294149D01*
X287380Y294189D01*
X287391Y294233D01*
X287405Y294277D01*
X287420Y294324D01*
X287442Y294371D01*
X287467Y294419D01*
X287496Y294466D01*
X287533Y294513D01*
X287573Y294557D01*
X287616Y294597D01*
X287620Y294601D01*
X287631Y294608D01*
X287649Y294619D01*
X287678Y294637D01*
X287711Y294655D01*
X287755Y294673D01*
X287806Y294699D01*
X287864Y294721D01*
X287929Y294743D01*
X288006Y294764D01*
X288089Y294786D01*
X288184Y294805D01*
X288286Y294823D01*
X288395Y294834D01*
X288515Y294841D01*
X288643Y294845D01*
X288647D01*
X288661D01*
X288686D01*
X288716D01*
X288756Y294841D01*
D02*
G37*
G36*
X289920Y259508D02*
X288464D01*
X288461D01*
X288450D01*
X288432D01*
X288410D01*
X288384Y259504D01*
X288352D01*
X288282Y259500D01*
X288202Y259493D01*
X288122Y259482D01*
X288046Y259468D01*
X288013Y259460D01*
X287980Y259449D01*
X287973Y259446D01*
X287955Y259438D01*
X287929Y259420D01*
X287893Y259398D01*
X287857Y259373D01*
X287817Y259337D01*
X287776Y259293D01*
X287744Y259242D01*
X287740Y259235D01*
X287729Y259216D01*
X287718Y259184D01*
X287704Y259140D01*
X287685Y259089D01*
X287675Y259023D01*
X287664Y258954D01*
X287660Y258878D01*
Y258841D01*
X287664Y258820D01*
Y258787D01*
X287667Y258754D01*
X287682Y258674D01*
X287700Y258587D01*
X287729Y258503D01*
X287769Y258423D01*
X287795Y258386D01*
X287824Y258354D01*
X287827Y258350D01*
X287831Y258347D01*
X287842Y258339D01*
X287857Y258328D01*
X287878Y258317D01*
X287900Y258303D01*
X287933Y258288D01*
X287966Y258274D01*
X288006Y258259D01*
X288053Y258248D01*
X288108Y258234D01*
X288166Y258223D01*
X288231Y258212D01*
X288301Y258205D01*
X288381Y258197D01*
X288464D01*
X289920D01*
Y257862D01*
X288464D01*
X288461D01*
X288446D01*
X288428D01*
X288403D01*
X288370Y257866D01*
X288333D01*
X288290Y257870D01*
X288246Y257873D01*
X288148Y257884D01*
X288046Y257899D01*
X287948Y257921D01*
X287900Y257935D01*
X287857Y257950D01*
X287853D01*
X287846Y257953D01*
X287835Y257961D01*
X287820Y257968D01*
X287780Y257990D01*
X287729Y258022D01*
X287671Y258066D01*
X287613Y258117D01*
X287551Y258183D01*
X287496Y258263D01*
Y258266D01*
X287489Y258274D01*
X287485Y258285D01*
X287474Y258303D01*
X287463Y258325D01*
X287453Y258354D01*
X287442Y258383D01*
X287427Y258419D01*
X287413Y258459D01*
X287402Y258503D01*
X287391Y258550D01*
X287380Y258605D01*
X287372Y258660D01*
X287365Y258718D01*
X287358Y258849D01*
Y258882D01*
X287362Y258907D01*
Y258936D01*
X287365Y258973D01*
X287369Y259013D01*
X287372Y259053D01*
X287387Y259144D01*
X287409Y259242D01*
X287438Y259337D01*
X287478Y259428D01*
Y259431D01*
X287485Y259438D01*
X287493Y259449D01*
X287500Y259464D01*
X287529Y259504D01*
X287569Y259551D01*
X287620Y259606D01*
X287678Y259657D01*
X287751Y259708D01*
X287831Y259748D01*
X287835D01*
X287842Y259752D01*
X287857Y259755D01*
X287875Y259762D01*
X287897Y259770D01*
X287926Y259777D01*
X287959Y259788D01*
X287999Y259795D01*
X288042Y259803D01*
X288089Y259813D01*
X288141Y259821D01*
X288195Y259828D01*
X288257Y259835D01*
X288322Y259839D01*
X288392Y259842D01*
X288464D01*
X289920D01*
Y259508D01*
D02*
G37*
G36*
X287471Y257473D02*
X287504Y257469D01*
X287540Y257462D01*
X287576Y257455D01*
X287616Y257440D01*
X287620D01*
X287624Y257436D01*
X287645Y257429D01*
X287678Y257415D01*
X287722Y257393D01*
X287773Y257364D01*
X287831Y257327D01*
X287889Y257287D01*
X287951Y257236D01*
X287955D01*
X287959Y257229D01*
X287980Y257211D01*
X288013Y257178D01*
X288060Y257131D01*
X288115Y257076D01*
X288180Y257007D01*
X288253Y256923D01*
X288330Y256832D01*
X288333Y256829D01*
X288344Y256814D01*
X288363Y256792D01*
X288384Y256767D01*
X288414Y256734D01*
X288446Y256694D01*
X288483Y256654D01*
X288523Y256607D01*
X288610Y256516D01*
X288697Y256425D01*
X288741Y256381D01*
X288785Y256341D01*
X288825Y256304D01*
X288865Y256275D01*
X288868D01*
X288872Y256268D01*
X288883Y256261D01*
X288898Y256254D01*
X288938Y256228D01*
X288985Y256199D01*
X289043Y256173D01*
X289105Y256148D01*
X289174Y256133D01*
X289240Y256126D01*
X289243D01*
X289247D01*
X289269Y256130D01*
X289305Y256133D01*
X289345Y256144D01*
X289396Y256159D01*
X289447Y256184D01*
X289498Y256217D01*
X289549Y256261D01*
X289556Y256268D01*
X289571Y256286D01*
X289589Y256312D01*
X289615Y256352D01*
X289636Y256403D01*
X289658Y256461D01*
X289673Y256530D01*
X289677Y256607D01*
Y256628D01*
X289673Y256643D01*
X289669Y256687D01*
X289658Y256738D01*
X289644Y256792D01*
X289618Y256854D01*
X289586Y256912D01*
X289542Y256967D01*
X289535Y256974D01*
X289516Y256989D01*
X289487Y257011D01*
X289444Y257032D01*
X289393Y257058D01*
X289327Y257080D01*
X289254Y257094D01*
X289171Y257102D01*
X289203Y257418D01*
X289207D01*
X289218Y257415D01*
X289236D01*
X289262Y257411D01*
X289291Y257404D01*
X289323Y257396D01*
X289364Y257385D01*
X289404Y257375D01*
X289491Y257346D01*
X289578Y257302D01*
X289622Y257276D01*
X289666Y257244D01*
X289706Y257211D01*
X289742Y257174D01*
X289746Y257171D01*
X289749Y257164D01*
X289760Y257153D01*
X289771Y257134D01*
X289786Y257113D01*
X289800Y257087D01*
X289819Y257058D01*
X289837Y257021D01*
X289855Y256981D01*
X289873Y256938D01*
X289888Y256891D01*
X289902Y256839D01*
X289913Y256785D01*
X289924Y256727D01*
X289928Y256665D01*
X289931Y256599D01*
Y256563D01*
X289928Y256537D01*
X289924Y256508D01*
X289920Y256472D01*
X289913Y256432D01*
X289906Y256392D01*
X289880Y256297D01*
X289844Y256203D01*
X289822Y256155D01*
X289797Y256108D01*
X289764Y256064D01*
X289727Y256024D01*
X289724Y256020D01*
X289720Y256013D01*
X289706Y256006D01*
X289691Y255991D01*
X289673Y255973D01*
X289647Y255955D01*
X289622Y255937D01*
X289589Y255915D01*
X289520Y255879D01*
X289433Y255842D01*
X289389Y255828D01*
X289338Y255820D01*
X289287Y255813D01*
X289232Y255809D01*
X289225D01*
X289207D01*
X289178Y255813D01*
X289138Y255817D01*
X289094Y255824D01*
X289043Y255838D01*
X288989Y255853D01*
X288934Y255875D01*
X288927Y255879D01*
X288909Y255886D01*
X288879Y255900D01*
X288839Y255922D01*
X288796Y255951D01*
X288741Y255988D01*
X288686Y256031D01*
X288625Y256082D01*
X288617Y256090D01*
X288596Y256108D01*
X288577Y256126D01*
X288559Y256144D01*
X288537Y256166D01*
X288508Y256195D01*
X288479Y256224D01*
X288446Y256261D01*
X288410Y256297D01*
X288370Y256341D01*
X288330Y256388D01*
X288282Y256439D01*
X288235Y256497D01*
X288184Y256556D01*
X288180Y256559D01*
X288173Y256567D01*
X288162Y256581D01*
X288148Y256599D01*
X288126Y256621D01*
X288104Y256647D01*
X288057Y256705D01*
X288002Y256767D01*
X287948Y256825D01*
X287900Y256876D01*
X287882Y256898D01*
X287864Y256916D01*
X287860Y256920D01*
X287849Y256930D01*
X287835Y256945D01*
X287813Y256963D01*
X287787Y256981D01*
X287762Y257003D01*
X287700Y257047D01*
Y255806D01*
X287402D01*
Y257476D01*
X287405D01*
X287420D01*
X287442D01*
X287471Y257473D01*
D02*
G37*
G36*
X289298Y255234D02*
X289305Y255227D01*
X289309Y255212D01*
X289320Y255194D01*
X289331Y255172D01*
X289345Y255147D01*
X289382Y255085D01*
X289422Y255012D01*
X289473Y254939D01*
X289531Y254863D01*
X289593Y254787D01*
X289597Y254783D01*
X289600Y254779D01*
X289611Y254768D01*
X289622Y254754D01*
X289658Y254721D01*
X289702Y254677D01*
X289753Y254634D01*
X289811Y254586D01*
X289869Y254546D01*
X289931Y254510D01*
Y254310D01*
X287402D01*
Y254619D01*
X289371D01*
X289367Y254623D01*
X289353Y254641D01*
X289331Y254663D01*
X289305Y254699D01*
X289272Y254739D01*
X289236Y254790D01*
X289196Y254848D01*
X289156Y254914D01*
Y254918D01*
X289152Y254921D01*
X289138Y254943D01*
X289120Y254979D01*
X289098Y255023D01*
X289072Y255074D01*
X289047Y255129D01*
X289021Y255183D01*
X289000Y255238D01*
X289298D01*
Y255234D01*
D02*
G37*
G36*
X234802Y216201D02*
X233346D01*
X233343D01*
X233332D01*
X233314D01*
X233292D01*
X233266Y216197D01*
X233233D01*
X233164Y216193D01*
X233084Y216186D01*
X233004Y216175D01*
X232928Y216160D01*
X232895Y216153D01*
X232862Y216142D01*
X232855Y216139D01*
X232837Y216131D01*
X232811Y216113D01*
X232775Y216091D01*
X232738Y216066D01*
X232698Y216030D01*
X232658Y215986D01*
X232626Y215935D01*
X232622Y215928D01*
X232611Y215909D01*
X232600Y215877D01*
X232586Y215833D01*
X232567Y215782D01*
X232557Y215716D01*
X232545Y215647D01*
X232542Y215571D01*
Y215534D01*
X232545Y215513D01*
Y215480D01*
X232549Y215447D01*
X232564Y215367D01*
X232582Y215280D01*
X232611Y215196D01*
X232651Y215116D01*
X232677Y215079D01*
X232706Y215047D01*
X232709Y215043D01*
X232713Y215039D01*
X232724Y215032D01*
X232738Y215021D01*
X232760Y215010D01*
X232782Y214996D01*
X232815Y214981D01*
X232848Y214967D01*
X232888Y214952D01*
X232935Y214941D01*
X232990Y214927D01*
X233048Y214916D01*
X233113Y214905D01*
X233183Y214897D01*
X233263Y214890D01*
X233346D01*
X234802D01*
Y214555D01*
X233346D01*
X233343D01*
X233328D01*
X233310D01*
X233284D01*
X233252Y214559D01*
X233215D01*
X233172Y214563D01*
X233128Y214566D01*
X233030Y214577D01*
X232928Y214592D01*
X232829Y214614D01*
X232782Y214628D01*
X232738Y214643D01*
X232735D01*
X232728Y214646D01*
X232717Y214653D01*
X232702Y214661D01*
X232662Y214683D01*
X232611Y214715D01*
X232553Y214759D01*
X232495Y214810D01*
X232433Y214876D01*
X232378Y214956D01*
Y214959D01*
X232371Y214967D01*
X232367Y214978D01*
X232356Y214996D01*
X232345Y215018D01*
X232334Y215047D01*
X232324Y215076D01*
X232309Y215112D01*
X232294Y215152D01*
X232283Y215196D01*
X232273Y215243D01*
X232262Y215298D01*
X232254Y215352D01*
X232247Y215411D01*
X232240Y215542D01*
Y215575D01*
X232243Y215600D01*
Y215629D01*
X232247Y215666D01*
X232251Y215705D01*
X232254Y215746D01*
X232269Y215837D01*
X232291Y215935D01*
X232320Y216030D01*
X232360Y216121D01*
Y216124D01*
X232367Y216131D01*
X232375Y216142D01*
X232382Y216157D01*
X232411Y216197D01*
X232451Y216244D01*
X232502Y216299D01*
X232560Y216350D01*
X232633Y216401D01*
X232713Y216441D01*
X232717D01*
X232724Y216444D01*
X232738Y216448D01*
X232757Y216455D01*
X232779Y216463D01*
X232808Y216470D01*
X232840Y216481D01*
X232880Y216488D01*
X232924Y216495D01*
X232971Y216506D01*
X233022Y216514D01*
X233077Y216521D01*
X233139Y216528D01*
X233204Y216532D01*
X233274Y216535D01*
X233346D01*
X234802D01*
Y216201D01*
D02*
G37*
G36*
X232353Y214166D02*
X232385Y214162D01*
X232422Y214155D01*
X232458Y214148D01*
X232498Y214133D01*
X232502D01*
X232505Y214129D01*
X232527Y214122D01*
X232560Y214107D01*
X232604Y214086D01*
X232655Y214057D01*
X232713Y214020D01*
X232771Y213980D01*
X232833Y213929D01*
X232837D01*
X232840Y213922D01*
X232862Y213904D01*
X232895Y213871D01*
X232942Y213824D01*
X232997Y213769D01*
X233062Y213700D01*
X233135Y213616D01*
X233212Y213525D01*
X233215Y213522D01*
X233226Y213507D01*
X233244Y213485D01*
X233266Y213460D01*
X233295Y213427D01*
X233328Y213387D01*
X233365Y213347D01*
X233405Y213299D01*
X233492Y213209D01*
X233579Y213118D01*
X233623Y213074D01*
X233667Y213034D01*
X233707Y212997D01*
X233747Y212968D01*
X233750D01*
X233754Y212961D01*
X233765Y212954D01*
X233780Y212946D01*
X233820Y212921D01*
X233867Y212892D01*
X233925Y212866D01*
X233987Y212841D01*
X234056Y212826D01*
X234122Y212819D01*
X234125D01*
X234129D01*
X234151Y212823D01*
X234187Y212826D01*
X234227Y212837D01*
X234278Y212852D01*
X234329Y212877D01*
X234380Y212910D01*
X234431Y212954D01*
X234438Y212961D01*
X234453Y212979D01*
X234471Y213005D01*
X234497Y213045D01*
X234518Y213096D01*
X234540Y213154D01*
X234555Y213223D01*
X234559Y213299D01*
Y213321D01*
X234555Y213336D01*
X234551Y213380D01*
X234540Y213431D01*
X234526Y213485D01*
X234500Y213547D01*
X234468Y213605D01*
X234424Y213660D01*
X234417Y213667D01*
X234398Y213682D01*
X234369Y213703D01*
X234326Y213725D01*
X234275Y213751D01*
X234209Y213773D01*
X234136Y213787D01*
X234052Y213794D01*
X234085Y214111D01*
X234089D01*
X234100Y214107D01*
X234118D01*
X234143Y214104D01*
X234173Y214097D01*
X234205Y214089D01*
X234245Y214078D01*
X234285Y214068D01*
X234373Y214038D01*
X234460Y213995D01*
X234504Y213969D01*
X234547Y213936D01*
X234588Y213904D01*
X234624Y213867D01*
X234628Y213864D01*
X234631Y213856D01*
X234642Y213845D01*
X234653Y213827D01*
X234668Y213805D01*
X234682Y213780D01*
X234700Y213751D01*
X234719Y213714D01*
X234737Y213674D01*
X234755Y213631D01*
X234770Y213583D01*
X234784Y213532D01*
X234795Y213478D01*
X234806Y213420D01*
X234810Y213358D01*
X234813Y213292D01*
Y213256D01*
X234810Y213230D01*
X234806Y213201D01*
X234802Y213165D01*
X234795Y213125D01*
X234788Y213085D01*
X234762Y212990D01*
X234726Y212895D01*
X234704Y212848D01*
X234679Y212801D01*
X234646Y212757D01*
X234609Y212717D01*
X234606Y212713D01*
X234602Y212706D01*
X234588Y212699D01*
X234573Y212684D01*
X234555Y212666D01*
X234529Y212648D01*
X234504Y212630D01*
X234471Y212608D01*
X234402Y212572D01*
X234315Y212535D01*
X234271Y212521D01*
X234220Y212513D01*
X234169Y212506D01*
X234114Y212502D01*
X234107D01*
X234089D01*
X234060Y212506D01*
X234020Y212510D01*
X233976Y212517D01*
X233925Y212531D01*
X233871Y212546D01*
X233816Y212568D01*
X233809Y212572D01*
X233790Y212579D01*
X233761Y212593D01*
X233721Y212615D01*
X233678Y212644D01*
X233623Y212681D01*
X233568Y212724D01*
X233506Y212775D01*
X233499Y212783D01*
X233477Y212801D01*
X233459Y212819D01*
X233441Y212837D01*
X233419Y212859D01*
X233390Y212888D01*
X233361Y212917D01*
X233328Y212954D01*
X233292Y212990D01*
X233252Y213034D01*
X233212Y213081D01*
X233164Y213132D01*
X233117Y213190D01*
X233066Y213248D01*
X233062Y213252D01*
X233055Y213259D01*
X233044Y213274D01*
X233030Y213292D01*
X233008Y213314D01*
X232986Y213339D01*
X232939Y213398D01*
X232884Y213460D01*
X232829Y213518D01*
X232782Y213569D01*
X232764Y213591D01*
X232746Y213609D01*
X232742Y213613D01*
X232731Y213623D01*
X232717Y213638D01*
X232695Y213656D01*
X232669Y213674D01*
X232644Y213696D01*
X232582Y213740D01*
Y212499D01*
X232283D01*
Y214169D01*
X232287D01*
X232302D01*
X232324D01*
X232353Y214166D01*
D02*
G37*
G36*
Y212208D02*
X232385Y212204D01*
X232422Y212196D01*
X232458Y212189D01*
X232498Y212175D01*
X232502D01*
X232505Y212171D01*
X232527Y212164D01*
X232560Y212149D01*
X232604Y212127D01*
X232655Y212098D01*
X232713Y212062D01*
X232771Y212022D01*
X232833Y211971D01*
X232837D01*
X232840Y211964D01*
X232862Y211945D01*
X232895Y211913D01*
X232942Y211865D01*
X232997Y211811D01*
X233062Y211742D01*
X233135Y211658D01*
X233212Y211567D01*
X233215Y211563D01*
X233226Y211549D01*
X233244Y211527D01*
X233266Y211501D01*
X233295Y211469D01*
X233328Y211428D01*
X233365Y211388D01*
X233405Y211341D01*
X233492Y211250D01*
X233579Y211159D01*
X233623Y211116D01*
X233667Y211075D01*
X233707Y211039D01*
X233747Y211010D01*
X233750D01*
X233754Y211003D01*
X233765Y210995D01*
X233780Y210988D01*
X233820Y210963D01*
X233867Y210933D01*
X233925Y210908D01*
X233987Y210882D01*
X234056Y210868D01*
X234122Y210861D01*
X234125D01*
X234129D01*
X234151Y210864D01*
X234187Y210868D01*
X234227Y210879D01*
X234278Y210893D01*
X234329Y210919D01*
X234380Y210952D01*
X234431Y210995D01*
X234438Y211003D01*
X234453Y211021D01*
X234471Y211046D01*
X234497Y211086D01*
X234518Y211137D01*
X234540Y211196D01*
X234555Y211265D01*
X234559Y211341D01*
Y211363D01*
X234555Y211378D01*
X234551Y211421D01*
X234540Y211472D01*
X234526Y211527D01*
X234500Y211589D01*
X234468Y211647D01*
X234424Y211701D01*
X234417Y211709D01*
X234398Y211723D01*
X234369Y211745D01*
X234326Y211767D01*
X234275Y211792D01*
X234209Y211814D01*
X234136Y211829D01*
X234052Y211836D01*
X234085Y212153D01*
X234089D01*
X234100Y212149D01*
X234118D01*
X234143Y212146D01*
X234173Y212138D01*
X234205Y212131D01*
X234245Y212120D01*
X234285Y212109D01*
X234373Y212080D01*
X234460Y212036D01*
X234504Y212011D01*
X234547Y211978D01*
X234588Y211945D01*
X234624Y211909D01*
X234628Y211905D01*
X234631Y211898D01*
X234642Y211887D01*
X234653Y211869D01*
X234668Y211847D01*
X234682Y211822D01*
X234700Y211792D01*
X234719Y211756D01*
X234737Y211716D01*
X234755Y211672D01*
X234770Y211625D01*
X234784Y211574D01*
X234795Y211520D01*
X234806Y211461D01*
X234810Y211399D01*
X234813Y211334D01*
Y211297D01*
X234810Y211272D01*
X234806Y211243D01*
X234802Y211207D01*
X234795Y211166D01*
X234788Y211126D01*
X234762Y211032D01*
X234726Y210937D01*
X234704Y210890D01*
X234679Y210842D01*
X234646Y210799D01*
X234609Y210759D01*
X234606Y210755D01*
X234602Y210748D01*
X234588Y210740D01*
X234573Y210726D01*
X234555Y210708D01*
X234529Y210690D01*
X234504Y210671D01*
X234471Y210649D01*
X234402Y210613D01*
X234315Y210577D01*
X234271Y210562D01*
X234220Y210555D01*
X234169Y210548D01*
X234114Y210544D01*
X234107D01*
X234089D01*
X234060Y210548D01*
X234020Y210551D01*
X233976Y210559D01*
X233925Y210573D01*
X233871Y210588D01*
X233816Y210610D01*
X233809Y210613D01*
X233790Y210620D01*
X233761Y210635D01*
X233721Y210657D01*
X233678Y210686D01*
X233623Y210722D01*
X233568Y210766D01*
X233506Y210817D01*
X233499Y210824D01*
X233477Y210842D01*
X233459Y210861D01*
X233441Y210879D01*
X233419Y210901D01*
X233390Y210930D01*
X233361Y210959D01*
X233328Y210995D01*
X233292Y211032D01*
X233252Y211075D01*
X233212Y211123D01*
X233164Y211174D01*
X233117Y211232D01*
X233066Y211290D01*
X233062Y211294D01*
X233055Y211301D01*
X233044Y211316D01*
X233030Y211334D01*
X233008Y211356D01*
X232986Y211381D01*
X232939Y211439D01*
X232884Y211501D01*
X232829Y211560D01*
X232782Y211611D01*
X232764Y211632D01*
X232746Y211651D01*
X232742Y211654D01*
X232731Y211665D01*
X232717Y211680D01*
X232695Y211698D01*
X232669Y211716D01*
X232644Y211738D01*
X232582Y211782D01*
Y210540D01*
X232283D01*
Y212211D01*
X232287D01*
X232302D01*
X232324D01*
X232353Y212208D01*
D02*
G37*
G36*
X262361Y216201D02*
X260905D01*
X260902D01*
X260891D01*
X260873D01*
X260851D01*
X260825Y216197D01*
X260793D01*
X260723Y216193D01*
X260643Y216186D01*
X260563Y216175D01*
X260487Y216160D01*
X260454Y216153D01*
X260421Y216142D01*
X260414Y216139D01*
X260396Y216131D01*
X260370Y216113D01*
X260334Y216091D01*
X260297Y216066D01*
X260258Y216030D01*
X260217Y215986D01*
X260185Y215935D01*
X260181Y215928D01*
X260170Y215909D01*
X260159Y215877D01*
X260145Y215833D01*
X260126Y215782D01*
X260116Y215716D01*
X260105Y215647D01*
X260101Y215571D01*
Y215534D01*
X260105Y215513D01*
Y215480D01*
X260108Y215447D01*
X260123Y215367D01*
X260141Y215280D01*
X260170Y215196D01*
X260210Y215116D01*
X260236Y215079D01*
X260265Y215047D01*
X260268Y215043D01*
X260272Y215039D01*
X260283Y215032D01*
X260297Y215021D01*
X260319Y215010D01*
X260341Y214996D01*
X260374Y214981D01*
X260407Y214967D01*
X260447Y214952D01*
X260494Y214941D01*
X260549Y214927D01*
X260607Y214916D01*
X260672Y214905D01*
X260742Y214897D01*
X260822Y214890D01*
X260905D01*
X262361D01*
Y214555D01*
X260905D01*
X260902D01*
X260887D01*
X260869D01*
X260843D01*
X260811Y214559D01*
X260774D01*
X260731Y214563D01*
X260687Y214566D01*
X260589Y214577D01*
X260487Y214592D01*
X260388Y214614D01*
X260341Y214628D01*
X260297Y214643D01*
X260294D01*
X260287Y214646D01*
X260276Y214653D01*
X260261Y214661D01*
X260221Y214683D01*
X260170Y214715D01*
X260112Y214759D01*
X260054Y214810D01*
X259992Y214876D01*
X259937Y214956D01*
Y214959D01*
X259930Y214967D01*
X259926Y214978D01*
X259915Y214996D01*
X259904Y215018D01*
X259893Y215047D01*
X259883Y215076D01*
X259868Y215112D01*
X259853Y215152D01*
X259842Y215196D01*
X259832Y215243D01*
X259821Y215298D01*
X259813Y215352D01*
X259806Y215411D01*
X259799Y215542D01*
Y215575D01*
X259803Y215600D01*
Y215629D01*
X259806Y215666D01*
X259810Y215705D01*
X259813Y215746D01*
X259828Y215837D01*
X259850Y215935D01*
X259879Y216030D01*
X259919Y216121D01*
Y216124D01*
X259926Y216131D01*
X259933Y216142D01*
X259941Y216157D01*
X259970Y216197D01*
X260010Y216244D01*
X260061Y216299D01*
X260119Y216350D01*
X260192Y216401D01*
X260272Y216441D01*
X260276D01*
X260283Y216444D01*
X260297Y216448D01*
X260316Y216455D01*
X260338Y216463D01*
X260367Y216470D01*
X260399Y216481D01*
X260439Y216488D01*
X260483Y216495D01*
X260530Y216506D01*
X260581Y216514D01*
X260636Y216521D01*
X260698Y216528D01*
X260763Y216532D01*
X260833Y216535D01*
X260905D01*
X262361D01*
Y216201D01*
D02*
G37*
G36*
X259912Y214166D02*
X259944Y214162D01*
X259981Y214155D01*
X260017Y214148D01*
X260057Y214133D01*
X260061D01*
X260065Y214129D01*
X260086Y214122D01*
X260119Y214107D01*
X260163Y214086D01*
X260214Y214057D01*
X260272Y214020D01*
X260330Y213980D01*
X260392Y213929D01*
X260396D01*
X260399Y213922D01*
X260421Y213904D01*
X260454Y213871D01*
X260501Y213824D01*
X260556Y213769D01*
X260622Y213700D01*
X260694Y213616D01*
X260771Y213525D01*
X260774Y213522D01*
X260785Y213507D01*
X260804Y213485D01*
X260825Y213460D01*
X260854Y213427D01*
X260887Y213387D01*
X260924Y213347D01*
X260964Y213299D01*
X261051Y213209D01*
X261138Y213118D01*
X261182Y213074D01*
X261226Y213034D01*
X261266Y212997D01*
X261306Y212968D01*
X261309D01*
X261313Y212961D01*
X261324Y212954D01*
X261339Y212946D01*
X261379Y212921D01*
X261426Y212892D01*
X261484Y212866D01*
X261546Y212841D01*
X261615Y212826D01*
X261681Y212819D01*
X261684D01*
X261688D01*
X261710Y212823D01*
X261746Y212826D01*
X261786Y212837D01*
X261837Y212852D01*
X261888Y212877D01*
X261939Y212910D01*
X261990Y212954D01*
X261997Y212961D01*
X262012Y212979D01*
X262030Y213005D01*
X262056Y213045D01*
X262077Y213096D01*
X262099Y213154D01*
X262114Y213223D01*
X262118Y213299D01*
Y213321D01*
X262114Y213336D01*
X262110Y213380D01*
X262099Y213431D01*
X262085Y213485D01*
X262059Y213547D01*
X262027Y213605D01*
X261983Y213660D01*
X261976Y213667D01*
X261957Y213682D01*
X261928Y213703D01*
X261885Y213725D01*
X261834Y213751D01*
X261768Y213773D01*
X261695Y213787D01*
X261612Y213794D01*
X261644Y214111D01*
X261648D01*
X261659Y214107D01*
X261677D01*
X261703Y214104D01*
X261732Y214097D01*
X261764Y214089D01*
X261805Y214078D01*
X261844Y214068D01*
X261932Y214038D01*
X262019Y213995D01*
X262063Y213969D01*
X262107Y213936D01*
X262147Y213904D01*
X262183Y213867D01*
X262187Y213864D01*
X262190Y213856D01*
X262201Y213845D01*
X262212Y213827D01*
X262227Y213805D01*
X262241Y213780D01*
X262260Y213751D01*
X262278Y213714D01*
X262296Y213674D01*
X262314Y213631D01*
X262329Y213583D01*
X262343Y213532D01*
X262354Y213478D01*
X262365Y213420D01*
X262369Y213358D01*
X262372Y213292D01*
Y213256D01*
X262369Y213230D01*
X262365Y213201D01*
X262361Y213165D01*
X262354Y213125D01*
X262347Y213085D01*
X262321Y212990D01*
X262285Y212895D01*
X262263Y212848D01*
X262238Y212801D01*
X262205Y212757D01*
X262169Y212717D01*
X262165Y212713D01*
X262161Y212706D01*
X262147Y212699D01*
X262132Y212684D01*
X262114Y212666D01*
X262088Y212648D01*
X262063Y212630D01*
X262030Y212608D01*
X261961Y212572D01*
X261874Y212535D01*
X261830Y212521D01*
X261779Y212513D01*
X261728Y212506D01*
X261673Y212502D01*
X261666D01*
X261648D01*
X261619Y212506D01*
X261579Y212510D01*
X261535Y212517D01*
X261484Y212531D01*
X261430Y212546D01*
X261375Y212568D01*
X261368Y212572D01*
X261350Y212579D01*
X261320Y212593D01*
X261280Y212615D01*
X261237Y212644D01*
X261182Y212681D01*
X261127Y212724D01*
X261066Y212775D01*
X261058Y212783D01*
X261036Y212801D01*
X261018Y212819D01*
X261000Y212837D01*
X260978Y212859D01*
X260949Y212888D01*
X260920Y212917D01*
X260887Y212954D01*
X260851Y212990D01*
X260811Y213034D01*
X260771Y213081D01*
X260723Y213132D01*
X260676Y213190D01*
X260625Y213248D01*
X260622Y213252D01*
X260614Y213259D01*
X260603Y213274D01*
X260589Y213292D01*
X260567Y213314D01*
X260545Y213339D01*
X260498Y213398D01*
X260443Y213460D01*
X260388Y213518D01*
X260341Y213569D01*
X260323Y213591D01*
X260305Y213609D01*
X260301Y213613D01*
X260290Y213623D01*
X260276Y213638D01*
X260254Y213656D01*
X260228Y213674D01*
X260203Y213696D01*
X260141Y213740D01*
Y212499D01*
X259842D01*
Y214169D01*
X259846D01*
X259861D01*
X259883D01*
X259912Y214166D01*
D02*
G37*
G36*
X260549Y211854D02*
X260545D01*
X260538Y211851D01*
X260523Y211847D01*
X260505Y211843D01*
X260483Y211840D01*
X260458Y211832D01*
X260403Y211814D01*
X260338Y211789D01*
X260276Y211756D01*
X260217Y211720D01*
X260167Y211676D01*
X260163Y211669D01*
X260148Y211654D01*
X260130Y211625D01*
X260112Y211589D01*
X260090Y211545D01*
X260072Y211490D01*
X260057Y211428D01*
X260054Y211363D01*
Y211341D01*
X260057Y211327D01*
X260061Y211286D01*
X260072Y211236D01*
X260090Y211177D01*
X260116Y211116D01*
X260152Y211054D01*
X260203Y210995D01*
X260210Y210988D01*
X260232Y210970D01*
X260265Y210948D01*
X260308Y210919D01*
X260363Y210890D01*
X260425Y210868D01*
X260498Y210850D01*
X260578Y210842D01*
X260581D01*
X260589D01*
X260600D01*
X260614Y210846D01*
X260654Y210850D01*
X260702Y210861D01*
X260760Y210875D01*
X260818Y210901D01*
X260876Y210937D01*
X260931Y210984D01*
X260938Y210992D01*
X260953Y211010D01*
X260975Y211039D01*
X261000Y211079D01*
X261026Y211130D01*
X261047Y211192D01*
X261062Y211261D01*
X261069Y211337D01*
Y211370D01*
X261066Y211396D01*
X261062Y211428D01*
X261055Y211465D01*
X261047Y211509D01*
X261036Y211556D01*
X261309Y211520D01*
Y211501D01*
X261306Y211487D01*
Y211439D01*
X261313Y211399D01*
X261320Y211352D01*
X261331Y211297D01*
X261350Y211236D01*
X261375Y211177D01*
X261408Y211116D01*
Y211112D01*
X261411Y211108D01*
X261426Y211090D01*
X261451Y211065D01*
X261484Y211035D01*
X261531Y211006D01*
X261586Y210981D01*
X261648Y210963D01*
X261684Y210955D01*
X261724D01*
X261728D01*
X261732D01*
X261754D01*
X261783Y210963D01*
X261823Y210970D01*
X261866Y210984D01*
X261914Y211003D01*
X261961Y211032D01*
X262005Y211072D01*
X262008Y211075D01*
X262023Y211094D01*
X262041Y211119D01*
X262063Y211152D01*
X262081Y211196D01*
X262099Y211246D01*
X262114Y211305D01*
X262118Y211370D01*
Y211399D01*
X262110Y211432D01*
X262103Y211476D01*
X262088Y211523D01*
X262070Y211571D01*
X262041Y211621D01*
X262005Y211669D01*
X262001Y211672D01*
X261983Y211687D01*
X261957Y211709D01*
X261921Y211734D01*
X261874Y211760D01*
X261815Y211785D01*
X261746Y211807D01*
X261666Y211822D01*
X261721Y212131D01*
X261724D01*
X261735Y212127D01*
X261750Y212124D01*
X261772Y212120D01*
X261797Y212113D01*
X261826Y212102D01*
X261895Y212080D01*
X261976Y212044D01*
X262056Y212000D01*
X262132Y211945D01*
X262201Y211876D01*
X262205Y211873D01*
X262209Y211865D01*
X262216Y211854D01*
X262227Y211840D01*
X262241Y211822D01*
X262256Y211796D01*
X262270Y211771D01*
X262289Y211738D01*
X262318Y211665D01*
X262347Y211581D01*
X262365Y211483D01*
X262372Y211432D01*
Y211341D01*
X262369Y211301D01*
X262361Y211254D01*
X262351Y211196D01*
X262332Y211130D01*
X262310Y211065D01*
X262281Y210999D01*
Y210995D01*
X262278Y210992D01*
X262267Y210970D01*
X262245Y210937D01*
X262219Y210901D01*
X262183Y210857D01*
X262143Y210813D01*
X262096Y210770D01*
X262041Y210733D01*
X262034Y210730D01*
X262016Y210719D01*
X261983Y210704D01*
X261943Y210686D01*
X261895Y210668D01*
X261841Y210653D01*
X261779Y210642D01*
X261717Y210639D01*
X261710D01*
X261688D01*
X261659Y210642D01*
X261619Y210649D01*
X261572Y210661D01*
X261521Y210679D01*
X261470Y210700D01*
X261419Y210730D01*
X261411Y210733D01*
X261397Y210744D01*
X261371Y210766D01*
X261342Y210795D01*
X261309Y210832D01*
X261273Y210875D01*
X261240Y210926D01*
X261208Y210988D01*
Y210984D01*
X261204Y210977D01*
X261200Y210966D01*
X261197Y210952D01*
X261182Y210912D01*
X261160Y210861D01*
X261131Y210802D01*
X261095Y210744D01*
X261047Y210690D01*
X260993Y210639D01*
X260985Y210635D01*
X260964Y210620D01*
X260927Y210599D01*
X260880Y210577D01*
X260822Y210555D01*
X260753Y210533D01*
X260672Y210519D01*
X260585Y210515D01*
X260581D01*
X260571D01*
X260552D01*
X260530Y210519D01*
X260501Y210522D01*
X260469Y210529D01*
X260432Y210537D01*
X260392Y210544D01*
X260305Y210573D01*
X260258Y210595D01*
X260214Y210617D01*
X260167Y210646D01*
X260119Y210679D01*
X260072Y210715D01*
X260028Y210759D01*
X260024Y210762D01*
X260017Y210770D01*
X260006Y210784D01*
X259992Y210802D01*
X259974Y210824D01*
X259955Y210853D01*
X259933Y210886D01*
X259915Y210926D01*
X259893Y210966D01*
X259872Y211014D01*
X259853Y211061D01*
X259835Y211116D01*
X259821Y211174D01*
X259810Y211236D01*
X259803Y211297D01*
X259799Y211367D01*
Y211399D01*
X259803Y211421D01*
X259806Y211450D01*
X259810Y211483D01*
X259817Y211520D01*
X259824Y211560D01*
X259846Y211647D01*
X259883Y211738D01*
X259904Y211785D01*
X259930Y211829D01*
X259963Y211873D01*
X259995Y211916D01*
X259999Y211920D01*
X260006Y211927D01*
X260017Y211938D01*
X260032Y211949D01*
X260050Y211967D01*
X260075Y211985D01*
X260101Y212007D01*
X260134Y212029D01*
X260170Y212051D01*
X260207Y212073D01*
X260294Y212113D01*
X260396Y212146D01*
X260450Y212157D01*
X260509Y212164D01*
X260549Y211854D01*
D02*
G37*
G36*
X289920Y216201D02*
X288464D01*
X288461D01*
X288450D01*
X288432D01*
X288410D01*
X288384Y216197D01*
X288352D01*
X288282Y216193D01*
X288202Y216186D01*
X288122Y216175D01*
X288046Y216160D01*
X288013Y216153D01*
X287980Y216142D01*
X287973Y216139D01*
X287955Y216131D01*
X287929Y216113D01*
X287893Y216091D01*
X287857Y216066D01*
X287817Y216030D01*
X287776Y215986D01*
X287744Y215935D01*
X287740Y215928D01*
X287729Y215909D01*
X287718Y215877D01*
X287704Y215833D01*
X287685Y215782D01*
X287675Y215716D01*
X287664Y215647D01*
X287660Y215571D01*
Y215534D01*
X287664Y215513D01*
Y215480D01*
X287667Y215447D01*
X287682Y215367D01*
X287700Y215280D01*
X287729Y215196D01*
X287769Y215116D01*
X287795Y215079D01*
X287824Y215047D01*
X287827Y215043D01*
X287831Y215039D01*
X287842Y215032D01*
X287857Y215021D01*
X287878Y215010D01*
X287900Y214996D01*
X287933Y214981D01*
X287966Y214967D01*
X288006Y214952D01*
X288053Y214941D01*
X288108Y214927D01*
X288166Y214916D01*
X288231Y214905D01*
X288301Y214897D01*
X288381Y214890D01*
X288464D01*
X289920D01*
Y214555D01*
X288464D01*
X288461D01*
X288446D01*
X288428D01*
X288403D01*
X288370Y214559D01*
X288333D01*
X288290Y214563D01*
X288246Y214566D01*
X288148Y214577D01*
X288046Y214592D01*
X287948Y214614D01*
X287900Y214628D01*
X287857Y214643D01*
X287853D01*
X287846Y214646D01*
X287835Y214653D01*
X287820Y214661D01*
X287780Y214683D01*
X287729Y214715D01*
X287671Y214759D01*
X287613Y214810D01*
X287551Y214876D01*
X287496Y214956D01*
Y214959D01*
X287489Y214967D01*
X287485Y214978D01*
X287474Y214996D01*
X287463Y215018D01*
X287453Y215047D01*
X287442Y215076D01*
X287427Y215112D01*
X287413Y215152D01*
X287402Y215196D01*
X287391Y215243D01*
X287380Y215298D01*
X287372Y215352D01*
X287365Y215411D01*
X287358Y215542D01*
Y215575D01*
X287362Y215600D01*
Y215629D01*
X287365Y215666D01*
X287369Y215705D01*
X287372Y215746D01*
X287387Y215837D01*
X287409Y215935D01*
X287438Y216030D01*
X287478Y216121D01*
Y216124D01*
X287485Y216131D01*
X287493Y216142D01*
X287500Y216157D01*
X287529Y216197D01*
X287569Y216244D01*
X287620Y216299D01*
X287678Y216350D01*
X287751Y216401D01*
X287831Y216441D01*
X287835D01*
X287842Y216444D01*
X287857Y216448D01*
X287875Y216455D01*
X287897Y216463D01*
X287926Y216470D01*
X287959Y216481D01*
X287999Y216488D01*
X288042Y216495D01*
X288089Y216506D01*
X288141Y216514D01*
X288195Y216521D01*
X288257Y216528D01*
X288322Y216532D01*
X288392Y216535D01*
X288464D01*
X289920D01*
Y216201D01*
D02*
G37*
G36*
X287471Y214166D02*
X287504Y214162D01*
X287540Y214155D01*
X287576Y214148D01*
X287616Y214133D01*
X287620D01*
X287624Y214129D01*
X287645Y214122D01*
X287678Y214107D01*
X287722Y214086D01*
X287773Y214057D01*
X287831Y214020D01*
X287889Y213980D01*
X287951Y213929D01*
X287955D01*
X287959Y213922D01*
X287980Y213904D01*
X288013Y213871D01*
X288060Y213824D01*
X288115Y213769D01*
X288180Y213700D01*
X288253Y213616D01*
X288330Y213525D01*
X288333Y213522D01*
X288344Y213507D01*
X288363Y213485D01*
X288384Y213460D01*
X288414Y213427D01*
X288446Y213387D01*
X288483Y213347D01*
X288523Y213299D01*
X288610Y213209D01*
X288697Y213118D01*
X288741Y213074D01*
X288785Y213034D01*
X288825Y212997D01*
X288865Y212968D01*
X288868D01*
X288872Y212961D01*
X288883Y212954D01*
X288898Y212946D01*
X288938Y212921D01*
X288985Y212892D01*
X289043Y212866D01*
X289105Y212841D01*
X289174Y212826D01*
X289240Y212819D01*
X289243D01*
X289247D01*
X289269Y212823D01*
X289305Y212826D01*
X289345Y212837D01*
X289396Y212852D01*
X289447Y212877D01*
X289498Y212910D01*
X289549Y212954D01*
X289556Y212961D01*
X289571Y212979D01*
X289589Y213005D01*
X289615Y213045D01*
X289636Y213096D01*
X289658Y213154D01*
X289673Y213223D01*
X289677Y213299D01*
Y213321D01*
X289673Y213336D01*
X289669Y213380D01*
X289658Y213431D01*
X289644Y213485D01*
X289618Y213547D01*
X289586Y213605D01*
X289542Y213660D01*
X289535Y213667D01*
X289516Y213682D01*
X289487Y213703D01*
X289444Y213725D01*
X289393Y213751D01*
X289327Y213773D01*
X289254Y213787D01*
X289171Y213794D01*
X289203Y214111D01*
X289207D01*
X289218Y214107D01*
X289236D01*
X289262Y214104D01*
X289291Y214097D01*
X289323Y214089D01*
X289364Y214078D01*
X289404Y214068D01*
X289491Y214038D01*
X289578Y213995D01*
X289622Y213969D01*
X289666Y213936D01*
X289706Y213904D01*
X289742Y213867D01*
X289746Y213864D01*
X289749Y213856D01*
X289760Y213845D01*
X289771Y213827D01*
X289786Y213805D01*
X289800Y213780D01*
X289819Y213751D01*
X289837Y213714D01*
X289855Y213674D01*
X289873Y213631D01*
X289888Y213583D01*
X289902Y213532D01*
X289913Y213478D01*
X289924Y213420D01*
X289928Y213358D01*
X289931Y213292D01*
Y213256D01*
X289928Y213230D01*
X289924Y213201D01*
X289920Y213165D01*
X289913Y213125D01*
X289906Y213085D01*
X289880Y212990D01*
X289844Y212895D01*
X289822Y212848D01*
X289797Y212801D01*
X289764Y212757D01*
X289727Y212717D01*
X289724Y212713D01*
X289720Y212706D01*
X289706Y212699D01*
X289691Y212684D01*
X289673Y212666D01*
X289647Y212648D01*
X289622Y212630D01*
X289589Y212608D01*
X289520Y212572D01*
X289433Y212535D01*
X289389Y212521D01*
X289338Y212513D01*
X289287Y212506D01*
X289232Y212502D01*
X289225D01*
X289207D01*
X289178Y212506D01*
X289138Y212510D01*
X289094Y212517D01*
X289043Y212531D01*
X288989Y212546D01*
X288934Y212568D01*
X288927Y212572D01*
X288909Y212579D01*
X288879Y212593D01*
X288839Y212615D01*
X288796Y212644D01*
X288741Y212681D01*
X288686Y212724D01*
X288625Y212775D01*
X288617Y212783D01*
X288596Y212801D01*
X288577Y212819D01*
X288559Y212837D01*
X288537Y212859D01*
X288508Y212888D01*
X288479Y212917D01*
X288446Y212954D01*
X288410Y212990D01*
X288370Y213034D01*
X288330Y213081D01*
X288282Y213132D01*
X288235Y213190D01*
X288184Y213248D01*
X288180Y213252D01*
X288173Y213259D01*
X288162Y213274D01*
X288148Y213292D01*
X288126Y213314D01*
X288104Y213339D01*
X288057Y213398D01*
X288002Y213460D01*
X287948Y213518D01*
X287900Y213569D01*
X287882Y213591D01*
X287864Y213609D01*
X287860Y213613D01*
X287849Y213623D01*
X287835Y213638D01*
X287813Y213656D01*
X287787Y213674D01*
X287762Y213696D01*
X287700Y213740D01*
Y212499D01*
X287402D01*
Y214169D01*
X287405D01*
X287420D01*
X287442D01*
X287471Y214166D01*
D02*
G37*
G36*
X289920Y211119D02*
Y210868D01*
X288290D01*
Y210526D01*
X288006D01*
Y210868D01*
X287402D01*
Y211177D01*
X288006D01*
Y212273D01*
X288290D01*
X289920Y211119D01*
D02*
G37*
G36*
X234802Y298878D02*
X233346D01*
X233343D01*
X233332D01*
X233314D01*
X233292D01*
X233266Y298874D01*
X233233D01*
X233164Y298870D01*
X233084Y298863D01*
X233004Y298852D01*
X232928Y298838D01*
X232895Y298830D01*
X232862Y298819D01*
X232855Y298816D01*
X232837Y298809D01*
X232811Y298790D01*
X232775Y298768D01*
X232738Y298743D01*
X232698Y298707D01*
X232658Y298663D01*
X232626Y298612D01*
X232622Y298605D01*
X232611Y298587D01*
X232600Y298554D01*
X232586Y298510D01*
X232567Y298459D01*
X232557Y298394D01*
X232545Y298324D01*
X232542Y298248D01*
Y298212D01*
X232545Y298190D01*
Y298157D01*
X232549Y298124D01*
X232564Y298044D01*
X232582Y297957D01*
X232611Y297873D01*
X232651Y297793D01*
X232677Y297757D01*
X232706Y297724D01*
X232709Y297720D01*
X232713Y297717D01*
X232724Y297709D01*
X232738Y297698D01*
X232760Y297687D01*
X232782Y297673D01*
X232815Y297658D01*
X232848Y297644D01*
X232888Y297629D01*
X232935Y297618D01*
X232990Y297604D01*
X233048Y297593D01*
X233113Y297582D01*
X233183Y297575D01*
X233263Y297567D01*
X233346D01*
X234802D01*
Y297232D01*
X233346D01*
X233343D01*
X233328D01*
X233310D01*
X233284D01*
X233252Y297236D01*
X233215D01*
X233172Y297240D01*
X233128Y297243D01*
X233030Y297254D01*
X232928Y297269D01*
X232829Y297291D01*
X232782Y297305D01*
X232738Y297320D01*
X232735D01*
X232728Y297323D01*
X232717Y297331D01*
X232702Y297338D01*
X232662Y297360D01*
X232611Y297393D01*
X232553Y297436D01*
X232495Y297487D01*
X232433Y297553D01*
X232378Y297633D01*
Y297637D01*
X232371Y297644D01*
X232367Y297655D01*
X232356Y297673D01*
X232345Y297695D01*
X232334Y297724D01*
X232324Y297753D01*
X232309Y297789D01*
X232294Y297829D01*
X232283Y297873D01*
X232273Y297920D01*
X232262Y297975D01*
X232254Y298030D01*
X232247Y298088D01*
X232240Y298219D01*
Y298252D01*
X232243Y298277D01*
Y298306D01*
X232247Y298343D01*
X232251Y298383D01*
X232254Y298423D01*
X232269Y298514D01*
X232291Y298612D01*
X232320Y298707D01*
X232360Y298798D01*
Y298801D01*
X232367Y298809D01*
X232375Y298819D01*
X232382Y298834D01*
X232411Y298874D01*
X232451Y298921D01*
X232502Y298976D01*
X232560Y299027D01*
X232633Y299078D01*
X232713Y299118D01*
X232717D01*
X232724Y299122D01*
X232738Y299125D01*
X232757Y299132D01*
X232779Y299140D01*
X232808Y299147D01*
X232840Y299158D01*
X232880Y299165D01*
X232924Y299173D01*
X232971Y299184D01*
X233022Y299191D01*
X233077Y299198D01*
X233139Y299205D01*
X233204Y299209D01*
X233274Y299213D01*
X233346D01*
X234802D01*
Y298878D01*
D02*
G37*
G36*
X234180Y296563D02*
X234187Y296555D01*
X234191Y296541D01*
X234202Y296523D01*
X234213Y296501D01*
X234227Y296475D01*
X234264Y296413D01*
X234304Y296341D01*
X234355Y296268D01*
X234413Y296191D01*
X234475Y296115D01*
X234478Y296111D01*
X234482Y296108D01*
X234493Y296097D01*
X234504Y296082D01*
X234540Y296049D01*
X234584Y296006D01*
X234635Y295962D01*
X234693Y295915D01*
X234751Y295875D01*
X234813Y295838D01*
Y295638D01*
X232283D01*
Y295948D01*
X234253D01*
X234249Y295951D01*
X234234Y295969D01*
X234213Y295991D01*
X234187Y296028D01*
X234154Y296068D01*
X234118Y296119D01*
X234078Y296177D01*
X234038Y296242D01*
Y296246D01*
X234034Y296250D01*
X234020Y296271D01*
X234001Y296308D01*
X233980Y296352D01*
X233954Y296403D01*
X233929Y296457D01*
X233903Y296512D01*
X233881Y296566D01*
X234180D01*
Y296563D01*
D02*
G37*
G36*
X232990Y294532D02*
X232986D01*
X232979Y294528D01*
X232964Y294524D01*
X232946Y294521D01*
X232924Y294517D01*
X232899Y294510D01*
X232844Y294492D01*
X232779Y294466D01*
X232717Y294433D01*
X232658Y294397D01*
X232607Y294353D01*
X232604Y294346D01*
X232589Y294331D01*
X232571Y294302D01*
X232553Y294266D01*
X232531Y294222D01*
X232513Y294168D01*
X232498Y294106D01*
X232495Y294040D01*
Y294018D01*
X232498Y294004D01*
X232502Y293964D01*
X232513Y293913D01*
X232531Y293854D01*
X232557Y293793D01*
X232593Y293731D01*
X232644Y293672D01*
X232651Y293665D01*
X232673Y293647D01*
X232706Y293625D01*
X232749Y293596D01*
X232804Y293567D01*
X232866Y293545D01*
X232939Y293527D01*
X233019Y293520D01*
X233022D01*
X233030D01*
X233041D01*
X233055Y293523D01*
X233095Y293527D01*
X233142Y293538D01*
X233201Y293552D01*
X233259Y293578D01*
X233317Y293614D01*
X233372Y293662D01*
X233379Y293669D01*
X233394Y293687D01*
X233416Y293716D01*
X233441Y293756D01*
X233467Y293807D01*
X233488Y293869D01*
X233503Y293938D01*
X233510Y294015D01*
Y294047D01*
X233506Y294073D01*
X233503Y294106D01*
X233496Y294142D01*
X233488Y294186D01*
X233477Y294233D01*
X233750Y294197D01*
Y294179D01*
X233747Y294164D01*
Y294117D01*
X233754Y294077D01*
X233761Y294029D01*
X233772Y293975D01*
X233790Y293913D01*
X233816Y293854D01*
X233849Y293793D01*
Y293789D01*
X233852Y293785D01*
X233867Y293767D01*
X233892Y293742D01*
X233925Y293713D01*
X233972Y293683D01*
X234027Y293658D01*
X234089Y293640D01*
X234125Y293633D01*
X234165D01*
X234169D01*
X234173D01*
X234194D01*
X234224Y293640D01*
X234264Y293647D01*
X234307Y293662D01*
X234355Y293680D01*
X234402Y293709D01*
X234446Y293749D01*
X234449Y293753D01*
X234464Y293771D01*
X234482Y293796D01*
X234504Y293829D01*
X234522Y293873D01*
X234540Y293924D01*
X234555Y293982D01*
X234559Y294047D01*
Y294077D01*
X234551Y294109D01*
X234544Y294153D01*
X234529Y294200D01*
X234511Y294248D01*
X234482Y294299D01*
X234446Y294346D01*
X234442Y294350D01*
X234424Y294364D01*
X234398Y294386D01*
X234362Y294411D01*
X234315Y294437D01*
X234256Y294462D01*
X234187Y294484D01*
X234107Y294499D01*
X234162Y294808D01*
X234165D01*
X234176Y294805D01*
X234191Y294801D01*
X234213Y294797D01*
X234238Y294790D01*
X234267Y294779D01*
X234336Y294757D01*
X234417Y294721D01*
X234497Y294677D01*
X234573Y294623D01*
X234642Y294553D01*
X234646Y294550D01*
X234649Y294543D01*
X234657Y294532D01*
X234668Y294517D01*
X234682Y294499D01*
X234697Y294473D01*
X234711Y294448D01*
X234730Y294415D01*
X234759Y294342D01*
X234788Y294259D01*
X234806Y294160D01*
X234813Y294109D01*
Y294018D01*
X234810Y293978D01*
X234802Y293931D01*
X234791Y293873D01*
X234773Y293807D01*
X234751Y293742D01*
X234722Y293676D01*
Y293672D01*
X234719Y293669D01*
X234708Y293647D01*
X234686Y293614D01*
X234660Y293578D01*
X234624Y293534D01*
X234584Y293491D01*
X234537Y293447D01*
X234482Y293410D01*
X234475Y293407D01*
X234456Y293396D01*
X234424Y293381D01*
X234384Y293363D01*
X234336Y293345D01*
X234282Y293330D01*
X234220Y293319D01*
X234158Y293316D01*
X234151D01*
X234129D01*
X234100Y293319D01*
X234060Y293327D01*
X234013Y293338D01*
X233962Y293356D01*
X233910Y293378D01*
X233860Y293407D01*
X233852Y293410D01*
X233838Y293421D01*
X233812Y293443D01*
X233783Y293472D01*
X233750Y293509D01*
X233714Y293552D01*
X233681Y293603D01*
X233648Y293665D01*
Y293662D01*
X233645Y293654D01*
X233641Y293643D01*
X233637Y293629D01*
X233623Y293589D01*
X233601Y293538D01*
X233572Y293480D01*
X233536Y293421D01*
X233488Y293367D01*
X233434Y293316D01*
X233426Y293312D01*
X233405Y293298D01*
X233368Y293276D01*
X233321Y293254D01*
X233263Y293232D01*
X233193Y293210D01*
X233113Y293196D01*
X233026Y293192D01*
X233022D01*
X233012D01*
X232993D01*
X232971Y293196D01*
X232942Y293199D01*
X232909Y293207D01*
X232873Y293214D01*
X232833Y293221D01*
X232746Y293250D01*
X232698Y293272D01*
X232655Y293294D01*
X232607Y293323D01*
X232560Y293356D01*
X232513Y293392D01*
X232469Y293436D01*
X232466Y293440D01*
X232458Y293447D01*
X232447Y293461D01*
X232433Y293480D01*
X232415Y293501D01*
X232396Y293531D01*
X232375Y293563D01*
X232356Y293603D01*
X232334Y293643D01*
X232313Y293691D01*
X232294Y293738D01*
X232276Y293793D01*
X232262Y293851D01*
X232251Y293913D01*
X232243Y293975D01*
X232240Y294044D01*
Y294077D01*
X232243Y294098D01*
X232247Y294127D01*
X232251Y294160D01*
X232258Y294197D01*
X232265Y294237D01*
X232287Y294324D01*
X232324Y294415D01*
X232345Y294462D01*
X232371Y294506D01*
X232404Y294550D01*
X232436Y294593D01*
X232440Y294597D01*
X232447Y294604D01*
X232458Y294615D01*
X232473Y294626D01*
X232491Y294644D01*
X232516Y294663D01*
X232542Y294684D01*
X232575Y294706D01*
X232611Y294728D01*
X232647Y294750D01*
X232735Y294790D01*
X232837Y294823D01*
X232891Y294834D01*
X232950Y294841D01*
X232990Y294532D01*
D02*
G37*
G36*
X207243Y298878D02*
X205787D01*
X205784D01*
X205773D01*
X205754D01*
X205733D01*
X205707Y298874D01*
X205674D01*
X205605Y298870D01*
X205525Y298863D01*
X205445Y298852D01*
X205369Y298838D01*
X205336Y298830D01*
X205303Y298819D01*
X205296Y298816D01*
X205278Y298809D01*
X205252Y298790D01*
X205216Y298768D01*
X205179Y298743D01*
X205139Y298707D01*
X205099Y298663D01*
X205067Y298612D01*
X205063Y298605D01*
X205052Y298587D01*
X205041Y298554D01*
X205027Y298510D01*
X205008Y298459D01*
X204997Y298394D01*
X204987Y298324D01*
X204983Y298248D01*
Y298212D01*
X204987Y298190D01*
Y298157D01*
X204990Y298124D01*
X205005Y298044D01*
X205023Y297957D01*
X205052Y297873D01*
X205092Y297793D01*
X205118Y297757D01*
X205147Y297724D01*
X205150Y297720D01*
X205154Y297717D01*
X205165Y297709D01*
X205179Y297698D01*
X205201Y297687D01*
X205223Y297673D01*
X205256Y297658D01*
X205289Y297644D01*
X205329Y297629D01*
X205376Y297618D01*
X205431Y297604D01*
X205489Y297593D01*
X205554Y297582D01*
X205624Y297575D01*
X205704Y297567D01*
X205787D01*
X207243D01*
Y297232D01*
X205787D01*
X205784D01*
X205769D01*
X205751D01*
X205725D01*
X205693Y297236D01*
X205656D01*
X205613Y297240D01*
X205569Y297243D01*
X205471Y297254D01*
X205369Y297269D01*
X205270Y297291D01*
X205223Y297305D01*
X205179Y297320D01*
X205176D01*
X205169Y297323D01*
X205158Y297331D01*
X205143Y297338D01*
X205103Y297360D01*
X205052Y297393D01*
X204994Y297436D01*
X204936Y297487D01*
X204874Y297553D01*
X204819Y297633D01*
Y297637D01*
X204812Y297644D01*
X204808Y297655D01*
X204797Y297673D01*
X204786Y297695D01*
X204775Y297724D01*
X204765Y297753D01*
X204750Y297789D01*
X204735Y297829D01*
X204724Y297873D01*
X204714Y297920D01*
X204703Y297975D01*
X204695Y298030D01*
X204688Y298088D01*
X204681Y298219D01*
Y298252D01*
X204684Y298277D01*
Y298306D01*
X204688Y298343D01*
X204692Y298383D01*
X204695Y298423D01*
X204710Y298514D01*
X204732Y298612D01*
X204761Y298707D01*
X204801Y298798D01*
Y298801D01*
X204808Y298809D01*
X204815Y298819D01*
X204823Y298834D01*
X204852Y298874D01*
X204892Y298921D01*
X204943Y298976D01*
X205001Y299027D01*
X205074Y299078D01*
X205154Y299118D01*
X205158D01*
X205165Y299122D01*
X205179Y299125D01*
X205198Y299132D01*
X205220Y299140D01*
X205249Y299147D01*
X205281Y299158D01*
X205321Y299165D01*
X205365Y299173D01*
X205412Y299184D01*
X205463Y299191D01*
X205518Y299198D01*
X205580Y299205D01*
X205645Y299209D01*
X205715Y299213D01*
X205787D01*
X207243D01*
Y298878D01*
D02*
G37*
G36*
Y295755D02*
Y295503D01*
X205613D01*
Y295161D01*
X205329D01*
Y295503D01*
X204724D01*
Y295813D01*
X205329D01*
Y296908D01*
X205613D01*
X207243Y295755D01*
D02*
G37*
%LPC*%
G36*
X453571Y296461D02*
X453564D01*
X453546D01*
X453513Y296457D01*
X453473Y296453D01*
X453426Y296446D01*
X453375Y296432D01*
X453320Y296417D01*
X453265Y296395D01*
X453258Y296392D01*
X453240Y296381D01*
X453215Y296366D01*
X453182Y296344D01*
X453149Y296319D01*
X453109Y296286D01*
X453076Y296250D01*
X453044Y296206D01*
X453040Y296199D01*
X453032Y296184D01*
X453018Y296159D01*
X453007Y296126D01*
X452992Y296090D01*
X452978Y296046D01*
X452971Y295999D01*
X452967Y295948D01*
Y295929D01*
X452971Y295915D01*
X452974Y295878D01*
X452985Y295831D01*
X453007Y295780D01*
X453032Y295722D01*
X453073Y295664D01*
X453094Y295635D01*
X453124Y295609D01*
X453127D01*
X453131Y295602D01*
X453153Y295587D01*
X453189Y295565D01*
X453236Y295536D01*
X453298Y295511D01*
X453371Y295489D01*
X453455Y295474D01*
X453553Y295467D01*
X453557D01*
X453564D01*
X453579D01*
X453597Y295471D01*
X453619D01*
X453644Y295474D01*
X453702Y295485D01*
X453768Y295500D01*
X453837Y295525D01*
X453902Y295562D01*
X453964Y295609D01*
X453972Y295616D01*
X453990Y295635D01*
X454012Y295664D01*
X454041Y295704D01*
X454070Y295755D01*
X454092Y295813D01*
X454110Y295882D01*
X454117Y295958D01*
Y295980D01*
X454114Y295995D01*
X454110Y296031D01*
X454099Y296082D01*
X454081Y296137D01*
X454052Y296199D01*
X454015Y296257D01*
X453964Y296315D01*
X453957Y296322D01*
X453939Y296337D01*
X453906Y296362D01*
X453859Y296388D01*
X453804Y296413D01*
X453735Y296439D01*
X453659Y296453D01*
X453571Y296461D01*
D02*
G37*
G36*
X399523Y213711D02*
X399520D01*
X399516D01*
X399494Y213707D01*
X399461Y213703D01*
X399421Y213696D01*
X399374Y213682D01*
X399327Y213664D01*
X399276Y213634D01*
X399232Y213598D01*
X399229Y213594D01*
X399214Y213576D01*
X399196Y213551D01*
X399178Y213518D01*
X399156Y213474D01*
X399137Y213423D01*
X399123Y213365D01*
X399119Y213299D01*
Y213292D01*
X399123Y213270D01*
X399127Y213238D01*
X399134Y213194D01*
X399148Y213147D01*
X399167Y213099D01*
X399196Y213048D01*
X399232Y213005D01*
X399236Y213001D01*
X399254Y212986D01*
X399276Y212968D01*
X399309Y212946D01*
X399349Y212925D01*
X399396Y212906D01*
X399450Y212892D01*
X399509Y212888D01*
X399512D01*
X399516D01*
X399538D01*
X399571Y212895D01*
X399611Y212903D01*
X399654Y212917D01*
X399702Y212939D01*
X399749Y212968D01*
X399796Y213008D01*
X399800Y213012D01*
X399815Y213030D01*
X399833Y213056D01*
X399855Y213088D01*
X399876Y213132D01*
X399895Y213179D01*
X399909Y213238D01*
X399913Y213299D01*
Y213329D01*
X399905Y213361D01*
X399898Y213405D01*
X399884Y213452D01*
X399866Y213503D01*
X399836Y213551D01*
X399796Y213598D01*
X399793Y213602D01*
X399778Y213616D01*
X399753Y213634D01*
X399720Y213653D01*
X399680Y213674D01*
X399633Y213693D01*
X399582Y213707D01*
X399523Y213711D01*
D02*
G37*
G36*
X398362Y213813D02*
X398355D01*
X398340D01*
X398315Y213809D01*
X398282Y213805D01*
X398242Y213798D01*
X398198Y213787D01*
X398155Y213773D01*
X398107Y213755D01*
X398104Y213751D01*
X398085Y213744D01*
X398064Y213729D01*
X398038Y213707D01*
X398005Y213682D01*
X397973Y213649D01*
X397944Y213613D01*
X397914Y213569D01*
X397911Y213562D01*
X397903Y213547D01*
X397893Y213522D01*
X397882Y213489D01*
X397871Y213449D01*
X397860Y213401D01*
X397853Y213350D01*
X397849Y213299D01*
Y213278D01*
X397853Y213263D01*
X397856Y213219D01*
X397867Y213168D01*
X397885Y213110D01*
X397907Y213048D01*
X397944Y212990D01*
X397991Y212932D01*
X397998Y212925D01*
X398016Y212910D01*
X398049Y212884D01*
X398089Y212859D01*
X398140Y212834D01*
X398202Y212808D01*
X398275Y212793D01*
X398351Y212786D01*
X398355D01*
X398362D01*
X398373D01*
X398388Y212790D01*
X398428Y212793D01*
X398482Y212804D01*
X398537Y212823D01*
X398599Y212848D01*
X398661Y212884D01*
X398719Y212935D01*
X398726Y212943D01*
X398741Y212961D01*
X398766Y212994D01*
X398795Y213037D01*
X398821Y213092D01*
X398846Y213158D01*
X398861Y213230D01*
X398868Y213310D01*
Y213332D01*
X398865Y213347D01*
X398861Y213387D01*
X398850Y213438D01*
X398832Y213496D01*
X398806Y213554D01*
X398770Y213616D01*
X398723Y213671D01*
X398715Y213678D01*
X398697Y213693D01*
X398664Y213714D01*
X398624Y213740D01*
X398570Y213769D01*
X398508Y213791D01*
X398439Y213805D01*
X398362Y213813D01*
D02*
G37*
G36*
X316628Y213809D02*
X316624D01*
X316617D01*
X316606D01*
X316588Y213805D01*
X316566D01*
X316544Y213802D01*
X316489Y213791D01*
X316428Y213773D01*
X316362Y213751D01*
X316297Y213714D01*
X316238Y213667D01*
X316231Y213660D01*
X316216Y213642D01*
X316191Y213609D01*
X316165Y213569D01*
X316136Y213514D01*
X316111Y213452D01*
X316096Y213383D01*
X316089Y213307D01*
Y213285D01*
X316093Y213270D01*
X316096Y213230D01*
X316107Y213183D01*
X316125Y213125D01*
X316151Y213067D01*
X316187Y213008D01*
X316238Y212954D01*
X316246Y212946D01*
X316267Y212932D01*
X316300Y212910D01*
X316348Y212881D01*
X316406Y212855D01*
X316475Y212834D01*
X316559Y212819D01*
X316653Y212812D01*
X316657D01*
X316664D01*
X316679D01*
X316697Y212815D01*
X316722D01*
X316748Y212819D01*
X316806Y212830D01*
X316875Y212844D01*
X316948Y212870D01*
X317017Y212906D01*
X317079Y212954D01*
X317083D01*
X317086Y212961D01*
X317105Y212979D01*
X317130Y213008D01*
X317159Y213048D01*
X317185Y213099D01*
X317210Y213158D01*
X317228Y213223D01*
X317236Y213259D01*
Y213318D01*
X317232Y213332D01*
X317228Y213372D01*
X317214Y213420D01*
X317196Y213478D01*
X317163Y213540D01*
X317123Y213602D01*
X317094Y213631D01*
X317065Y213660D01*
X317061D01*
X317057Y213667D01*
X317046Y213674D01*
X317035Y213682D01*
X316999Y213707D01*
X316948Y213733D01*
X316886Y213762D01*
X316810Y213787D01*
X316722Y213802D01*
X316628Y213809D01*
D02*
G37*
G36*
X371320Y255158D02*
X371313D01*
X371294D01*
X371262D01*
X371218Y255154D01*
X371171D01*
X371112Y255151D01*
X371051Y255147D01*
X370985Y255140D01*
X370843Y255121D01*
X370774Y255111D01*
X370708Y255096D01*
X370647Y255081D01*
X370588Y255060D01*
X370537Y255038D01*
X370494Y255012D01*
X370490D01*
X370486Y255005D01*
X370461Y254987D01*
X370428Y254954D01*
X370392Y254914D01*
X370355Y254859D01*
X370323Y254798D01*
X370297Y254728D01*
X370293Y254692D01*
X370290Y254652D01*
Y254630D01*
X370293Y254615D01*
X370301Y254579D01*
X370315Y254528D01*
X370341Y254473D01*
X370377Y254412D01*
X370399Y254382D01*
X370428Y254353D01*
X370457Y254324D01*
X370494Y254295D01*
X370497D01*
X370505Y254288D01*
X370515Y254281D01*
X370534Y254273D01*
X370559Y254259D01*
X370592Y254248D01*
X370628Y254233D01*
X370672Y254219D01*
X370727Y254208D01*
X370785Y254193D01*
X370854Y254179D01*
X370927Y254168D01*
X371014Y254160D01*
X371105Y254153D01*
X371207Y254146D01*
X371320D01*
X371324D01*
X371327D01*
X371345D01*
X371378D01*
X371422Y254150D01*
X371469D01*
X371528Y254153D01*
X371589Y254157D01*
X371658Y254164D01*
X371797Y254182D01*
X371866Y254193D01*
X371932Y254208D01*
X371993Y254222D01*
X372052Y254244D01*
X372103Y254266D01*
X372146Y254292D01*
X372150D01*
X372153Y254299D01*
X372165Y254306D01*
X372179Y254317D01*
X372212Y254350D01*
X372252Y254390D01*
X372288Y254444D01*
X372321Y254506D01*
X372336Y254539D01*
X372346Y254575D01*
X372350Y254615D01*
X372354Y254656D01*
Y254677D01*
X372350Y254692D01*
X372343Y254732D01*
X372332Y254779D01*
X372310Y254834D01*
X372277Y254892D01*
X372255Y254921D01*
X372234Y254950D01*
X372204Y254976D01*
X372172Y255001D01*
X372168D01*
X372161Y255009D01*
X372146Y255016D01*
X372128Y255027D01*
X372099Y255038D01*
X372066Y255052D01*
X372026Y255063D01*
X371979Y255078D01*
X371924Y255092D01*
X371862Y255107D01*
X371793Y255121D01*
X371717Y255132D01*
X371629Y255143D01*
X371535Y255151D01*
X371433Y255154D01*
X371320Y255158D01*
D02*
G37*
G36*
X479427Y221894D02*
X478298D01*
X479427Y221100D01*
Y221894D01*
D02*
G37*
G36*
X424400Y222239D02*
X424396D01*
X424389D01*
X424374D01*
X424356Y222236D01*
X424334D01*
X424309Y222232D01*
X424251Y222221D01*
X424185Y222207D01*
X424116Y222181D01*
X424050Y222145D01*
X423988Y222097D01*
X423981Y222090D01*
X423963Y222072D01*
X423941Y222043D01*
X423912Y222003D01*
X423883Y221952D01*
X423861Y221894D01*
X423843Y221824D01*
X423836Y221748D01*
Y221726D01*
X423839Y221711D01*
X423843Y221675D01*
X423854Y221624D01*
X423872Y221569D01*
X423901Y221508D01*
X423937Y221449D01*
X423988Y221391D01*
X423996Y221384D01*
X424014Y221369D01*
X424047Y221344D01*
X424094Y221318D01*
X424149Y221293D01*
X424218Y221267D01*
X424294Y221253D01*
X424381Y221246D01*
X424389D01*
X424407D01*
X424440Y221249D01*
X424480Y221253D01*
X424527Y221260D01*
X424578Y221275D01*
X424633Y221289D01*
X424687Y221311D01*
X424694Y221315D01*
X424713Y221326D01*
X424738Y221340D01*
X424771Y221362D01*
X424804Y221388D01*
X424844Y221420D01*
X424876Y221457D01*
X424909Y221500D01*
X424913Y221508D01*
X424920Y221522D01*
X424935Y221548D01*
X424946Y221581D01*
X424960Y221617D01*
X424975Y221661D01*
X424982Y221708D01*
X424986Y221759D01*
Y221777D01*
X424982Y221792D01*
X424978Y221828D01*
X424967Y221875D01*
X424946Y221926D01*
X424920Y221985D01*
X424880Y222043D01*
X424858Y222072D01*
X424829Y222097D01*
X424826D01*
X424822Y222105D01*
X424800Y222119D01*
X424764Y222141D01*
X424716Y222170D01*
X424654Y222196D01*
X424582Y222217D01*
X424498Y222232D01*
X424400Y222239D01*
D02*
G37*
G36*
X175294Y222141D02*
X175291D01*
X175287D01*
X175265D01*
X175233Y222134D01*
X175192Y222127D01*
X175149Y222112D01*
X175101Y222090D01*
X175054Y222061D01*
X175007Y222021D01*
X175003Y222017D01*
X174989Y221999D01*
X174970Y221974D01*
X174949Y221941D01*
X174927Y221897D01*
X174908Y221850D01*
X174894Y221792D01*
X174890Y221730D01*
Y221701D01*
X174898Y221668D01*
X174905Y221624D01*
X174919Y221577D01*
X174938Y221526D01*
X174967Y221479D01*
X175007Y221431D01*
X175011Y221428D01*
X175025Y221413D01*
X175050Y221395D01*
X175083Y221377D01*
X175123Y221355D01*
X175171Y221337D01*
X175222Y221322D01*
X175280Y221318D01*
X175284D01*
X175287D01*
X175309Y221322D01*
X175342Y221326D01*
X175382Y221333D01*
X175429Y221347D01*
X175476Y221366D01*
X175527Y221395D01*
X175571Y221431D01*
X175575Y221435D01*
X175589Y221453D01*
X175607Y221479D01*
X175626Y221511D01*
X175647Y221555D01*
X175666Y221606D01*
X175680Y221664D01*
X175684Y221730D01*
Y221737D01*
X175680Y221759D01*
X175677Y221792D01*
X175669Y221835D01*
X175655Y221883D01*
X175637Y221930D01*
X175607Y221981D01*
X175571Y222024D01*
X175567Y222028D01*
X175549Y222043D01*
X175527Y222061D01*
X175495Y222083D01*
X175454Y222105D01*
X175407Y222123D01*
X175353Y222137D01*
X175294Y222141D01*
D02*
G37*
G36*
X176452Y222243D02*
X176448D01*
X176441D01*
X176430D01*
X176416Y222239D01*
X176375Y222236D01*
X176321Y222225D01*
X176266Y222207D01*
X176204Y222181D01*
X176143Y222145D01*
X176084Y222094D01*
X176077Y222086D01*
X176062Y222068D01*
X176037Y222036D01*
X176008Y221992D01*
X175982Y221937D01*
X175957Y221872D01*
X175942Y221799D01*
X175935Y221719D01*
Y221697D01*
X175939Y221682D01*
X175942Y221642D01*
X175953Y221591D01*
X175971Y221533D01*
X175997Y221475D01*
X176033Y221413D01*
X176081Y221358D01*
X176088Y221351D01*
X176106Y221337D01*
X176139Y221315D01*
X176179Y221289D01*
X176233Y221260D01*
X176295Y221238D01*
X176365Y221224D01*
X176441Y221217D01*
X176448D01*
X176463D01*
X176488Y221220D01*
X176521Y221224D01*
X176561Y221231D01*
X176605Y221242D01*
X176648Y221256D01*
X176696Y221275D01*
X176699Y221278D01*
X176718Y221286D01*
X176740Y221300D01*
X176765Y221322D01*
X176798Y221347D01*
X176830Y221380D01*
X176860Y221417D01*
X176889Y221460D01*
X176892Y221468D01*
X176900Y221482D01*
X176910Y221508D01*
X176921Y221540D01*
X176932Y221581D01*
X176943Y221628D01*
X176951Y221679D01*
X176954Y221730D01*
Y221751D01*
X176951Y221766D01*
X176947Y221810D01*
X176936Y221861D01*
X176918Y221919D01*
X176896Y221981D01*
X176860Y222039D01*
X176812Y222097D01*
X176805Y222105D01*
X176787Y222119D01*
X176754Y222145D01*
X176714Y222170D01*
X176663Y222196D01*
X176601Y222221D01*
X176528Y222236D01*
X176452Y222243D01*
D02*
G37*
G36*
X261510Y294528D02*
X261506D01*
X261499D01*
X261488D01*
X261470Y294524D01*
X261448D01*
X261426Y294521D01*
X261371Y294510D01*
X261309Y294492D01*
X261244Y294470D01*
X261178Y294433D01*
X261120Y294386D01*
X261113Y294379D01*
X261098Y294360D01*
X261073Y294328D01*
X261047Y294288D01*
X261018Y294233D01*
X260993Y294171D01*
X260978Y294102D01*
X260971Y294026D01*
Y294004D01*
X260975Y293989D01*
X260978Y293949D01*
X260989Y293902D01*
X261007Y293844D01*
X261033Y293785D01*
X261069Y293727D01*
X261120Y293672D01*
X261127Y293665D01*
X261149Y293651D01*
X261182Y293629D01*
X261229Y293600D01*
X261288Y293574D01*
X261357Y293552D01*
X261440Y293538D01*
X261535Y293531D01*
X261539D01*
X261546D01*
X261561D01*
X261579Y293534D01*
X261604D01*
X261630Y293538D01*
X261688Y293549D01*
X261757Y293563D01*
X261830Y293589D01*
X261899Y293625D01*
X261961Y293672D01*
X261965D01*
X261968Y293680D01*
X261986Y293698D01*
X262012Y293727D01*
X262041Y293767D01*
X262067Y293818D01*
X262092Y293876D01*
X262110Y293942D01*
X262118Y293978D01*
Y294037D01*
X262114Y294051D01*
X262110Y294091D01*
X262096Y294138D01*
X262077Y294197D01*
X262045Y294259D01*
X262005Y294320D01*
X261976Y294350D01*
X261946Y294379D01*
X261943D01*
X261939Y294386D01*
X261928Y294393D01*
X261917Y294401D01*
X261881Y294426D01*
X261830Y294451D01*
X261768Y294481D01*
X261692Y294506D01*
X261604Y294521D01*
X261510Y294528D01*
D02*
G37*
G36*
X288643D02*
X288635D01*
X288617D01*
X288585D01*
X288541Y294524D01*
X288494D01*
X288435Y294521D01*
X288373Y294517D01*
X288308Y294510D01*
X288166Y294492D01*
X288097Y294481D01*
X288031Y294466D01*
X287969Y294451D01*
X287911Y294430D01*
X287860Y294408D01*
X287817Y294382D01*
X287813D01*
X287809Y294375D01*
X287784Y294357D01*
X287751Y294324D01*
X287715Y294284D01*
X287678Y294229D01*
X287645Y294168D01*
X287620Y294098D01*
X287616Y294062D01*
X287613Y294022D01*
Y294000D01*
X287616Y293986D01*
X287624Y293949D01*
X287638Y293898D01*
X287664Y293844D01*
X287700Y293782D01*
X287722Y293753D01*
X287751Y293724D01*
X287780Y293694D01*
X287817Y293665D01*
X287820D01*
X287827Y293658D01*
X287838Y293651D01*
X287857Y293643D01*
X287882Y293629D01*
X287915Y293618D01*
X287951Y293603D01*
X287995Y293589D01*
X288050Y293578D01*
X288108Y293563D01*
X288177Y293549D01*
X288250Y293538D01*
X288337Y293531D01*
X288428Y293523D01*
X288530Y293516D01*
X288643D01*
X288647D01*
X288650D01*
X288668D01*
X288701D01*
X288745Y293520D01*
X288792D01*
X288850Y293523D01*
X288912Y293527D01*
X288981Y293534D01*
X289120Y293552D01*
X289189Y293563D01*
X289254Y293578D01*
X289316Y293592D01*
X289374Y293614D01*
X289425Y293636D01*
X289469Y293662D01*
X289473D01*
X289476Y293669D01*
X289487Y293676D01*
X289502Y293687D01*
X289535Y293720D01*
X289575Y293760D01*
X289611Y293814D01*
X289644Y293876D01*
X289658Y293909D01*
X289669Y293946D01*
X289673Y293986D01*
X289677Y294026D01*
Y294047D01*
X289673Y294062D01*
X289666Y294102D01*
X289655Y294149D01*
X289633Y294204D01*
X289600Y294262D01*
X289578Y294291D01*
X289556Y294320D01*
X289527Y294346D01*
X289495Y294371D01*
X289491D01*
X289484Y294379D01*
X289469Y294386D01*
X289451Y294397D01*
X289422Y294408D01*
X289389Y294422D01*
X289349Y294433D01*
X289302Y294448D01*
X289247Y294462D01*
X289185Y294477D01*
X289116Y294492D01*
X289040Y294502D01*
X288952Y294513D01*
X288858Y294521D01*
X288756Y294524D01*
X288643Y294528D01*
D02*
G37*
G36*
X288290Y211971D02*
Y211177D01*
X289418D01*
X288290Y211971D01*
D02*
G37*
G36*
X205613Y296606D02*
Y295813D01*
X206741D01*
X205613Y296606D01*
D02*
G37*
%LPD*%
D11*
X186008Y285236D02*
Y313189D01*
X168323Y285236D02*
X186008D01*
X168323D02*
Y313189D01*
X186008D01*
X416354D02*
X434039D01*
X416354Y285236D02*
Y313189D01*
Y285236D02*
X434039D01*
Y313189D01*
X443913D02*
X461598D01*
X443913Y285236D02*
Y313189D01*
Y285236D02*
X461598D01*
Y313189D01*
X471472D02*
X489157D01*
X471472Y285236D02*
Y313189D01*
Y285236D02*
X489157D01*
Y313189D01*
X388795Y230512D02*
X406480D01*
X388795Y202559D02*
Y230512D01*
Y202559D02*
X406480D01*
Y230512D01*
X306118D02*
X323803D01*
X306118Y202559D02*
Y230512D01*
Y202559D02*
X323803D01*
Y230512D01*
X361236Y273819D02*
X378921D01*
X361236Y245866D02*
Y273819D01*
Y245866D02*
X378921D01*
Y273819D01*
X361236Y313189D02*
X378921D01*
X361236Y285236D02*
Y313189D01*
Y285236D02*
X378921D01*
Y313189D01*
X388795D02*
X406480D01*
X388795Y285236D02*
Y313189D01*
Y285236D02*
X406480D01*
Y313189D01*
X471472Y202559D02*
X489157D01*
Y230512D01*
X471472D02*
X489157D01*
X471472Y202559D02*
Y230512D01*
X443913Y202559D02*
X461598D01*
Y230512D01*
X443913D02*
X461598D01*
X443913Y202559D02*
Y230512D01*
X416354Y202559D02*
X434039D01*
Y230512D01*
X416354D02*
X434039D01*
X416354Y202559D02*
Y230512D01*
X195882Y202559D02*
X213567D01*
Y230512D01*
X195882D02*
X213567D01*
X195882Y202559D02*
Y230512D01*
X168323Y202559D02*
X186008D01*
Y230512D01*
X168323D02*
X186008D01*
X168323Y202559D02*
Y230512D01*
X251000Y313189D02*
X268685D01*
X251000Y285236D02*
Y313189D01*
Y285236D02*
X268685D01*
Y313189D01*
X361236Y230512D02*
X378921D01*
X361236Y202559D02*
Y230512D01*
Y202559D02*
X378921D01*
Y230512D01*
X333677D02*
X351362D01*
X333677Y202559D02*
Y230512D01*
Y202559D02*
X351362D01*
Y230512D01*
X278559Y313189D02*
X296244D01*
X278559Y285236D02*
Y313189D01*
Y285236D02*
X296244D01*
Y313189D01*
X278559Y273819D02*
X296244D01*
X278559Y245866D02*
Y273819D01*
Y245866D02*
X296244D01*
Y273819D01*
X223441Y230512D02*
X241126D01*
X223441Y202559D02*
Y230512D01*
Y202559D02*
X241126D01*
Y230512D01*
X251000D02*
X268685D01*
X251000Y202559D02*
Y230512D01*
Y202559D02*
X268685D01*
Y230512D01*
X278559D02*
X296244D01*
X278559Y202559D02*
Y230512D01*
Y202559D02*
X296244D01*
Y230512D01*
X241126Y285236D02*
Y313189D01*
X223441Y285236D02*
X241126D01*
X223441D02*
Y313189D01*
X241126D01*
X213567Y285236D02*
Y313189D01*
X195882Y285236D02*
X213567D01*
X195882D02*
Y313189D01*
X213567D01*
M02*
