G04*
G04 #@! TF.GenerationSoftware,Altium Limited,Altium Designer,21.1.1 (26)*
G04*
G04 Layer_Color=8388736*
%FSLAX25Y25*%
%MOIN*%
G70*
G04*
G04 #@! TF.SameCoordinates,5D9DAD53-06A7-4B73-8655-5B298560343D*
G04*
G04*
G04 #@! TF.FilePolarity,Negative*
G04*
G01*
G75*
%ADD14R,0.05500X0.05800*%
%ADD15O,0.02362X0.05118*%
%ADD17R,0.04343X0.06902*%
%ADD18R,0.09540X0.04816*%
%ADD19R,0.04737X0.04737*%
%ADD20C,0.10642*%
%ADD21C,0.08674*%
%ADD22C,0.13202*%
D14*
X188586Y145669D02*
D03*
X181493D02*
D03*
X428743D02*
D03*
X421651D02*
D03*
X475987Y377953D02*
D03*
X468894D02*
D03*
X239767D02*
D03*
X232674D02*
D03*
X362595Y145669D02*
D03*
X369688D02*
D03*
X303540D02*
D03*
X310633D02*
D03*
X244485D02*
D03*
X251578D02*
D03*
X409839Y377953D02*
D03*
X416932D02*
D03*
X350784D02*
D03*
X357877D02*
D03*
X292120D02*
D03*
X299213D02*
D03*
D15*
X182165Y310236D02*
D03*
X172165D02*
D03*
Y288189D02*
D03*
X182165D02*
D03*
X430197D02*
D03*
X420197D02*
D03*
Y310236D02*
D03*
X430197D02*
D03*
X457756Y288189D02*
D03*
X447756D02*
D03*
Y310236D02*
D03*
X457756D02*
D03*
X485315Y288189D02*
D03*
X475315D02*
D03*
Y310236D02*
D03*
X485315D02*
D03*
X402638Y205512D02*
D03*
X392638D02*
D03*
Y227559D02*
D03*
X402638D02*
D03*
X319961Y205512D02*
D03*
X309961D02*
D03*
Y227559D02*
D03*
X319961D02*
D03*
X375079Y248819D02*
D03*
X365079D02*
D03*
Y270866D02*
D03*
X375079D02*
D03*
Y288189D02*
D03*
X365079D02*
D03*
Y310236D02*
D03*
X375079D02*
D03*
X402638Y288189D02*
D03*
X392638D02*
D03*
Y310236D02*
D03*
X402638D02*
D03*
X475315Y227559D02*
D03*
X485315D02*
D03*
Y205512D02*
D03*
X475315D02*
D03*
X447756Y227559D02*
D03*
X457756D02*
D03*
Y205512D02*
D03*
X447756D02*
D03*
X420197Y227559D02*
D03*
X430197D02*
D03*
Y205512D02*
D03*
X420197D02*
D03*
X199724Y227559D02*
D03*
X209724D02*
D03*
Y205512D02*
D03*
X199724D02*
D03*
X172165Y227559D02*
D03*
X182165Y205512D02*
D03*
Y227559D02*
D03*
X172165Y205512D02*
D03*
X264843Y288189D02*
D03*
X254842D02*
D03*
Y310236D02*
D03*
X264843D02*
D03*
X375079Y205512D02*
D03*
X365079D02*
D03*
Y227559D02*
D03*
X375079D02*
D03*
X347520Y205512D02*
D03*
X337520D02*
D03*
Y227559D02*
D03*
X347520D02*
D03*
X292402Y288189D02*
D03*
X282402D02*
D03*
Y310236D02*
D03*
X292402D02*
D03*
Y248819D02*
D03*
X282402D02*
D03*
Y270866D02*
D03*
X292402D02*
D03*
X237283Y205512D02*
D03*
X227284D02*
D03*
Y227559D02*
D03*
X237283D02*
D03*
X264843Y205512D02*
D03*
X254842D02*
D03*
Y227559D02*
D03*
X264843D02*
D03*
X292402Y205512D02*
D03*
X282402D02*
D03*
Y227559D02*
D03*
X292402D02*
D03*
X237283Y310236D02*
D03*
X227284D02*
D03*
Y288189D02*
D03*
X237283D02*
D03*
X209724Y310236D02*
D03*
X199724D02*
D03*
Y288189D02*
D03*
X209724D02*
D03*
D17*
X190256Y157480D02*
D03*
X179823D02*
D03*
X430413D02*
D03*
X419980D02*
D03*
X477658Y366142D02*
D03*
X467224D02*
D03*
X241437D02*
D03*
X231004D02*
D03*
X360925Y157480D02*
D03*
X371358D02*
D03*
X301870D02*
D03*
X312303D02*
D03*
X242815D02*
D03*
X253248D02*
D03*
X408169Y366142D02*
D03*
X418602D02*
D03*
X349114D02*
D03*
X359547D02*
D03*
X288779D02*
D03*
X299213D02*
D03*
D18*
X323524Y248465D02*
D03*
X345768D02*
D03*
X323524Y258465D02*
D03*
X345768D02*
D03*
X323524Y268465D02*
D03*
X345768D02*
D03*
X323524Y278465D02*
D03*
X345768D02*
D03*
X323524Y288465D02*
D03*
X345768D02*
D03*
X323524Y298465D02*
D03*
X345768D02*
D03*
X323524Y308465D02*
D03*
X345768D02*
D03*
X323524Y318465D02*
D03*
X345768D02*
D03*
D19*
X322835Y157480D02*
D03*
X205512Y366142D02*
D03*
X204724Y157480D02*
D03*
X212205D02*
D03*
X219685D02*
D03*
X263779D02*
D03*
X271260D02*
D03*
X278740D02*
D03*
X330315D02*
D03*
X337795D02*
D03*
X381890D02*
D03*
X389370D02*
D03*
X396850D02*
D03*
X440945D02*
D03*
X448425D02*
D03*
X455905D02*
D03*
X456693Y366142D02*
D03*
X449213D02*
D03*
X441732D02*
D03*
X397638D02*
D03*
X390158D02*
D03*
X382677D02*
D03*
X338583D02*
D03*
X331102D02*
D03*
X323622D02*
D03*
X279528D02*
D03*
X272047D02*
D03*
X264567D02*
D03*
X220472D02*
D03*
X212992D02*
D03*
D20*
X531496Y374016D02*
D03*
Y137795D02*
D03*
X137795D02*
D03*
Y374016D02*
D03*
D21*
X222441Y147480D02*
D03*
X202441Y146949D02*
D03*
X281496Y147480D02*
D03*
X261496Y146949D02*
D03*
X340551Y147480D02*
D03*
X320551Y146949D02*
D03*
X399606Y147480D02*
D03*
X379606Y146949D02*
D03*
X458661Y147480D02*
D03*
X438661Y146949D02*
D03*
X438976Y376142D02*
D03*
X458976Y376673D02*
D03*
X379921Y376142D02*
D03*
X399921Y376673D02*
D03*
X320866Y376142D02*
D03*
X340866Y376673D02*
D03*
X261811Y376142D02*
D03*
X281811Y376673D02*
D03*
X202756Y376142D02*
D03*
X222756Y376673D02*
D03*
D22*
X212205Y177559D02*
D03*
X271260D02*
D03*
X330315D02*
D03*
X389370D02*
D03*
X448425D02*
D03*
X449213Y346063D02*
D03*
X390158D02*
D03*
X331102D02*
D03*
X272047D02*
D03*
X212992D02*
D03*
M02*
