G04*
G04 #@! TF.GenerationSoftware,Altium Limited,Altium Designer,20.2.6 (244)*
G04*
G04 Layer_Color=32896*
%FSLAX25Y25*%
%MOIN*%
G70*
G04*
G04 #@! TF.SameCoordinates,E8620A35-0D5A-4ADE-AEDE-EDBF8206D9B1*
G04*
G04*
G04 #@! TF.FilePolarity,Positive*
G04*
G01*
G75*
%ADD12C,0.01000*%
%ADD33C,0.02000*%
%ADD34C,0.00394*%
%ADD35C,0.00600*%
D12*
X164354Y357473D02*
Y351475D01*
X160356D01*
X155357D02*
X157357D01*
X158356Y352474D01*
Y354474D01*
X157357Y355473D01*
X155357D01*
X154358Y354474D01*
Y353474D01*
X158356D01*
X151358Y351475D02*
Y356473D01*
Y354474D01*
X152358D01*
X150359D01*
X151358D01*
Y356473D01*
X150359Y357473D01*
X146360Y356473D02*
Y355473D01*
X147360D01*
X145361D01*
X146360D01*
Y352474D01*
X145361Y351475D01*
X135364Y356473D02*
Y355473D01*
X136363D01*
X134364D01*
X135364D01*
Y352474D01*
X134364Y351475D01*
X130365D02*
X128366D01*
X127366Y352474D01*
Y354474D01*
X128366Y355473D01*
X130365D01*
X131365Y354474D01*
Y352474D01*
X130365Y351475D01*
X164354Y345876D02*
Y341877D01*
Y343877D01*
X163355Y344876D01*
X162355Y345876D01*
X161355D01*
X158356Y341877D02*
X156357D01*
X157357D01*
Y345876D01*
X158356D01*
X151358Y339878D02*
X150359D01*
X149359Y340878D01*
Y345876D01*
X152358D01*
X153358Y344876D01*
Y342877D01*
X152358Y341877D01*
X149359D01*
X147360Y347875D02*
Y341877D01*
Y344876D01*
X146360Y345876D01*
X144361D01*
X143361Y344876D01*
Y341877D01*
X140362Y346876D02*
Y345876D01*
X141362D01*
X139362D01*
X140362D01*
Y342877D01*
X139362Y341877D01*
X136363Y345876D02*
X135364D01*
Y344876D01*
X136363D01*
Y345876D01*
Y342877D02*
X135364D01*
Y341877D01*
X136363D01*
Y342877D01*
X160356Y326680D02*
X162355D01*
X161355D01*
Y321682D01*
X162355Y320683D01*
X163355D01*
X164354Y321682D01*
X154358Y320683D02*
X158356D01*
X154358Y324681D01*
Y325681D01*
X155357Y326680D01*
X157357D01*
X158356Y325681D01*
X152358D02*
X151358Y326680D01*
X149359D01*
X148360Y325681D01*
Y321682D01*
X149359Y320683D01*
X151358D01*
X152358Y321682D01*
Y325681D01*
X145361Y319683D02*
X144361Y320683D01*
Y321682D01*
X145361D01*
Y320683D01*
X144361D01*
X145361Y319683D01*
X146360Y318683D01*
X140362Y320683D02*
X138363D01*
X139362D01*
Y326680D01*
X140362Y325681D01*
X135364Y321682D02*
X134364Y320683D01*
X132365D01*
X131365Y321682D01*
Y325681D01*
X132365Y326680D01*
X134364D01*
X135364Y325681D01*
Y324681D01*
X134364Y323681D01*
X131365D01*
X128366Y319683D02*
X127366Y320683D01*
Y321682D01*
X128366D01*
Y320683D01*
X127366D01*
X128366Y319683D01*
X129366Y318683D01*
X160356Y317083D02*
X162355D01*
X161355D01*
Y312085D01*
X162355Y311085D01*
X163355D01*
X164354Y312085D01*
X158356Y311085D02*
X156357D01*
X157357D01*
Y317083D01*
X158356Y316083D01*
X150359Y311085D02*
Y317083D01*
X153358Y314084D01*
X149359D01*
X146360Y310085D02*
X145361Y311085D01*
Y312085D01*
X146360D01*
Y311085D01*
X145361D01*
X146360Y310085D01*
X147360Y309085D01*
X141362Y311085D02*
X139362D01*
X140362D01*
Y317083D01*
X141362Y316083D01*
X132365Y317083D02*
X136363D01*
Y314084D01*
X134364Y315084D01*
X133364D01*
X132365Y314084D01*
Y312085D01*
X133364Y311085D01*
X135364D01*
X136363Y312085D01*
X129366Y310085D02*
X128366Y311085D01*
Y312085D01*
X129366D01*
Y311085D01*
X128366D01*
X129366Y310085D01*
X130365Y309085D01*
X160356Y307485D02*
X162355D01*
X161355D01*
Y302487D01*
X162355Y301487D01*
X163355D01*
X164354Y302487D01*
X158356Y301487D02*
X156357D01*
X157357D01*
Y307485D01*
X158356Y306486D01*
X153358Y301487D02*
X151358D01*
X152358D01*
Y307485D01*
X153358Y306486D01*
X147360Y300487D02*
X146360Y301487D01*
Y302487D01*
X147360D01*
Y301487D01*
X146360D01*
X147360Y300487D01*
X148360Y299488D01*
X142361Y301487D02*
X140362D01*
X141362D01*
Y307485D01*
X142361Y306486D01*
X133364Y301487D02*
X137363D01*
X133364Y305486D01*
Y306486D01*
X134364Y307485D01*
X136363D01*
X137363Y306486D01*
X130365Y300487D02*
X129366Y301487D01*
Y302487D01*
X130365D01*
Y301487D01*
X129366D01*
X130365Y300487D01*
X131365Y299488D01*
X160356Y297887D02*
X162355D01*
X161355D01*
Y292889D01*
X162355Y291889D01*
X163355D01*
X164354Y292889D01*
X158356Y291889D02*
X156357D01*
X157357D01*
Y297887D01*
X158356Y296888D01*
X153358D02*
X152358Y297887D01*
X150359D01*
X149359Y296888D01*
Y295888D01*
X150359Y294888D01*
X151358D01*
X150359D01*
X149359Y293889D01*
Y292889D01*
X150359Y291889D01*
X152358D01*
X153358Y292889D01*
X146360Y290890D02*
X145361Y291889D01*
Y292889D01*
X146360D01*
Y291889D01*
X145361D01*
X146360Y290890D01*
X147360Y289890D01*
X141362Y291889D02*
X139362D01*
X140362D01*
Y297887D01*
X141362Y296888D01*
X136363Y297887D02*
X132365D01*
Y296888D01*
X136363Y292889D01*
Y291889D01*
X160356Y278692D02*
X162355D01*
X161355D01*
Y273694D01*
X162355Y272694D01*
X163355D01*
X164354Y273694D01*
X154358Y272694D02*
X158356D01*
X154358Y276693D01*
Y277693D01*
X155357Y278692D01*
X157357D01*
X158356Y277693D01*
X152358Y272694D02*
X150359D01*
X151358D01*
Y278692D01*
X152358Y277693D01*
X146360Y271694D02*
X145361Y272694D01*
Y273694D01*
X146360D01*
Y272694D01*
X145361D01*
X146360Y271694D01*
X147360Y270695D01*
X137363Y272694D02*
X141362D01*
X137363Y276693D01*
Y277693D01*
X138363Y278692D01*
X140362D01*
X141362Y277693D01*
X135364D02*
X134364Y278692D01*
X132365D01*
X131365Y277693D01*
Y276693D01*
X132365Y275693D01*
X133364D01*
X132365D01*
X131365Y274693D01*
Y273694D01*
X132365Y272694D01*
X134364D01*
X135364Y273694D01*
X128366Y271694D02*
X127366Y272694D01*
Y273694D01*
X128366D01*
Y272694D01*
X127366D01*
X128366Y271694D01*
X129366Y270695D01*
X160356Y269094D02*
X162355D01*
X161355D01*
Y264096D01*
X162355Y263096D01*
X163355D01*
X164354Y264096D01*
X154358Y269094D02*
X156357Y268095D01*
X158356Y266095D01*
Y264096D01*
X157357Y263096D01*
X155357D01*
X154358Y264096D01*
Y265096D01*
X155357Y266095D01*
X158356D01*
X151358Y262097D02*
X150359Y263096D01*
Y264096D01*
X151358D01*
Y263096D01*
X150359D01*
X151358Y262097D01*
X152358Y261097D01*
X142361Y269094D02*
X144361D01*
X143361D01*
Y264096D01*
X144361Y263096D01*
X145361D01*
X146360Y264096D01*
X140362Y263096D02*
X138363D01*
X139362D01*
Y269094D01*
X140362Y268095D01*
X131365Y269094D02*
X133364Y268095D01*
X135364Y266095D01*
Y264096D01*
X134364Y263096D01*
X132365D01*
X131365Y264096D01*
Y265096D01*
X132365Y266095D01*
X135364D01*
X128366Y262097D02*
X127366Y263096D01*
Y264096D01*
X128366D01*
Y263096D01*
X127366D01*
X128366Y262097D01*
X129366Y261097D01*
X160356Y259497D02*
X162355D01*
X161355D01*
Y254498D01*
X162355Y253499D01*
X163355D01*
X164354Y254498D01*
X158356Y253499D02*
X156357D01*
X157357D01*
Y259497D01*
X158356Y258497D01*
X153358D02*
X152358Y259497D01*
X150359D01*
X149359Y258497D01*
Y254498D01*
X150359Y253499D01*
X152358D01*
X153358Y254498D01*
Y258497D01*
X146360Y252499D02*
X145361Y253499D01*
Y254498D01*
X146360D01*
Y253499D01*
X145361D01*
X146360Y252499D01*
X147360Y251499D01*
X141362Y258497D02*
X140362Y259497D01*
X138363D01*
X137363Y258497D01*
Y257498D01*
X138363Y256498D01*
X139362D01*
X138363D01*
X137363Y255498D01*
Y254498D01*
X138363Y253499D01*
X140362D01*
X141362Y254498D01*
X134364Y252499D02*
X133364Y253499D01*
Y254498D01*
X134364D01*
Y253499D01*
X133364D01*
X134364Y252499D01*
X135364Y251499D01*
X160356Y249899D02*
X162355D01*
X161355D01*
Y244901D01*
X162355Y243901D01*
X163355D01*
X164354Y244901D01*
X154358Y243901D02*
X158356D01*
X154358Y247900D01*
Y248900D01*
X155357Y249899D01*
X157357D01*
X158356Y248900D01*
X148360Y249899D02*
X152358D01*
Y246900D01*
X150359Y247900D01*
X149359D01*
X148360Y246900D01*
Y244901D01*
X149359Y243901D01*
X151358D01*
X152358Y244901D01*
X145361Y242901D02*
X144361Y243901D01*
Y244901D01*
X145361D01*
Y243901D01*
X144361D01*
X145361Y242901D01*
X146360Y241902D01*
X140362Y243901D02*
X138363D01*
X139362D01*
Y249899D01*
X140362Y248900D01*
X135364D02*
X134364Y249899D01*
X132365D01*
X131365Y248900D01*
Y247900D01*
X132365Y246900D01*
X131365Y245900D01*
Y244901D01*
X132365Y243901D01*
X134364D01*
X135364Y244901D01*
Y245900D01*
X134364Y246900D01*
X135364Y247900D01*
Y248900D01*
X134364Y246900D02*
X132365D01*
X160356Y230704D02*
X162355D01*
X161355D01*
Y225705D01*
X162355Y224706D01*
X163355D01*
X164354Y225705D01*
X154358Y224706D02*
X158356D01*
X154358Y228705D01*
Y229704D01*
X155357Y230704D01*
X157357D01*
X158356Y229704D01*
X148360Y224706D02*
X152358D01*
X148360Y228705D01*
Y229704D01*
X149359Y230704D01*
X151358D01*
X152358Y229704D01*
X145361Y223706D02*
X144361Y224706D01*
Y225705D01*
X145361D01*
Y224706D01*
X144361D01*
X145361Y223706D01*
X146360Y222706D01*
X136363Y224706D02*
X140362D01*
X136363Y228705D01*
Y229704D01*
X137363Y230704D01*
X139362D01*
X140362Y229704D01*
X131365Y224706D02*
Y230704D01*
X134364Y227705D01*
X130365D01*
X160356Y221106D02*
X162355D01*
X161355D01*
Y216108D01*
X162355Y215108D01*
X163355D01*
X164354Y216108D01*
X154358Y221106D02*
X158356D01*
Y218107D01*
X156357Y219107D01*
X155357D01*
X154358Y218107D01*
Y216108D01*
X155357Y215108D01*
X157357D01*
X158356Y216108D01*
X151358Y214108D02*
X150359Y215108D01*
Y216108D01*
X151358D01*
Y215108D01*
X150359D01*
X151358Y214108D01*
X152358Y213109D01*
X143361Y215108D02*
Y221106D01*
X146360Y218107D01*
X142361D01*
X139362Y214108D02*
X138363Y215108D01*
Y216108D01*
X139362D01*
Y215108D01*
X138363D01*
X139362Y214108D01*
X140362Y213109D01*
X160356Y211508D02*
X162355D01*
X161355D01*
Y206510D01*
X162355Y205510D01*
X163355D01*
X164354Y206510D01*
X158356Y211508D02*
X154358D01*
Y210509D01*
X158356Y206510D01*
Y205510D01*
X151358Y204511D02*
X150359Y205510D01*
Y206510D01*
X151358D01*
Y205510D01*
X150359D01*
X151358Y204511D01*
X152358Y203511D01*
X142361Y205510D02*
X146360D01*
X142361Y209509D01*
Y210509D01*
X143361Y211508D01*
X145361D01*
X146360Y210509D01*
X139362Y204511D02*
X138363Y205510D01*
Y206510D01*
X139362D01*
Y205510D01*
X138363D01*
X139362Y204511D01*
X140362Y203511D01*
X160356Y201911D02*
X162355D01*
X161355D01*
Y196912D01*
X162355Y195913D01*
X163355D01*
X164354Y196912D01*
X158356Y195913D02*
X156357D01*
X157357D01*
Y201911D01*
X158356Y200911D01*
X152358Y194913D02*
X151358Y195913D01*
Y196912D01*
X152358D01*
Y195913D01*
X151358D01*
X152358Y194913D01*
X153358Y193913D01*
X143361Y195913D02*
X147360D01*
X143361Y199911D01*
Y200911D01*
X144361Y201911D01*
X146360D01*
X147360Y200911D01*
X137363Y201911D02*
X139362Y200911D01*
X141362Y198912D01*
Y196912D01*
X140362Y195913D01*
X138363D01*
X137363Y196912D01*
Y197912D01*
X138363Y198912D01*
X141362D01*
X534433Y357473D02*
Y351475D01*
X530434D01*
X525436D02*
X527435D01*
X528435Y352474D01*
Y354474D01*
X527435Y355473D01*
X525436D01*
X524436Y354474D01*
Y353474D01*
X528435D01*
X521437Y351475D02*
Y356473D01*
Y354474D01*
X522437D01*
X520438D01*
X521437D01*
Y356473D01*
X520438Y357473D01*
X516439Y356473D02*
Y355473D01*
X517439D01*
X515439D01*
X516439D01*
Y352474D01*
X515439Y351475D01*
X505442Y356473D02*
Y355473D01*
X506442D01*
X504443D01*
X505442D01*
Y352474D01*
X504443Y351475D01*
X500444D02*
X498445D01*
X497445Y352474D01*
Y354474D01*
X498445Y355473D01*
X500444D01*
X501444Y354474D01*
Y352474D01*
X500444Y351475D01*
X534433Y345876D02*
Y341877D01*
Y343877D01*
X533433Y344876D01*
X532434Y345876D01*
X531434D01*
X528435Y341877D02*
X526436D01*
X527435D01*
Y345876D01*
X528435D01*
X521437Y339878D02*
X520438D01*
X519438Y340878D01*
Y345876D01*
X522437D01*
X523437Y344876D01*
Y342877D01*
X522437Y341877D01*
X519438D01*
X517439Y347875D02*
Y341877D01*
Y344876D01*
X516439Y345876D01*
X514439D01*
X513440Y344876D01*
Y341877D01*
X510441Y346876D02*
Y345876D01*
X511441D01*
X509441D01*
X510441D01*
Y342877D01*
X509441Y341877D01*
X506442Y345876D02*
X505442D01*
Y344876D01*
X506442D01*
Y345876D01*
Y342877D02*
X505442D01*
Y341877D01*
X506442D01*
Y342877D01*
X530434Y326680D02*
X532434D01*
X531434D01*
Y321682D01*
X532434Y320683D01*
X533433D01*
X534433Y321682D01*
X524436Y320683D02*
X528435D01*
X524436Y324681D01*
Y325681D01*
X525436Y326680D01*
X527435D01*
X528435Y325681D01*
X522437D02*
X521437Y326680D01*
X519438D01*
X518438Y325681D01*
Y321682D01*
X519438Y320683D01*
X521437D01*
X522437Y321682D01*
Y325681D01*
X515439Y319683D02*
X514439Y320683D01*
Y321682D01*
X515439D01*
Y320683D01*
X514439D01*
X515439Y319683D01*
X516439Y318683D01*
X510441Y320683D02*
X508441D01*
X509441D01*
Y326680D01*
X510441Y325681D01*
X505442Y321682D02*
X504443Y320683D01*
X502443D01*
X501444Y321682D01*
Y325681D01*
X502443Y326680D01*
X504443D01*
X505442Y325681D01*
Y324681D01*
X504443Y323681D01*
X501444D01*
X498445Y319683D02*
X497445Y320683D01*
Y321682D01*
X498445D01*
Y320683D01*
X497445D01*
X498445Y319683D01*
X499444Y318683D01*
X530434Y317083D02*
X532434D01*
X531434D01*
Y312085D01*
X532434Y311085D01*
X533433D01*
X534433Y312085D01*
X528435Y311085D02*
X526436D01*
X527435D01*
Y317083D01*
X528435Y316083D01*
X520438Y311085D02*
Y317083D01*
X523437Y314084D01*
X519438D01*
X516439Y310085D02*
X515439Y311085D01*
Y312085D01*
X516439D01*
Y311085D01*
X515439D01*
X516439Y310085D01*
X517439Y309085D01*
X511441Y311085D02*
X509441D01*
X510441D01*
Y317083D01*
X511441Y316083D01*
X502443Y317083D02*
X506442D01*
Y314084D01*
X504443Y315084D01*
X503443D01*
X502443Y314084D01*
Y312085D01*
X503443Y311085D01*
X505442D01*
X506442Y312085D01*
X499444Y310085D02*
X498445Y311085D01*
Y312085D01*
X499444D01*
Y311085D01*
X498445D01*
X499444Y310085D01*
X500444Y309085D01*
X530434Y307485D02*
X532434D01*
X531434D01*
Y302487D01*
X532434Y301487D01*
X533433D01*
X534433Y302487D01*
X528435Y301487D02*
X526436D01*
X527435D01*
Y307485D01*
X528435Y306486D01*
X523437Y301487D02*
X521437D01*
X522437D01*
Y307485D01*
X523437Y306486D01*
X517439Y300487D02*
X516439Y301487D01*
Y302487D01*
X517439D01*
Y301487D01*
X516439D01*
X517439Y300487D01*
X518438Y299488D01*
X512440Y301487D02*
X510441D01*
X511441D01*
Y307485D01*
X512440Y306486D01*
X503443Y301487D02*
X507442D01*
X503443Y305486D01*
Y306486D01*
X504443Y307485D01*
X506442D01*
X507442Y306486D01*
X500444Y300487D02*
X499444Y301487D01*
Y302487D01*
X500444D01*
Y301487D01*
X499444D01*
X500444Y300487D01*
X501444Y299488D01*
X530434Y297887D02*
X532434D01*
X531434D01*
Y292889D01*
X532434Y291889D01*
X533433D01*
X534433Y292889D01*
X528435Y291889D02*
X526436D01*
X527435D01*
Y297887D01*
X528435Y296888D01*
X523437D02*
X522437Y297887D01*
X520438D01*
X519438Y296888D01*
Y295888D01*
X520438Y294888D01*
X521437D01*
X520438D01*
X519438Y293889D01*
Y292889D01*
X520438Y291889D01*
X522437D01*
X523437Y292889D01*
X516439Y290890D02*
X515439Y291889D01*
Y292889D01*
X516439D01*
Y291889D01*
X515439D01*
X516439Y290890D01*
X517439Y289890D01*
X511441Y291889D02*
X509441D01*
X510441D01*
Y297887D01*
X511441Y296888D01*
X506442Y297887D02*
X502443D01*
Y296888D01*
X506442Y292889D01*
Y291889D01*
X530434Y278692D02*
X532434D01*
X531434D01*
Y273694D01*
X532434Y272694D01*
X533433D01*
X534433Y273694D01*
X524436Y272694D02*
X528435D01*
X524436Y276693D01*
Y277693D01*
X525436Y278692D01*
X527435D01*
X528435Y277693D01*
X522437Y272694D02*
X520438D01*
X521437D01*
Y278692D01*
X522437Y277693D01*
X516439Y271694D02*
X515439Y272694D01*
Y273694D01*
X516439D01*
Y272694D01*
X515439D01*
X516439Y271694D01*
X517439Y270695D01*
X507442Y272694D02*
X511441D01*
X507442Y276693D01*
Y277693D01*
X508441Y278692D01*
X510441D01*
X511441Y277693D01*
X505442D02*
X504443Y278692D01*
X502443D01*
X501444Y277693D01*
Y276693D01*
X502443Y275693D01*
X503443D01*
X502443D01*
X501444Y274693D01*
Y273694D01*
X502443Y272694D01*
X504443D01*
X505442Y273694D01*
X498445Y271694D02*
X497445Y272694D01*
Y273694D01*
X498445D01*
Y272694D01*
X497445D01*
X498445Y271694D01*
X499444Y270695D01*
X530434Y269094D02*
X532434D01*
X531434D01*
Y264096D01*
X532434Y263096D01*
X533433D01*
X534433Y264096D01*
X524436Y269094D02*
X526436Y268095D01*
X528435Y266095D01*
Y264096D01*
X527435Y263096D01*
X525436D01*
X524436Y264096D01*
Y265096D01*
X525436Y266095D01*
X528435D01*
X521437Y262097D02*
X520438Y263096D01*
Y264096D01*
X521437D01*
Y263096D01*
X520438D01*
X521437Y262097D01*
X522437Y261097D01*
X512440Y269094D02*
X514439D01*
X513440D01*
Y264096D01*
X514439Y263096D01*
X515439D01*
X516439Y264096D01*
X510441Y263096D02*
X508441D01*
X509441D01*
Y269094D01*
X510441Y268095D01*
X501444Y269094D02*
X503443Y268095D01*
X505442Y266095D01*
Y264096D01*
X504443Y263096D01*
X502443D01*
X501444Y264096D01*
Y265096D01*
X502443Y266095D01*
X505442D01*
X498445Y262097D02*
X497445Y263096D01*
Y264096D01*
X498445D01*
Y263096D01*
X497445D01*
X498445Y262097D01*
X499444Y261097D01*
X530434Y259497D02*
X532434D01*
X531434D01*
Y254498D01*
X532434Y253499D01*
X533433D01*
X534433Y254498D01*
X528435Y253499D02*
X526436D01*
X527435D01*
Y259497D01*
X528435Y258497D01*
X523437D02*
X522437Y259497D01*
X520438D01*
X519438Y258497D01*
Y254498D01*
X520438Y253499D01*
X522437D01*
X523437Y254498D01*
Y258497D01*
X516439Y252499D02*
X515439Y253499D01*
Y254498D01*
X516439D01*
Y253499D01*
X515439D01*
X516439Y252499D01*
X517439Y251499D01*
X511441Y258497D02*
X510441Y259497D01*
X508441D01*
X507442Y258497D01*
Y257498D01*
X508441Y256498D01*
X509441D01*
X508441D01*
X507442Y255498D01*
Y254498D01*
X508441Y253499D01*
X510441D01*
X511441Y254498D01*
X504443Y252499D02*
X503443Y253499D01*
Y254498D01*
X504443D01*
Y253499D01*
X503443D01*
X504443Y252499D01*
X505442Y251499D01*
X530434Y249899D02*
X532434D01*
X531434D01*
Y244901D01*
X532434Y243901D01*
X533433D01*
X534433Y244901D01*
X524436Y243901D02*
X528435D01*
X524436Y247900D01*
Y248900D01*
X525436Y249899D01*
X527435D01*
X528435Y248900D01*
X518438Y249899D02*
X522437D01*
Y246900D01*
X520438Y247900D01*
X519438D01*
X518438Y246900D01*
Y244901D01*
X519438Y243901D01*
X521437D01*
X522437Y244901D01*
X515439Y242901D02*
X514439Y243901D01*
Y244901D01*
X515439D01*
Y243901D01*
X514439D01*
X515439Y242901D01*
X516439Y241902D01*
X510441Y243901D02*
X508441D01*
X509441D01*
Y249899D01*
X510441Y248900D01*
X505442D02*
X504443Y249899D01*
X502443D01*
X501444Y248900D01*
Y247900D01*
X502443Y246900D01*
X501444Y245900D01*
Y244901D01*
X502443Y243901D01*
X504443D01*
X505442Y244901D01*
Y245900D01*
X504443Y246900D01*
X505442Y247900D01*
Y248900D01*
X504443Y246900D02*
X502443D01*
X530434Y230704D02*
X532434D01*
X531434D01*
Y225705D01*
X532434Y224706D01*
X533433D01*
X534433Y225705D01*
X524436Y224706D02*
X528435D01*
X524436Y228705D01*
Y229704D01*
X525436Y230704D01*
X527435D01*
X528435Y229704D01*
X518438Y224706D02*
X522437D01*
X518438Y228705D01*
Y229704D01*
X519438Y230704D01*
X521437D01*
X522437Y229704D01*
X515439Y223706D02*
X514439Y224706D01*
Y225705D01*
X515439D01*
Y224706D01*
X514439D01*
X515439Y223706D01*
X516439Y222706D01*
X506442Y224706D02*
X510441D01*
X506442Y228705D01*
Y229704D01*
X507442Y230704D01*
X509441D01*
X510441Y229704D01*
X501444Y224706D02*
Y230704D01*
X504443Y227705D01*
X500444D01*
X530434Y221106D02*
X532434D01*
X531434D01*
Y216108D01*
X532434Y215108D01*
X533433D01*
X534433Y216108D01*
X524436Y221106D02*
X528435D01*
Y218107D01*
X526436Y219107D01*
X525436D01*
X524436Y218107D01*
Y216108D01*
X525436Y215108D01*
X527435D01*
X528435Y216108D01*
X521437Y214108D02*
X520438Y215108D01*
Y216108D01*
X521437D01*
Y215108D01*
X520438D01*
X521437Y214108D01*
X522437Y213109D01*
X513440Y215108D02*
Y221106D01*
X516439Y218107D01*
X512440D01*
X509441Y214108D02*
X508441Y215108D01*
Y216108D01*
X509441D01*
Y215108D01*
X508441D01*
X509441Y214108D01*
X510441Y213109D01*
X530434Y211508D02*
X532434D01*
X531434D01*
Y206510D01*
X532434Y205510D01*
X533433D01*
X534433Y206510D01*
X528435Y211508D02*
X524436D01*
Y210509D01*
X528435Y206510D01*
Y205510D01*
X521437Y204511D02*
X520438Y205510D01*
Y206510D01*
X521437D01*
Y205510D01*
X520438D01*
X521437Y204511D01*
X522437Y203511D01*
X512440Y205510D02*
X516439D01*
X512440Y209509D01*
Y210509D01*
X513440Y211508D01*
X515439D01*
X516439Y210509D01*
X509441Y204511D02*
X508441Y205510D01*
Y206510D01*
X509441D01*
Y205510D01*
X508441D01*
X509441Y204511D01*
X510441Y203511D01*
X530434Y201911D02*
X532434D01*
X531434D01*
Y196912D01*
X532434Y195913D01*
X533433D01*
X534433Y196912D01*
X528435Y195913D02*
X526436D01*
X527435D01*
Y201911D01*
X528435Y200911D01*
X522437Y194913D02*
X521437Y195913D01*
Y196912D01*
X522437D01*
Y195913D01*
X521437D01*
X522437Y194913D01*
X523437Y193913D01*
X513440Y195913D02*
X517439D01*
X513440Y199911D01*
Y200911D01*
X514439Y201911D01*
X516439D01*
X517439Y200911D01*
X507442Y201911D02*
X509441Y200911D01*
X511441Y198912D01*
Y196912D01*
X510441Y195913D01*
X508441D01*
X507442Y196912D01*
Y197912D01*
X508441Y198912D01*
X511441D01*
X522622Y171801D02*
Y177799D01*
X519623D01*
X518623Y176799D01*
Y174800D01*
X519623Y173800D01*
X522622D01*
X515624Y171801D02*
X513625D01*
X512625Y172801D01*
Y174800D01*
X513625Y175800D01*
X515624D01*
X516624Y174800D01*
Y172801D01*
X515624Y171801D01*
X510626Y169802D02*
Y175800D01*
X507627D01*
X506627Y174800D01*
Y172801D01*
X507627Y171801D01*
X510626D01*
X504628Y175800D02*
Y172801D01*
X503628Y171801D01*
X500629D01*
Y175800D01*
X498630Y171801D02*
X496630D01*
X497630D01*
Y177799D01*
X498630D01*
X492632Y175800D02*
X490632D01*
X489633Y174800D01*
Y171801D01*
X492632D01*
X493631Y172801D01*
X492632Y173800D01*
X489633D01*
X486634Y176799D02*
Y175800D01*
X487633D01*
X485634D01*
X486634D01*
Y172801D01*
X485634Y171801D01*
X479636D02*
X481635D01*
X482635Y172801D01*
Y174800D01*
X481635Y175800D01*
X479636D01*
X478636Y174800D01*
Y173800D01*
X482635D01*
X522622Y160204D02*
Y166202D01*
X519623D01*
X518623Y165202D01*
Y163203D01*
X519623Y162203D01*
X522622D01*
X520623D02*
X518623Y160204D01*
X513625D02*
X515624D01*
X516624Y161204D01*
Y163203D01*
X515624Y164203D01*
X513625D01*
X512625Y163203D01*
Y162203D01*
X516624D01*
X506627Y164203D02*
X509626D01*
X510626Y163203D01*
Y161204D01*
X509626Y160204D01*
X506627D01*
X501629D02*
X503628D01*
X504628Y161204D01*
Y163203D01*
X503628Y164203D01*
X501629D01*
X500629Y163203D01*
Y162203D01*
X504628D01*
X498630Y160204D02*
X496630D01*
X497630D01*
Y164203D01*
X498630D01*
X493631D02*
X491632Y160204D01*
X489633Y164203D01*
X484634Y160204D02*
X486634D01*
X487633Y161204D01*
Y163203D01*
X486634Y164203D01*
X484634D01*
X483635Y163203D01*
Y162203D01*
X487633D01*
X481635Y164203D02*
Y160204D01*
Y162203D01*
X480636Y163203D01*
X479636Y164203D01*
X478636D01*
X475637Y160204D02*
X472638D01*
X471638Y161204D01*
X472638Y162203D01*
X474638D01*
X475637Y163203D01*
X474638Y164203D01*
X471638D01*
X522622Y156604D02*
Y150606D01*
Y153605D01*
X518623D01*
Y156604D01*
Y150606D01*
X513625D02*
X515624D01*
X516624Y151606D01*
Y153605D01*
X515624Y154605D01*
X513625D01*
X512625Y153605D01*
Y152606D01*
X516624D01*
X510626Y154605D02*
Y150606D01*
Y152606D01*
X509626Y153605D01*
X508627Y154605D01*
X507627D01*
X501629Y150606D02*
X503628D01*
X504628Y151606D01*
Y153605D01*
X503628Y154605D01*
X501629D01*
X500629Y153605D01*
Y152606D01*
X504628D01*
X176165Y163927D02*
Y169925D01*
X173166D01*
X172167Y168925D01*
Y166926D01*
X173166Y165926D01*
X176165D01*
X169168Y163927D02*
X167168D01*
X166169Y164927D01*
Y166926D01*
X167168Y167926D01*
X169168D01*
X170167Y166926D01*
Y164927D01*
X169168Y163927D01*
X164169Y161928D02*
Y167926D01*
X161170D01*
X160170Y166926D01*
Y164927D01*
X161170Y163927D01*
X164169D01*
X158171Y167926D02*
Y164927D01*
X157171Y163927D01*
X154173D01*
Y167926D01*
X152173Y163927D02*
X150174D01*
X151173D01*
Y169925D01*
X152173D01*
X146175Y167926D02*
X144176D01*
X143176Y166926D01*
Y163927D01*
X146175D01*
X147175Y164927D01*
X146175Y165926D01*
X143176D01*
X140177Y168925D02*
Y167926D01*
X141177D01*
X139177D01*
X140177D01*
Y164927D01*
X139177Y163927D01*
X133179D02*
X135179D01*
X136178Y164927D01*
Y166926D01*
X135179Y167926D01*
X133179D01*
X132180Y166926D01*
Y165926D01*
X136178D01*
X176165Y152330D02*
Y158328D01*
X173166D01*
X172167Y157328D01*
Y155329D01*
X173166Y154329D01*
X176165D01*
X174166D02*
X172167Y152330D01*
X167168D02*
X169168D01*
X170167Y153330D01*
Y155329D01*
X169168Y156329D01*
X167168D01*
X166169Y155329D01*
Y154329D01*
X170167D01*
X160170Y156329D02*
X163170D01*
X164169Y155329D01*
Y153330D01*
X163170Y152330D01*
X160170D01*
X155172D02*
X157171D01*
X158171Y153330D01*
Y155329D01*
X157171Y156329D01*
X155172D01*
X154173Y155329D01*
Y154329D01*
X158171D01*
X152173Y152330D02*
X150174D01*
X151173D01*
Y156329D01*
X152173D01*
X147175D02*
X145175Y152330D01*
X143176Y156329D01*
X138178Y152330D02*
X140177D01*
X141177Y153330D01*
Y155329D01*
X140177Y156329D01*
X138178D01*
X137178Y155329D01*
Y154329D01*
X141177D01*
X135179Y156329D02*
Y152330D01*
Y154329D01*
X134179Y155329D01*
X133179Y156329D01*
X132180D01*
X129181Y152330D02*
X126181D01*
X125182Y153330D01*
X126181Y154329D01*
X128181D01*
X129181Y155329D01*
X128181Y156329D01*
X125182D01*
X176165Y148730D02*
Y142732D01*
Y145731D01*
X172167D01*
Y148730D01*
Y142732D01*
X167168D02*
X169168D01*
X170167Y143732D01*
Y145731D01*
X169168Y146731D01*
X167168D01*
X166169Y145731D01*
Y144732D01*
X170167D01*
X164169Y146731D02*
Y142732D01*
Y144732D01*
X163170Y145731D01*
X162170Y146731D01*
X161170D01*
X155172Y142732D02*
X157171D01*
X158171Y143732D01*
Y145731D01*
X157171Y146731D01*
X155172D01*
X154173Y145731D01*
Y144732D01*
X158171D01*
X483190Y152667D02*
X485190D01*
X484190D01*
Y147669D01*
X485190Y146669D01*
X486189D01*
X487189Y147669D01*
X477192Y146669D02*
X481191D01*
X477192Y150668D01*
Y151668D01*
X478192Y152667D01*
X480191D01*
X481191Y151668D01*
X471194Y146669D02*
X475193D01*
X471194Y150668D01*
Y151668D01*
X472194Y152667D01*
X474193D01*
X475193Y151668D01*
X424135Y152667D02*
X426134D01*
X425135D01*
Y147669D01*
X426134Y146669D01*
X427134D01*
X428134Y147669D01*
X418137Y146669D02*
X422136D01*
X418137Y150668D01*
Y151668D01*
X419137Y152667D01*
X421136D01*
X422136Y151668D01*
X416138D02*
X415138Y152667D01*
X413139D01*
X412139Y151668D01*
Y150668D01*
X413139Y149668D01*
X414138D01*
X413139D01*
X412139Y148669D01*
Y147669D01*
X413139Y146669D01*
X415138D01*
X416138Y147669D01*
X365080Y152667D02*
X367079D01*
X366080D01*
Y147669D01*
X367079Y146669D01*
X368079D01*
X369079Y147669D01*
X359082Y146669D02*
X363081D01*
X359082Y150668D01*
Y151668D01*
X360082Y152667D01*
X362081D01*
X363081Y151668D01*
X354084Y146669D02*
Y152667D01*
X357083Y149668D01*
X353084D01*
X306025Y152667D02*
X308024D01*
X307025D01*
Y147669D01*
X308024Y146669D01*
X309024D01*
X310024Y147669D01*
X300027Y146669D02*
X304026D01*
X300027Y150668D01*
Y151668D01*
X301027Y152667D01*
X303026D01*
X304026Y151668D01*
X294029Y152667D02*
X298027D01*
Y149668D01*
X296028Y150668D01*
X295028D01*
X294029Y149668D01*
Y147669D01*
X295028Y146669D01*
X297028D01*
X298027Y147669D01*
X246970Y152667D02*
X248969D01*
X247970D01*
Y147669D01*
X248969Y146669D01*
X249969D01*
X250969Y147669D01*
X240972Y146669D02*
X244970D01*
X240972Y150668D01*
Y151668D01*
X241971Y152667D01*
X243971D01*
X244970Y151668D01*
X234974Y152667D02*
X236973Y151668D01*
X238972Y149668D01*
Y147669D01*
X237973Y146669D01*
X235973D01*
X234974Y147669D01*
Y148669D01*
X235973Y149668D01*
X238972D01*
X483190Y381014D02*
X485190D01*
X484190D01*
Y376015D01*
X485190Y375016D01*
X486189D01*
X487189Y376015D01*
X477192Y375016D02*
X481191D01*
X477192Y379014D01*
Y380014D01*
X478192Y381014D01*
X480191D01*
X481191Y380014D01*
X475193Y375016D02*
X473194D01*
X474193D01*
Y381014D01*
X475193Y380014D01*
X424135Y381014D02*
X426134D01*
X425135D01*
Y376015D01*
X426134Y375016D01*
X427134D01*
X428134Y376015D01*
X418137Y375016D02*
X422136D01*
X418137Y379014D01*
Y380014D01*
X419137Y381014D01*
X421136D01*
X422136Y380014D01*
X416138D02*
X415138Y381014D01*
X413139D01*
X412139Y380014D01*
Y376015D01*
X413139Y375016D01*
X415138D01*
X416138Y376015D01*
Y380014D01*
X365080Y381014D02*
X367079D01*
X366080D01*
Y376015D01*
X367079Y375016D01*
X368079D01*
X369079Y376015D01*
X363081Y375016D02*
X361081D01*
X362081D01*
Y381014D01*
X363081Y380014D01*
X358082Y376015D02*
X357083Y375016D01*
X355083D01*
X354084Y376015D01*
Y380014D01*
X355083Y381014D01*
X357083D01*
X358082Y380014D01*
Y379014D01*
X357083Y378015D01*
X354084D01*
X306025Y381014D02*
X308024D01*
X307025D01*
Y376015D01*
X308024Y375016D01*
X309024D01*
X310024Y376015D01*
X304026Y375016D02*
X302026D01*
X303026D01*
Y381014D01*
X304026Y380014D01*
X299027D02*
X298027Y381014D01*
X296028D01*
X295028Y380014D01*
Y379014D01*
X296028Y378015D01*
X295028Y377015D01*
Y376015D01*
X296028Y375016D01*
X298027D01*
X299027Y376015D01*
Y377015D01*
X298027Y378015D01*
X299027Y379014D01*
Y380014D01*
X298027Y378015D02*
X296028D01*
X246970Y381014D02*
X248969D01*
X247970D01*
Y376015D01*
X248969Y375016D01*
X249969D01*
X250969Y376015D01*
X244970Y375016D02*
X242971D01*
X243971D01*
Y381014D01*
X244970Y380014D01*
X239972Y381014D02*
X235973D01*
Y380014D01*
X239972Y376015D01*
Y375016D01*
D33*
X199335Y322835D02*
X198984Y323799D01*
X198095Y324312D01*
X197085Y324134D01*
X196425Y323348D01*
Y322322D01*
X197085Y321536D01*
X198095Y321357D01*
X198984Y321870D01*
X199335Y322835D01*
X238705D02*
X238354Y323799D01*
X237465Y324312D01*
X236455Y324134D01*
X235795Y323348D01*
Y322322D01*
X236455Y321536D01*
X237465Y321357D01*
X238354Y321870D01*
X238705Y322835D01*
X199335D02*
X198984Y323799D01*
X198095Y324312D01*
X197085Y324134D01*
X196425Y323348D01*
Y322322D01*
X197085Y321536D01*
X198095Y321357D01*
X198984Y321870D01*
X199335Y322835D01*
X238705D02*
X238354Y323799D01*
X237465Y324312D01*
X236455Y324134D01*
X235795Y323348D01*
Y322322D01*
X236455Y321536D01*
X237465Y321357D01*
X238354Y321870D01*
X238705Y322835D01*
X278075D02*
X277724Y323799D01*
X276835Y324312D01*
X275825Y324134D01*
X275165Y323348D01*
Y322322D01*
X275825Y321536D01*
X276835Y321357D01*
X277724Y321870D01*
X278075Y322835D01*
X317445D02*
X317094Y323799D01*
X316205Y324312D01*
X315195Y324134D01*
X314535Y323348D01*
Y322322D01*
X315195Y321536D01*
X316205Y321357D01*
X317094Y321870D01*
X317445Y322835D01*
X356815D02*
X356464Y323799D01*
X355575Y324312D01*
X354565Y324134D01*
X353905Y323348D01*
Y322322D01*
X354565Y321536D01*
X355575Y321357D01*
X356464Y321870D01*
X356815Y322835D01*
X396185D02*
X395834Y323799D01*
X394946Y324312D01*
X393935Y324134D01*
X393275Y323348D01*
Y322322D01*
X393935Y321536D01*
X394946Y321357D01*
X395834Y321870D01*
X396185Y322835D01*
X435555D02*
X435204Y323799D01*
X434316Y324312D01*
X433305Y324134D01*
X432646Y323348D01*
Y322322D01*
X433305Y321536D01*
X434316Y321357D01*
X435204Y321870D01*
X435555Y322835D01*
X474925D02*
X474574Y323799D01*
X473686Y324312D01*
X472675Y324134D01*
X472016Y323348D01*
Y322322D01*
X472675Y321536D01*
X473686Y321357D01*
X474574Y321870D01*
X474925Y322835D01*
X435555Y192913D02*
X435204Y193878D01*
X434316Y194391D01*
X433305Y194212D01*
X432646Y193426D01*
Y192400D01*
X433305Y191614D01*
X434316Y191436D01*
X435204Y191949D01*
X435555Y192913D01*
X435204Y193878D01*
X434316Y194391D01*
X433305Y194212D01*
X432646Y193426D01*
Y192400D01*
X433305Y191614D01*
X434316Y191436D01*
X435204Y191949D01*
X435555Y192913D01*
X474925D02*
X474574Y193878D01*
X473686Y194391D01*
X472675Y194212D01*
X472016Y193426D01*
Y192400D01*
X472675Y191614D01*
X473686Y191436D01*
X474574Y191949D01*
X474925Y192913D01*
X474574Y193878D01*
X473686Y194391D01*
X472675Y194212D01*
X472016Y193426D01*
Y192400D01*
X472675Y191614D01*
X473686Y191436D01*
X474574Y191949D01*
X474925Y192913D01*
X396185Y322835D02*
X395834Y323799D01*
X394946Y324312D01*
X393935Y324134D01*
X393275Y323348D01*
Y322322D01*
X393935Y321536D01*
X394946Y321357D01*
X395834Y321870D01*
X396185Y322835D01*
X356815D02*
X356464Y323799D01*
X355575Y324312D01*
X354565Y324134D01*
X353905Y323348D01*
Y322322D01*
X354565Y321536D01*
X355575Y321357D01*
X356464Y321870D01*
X356815Y322835D01*
X474925D02*
X474574Y323799D01*
X473686Y324312D01*
X472675Y324134D01*
X472016Y323348D01*
Y322322D01*
X472675Y321536D01*
X473686Y321357D01*
X474574Y321870D01*
X474925Y322835D01*
X435555D02*
X435204Y323799D01*
X434316Y324312D01*
X433305Y324134D01*
X432646Y323348D01*
Y322322D01*
X433305Y321536D01*
X434316Y321357D01*
X435204Y321870D01*
X435555Y322835D01*
X319821Y192202D02*
X319470Y193167D01*
X318581Y193680D01*
X317571Y193501D01*
X316911Y192715D01*
Y191689D01*
X317571Y190903D01*
X318581Y190725D01*
X319470Y191238D01*
X319821Y192202D01*
X319470Y193167D01*
X318581Y193680D01*
X317571Y193501D01*
X316911Y192715D01*
Y191689D01*
X317571Y190903D01*
X318581Y190725D01*
X319470Y191238D01*
X319821Y192202D01*
X356815Y192913D02*
X356464Y193878D01*
X355575Y194391D01*
X354565Y194212D01*
X353905Y193426D01*
Y192400D01*
X354565Y191614D01*
X355575Y191436D01*
X356464Y191949D01*
X356815Y192913D01*
X356464Y193878D01*
X355575Y194391D01*
X354565Y194212D01*
X353905Y193426D01*
Y192400D01*
X354565Y191614D01*
X355575Y191436D01*
X356464Y191949D01*
X356815Y192913D01*
X396185D02*
X395834Y193878D01*
X394946Y194391D01*
X393935Y194212D01*
X393275Y193426D01*
Y192400D01*
X393935Y191614D01*
X394946Y191436D01*
X395834Y191949D01*
X396185Y192913D01*
X395834Y193878D01*
X394946Y194391D01*
X393935Y194212D01*
X393275Y193426D01*
Y192400D01*
X393935Y191614D01*
X394946Y191436D01*
X395834Y191949D01*
X396185Y192913D01*
X278075D02*
X277724Y193878D01*
X276835Y194391D01*
X275825Y194212D01*
X275165Y193426D01*
Y192400D01*
X275825Y191614D01*
X276835Y191436D01*
X277724Y191949D01*
X278075Y192913D01*
X277724Y193878D01*
X276835Y194391D01*
X275825Y194212D01*
X275165Y193426D01*
Y192400D01*
X275825Y191614D01*
X276835Y191436D01*
X277724Y191949D01*
X278075Y192913D01*
X238705D02*
X238354Y193878D01*
X237465Y194391D01*
X236455Y194212D01*
X235795Y193426D01*
Y192400D01*
X236455Y191614D01*
X237465Y191436D01*
X238354Y191949D01*
X238705Y192913D01*
X238354Y193878D01*
X237465Y194391D01*
X236455Y194212D01*
X235795Y193426D01*
Y192400D01*
X236455Y191614D01*
X237465Y191436D01*
X238354Y191949D01*
X238705Y192913D01*
X317445Y322835D02*
X317094Y323799D01*
X316205Y324312D01*
X315195Y324134D01*
X314535Y323348D01*
Y322322D01*
X315195Y321536D01*
X316205Y321357D01*
X317094Y321870D01*
X317445Y322835D01*
X278075D02*
X277724Y323799D01*
X276835Y324312D01*
X275825Y324134D01*
X275165Y323348D01*
Y322322D01*
X275825Y321536D01*
X276835Y321357D01*
X277724Y321870D01*
X278075Y322835D01*
X199335Y192913D02*
X198984Y193878D01*
X198095Y194391D01*
X197085Y194212D01*
X196425Y193426D01*
Y192400D01*
X197085Y191614D01*
X198095Y191436D01*
X198984Y191949D01*
X199335Y192913D01*
X198984Y193878D01*
X198095Y194391D01*
X197085Y194212D01*
X196425Y193426D01*
Y192400D01*
X197085Y191614D01*
X198095Y191436D01*
X198984Y191949D01*
X199335Y192913D01*
D34*
X169291Y354331D02*
Y362205D01*
X122047D02*
X169291D01*
X122047Y236221D02*
X169291D01*
X122047Y283465D02*
X169291D01*
X122047Y334646D02*
X169291D01*
X122047Y181102D02*
Y362205D01*
Y181102D02*
X169291D01*
Y354331D01*
X492126Y236221D02*
X539370D01*
X492126Y283465D02*
X539370D01*
X492126Y334646D02*
X539370D01*
Y358268D02*
Y366142D01*
X492126D02*
X539370D01*
X492126Y185039D02*
Y366142D01*
Y185039D02*
X539370D01*
Y358268D01*
D35*
X388602Y269555D02*
X390925D01*
X373064D02*
X374276D01*
X406464Y242255D02*
Y269555D01*
X373064Y242255D02*
X406464D01*
X373064D02*
Y269555D01*
X405251D02*
X406464D01*
X388602Y226248D02*
X390925D01*
X373064D02*
X374276D01*
X406464Y198948D02*
Y226248D01*
X373064Y198948D02*
X406464D01*
X373064D02*
Y226248D01*
X405251D02*
X406464D01*
X270492Y269555D02*
X272815D01*
X254954D02*
X256166D01*
X288353Y242255D02*
Y269555D01*
X254954Y242255D02*
X288353D01*
X254954D02*
Y269555D01*
X287141D02*
X288353D01*
X270492Y226248D02*
X272815D01*
X254954D02*
X256166D01*
X288353Y198948D02*
Y226248D01*
X254954Y198948D02*
X288353D01*
X254954D02*
Y226248D01*
X287141D02*
X288353D01*
X231122D02*
X233445D01*
X215583D02*
X216796D01*
X248984Y198948D02*
Y226248D01*
X215583Y198948D02*
X248984D01*
X215583D02*
Y226248D01*
X247771D02*
X248984D01*
X309862Y269555D02*
X312185D01*
X294324D02*
X295536D01*
X327724Y242255D02*
Y269555D01*
X294324Y242255D02*
X327724D01*
X294324D02*
Y269555D01*
X326511D02*
X327724D01*
X309862Y308926D02*
X312185D01*
X294324D02*
X295536D01*
X327724Y281626D02*
Y308926D01*
X294324Y281626D02*
X327724D01*
X294324D02*
Y308926D01*
X326511D02*
X327724D01*
X270492D02*
X272815D01*
X254954D02*
X256166D01*
X288353Y281626D02*
Y308926D01*
X254954Y281626D02*
X288353D01*
X254954D02*
Y308926D01*
X287141D02*
X288353D01*
X231122D02*
X233445D01*
X215583D02*
X216796D01*
X248984Y281626D02*
Y308926D01*
X215583Y281626D02*
X248984D01*
X215583D02*
Y308926D01*
X247771D02*
X248984D01*
X191752Y226248D02*
X194075D01*
X176213D02*
X177426D01*
X209613Y198948D02*
Y226248D01*
X176213Y198948D02*
X209613D01*
X176213D02*
Y226248D01*
X208401D02*
X209613D01*
X231122Y269555D02*
X233445D01*
X215583D02*
X216796D01*
X248984Y242255D02*
Y269555D01*
X215583Y242255D02*
X248984D01*
X215583D02*
Y269555D01*
X247771D02*
X248984D01*
X427973Y226248D02*
X430295D01*
X412434D02*
X413646D01*
X445834Y198948D02*
Y226248D01*
X412434Y198948D02*
X445834D01*
X412434D02*
Y226248D01*
X444621D02*
X445834D01*
X427973Y269555D02*
X430295D01*
X412434D02*
X413646D01*
X445834Y242255D02*
Y269555D01*
X412434Y242255D02*
X445834D01*
X412434D02*
Y269555D01*
X444621D02*
X445834D01*
X467343Y226248D02*
X469665D01*
X451804D02*
X453016D01*
X485204Y198948D02*
Y226248D01*
X451804Y198948D02*
X485204D01*
X451804D02*
Y226248D01*
X483991D02*
X485204D01*
X388602Y308926D02*
X390925D01*
X373064D02*
X374276D01*
X406464Y281626D02*
Y308926D01*
X373064Y281626D02*
X406464D01*
X373064D02*
Y308926D01*
X405251D02*
X406464D01*
X349232D02*
X351555D01*
X333694D02*
X334906D01*
X367094Y281626D02*
Y308926D01*
X333694Y281626D02*
X367094D01*
X333694D02*
Y308926D01*
X365881D02*
X367094D01*
X467343Y269555D02*
X469665D01*
X451804D02*
X453016D01*
X485204Y242255D02*
Y269555D01*
X451804Y242255D02*
X485204D01*
X451804D02*
Y269555D01*
X483991D02*
X485204D01*
X467343Y308926D02*
X469665D01*
X451804D02*
X453016D01*
X485204Y281626D02*
Y308926D01*
X451804Y281626D02*
X485204D01*
X451804D02*
Y308926D01*
X483991D02*
X485204D01*
X427973D02*
X430295D01*
X412434D02*
X413646D01*
X445834Y281626D02*
Y308926D01*
X412434Y281626D02*
X445834D01*
X412434D02*
Y308926D01*
X444621D02*
X445834D01*
X191752Y269555D02*
X194075D01*
X176213D02*
X177426D01*
X209613Y242255D02*
Y269555D01*
X176213Y242255D02*
X209613D01*
X176213D02*
Y269555D01*
X208401D02*
X209613D01*
X191752Y308926D02*
X194075D01*
X176213D02*
X177426D01*
X209613Y281626D02*
Y308926D01*
X176213Y281626D02*
X209613D01*
X176213D02*
Y308926D01*
X208401D02*
X209613D01*
X349232Y269555D02*
X351555D01*
X333694D02*
X334906D01*
X367094Y242255D02*
Y269555D01*
X333694Y242255D02*
X367094D01*
X333694D02*
Y269555D01*
X365881D02*
X367094D01*
X312238Y225537D02*
X314561D01*
X296700D02*
X297912D01*
X330100Y198237D02*
Y225537D01*
X296700Y198237D02*
X330100D01*
X296700D02*
Y225537D01*
X328887D02*
X330100D01*
X365881Y226248D02*
X367094D01*
X333694Y198948D02*
Y226248D01*
Y198948D02*
X367094D01*
Y226248D01*
X333694D02*
X334906D01*
X349232D02*
X351555D01*
M02*
