G04*
G04 #@! TF.GenerationSoftware,Altium Limited,Altium Designer,20.2.6 (244)*
G04*
G04 Layer_Color=32896*
%FSLAX25Y25*%
%MOIN*%
G70*
G04*
G04 #@! TF.SameCoordinates,E8620A35-0D5A-4ADE-AEDE-EDBF8206D9B1*
G04*
G04*
G04 #@! TF.FilePolarity,Positive*
G04*
G01*
G75*
%ADD38C,0.00591*%
D38*
X185215Y291713D02*
Y306713D01*
X169116Y291713D02*
X185215D01*
X169116D02*
Y306713D01*
X185215D01*
X417148D02*
X433246D01*
X417148Y291713D02*
Y306713D01*
Y291713D02*
X433246D01*
Y306713D01*
X444707D02*
X460805D01*
X444707Y291713D02*
Y306713D01*
Y291713D02*
X460805D01*
Y306713D01*
X472266D02*
X488364D01*
X472266Y291713D02*
Y306713D01*
Y291713D02*
X488364D01*
Y306713D01*
X389589Y224035D02*
X405687D01*
X389589Y209035D02*
Y224035D01*
Y209035D02*
X405687D01*
Y224035D01*
X306911D02*
X323010D01*
X306911Y209035D02*
Y224035D01*
Y209035D02*
X323010D01*
Y224035D01*
X362030Y267342D02*
X378128D01*
X362030Y252343D02*
Y267342D01*
Y252343D02*
X378128D01*
Y267342D01*
X362030Y306713D02*
X378128D01*
X362030Y291713D02*
Y306713D01*
Y291713D02*
X378128D01*
Y306713D01*
X389589D02*
X405687D01*
X389589Y291713D02*
Y306713D01*
Y291713D02*
X405687D01*
Y306713D01*
X472266Y209035D02*
X488364D01*
Y224035D01*
X472266D02*
X488364D01*
X472266Y209035D02*
Y224035D01*
X444707Y209035D02*
X460805D01*
Y224035D01*
X444707D02*
X460805D01*
X444707Y209035D02*
Y224035D01*
X417148Y209035D02*
X433246D01*
Y224035D01*
X417148D02*
X433246D01*
X417148Y209035D02*
Y224035D01*
X196675Y209035D02*
X212774D01*
Y224035D01*
X196675D02*
X212774D01*
X196675Y209035D02*
Y224035D01*
X169116Y209035D02*
X185215D01*
Y224035D01*
X169116D02*
X185215D01*
X169116Y209035D02*
Y224035D01*
X251793Y306713D02*
X267892D01*
X251793Y291713D02*
Y306713D01*
Y291713D02*
X267892D01*
Y306713D01*
X362030Y224035D02*
X378128D01*
X362030Y209035D02*
Y224035D01*
Y209035D02*
X378128D01*
Y224035D01*
X334471D02*
X350569D01*
X334471Y209035D02*
Y224035D01*
Y209035D02*
X350569D01*
Y224035D01*
X279352Y306713D02*
X295451D01*
X279352Y291713D02*
Y306713D01*
Y291713D02*
X295451D01*
Y306713D01*
X279352Y267342D02*
X295451D01*
X279352Y252343D02*
Y267342D01*
Y252343D02*
X295451D01*
Y267342D01*
X224234Y224035D02*
X240333D01*
X224234Y209035D02*
Y224035D01*
Y209035D02*
X240333D01*
Y224035D01*
X251793D02*
X267892D01*
X251793Y209035D02*
Y224035D01*
Y209035D02*
X267892D01*
Y224035D01*
X279352D02*
X295451D01*
X279352Y209035D02*
Y224035D01*
Y209035D02*
X295451D01*
Y224035D01*
X240333Y291713D02*
Y306713D01*
X224234Y291713D02*
X240333D01*
X224234D02*
Y306713D01*
X240333D01*
X212774Y291713D02*
Y306713D01*
X196675Y291713D02*
X212774D01*
X196675D02*
Y306713D01*
X212774D01*
M02*
