G04*
G04 #@! TF.GenerationSoftware,Altium Limited,Altium Designer,20.2.6 (244)*
G04*
G04 Layer_Color=16711935*
%FSLAX25Y25*%
%MOIN*%
G70*
G04*
G04 #@! TF.SameCoordinates,8424CAA1-D01E-41BF-9092-1BA52A19D79E*
G04*
G04*
G04 #@! TF.FilePolarity,Negative*
G04*
G01*
G75*
%ADD17C,0.07296*%
%ADD18R,0.07296X0.07296*%
%ADD19R,0.05524X0.05524*%
%ADD20C,0.05524*%
%ADD21C,0.08674*%
%ADD22R,0.04737X0.04737*%
%ADD23C,0.13202*%
%ADD24C,0.10642*%
%ADD36R,0.05500X0.05800*%
%ADD37R,0.04343X0.06902*%
D17*
X186542Y279714D02*
D03*
Y265935D02*
D03*
Y252155D02*
D03*
X171260Y252153D02*
D03*
D18*
X186542Y238376D02*
D03*
D19*
X500000Y202913D02*
D03*
X468504Y216535D02*
D03*
D20*
X500000Y192913D02*
D03*
X468504Y206535D02*
D03*
D21*
X438976Y376142D02*
D03*
X418976Y376673D02*
D03*
X230000D02*
D03*
X250000Y376142D02*
D03*
X486535Y146949D02*
D03*
X466535Y147480D02*
D03*
X182756Y376673D02*
D03*
X202756Y376142D02*
D03*
X183071Y147480D02*
D03*
X203071Y146949D02*
D03*
X250315D02*
D03*
X230315Y147480D02*
D03*
X277559D02*
D03*
X297559Y146949D02*
D03*
X324803Y147480D02*
D03*
X344803Y146949D02*
D03*
X372047Y147480D02*
D03*
X392047Y146949D02*
D03*
X419291Y147480D02*
D03*
X439291Y146949D02*
D03*
X297244Y376142D02*
D03*
X277244Y376673D02*
D03*
X344488Y376142D02*
D03*
X324488Y376673D02*
D03*
X371732D02*
D03*
X391732Y376142D02*
D03*
X466221Y377067D02*
D03*
X486221Y376535D02*
D03*
D22*
X428740Y366142D02*
D03*
X436221D02*
D03*
X421260D02*
D03*
X239764D02*
D03*
X247244D02*
D03*
X232283D02*
D03*
X476772Y157480D02*
D03*
X469291D02*
D03*
X484252D02*
D03*
X200000Y366142D02*
D03*
X192520D02*
D03*
X185039D02*
D03*
X437008Y157480D02*
D03*
X422047D02*
D03*
X389764D02*
D03*
X374803D02*
D03*
X342520D02*
D03*
X327559D02*
D03*
X295276D02*
D03*
X280315D02*
D03*
X248031D02*
D03*
X233071D02*
D03*
X200787D02*
D03*
X185827D02*
D03*
X468504Y366535D02*
D03*
X483465D02*
D03*
X374016Y366142D02*
D03*
X388976D02*
D03*
X326772D02*
D03*
X341732D02*
D03*
X279528D02*
D03*
X294488D02*
D03*
X193307Y157480D02*
D03*
X240551D02*
D03*
X287795D02*
D03*
X335039D02*
D03*
X382283D02*
D03*
X429528D02*
D03*
X287008Y366142D02*
D03*
X334252D02*
D03*
X381496D02*
D03*
X475984Y366535D02*
D03*
D23*
X428740Y346063D02*
D03*
X239764D02*
D03*
X476772Y177559D02*
D03*
X192520Y346063D02*
D03*
X193307Y177559D02*
D03*
X240551D02*
D03*
X287795D02*
D03*
X335039D02*
D03*
X382283D02*
D03*
X429528D02*
D03*
X287008Y346063D02*
D03*
X334252D02*
D03*
X381496D02*
D03*
X475984Y346457D02*
D03*
D24*
X137795Y374016D02*
D03*
Y137795D02*
D03*
X531496D02*
D03*
Y374016D02*
D03*
D36*
X172838Y354331D02*
D03*
X165745D02*
D03*
X496454Y177165D02*
D03*
X503546D02*
D03*
X216145D02*
D03*
X209052D02*
D03*
X216926Y354331D02*
D03*
X224019D02*
D03*
X260233D02*
D03*
X267326D02*
D03*
X307477D02*
D03*
X314570D02*
D03*
X354721D02*
D03*
X361814D02*
D03*
X394091Y322835D02*
D03*
X401184D02*
D03*
X445272D02*
D03*
X452365D02*
D03*
X445272Y177165D02*
D03*
X452365D02*
D03*
X398028D02*
D03*
X405121D02*
D03*
X350784D02*
D03*
X357877D02*
D03*
X303540D02*
D03*
X310633D02*
D03*
X256296D02*
D03*
X263389D02*
D03*
D37*
X164075Y366142D02*
D03*
X174508D02*
D03*
X443602Y334646D02*
D03*
X454035D02*
D03*
X497441Y165354D02*
D03*
X507874D02*
D03*
X217815Y165354D02*
D03*
X207382D02*
D03*
X225689Y366142D02*
D03*
X215256D02*
D03*
X268996D02*
D03*
X258563D02*
D03*
X316240D02*
D03*
X305807D02*
D03*
X363484D02*
D03*
X353051D02*
D03*
X402854Y334646D02*
D03*
X392421D02*
D03*
X443602Y165354D02*
D03*
X454035D02*
D03*
X396358D02*
D03*
X406791D02*
D03*
X349114D02*
D03*
X359547D02*
D03*
X301870D02*
D03*
X312303D02*
D03*
X254626D02*
D03*
X265059D02*
D03*
M02*
