G04*
G04 #@! TF.GenerationSoftware,Altium Limited,Altium Designer,21.1.1 (26)*
G04*
G04 Layer_Color=65535*
%FSLAX25Y25*%
%MOIN*%
G70*
G04*
G04 #@! TF.SameCoordinates,038F9159-EE56-40B6-BC05-E6232A52DDBA*
G04*
G04*
G04 #@! TF.FilePolarity,Positive*
G04*
G01*
G75*
%ADD10C,0.00787*%
D10*
X185215Y293307D02*
Y305118D01*
X169116Y293307D02*
X185215D01*
X169116D02*
Y305118D01*
X185215D01*
X417148D02*
X433246D01*
X417148Y293307D02*
Y305118D01*
Y293307D02*
X433246D01*
Y305118D01*
X444707D02*
X460805D01*
X444707Y293307D02*
Y305118D01*
Y293307D02*
X460805D01*
Y305118D01*
X472266D02*
X488364D01*
X472266Y293307D02*
Y305118D01*
Y293307D02*
X488364D01*
Y305118D01*
X389589Y222441D02*
X405687D01*
X389589Y210630D02*
Y222441D01*
Y210630D02*
X405687D01*
Y222441D01*
X306911D02*
X323010D01*
X306911Y210630D02*
Y222441D01*
Y210630D02*
X323010D01*
Y222441D01*
X362030Y265748D02*
X378128D01*
X362030Y253937D02*
Y265748D01*
Y253937D02*
X378128D01*
Y265748D01*
X362030Y305118D02*
X378128D01*
X362030Y293307D02*
Y305118D01*
Y293307D02*
X378128D01*
Y305118D01*
X389589D02*
X405687D01*
X389589Y293307D02*
Y305118D01*
Y293307D02*
X405687D01*
Y305118D01*
X472266Y210630D02*
X488364D01*
Y222441D01*
X472266D02*
X488364D01*
X472266Y210630D02*
Y222441D01*
X444707Y210630D02*
X460805D01*
Y222441D01*
X444707D02*
X460805D01*
X444707Y210630D02*
Y222441D01*
X417148Y210630D02*
X433246D01*
Y222441D01*
X417148D02*
X433246D01*
X417148Y210630D02*
Y222441D01*
X196675Y210630D02*
X212774D01*
Y222441D01*
X196675D02*
X212774D01*
X196675Y210630D02*
Y222441D01*
X169116Y210630D02*
X185215D01*
Y222441D01*
X169116D02*
X185215D01*
X169116Y210630D02*
Y222441D01*
X251793Y305118D02*
X267892D01*
X251793Y293307D02*
Y305118D01*
Y293307D02*
X267892D01*
Y305118D01*
X362030Y222441D02*
X378128D01*
X362030Y210630D02*
Y222441D01*
Y210630D02*
X378128D01*
Y222441D01*
X334471D02*
X350569D01*
X334471Y210630D02*
Y222441D01*
Y210630D02*
X350569D01*
Y222441D01*
X324646Y323465D02*
X344646D01*
X324646Y243465D02*
X344646D01*
X279352Y305118D02*
X295451D01*
X279352Y293307D02*
Y305118D01*
Y293307D02*
X295451D01*
Y305118D01*
X279352Y265748D02*
X295451D01*
X279352Y253937D02*
Y265748D01*
Y253937D02*
X295451D01*
Y265748D01*
X224234Y222441D02*
X240333D01*
X224234Y210630D02*
Y222441D01*
Y210630D02*
X240333D01*
Y222441D01*
X251793D02*
X267892D01*
X251793Y210630D02*
Y222441D01*
Y210630D02*
X267892D01*
Y222441D01*
X279352D02*
X295451D01*
X279352Y210630D02*
Y222441D01*
Y210630D02*
X295451D01*
Y222441D01*
X240333Y293307D02*
Y305118D01*
X224234Y293307D02*
X240333D01*
X224234D02*
Y305118D01*
X240333D01*
X212774Y293307D02*
Y305118D01*
X196675Y293307D02*
X212774D01*
X196675D02*
Y305118D01*
X212774D01*
M02*
