G04*
G04 #@! TF.GenerationSoftware,Altium Limited,Altium Designer,21.1.1 (26)*
G04*
G04 Layer_Physical_Order=2*
G04 Layer_Color=36540*
%FSLAX25Y25*%
%MOIN*%
G70*
G04*
G04 #@! TF.SameCoordinates,038F9159-EE56-40B6-BC05-E6232A52DDBA*
G04*
G04*
G04 #@! TF.FilePolarity,Positive*
G04*
G01*
G75*
%ADD21R,0.02756X0.02756*%
%ADD23C,0.05000*%
G36*
X547244Y118110D02*
X118110D01*
Y393701D01*
X547244D01*
Y118110D01*
D02*
G37*
%LPC*%
G36*
X228350Y389059D02*
X227436Y388939D01*
X226585Y388587D01*
X225854Y388026D01*
X225293Y387294D01*
X224940Y386443D01*
X224820Y385529D01*
X224940Y384616D01*
X225293Y383764D01*
X225854Y383033D01*
X226585Y382472D01*
X227436Y382119D01*
X228350Y381999D01*
X229264Y382119D01*
X230115Y382472D01*
X230846Y383033D01*
X231407Y383764D01*
X231760Y384616D01*
X231880Y385529D01*
X231760Y386443D01*
X231407Y387294D01*
X230846Y388026D01*
X230115Y388587D01*
X229264Y388939D01*
X228350Y389059D01*
D02*
G37*
G36*
X458976Y381653D02*
X457688Y381483D01*
X456487Y380986D01*
X455455Y380194D01*
X454664Y379163D01*
X454166Y377962D01*
X453997Y376673D01*
X454166Y375384D01*
X454664Y374183D01*
X455455Y373152D01*
X456487Y372361D01*
X457688Y371863D01*
X458976Y371694D01*
X460265Y371863D01*
X461466Y372361D01*
X462498Y373152D01*
X463289Y374183D01*
X463786Y375384D01*
X463956Y376673D01*
X463786Y377962D01*
X463289Y379163D01*
X462498Y380194D01*
X461466Y380986D01*
X460265Y381483D01*
X458976Y381653D01*
D02*
G37*
G36*
X399921D02*
X398632Y381483D01*
X397431Y380986D01*
X396400Y380194D01*
X395609Y379163D01*
X395111Y377962D01*
X394942Y376673D01*
X395111Y375384D01*
X395609Y374183D01*
X396400Y373152D01*
X397431Y372361D01*
X398632Y371863D01*
X399921Y371694D01*
X401210Y371863D01*
X402411Y372361D01*
X403442Y373152D01*
X404234Y374183D01*
X404731Y375384D01*
X404901Y376673D01*
X404731Y377962D01*
X404234Y379163D01*
X403442Y380194D01*
X402411Y380986D01*
X401210Y381483D01*
X399921Y381653D01*
D02*
G37*
G36*
X340866D02*
X339577Y381483D01*
X338376Y380986D01*
X337345Y380194D01*
X336554Y379163D01*
X336056Y377962D01*
X335887Y376673D01*
X336056Y375384D01*
X336554Y374183D01*
X337345Y373152D01*
X338376Y372361D01*
X339577Y371863D01*
X340866Y371694D01*
X342155Y371863D01*
X343356Y372361D01*
X344387Y373152D01*
X345179Y374183D01*
X345676Y375384D01*
X345846Y376673D01*
X345676Y377962D01*
X345179Y379163D01*
X344387Y380194D01*
X343356Y380986D01*
X342155Y381483D01*
X340866Y381653D01*
D02*
G37*
G36*
X281811D02*
X280522Y381483D01*
X279321Y380986D01*
X278290Y380194D01*
X277499Y379163D01*
X277001Y377962D01*
X276831Y376673D01*
X277001Y375384D01*
X277499Y374183D01*
X278290Y373152D01*
X279321Y372361D01*
X280522Y371863D01*
X281811Y371694D01*
X283100Y371863D01*
X284301Y372361D01*
X285332Y373152D01*
X286123Y374183D01*
X286621Y375384D01*
X286791Y376673D01*
X286621Y377962D01*
X286123Y379163D01*
X285332Y380194D01*
X284301Y380986D01*
X283100Y381483D01*
X281811Y381653D01*
D02*
G37*
G36*
X222756D02*
X221467Y381483D01*
X220266Y380986D01*
X219235Y380194D01*
X218443Y379163D01*
X217946Y377962D01*
X217776Y376673D01*
X217946Y375384D01*
X218443Y374183D01*
X219235Y373152D01*
X220266Y372361D01*
X221467Y371863D01*
X222756Y371694D01*
X224045Y371863D01*
X225246Y372361D01*
X226277Y373152D01*
X227068Y374183D01*
X227566Y375384D01*
X227735Y376673D01*
X227566Y377962D01*
X227068Y379163D01*
X226277Y380194D01*
X225246Y380986D01*
X224045Y381483D01*
X222756Y381653D01*
D02*
G37*
G36*
X438976Y381121D02*
X437688Y380952D01*
X436487Y380454D01*
X435455Y379663D01*
X434664Y378631D01*
X434166Y377431D01*
X433997Y376142D01*
X434166Y374853D01*
X434664Y373652D01*
X435455Y372621D01*
X436487Y371829D01*
X437688Y371332D01*
X438976Y371162D01*
X440265Y371332D01*
X441466Y371829D01*
X442497Y372621D01*
X443289Y373652D01*
X443786Y374853D01*
X443956Y376142D01*
X443786Y377431D01*
X443289Y378631D01*
X442497Y379663D01*
X441466Y380454D01*
X440265Y380952D01*
X438976Y381121D01*
D02*
G37*
G36*
X379921D02*
X378632Y380952D01*
X377431Y380454D01*
X376400Y379663D01*
X375609Y378631D01*
X375111Y377431D01*
X374942Y376142D01*
X375111Y374853D01*
X375609Y373652D01*
X376400Y372621D01*
X377431Y371829D01*
X378632Y371332D01*
X379921Y371162D01*
X381210Y371332D01*
X382411Y371829D01*
X383442Y372621D01*
X384234Y373652D01*
X384731Y374853D01*
X384901Y376142D01*
X384731Y377431D01*
X384234Y378631D01*
X383442Y379663D01*
X382411Y380454D01*
X381210Y380952D01*
X379921Y381121D01*
D02*
G37*
G36*
X320866D02*
X319577Y380952D01*
X318376Y380454D01*
X317345Y379663D01*
X316554Y378631D01*
X316056Y377431D01*
X315886Y376142D01*
X316056Y374853D01*
X316554Y373652D01*
X317345Y372621D01*
X318376Y371829D01*
X319577Y371332D01*
X320866Y371162D01*
X322155Y371332D01*
X323356Y371829D01*
X324387Y372621D01*
X325179Y373652D01*
X325676Y374853D01*
X325846Y376142D01*
X325676Y377431D01*
X325179Y378631D01*
X324387Y379663D01*
X323356Y380454D01*
X322155Y380952D01*
X320866Y381121D01*
D02*
G37*
G36*
X261811D02*
X260522Y380952D01*
X259321Y380454D01*
X258290Y379663D01*
X257499Y378631D01*
X257001Y377431D01*
X256831Y376142D01*
X257001Y374853D01*
X257499Y373652D01*
X258290Y372621D01*
X259321Y371829D01*
X260522Y371332D01*
X261811Y371162D01*
X263100Y371332D01*
X264301Y371829D01*
X265332Y372621D01*
X266124Y373652D01*
X266621Y374853D01*
X266791Y376142D01*
X266621Y377431D01*
X266124Y378631D01*
X265332Y379663D01*
X264301Y380454D01*
X263100Y380952D01*
X261811Y381121D01*
D02*
G37*
G36*
X202756D02*
X201467Y380952D01*
X200266Y380454D01*
X199235Y379663D01*
X198443Y378631D01*
X197946Y377431D01*
X197776Y376142D01*
X197946Y374853D01*
X198443Y373652D01*
X199235Y372621D01*
X200266Y371829D01*
X201467Y371332D01*
X202756Y371162D01*
X204045Y371332D01*
X205246Y371829D01*
X206277Y372621D01*
X207068Y373652D01*
X207566Y374853D01*
X207735Y376142D01*
X207566Y377431D01*
X207068Y378631D01*
X206277Y379663D01*
X205246Y380454D01*
X204045Y380952D01*
X202756Y381121D01*
D02*
G37*
G36*
X531496Y379966D02*
X530335Y379851D01*
X529219Y379513D01*
X528191Y378963D01*
X527289Y378223D01*
X526549Y377321D01*
X525999Y376293D01*
X525661Y375177D01*
X525546Y374016D01*
X525661Y372855D01*
X525999Y371739D01*
X526549Y370710D01*
X527289Y369809D01*
X528191Y369069D01*
X529219Y368519D01*
X530335Y368180D01*
X531496Y368066D01*
X532657Y368180D01*
X533773Y368519D01*
X534802Y369069D01*
X535703Y369809D01*
X536443Y370710D01*
X536993Y371739D01*
X537332Y372855D01*
X537446Y374016D01*
X537332Y375177D01*
X536993Y376293D01*
X536443Y377321D01*
X535703Y378223D01*
X534802Y378963D01*
X533773Y379513D01*
X532657Y379851D01*
X531496Y379966D01*
D02*
G37*
G36*
X137795D02*
X136635Y379851D01*
X135518Y379513D01*
X134490Y378963D01*
X133588Y378223D01*
X132848Y377321D01*
X132298Y376293D01*
X131960Y375177D01*
X131845Y374016D01*
X131960Y372855D01*
X132298Y371739D01*
X132848Y370710D01*
X133588Y369809D01*
X134490Y369069D01*
X135518Y368519D01*
X136635Y368180D01*
X137795Y368066D01*
X138956Y368180D01*
X140072Y368519D01*
X141101Y369069D01*
X142002Y369809D01*
X142743Y370710D01*
X143292Y371739D01*
X143631Y372855D01*
X143745Y374016D01*
X143631Y375177D01*
X143292Y376293D01*
X142743Y377321D01*
X142002Y378223D01*
X141101Y378963D01*
X140072Y379513D01*
X138956Y379851D01*
X137795Y379966D01*
D02*
G37*
G36*
X429634Y369606D02*
Y366642D01*
X432598D01*
X432544Y367055D01*
X432191Y367907D01*
X431630Y368638D01*
X430899Y369199D01*
X430048Y369552D01*
X429634Y369606D01*
D02*
G37*
G36*
X428634D02*
X428220Y369552D01*
X427369Y369199D01*
X426638Y368638D01*
X426077Y367907D01*
X425724Y367055D01*
X425669Y366642D01*
X428634D01*
Y369606D01*
D02*
G37*
G36*
X370579D02*
Y366642D01*
X373543D01*
X373489Y367055D01*
X373136Y367907D01*
X372575Y368638D01*
X371844Y369199D01*
X370992Y369552D01*
X370579Y369606D01*
D02*
G37*
G36*
X369579D02*
X369165Y369552D01*
X368314Y369199D01*
X367583Y368638D01*
X367021Y367907D01*
X366669Y367055D01*
X366614Y366642D01*
X369579D01*
Y369606D01*
D02*
G37*
G36*
X311524D02*
Y366642D01*
X314488D01*
X314434Y367055D01*
X314081Y367907D01*
X313520Y368638D01*
X312789Y369199D01*
X311937Y369552D01*
X311524Y369606D01*
D02*
G37*
G36*
X310524D02*
X310110Y369552D01*
X309259Y369199D01*
X308527Y368638D01*
X307966Y367907D01*
X307614Y367055D01*
X307559Y366642D01*
X310524D01*
Y369606D01*
D02*
G37*
G36*
X252468D02*
Y366642D01*
X255433D01*
X255378Y367055D01*
X255026Y367907D01*
X254465Y368638D01*
X253734Y369199D01*
X252882Y369552D01*
X252468Y369606D01*
D02*
G37*
G36*
X251468D02*
X251055Y369552D01*
X250203Y369199D01*
X249472Y368638D01*
X248911Y367907D01*
X248559Y367055D01*
X248504Y366642D01*
X251468D01*
Y369606D01*
D02*
G37*
G36*
X193413D02*
Y366642D01*
X196378D01*
X196323Y367055D01*
X195971Y367907D01*
X195410Y368638D01*
X194678Y369199D01*
X193827Y369552D01*
X193413Y369606D01*
D02*
G37*
G36*
X192413D02*
X192000Y369552D01*
X191148Y369199D01*
X190417Y368638D01*
X189856Y367907D01*
X189504Y367055D01*
X189449Y366642D01*
X192413D01*
Y369606D01*
D02*
G37*
G36*
X444110Y368520D02*
X442232D01*
Y366642D01*
X444232D01*
Y368224D01*
X444110D01*
Y368520D01*
D02*
G37*
G36*
X326000D02*
X324122D01*
Y366642D01*
X326122D01*
Y368224D01*
X326000D01*
Y368520D01*
D02*
G37*
G36*
X266945D02*
X265067D01*
Y366642D01*
X267067D01*
Y368224D01*
X266945D01*
Y368520D01*
D02*
G37*
G36*
X207890D02*
X206012D01*
Y366642D01*
X208012D01*
Y368224D01*
X207890D01*
Y368520D01*
D02*
G37*
G36*
X385055D02*
X383177D01*
Y366642D01*
X385177D01*
Y368224D01*
X385055D01*
Y368520D01*
D02*
G37*
G36*
X441232D02*
X439354D01*
Y368224D01*
X439232D01*
Y366642D01*
X441232D01*
Y368520D01*
D02*
G37*
G36*
X323122D02*
X321244D01*
Y368224D01*
X321122D01*
Y366642D01*
X323122D01*
Y368520D01*
D02*
G37*
G36*
X264067D02*
X262189D01*
Y368224D01*
X262067D01*
Y366642D01*
X264067D01*
Y368520D01*
D02*
G37*
G36*
X205012D02*
X203134D01*
Y368224D01*
X203012D01*
Y366642D01*
X205012D01*
Y368520D01*
D02*
G37*
G36*
X382177D02*
X380299D01*
Y368224D01*
X380177D01*
Y366642D01*
X382177D01*
Y368520D01*
D02*
G37*
G36*
X459071D02*
X454315D01*
Y368224D01*
X454193D01*
Y364059D01*
X454315D01*
Y363764D01*
X459071D01*
Y364059D01*
X459193D01*
Y368224D01*
X459071D01*
Y368520D01*
D02*
G37*
G36*
X451590D02*
X446835D01*
Y368224D01*
X446713D01*
Y364059D01*
X446835D01*
Y363764D01*
X451590D01*
Y364059D01*
X451713D01*
Y368224D01*
X451590D01*
Y368520D01*
D02*
G37*
G36*
X444232Y365642D02*
X442232D01*
Y363764D01*
X444110D01*
Y364059D01*
X444232D01*
Y365642D01*
D02*
G37*
G36*
X441232D02*
X439232D01*
Y364059D01*
X439354D01*
Y363764D01*
X441232D01*
Y365642D01*
D02*
G37*
G36*
X400016Y368520D02*
X395260D01*
Y368224D01*
X395138D01*
Y364059D01*
X395260D01*
Y363764D01*
X400016D01*
Y364059D01*
X400138D01*
Y368224D01*
X400016D01*
Y368520D01*
D02*
G37*
G36*
X392535D02*
X387779D01*
Y368224D01*
X387657D01*
Y364059D01*
X387779D01*
Y363764D01*
X392535D01*
Y364059D01*
X392657D01*
Y368224D01*
X392535D01*
Y368520D01*
D02*
G37*
G36*
X385177Y365642D02*
X383177D01*
Y363764D01*
X385055D01*
Y364059D01*
X385177D01*
Y365642D01*
D02*
G37*
G36*
X382177D02*
X380177D01*
Y364059D01*
X380299D01*
Y363764D01*
X382177D01*
Y365642D01*
D02*
G37*
G36*
X340961Y368520D02*
X336205D01*
Y368224D01*
X336083D01*
Y364059D01*
X336205D01*
Y363764D01*
X340961D01*
Y364059D01*
X341083D01*
Y368224D01*
X340961D01*
Y368520D01*
D02*
G37*
G36*
X333480D02*
X328724D01*
Y368224D01*
X328602D01*
Y364059D01*
X328724D01*
Y363764D01*
X333480D01*
Y364059D01*
X333602D01*
Y368224D01*
X333480D01*
Y368520D01*
D02*
G37*
G36*
X326122Y365642D02*
X324122D01*
Y363764D01*
X326000D01*
Y364059D01*
X326122D01*
Y365642D01*
D02*
G37*
G36*
X323122D02*
X321122D01*
Y364059D01*
X321244D01*
Y363764D01*
X323122D01*
Y365642D01*
D02*
G37*
G36*
X281906Y368520D02*
X277150D01*
Y368224D01*
X277028D01*
Y364059D01*
X277150D01*
Y363764D01*
X281906D01*
Y364059D01*
X282028D01*
Y368224D01*
X281906D01*
Y368520D01*
D02*
G37*
G36*
X274425D02*
X269669D01*
Y368224D01*
X269547D01*
Y364059D01*
X269669D01*
Y363764D01*
X274425D01*
Y364059D01*
X274547D01*
Y368224D01*
X274425D01*
Y368520D01*
D02*
G37*
G36*
X267067Y365642D02*
X265067D01*
Y363764D01*
X266945D01*
Y364059D01*
X267067D01*
Y365642D01*
D02*
G37*
G36*
X264067D02*
X262067D01*
Y364059D01*
X262189D01*
Y363764D01*
X264067D01*
Y365642D01*
D02*
G37*
G36*
X222850Y368520D02*
X218094D01*
Y368224D01*
X217972D01*
Y364059D01*
X218094D01*
Y363764D01*
X222850D01*
Y364059D01*
X222972D01*
Y368224D01*
X222850D01*
Y368520D01*
D02*
G37*
G36*
X215370D02*
X210614D01*
Y368224D01*
X210492D01*
Y364059D01*
X210614D01*
Y363764D01*
X215370D01*
Y364059D01*
X215492D01*
Y368224D01*
X215370D01*
Y368520D01*
D02*
G37*
G36*
X208012Y365642D02*
X206012D01*
Y363764D01*
X207890D01*
Y364059D01*
X208012D01*
Y365642D01*
D02*
G37*
G36*
X205012D02*
X203012D01*
Y364059D01*
X203134D01*
Y363764D01*
X205012D01*
Y365642D01*
D02*
G37*
G36*
X432598Y365642D02*
X429634D01*
Y362677D01*
X430048Y362732D01*
X430899Y363085D01*
X431630Y363646D01*
X432191Y364377D01*
X432544Y365228D01*
X432598Y365642D01*
D02*
G37*
G36*
X428634D02*
X425669D01*
X425724Y365228D01*
X426077Y364377D01*
X426638Y363646D01*
X427369Y363085D01*
X428220Y362732D01*
X428634Y362677D01*
Y365642D01*
D02*
G37*
G36*
X373543D02*
X370579D01*
Y362677D01*
X370992Y362732D01*
X371844Y363085D01*
X372575Y363646D01*
X373136Y364377D01*
X373489Y365228D01*
X373543Y365642D01*
D02*
G37*
G36*
X369579D02*
X366614D01*
X366669Y365228D01*
X367021Y364377D01*
X367583Y363646D01*
X368314Y363085D01*
X369165Y362732D01*
X369579Y362677D01*
Y365642D01*
D02*
G37*
G36*
X314488D02*
X311524D01*
Y362677D01*
X311937Y362732D01*
X312789Y363085D01*
X313520Y363646D01*
X314081Y364377D01*
X314434Y365228D01*
X314488Y365642D01*
D02*
G37*
G36*
X310524D02*
X307559D01*
X307614Y365228D01*
X307966Y364377D01*
X308527Y363646D01*
X309259Y363085D01*
X310110Y362732D01*
X310524Y362677D01*
Y365642D01*
D02*
G37*
G36*
X255433D02*
X252468D01*
Y362677D01*
X252882Y362732D01*
X253734Y363085D01*
X254465Y363646D01*
X255026Y364377D01*
X255378Y365228D01*
X255433Y365642D01*
D02*
G37*
G36*
X251468D02*
X248504D01*
X248559Y365228D01*
X248911Y364377D01*
X249472Y363646D01*
X250203Y363085D01*
X251055Y362732D01*
X251468Y362677D01*
Y365642D01*
D02*
G37*
G36*
X196378D02*
X193413D01*
Y362677D01*
X193827Y362732D01*
X194678Y363085D01*
X195410Y363646D01*
X195971Y364377D01*
X196323Y365228D01*
X196378Y365642D01*
D02*
G37*
G36*
X192413D02*
X189449D01*
X189504Y365228D01*
X189856Y364377D01*
X190417Y363646D01*
X191148Y363085D01*
X192000Y362732D01*
X192413Y362677D01*
Y365642D01*
D02*
G37*
G36*
X449213Y353299D02*
X447801Y353160D01*
X446444Y352748D01*
X445193Y352079D01*
X444096Y351179D01*
X443196Y350083D01*
X442528Y348832D01*
X442116Y347475D01*
X441977Y346063D01*
X442116Y344651D01*
X442528Y343294D01*
X443196Y342043D01*
X444096Y340947D01*
X445193Y340047D01*
X446444Y339378D01*
X447801Y338966D01*
X449213Y338827D01*
X450624Y338966D01*
X451981Y339378D01*
X453232Y340047D01*
X454329Y340947D01*
X455229Y342043D01*
X455897Y343294D01*
X456309Y344651D01*
X456448Y346063D01*
X456309Y347475D01*
X455897Y348832D01*
X455229Y350083D01*
X454329Y351179D01*
X453232Y352079D01*
X451981Y352748D01*
X450624Y353160D01*
X449213Y353299D01*
D02*
G37*
G36*
X390158D02*
X388746Y353160D01*
X387388Y352748D01*
X386138Y352079D01*
X385041Y351179D01*
X384141Y350083D01*
X383473Y348832D01*
X383061Y347475D01*
X382922Y346063D01*
X383061Y344651D01*
X383473Y343294D01*
X384141Y342043D01*
X385041Y340947D01*
X386138Y340047D01*
X387388Y339378D01*
X388746Y338966D01*
X390158Y338827D01*
X391569Y338966D01*
X392926Y339378D01*
X394177Y340047D01*
X395274Y340947D01*
X396174Y342043D01*
X396842Y343294D01*
X397254Y344651D01*
X397393Y346063D01*
X397254Y347475D01*
X396842Y348832D01*
X396174Y350083D01*
X395274Y351179D01*
X394177Y352079D01*
X392926Y352748D01*
X391569Y353160D01*
X390158Y353299D01*
D02*
G37*
G36*
X331102D02*
X329691Y353160D01*
X328333Y352748D01*
X327082Y352079D01*
X325986Y351179D01*
X325086Y350083D01*
X324417Y348832D01*
X324006Y347475D01*
X323867Y346063D01*
X324006Y344651D01*
X324417Y343294D01*
X325086Y342043D01*
X325986Y340947D01*
X327082Y340047D01*
X328333Y339378D01*
X329691Y338966D01*
X331102Y338827D01*
X332514Y338966D01*
X333871Y339378D01*
X335122Y340047D01*
X336219Y340947D01*
X337119Y342043D01*
X337787Y343294D01*
X338199Y344651D01*
X338338Y346063D01*
X338199Y347475D01*
X337787Y348832D01*
X337119Y350083D01*
X336219Y351179D01*
X335122Y352079D01*
X333871Y352748D01*
X332514Y353160D01*
X331102Y353299D01*
D02*
G37*
G36*
X272047D02*
X270636Y353160D01*
X269278Y352748D01*
X268027Y352079D01*
X266931Y351179D01*
X266031Y350083D01*
X265362Y348832D01*
X264951Y347475D01*
X264812Y346063D01*
X264951Y344651D01*
X265362Y343294D01*
X266031Y342043D01*
X266931Y340947D01*
X268027Y340047D01*
X269278Y339378D01*
X270636Y338966D01*
X272047Y338827D01*
X273459Y338966D01*
X274816Y339378D01*
X276067Y340047D01*
X277164Y340947D01*
X278063Y342043D01*
X278732Y343294D01*
X279144Y344651D01*
X279283Y346063D01*
X279144Y347475D01*
X278732Y348832D01*
X278063Y350083D01*
X277164Y351179D01*
X276067Y352079D01*
X274816Y352748D01*
X273459Y353160D01*
X272047Y353299D01*
D02*
G37*
G36*
X212992D02*
X211580Y353160D01*
X210223Y352748D01*
X208972Y352079D01*
X207876Y351179D01*
X206976Y350083D01*
X206307Y348832D01*
X205895Y347475D01*
X205756Y346063D01*
X205895Y344651D01*
X206307Y343294D01*
X206976Y342043D01*
X207876Y340947D01*
X208972Y340047D01*
X210223Y339378D01*
X211580Y338966D01*
X212992Y338827D01*
X214404Y338966D01*
X215761Y339378D01*
X217012Y340047D01*
X218109Y340947D01*
X219008Y342043D01*
X219677Y343294D01*
X220089Y344651D01*
X220228Y346063D01*
X220089Y347475D01*
X219677Y348832D01*
X219008Y350083D01*
X218109Y351179D01*
X217012Y352079D01*
X215761Y352748D01*
X214404Y353160D01*
X212992Y353299D01*
D02*
G37*
G36*
X531496Y302743D02*
X530582Y302623D01*
X529731Y302270D01*
X529000Y301709D01*
X528439Y300978D01*
X528086Y300126D01*
X527966Y299213D01*
X528086Y298299D01*
X528439Y297447D01*
X529000Y296716D01*
X529731Y296155D01*
X530582Y295803D01*
X531496Y295682D01*
X532410Y295803D01*
X533261Y296155D01*
X533992Y296716D01*
X534553Y297447D01*
X534906Y298299D01*
X535026Y299213D01*
X534906Y300126D01*
X534553Y300978D01*
X533992Y301709D01*
X533261Y302270D01*
X532410Y302623D01*
X531496Y302743D01*
D02*
G37*
G36*
X137795D02*
X136882Y302623D01*
X136030Y302270D01*
X135299Y301709D01*
X134738Y300978D01*
X134385Y300126D01*
X134265Y299213D01*
X134385Y298299D01*
X134738Y297447D01*
X135299Y296716D01*
X136030Y296155D01*
X136882Y295803D01*
X137795Y295682D01*
X138709Y295803D01*
X139560Y296155D01*
X140292Y296716D01*
X140852Y297447D01*
X141205Y298299D01*
X141325Y299213D01*
X141205Y300126D01*
X140852Y300978D01*
X140292Y301709D01*
X139560Y302270D01*
X138709Y302623D01*
X137795Y302743D01*
D02*
G37*
G36*
X532060Y291583D02*
Y288619D01*
X535024D01*
X534970Y289032D01*
X534617Y289884D01*
X534056Y290615D01*
X533325Y291176D01*
X532474Y291529D01*
X532060Y291583D01*
D02*
G37*
G36*
X531060D02*
X530646Y291529D01*
X529795Y291176D01*
X529064Y290615D01*
X528503Y289884D01*
X528150Y289032D01*
X528095Y288619D01*
X531060D01*
Y291583D01*
D02*
G37*
G36*
X138295Y290866D02*
Y287902D01*
X141260D01*
X141205Y288315D01*
X140852Y289167D01*
X140292Y289898D01*
X139560Y290459D01*
X138709Y290811D01*
X138295Y290866D01*
D02*
G37*
G36*
X137295D02*
X136882Y290811D01*
X136030Y290459D01*
X135299Y289898D01*
X134738Y289167D01*
X134385Y288315D01*
X134331Y287902D01*
X137295D01*
Y290866D01*
D02*
G37*
G36*
X535024Y287619D02*
X532060D01*
Y284654D01*
X532474Y284709D01*
X533325Y285061D01*
X534056Y285622D01*
X534617Y286353D01*
X534970Y287205D01*
X535024Y287619D01*
D02*
G37*
G36*
X531060D02*
X528095D01*
X528150Y287205D01*
X528503Y286353D01*
X529064Y285622D01*
X529795Y285061D01*
X530646Y284709D01*
X531060Y284654D01*
Y287619D01*
D02*
G37*
G36*
X141260Y286902D02*
X138295D01*
Y283937D01*
X138709Y283992D01*
X139560Y284344D01*
X140292Y284905D01*
X140852Y285636D01*
X141205Y286488D01*
X141260Y286902D01*
D02*
G37*
G36*
X137295D02*
X134331D01*
X134385Y286488D01*
X134738Y285636D01*
X135299Y284905D01*
X136030Y284344D01*
X136882Y283992D01*
X137295Y283937D01*
Y286902D01*
D02*
G37*
G36*
X370079Y290932D02*
X369165Y290811D01*
X368314Y290459D01*
X367583Y289898D01*
X367021Y289167D01*
X366669Y288315D01*
X366548Y287402D01*
X366669Y286488D01*
X367021Y285636D01*
X367583Y284905D01*
X368314Y284344D01*
X369165Y283992D01*
X370079Y283871D01*
X370992Y283992D01*
X371844Y284344D01*
X372575Y284905D01*
X373136Y285636D01*
X373489Y286488D01*
X373609Y287402D01*
X373489Y288315D01*
X373136Y289167D01*
X372575Y289898D01*
X371844Y290459D01*
X370992Y290811D01*
X370079Y290932D01*
D02*
G37*
G36*
X448819Y286995D02*
X447905Y286875D01*
X447054Y286522D01*
X446323Y285961D01*
X445762Y285230D01*
X445409Y284378D01*
X445289Y283465D01*
X445409Y282551D01*
X445762Y281699D01*
X446323Y280968D01*
X447054Y280407D01*
X447905Y280055D01*
X448819Y279934D01*
X449733Y280055D01*
X450584Y280407D01*
X451315Y280968D01*
X451876Y281699D01*
X452229Y282551D01*
X452349Y283465D01*
X452229Y284378D01*
X451876Y285230D01*
X451315Y285961D01*
X450584Y286522D01*
X449733Y286875D01*
X448819Y286995D01*
D02*
G37*
G36*
X393701D02*
X392787Y286875D01*
X391936Y286522D01*
X391205Y285961D01*
X390644Y285230D01*
X390291Y284378D01*
X390171Y283465D01*
X390291Y282551D01*
X390644Y281699D01*
X391205Y280968D01*
X391936Y280407D01*
X392787Y280055D01*
X393701Y279934D01*
X394615Y280055D01*
X395466Y280407D01*
X396197Y280968D01*
X396758Y281699D01*
X397111Y282551D01*
X397231Y283465D01*
X397111Y284378D01*
X396758Y285230D01*
X396197Y285961D01*
X395466Y286522D01*
X394615Y286875D01*
X393701Y286995D01*
D02*
G37*
G36*
X232283D02*
X231370Y286875D01*
X230518Y286522D01*
X229787Y285961D01*
X229226Y285230D01*
X228873Y284378D01*
X228753Y283465D01*
X228873Y282551D01*
X229226Y281699D01*
X229787Y280968D01*
X230518Y280407D01*
X231370Y280055D01*
X232283Y279934D01*
X233197Y280055D01*
X234049Y280407D01*
X234780Y280968D01*
X235341Y281699D01*
X235693Y282551D01*
X235814Y283465D01*
X235693Y284378D01*
X235341Y285230D01*
X234780Y285961D01*
X234049Y286522D01*
X233197Y286875D01*
X232283Y286995D01*
D02*
G37*
G36*
X192913D02*
X192000Y286875D01*
X191148Y286522D01*
X190417Y285961D01*
X189856Y285230D01*
X189504Y284378D01*
X189383Y283465D01*
X189504Y282551D01*
X189856Y281699D01*
X190417Y280968D01*
X191148Y280407D01*
X192000Y280055D01*
X192913Y279934D01*
X193827Y280055D01*
X194678Y280407D01*
X195410Y280968D01*
X195971Y281699D01*
X196323Y282551D01*
X196444Y283465D01*
X196323Y284378D01*
X195971Y285230D01*
X195410Y285961D01*
X194678Y286522D01*
X193827Y286875D01*
X192913Y286995D01*
D02*
G37*
G36*
X421500Y286707D02*
X420586Y286587D01*
X419735Y286234D01*
X419003Y285673D01*
X418442Y284942D01*
X418090Y284091D01*
X417970Y283177D01*
X418090Y282264D01*
X418442Y281412D01*
X419003Y280681D01*
X419735Y280120D01*
X420586Y279767D01*
X421500Y279647D01*
X422413Y279767D01*
X423265Y280120D01*
X423996Y280681D01*
X424557Y281412D01*
X424910Y282264D01*
X425030Y283177D01*
X424910Y284091D01*
X424557Y284942D01*
X423996Y285673D01*
X423265Y286234D01*
X422413Y286587D01*
X421500Y286707D01*
D02*
G37*
G36*
X475239Y284784D02*
X474326Y284664D01*
X473474Y284311D01*
X472743Y283750D01*
X472182Y283019D01*
X471830Y282168D01*
X471709Y281254D01*
X471830Y280341D01*
X472182Y279489D01*
X472743Y278758D01*
X473474Y278197D01*
X474326Y277844D01*
X475239Y277724D01*
X476153Y277844D01*
X477004Y278197D01*
X477736Y278758D01*
X478297Y279489D01*
X478649Y280341D01*
X478770Y281254D01*
X478649Y282168D01*
X478297Y283019D01*
X477736Y283750D01*
X477004Y284311D01*
X476153Y284664D01*
X475239Y284784D01*
D02*
G37*
G36*
X200012Y283651D02*
X199098Y283531D01*
X198247Y283178D01*
X197516Y282617D01*
X196955Y281886D01*
X196602Y281035D01*
X196482Y280121D01*
X196602Y279208D01*
X196955Y278356D01*
X197516Y277625D01*
X198247Y277064D01*
X199098Y276711D01*
X200012Y276591D01*
X200925Y276711D01*
X201777Y277064D01*
X202508Y277625D01*
X203069Y278356D01*
X203422Y279208D01*
X203542Y280121D01*
X203422Y281035D01*
X203069Y281886D01*
X202508Y282617D01*
X201777Y283178D01*
X200925Y283531D01*
X200012Y283651D01*
D02*
G37*
G36*
X275590Y283074D02*
X274677Y282954D01*
X273826Y282601D01*
X273094Y282040D01*
X272533Y281309D01*
X272181Y280457D01*
X272060Y279544D01*
X272181Y278630D01*
X272533Y277779D01*
X273094Y277047D01*
X273826Y276486D01*
X274677Y276134D01*
X275590Y276013D01*
X276504Y276134D01*
X277356Y276486D01*
X278087Y277047D01*
X278648Y277779D01*
X279000Y278630D01*
X279121Y279544D01*
X279000Y280457D01*
X278648Y281309D01*
X278087Y282040D01*
X277356Y282601D01*
X276504Y282954D01*
X275590Y283074D01*
D02*
G37*
G36*
X291339Y283058D02*
X290425Y282938D01*
X289574Y282585D01*
X288842Y282024D01*
X288281Y281293D01*
X287929Y280441D01*
X287808Y279528D01*
X287929Y278614D01*
X288281Y277763D01*
X288842Y277031D01*
X289574Y276470D01*
X290425Y276118D01*
X291339Y275997D01*
X292252Y276118D01*
X293104Y276470D01*
X293835Y277031D01*
X294396Y277763D01*
X294748Y278614D01*
X294869Y279528D01*
X294748Y280441D01*
X294396Y281293D01*
X293835Y282024D01*
X293104Y282585D01*
X292252Y282938D01*
X291339Y283058D01*
D02*
G37*
G36*
X531496Y267310D02*
X530582Y267189D01*
X529731Y266837D01*
X529000Y266276D01*
X528439Y265545D01*
X528086Y264693D01*
X527966Y263779D01*
X528086Y262866D01*
X528439Y262014D01*
X529000Y261283D01*
X529731Y260722D01*
X530582Y260370D01*
X531496Y260249D01*
X532410Y260370D01*
X533261Y260722D01*
X533992Y261283D01*
X534553Y262014D01*
X534906Y262866D01*
X535026Y263779D01*
X534906Y264693D01*
X534553Y265545D01*
X533992Y266276D01*
X533261Y266837D01*
X532410Y267189D01*
X531496Y267310D01*
D02*
G37*
G36*
X293065Y257885D02*
Y254920D01*
X296029D01*
X295975Y255334D01*
X295622Y256185D01*
X295061Y256916D01*
X294330Y257477D01*
X293479Y257830D01*
X293065Y257885D01*
D02*
G37*
G36*
X292065D02*
X291651Y257830D01*
X290800Y257477D01*
X290069Y256916D01*
X289508Y256185D01*
X289155Y255334D01*
X289101Y254920D01*
X292065D01*
Y257885D01*
D02*
G37*
G36*
X296029Y253920D02*
X293065D01*
Y250956D01*
X293479Y251010D01*
X294330Y251363D01*
X295061Y251924D01*
X295622Y252655D01*
X295975Y253506D01*
X296029Y253920D01*
D02*
G37*
G36*
X292065D02*
X289101D01*
X289155Y253506D01*
X289508Y252655D01*
X290069Y251924D01*
X290800Y251363D01*
X291651Y251010D01*
X292065Y250956D01*
Y253920D01*
D02*
G37*
G36*
X448819Y255499D02*
X447905Y255378D01*
X447054Y255026D01*
X446323Y254465D01*
X445762Y253734D01*
X445409Y252882D01*
X445289Y251969D01*
X445409Y251055D01*
X445762Y250203D01*
X446323Y249472D01*
X447054Y248911D01*
X447905Y248559D01*
X448819Y248438D01*
X449733Y248559D01*
X450584Y248911D01*
X451315Y249472D01*
X451876Y250203D01*
X452229Y251055D01*
X452349Y251969D01*
X452229Y252882D01*
X451876Y253734D01*
X451315Y254465D01*
X450584Y255026D01*
X449733Y255378D01*
X448819Y255499D01*
D02*
G37*
G36*
X369106Y251670D02*
X368193Y251550D01*
X367341Y251198D01*
X366610Y250637D01*
X366049Y249905D01*
X365697Y249054D01*
X365576Y248140D01*
X365697Y247227D01*
X366049Y246375D01*
X366610Y245644D01*
X367341Y245083D01*
X368193Y244730D01*
X369106Y244610D01*
X370020Y244730D01*
X370871Y245083D01*
X371603Y245644D01*
X372164Y246375D01*
X372516Y247227D01*
X372637Y248140D01*
X372516Y249054D01*
X372164Y249905D01*
X371603Y250637D01*
X370871Y251198D01*
X370020Y251550D01*
X369106Y251670D01*
D02*
G37*
G36*
X346957Y243622D02*
Y240657D01*
X349921D01*
X349867Y241071D01*
X349514Y241923D01*
X348953Y242654D01*
X348222Y243215D01*
X347370Y243567D01*
X346957Y243622D01*
D02*
G37*
G36*
X345957D02*
X345543Y243567D01*
X344692Y243215D01*
X343960Y242654D01*
X343399Y241923D01*
X343047Y241071D01*
X342992Y240657D01*
X345957D01*
Y243622D01*
D02*
G37*
G36*
X349921Y239657D02*
X346957D01*
Y236693D01*
X347370Y236748D01*
X348222Y237100D01*
X348953Y237661D01*
X349514Y238392D01*
X349867Y239244D01*
X349921Y239657D01*
D02*
G37*
G36*
X345957D02*
X342992D01*
X343047Y239244D01*
X343399Y238392D01*
X343960Y237661D01*
X344692Y237100D01*
X345543Y236748D01*
X345957Y236693D01*
Y239657D01*
D02*
G37*
G36*
X311024Y243688D02*
X310110Y243567D01*
X309259Y243215D01*
X308527Y242654D01*
X307966Y241923D01*
X307614Y241071D01*
X307493Y240158D01*
X307614Y239244D01*
X307966Y238392D01*
X308527Y237661D01*
X309259Y237100D01*
X310110Y236748D01*
X311024Y236627D01*
X311937Y236748D01*
X312789Y237100D01*
X313520Y237661D01*
X314081Y238392D01*
X314434Y239244D01*
X314554Y240158D01*
X314434Y241071D01*
X314081Y241923D01*
X313520Y242654D01*
X312789Y243215D01*
X311937Y243567D01*
X311024Y243688D01*
D02*
G37*
G36*
X291339D02*
X290425Y243567D01*
X289574Y243215D01*
X288842Y242654D01*
X288281Y241923D01*
X287929Y241071D01*
X287808Y240158D01*
X287929Y239244D01*
X288281Y238392D01*
X288842Y237661D01*
X289574Y237100D01*
X290425Y236748D01*
X291339Y236627D01*
X292252Y236748D01*
X293104Y237100D01*
X293835Y237661D01*
X294396Y238392D01*
X294748Y239244D01*
X294869Y240158D01*
X294748Y241071D01*
X294396Y241923D01*
X293835Y242654D01*
X293104Y243215D01*
X292252Y243567D01*
X291339Y243688D01*
D02*
G37*
G36*
X208661D02*
X207748Y243567D01*
X206896Y243215D01*
X206165Y242654D01*
X205604Y241923D01*
X205252Y241071D01*
X205131Y240158D01*
X205252Y239244D01*
X205604Y238392D01*
X206165Y237661D01*
X206896Y237100D01*
X207748Y236748D01*
X208661Y236627D01*
X209575Y236748D01*
X210426Y237100D01*
X211158Y237661D01*
X211719Y238392D01*
X212071Y239244D01*
X212192Y240158D01*
X212071Y241071D01*
X211719Y241923D01*
X211158Y242654D01*
X210426Y243215D01*
X209575Y243567D01*
X208661Y243688D01*
D02*
G37*
G36*
X182189Y243388D02*
X181275Y243268D01*
X180424Y242915D01*
X179693Y242354D01*
X179132Y241623D01*
X178779Y240772D01*
X178659Y239858D01*
X178779Y238944D01*
X179132Y238093D01*
X179693Y237362D01*
X180424Y236801D01*
X181275Y236448D01*
X182189Y236328D01*
X183103Y236448D01*
X183954Y236801D01*
X184685Y237362D01*
X185247Y238093D01*
X185599Y238944D01*
X185719Y239858D01*
X185599Y240772D01*
X185247Y241623D01*
X184685Y242354D01*
X183954Y242915D01*
X183103Y243268D01*
X182189Y243388D01*
D02*
G37*
G36*
X484991Y241133D02*
X484078Y241013D01*
X483226Y240660D01*
X482495Y240099D01*
X481934Y239368D01*
X481581Y238516D01*
X481461Y237603D01*
X481581Y236689D01*
X481934Y235838D01*
X482495Y235106D01*
X483226Y234545D01*
X484078Y234193D01*
X484991Y234072D01*
X485905Y234193D01*
X486756Y234545D01*
X487487Y235106D01*
X488048Y235838D01*
X488401Y236689D01*
X488521Y237603D01*
X488401Y238516D01*
X488048Y239368D01*
X487487Y240099D01*
X486756Y240660D01*
X485905Y241013D01*
X484991Y241133D01*
D02*
G37*
G36*
X429134Y239751D02*
X428220Y239630D01*
X427369Y239278D01*
X426638Y238717D01*
X426077Y237986D01*
X425724Y237134D01*
X425604Y236221D01*
X425724Y235307D01*
X426077Y234455D01*
X426638Y233724D01*
X427369Y233163D01*
X428220Y232811D01*
X429134Y232690D01*
X430048Y232811D01*
X430899Y233163D01*
X431630Y233724D01*
X432191Y234455D01*
X432544Y235307D01*
X432664Y236221D01*
X432544Y237134D01*
X432191Y237986D01*
X431630Y238717D01*
X430899Y239278D01*
X430048Y239630D01*
X429134Y239751D01*
D02*
G37*
G36*
X138229Y231106D02*
Y228142D01*
X141193D01*
X141139Y228556D01*
X140786Y229407D01*
X140225Y230138D01*
X139494Y230699D01*
X138642Y231052D01*
X138229Y231106D01*
D02*
G37*
G36*
X137229D02*
X136815Y231052D01*
X135964Y230699D01*
X135232Y230138D01*
X134671Y229407D01*
X134319Y228556D01*
X134264Y228142D01*
X137229D01*
Y231106D01*
D02*
G37*
G36*
X141193Y227142D02*
X138229D01*
Y224178D01*
X138642Y224232D01*
X139494Y224585D01*
X140225Y225146D01*
X140786Y225877D01*
X141139Y226728D01*
X141193Y227142D01*
D02*
G37*
G36*
X137229D02*
X134264D01*
X134319Y226728D01*
X134671Y225877D01*
X135232Y225146D01*
X135964Y224585D01*
X136815Y224232D01*
X137229Y224178D01*
Y227142D01*
D02*
G37*
G36*
X531996Y223937D02*
Y220972D01*
X534960D01*
X534906Y221386D01*
X534553Y222237D01*
X533992Y222969D01*
X533261Y223530D01*
X532410Y223882D01*
X531996Y223937D01*
D02*
G37*
G36*
X530996D02*
X530582Y223882D01*
X529731Y223530D01*
X529000Y222969D01*
X528439Y222237D01*
X528086Y221386D01*
X528032Y220972D01*
X530996D01*
Y223937D01*
D02*
G37*
G36*
X534960Y219972D02*
X531996D01*
Y217008D01*
X532410Y217062D01*
X533261Y217415D01*
X533992Y217976D01*
X534553Y218707D01*
X534906Y219559D01*
X534960Y219972D01*
D02*
G37*
G36*
X530996D02*
X528032D01*
X528086Y219559D01*
X528439Y218707D01*
X529000Y217976D01*
X529731Y217415D01*
X530582Y217062D01*
X530996Y217008D01*
Y219972D01*
D02*
G37*
G36*
X137795Y220066D02*
X136882Y219945D01*
X136030Y219593D01*
X135299Y219032D01*
X134738Y218301D01*
X134385Y217449D01*
X134265Y216535D01*
X134385Y215622D01*
X134738Y214770D01*
X135299Y214039D01*
X136030Y213478D01*
X136882Y213125D01*
X137795Y213005D01*
X138709Y213125D01*
X139560Y213478D01*
X140292Y214039D01*
X140852Y214770D01*
X141205Y215622D01*
X141325Y216535D01*
X141205Y217449D01*
X140852Y218301D01*
X140292Y219032D01*
X139560Y219593D01*
X138709Y219945D01*
X137795Y220066D01*
D02*
G37*
G36*
X409449Y200381D02*
X408535Y200260D01*
X407684Y199908D01*
X406953Y199347D01*
X406392Y198616D01*
X406039Y197764D01*
X405919Y196850D01*
X406039Y195937D01*
X406392Y195085D01*
X406953Y194354D01*
X407684Y193793D01*
X408535Y193440D01*
X409449Y193320D01*
X410362Y193440D01*
X411214Y193793D01*
X411945Y194354D01*
X412506Y195085D01*
X412859Y195937D01*
X412979Y196850D01*
X412859Y197764D01*
X412506Y198616D01*
X411945Y199347D01*
X411214Y199908D01*
X410362Y200260D01*
X409449Y200381D01*
D02*
G37*
G36*
X385827D02*
X384913Y200260D01*
X384062Y199908D01*
X383330Y199347D01*
X382769Y198616D01*
X382417Y197764D01*
X382297Y196850D01*
X382417Y195937D01*
X382769Y195085D01*
X383330Y194354D01*
X384062Y193793D01*
X384913Y193440D01*
X385827Y193320D01*
X386740Y193440D01*
X387592Y193793D01*
X388323Y194354D01*
X388884Y195085D01*
X389237Y195937D01*
X389357Y196850D01*
X389237Y197764D01*
X388884Y198616D01*
X388323Y199347D01*
X387592Y199908D01*
X386740Y200260D01*
X385827Y200381D01*
D02*
G37*
G36*
X354331D02*
X353417Y200260D01*
X352566Y199908D01*
X351835Y199347D01*
X351273Y198616D01*
X350921Y197764D01*
X350800Y196850D01*
X350921Y195937D01*
X351273Y195085D01*
X351835Y194354D01*
X352566Y193793D01*
X353417Y193440D01*
X354331Y193320D01*
X355244Y193440D01*
X356096Y193793D01*
X356827Y194354D01*
X357388Y195085D01*
X357741Y195937D01*
X357861Y196850D01*
X357741Y197764D01*
X357388Y198616D01*
X356827Y199347D01*
X356096Y199908D01*
X355244Y200260D01*
X354331Y200381D01*
D02*
G37*
G36*
X311024D02*
X310110Y200260D01*
X309259Y199908D01*
X308527Y199347D01*
X307966Y198616D01*
X307614Y197764D01*
X307493Y196850D01*
X307614Y195937D01*
X307966Y195085D01*
X308527Y194354D01*
X309259Y193793D01*
X310110Y193440D01*
X311024Y193320D01*
X311937Y193440D01*
X312789Y193793D01*
X313520Y194354D01*
X314081Y195085D01*
X314434Y195937D01*
X314554Y196850D01*
X314434Y197764D01*
X314081Y198616D01*
X313520Y199347D01*
X312789Y199908D01*
X311937Y200260D01*
X311024Y200381D01*
D02*
G37*
G36*
X275590D02*
X274677Y200260D01*
X273826Y199908D01*
X273094Y199347D01*
X272533Y198616D01*
X272181Y197764D01*
X272060Y196850D01*
X272181Y195937D01*
X272533Y195085D01*
X273094Y194354D01*
X273826Y193793D01*
X274677Y193440D01*
X275590Y193320D01*
X276504Y193440D01*
X277356Y193793D01*
X278087Y194354D01*
X278648Y195085D01*
X279000Y195937D01*
X279121Y196850D01*
X279000Y197764D01*
X278648Y198616D01*
X278087Y199347D01*
X277356Y199908D01*
X276504Y200260D01*
X275590Y200381D01*
D02*
G37*
G36*
X232283D02*
X231370Y200260D01*
X230518Y199908D01*
X229787Y199347D01*
X229226Y198616D01*
X228873Y197764D01*
X228753Y196850D01*
X228873Y195937D01*
X229226Y195085D01*
X229787Y194354D01*
X230518Y193793D01*
X231370Y193440D01*
X232283Y193320D01*
X233197Y193440D01*
X234049Y193793D01*
X234780Y194354D01*
X235341Y195085D01*
X235693Y195937D01*
X235814Y196850D01*
X235693Y197764D01*
X235341Y198616D01*
X234780Y199347D01*
X234049Y199908D01*
X233197Y200260D01*
X232283Y200381D01*
D02*
G37*
G36*
X286412Y200278D02*
X285499Y200158D01*
X284647Y199805D01*
X283916Y199244D01*
X283355Y198513D01*
X283002Y197661D01*
X282882Y196748D01*
X283002Y195834D01*
X283355Y194983D01*
X283916Y194252D01*
X284647Y193691D01*
X285499Y193338D01*
X286412Y193218D01*
X287326Y193338D01*
X288177Y193691D01*
X288909Y194252D01*
X289470Y194983D01*
X289822Y195834D01*
X289943Y196748D01*
X289822Y197661D01*
X289470Y198513D01*
X288909Y199244D01*
X288177Y199805D01*
X287326Y200158D01*
X286412Y200278D01*
D02*
G37*
G36*
X531496Y196444D02*
X530582Y196323D01*
X529731Y195971D01*
X529000Y195410D01*
X528439Y194678D01*
X528086Y193827D01*
X527966Y192913D01*
X528086Y192000D01*
X528439Y191148D01*
X529000Y190417D01*
X529731Y189856D01*
X530582Y189504D01*
X531496Y189383D01*
X532410Y189504D01*
X533261Y189856D01*
X533992Y190417D01*
X534553Y191148D01*
X534906Y192000D01*
X535026Y192913D01*
X534906Y193827D01*
X534553Y194678D01*
X533992Y195410D01*
X533261Y195971D01*
X532410Y196323D01*
X531496Y196444D01*
D02*
G37*
G36*
X137795D02*
X136882Y196323D01*
X136030Y195971D01*
X135299Y195410D01*
X134738Y194678D01*
X134385Y193827D01*
X134265Y192913D01*
X134385Y192000D01*
X134738Y191148D01*
X135299Y190417D01*
X136030Y189856D01*
X136882Y189504D01*
X137795Y189383D01*
X138709Y189504D01*
X139560Y189856D01*
X140292Y190417D01*
X140852Y191148D01*
X141205Y192000D01*
X141325Y192913D01*
X141205Y193827D01*
X140852Y194678D01*
X140292Y195410D01*
X139560Y195971D01*
X138709Y196323D01*
X137795Y196444D01*
D02*
G37*
G36*
X448425Y184795D02*
X447014Y184656D01*
X445656Y184244D01*
X444405Y183575D01*
X443309Y182675D01*
X442409Y181579D01*
X441740Y180328D01*
X441329Y178971D01*
X441190Y177559D01*
X441329Y176147D01*
X441740Y174790D01*
X442409Y173539D01*
X443309Y172443D01*
X444405Y171543D01*
X445656Y170874D01*
X447014Y170463D01*
X448425Y170323D01*
X449837Y170463D01*
X451194Y170874D01*
X452445Y171543D01*
X453542Y172443D01*
X454441Y173539D01*
X455110Y174790D01*
X455522Y176147D01*
X455661Y177559D01*
X455522Y178971D01*
X455110Y180328D01*
X454441Y181579D01*
X453542Y182675D01*
X452445Y183575D01*
X451194Y184244D01*
X449837Y184656D01*
X448425Y184795D01*
D02*
G37*
G36*
X389370D02*
X387959Y184656D01*
X386601Y184244D01*
X385350Y183575D01*
X384254Y182675D01*
X383354Y181579D01*
X382685Y180328D01*
X382274Y178971D01*
X382135Y177559D01*
X382274Y176147D01*
X382685Y174790D01*
X383354Y173539D01*
X384254Y172443D01*
X385350Y171543D01*
X386601Y170874D01*
X387959Y170463D01*
X389370Y170323D01*
X390782Y170463D01*
X392139Y170874D01*
X393390Y171543D01*
X394486Y172443D01*
X395386Y173539D01*
X396055Y174790D01*
X396467Y176147D01*
X396606Y177559D01*
X396467Y178971D01*
X396055Y180328D01*
X395386Y181579D01*
X394486Y182675D01*
X393390Y183575D01*
X392139Y184244D01*
X390782Y184656D01*
X389370Y184795D01*
D02*
G37*
G36*
X330315D02*
X328903Y184656D01*
X327546Y184244D01*
X326295Y183575D01*
X325199Y182675D01*
X324299Y181579D01*
X323630Y180328D01*
X323218Y178971D01*
X323079Y177559D01*
X323218Y176147D01*
X323630Y174790D01*
X324299Y173539D01*
X325199Y172443D01*
X326295Y171543D01*
X327546Y170874D01*
X328903Y170463D01*
X330315Y170323D01*
X331727Y170463D01*
X333084Y170874D01*
X334335Y171543D01*
X335431Y172443D01*
X336331Y173539D01*
X337000Y174790D01*
X337411Y176147D01*
X337551Y177559D01*
X337411Y178971D01*
X337000Y180328D01*
X336331Y181579D01*
X335431Y182675D01*
X334335Y183575D01*
X333084Y184244D01*
X331727Y184656D01*
X330315Y184795D01*
D02*
G37*
G36*
X271260D02*
X269848Y184656D01*
X268491Y184244D01*
X267240Y183575D01*
X266143Y182675D01*
X265244Y181579D01*
X264575Y180328D01*
X264163Y178971D01*
X264024Y177559D01*
X264163Y176147D01*
X264575Y174790D01*
X265244Y173539D01*
X266143Y172443D01*
X267240Y171543D01*
X268491Y170874D01*
X269848Y170463D01*
X271260Y170323D01*
X272671Y170463D01*
X274029Y170874D01*
X275280Y171543D01*
X276376Y172443D01*
X277276Y173539D01*
X277945Y174790D01*
X278356Y176147D01*
X278496Y177559D01*
X278356Y178971D01*
X277945Y180328D01*
X277276Y181579D01*
X276376Y182675D01*
X275280Y183575D01*
X274029Y184244D01*
X272671Y184656D01*
X271260Y184795D01*
D02*
G37*
G36*
X212205D02*
X210793Y184656D01*
X209436Y184244D01*
X208185Y183575D01*
X207088Y182675D01*
X206189Y181579D01*
X205520Y180328D01*
X205108Y178971D01*
X204969Y177559D01*
X205108Y176147D01*
X205520Y174790D01*
X206189Y173539D01*
X207088Y172443D01*
X208185Y171543D01*
X209436Y170874D01*
X210793Y170463D01*
X212205Y170323D01*
X213616Y170463D01*
X214974Y170874D01*
X216225Y171543D01*
X217321Y172443D01*
X218221Y173539D01*
X218890Y174790D01*
X219301Y176147D01*
X219440Y177559D01*
X219301Y178971D01*
X218890Y180328D01*
X218221Y181579D01*
X217321Y182675D01*
X216225Y183575D01*
X214974Y184244D01*
X213616Y184656D01*
X212205Y184795D01*
D02*
G37*
G36*
X469004Y160945D02*
Y157980D01*
X471968D01*
X471914Y158394D01*
X471561Y159245D01*
X471000Y159976D01*
X470269Y160538D01*
X469418Y160890D01*
X469004Y160945D01*
D02*
G37*
G36*
X468004D02*
X467590Y160890D01*
X466739Y160538D01*
X466008Y159976D01*
X465447Y159245D01*
X465094Y158394D01*
X465040Y157980D01*
X468004D01*
Y160945D01*
D02*
G37*
G36*
X458284Y159858D02*
X456405D01*
Y157980D01*
X458405D01*
Y159563D01*
X458284D01*
Y159858D01*
D02*
G37*
G36*
X455406D02*
X453528D01*
Y159563D01*
X453406D01*
Y157980D01*
X455406D01*
Y159858D01*
D02*
G37*
G36*
X409949Y160945D02*
Y157980D01*
X412913D01*
X412859Y158394D01*
X412506Y159245D01*
X411945Y159976D01*
X411214Y160538D01*
X410362Y160890D01*
X409949Y160945D01*
D02*
G37*
G36*
X408949D02*
X408535Y160890D01*
X407684Y160538D01*
X406953Y159976D01*
X406392Y159245D01*
X406039Y158394D01*
X405984Y157980D01*
X408949D01*
Y160945D01*
D02*
G37*
G36*
X399228Y159858D02*
X397350D01*
Y157980D01*
X399350D01*
Y159563D01*
X399228D01*
Y159858D01*
D02*
G37*
G36*
X396350D02*
X394472D01*
Y159563D01*
X394350D01*
Y157980D01*
X396350D01*
Y159858D01*
D02*
G37*
G36*
X350894Y160945D02*
Y157980D01*
X353858D01*
X353804Y158394D01*
X353451Y159245D01*
X352890Y159976D01*
X352159Y160538D01*
X351307Y160890D01*
X350894Y160945D01*
D02*
G37*
G36*
X349894D02*
X349480Y160890D01*
X348629Y160538D01*
X347898Y159976D01*
X347337Y159245D01*
X346984Y158394D01*
X346929Y157980D01*
X349894D01*
Y160945D01*
D02*
G37*
G36*
X340173Y159858D02*
X338295D01*
Y157980D01*
X340295D01*
Y159563D01*
X340173D01*
Y159858D01*
D02*
G37*
G36*
X337295D02*
X335417D01*
Y159563D01*
X335295D01*
Y157980D01*
X337295D01*
Y159858D01*
D02*
G37*
G36*
X287902Y160945D02*
Y157980D01*
X290866D01*
X290811Y158394D01*
X290459Y159245D01*
X289898Y159976D01*
X289167Y160538D01*
X288315Y160890D01*
X287902Y160945D01*
D02*
G37*
G36*
X286902D02*
X286488Y160890D01*
X285636Y160538D01*
X284905Y159976D01*
X284344Y159245D01*
X283992Y158394D01*
X283937Y157980D01*
X286902D01*
Y160945D01*
D02*
G37*
G36*
X281118Y159858D02*
X279240D01*
Y157980D01*
X281240D01*
Y159563D01*
X281118D01*
Y159858D01*
D02*
G37*
G36*
X278240D02*
X276362D01*
Y159563D01*
X276240D01*
Y157980D01*
X278240D01*
Y159858D01*
D02*
G37*
G36*
X232784Y160945D02*
Y157980D01*
X235748D01*
X235693Y158394D01*
X235341Y159245D01*
X234780Y159976D01*
X234049Y160538D01*
X233197Y160890D01*
X232784Y160945D01*
D02*
G37*
G36*
X231784D02*
X231370Y160890D01*
X230518Y160538D01*
X229787Y159976D01*
X229226Y159245D01*
X228873Y158394D01*
X228819Y157980D01*
X231784D01*
Y160945D01*
D02*
G37*
G36*
X222063Y159858D02*
X220185D01*
Y157980D01*
X222185D01*
Y159563D01*
X222063D01*
Y159858D01*
D02*
G37*
G36*
X219185D02*
X217307D01*
Y159563D01*
X217185D01*
Y157980D01*
X219185D01*
Y159858D01*
D02*
G37*
G36*
X458405Y156980D02*
X456405D01*
Y155102D01*
X458284D01*
Y155398D01*
X458405D01*
Y156980D01*
D02*
G37*
G36*
X455406D02*
X453406D01*
Y155398D01*
X453528D01*
Y155102D01*
X455406D01*
Y156980D01*
D02*
G37*
G36*
X450803Y159858D02*
X446047D01*
Y159563D01*
X445925D01*
Y155398D01*
X446047D01*
Y155102D01*
X450803D01*
Y155398D01*
X450925D01*
Y159563D01*
X450803D01*
Y159858D01*
D02*
G37*
G36*
X443323D02*
X438567D01*
Y159563D01*
X438445D01*
Y155398D01*
X438567D01*
Y155102D01*
X443323D01*
Y155398D01*
X443445D01*
Y159563D01*
X443323D01*
Y159858D01*
D02*
G37*
G36*
X399350Y156980D02*
X397350D01*
Y155102D01*
X399228D01*
Y155398D01*
X399350D01*
Y156980D01*
D02*
G37*
G36*
X396350D02*
X394350D01*
Y155398D01*
X394472D01*
Y155102D01*
X396350D01*
Y156980D01*
D02*
G37*
G36*
X391748Y159858D02*
X386992D01*
Y159563D01*
X386870D01*
Y155398D01*
X386992D01*
Y155102D01*
X391748D01*
Y155398D01*
X391870D01*
Y159563D01*
X391748D01*
Y159858D01*
D02*
G37*
G36*
X384268D02*
X379512D01*
Y159563D01*
X379390D01*
Y155398D01*
X379512D01*
Y155102D01*
X384268D01*
Y155398D01*
X384390D01*
Y159563D01*
X384268D01*
Y159858D01*
D02*
G37*
G36*
X340295Y156980D02*
X338295D01*
Y155102D01*
X340173D01*
Y155398D01*
X340295D01*
Y156980D01*
D02*
G37*
G36*
X337295D02*
X335295D01*
Y155398D01*
X335417D01*
Y155102D01*
X337295D01*
Y156980D01*
D02*
G37*
G36*
X332693Y159858D02*
X327937D01*
Y159563D01*
X327815D01*
Y155398D01*
X327937D01*
Y155102D01*
X332693D01*
Y155398D01*
X332815D01*
Y159563D01*
X332693D01*
Y159858D01*
D02*
G37*
G36*
X325213D02*
X320457D01*
Y159563D01*
X320335D01*
Y155398D01*
X320457D01*
Y155102D01*
X325213D01*
Y155398D01*
X325335D01*
Y159563D01*
X325213D01*
Y159858D01*
D02*
G37*
G36*
X281240Y156980D02*
X279240D01*
Y155102D01*
X281118D01*
Y155398D01*
X281240D01*
Y156980D01*
D02*
G37*
G36*
X278240D02*
X276240D01*
Y155398D01*
X276362D01*
Y155102D01*
X278240D01*
Y156980D01*
D02*
G37*
G36*
X273638Y159858D02*
X268882D01*
Y159563D01*
X268760D01*
Y155398D01*
X268882D01*
Y155102D01*
X273638D01*
Y155398D01*
X273760D01*
Y159563D01*
X273638D01*
Y159858D01*
D02*
G37*
G36*
X266158D02*
X261402D01*
Y159563D01*
X261280D01*
Y155398D01*
X261402D01*
Y155102D01*
X266158D01*
Y155398D01*
X266280D01*
Y159563D01*
X266158D01*
Y159858D01*
D02*
G37*
G36*
X222185Y156980D02*
X220185D01*
Y155102D01*
X222063D01*
Y155398D01*
X222185D01*
Y156980D01*
D02*
G37*
G36*
X219185D02*
X217185D01*
Y155398D01*
X217307D01*
Y155102D01*
X219185D01*
Y156980D01*
D02*
G37*
G36*
X214583Y159858D02*
X209827D01*
Y159563D01*
X209705D01*
Y155398D01*
X209827D01*
Y155102D01*
X214583D01*
Y155398D01*
X214705D01*
Y159563D01*
X214583D01*
Y159858D01*
D02*
G37*
G36*
X207102D02*
X202346D01*
Y159563D01*
X202224D01*
Y155398D01*
X202346D01*
Y155102D01*
X207102D01*
Y155398D01*
X207224D01*
Y159563D01*
X207102D01*
Y159858D01*
D02*
G37*
G36*
X471968Y156980D02*
X469004D01*
Y154016D01*
X469418Y154070D01*
X470269Y154423D01*
X471000Y154984D01*
X471561Y155715D01*
X471914Y156567D01*
X471968Y156980D01*
D02*
G37*
G36*
X468004D02*
X465040D01*
X465094Y156567D01*
X465447Y155715D01*
X466008Y154984D01*
X466739Y154423D01*
X467590Y154070D01*
X468004Y154016D01*
Y156980D01*
D02*
G37*
G36*
X412913D02*
X409949D01*
Y154016D01*
X410362Y154070D01*
X411214Y154423D01*
X411945Y154984D01*
X412506Y155715D01*
X412859Y156567D01*
X412913Y156980D01*
D02*
G37*
G36*
X408949D02*
X405984D01*
X406039Y156567D01*
X406392Y155715D01*
X406953Y154984D01*
X407684Y154423D01*
X408535Y154070D01*
X408949Y154016D01*
Y156980D01*
D02*
G37*
G36*
X353858D02*
X350894D01*
Y154016D01*
X351307Y154070D01*
X352159Y154423D01*
X352890Y154984D01*
X353451Y155715D01*
X353804Y156567D01*
X353858Y156980D01*
D02*
G37*
G36*
X349894D02*
X346929D01*
X346984Y156567D01*
X347337Y155715D01*
X347898Y154984D01*
X348629Y154423D01*
X349480Y154070D01*
X349894Y154016D01*
Y156980D01*
D02*
G37*
G36*
X290866D02*
X287902D01*
Y154016D01*
X288315Y154070D01*
X289167Y154423D01*
X289898Y154984D01*
X290459Y155715D01*
X290811Y156567D01*
X290866Y156980D01*
D02*
G37*
G36*
X286902D02*
X283937D01*
X283992Y156567D01*
X284344Y155715D01*
X284905Y154984D01*
X285636Y154423D01*
X286488Y154070D01*
X286902Y154016D01*
Y156980D01*
D02*
G37*
G36*
X235748D02*
X232784D01*
Y154016D01*
X233197Y154070D01*
X234049Y154423D01*
X234780Y154984D01*
X235341Y155715D01*
X235693Y156567D01*
X235748Y156980D01*
D02*
G37*
G36*
X231784D02*
X228819D01*
X228873Y156567D01*
X229226Y155715D01*
X229787Y154984D01*
X230518Y154423D01*
X231370Y154070D01*
X231784Y154016D01*
Y156980D01*
D02*
G37*
G36*
X295776Y153071D02*
Y150106D01*
X298740D01*
X298686Y150520D01*
X298333Y151371D01*
X297772Y152102D01*
X297041Y152664D01*
X296189Y153016D01*
X295776Y153071D01*
D02*
G37*
G36*
X294776D02*
X294362Y153016D01*
X293511Y152664D01*
X292779Y152102D01*
X292218Y151371D01*
X291866Y150520D01*
X291811Y150106D01*
X294776D01*
Y153071D01*
D02*
G37*
G36*
X298740Y149106D02*
X295776D01*
Y146142D01*
X296189Y146196D01*
X297041Y146549D01*
X297772Y147110D01*
X298333Y147841D01*
X298686Y148693D01*
X298740Y149106D01*
D02*
G37*
G36*
X294776D02*
X291811D01*
X291866Y148693D01*
X292218Y147841D01*
X292779Y147110D01*
X293511Y146549D01*
X294362Y146196D01*
X294776Y146142D01*
Y149106D01*
D02*
G37*
G36*
X458661Y152460D02*
X457373Y152290D01*
X456172Y151793D01*
X455140Y151001D01*
X454349Y149970D01*
X453852Y148769D01*
X453682Y147480D01*
X453852Y146192D01*
X454349Y144991D01*
X455140Y143959D01*
X456172Y143168D01*
X457373Y142670D01*
X458661Y142501D01*
X459950Y142670D01*
X461151Y143168D01*
X462183Y143959D01*
X462974Y144991D01*
X463471Y146192D01*
X463641Y147480D01*
X463471Y148769D01*
X462974Y149970D01*
X462183Y151001D01*
X461151Y151793D01*
X459950Y152290D01*
X458661Y152460D01*
D02*
G37*
G36*
X399606D02*
X398318Y152290D01*
X397116Y151793D01*
X396085Y151001D01*
X395294Y149970D01*
X394796Y148769D01*
X394627Y147480D01*
X394796Y146192D01*
X395294Y144991D01*
X396085Y143959D01*
X397116Y143168D01*
X398318Y142670D01*
X399606Y142501D01*
X400895Y142670D01*
X402096Y143168D01*
X403127Y143959D01*
X403919Y144991D01*
X404416Y146192D01*
X404586Y147480D01*
X404416Y148769D01*
X403919Y149970D01*
X403127Y151001D01*
X402096Y151793D01*
X400895Y152290D01*
X399606Y152460D01*
D02*
G37*
G36*
X340551D02*
X339262Y152290D01*
X338061Y151793D01*
X337030Y151001D01*
X336239Y149970D01*
X335741Y148769D01*
X335572Y147480D01*
X335741Y146192D01*
X336239Y144991D01*
X337030Y143959D01*
X338061Y143168D01*
X339262Y142670D01*
X340551Y142501D01*
X341840Y142670D01*
X343041Y143168D01*
X344072Y143959D01*
X344864Y144991D01*
X345361Y146192D01*
X345531Y147480D01*
X345361Y148769D01*
X344864Y149970D01*
X344072Y151001D01*
X343041Y151793D01*
X341840Y152290D01*
X340551Y152460D01*
D02*
G37*
G36*
X281496D02*
X280207Y152290D01*
X279006Y151793D01*
X277975Y151001D01*
X277184Y149970D01*
X276686Y148769D01*
X276517Y147480D01*
X276686Y146192D01*
X277184Y144991D01*
X277975Y143959D01*
X279006Y143168D01*
X280207Y142670D01*
X281496Y142501D01*
X282785Y142670D01*
X283986Y143168D01*
X285017Y143959D01*
X285808Y144991D01*
X286306Y146192D01*
X286476Y147480D01*
X286306Y148769D01*
X285808Y149970D01*
X285017Y151001D01*
X283986Y151793D01*
X282785Y152290D01*
X281496Y152460D01*
D02*
G37*
G36*
X222441D02*
X221152Y152290D01*
X219951Y151793D01*
X218920Y151001D01*
X218128Y149970D01*
X217631Y148769D01*
X217461Y147480D01*
X217631Y146192D01*
X218128Y144991D01*
X218920Y143959D01*
X219951Y143168D01*
X221152Y142670D01*
X222441Y142501D01*
X223730Y142670D01*
X224931Y143168D01*
X225962Y143959D01*
X226753Y144991D01*
X227251Y146192D01*
X227421Y147480D01*
X227251Y148769D01*
X226753Y149970D01*
X225962Y151001D01*
X224931Y151793D01*
X223730Y152290D01*
X222441Y152460D01*
D02*
G37*
G36*
X438661Y151928D02*
X437373Y151759D01*
X436172Y151261D01*
X435140Y150470D01*
X434349Y149439D01*
X433851Y148238D01*
X433682Y146949D01*
X433851Y145660D01*
X434349Y144459D01*
X435140Y143428D01*
X436172Y142636D01*
X437373Y142139D01*
X438661Y141969D01*
X439950Y142139D01*
X441151Y142636D01*
X442182Y143428D01*
X442974Y144459D01*
X443471Y145660D01*
X443641Y146949D01*
X443471Y148238D01*
X442974Y149439D01*
X442182Y150470D01*
X441151Y151261D01*
X439950Y151759D01*
X438661Y151928D01*
D02*
G37*
G36*
X379606D02*
X378317Y151759D01*
X377116Y151261D01*
X376085Y150470D01*
X375294Y149439D01*
X374796Y148238D01*
X374627Y146949D01*
X374796Y145660D01*
X375294Y144459D01*
X376085Y143428D01*
X377116Y142636D01*
X378317Y142139D01*
X379606Y141969D01*
X380895Y142139D01*
X382096Y142636D01*
X383127Y143428D01*
X383919Y144459D01*
X384416Y145660D01*
X384586Y146949D01*
X384416Y148238D01*
X383919Y149439D01*
X383127Y150470D01*
X382096Y151261D01*
X380895Y151759D01*
X379606Y151928D01*
D02*
G37*
G36*
X320551D02*
X319262Y151759D01*
X318061Y151261D01*
X317030Y150470D01*
X316239Y149439D01*
X315741Y148238D01*
X315572Y146949D01*
X315741Y145660D01*
X316239Y144459D01*
X317030Y143428D01*
X318061Y142636D01*
X319262Y142139D01*
X320551Y141969D01*
X321840Y142139D01*
X323041Y142636D01*
X324072Y143428D01*
X324864Y144459D01*
X325361Y145660D01*
X325531Y146949D01*
X325361Y148238D01*
X324864Y149439D01*
X324072Y150470D01*
X323041Y151261D01*
X321840Y151759D01*
X320551Y151928D01*
D02*
G37*
G36*
X261496D02*
X260207Y151759D01*
X259006Y151261D01*
X257975Y150470D01*
X257184Y149439D01*
X256686Y148238D01*
X256517Y146949D01*
X256686Y145660D01*
X257184Y144459D01*
X257975Y143428D01*
X259006Y142636D01*
X260207Y142139D01*
X261496Y141969D01*
X262785Y142139D01*
X263986Y142636D01*
X265017Y143428D01*
X265809Y144459D01*
X266306Y145660D01*
X266476Y146949D01*
X266306Y148238D01*
X265809Y149439D01*
X265017Y150470D01*
X263986Y151261D01*
X262785Y151759D01*
X261496Y151928D01*
D02*
G37*
G36*
X202441D02*
X201152Y151759D01*
X199951Y151261D01*
X198920Y150470D01*
X198128Y149439D01*
X197631Y148238D01*
X197461Y146949D01*
X197631Y145660D01*
X198128Y144459D01*
X198920Y143428D01*
X199951Y142636D01*
X201152Y142139D01*
X202441Y141969D01*
X203730Y142139D01*
X204931Y142636D01*
X205962Y143428D01*
X206753Y144459D01*
X207251Y145660D01*
X207421Y146949D01*
X207251Y148238D01*
X206753Y149439D01*
X205962Y150470D01*
X204931Y151261D01*
X203730Y151759D01*
X202441Y151928D01*
D02*
G37*
G36*
X184945Y141225D02*
X184031Y141104D01*
X183180Y140752D01*
X182448Y140191D01*
X181887Y139460D01*
X181535Y138608D01*
X181414Y137695D01*
X181535Y136781D01*
X181887Y135929D01*
X182448Y135198D01*
X183180Y134637D01*
X184031Y134285D01*
X184945Y134164D01*
X185858Y134285D01*
X186710Y134637D01*
X187441Y135198D01*
X188002Y135929D01*
X188355Y136781D01*
X188475Y137695D01*
X188355Y138608D01*
X188002Y139460D01*
X187441Y140191D01*
X186710Y140752D01*
X185858Y141104D01*
X184945Y141225D01*
D02*
G37*
G36*
X531496Y143745D02*
X530335Y143631D01*
X529219Y143292D01*
X528191Y142743D01*
X527289Y142002D01*
X526549Y141101D01*
X525999Y140072D01*
X525661Y138956D01*
X525546Y137795D01*
X525661Y136635D01*
X525999Y135518D01*
X526549Y134490D01*
X527289Y133588D01*
X528191Y132848D01*
X529219Y132298D01*
X530335Y131960D01*
X531496Y131845D01*
X532657Y131960D01*
X533773Y132298D01*
X534802Y132848D01*
X535703Y133588D01*
X536443Y134490D01*
X536993Y135518D01*
X537332Y136635D01*
X537446Y137795D01*
X537332Y138956D01*
X536993Y140072D01*
X536443Y141101D01*
X535703Y142002D01*
X534802Y142743D01*
X533773Y143292D01*
X532657Y143631D01*
X531496Y143745D01*
D02*
G37*
G36*
X137795D02*
X136635Y143631D01*
X135518Y143292D01*
X134490Y142743D01*
X133588Y142002D01*
X132848Y141101D01*
X132298Y140072D01*
X131960Y138956D01*
X131845Y137795D01*
X131960Y136635D01*
X132298Y135518D01*
X132848Y134490D01*
X133588Y133588D01*
X134490Y132848D01*
X135518Y132298D01*
X136635Y131960D01*
X137795Y131845D01*
X138956Y131960D01*
X140072Y132298D01*
X141101Y132848D01*
X142002Y133588D01*
X142743Y134490D01*
X143292Y135518D01*
X143631Y136635D01*
X143745Y137795D01*
X143631Y138956D01*
X143292Y140072D01*
X142743Y141101D01*
X142002Y142002D01*
X141101Y142743D01*
X140072Y143292D01*
X138956Y143631D01*
X137795Y143745D01*
D02*
G37*
%LPD*%
D21*
X219685Y157480D02*
D03*
X278740D02*
D03*
X337795D02*
D03*
X396850D02*
D03*
X455905D02*
D03*
X441732Y366142D02*
D03*
X382677D02*
D03*
X323622D02*
D03*
X264567D02*
D03*
X205512D02*
D03*
D23*
X192913D02*
D03*
X251969D02*
D03*
X311024D02*
D03*
X370079D02*
D03*
X429134D02*
D03*
X468504Y157480D02*
D03*
X409449D02*
D03*
X350394D02*
D03*
X287402D02*
D03*
X232283D02*
D03*
X292565Y254420D02*
D03*
X531560Y288119D02*
D03*
X137795Y287402D02*
D03*
X295276Y149606D02*
D03*
X531496Y220472D02*
D03*
X137729Y227642D02*
D03*
X346457Y240158D02*
D03*
M02*
