G04*
G04 #@! TF.GenerationSoftware,Altium Limited,Altium Designer,21.1.1 (26)*
G04*
G04 Layer_Color=65535*
%FSLAX25Y25*%
%MOIN*%
G70*
G04*
G04 #@! TF.SameCoordinates,58CD008A-62D3-454E-892D-416297C2E113*
G04*
G04*
G04 #@! TF.FilePolarity,Positive*
G04*
G01*
G75*
%ADD10C,0.01968*%
%ADD11C,0.00787*%
%ADD12C,0.01000*%
D10*
X486396Y302148D02*
X485904Y303001D01*
X484919D01*
X484427Y302148D01*
X484919Y301296D01*
X485904D01*
X486396Y302148D01*
X458837D02*
X458345Y303001D01*
X457360D01*
X456868Y302148D01*
X457360Y301296D01*
X458345D01*
X458837Y302148D01*
X431278D02*
X430785Y303001D01*
X429801D01*
X429309Y302148D01*
X429801Y301296D01*
X430785D01*
X431278Y302148D01*
X403719D02*
X403226Y303001D01*
X402242D01*
X401750Y302148D01*
X402242Y301296D01*
X403226D01*
X403719Y302148D01*
X376160D02*
X375667Y303001D01*
X374683D01*
X374191Y302148D01*
X374683Y301296D01*
X375667D01*
X376160Y302148D01*
X293482D02*
X292990Y303001D01*
X292006D01*
X291514Y302148D01*
X292006Y301296D01*
X292990D01*
X293482Y302148D01*
X265923D02*
X265431Y303001D01*
X264447D01*
X263955Y302148D01*
X264447Y301296D01*
X265431D01*
X265923Y302148D01*
X238364D02*
X237872Y303001D01*
X236888D01*
X236396Y302148D01*
X236888Y301296D01*
X237872D01*
X238364Y302148D01*
X210805D02*
X210313Y303001D01*
X209329D01*
X208837Y302148D01*
X209329Y301296D01*
X210313D01*
X210805Y302148D01*
X183246D02*
X182754Y303001D01*
X181770D01*
X181278Y302148D01*
X181770Y301296D01*
X182754D01*
X183246Y302148D01*
X376160Y262778D02*
X375667Y263631D01*
X374683D01*
X374191Y262778D01*
X374683Y261926D01*
X375667D01*
X376160Y262778D01*
X293482D02*
X292990Y263631D01*
X292006D01*
X291514Y262778D01*
X292006Y261926D01*
X292990D01*
X293482Y262778D01*
X476203Y213600D02*
X475711Y214452D01*
X474726D01*
X474234Y213600D01*
X474726Y212747D01*
X475711D01*
X476203Y213600D01*
X448644D02*
X448152Y214452D01*
X447167D01*
X446675Y213600D01*
X447167Y212747D01*
X448152D01*
X448644Y213600D01*
X421085D02*
X420592Y214452D01*
X419608D01*
X419116Y213600D01*
X419608Y212747D01*
X420592D01*
X421085Y213600D01*
X200612D02*
X200120Y214452D01*
X199136D01*
X198644Y213600D01*
X199136Y212747D01*
X200120D01*
X200612Y213600D01*
X173053D02*
X172561Y214452D01*
X171577D01*
X171085Y213600D01*
X171577Y212747D01*
X172561D01*
X173053Y213600D01*
X376160Y219471D02*
X375667Y220323D01*
X374683D01*
X374191Y219471D01*
X374683Y218619D01*
X375667D01*
X376160Y219471D01*
X348600D02*
X348108Y220323D01*
X347124D01*
X346632Y219471D01*
X347124Y218619D01*
X348108D01*
X348600Y219471D01*
X238364D02*
X237872Y220323D01*
X236888D01*
X236396Y219471D01*
X236888Y218619D01*
X237872D01*
X238364Y219471D01*
X265923D02*
X265431Y220323D01*
X264447D01*
X263955Y219471D01*
X264447Y218619D01*
X265431D01*
X265923Y219471D01*
X293482D02*
X292990Y220323D01*
X292006D01*
X291514Y219471D01*
X292006Y218619D01*
X292990D01*
X293482Y219471D01*
X403719D02*
X403226Y220323D01*
X402242D01*
X401750Y219471D01*
X402242Y218619D01*
X403226D01*
X403719Y219471D01*
X321041D02*
X320549Y220323D01*
X319565D01*
X319073Y219471D01*
X319565Y218619D01*
X320549D01*
X321041Y219471D01*
D11*
X470472Y154823D02*
X474409D01*
X470472Y160138D02*
X474409D01*
X465933Y150308D02*
X478949D01*
X465933Y141031D02*
X478949D01*
X406878Y150308D02*
X419894D01*
X406878Y141031D02*
X419894D01*
X411417Y154823D02*
X415354D01*
X411417Y160138D02*
X415354D01*
X347822Y150308D02*
X360839D01*
X347822Y141031D02*
X360839D01*
X352362Y154823D02*
X356299D01*
X352362Y160138D02*
X356299D01*
X288767Y150308D02*
X301784D01*
X288767Y141031D02*
X301784D01*
X293307Y154823D02*
X297244D01*
X293307Y160138D02*
X297244D01*
X233649Y150308D02*
X246666D01*
X233649Y141031D02*
X246666D01*
X238189Y154823D02*
X242126D01*
X238189Y160138D02*
X242126D01*
X423228Y363484D02*
X427165D01*
X423228Y368799D02*
X427165D01*
X418689Y382591D02*
X431705D01*
X418689Y373315D02*
X431705D01*
X364173Y363484D02*
X368110D01*
X364173Y368799D02*
X368110D01*
X359633Y382591D02*
X372650D01*
X359633Y373315D02*
X372650D01*
X305118Y363484D02*
X309055D01*
X305118Y368799D02*
X309055D01*
X300578Y382591D02*
X313595D01*
X300578Y373315D02*
X313595D01*
X244783Y363484D02*
X248721D01*
X244783Y368799D02*
X248721D01*
X241914Y382591D02*
X254930D01*
X241914Y373315D02*
X254930D01*
X187008Y363484D02*
X190945D01*
X187008Y368799D02*
X190945D01*
X182468Y382591D02*
X195485D01*
X182468Y373315D02*
X195485D01*
X185215Y293307D02*
Y305118D01*
X169116Y293307D02*
X185215D01*
X169116D02*
Y305118D01*
X185215D01*
X417148D02*
X433246D01*
X417148Y293307D02*
Y305118D01*
Y293307D02*
X433246D01*
Y305118D01*
X444707D02*
X460805D01*
X444707Y293307D02*
Y305118D01*
Y293307D02*
X460805D01*
Y305118D01*
X472266D02*
X488364D01*
X472266Y293307D02*
Y305118D01*
Y293307D02*
X488364D01*
Y305118D01*
X389589Y222441D02*
X405687D01*
X389589Y210630D02*
Y222441D01*
Y210630D02*
X405687D01*
Y222441D01*
X306911D02*
X323010D01*
X306911Y210630D02*
Y222441D01*
Y210630D02*
X323010D01*
Y222441D01*
X362030Y265748D02*
X378128D01*
X362030Y253937D02*
Y265748D01*
Y253937D02*
X378128D01*
Y265748D01*
X362030Y305118D02*
X378128D01*
X362030Y293307D02*
Y305118D01*
Y293307D02*
X378128D01*
Y305118D01*
X389589D02*
X405687D01*
X389589Y293307D02*
Y305118D01*
Y293307D02*
X405687D01*
Y305118D01*
X472266Y210630D02*
X488364D01*
Y222441D01*
X472266D02*
X488364D01*
X472266Y210630D02*
Y222441D01*
X444707Y210630D02*
X460805D01*
Y222441D01*
X444707D02*
X460805D01*
X444707Y210630D02*
Y222441D01*
X417148Y210630D02*
X433246D01*
Y222441D01*
X417148D02*
X433246D01*
X417148Y210630D02*
Y222441D01*
X196675Y210630D02*
X212774D01*
Y222441D01*
X196675D02*
X212774D01*
X196675Y210630D02*
Y222441D01*
X169116Y210630D02*
X185215D01*
Y222441D01*
X169116D02*
X185215D01*
X169116Y210630D02*
Y222441D01*
X251793Y305118D02*
X267892D01*
X251793Y293307D02*
Y305118D01*
Y293307D02*
X267892D01*
Y305118D01*
X362030Y222441D02*
X378128D01*
X362030Y210630D02*
Y222441D01*
Y210630D02*
X378128D01*
Y222441D01*
X334471D02*
X350569D01*
X334471Y210630D02*
Y222441D01*
Y210630D02*
X350569D01*
Y222441D01*
X324646Y323465D02*
X344646D01*
X324646Y243465D02*
X344646D01*
X279352Y305118D02*
X295451D01*
X279352Y293307D02*
Y305118D01*
Y293307D02*
X295451D01*
Y305118D01*
X279352Y265748D02*
X295451D01*
X279352Y253937D02*
Y265748D01*
Y253937D02*
X295451D01*
Y265748D01*
X224234Y222441D02*
X240333D01*
X224234Y210630D02*
Y222441D01*
Y210630D02*
X240333D01*
Y222441D01*
X251793D02*
X267892D01*
X251793Y210630D02*
Y222441D01*
Y210630D02*
X267892D01*
Y222441D01*
X279352D02*
X295451D01*
X279352Y210630D02*
Y222441D01*
Y210630D02*
X295451D01*
Y222441D01*
X240333Y293307D02*
Y305118D01*
X224234Y293307D02*
X240333D01*
X224234D02*
Y305118D01*
X240333D01*
X212774Y293307D02*
Y305118D01*
X196675Y293307D02*
X212774D01*
X196675D02*
Y305118D01*
X212774D01*
D12*
X487442Y142670D02*
X489442D01*
X488442D01*
Y148668D01*
X487442Y147669D01*
X492441D02*
X493440Y148668D01*
X495440D01*
X496439Y147669D01*
Y143670D01*
X495440Y142670D01*
X493440D01*
X492441Y143670D01*
Y147669D01*
X498439D02*
X499438Y148668D01*
X501438D01*
X502437Y147669D01*
Y143670D01*
X501438Y142670D01*
X499438D01*
X498439Y143670D01*
Y147669D01*
X504437Y142670D02*
Y146669D01*
X507436D01*
X508436Y145669D01*
Y142670D01*
X514434Y148668D02*
X510435D01*
Y145669D01*
X512434D01*
X510435D01*
Y142670D01*
X520432Y148668D02*
X518432Y147669D01*
X516433Y145669D01*
Y143670D01*
X517433Y142670D01*
X519432D01*
X520432Y143670D01*
Y144670D01*
X519432Y145669D01*
X516433D01*
X145922Y374954D02*
X147922D01*
X146922D01*
Y380952D01*
X145922Y379952D01*
X150921D02*
X151920Y380952D01*
X153920D01*
X154919Y379952D01*
Y375953D01*
X153920Y374954D01*
X151920D01*
X150921Y375953D01*
Y379952D01*
X156919D02*
X157919Y380952D01*
X159918D01*
X160917Y379952D01*
Y375953D01*
X159918Y374954D01*
X157919D01*
X156919Y375953D01*
Y379952D01*
X162917Y374954D02*
Y378952D01*
X165916D01*
X166916Y377953D01*
Y374954D01*
X172914Y380952D02*
X168915D01*
Y377953D01*
X170914D01*
X168915D01*
Y374954D01*
X174913D02*
X176912D01*
X175913D01*
Y380952D01*
X174913Y379952D01*
X487128Y154481D02*
Y160479D01*
X490127D01*
X491126Y159480D01*
Y157480D01*
X490127Y156481D01*
X487128D01*
X489127D02*
X491126Y154481D01*
X497124Y160479D02*
X495125Y159480D01*
X493126Y157480D01*
Y155481D01*
X494125Y154481D01*
X496125D01*
X497124Y155481D01*
Y156481D01*
X496125Y157480D01*
X493126D01*
X169230Y363143D02*
Y369141D01*
X172229D01*
X173228Y368141D01*
Y366142D01*
X172229Y365142D01*
X169230D01*
X171229D02*
X173228Y363143D01*
X175228D02*
X177227D01*
X176227D01*
Y369141D01*
X175228Y368141D01*
M02*
