M48
;Layer_Color=9474304
;FILE_FORMAT=2:4
INCH,TZ
;TYPE=PLATED
T1F00S00C0.0236
%
G90
G05
T01
G00X32244Y15748
M15
G01X32323
M16
G00X32992Y15748
M15
G01X33071
M16
G00X33740Y15748
M15
G01X33819
M16
G00X38150Y15748
M15
G01X38228
M16
G00X38898Y15748
M15
G01X38976
M16
G00X39646Y15748
M15
G01X39724
M16
G00X44055Y15748
M15
G01X44134
M16
G00X44803Y15748
M15
G01X44882
M16
G00X45551Y15748
M15
G01X45630
M16
G00X27835Y15748
M15
G01X27913
M16
G00X27087Y15748
M15
G01X27165
M16
G00X26339Y15748
M15
G01X26417
M16
G00X21929Y15748
M15
G01X22008
M16
G00X21181Y15748
M15
G01X21260
M16
G00X20433Y15748
M15
G01X20512
M16
G00X20591Y36614
M15
G01X20512
M16
G00X21339Y36614
M15
G01X21260
M16
G00X22087Y36614
M15
G01X22008
M16
G00X26496Y36614
M15
G01X26417
M16
G00X27244Y36614
M15
G01X27165
M16
G00X27992Y36614
M15
G01X27913
M16
G00X32402Y36614
M15
G01X32323
M16
G00X33150Y36614
M15
G01X33071
M16
G00X33898Y36614
M15
G01X33819
M16
G00X38307Y36614
M15
G01X38228
M16
G00X39055Y36614
M15
G01X38976
M16
G00X39803Y36614
M15
G01X39724
M16
G00X44213Y36614
M15
G01X44134
M16
G00X44961Y36614
M15
G01X44882
M16
G00X45709Y36614
M15
G01X45630
M16
M30
