M48
;Layer_Color=9474304
;FILE_FORMAT=2:4
INCH,TZ
;TYPE=PLATED
T2F00S00C0.0280
T3F00S00C0.0787
T4F00S00C0.0984
T5F00S00C0.1240
%
T02
X18494Y13769
X24409Y13386
X29921
X35827
X41704Y13408
X47638Y13386
X49213Y15748
X53150Y19291
Y22047
Y26378
X53156Y28812
X53150Y29921
X47524Y28125
X48499Y23760
X44882Y25197
Y28346
X42150Y28318
X39370Y28346
X37008Y28740
X36911Y24814
X34646Y24016
X35433Y19685
X38583
X40945
X42520Y15748
X36614
X42913Y23622
X31102Y24016
X29134
X29256Y25442
X29134Y27953
X27559Y27954
X23228Y28346
X20001Y28012
X19291Y28346
X18219Y23986
X20866Y24016
X23228Y19685
X27559
X28641Y19675
X31102Y19685
X29528Y17717
X30709Y15748
X25197
X13780Y19291
Y21654
X13773Y22764
X13780Y28740
Y29921
X16142Y36614
Y37795
X22835Y38553
X23622Y37795
Y36614
X29528
Y37795
X35433
Y36614
X41339
Y37795
T03
X20244Y14695
X22244Y14748
X26150Y14695
X28150Y14748
X32055Y14695
X34055Y14748
X37961Y14695
X39961Y14748
X43866Y14695
X45866Y14748
X28181Y37667
X26181Y37614
X22276Y37667
X20276Y37614
X32087
X34087Y37667
X37992Y37614
X39992Y37667
X43898Y37614
X45898Y37667
T04
X13780Y13780
X53150
X13780Y37402
X53150
T05
X33031Y17756
X38937
X44843
X27126
X21220
X21299Y34606
X27205
X33110
X39016
X44921
M30
