M48
;Layer_Color=9474304
;FILE_FORMAT=2:4
INCH,TZ
;TYPE=PLATED
T1F00S00C0.0217
%
G90
G05
T01
G00X32242Y15748
M15
G01X32325
M16
G00X32990Y15748
M15
G01X33073
M16
G00X33738Y15748
M15
G01X33821
M16
G00X38147Y15748
M15
G01X38231
M16
G00X38895Y15748
M15
G01X38979
M16
G00X39643Y15748
M15
G01X39727
M16
G00X44053Y15748
M15
G01X44136
M16
G00X44801Y15748
M15
G01X44884
M16
G00X45549Y15748
M15
G01X45632
M16
G00X27832Y15748
M15
G01X27916
M16
G00X27084Y15748
M15
G01X27168
M16
G00X26336Y15748
M15
G01X26420
M16
G00X21927Y15748
M15
G01X22010
M16
G00X21179Y15748
M15
G01X21262
M16
G00X20431Y15748
M15
G01X20514
M16
G00X20593Y36614
M15
G01X20509
M16
G00X21341Y36614
M15
G01X21257
M16
G00X22089Y36614
M15
G01X22006
M16
G00X26498Y36614
M15
G01X26415
M16
G00X27246Y36614
M15
G01X27163
M16
G00X27994Y36614
M15
G01X27911
M16
G00X32404Y36614
M15
G01X32320
M16
G00X33152Y36614
M15
G01X33068
M16
G00X33900Y36614
M15
G01X33817
M16
G00X38309Y36614
M15
G01X38226
M16
G00X39057Y36614
M15
G01X38974
M16
G00X39806Y36614
M15
G01X39722
M16
G00X44215Y36614
M15
G01X44131
M16
G00X44963Y36614
M15
G01X44880
M16
G00X45711Y36614
M15
G01X45628
M16
M30
