G04*
G04 #@! TF.GenerationSoftware,Altium Limited,Altium Designer,20.2.6 (244)*
G04*
G04 Layer_Physical_Order=1*
G04 Layer_Color=255*
%FSLAX25Y25*%
%MOIN*%
G70*
G04*
G04 #@! TF.SameCoordinates,C3CFCC7E-9F89-4B9A-AE3B-C644BB7EF500*
G04*
G04*
G04 #@! TF.FilePolarity,Positive*
G04*
G01*
G75*
%ADD12C,0.01000*%
%ADD13R,0.12500X0.04488*%
%ADD14R,0.04182X0.04469*%
%ADD15R,0.04469X0.04182*%
%ADD25C,0.05000*%
%ADD26R,0.06496X0.06496*%
%ADD27C,0.06496*%
%ADD28R,0.04724X0.04724*%
%ADD29C,0.04724*%
%ADD30C,0.07874*%
%ADD31R,0.03937X0.03937*%
%ADD32C,0.12402*%
%ADD33C,0.05000*%
%ADD34C,0.09843*%
G36*
X448111Y393201D02*
X447905Y393174D01*
X447054Y392821D01*
X446323Y392260D01*
X445762Y391529D01*
X445409Y390677D01*
X445289Y389764D01*
X445409Y388850D01*
X445762Y387999D01*
X445959Y387742D01*
X445738Y387293D01*
X442059D01*
X441742Y387356D01*
X422431D01*
X422115Y387293D01*
X404656D01*
X404435Y387742D01*
X404632Y387999D01*
X404985Y388850D01*
X405105Y389764D01*
X404985Y390677D01*
X404632Y391529D01*
X404071Y392260D01*
X403340Y392821D01*
X402489Y393174D01*
X402283Y393201D01*
X402315Y393701D01*
X448078D01*
X448111Y393201D01*
D02*
G37*
G36*
X400867D02*
X400661Y393174D01*
X399810Y392821D01*
X399079Y392260D01*
X398518Y391529D01*
X398165Y390677D01*
X398045Y389764D01*
X398165Y388850D01*
X398518Y387999D01*
X398667Y387805D01*
X398445Y387356D01*
X374894D01*
X374578Y387293D01*
X357412D01*
X357191Y387742D01*
X357388Y387999D01*
X357741Y388850D01*
X357861Y389764D01*
X357741Y390677D01*
X357388Y391529D01*
X356827Y392260D01*
X356096Y392821D01*
X355244Y393174D01*
X355038Y393201D01*
X355071Y393701D01*
X400834D01*
X400867Y393201D01*
D02*
G37*
G36*
X353623D02*
X353417Y393174D01*
X352566Y392821D01*
X351835Y392260D01*
X351273Y391529D01*
X350921Y390677D01*
X350800Y389764D01*
X350921Y388850D01*
X351273Y387999D01*
X351422Y387805D01*
X351201Y387356D01*
X327650D01*
X327334Y387293D01*
X310168D01*
X309947Y387742D01*
X310144Y387999D01*
X310496Y388850D01*
X310617Y389764D01*
X310496Y390677D01*
X310144Y391529D01*
X309583Y392260D01*
X308852Y392821D01*
X308000Y393174D01*
X307794Y393201D01*
X307827Y393701D01*
X353590D01*
X353623Y393201D01*
D02*
G37*
G36*
X306379D02*
X306173Y393174D01*
X305322Y392821D01*
X304590Y392260D01*
X304029Y391529D01*
X303677Y390677D01*
X303556Y389764D01*
X303677Y388850D01*
X304029Y387999D01*
X304178Y387805D01*
X303957Y387356D01*
X281528D01*
X281211Y387293D01*
X262924D01*
X262702Y387742D01*
X262900Y387999D01*
X263252Y388850D01*
X263373Y389764D01*
X263252Y390677D01*
X262900Y391529D01*
X262339Y392260D01*
X261608Y392821D01*
X260756Y393174D01*
X260550Y393201D01*
X260583Y393701D01*
X306346D01*
X306379Y393201D01*
D02*
G37*
G36*
X259135D02*
X258929Y393174D01*
X258077Y392821D01*
X257346Y392260D01*
X256785Y391529D01*
X256433Y390677D01*
X256312Y389764D01*
X256433Y388850D01*
X256785Y387999D01*
X256982Y387742D01*
X256761Y387293D01*
X219617D01*
X219395Y387742D01*
X219593Y387999D01*
X219945Y388850D01*
X220066Y389764D01*
X219945Y390677D01*
X219593Y391529D01*
X219032Y392260D01*
X218301Y392821D01*
X217449Y393174D01*
X217243Y393201D01*
X217276Y393701D01*
X259102D01*
X259135Y393201D01*
D02*
G37*
G36*
X215828D02*
X215622Y393174D01*
X214770Y392821D01*
X214039Y392260D01*
X213478Y391529D01*
X213125Y390677D01*
X213005Y389764D01*
X213125Y388850D01*
X213478Y387999D01*
X213627Y387805D01*
X213406Y387356D01*
X183994D01*
X183678Y387293D01*
X168436D01*
X168214Y387742D01*
X168412Y387999D01*
X168764Y388850D01*
X168885Y389764D01*
X168764Y390677D01*
X168412Y391529D01*
X167851Y392260D01*
X167119Y392821D01*
X166268Y393174D01*
X166062Y393201D01*
X166095Y393701D01*
X215795D01*
X215828Y393201D01*
D02*
G37*
G36*
X547244Y118110D02*
X118110D01*
Y393701D01*
X164614D01*
X164646Y393201D01*
X164441Y393174D01*
X163589Y392821D01*
X162858Y392260D01*
X162297Y391529D01*
X161944Y390677D01*
X161824Y389764D01*
X161944Y388850D01*
X162297Y387999D01*
X162494Y387742D01*
X162273Y387293D01*
X159518D01*
X159201Y387356D01*
X152761D01*
X152664Y387592D01*
X152102Y388323D01*
X151371Y388884D01*
X150520Y389237D01*
X149606Y389357D01*
X148693Y389237D01*
X147841Y388884D01*
X147110Y388323D01*
X146549Y387592D01*
X146196Y386740D01*
X146076Y385827D01*
X146196Y384913D01*
X146549Y384062D01*
X147110Y383330D01*
X147841Y382769D01*
X148693Y382417D01*
X149606Y382297D01*
X150520Y382417D01*
X151371Y382769D01*
X152102Y383330D01*
X152664Y384062D01*
X152761Y384297D01*
X158948D01*
X159264Y384234D01*
X183931D01*
X184248Y384297D01*
X207132D01*
Y379370D01*
X206632Y379200D01*
X206277Y379663D01*
X205246Y380454D01*
X204045Y380952D01*
X202756Y381121D01*
X201467Y380952D01*
X200266Y380454D01*
X199235Y379663D01*
X198443Y378631D01*
X197946Y377431D01*
X197776Y376142D01*
X197946Y374853D01*
X198443Y373652D01*
X199235Y372621D01*
X200266Y371829D01*
X201467Y371332D01*
X202756Y371162D01*
X204045Y371332D01*
X205246Y371829D01*
X206277Y372621D01*
X206632Y373083D01*
X207132Y372914D01*
Y367671D01*
X202969D01*
Y369110D01*
X197031D01*
Y363173D01*
X202969D01*
Y364612D01*
X208076D01*
X208661Y364729D01*
X209157Y365060D01*
X209743Y365646D01*
X210074Y366142D01*
X210191Y366727D01*
Y384297D01*
X214562D01*
X214879Y384234D01*
X258313D01*
Y367671D01*
X250213D01*
Y369110D01*
X244276D01*
Y363173D01*
X250213D01*
Y364612D01*
X259257D01*
X259842Y364729D01*
X260338Y365060D01*
X260924Y365646D01*
X261256Y366142D01*
X261372Y366727D01*
Y384234D01*
X281465D01*
X281781Y384297D01*
X301620D01*
Y379926D01*
X301557Y379610D01*
Y379452D01*
X301057Y379282D01*
X300765Y379663D01*
X299734Y380454D01*
X298533Y380952D01*
X297244Y381121D01*
X295955Y380952D01*
X294754Y380454D01*
X293723Y379663D01*
X292932Y378631D01*
X292434Y377431D01*
X292265Y376142D01*
X292434Y374853D01*
X292932Y373652D01*
X293723Y372621D01*
X294754Y371829D01*
X295955Y371332D01*
X297244Y371162D01*
X298533Y371332D01*
X299734Y371829D01*
X300765Y372621D01*
X301057Y373001D01*
X301557Y372831D01*
Y367671D01*
X297457D01*
Y369110D01*
X291520D01*
Y363173D01*
X297457D01*
Y364612D01*
X302501D01*
X303086Y364729D01*
X303582Y365060D01*
X304168Y365646D01*
X304500Y366142D01*
X304616Y366727D01*
Y379356D01*
X304679Y379673D01*
Y384112D01*
X305179Y384284D01*
X305430Y384234D01*
X327587D01*
X327904Y384297D01*
X348864D01*
Y379926D01*
X348801Y379610D01*
Y379452D01*
X348301Y379282D01*
X348009Y379663D01*
X346978Y380454D01*
X345777Y380952D01*
X344488Y381121D01*
X343199Y380952D01*
X341998Y380454D01*
X340967Y379663D01*
X340176Y378631D01*
X339678Y377431D01*
X339509Y376142D01*
X339678Y374853D01*
X340176Y373652D01*
X340967Y372621D01*
X341998Y371829D01*
X343199Y371332D01*
X344488Y371162D01*
X345777Y371332D01*
X346978Y371829D01*
X348009Y372621D01*
X348301Y373001D01*
X348801Y372831D01*
Y367671D01*
X344701D01*
Y369110D01*
X338764D01*
Y363173D01*
X344701D01*
Y364612D01*
X349745D01*
X350330Y364729D01*
X350826Y365060D01*
X351412Y365646D01*
X351744Y366142D01*
X351860Y366727D01*
Y379356D01*
X351923Y379673D01*
Y384112D01*
X352423Y384284D01*
X352674Y384234D01*
X374831D01*
X375148Y384297D01*
X396108D01*
Y379926D01*
X396045Y379610D01*
Y379452D01*
X395545Y379282D01*
X395253Y379663D01*
X394222Y380454D01*
X393021Y380952D01*
X391732Y381121D01*
X390443Y380952D01*
X389243Y380454D01*
X388211Y379663D01*
X387420Y378631D01*
X386922Y377431D01*
X386753Y376142D01*
X386922Y374853D01*
X387420Y373652D01*
X388211Y372621D01*
X389243Y371829D01*
X390443Y371332D01*
X391732Y371162D01*
X393021Y371332D01*
X394222Y371829D01*
X395253Y372621D01*
X395545Y373001D01*
X396045Y372831D01*
Y367671D01*
X391945D01*
Y369110D01*
X386008D01*
Y363173D01*
X391945D01*
Y364612D01*
X396989D01*
X397574Y364729D01*
X398070Y365060D01*
X398656Y365646D01*
X398988Y366142D01*
X399104Y366727D01*
Y379356D01*
X399167Y379673D01*
Y384112D01*
X399667Y384284D01*
X399918Y384234D01*
X422368D01*
X422685Y384297D01*
X441488D01*
X441805Y384234D01*
X443353D01*
Y379370D01*
X442852Y379200D01*
X442497Y379663D01*
X441466Y380454D01*
X440265Y380952D01*
X438976Y381121D01*
X437688Y380952D01*
X436487Y380454D01*
X435455Y379663D01*
X434664Y378631D01*
X434166Y377431D01*
X433997Y376142D01*
X434166Y374853D01*
X434664Y373652D01*
X435455Y372621D01*
X436487Y371829D01*
X437688Y371332D01*
X438976Y371162D01*
X440265Y371332D01*
X441466Y371829D01*
X442497Y372621D01*
X442852Y373083D01*
X443353Y372914D01*
Y367671D01*
X439189D01*
Y369110D01*
X433252D01*
Y363173D01*
X439189D01*
Y364612D01*
X444296D01*
X444881Y364729D01*
X445377Y365060D01*
X445963Y365646D01*
X446295Y366142D01*
X446411Y366727D01*
Y384234D01*
X490597D01*
Y379764D01*
X490097Y379594D01*
X489742Y380057D01*
X488710Y380848D01*
X487509Y381345D01*
X486221Y381515D01*
X484932Y381345D01*
X483731Y380848D01*
X482699Y380057D01*
X481908Y379025D01*
X481411Y377824D01*
X481241Y376535D01*
X481411Y375247D01*
X481908Y374046D01*
X482699Y373014D01*
X483731Y372223D01*
X484932Y371726D01*
X486221Y371556D01*
X487509Y371726D01*
X488710Y372223D01*
X489742Y373014D01*
X490097Y373477D01*
X490597Y373307D01*
Y367671D01*
X486433D01*
Y369504D01*
X480496D01*
Y363567D01*
X486433D01*
Y364612D01*
X491540D01*
X492126Y364729D01*
X492622Y365060D01*
X493207Y365646D01*
X493539Y366142D01*
X493655Y366727D01*
Y385178D01*
X493539Y385763D01*
X493207Y386259D01*
X492622Y386845D01*
X492126Y387177D01*
X491540Y387293D01*
X451900D01*
X451679Y387742D01*
X451876Y387999D01*
X452229Y388850D01*
X452349Y389764D01*
X452229Y390677D01*
X451876Y391529D01*
X451315Y392260D01*
X450584Y392821D01*
X449733Y393174D01*
X449527Y393201D01*
X449559Y393701D01*
X547244D01*
Y118110D01*
D02*
G37*
%LPC*%
G36*
X466221Y382047D02*
X464932Y381877D01*
X463731Y381379D01*
X462699Y380588D01*
X461908Y379557D01*
X461411Y378356D01*
X461241Y377067D01*
X461411Y375778D01*
X461908Y374577D01*
X462699Y373546D01*
X463731Y372755D01*
X464932Y372257D01*
X466221Y372087D01*
X467509Y372257D01*
X468710Y372755D01*
X469742Y373546D01*
X470533Y374577D01*
X471030Y375778D01*
X471200Y377067D01*
X471030Y378356D01*
X470533Y379557D01*
X469742Y380588D01*
X468710Y381379D01*
X467509Y381877D01*
X466221Y382047D01*
D02*
G37*
G36*
X418976Y381653D02*
X417688Y381483D01*
X416487Y380986D01*
X415455Y380194D01*
X414664Y379163D01*
X414166Y377962D01*
X413997Y376673D01*
X414166Y375384D01*
X414664Y374183D01*
X415455Y373152D01*
X416487Y372361D01*
X417688Y371863D01*
X418976Y371694D01*
X420265Y371863D01*
X421466Y372361D01*
X422498Y373152D01*
X423289Y374183D01*
X423786Y375384D01*
X423956Y376673D01*
X423786Y377962D01*
X423289Y379163D01*
X422498Y380194D01*
X421466Y380986D01*
X420265Y381483D01*
X418976Y381653D01*
D02*
G37*
G36*
X371732D02*
X370444Y381483D01*
X369243Y380986D01*
X368211Y380194D01*
X367420Y379163D01*
X366922Y377962D01*
X366753Y376673D01*
X366922Y375384D01*
X367420Y374183D01*
X368211Y373152D01*
X369243Y372361D01*
X370444Y371863D01*
X371732Y371694D01*
X373021Y371863D01*
X374222Y372361D01*
X375253Y373152D01*
X376045Y374183D01*
X376542Y375384D01*
X376712Y376673D01*
X376542Y377962D01*
X376045Y379163D01*
X375253Y380194D01*
X374222Y380986D01*
X373021Y381483D01*
X371732Y381653D01*
D02*
G37*
G36*
X324488D02*
X323199Y381483D01*
X321998Y380986D01*
X320967Y380194D01*
X320176Y379163D01*
X319678Y377962D01*
X319509Y376673D01*
X319678Y375384D01*
X320176Y374183D01*
X320967Y373152D01*
X321998Y372361D01*
X323199Y371863D01*
X324488Y371694D01*
X325777Y371863D01*
X326978Y372361D01*
X328009Y373152D01*
X328801Y374183D01*
X329298Y375384D01*
X329468Y376673D01*
X329298Y377962D01*
X328801Y379163D01*
X328009Y380194D01*
X326978Y380986D01*
X325777Y381483D01*
X324488Y381653D01*
D02*
G37*
G36*
X277244D02*
X275955Y381483D01*
X274754Y380986D01*
X273723Y380194D01*
X272932Y379163D01*
X272434Y377962D01*
X272265Y376673D01*
X272434Y375384D01*
X272932Y374183D01*
X273723Y373152D01*
X274754Y372361D01*
X275955Y371863D01*
X277244Y371694D01*
X278533Y371863D01*
X279734Y372361D01*
X280765Y373152D01*
X281557Y374183D01*
X282054Y375384D01*
X282224Y376673D01*
X282054Y377962D01*
X281557Y379163D01*
X280765Y380194D01*
X279734Y380986D01*
X278533Y381483D01*
X277244Y381653D01*
D02*
G37*
G36*
X230000D02*
X228711Y381483D01*
X227510Y380986D01*
X226479Y380194D01*
X225688Y379163D01*
X225190Y377962D01*
X225020Y376673D01*
X225190Y375384D01*
X225688Y374183D01*
X226479Y373152D01*
X227510Y372361D01*
X228711Y371863D01*
X230000Y371694D01*
X231289Y371863D01*
X232490Y372361D01*
X233521Y373152D01*
X234313Y374183D01*
X234810Y375384D01*
X234980Y376673D01*
X234810Y377962D01*
X234313Y379163D01*
X233521Y380194D01*
X232490Y380986D01*
X231289Y381483D01*
X230000Y381653D01*
D02*
G37*
G36*
X182756D02*
X181467Y381483D01*
X180266Y380986D01*
X179235Y380194D01*
X178443Y379163D01*
X177946Y377962D01*
X177776Y376673D01*
X177946Y375384D01*
X178443Y374183D01*
X179235Y373152D01*
X180266Y372361D01*
X181467Y371863D01*
X182756Y371694D01*
X184045Y371863D01*
X185246Y372361D01*
X186277Y373152D01*
X187068Y374183D01*
X187566Y375384D01*
X187735Y376673D01*
X187566Y377962D01*
X187068Y379163D01*
X186277Y380194D01*
X185246Y380986D01*
X184045Y381483D01*
X182756Y381653D01*
D02*
G37*
G36*
X250000Y381121D02*
X248711Y380952D01*
X247510Y380454D01*
X246479Y379663D01*
X245688Y378631D01*
X245190Y377431D01*
X245020Y376142D01*
X245190Y374853D01*
X245688Y373652D01*
X246479Y372621D01*
X247510Y371829D01*
X248711Y371332D01*
X250000Y371162D01*
X251289Y371332D01*
X252490Y371829D01*
X253521Y372621D01*
X254312Y373652D01*
X254810Y374853D01*
X254980Y376142D01*
X254810Y377431D01*
X254312Y378631D01*
X253521Y379663D01*
X252490Y380454D01*
X251289Y380952D01*
X250000Y381121D01*
D02*
G37*
G36*
X531496Y379966D02*
X530335Y379851D01*
X529219Y379513D01*
X528191Y378963D01*
X527289Y378223D01*
X526549Y377321D01*
X525999Y376293D01*
X525661Y375177D01*
X525546Y374016D01*
X525661Y372855D01*
X525999Y371739D01*
X526549Y370710D01*
X527289Y369809D01*
X528191Y369069D01*
X529219Y368519D01*
X530335Y368180D01*
X531496Y368066D01*
X532657Y368180D01*
X533773Y368519D01*
X534802Y369069D01*
X535703Y369809D01*
X536443Y370710D01*
X536993Y371739D01*
X537332Y372855D01*
X537446Y374016D01*
X537332Y375177D01*
X536993Y376293D01*
X536443Y377321D01*
X535703Y378223D01*
X534802Y378963D01*
X533773Y379513D01*
X532657Y379851D01*
X531496Y379966D01*
D02*
G37*
G36*
X137795D02*
X136635Y379851D01*
X135518Y379513D01*
X134490Y378963D01*
X133588Y378223D01*
X132848Y377321D01*
X132298Y376293D01*
X131960Y375177D01*
X131845Y374016D01*
X131960Y372855D01*
X132298Y371739D01*
X132848Y370710D01*
X133588Y369809D01*
X134490Y369069D01*
X135518Y368519D01*
X136635Y368180D01*
X137795Y368066D01*
X138956Y368180D01*
X140072Y368519D01*
X141101Y369069D01*
X142002Y369809D01*
X142743Y370710D01*
X143292Y371739D01*
X143631Y372855D01*
X143745Y374016D01*
X143631Y375177D01*
X143292Y376293D01*
X142743Y377321D01*
X142002Y378223D01*
X141101Y378963D01*
X140072Y379513D01*
X138956Y379851D01*
X137795Y379966D01*
D02*
G37*
G36*
X471472Y369504D02*
X465535D01*
Y363567D01*
X471472D01*
Y369504D01*
D02*
G37*
G36*
X424228Y369110D02*
X418291D01*
Y363173D01*
X424228D01*
Y369110D01*
D02*
G37*
G36*
X376984D02*
X371047D01*
Y363173D01*
X376984D01*
Y369110D01*
D02*
G37*
G36*
X329740D02*
X323803D01*
Y363173D01*
X329740D01*
Y369110D01*
D02*
G37*
G36*
X282496D02*
X276559D01*
Y363173D01*
X282496D01*
Y369110D01*
D02*
G37*
G36*
X235252D02*
X229315D01*
Y363173D01*
X235252D01*
Y369110D01*
D02*
G37*
G36*
X188008D02*
X182071D01*
Y363173D01*
X188008D01*
Y369110D01*
D02*
G37*
G36*
X137795Y353924D02*
X136882Y353804D01*
X136030Y353451D01*
X135299Y352890D01*
X134738Y352159D01*
X134385Y351307D01*
X134265Y350394D01*
X134385Y349480D01*
X134738Y348629D01*
X135299Y347898D01*
X136030Y347337D01*
X136882Y346984D01*
X137795Y346864D01*
X138709Y346984D01*
X139560Y347337D01*
X140292Y347898D01*
X140852Y348629D01*
X141205Y349480D01*
X141325Y350394D01*
X141205Y351307D01*
X140852Y352159D01*
X140292Y352890D01*
X139560Y353451D01*
X138709Y353804D01*
X137795Y353924D01*
D02*
G37*
G36*
X478953Y369504D02*
X473016D01*
Y363567D01*
X474455D01*
Y355860D01*
X469090D01*
X468504Y355744D01*
X468008Y355412D01*
X467202Y354606D01*
X466870Y354110D01*
X466754Y353524D01*
Y288931D01*
X431641D01*
Y290492D01*
X418752D01*
Y284311D01*
X419686D01*
Y277750D01*
X348205D01*
Y278835D01*
X333705D01*
Y272346D01*
X348205D01*
Y274691D01*
X420630D01*
X421215Y274808D01*
X421711Y275139D01*
X422297Y275725D01*
X422629Y276221D01*
X422745Y276806D01*
Y284311D01*
X431641D01*
Y285872D01*
X468284D01*
X468869Y285989D01*
X469365Y286320D01*
X469696Y286816D01*
X469813Y287402D01*
Y341838D01*
X470313Y342017D01*
X470868Y341340D01*
X471964Y340441D01*
X473215Y339772D01*
X474573Y339360D01*
X475984Y339221D01*
X477396Y339360D01*
X478753Y339772D01*
X480004Y340441D01*
X481101Y341340D01*
X482000Y342437D01*
X482669Y343688D01*
X483081Y345045D01*
X483220Y346457D01*
X483081Y347868D01*
X482669Y349226D01*
X482000Y350477D01*
X481101Y351573D01*
X480004Y352473D01*
X478753Y353141D01*
X477451Y353537D01*
X477342Y353716D01*
X477224Y354073D01*
X477397Y354331D01*
X477514Y354917D01*
Y363567D01*
X478953D01*
Y369504D01*
D02*
G37*
G36*
X354331Y346050D02*
X353417Y345930D01*
X352566Y345577D01*
X351835Y345016D01*
X351273Y344285D01*
X350921Y343433D01*
X350800Y342520D01*
X350921Y341606D01*
X351273Y340755D01*
X351835Y340023D01*
X352566Y339462D01*
X353417Y339110D01*
X354331Y338989D01*
X355244Y339110D01*
X356096Y339462D01*
X356827Y340023D01*
X357388Y340755D01*
X357741Y341606D01*
X357861Y342520D01*
X357741Y343433D01*
X357388Y344285D01*
X356827Y345016D01*
X356096Y345577D01*
X355244Y345930D01*
X354331Y346050D01*
D02*
G37*
G36*
X307087D02*
X306173Y345930D01*
X305322Y345577D01*
X304590Y345016D01*
X304029Y344285D01*
X303677Y343433D01*
X303556Y342520D01*
X303677Y341606D01*
X304029Y340755D01*
X304590Y340023D01*
X305322Y339462D01*
X306173Y339110D01*
X307087Y338989D01*
X308000Y339110D01*
X308852Y339462D01*
X309583Y340023D01*
X310144Y340755D01*
X310496Y341606D01*
X310617Y342520D01*
X310496Y343433D01*
X310144Y344285D01*
X309583Y345016D01*
X308852Y345577D01*
X308000Y345930D01*
X307087Y346050D01*
D02*
G37*
G36*
X259842D02*
X258929Y345930D01*
X258077Y345577D01*
X257346Y345016D01*
X256785Y344285D01*
X256433Y343433D01*
X256312Y342520D01*
X256433Y341606D01*
X256785Y340755D01*
X257346Y340023D01*
X258077Y339462D01*
X258929Y339110D01*
X259842Y338989D01*
X260756Y339110D01*
X261608Y339462D01*
X262339Y340023D01*
X262900Y340755D01*
X263252Y341606D01*
X263373Y342520D01*
X263252Y343433D01*
X262900Y344285D01*
X262339Y345016D01*
X261608Y345577D01*
X260756Y345930D01*
X259842Y346050D01*
D02*
G37*
G36*
X212598D02*
X211685Y345930D01*
X210833Y345577D01*
X210102Y345016D01*
X209541Y344285D01*
X209189Y343433D01*
X209068Y342520D01*
X209189Y341606D01*
X209541Y340755D01*
X210102Y340023D01*
X210833Y339462D01*
X211685Y339110D01*
X212598Y338989D01*
X213512Y339110D01*
X214364Y339462D01*
X215095Y340023D01*
X215656Y340755D01*
X216008Y341606D01*
X216129Y342520D01*
X216008Y343433D01*
X215656Y344285D01*
X215095Y345016D01*
X214364Y345577D01*
X213512Y345930D01*
X212598Y346050D01*
D02*
G37*
G36*
X165354D02*
X164441Y345930D01*
X163589Y345577D01*
X162858Y345016D01*
X162297Y344285D01*
X161944Y343433D01*
X161824Y342520D01*
X161944Y341606D01*
X162297Y340755D01*
X162858Y340023D01*
X163589Y339462D01*
X164441Y339110D01*
X165354Y338989D01*
X166268Y339110D01*
X167119Y339462D01*
X167851Y340023D01*
X168412Y340755D01*
X168764Y341606D01*
X168885Y342520D01*
X168764Y343433D01*
X168412Y344285D01*
X167851Y345016D01*
X167119Y345577D01*
X166268Y345930D01*
X165354Y346050D01*
D02*
G37*
G36*
X431709Y369110D02*
X425772D01*
Y363173D01*
X427211D01*
Y355860D01*
X421846D01*
X421260Y355744D01*
X420764Y355412D01*
X419958Y354606D01*
X419626Y354110D01*
X419510Y353524D01*
Y300742D01*
X399418D01*
Y302303D01*
X386529D01*
Y296122D01*
X388234D01*
Y288035D01*
X387949Y287750D01*
X348205D01*
Y288835D01*
X333705D01*
Y282347D01*
X348205D01*
Y284691D01*
X388583D01*
X389168Y284807D01*
X389664Y285139D01*
X390845Y286320D01*
X391177Y286816D01*
X391293Y287402D01*
Y296122D01*
X399418D01*
Y297683D01*
X420454D01*
X421039Y297800D01*
X421535Y298131D01*
X422121Y298717D01*
X422452Y299213D01*
X422569Y299798D01*
Y341444D01*
X423069Y341623D01*
X423624Y340947D01*
X424720Y340047D01*
X425971Y339378D01*
X427328Y338966D01*
X428740Y338827D01*
X430152Y338966D01*
X431509Y339378D01*
X432760Y340047D01*
X433856Y340947D01*
X434756Y342043D01*
X435425Y343294D01*
X435837Y344651D01*
X435976Y346063D01*
X435837Y347475D01*
X435425Y348832D01*
X434756Y350083D01*
X433856Y351179D01*
X432760Y352079D01*
X431509Y352748D01*
X430152Y353160D01*
X429818Y353192D01*
X429650Y353663D01*
X429822Y353835D01*
X430153Y354331D01*
X430269Y354917D01*
Y363173D01*
X431709D01*
Y369110D01*
D02*
G37*
G36*
X384465D02*
X378528D01*
Y363173D01*
X379967D01*
Y355860D01*
X374602D01*
X374016Y355744D01*
X373520Y355412D01*
X372714Y354606D01*
X372382Y354110D01*
X372266Y353524D01*
Y310177D01*
X359697D01*
Y303996D01*
X361402D01*
Y296805D01*
X348205D01*
Y298835D01*
X333705D01*
Y292347D01*
X348205D01*
Y293746D01*
X362205D01*
X362790Y293863D01*
X363286Y294194D01*
X364013Y294921D01*
X364345Y295417D01*
X364461Y296002D01*
Y303996D01*
X372586D01*
Y305557D01*
X373210D01*
X373795Y305674D01*
X374291Y306005D01*
X374877Y306591D01*
X375208Y307087D01*
X375325Y307672D01*
Y341444D01*
X375825Y341623D01*
X376380Y340947D01*
X377476Y340047D01*
X378727Y339378D01*
X380084Y338966D01*
X381496Y338827D01*
X382908Y338966D01*
X384265Y339378D01*
X385516Y340047D01*
X386612Y340947D01*
X387512Y342043D01*
X388181Y343294D01*
X388593Y344651D01*
X388732Y346063D01*
X388593Y347475D01*
X388181Y348832D01*
X387512Y350083D01*
X386612Y351179D01*
X385516Y352079D01*
X384265Y352748D01*
X382908Y353160D01*
X382574Y353192D01*
X382406Y353663D01*
X382577Y353835D01*
X382909Y354331D01*
X383026Y354917D01*
Y363173D01*
X384465D01*
Y369110D01*
D02*
G37*
G36*
X289976D02*
X284039D01*
Y363173D01*
X285478D01*
Y356446D01*
X280113D01*
X279528Y356329D01*
X279032Y355998D01*
X278226Y355192D01*
X277894Y354696D01*
X277778Y354110D01*
Y319483D01*
X277894Y318898D01*
X278226Y318402D01*
X278811Y317816D01*
X279308Y317485D01*
X279893Y317368D01*
X280957D01*
Y315807D01*
X289082D01*
Y307813D01*
X289199Y307228D01*
X289530Y306732D01*
X290257Y306005D01*
X290753Y305674D01*
X291339Y305557D01*
X313213D01*
Y302346D01*
X327713D01*
Y308835D01*
X313213D01*
Y308616D01*
X292141D01*
Y315807D01*
X293846D01*
Y321989D01*
X280957D01*
X280837Y322439D01*
Y341444D01*
X281336Y341623D01*
X281891Y340947D01*
X282988Y340047D01*
X284239Y339378D01*
X285596Y338966D01*
X287008Y338827D01*
X288420Y338966D01*
X289777Y339378D01*
X291028Y340047D01*
X292124Y340947D01*
X293024Y342043D01*
X293693Y343294D01*
X294105Y344651D01*
X294244Y346063D01*
X294105Y347475D01*
X293693Y348832D01*
X293024Y350083D01*
X292124Y351179D01*
X291028Y352079D01*
X289777Y352748D01*
X288420Y353160D01*
X288035Y353197D01*
X287906Y353713D01*
X288089Y353835D01*
X288421Y354331D01*
X288537Y354917D01*
Y363173D01*
X289976D01*
Y369110D01*
D02*
G37*
G36*
X242732D02*
X236795D01*
Y363173D01*
X238234D01*
Y356446D01*
X232869D01*
X232284Y356329D01*
X231788Y355998D01*
X230981Y355192D01*
X230650Y354696D01*
X230534Y354110D01*
Y314813D01*
X230650Y314227D01*
X230981Y313731D01*
X234771Y309942D01*
X235267Y309611D01*
X235852Y309494D01*
X237650D01*
Y307933D01*
X245775D01*
Y297377D01*
X245892Y296792D01*
X246223Y296296D01*
X247638Y294882D01*
X248134Y294550D01*
X248719Y294434D01*
X249304Y294550D01*
X249515Y294691D01*
X313213D01*
Y292347D01*
X327713D01*
Y298835D01*
X313213D01*
Y297750D01*
X249095D01*
X248834Y298011D01*
Y307933D01*
X250539D01*
Y314114D01*
X237650D01*
Y312553D01*
X236486D01*
X233592Y315446D01*
Y341444D01*
X234092Y341623D01*
X234647Y340947D01*
X235744Y340047D01*
X236995Y339378D01*
X238352Y338966D01*
X239764Y338827D01*
X241175Y338966D01*
X242533Y339378D01*
X243784Y340047D01*
X244880Y340947D01*
X245780Y342043D01*
X246449Y343294D01*
X246860Y344651D01*
X246999Y346063D01*
X246860Y347475D01*
X246449Y348832D01*
X245780Y350083D01*
X244880Y351179D01*
X243784Y352079D01*
X242533Y352748D01*
X241175Y353160D01*
X240791Y353197D01*
X240662Y353713D01*
X240845Y353835D01*
X241177Y354331D01*
X241293Y354917D01*
Y363173D01*
X242732D01*
Y369110D01*
D02*
G37*
G36*
X195488D02*
X189551D01*
Y363173D01*
X190990D01*
Y356446D01*
X175268D01*
X174682Y356329D01*
X174186Y355998D01*
X172874Y354685D01*
X172542Y354189D01*
X172426Y353604D01*
Y302303D01*
X170721D01*
Y296122D01*
X183610D01*
Y297683D01*
X226655D01*
Y287564D01*
X226771Y286979D01*
X227103Y286482D01*
X228446Y285139D01*
X228942Y284807D01*
X229528Y284691D01*
X313213D01*
Y282347D01*
X327713D01*
Y288835D01*
X313213D01*
Y287750D01*
X230161D01*
X229714Y288197D01*
Y299213D01*
X229597Y299798D01*
X229266Y300294D01*
X228769Y300626D01*
X228184Y300742D01*
X183610D01*
Y302303D01*
X175485D01*
Y352970D01*
X175901Y353387D01*
X190136D01*
X190210Y352887D01*
X189751Y352748D01*
X188500Y352079D01*
X187403Y351179D01*
X186504Y350083D01*
X185835Y348832D01*
X185423Y347475D01*
X185284Y346063D01*
X185423Y344651D01*
X185835Y343294D01*
X186504Y342043D01*
X187403Y340947D01*
X188500Y340047D01*
X189751Y339378D01*
X191108Y338966D01*
X192520Y338827D01*
X193931Y338966D01*
X195289Y339378D01*
X196540Y340047D01*
X197636Y340947D01*
X198536Y342043D01*
X199205Y343294D01*
X199616Y344651D01*
X199755Y346063D01*
X199616Y347475D01*
X199205Y348832D01*
X198536Y350083D01*
X197636Y351179D01*
X196540Y352079D01*
X195289Y352748D01*
X193931Y353160D01*
X193547Y353197D01*
X193418Y353713D01*
X193601Y353835D01*
X193933Y354331D01*
X194049Y354917D01*
Y363173D01*
X195488D01*
Y369110D01*
D02*
G37*
G36*
X433071Y326365D02*
X432157Y326245D01*
X431306Y325892D01*
X430575Y325331D01*
X430014Y324600D01*
X429661Y323748D01*
X429541Y322835D01*
X429661Y321921D01*
X430014Y321070D01*
X430575Y320338D01*
X431306Y319777D01*
X432157Y319425D01*
X433071Y319304D01*
X433985Y319425D01*
X434836Y319777D01*
X435567Y320338D01*
X436128Y321070D01*
X436481Y321921D01*
X436601Y322835D01*
X436481Y323748D01*
X436128Y324600D01*
X435567Y325331D01*
X434836Y325892D01*
X433985Y326245D01*
X433071Y326365D01*
D02*
G37*
G36*
X385827D02*
X384913Y326245D01*
X384062Y325892D01*
X383330Y325331D01*
X382769Y324600D01*
X382417Y323748D01*
X382297Y322835D01*
X382417Y321921D01*
X382769Y321070D01*
X383330Y320338D01*
X384062Y319777D01*
X384913Y319425D01*
X385827Y319304D01*
X386740Y319425D01*
X387592Y319777D01*
X388323Y320338D01*
X388884Y321070D01*
X389237Y321921D01*
X389357Y322835D01*
X389237Y323748D01*
X388884Y324600D01*
X388323Y325331D01*
X387592Y325892D01*
X386740Y326245D01*
X385827Y326365D01*
D02*
G37*
G36*
X342957Y328333D02*
X342043Y328213D01*
X341192Y327860D01*
X340460Y327299D01*
X339899Y326568D01*
X339547Y325717D01*
X339427Y324803D01*
X339547Y323889D01*
X339899Y323038D01*
X340460Y322307D01*
X340990Y321900D01*
Y318835D01*
X333705D01*
Y312347D01*
X348205D01*
Y318835D01*
X344049D01*
Y321467D01*
X344722Y321746D01*
X345453Y322307D01*
X346014Y323038D01*
X346367Y323889D01*
X346487Y324803D01*
X346367Y325717D01*
X346014Y326568D01*
X345453Y327299D01*
X344722Y327860D01*
X343870Y328213D01*
X342957Y328333D01*
D02*
G37*
G36*
X322070D02*
X321156Y328213D01*
X320305Y327860D01*
X319574Y327299D01*
X319013Y326568D01*
X318660Y325717D01*
X318540Y324803D01*
X318660Y323889D01*
X319013Y323038D01*
X319574Y322307D01*
X320305Y321746D01*
X320541Y321648D01*
Y318835D01*
X313213D01*
Y312347D01*
X327713D01*
Y318835D01*
X323599D01*
Y321648D01*
X323835Y321746D01*
X324566Y322307D01*
X325127Y323038D01*
X325480Y323889D01*
X325600Y324803D01*
X325480Y325717D01*
X325127Y326568D01*
X324566Y327299D01*
X323835Y327860D01*
X322984Y328213D01*
X322070Y328333D01*
D02*
G37*
G36*
X337221Y369110D02*
X331283D01*
Y363173D01*
X332723D01*
Y354917D01*
X332839Y354331D01*
X333171Y353835D01*
X333342Y353663D01*
X333174Y353192D01*
X332840Y353160D01*
X331483Y352748D01*
X330232Y352079D01*
X329136Y351179D01*
X328236Y350083D01*
X327567Y348832D01*
X327155Y347475D01*
X327016Y346063D01*
X327155Y344651D01*
X327567Y343294D01*
X328236Y342043D01*
X329136Y340947D01*
X330232Y340047D01*
X331483Y339378D01*
X332840Y338966D01*
X334252Y338827D01*
X335664Y338966D01*
X337021Y339378D01*
X338272Y340047D01*
X339368Y340947D01*
X340268Y342043D01*
X340490Y342459D01*
X340990Y342333D01*
Y331294D01*
X341107Y330709D01*
X341438Y330213D01*
X342024Y329627D01*
X342520Y329296D01*
X343106Y329179D01*
X347886D01*
Y327618D01*
X356012D01*
Y307750D01*
X348205D01*
Y308835D01*
X333705D01*
Y302346D01*
X348205D01*
Y304691D01*
X356720D01*
X357305Y304807D01*
X357801Y305139D01*
X358622Y305960D01*
X358954Y306456D01*
X359070Y307042D01*
Y327618D01*
X360775D01*
Y333800D01*
X347886D01*
Y332238D01*
X344049D01*
Y353745D01*
X343933Y354330D01*
X343601Y354826D01*
X343015Y355412D01*
X342519Y355744D01*
X341934Y355860D01*
X335781D01*
Y363173D01*
X337221D01*
Y369110D01*
D02*
G37*
G36*
X327713Y278835D02*
X313213D01*
Y277750D01*
X236221Y277750D01*
X235635Y277633D01*
X235139Y277302D01*
X234807Y276806D01*
X234691Y276220D01*
X234759Y275880D01*
X234691Y275539D01*
Y215106D01*
X233130D01*
Y208637D01*
Y206981D01*
X224410D01*
X223824Y206864D01*
X223328Y206533D01*
X222996Y206036D01*
X222880Y205451D01*
Y170821D01*
X197037D01*
X196911Y171321D01*
X197327Y171543D01*
X198424Y172443D01*
X199323Y173539D01*
X199992Y174790D01*
X200404Y176147D01*
X200543Y177559D01*
X200404Y178971D01*
X199992Y180328D01*
X199323Y181579D01*
X198424Y182675D01*
X197327Y183575D01*
X196076Y184244D01*
X194719Y184656D01*
X193307Y184795D01*
X191895Y184656D01*
X190538Y184244D01*
X189287Y183575D01*
X188191Y182675D01*
X187291Y181579D01*
X186622Y180328D01*
X186211Y178971D01*
X186072Y177559D01*
X186211Y176147D01*
X186622Y174790D01*
X187291Y173539D01*
X188191Y172443D01*
X189287Y171543D01*
X190538Y170874D01*
X191895Y170463D01*
X192229Y170430D01*
X192397Y169959D01*
X192226Y169787D01*
X191894Y169291D01*
X191778Y168705D01*
Y160449D01*
X190339D01*
Y154512D01*
X196276D01*
Y160449D01*
X194836D01*
Y167762D01*
X223824D01*
X224409Y167878D01*
X224905Y168210D01*
X225491Y168796D01*
X225822Y169292D01*
X225939Y169877D01*
Y203922D01*
X233130D01*
Y202217D01*
X239311D01*
Y208637D01*
Y215106D01*
X237750D01*
Y274691D01*
X313213Y274691D01*
Y272346D01*
X327713D01*
Y278835D01*
D02*
G37*
G36*
X224410Y283997D02*
X223301Y283851D01*
X222267Y283423D01*
X221380Y282742D01*
X220699Y281855D01*
X220271Y280822D01*
X220125Y279713D01*
X220271Y278604D01*
X220699Y277570D01*
X221380Y276683D01*
X222267Y276002D01*
X223301Y275574D01*
X224410Y275428D01*
X225518Y275574D01*
X226552Y276002D01*
X227439Y276683D01*
X228120Y277570D01*
X228548Y278604D01*
X228694Y279713D01*
X228548Y280822D01*
X228120Y281855D01*
X227439Y282742D01*
X226552Y283423D01*
X225518Y283851D01*
X224410Y283997D01*
D02*
G37*
G36*
X208661D02*
X207553Y283851D01*
X206519Y283423D01*
X205632Y282742D01*
X204951Y281855D01*
X204523Y280822D01*
X204377Y279713D01*
X204523Y278604D01*
X204951Y277570D01*
X205632Y276683D01*
X206519Y276002D01*
X207553Y275574D01*
X208661Y275428D01*
X209770Y275574D01*
X210804Y276002D01*
X211691Y276683D01*
X212372Y277570D01*
X212800Y278604D01*
X212946Y279713D01*
X212800Y280822D01*
X212372Y281855D01*
X211691Y282742D01*
X210804Y283423D01*
X209770Y283851D01*
X208661Y283997D01*
D02*
G37*
G36*
X163386D02*
X162277Y283851D01*
X161243Y283423D01*
X160356Y282742D01*
X159675Y281855D01*
X159247Y280822D01*
X159101Y279713D01*
X159247Y278604D01*
X159675Y277570D01*
X160356Y276683D01*
X161243Y276002D01*
X162277Y275574D01*
X163386Y275428D01*
X164495Y275574D01*
X165528Y276002D01*
X166416Y276683D01*
X167096Y277570D01*
X167525Y278604D01*
X167671Y279713D01*
X167525Y280822D01*
X167096Y281855D01*
X166416Y282742D01*
X165528Y283423D01*
X164495Y283851D01*
X163386Y283997D01*
D02*
G37*
G36*
X147638D02*
X146529Y283851D01*
X145495Y283423D01*
X144608Y282742D01*
X143927Y281855D01*
X143499Y280822D01*
X143353Y279713D01*
X143499Y278604D01*
X143927Y277570D01*
X144608Y276683D01*
X145495Y276002D01*
X146529Y275574D01*
X147638Y275428D01*
X148747Y275574D01*
X149780Y276002D01*
X150668Y276683D01*
X151348Y277570D01*
X151777Y278604D01*
X151923Y279713D01*
X151777Y280822D01*
X151348Y281855D01*
X150668Y282742D01*
X149780Y283423D01*
X148747Y283851D01*
X147638Y283997D01*
D02*
G37*
G36*
X190790Y283776D02*
X182294D01*
Y275279D01*
X190790D01*
Y283776D01*
D02*
G37*
G36*
X320532Y269246D02*
X251969D01*
X251383Y269129D01*
X250887Y268798D01*
X250555Y268302D01*
X250439Y267717D01*
Y215106D01*
X248878D01*
Y208637D01*
Y202217D01*
X250439D01*
Y179139D01*
X250376Y178822D01*
Y175508D01*
X250439Y175192D01*
Y170427D01*
X243503D01*
X243486Y170468D01*
X243419Y170927D01*
X244571Y171543D01*
X245668Y172443D01*
X246567Y173539D01*
X247236Y174790D01*
X247648Y176147D01*
X247787Y177559D01*
X247648Y178971D01*
X247236Y180328D01*
X246567Y181579D01*
X245668Y182675D01*
X244571Y183575D01*
X243320Y184244D01*
X241963Y184656D01*
X240551Y184795D01*
X239140Y184656D01*
X237782Y184244D01*
X236531Y183575D01*
X235435Y182675D01*
X234535Y181579D01*
X233866Y180328D01*
X233455Y178971D01*
X233316Y177559D01*
X233455Y176147D01*
X233866Y174790D01*
X234535Y173539D01*
X235435Y172443D01*
X236531Y171543D01*
X237782Y170874D01*
X239140Y170463D01*
X239274Y170449D01*
X239388Y170176D01*
X239437Y169931D01*
X239138Y169483D01*
X239022Y168898D01*
Y160449D01*
X237583D01*
Y154512D01*
X243520D01*
Y160449D01*
X242081D01*
Y167368D01*
X251383D01*
X251968Y167485D01*
X252464Y167816D01*
X253050Y168402D01*
X253381Y168898D01*
X253498Y169483D01*
Y175445D01*
X253435Y175762D01*
Y178568D01*
X253498Y178885D01*
Y202217D01*
X255059D01*
Y208637D01*
Y215106D01*
X253498D01*
Y266187D01*
X313213D01*
Y262347D01*
X327713D01*
Y268835D01*
X321558D01*
X321117Y269129D01*
X320532Y269246D01*
D02*
G37*
G36*
X224410Y270218D02*
X223301Y270072D01*
X222267Y269644D01*
X221380Y268963D01*
X220699Y268075D01*
X220271Y267042D01*
X220125Y265933D01*
X220271Y264824D01*
X220699Y263791D01*
X221380Y262903D01*
X222267Y262222D01*
X223301Y261794D01*
X224410Y261648D01*
X225518Y261794D01*
X226552Y262222D01*
X227439Y262903D01*
X228120Y263791D01*
X228548Y264824D01*
X228694Y265933D01*
X228548Y267042D01*
X228120Y268075D01*
X227439Y268963D01*
X226552Y269644D01*
X225518Y270072D01*
X224410Y270218D01*
D02*
G37*
G36*
X208661D02*
X207553Y270072D01*
X206519Y269644D01*
X205632Y268963D01*
X204951Y268075D01*
X204523Y267042D01*
X204377Y265933D01*
X204523Y264824D01*
X204951Y263791D01*
X205632Y262903D01*
X206519Y262222D01*
X207553Y261794D01*
X208661Y261648D01*
X209770Y261794D01*
X210804Y262222D01*
X211691Y262903D01*
X212372Y263791D01*
X212800Y264824D01*
X212946Y265933D01*
X212800Y267042D01*
X212372Y268075D01*
X211691Y268963D01*
X210804Y269644D01*
X209770Y270072D01*
X208661Y270218D01*
D02*
G37*
G36*
X163386D02*
X162277Y270072D01*
X161243Y269644D01*
X160356Y268963D01*
X159675Y268075D01*
X159247Y267042D01*
X159101Y265933D01*
X159247Y264824D01*
X159675Y263791D01*
X160356Y262903D01*
X161243Y262222D01*
X162277Y261794D01*
X163386Y261648D01*
X164495Y261794D01*
X165528Y262222D01*
X166416Y262903D01*
X167096Y263791D01*
X167525Y264824D01*
X167671Y265933D01*
X167525Y267042D01*
X167096Y268075D01*
X166416Y268963D01*
X165528Y269644D01*
X164495Y270072D01*
X163386Y270218D01*
D02*
G37*
G36*
X147638D02*
X146529Y270072D01*
X145495Y269644D01*
X144608Y268963D01*
X143927Y268075D01*
X143499Y267042D01*
X143353Y265933D01*
X143499Y264824D01*
X143927Y263791D01*
X144608Y262903D01*
X145495Y262222D01*
X146529Y261794D01*
X147638Y261648D01*
X148747Y261794D01*
X149780Y262222D01*
X150668Y262903D01*
X151348Y263791D01*
X151777Y264824D01*
X151923Y265933D01*
X151777Y267042D01*
X151348Y268075D01*
X150668Y268963D01*
X149780Y269644D01*
X148747Y270072D01*
X147638Y270218D01*
D02*
G37*
G36*
X186542Y270033D02*
X185433Y269887D01*
X184400Y269459D01*
X183513Y268778D01*
X182832Y267890D01*
X182404Y266857D01*
X182258Y265748D01*
X182404Y264639D01*
X182832Y263606D01*
X183513Y262718D01*
X184400Y262037D01*
X185433Y261609D01*
X186542Y261463D01*
X187651Y261609D01*
X188685Y262037D01*
X189572Y262718D01*
X190253Y263606D01*
X190681Y264639D01*
X190827Y265748D01*
X190681Y266857D01*
X190253Y267890D01*
X189572Y268778D01*
X188685Y269459D01*
X187651Y269887D01*
X186542Y270033D01*
D02*
G37*
G36*
X163386Y256438D02*
X162277Y256292D01*
X161243Y255864D01*
X161008Y255684D01*
X150015D01*
X149780Y255864D01*
X148747Y256292D01*
X147638Y256438D01*
X146529Y256292D01*
X145495Y255864D01*
X144608Y255183D01*
X143927Y254296D01*
X143499Y253262D01*
X143353Y252153D01*
X143499Y251045D01*
X143927Y250011D01*
X144608Y249124D01*
X145495Y248443D01*
X146529Y248015D01*
X147638Y247869D01*
X148747Y248015D01*
X149780Y248443D01*
X150015Y248623D01*
X161008D01*
X161243Y248443D01*
X162277Y248015D01*
X163386Y247869D01*
X164495Y248015D01*
X165528Y248443D01*
X165763Y248623D01*
X183012D01*
Y241904D01*
X165763D01*
X165528Y242085D01*
X164495Y242513D01*
X163386Y242659D01*
X162277Y242513D01*
X161243Y242085D01*
X161008Y241904D01*
X150015D01*
X149780Y242085D01*
X148747Y242513D01*
X147638Y242659D01*
X146529Y242513D01*
X145495Y242085D01*
X144608Y241404D01*
X143927Y240516D01*
X143499Y239483D01*
X143353Y238374D01*
X143499Y237265D01*
X143927Y236232D01*
X144608Y235344D01*
X145495Y234663D01*
X146529Y234235D01*
X147638Y234089D01*
X148747Y234235D01*
X149780Y234663D01*
X150015Y234844D01*
X161008D01*
X161243Y234663D01*
X162277Y234235D01*
X163386Y234089D01*
X164495Y234235D01*
X165528Y234663D01*
X165763Y234844D01*
X183924D01*
X184400Y234478D01*
X185433Y234050D01*
X186542Y233904D01*
X187651Y234050D01*
X188685Y234478D01*
X189163Y234846D01*
X204718D01*
X204725Y234845D01*
X206285D01*
X206519Y234665D01*
X207553Y234237D01*
X208661Y234091D01*
X209770Y234237D01*
X210804Y234665D01*
X211036Y234844D01*
X222032D01*
X222267Y234663D01*
X223301Y234235D01*
X224410Y234089D01*
X225518Y234235D01*
X226552Y234663D01*
X227439Y235344D01*
X228120Y236232D01*
X228548Y237265D01*
X228694Y238374D01*
X228548Y239483D01*
X228120Y240516D01*
X227439Y241404D01*
X226552Y242085D01*
X225518Y242513D01*
X224410Y242659D01*
X223301Y242513D01*
X222267Y242085D01*
X222032Y241904D01*
X211041D01*
X210804Y242087D01*
X209770Y242515D01*
X208661Y242661D01*
X207553Y242515D01*
X206519Y242087D01*
X206283Y241905D01*
X204732D01*
X204724Y241906D01*
X190073D01*
Y248532D01*
X204014D01*
X204724Y248438D01*
X206284D01*
X206519Y248258D01*
X207553Y247830D01*
X208661Y247684D01*
X209770Y247830D01*
X210804Y248258D01*
X211039Y248438D01*
X222032D01*
X222267Y248258D01*
X223301Y247830D01*
X224410Y247684D01*
X225518Y247830D01*
X226552Y248258D01*
X227439Y248939D01*
X228120Y249826D01*
X228548Y250859D01*
X228694Y251969D01*
X228548Y253078D01*
X228120Y254111D01*
X227439Y254998D01*
X226552Y255679D01*
X225518Y256107D01*
X224410Y256253D01*
X223301Y256107D01*
X222267Y255679D01*
X222032Y255499D01*
X211039D01*
X210804Y255679D01*
X209770Y256107D01*
X208661Y256253D01*
X207553Y256107D01*
X206519Y255679D01*
X206284Y255499D01*
X205341D01*
X204631Y255592D01*
X188798D01*
X188685Y255679D01*
X187651Y256107D01*
X186542Y256253D01*
X185433Y256107D01*
X184411Y255684D01*
X165763D01*
X165528Y255864D01*
X164495Y256292D01*
X163386Y256438D01*
D02*
G37*
G36*
X327713Y258835D02*
X313213D01*
Y257750D01*
X299798D01*
X299213Y257633D01*
X298717Y257302D01*
X298131Y256716D01*
X297800Y256220D01*
X297683Y255635D01*
Y215106D01*
X296122D01*
Y208637D01*
Y202217D01*
X297620D01*
Y175508D01*
X297683Y175192D01*
Y170884D01*
X297556D01*
X297239Y170821D01*
X291525D01*
X291400Y171321D01*
X291815Y171543D01*
X292912Y172443D01*
X293811Y173539D01*
X294480Y174790D01*
X294892Y176147D01*
X295031Y177559D01*
X294892Y178971D01*
X294480Y180328D01*
X293811Y181579D01*
X292912Y182675D01*
X291815Y183575D01*
X290564Y184244D01*
X289207Y184656D01*
X287795Y184795D01*
X286384Y184656D01*
X285026Y184244D01*
X283775Y183575D01*
X282679Y182675D01*
X281779Y181579D01*
X281110Y180328D01*
X280699Y178971D01*
X280560Y177559D01*
X280699Y176147D01*
X281110Y174790D01*
X281779Y173539D01*
X282679Y172443D01*
X283775Y171543D01*
X285026Y170874D01*
X286384Y170463D01*
X286717Y170430D01*
X286886Y169959D01*
X286714Y169787D01*
X286382Y169291D01*
X286266Y168705D01*
Y160449D01*
X284827D01*
Y154512D01*
X290764D01*
Y160449D01*
X289325D01*
Y167762D01*
X297493D01*
X297809Y167825D01*
X298690D01*
X299275Y167941D01*
X299771Y168273D01*
X300294Y168796D01*
X300626Y169292D01*
X300742Y169877D01*
Y175445D01*
X300679Y175762D01*
Y202217D01*
X302303D01*
Y208637D01*
Y215106D01*
X300742D01*
Y254691D01*
X313213D01*
Y252346D01*
X327713D01*
Y258835D01*
D02*
G37*
G36*
X348205Y238835D02*
X333705D01*
Y232347D01*
X341058D01*
X341107Y232102D01*
X341351Y231736D01*
X341116Y231167D01*
X340995Y230254D01*
X341116Y229340D01*
X341468Y228488D01*
X342029Y227757D01*
X342760Y227196D01*
X343612Y226844D01*
X344526Y226723D01*
X345439Y226844D01*
X346291Y227196D01*
X347022Y227757D01*
X347583Y228488D01*
X347936Y229340D01*
X348056Y230254D01*
X347936Y231167D01*
X347654Y231846D01*
X347908Y232347D01*
X348205D01*
Y238835D01*
D02*
G37*
G36*
X327713D02*
X313213D01*
Y232347D01*
X321305D01*
Y231501D01*
X321070Y231404D01*
X320338Y230843D01*
X319777Y230112D01*
X319425Y229260D01*
X319304Y228346D01*
X319425Y227433D01*
X319777Y226581D01*
X320338Y225850D01*
X321070Y225289D01*
X321921Y224937D01*
X322835Y224816D01*
X323748Y224937D01*
X324600Y225289D01*
X325331Y225850D01*
X325892Y226581D01*
X326245Y227433D01*
X326365Y228346D01*
X326245Y229260D01*
X325892Y230112D01*
X325331Y230843D01*
X324600Y231404D01*
X324364Y231501D01*
Y232347D01*
X327713D01*
Y238835D01*
D02*
G37*
G36*
X348205Y268835D02*
X333705D01*
Y262347D01*
X348205D01*
Y264691D01*
X466538D01*
X466974Y264255D01*
Y246602D01*
X465413D01*
Y240133D01*
Y233713D01*
X466974D01*
Y219898D01*
X465142D01*
Y213173D01*
X471866D01*
Y219898D01*
X470033D01*
Y233713D01*
X471595D01*
Y240133D01*
Y246602D01*
X470033D01*
Y264888D01*
X469917Y265473D01*
X469585Y265970D01*
X468171Y267384D01*
X467675Y267715D01*
X467090Y267832D01*
X466678Y267750D01*
X348205D01*
Y268835D01*
D02*
G37*
G36*
X503362Y206276D02*
X496638D01*
Y199551D01*
X503362D01*
Y206276D01*
D02*
G37*
G36*
X500000Y196305D02*
X499122Y196189D01*
X498304Y195850D01*
X497602Y195311D01*
X497063Y194609D01*
X496724Y193791D01*
X496609Y192913D01*
X496724Y192036D01*
X497063Y191218D01*
X497602Y190515D01*
X498304Y189977D01*
X499122Y189638D01*
X500000Y189522D01*
X500878Y189638D01*
X501696Y189977D01*
X502398Y190515D01*
X502937Y191218D01*
X503276Y192036D01*
X503391Y192913D01*
X503276Y193791D01*
X502937Y194609D01*
X502398Y195311D01*
X501696Y195850D01*
X500878Y196189D01*
X500000Y196305D01*
D02*
G37*
G36*
X452756Y192507D02*
X451842Y192386D01*
X450991Y192034D01*
X450260Y191473D01*
X449699Y190742D01*
X449346Y189890D01*
X449226Y188976D01*
X449346Y188063D01*
X449699Y187211D01*
X450260Y186480D01*
X450991Y185919D01*
X451842Y185566D01*
X452756Y185446D01*
X453670Y185566D01*
X454521Y185919D01*
X455252Y186480D01*
X455813Y187211D01*
X456166Y188063D01*
X456286Y188976D01*
X456166Y189890D01*
X455813Y190742D01*
X455252Y191473D01*
X454521Y192034D01*
X453670Y192386D01*
X452756Y192507D01*
D02*
G37*
G36*
X405512D02*
X404598Y192386D01*
X403747Y192034D01*
X403016Y191473D01*
X402455Y190742D01*
X402102Y189890D01*
X401982Y188976D01*
X402102Y188063D01*
X402455Y187211D01*
X403016Y186480D01*
X403747Y185919D01*
X404598Y185566D01*
X405512Y185446D01*
X406426Y185566D01*
X407277Y185919D01*
X408008Y186480D01*
X408569Y187211D01*
X408922Y188063D01*
X409042Y188976D01*
X408922Y189890D01*
X408569Y190742D01*
X408008Y191473D01*
X407277Y192034D01*
X406426Y192386D01*
X405512Y192507D01*
D02*
G37*
G36*
X358268D02*
X357354Y192386D01*
X356503Y192034D01*
X355771Y191473D01*
X355210Y190742D01*
X354858Y189890D01*
X354737Y188976D01*
X354858Y188063D01*
X355210Y187211D01*
X355771Y186480D01*
X356503Y185919D01*
X357354Y185566D01*
X358268Y185446D01*
X359181Y185566D01*
X360033Y185919D01*
X360764Y186480D01*
X361325Y187211D01*
X361678Y188063D01*
X361798Y188976D01*
X361678Y189890D01*
X361325Y190742D01*
X360764Y191473D01*
X360033Y192034D01*
X359181Y192386D01*
X358268Y192507D01*
D02*
G37*
G36*
X311024D02*
X310110Y192386D01*
X309259Y192034D01*
X308527Y191473D01*
X307966Y190742D01*
X307614Y189890D01*
X307493Y188976D01*
X307614Y188063D01*
X307966Y187211D01*
X308527Y186480D01*
X309259Y185919D01*
X310110Y185566D01*
X311024Y185446D01*
X311937Y185566D01*
X312789Y185919D01*
X313520Y186480D01*
X314081Y187211D01*
X314434Y188063D01*
X314554Y188976D01*
X314434Y189890D01*
X314081Y190742D01*
X313520Y191473D01*
X312789Y192034D01*
X311937Y192386D01*
X311024Y192507D01*
D02*
G37*
G36*
X263779D02*
X262866Y192386D01*
X262014Y192034D01*
X261283Y191473D01*
X260722Y190742D01*
X260370Y189890D01*
X260249Y188976D01*
X260370Y188063D01*
X260722Y187211D01*
X261283Y186480D01*
X262014Y185919D01*
X262866Y185566D01*
X263779Y185446D01*
X264693Y185566D01*
X265545Y185919D01*
X266276Y186480D01*
X266837Y187211D01*
X267189Y188063D01*
X267310Y188976D01*
X267189Y189890D01*
X266837Y190742D01*
X266276Y191473D01*
X265545Y192034D01*
X264693Y192386D01*
X263779Y192507D01*
D02*
G37*
G36*
X216535D02*
X215622Y192386D01*
X214770Y192034D01*
X214039Y191473D01*
X213478Y190742D01*
X213125Y189890D01*
X213005Y188976D01*
X213125Y188063D01*
X213478Y187211D01*
X214039Y186480D01*
X214770Y185919D01*
X215622Y185566D01*
X216535Y185446D01*
X217449Y185566D01*
X218301Y185919D01*
X219032Y186480D01*
X219593Y187211D01*
X219945Y188063D01*
X220066Y188976D01*
X219945Y189890D01*
X219593Y190742D01*
X219032Y191473D01*
X218301Y192034D01*
X217449Y192386D01*
X216535Y192507D01*
D02*
G37*
G36*
X487220Y160449D02*
X481284D01*
Y154512D01*
X487220D01*
Y160449D01*
D02*
G37*
G36*
X468504Y209927D02*
X467626Y209811D01*
X466808Y209472D01*
X466106Y208933D01*
X465567Y208231D01*
X465228Y207413D01*
X465113Y206535D01*
X465228Y205658D01*
X465567Y204840D01*
X466106Y204137D01*
X466808Y203599D01*
X466974Y203530D01*
Y169877D01*
X467091Y169292D01*
X467422Y168796D01*
X468008Y168210D01*
X468504Y167878D01*
X469090Y167762D01*
X474849D01*
Y160449D01*
X473803D01*
Y154512D01*
X479740D01*
Y160449D01*
X477907D01*
Y168705D01*
X477791Y169291D01*
X477459Y169787D01*
X477323Y169923D01*
X477491Y170394D01*
X478183Y170463D01*
X479541Y170874D01*
X480792Y171543D01*
X481888Y172443D01*
X482788Y173539D01*
X483457Y174790D01*
X483868Y176147D01*
X484007Y177559D01*
X483868Y178971D01*
X483457Y180328D01*
X482788Y181579D01*
X481888Y182675D01*
X480792Y183575D01*
X479541Y184244D01*
X478183Y184656D01*
X476772Y184795D01*
X475360Y184656D01*
X474003Y184244D01*
X472752Y183575D01*
X471655Y182675D01*
X470755Y181579D01*
X470533Y181163D01*
X470033Y181289D01*
Y203530D01*
X470199Y203599D01*
X470902Y204137D01*
X471441Y204840D01*
X471780Y205658D01*
X471895Y206535D01*
X471780Y207413D01*
X471441Y208231D01*
X470902Y208933D01*
X470199Y209472D01*
X469382Y209811D01*
X468504Y209927D01*
D02*
G37*
G36*
X439976Y160449D02*
X434039D01*
Y154512D01*
X439976D01*
Y160449D01*
D02*
G37*
G36*
X348205Y258835D02*
X333705D01*
Y252346D01*
X348205D01*
Y254376D01*
X419731D01*
Y215106D01*
X418169D01*
Y208637D01*
Y202217D01*
X419731D01*
Y169877D01*
X419847Y169292D01*
X420178Y168796D01*
X420764Y168210D01*
X421260Y167878D01*
X421846Y167762D01*
X427998D01*
Y160449D01*
X426559D01*
Y154512D01*
X432496D01*
Y160449D01*
X431057D01*
Y168705D01*
X430940Y169291D01*
X430609Y169787D01*
X430437Y169959D01*
X430606Y170430D01*
X430939Y170463D01*
X432297Y170874D01*
X433547Y171543D01*
X434644Y172443D01*
X435544Y173539D01*
X436212Y174790D01*
X436624Y176147D01*
X436763Y177559D01*
X436624Y178971D01*
X436212Y180328D01*
X435544Y181579D01*
X434644Y182675D01*
X433547Y183575D01*
X432297Y184244D01*
X430939Y184656D01*
X429528Y184795D01*
X428116Y184656D01*
X426759Y184244D01*
X425508Y183575D01*
X424411Y182675D01*
X423511Y181579D01*
X423289Y181163D01*
X422789Y181289D01*
Y202217D01*
X424351D01*
Y208637D01*
Y215106D01*
X422789D01*
Y255320D01*
X422673Y255905D01*
X422341Y256401D01*
X421756Y256987D01*
X421259Y257318D01*
X420674Y257435D01*
X348205D01*
Y258835D01*
D02*
G37*
G36*
X472260Y160449D02*
X466323D01*
Y159010D01*
X453342D01*
X452756Y158893D01*
X452260Y158562D01*
X451675Y157976D01*
X451343Y157480D01*
X451227Y156895D01*
Y139325D01*
X414915D01*
Y144252D01*
X415415Y144422D01*
X415770Y143959D01*
X416802Y143168D01*
X418003Y142670D01*
X419291Y142501D01*
X420580Y142670D01*
X421781Y143168D01*
X422812Y143959D01*
X423604Y144991D01*
X424101Y146192D01*
X424271Y147480D01*
X424101Y148769D01*
X423604Y149970D01*
X422812Y151001D01*
X421781Y151793D01*
X420580Y152290D01*
X419291Y152460D01*
X418003Y152290D01*
X416802Y151793D01*
X415770Y151001D01*
X415415Y150539D01*
X414915Y150708D01*
Y155951D01*
X419079D01*
Y154512D01*
X425016D01*
Y160449D01*
X419079D01*
Y159010D01*
X413972D01*
X413386Y158893D01*
X412890Y158562D01*
X412304Y157976D01*
X411973Y157480D01*
X411856Y156895D01*
Y139325D01*
X367671D01*
Y144252D01*
X368171Y144422D01*
X368526Y143959D01*
X369557Y143168D01*
X370758Y142670D01*
X372047Y142501D01*
X373336Y142670D01*
X374537Y143168D01*
X375568Y143959D01*
X376360Y144991D01*
X376857Y146192D01*
X377027Y147480D01*
X376857Y148769D01*
X376360Y149970D01*
X375568Y151001D01*
X374537Y151793D01*
X373336Y152290D01*
X372047Y152460D01*
X370758Y152290D01*
X369557Y151793D01*
X368526Y151001D01*
X368171Y150539D01*
X367671Y150708D01*
Y155951D01*
X371835D01*
Y154512D01*
X377772D01*
Y160449D01*
X371835D01*
Y159010D01*
X366727D01*
X366142Y158893D01*
X365646Y158562D01*
X365060Y157976D01*
X364729Y157480D01*
X364612Y156895D01*
Y139325D01*
X320427D01*
Y144252D01*
X320927Y144422D01*
X321282Y143959D01*
X322313Y143168D01*
X323514Y142670D01*
X324803Y142501D01*
X326092Y142670D01*
X327293Y143168D01*
X328324Y143959D01*
X329116Y144991D01*
X329613Y146192D01*
X329783Y147480D01*
X329613Y148769D01*
X329116Y149970D01*
X328324Y151001D01*
X327293Y151793D01*
X326092Y152290D01*
X324803Y152460D01*
X323514Y152290D01*
X322313Y151793D01*
X321282Y151001D01*
X320927Y150539D01*
X320427Y150708D01*
Y155951D01*
X324591D01*
Y154512D01*
X330528D01*
Y160449D01*
X324591D01*
Y159010D01*
X319483D01*
X318898Y158893D01*
X318402Y158562D01*
X317816Y157976D01*
X317485Y157480D01*
X317368Y156895D01*
Y139325D01*
X273183D01*
Y144252D01*
X273683Y144422D01*
X274038Y143959D01*
X275069Y143168D01*
X276270Y142670D01*
X277559Y142501D01*
X278848Y142670D01*
X280049Y143168D01*
X281080Y143959D01*
X281872Y144991D01*
X282369Y146192D01*
X282539Y147480D01*
X282369Y148769D01*
X281872Y149970D01*
X281080Y151001D01*
X280049Y151793D01*
X278848Y152290D01*
X277559Y152460D01*
X276270Y152290D01*
X275069Y151793D01*
X274038Y151001D01*
X273683Y150539D01*
X273183Y150708D01*
Y155951D01*
X277346D01*
Y154512D01*
X283283D01*
Y160449D01*
X277346D01*
Y159010D01*
X272239D01*
X271654Y158893D01*
X271158Y158562D01*
X270572Y157976D01*
X270241Y157480D01*
X270124Y156895D01*
Y139325D01*
X225939D01*
Y144252D01*
X226439Y144422D01*
X226794Y143959D01*
X227825Y143168D01*
X229026Y142670D01*
X230315Y142501D01*
X231604Y142670D01*
X232805Y143168D01*
X233836Y143959D01*
X234627Y144991D01*
X235125Y146192D01*
X235295Y147480D01*
X235125Y148769D01*
X234627Y149970D01*
X233836Y151001D01*
X232805Y151793D01*
X231604Y152290D01*
X230315Y152460D01*
X229026Y152290D01*
X227825Y151793D01*
X226794Y151001D01*
X226439Y150539D01*
X225939Y150708D01*
Y155951D01*
X230102D01*
Y154512D01*
X236039D01*
Y160449D01*
X230102D01*
Y159010D01*
X224995D01*
X224410Y158893D01*
X223914Y158562D01*
X223328Y157976D01*
X222996Y157480D01*
X222880Y156895D01*
Y139325D01*
X178695D01*
Y144252D01*
X179195Y144422D01*
X179550Y143959D01*
X180581Y143168D01*
X181782Y142670D01*
X183071Y142501D01*
X184360Y142670D01*
X185561Y143168D01*
X186592Y143959D01*
X187383Y144991D01*
X187881Y146192D01*
X188050Y147480D01*
X187881Y148769D01*
X187383Y149970D01*
X186592Y151001D01*
X185561Y151793D01*
X184360Y152290D01*
X183071Y152460D01*
X181782Y152290D01*
X180581Y151793D01*
X179550Y151001D01*
X179195Y150539D01*
X178695Y150708D01*
Y155951D01*
X182858D01*
Y154512D01*
X188795D01*
Y160449D01*
X182858D01*
Y159010D01*
X177751D01*
X177166Y158893D01*
X176670Y158562D01*
X176084Y157976D01*
X175752Y157480D01*
X175636Y156895D01*
Y139325D01*
X160635D01*
X160538Y139560D01*
X159976Y140292D01*
X159245Y140852D01*
X158394Y141205D01*
X157480Y141325D01*
X156567Y141205D01*
X155715Y140852D01*
X154984Y140292D01*
X154423Y139560D01*
X154070Y138709D01*
X153950Y137795D01*
X154070Y136882D01*
X154423Y136030D01*
X154984Y135299D01*
X155715Y134738D01*
X156567Y134385D01*
X157480Y134265D01*
X158394Y134385D01*
X159245Y134738D01*
X159976Y135299D01*
X160538Y136030D01*
X160635Y136266D01*
X452756D01*
X453341Y136382D01*
X453837Y136714D01*
X454169Y137210D01*
X454285Y137795D01*
Y155951D01*
X466323D01*
Y154512D01*
X472260D01*
Y160449D01*
D02*
G37*
G36*
X392732D02*
X386795D01*
Y154512D01*
X392732D01*
Y160449D01*
D02*
G37*
G36*
X348205Y248835D02*
X333705D01*
Y242347D01*
X348205D01*
Y244691D01*
X371256D01*
X372486Y243461D01*
Y215106D01*
X370925D01*
Y208637D01*
Y202217D01*
X372486D01*
Y169877D01*
X372603Y169292D01*
X372934Y168796D01*
X373520Y168210D01*
X374016Y167878D01*
X374602Y167762D01*
X380754D01*
Y160449D01*
X379315D01*
Y154512D01*
X385252D01*
Y160449D01*
X383813D01*
Y168705D01*
X383696Y169291D01*
X383365Y169787D01*
X383193Y169959D01*
X383362Y170430D01*
X383695Y170463D01*
X385052Y170874D01*
X386303Y171543D01*
X387400Y172443D01*
X388300Y173539D01*
X388968Y174790D01*
X389380Y176147D01*
X389519Y177559D01*
X389380Y178971D01*
X388968Y180328D01*
X388300Y181579D01*
X387400Y182675D01*
X386303Y183575D01*
X385052Y184244D01*
X383695Y184656D01*
X382283Y184795D01*
X380872Y184656D01*
X379515Y184244D01*
X378264Y183575D01*
X377167Y182675D01*
X376267Y181579D01*
X376045Y181163D01*
X375545Y181289D01*
Y202217D01*
X377107D01*
Y208637D01*
Y215106D01*
X375545D01*
Y244094D01*
X375429Y244680D01*
X375097Y245176D01*
X372971Y247302D01*
X372475Y247633D01*
X371890Y247750D01*
X348205D01*
Y248835D01*
D02*
G37*
G36*
X345488Y160449D02*
X339551D01*
Y154512D01*
X345488D01*
Y160449D01*
D02*
G37*
G36*
X327713Y248835D02*
X313213D01*
Y242347D01*
X327713D01*
Y243151D01*
X329179D01*
Y215952D01*
X329296Y215367D01*
X329627Y214871D01*
X331555Y212943D01*
Y208637D01*
Y202217D01*
X333116D01*
Y185846D01*
X333233Y185260D01*
X333345Y185092D01*
X333135Y184506D01*
X332270Y184244D01*
X331019Y183575D01*
X329923Y182675D01*
X329023Y181579D01*
X328355Y180328D01*
X327943Y178971D01*
X327804Y177559D01*
X327943Y176147D01*
X328355Y174790D01*
X329023Y173539D01*
X329923Y172443D01*
X331019Y171543D01*
X332270Y170874D01*
X333628Y170463D01*
X333961Y170430D01*
X334130Y169959D01*
X333958Y169787D01*
X333626Y169291D01*
X333510Y168705D01*
Y160449D01*
X332071D01*
Y154512D01*
X338008D01*
Y160449D01*
X336569D01*
Y167762D01*
X341934D01*
X342519Y167878D01*
X343015Y168210D01*
X343822Y169016D01*
X344153Y169512D01*
X344270Y170098D01*
Y184454D01*
X344153Y185039D01*
X343822Y185535D01*
X343015Y186341D01*
X342519Y186673D01*
X341934Y186789D01*
X336175D01*
Y202217D01*
X337737D01*
Y208637D01*
Y215106D01*
X333718D01*
X332238Y216586D01*
Y244094D01*
X332122Y244680D01*
X331790Y245176D01*
X331204Y245762D01*
X330708Y246093D01*
X330123Y246210D01*
X327713D01*
Y248835D01*
D02*
G37*
G36*
X298244Y160449D02*
X292307D01*
Y154512D01*
X298244D01*
Y160449D01*
D02*
G37*
G36*
X251000D02*
X245063D01*
Y154512D01*
X251000D01*
Y160449D01*
D02*
G37*
G36*
X203756D02*
X197819D01*
Y154512D01*
X203756D01*
Y160449D01*
D02*
G37*
G36*
X466535Y152460D02*
X465247Y152290D01*
X464046Y151793D01*
X463014Y151001D01*
X462223Y149970D01*
X461726Y148769D01*
X461556Y147480D01*
X461726Y146192D01*
X462223Y144991D01*
X463014Y143959D01*
X464046Y143168D01*
X465247Y142670D01*
X466535Y142501D01*
X467824Y142670D01*
X469025Y143168D01*
X470056Y143959D01*
X470848Y144991D01*
X471345Y146192D01*
X471515Y147480D01*
X471345Y148769D01*
X470848Y149970D01*
X470056Y151001D01*
X469025Y151793D01*
X467824Y152290D01*
X466535Y152460D01*
D02*
G37*
G36*
X486535Y151928D02*
X485247Y151759D01*
X484046Y151261D01*
X483014Y150470D01*
X482223Y149439D01*
X481726Y148238D01*
X481556Y146949D01*
X481726Y145660D01*
X482223Y144459D01*
X483014Y143428D01*
X484046Y142636D01*
X485247Y142139D01*
X486535Y141969D01*
X487824Y142139D01*
X489025Y142636D01*
X490057Y143428D01*
X490848Y144459D01*
X491345Y145660D01*
X491515Y146949D01*
X491345Y148238D01*
X490848Y149439D01*
X490057Y150470D01*
X489025Y151261D01*
X487824Y151759D01*
X486535Y151928D01*
D02*
G37*
G36*
X439291D02*
X438002Y151759D01*
X436801Y151261D01*
X435770Y150470D01*
X434979Y149439D01*
X434481Y148238D01*
X434312Y146949D01*
X434481Y145660D01*
X434979Y144459D01*
X435770Y143428D01*
X436801Y142636D01*
X438002Y142139D01*
X439291Y141969D01*
X440580Y142139D01*
X441781Y142636D01*
X442812Y143428D01*
X443604Y144459D01*
X444101Y145660D01*
X444271Y146949D01*
X444101Y148238D01*
X443604Y149439D01*
X442812Y150470D01*
X441781Y151261D01*
X440580Y151759D01*
X439291Y151928D01*
D02*
G37*
G36*
X392047D02*
X390758Y151759D01*
X389557Y151261D01*
X388526Y150470D01*
X387735Y149439D01*
X387237Y148238D01*
X387068Y146949D01*
X387237Y145660D01*
X387735Y144459D01*
X388526Y143428D01*
X389557Y142636D01*
X390758Y142139D01*
X392047Y141969D01*
X393336Y142139D01*
X394537Y142636D01*
X395568Y143428D01*
X396360Y144459D01*
X396857Y145660D01*
X397027Y146949D01*
X396857Y148238D01*
X396360Y149439D01*
X395568Y150470D01*
X394537Y151261D01*
X393336Y151759D01*
X392047Y151928D01*
D02*
G37*
G36*
X344803D02*
X343514Y151759D01*
X342313Y151261D01*
X341282Y150470D01*
X340491Y149439D01*
X339993Y148238D01*
X339824Y146949D01*
X339993Y145660D01*
X340491Y144459D01*
X341282Y143428D01*
X342313Y142636D01*
X343514Y142139D01*
X344803Y141969D01*
X346092Y142139D01*
X347293Y142636D01*
X348324Y143428D01*
X349116Y144459D01*
X349613Y145660D01*
X349783Y146949D01*
X349613Y148238D01*
X349116Y149439D01*
X348324Y150470D01*
X347293Y151261D01*
X346092Y151759D01*
X344803Y151928D01*
D02*
G37*
G36*
X297559D02*
X296270Y151759D01*
X295069Y151261D01*
X294038Y150470D01*
X293247Y149439D01*
X292749Y148238D01*
X292579Y146949D01*
X292749Y145660D01*
X293247Y144459D01*
X294038Y143428D01*
X295069Y142636D01*
X296270Y142139D01*
X297559Y141969D01*
X298848Y142139D01*
X300049Y142636D01*
X301080Y143428D01*
X301871Y144459D01*
X302369Y145660D01*
X302539Y146949D01*
X302369Y148238D01*
X301871Y149439D01*
X301080Y150470D01*
X300049Y151261D01*
X298848Y151759D01*
X297559Y151928D01*
D02*
G37*
G36*
X250315D02*
X249026Y151759D01*
X247825Y151261D01*
X246794Y150470D01*
X246003Y149439D01*
X245505Y148238D01*
X245335Y146949D01*
X245505Y145660D01*
X246003Y144459D01*
X246794Y143428D01*
X247825Y142636D01*
X249026Y142139D01*
X250315Y141969D01*
X251604Y142139D01*
X252805Y142636D01*
X253836Y143428D01*
X254627Y144459D01*
X255125Y145660D01*
X255295Y146949D01*
X255125Y148238D01*
X254627Y149439D01*
X253836Y150470D01*
X252805Y151261D01*
X251604Y151759D01*
X250315Y151928D01*
D02*
G37*
G36*
X203071D02*
X201782Y151759D01*
X200581Y151261D01*
X199550Y150470D01*
X198758Y149439D01*
X198261Y148238D01*
X198091Y146949D01*
X198261Y145660D01*
X198758Y144459D01*
X199550Y143428D01*
X200581Y142636D01*
X201782Y142139D01*
X203071Y141969D01*
X204360Y142139D01*
X205561Y142636D01*
X206592Y143428D01*
X207383Y144459D01*
X207881Y145660D01*
X208050Y146949D01*
X207881Y148238D01*
X207383Y149439D01*
X206592Y150470D01*
X205561Y151261D01*
X204360Y151759D01*
X203071Y151928D01*
D02*
G37*
G36*
X496063Y141325D02*
X495149Y141205D01*
X494298Y140852D01*
X493567Y140292D01*
X493006Y139560D01*
X492653Y138709D01*
X492533Y137795D01*
X492653Y136882D01*
X493006Y136030D01*
X493567Y135299D01*
X494298Y134738D01*
X495149Y134385D01*
X496063Y134265D01*
X496977Y134385D01*
X497828Y134738D01*
X498559Y135299D01*
X499120Y136030D01*
X499473Y136882D01*
X499593Y137795D01*
X499473Y138709D01*
X499120Y139560D01*
X498559Y140292D01*
X497828Y140852D01*
X496977Y141205D01*
X496063Y141325D01*
D02*
G37*
G36*
X531496Y143745D02*
X530335Y143631D01*
X529219Y143292D01*
X528191Y142743D01*
X527289Y142002D01*
X526549Y141101D01*
X525999Y140072D01*
X525661Y138956D01*
X525546Y137795D01*
X525661Y136635D01*
X525999Y135518D01*
X526549Y134490D01*
X527289Y133588D01*
X528191Y132848D01*
X529219Y132298D01*
X530335Y131960D01*
X531496Y131845D01*
X532657Y131960D01*
X533773Y132298D01*
X534802Y132848D01*
X535703Y133588D01*
X536443Y134490D01*
X536993Y135518D01*
X537332Y136635D01*
X537446Y137795D01*
X537332Y138956D01*
X536993Y140072D01*
X536443Y141101D01*
X535703Y142002D01*
X534802Y142743D01*
X533773Y143292D01*
X532657Y143631D01*
X531496Y143745D01*
D02*
G37*
G36*
X137795D02*
X136635Y143631D01*
X135518Y143292D01*
X134490Y142743D01*
X133588Y142002D01*
X132848Y141101D01*
X132298Y140072D01*
X131960Y138956D01*
X131845Y137795D01*
X131960Y136635D01*
X132298Y135518D01*
X132848Y134490D01*
X133588Y133588D01*
X134490Y132848D01*
X135518Y132298D01*
X136635Y131960D01*
X137795Y131845D01*
X138956Y131960D01*
X140072Y132298D01*
X141101Y132848D01*
X142002Y133588D01*
X142743Y134490D01*
X143292Y135518D01*
X143631Y136635D01*
X143745Y137795D01*
X143631Y138956D01*
X143292Y140072D01*
X142743Y141101D01*
X142002Y142002D01*
X141101Y142743D01*
X140072Y143292D01*
X138956Y143631D01*
X137795Y143745D01*
D02*
G37*
G36*
X503937Y133451D02*
X503023Y133331D01*
X502172Y132978D01*
X501441Y132418D01*
X500880Y131686D01*
X500527Y130835D01*
X500407Y129921D01*
X500527Y129008D01*
X500880Y128156D01*
X501441Y127425D01*
X502172Y126864D01*
X503023Y126511D01*
X503937Y126391D01*
X504851Y126511D01*
X505702Y126864D01*
X506433Y127425D01*
X506994Y128156D01*
X507347Y129008D01*
X507467Y129921D01*
X507347Y130835D01*
X506994Y131686D01*
X506433Y132418D01*
X505702Y132978D01*
X504851Y133331D01*
X503937Y133451D01*
D02*
G37*
G36*
X452756D02*
X451842Y133331D01*
X450991Y132978D01*
X450260Y132418D01*
X449699Y131686D01*
X449346Y130835D01*
X449226Y129921D01*
X449346Y129008D01*
X449699Y128156D01*
X450260Y127425D01*
X450991Y126864D01*
X451842Y126511D01*
X452756Y126391D01*
X453670Y126511D01*
X454521Y126864D01*
X455252Y127425D01*
X455813Y128156D01*
X456166Y129008D01*
X456286Y129921D01*
X456166Y130835D01*
X455813Y131686D01*
X455252Y132418D01*
X454521Y132978D01*
X453670Y133331D01*
X452756Y133451D01*
D02*
G37*
G36*
X405512D02*
X404598Y133331D01*
X403747Y132978D01*
X403016Y132418D01*
X402455Y131686D01*
X402102Y130835D01*
X401982Y129921D01*
X402102Y129008D01*
X402455Y128156D01*
X403016Y127425D01*
X403747Y126864D01*
X404598Y126511D01*
X405512Y126391D01*
X406426Y126511D01*
X407277Y126864D01*
X408008Y127425D01*
X408569Y128156D01*
X408922Y129008D01*
X409042Y129921D01*
X408922Y130835D01*
X408569Y131686D01*
X408008Y132418D01*
X407277Y132978D01*
X406426Y133331D01*
X405512Y133451D01*
D02*
G37*
G36*
X358268D02*
X357354Y133331D01*
X356503Y132978D01*
X355771Y132418D01*
X355210Y131686D01*
X354858Y130835D01*
X354737Y129921D01*
X354858Y129008D01*
X355210Y128156D01*
X355771Y127425D01*
X356503Y126864D01*
X357354Y126511D01*
X358268Y126391D01*
X359181Y126511D01*
X360033Y126864D01*
X360764Y127425D01*
X361325Y128156D01*
X361678Y129008D01*
X361798Y129921D01*
X361678Y130835D01*
X361325Y131686D01*
X360764Y132418D01*
X360033Y132978D01*
X359181Y133331D01*
X358268Y133451D01*
D02*
G37*
G36*
X311024D02*
X310110Y133331D01*
X309259Y132978D01*
X308527Y132418D01*
X307966Y131686D01*
X307614Y130835D01*
X307493Y129921D01*
X307614Y129008D01*
X307966Y128156D01*
X308527Y127425D01*
X309259Y126864D01*
X310110Y126511D01*
X311024Y126391D01*
X311937Y126511D01*
X312789Y126864D01*
X313520Y127425D01*
X314081Y128156D01*
X314434Y129008D01*
X314554Y129921D01*
X314434Y130835D01*
X314081Y131686D01*
X313520Y132418D01*
X312789Y132978D01*
X311937Y133331D01*
X311024Y133451D01*
D02*
G37*
G36*
X263779D02*
X262866Y133331D01*
X262014Y132978D01*
X261283Y132418D01*
X260722Y131686D01*
X260370Y130835D01*
X260249Y129921D01*
X260370Y129008D01*
X260722Y128156D01*
X261283Y127425D01*
X262014Y126864D01*
X262866Y126511D01*
X263779Y126391D01*
X264693Y126511D01*
X265545Y126864D01*
X266276Y127425D01*
X266837Y128156D01*
X267189Y129008D01*
X267310Y129921D01*
X267189Y130835D01*
X266837Y131686D01*
X266276Y132418D01*
X265545Y132978D01*
X264693Y133331D01*
X263779Y133451D01*
D02*
G37*
G36*
X216535D02*
X215622Y133331D01*
X214770Y132978D01*
X214039Y132418D01*
X213478Y131686D01*
X213125Y130835D01*
X213005Y129921D01*
X213125Y129008D01*
X213478Y128156D01*
X214039Y127425D01*
X214770Y126864D01*
X215622Y126511D01*
X216535Y126391D01*
X217449Y126511D01*
X218301Y126864D01*
X219032Y127425D01*
X219593Y128156D01*
X219945Y129008D01*
X220066Y129921D01*
X219945Y130835D01*
X219593Y131686D01*
X219032Y132418D01*
X218301Y132978D01*
X217449Y133331D01*
X216535Y133451D01*
D02*
G37*
%LPD*%
D12*
X232063Y314813D02*
Y354110D01*
Y314813D02*
X235852Y311024D01*
X240884D01*
X186542Y265935D02*
X186543Y265934D01*
X186541Y279714D02*
X186542Y279714D01*
X186541Y265934D02*
X186542Y265935D01*
Y279714D02*
X186543Y279714D01*
X186540Y238374D02*
X186542Y238376D01*
X224410Y205451D02*
X236221D01*
X320463Y276220D02*
X322028D01*
X236221Y276220D02*
X320463Y276220D01*
X236221Y211872D02*
Y275539D01*
X193893Y169291D02*
X223824D01*
X224410Y169877D02*
Y205451D01*
X193307Y168705D02*
X193893Y169291D01*
X223824D02*
X224410Y169877D01*
X321228Y307020D02*
X322028Y306221D01*
X315759Y307020D02*
X321228D01*
X315692Y307087D02*
X315759Y307020D01*
X291339Y307087D02*
X315692D01*
X290612Y307813D02*
X291339Y307087D01*
X290612Y307813D02*
Y318898D01*
X322028Y316220D02*
X322070Y316263D01*
Y324803D01*
X342520Y325035D02*
X342957Y325472D01*
X342520Y316220D02*
Y325035D01*
X248719Y295963D02*
X248976Y296220D01*
X247305Y297377D02*
Y311024D01*
Y297377D02*
X248719Y295963D01*
X248976Y296220D02*
X322028D01*
X228184Y287564D02*
Y299213D01*
X229528Y286221D02*
X322028D01*
X228184Y287564D02*
X229528Y286221D01*
X320532Y267717D02*
X322028Y266220D01*
X251969Y267717D02*
X320532D01*
X299798Y256221D02*
X322028D01*
X299213Y255635D02*
X299798Y256221D01*
X299213Y211872D02*
Y255635D01*
X322028Y246220D02*
X323568Y244680D01*
X330123D01*
X330709Y244094D01*
X334646Y211872D02*
Y212015D01*
X330709Y215952D02*
X334646Y212015D01*
X330709Y215952D02*
Y244094D01*
X322028Y236221D02*
X322835Y235413D01*
Y228346D02*
Y235413D01*
X342520Y232687D02*
Y236221D01*
Y232687D02*
X344526Y230681D01*
Y230254D02*
Y230681D01*
X374016Y211872D02*
Y244094D01*
X342520Y246220D02*
X371890D01*
X374016Y244094D01*
X342835Y255906D02*
X420674D01*
X421260Y211872D02*
Y255320D01*
X420674Y255906D02*
X421260Y255320D01*
X342520Y256221D02*
X342835Y255906D01*
X467008Y266220D02*
X467090Y266302D01*
X468504Y243368D02*
Y264888D01*
X467090Y266302D02*
X468504Y264888D01*
X342520Y266220D02*
X467008D01*
X421216Y286631D02*
X421987Y287402D01*
X421216Y276806D02*
Y286631D01*
X420630Y276220D02*
X421216Y276806D01*
X342520Y276220D02*
X420630D01*
X389764Y287402D02*
Y299213D01*
X342520Y286221D02*
X388583D01*
X389764Y287402D01*
X342520Y296220D02*
X343465Y295276D01*
X362205D01*
X362931Y296002D02*
Y307087D01*
X362205Y295276D02*
X362931Y296002D01*
X342520Y306221D02*
X356720D01*
X357541Y307042D02*
Y330709D01*
X356720Y306221D02*
X357541Y307042D01*
X428407Y287402D02*
X468284D01*
X396184Y299213D02*
X420454D01*
X421039Y299798D01*
Y353524D01*
X369352Y307087D02*
X373210D01*
X343106Y330709D02*
X351120D01*
X342520Y331294D02*
X343106Y330709D01*
X342520Y331294D02*
Y353745D01*
X279307Y319483D02*
Y354110D01*
X279893Y318898D02*
X284191D01*
X279307Y319483D02*
X279893Y318898D01*
X280113Y354917D02*
X287008D01*
X279307Y354110D02*
X280113Y354917D01*
X232869D02*
X239764D01*
X232063Y354110D02*
X232869Y354917D01*
X239764D02*
Y366142D01*
X180376Y299213D02*
X228184D01*
X173955Y353604D02*
X175268Y354917D01*
X192520D01*
X173955Y299213D02*
Y353604D01*
X192520Y354917D02*
Y366142D01*
X468504Y216535D02*
Y236947D01*
X467918Y243953D02*
X468504Y243368D01*
X421260Y169877D02*
Y205451D01*
X374016Y169877D02*
Y205451D01*
X251969Y178885D02*
Y205451D01*
X251905Y178822D02*
X251969Y178885D01*
Y211872D02*
Y267717D01*
X299150Y205388D02*
X299213Y205451D01*
X299150Y175508D02*
Y205388D01*
X334646Y185846D02*
Y205451D01*
X468284Y353524D02*
X469090Y354331D01*
X475398D01*
X468284Y287402D02*
Y353524D01*
X475398Y354331D02*
X475984Y354917D01*
Y366535D01*
X483858Y366142D02*
X491540D01*
X492126Y366727D01*
X483465Y366535D02*
X483858Y366142D01*
X444882Y385764D02*
X491540D01*
X492126Y385178D01*
Y366727D02*
Y385178D01*
X421039Y353524D02*
X421846Y354331D01*
X428154D01*
X428740Y354917D02*
Y366142D01*
X428154Y354331D02*
X428740Y354917D01*
X441805Y385764D02*
X444882D01*
X444296Y366142D02*
X444882Y366727D01*
X436221Y366142D02*
X444296D01*
X444882Y366727D02*
Y385764D01*
X441742Y385827D02*
X441805Y385764D01*
X422431Y385827D02*
X441742D01*
X214816D02*
X214879Y385764D01*
X208661Y385827D02*
X214816D01*
X214879Y385764D02*
X259842D01*
X177165Y137795D02*
X224410D01*
X271654D01*
X318898D02*
X366142D01*
X413386D01*
X157480D02*
X177165D01*
X177751Y157480D02*
X185827D01*
X177165Y156895D02*
X177751Y157480D01*
X177165Y137795D02*
Y156895D01*
X224410D02*
X224995Y157480D01*
X233071D01*
X224410Y137795D02*
Y156895D01*
X271654Y137795D02*
X318898D01*
X271654D02*
Y156895D01*
X272239Y157480D02*
X280315D01*
X271654Y156895D02*
X272239Y157480D01*
X319483D02*
X327559D01*
X318898Y156895D02*
X319483Y157480D01*
X318898Y137795D02*
Y156895D01*
X413972Y157480D02*
X422047D01*
X413386Y156895D02*
X413972Y157480D01*
X413386Y137795D02*
Y156895D01*
Y137795D02*
X452756D01*
X366727Y157480D02*
X374803D01*
X366142Y156895D02*
X366727Y157480D01*
X366142Y137795D02*
Y156895D01*
X453342Y157480D02*
X469291D01*
X452756Y137795D02*
Y156895D01*
X453342Y157480D01*
X159264Y385764D02*
X183931D01*
X149606Y385827D02*
X159201D01*
X159264Y385764D01*
X183994Y385827D02*
X208661D01*
Y366727D02*
Y385827D01*
X183931Y385764D02*
X183994Y385827D01*
X399918Y385764D02*
X422368D01*
X422431Y385827D01*
X399855D02*
X399918Y385764D01*
X397052Y385827D02*
X399855D01*
X397638Y379673D02*
Y385241D01*
X397575Y379610D02*
X397638Y379673D01*
X397575Y366727D02*
Y379610D01*
X397052Y385827D02*
X397638Y385241D01*
X374894Y385827D02*
X397052D01*
X349808D02*
X352611D01*
X352674Y385764D02*
X374831D01*
X352611Y385827D02*
X352674Y385764D01*
X374831D02*
X374894Y385827D01*
X327587Y385764D02*
X327650Y385827D01*
X303150D02*
X305367D01*
X327650D02*
X349808D01*
X305367D02*
X305430Y385764D01*
X327587D01*
X259842D02*
X281465D01*
X281528Y385827D02*
X303150D01*
Y379673D02*
Y385827D01*
X303087Y379610D02*
X303150Y379673D01*
X281465Y385764D02*
X281528Y385827D01*
X303087Y366727D02*
Y379610D01*
X259842Y366727D02*
Y385764D01*
X259257Y366142D02*
X259842Y366727D01*
X247244Y366142D02*
X259257D01*
X294488D02*
X302501D01*
X303087Y366727D01*
X350394Y379673D02*
Y385241D01*
X349745Y366142D02*
X350331Y366727D01*
Y379610D01*
X341732Y366142D02*
X349745D01*
X350331Y379610D02*
X350394Y379673D01*
X388976Y366142D02*
X396989D01*
X397575Y366727D01*
X349808Y385827D02*
X350394Y385241D01*
X208076Y366142D02*
X208661Y366727D01*
X200000Y366142D02*
X208076D01*
X251905Y175508D02*
Y178822D01*
Y175508D02*
X251969Y175445D01*
Y169483D02*
Y175445D01*
X251383Y168898D02*
X251969Y169483D01*
X240551Y168898D02*
X251383D01*
X299150Y175508D02*
X299213Y175445D01*
Y169877D02*
Y175445D01*
X297556Y169354D02*
X298690D01*
X297493Y169291D02*
X297556Y169354D01*
X288381Y169291D02*
X297493D01*
X298690Y169354D02*
X299213Y169877D01*
X468504D02*
Y206535D01*
X469090Y169291D02*
X475792D01*
X468504Y169877D02*
X469090Y169291D01*
X476378Y157874D02*
Y168705D01*
X475792Y169291D02*
X476378Y168705D01*
Y157874D02*
X476772Y157480D01*
X373210Y307087D02*
X373795Y307672D01*
Y353524D01*
X344526Y230254D02*
X344854Y230582D01*
X193307Y157480D02*
Y168705D01*
X287795Y157480D02*
Y168705D01*
X288381Y169291D01*
X240551Y157480D02*
Y168898D01*
X334646Y185846D02*
X335231Y185260D01*
X341934D01*
X342740Y170098D02*
Y184454D01*
X341934Y185260D02*
X342740Y184454D01*
X335625Y169291D02*
X341934D01*
X342740Y170098D01*
X335039Y168705D02*
X335625Y169291D01*
X335039Y157480D02*
Y168705D01*
X374602Y169291D02*
X381698D01*
X374016Y169877D02*
X374602Y169291D01*
X382283Y157480D02*
Y168705D01*
X381698Y169291D02*
X382283Y168705D01*
X421846Y169291D02*
X428942D01*
X421260Y169877D02*
X421846Y169291D01*
X428942D02*
X429528Y168705D01*
Y157480D02*
Y168705D01*
X373795Y353524D02*
X374602Y354331D01*
X380910D01*
X381496Y354917D01*
Y366142D01*
X334838Y354331D02*
X341934D01*
X342520Y353745D01*
X334252Y354917D02*
Y366142D01*
Y354917D02*
X334838Y354331D01*
X287008Y354917D02*
Y366142D01*
D13*
X320463Y315591D02*
D03*
X340955D02*
D03*
X320463Y305591D02*
D03*
X340955D02*
D03*
X320463Y295590D02*
D03*
X340955D02*
D03*
X320463Y285591D02*
D03*
X340955D02*
D03*
X320463Y275590D02*
D03*
X340955D02*
D03*
X320463Y265591D02*
D03*
X340955D02*
D03*
X320463Y255591D02*
D03*
X340955D02*
D03*
X320463Y245590D02*
D03*
X340955D02*
D03*
X320463Y235591D02*
D03*
X340955D02*
D03*
D14*
X236221Y205451D02*
D03*
Y211872D02*
D03*
X299213D02*
D03*
Y205451D02*
D03*
X334646Y211872D02*
D03*
Y205451D02*
D03*
X251969Y211872D02*
D03*
Y205451D02*
D03*
X374016Y211872D02*
D03*
Y205451D02*
D03*
X421260Y211872D02*
D03*
Y205451D02*
D03*
X468504Y243368D02*
D03*
Y236947D02*
D03*
D15*
X421987Y287402D02*
D03*
X428407D02*
D03*
X389764Y299213D02*
D03*
X396184D02*
D03*
X362931Y307087D02*
D03*
X369352D02*
D03*
X290612Y318898D02*
D03*
X284191D02*
D03*
X247305Y311024D02*
D03*
X240884D02*
D03*
X180376Y299213D02*
D03*
X173955D02*
D03*
X357541Y330709D02*
D03*
X351120D02*
D03*
D25*
X163386Y238374D02*
X171260D01*
X147638D02*
X163386D01*
X208663D02*
X224635D01*
X208661Y238376D02*
X208663Y238374D01*
X163386Y252153D02*
X186357D01*
X147638D02*
X163386D01*
X186357D02*
X186542Y251969D01*
X204724D02*
X208661D01*
X204725Y238375D02*
X208661D01*
Y251969D02*
X224410D01*
X171260Y238374D02*
X186540D01*
X186542Y238376D02*
X204724D01*
X186636Y252062D02*
X204631D01*
X186542Y238376D02*
Y252155D01*
D26*
Y279528D02*
D03*
D27*
Y265748D02*
D03*
Y251969D02*
D03*
Y238189D02*
D03*
X224410Y265933D02*
D03*
X208661D02*
D03*
X163386Y252153D02*
D03*
Y238374D02*
D03*
X224410Y279713D02*
D03*
X147638D02*
D03*
X163386D02*
D03*
X208661D02*
D03*
X147638Y265933D02*
D03*
X163386D02*
D03*
X147638Y252153D02*
D03*
Y238374D02*
D03*
X224410D02*
D03*
X208661Y238376D02*
D03*
Y251969D02*
D03*
X224410D02*
D03*
D28*
X500000Y202913D02*
D03*
X468504Y216535D02*
D03*
D29*
X500000Y192913D02*
D03*
X468504Y206535D02*
D03*
D30*
X438976Y376142D02*
D03*
X418976Y376673D02*
D03*
X230000D02*
D03*
X250000Y376142D02*
D03*
X486535Y146949D02*
D03*
X466535Y147480D02*
D03*
X182756Y376673D02*
D03*
X202756Y376142D02*
D03*
X183071Y147480D02*
D03*
X203071Y146949D02*
D03*
X250315D02*
D03*
X230315Y147480D02*
D03*
X277559D02*
D03*
X297559Y146949D02*
D03*
X324803Y147480D02*
D03*
X344803Y146949D02*
D03*
X372047Y147480D02*
D03*
X392047Y146949D02*
D03*
X419291Y147480D02*
D03*
X439291Y146949D02*
D03*
X297244Y376142D02*
D03*
X277244Y376673D02*
D03*
X344488Y376142D02*
D03*
X324488Y376673D02*
D03*
X371732D02*
D03*
X391732Y376142D02*
D03*
X466221Y377067D02*
D03*
X486221Y376535D02*
D03*
D31*
X428740Y366142D02*
D03*
X436221D02*
D03*
X421260D02*
D03*
X239764D02*
D03*
X247244D02*
D03*
X232283D02*
D03*
X476772Y157480D02*
D03*
X469291D02*
D03*
X484252D02*
D03*
X200000Y366142D02*
D03*
X192520D02*
D03*
X185039D02*
D03*
X437008Y157480D02*
D03*
X422047D02*
D03*
X389764D02*
D03*
X374803D02*
D03*
X342520D02*
D03*
X327559D02*
D03*
X295276D02*
D03*
X280315D02*
D03*
X248031D02*
D03*
X233071D02*
D03*
X200787D02*
D03*
X185827D02*
D03*
X468504Y366535D02*
D03*
X483465D02*
D03*
X374016Y366142D02*
D03*
X388976D02*
D03*
X326772D02*
D03*
X341732D02*
D03*
X279528D02*
D03*
X294488D02*
D03*
X193307Y157480D02*
D03*
X240551D02*
D03*
X287795D02*
D03*
X335039D02*
D03*
X382283D02*
D03*
X429528D02*
D03*
X287008Y366142D02*
D03*
X334252D02*
D03*
X381496D02*
D03*
X475984Y366535D02*
D03*
D32*
X428740Y346063D02*
D03*
X239764D02*
D03*
X476772Y177559D02*
D03*
X192520Y346063D02*
D03*
X193307Y177559D02*
D03*
X240551D02*
D03*
X287795D02*
D03*
X335039D02*
D03*
X382283D02*
D03*
X429528D02*
D03*
X287008Y346063D02*
D03*
X334252D02*
D03*
X381496D02*
D03*
X475984Y346457D02*
D03*
D33*
X212598Y342520D02*
D03*
X259842D02*
D03*
X342957Y324803D02*
D03*
X322070D02*
D03*
X322835Y228346D02*
D03*
X137795Y350394D02*
D03*
X496063Y137795D02*
D03*
X216535Y389764D02*
D03*
Y188976D02*
D03*
Y129921D02*
D03*
X263779Y188976D02*
D03*
Y129921D02*
D03*
X311024Y188976D02*
D03*
Y129921D02*
D03*
X358268Y188976D02*
D03*
Y129921D02*
D03*
X405512Y188976D02*
D03*
Y129921D02*
D03*
X503937D02*
D03*
X452756D02*
D03*
Y188976D02*
D03*
X149606Y385827D02*
D03*
X165354Y389764D02*
D03*
Y342520D02*
D03*
X448819Y389764D02*
D03*
X401575D02*
D03*
X354331D02*
D03*
X307087D02*
D03*
X259842D02*
D03*
X307087Y342520D02*
D03*
X354331D02*
D03*
X385827Y322835D02*
D03*
X433071D02*
D03*
X157480Y137795D02*
D03*
X344526Y230254D02*
D03*
D34*
X137795Y374016D02*
D03*
Y137795D02*
D03*
X531496D02*
D03*
Y374016D02*
D03*
M02*
