G04*
G04 #@! TF.GenerationSoftware,Altium Limited,Altium Designer,20.2.6 (244)*
G04*
G04 Layer_Color=8388736*
%FSLAX25Y25*%
%MOIN*%
G70*
G04*
G04 #@! TF.SameCoordinates,78553FFF-4CE1-44D2-B870-6997896BCA41*
G04*
G04*
G04 #@! TF.FilePolarity,Negative*
G04*
G01*
G75*
%ADD13R,0.04469X0.04182*%
%ADD14R,0.04182X0.04469*%
%ADD16R,0.13300X0.05288*%
%ADD17C,0.05524*%
%ADD18R,0.05524X0.05524*%
%ADD19C,0.08674*%
%ADD20R,0.04737X0.04737*%
%ADD21C,0.13202*%
%ADD22C,0.10642*%
D13*
X421987Y287402D02*
D03*
X428407D02*
D03*
X389764Y299213D02*
D03*
X396184D02*
D03*
X362931Y307087D02*
D03*
X369352D02*
D03*
X290612Y318898D02*
D03*
X284191D02*
D03*
X247305Y311024D02*
D03*
X240884D02*
D03*
X180376Y299213D02*
D03*
X173955D02*
D03*
X357541Y330709D02*
D03*
X351120D02*
D03*
D14*
X204724Y211872D02*
D03*
Y205451D02*
D03*
X299213Y211872D02*
D03*
Y205451D02*
D03*
X334646Y211872D02*
D03*
Y205451D02*
D03*
X251969Y211872D02*
D03*
Y205451D02*
D03*
X374016Y211872D02*
D03*
Y205451D02*
D03*
X421260Y211872D02*
D03*
Y205451D02*
D03*
X468504Y243368D02*
D03*
Y236947D02*
D03*
D16*
X344892Y248465D02*
D03*
X324400D02*
D03*
X344892Y258465D02*
D03*
X324400D02*
D03*
X344892Y268465D02*
D03*
X324400D02*
D03*
X344892Y278465D02*
D03*
X324400D02*
D03*
X344892Y288465D02*
D03*
X324400D02*
D03*
X344892Y298465D02*
D03*
X324400D02*
D03*
X344892Y308465D02*
D03*
X324400D02*
D03*
X344892Y318465D02*
D03*
X324400D02*
D03*
D17*
X232283Y264921D02*
D03*
X500000Y192913D02*
D03*
X468504Y206535D02*
D03*
D18*
X232283Y254921D02*
D03*
X500000Y202913D02*
D03*
X468504Y216535D02*
D03*
D19*
X438976Y376142D02*
D03*
X418976Y376673D02*
D03*
X230000D02*
D03*
X250000Y376142D02*
D03*
X486535Y146949D02*
D03*
X466535Y147480D02*
D03*
X182756Y376673D02*
D03*
X202756Y376142D02*
D03*
X183071Y147480D02*
D03*
X203071Y146949D02*
D03*
X250315D02*
D03*
X230315Y147480D02*
D03*
X277559D02*
D03*
X297559Y146949D02*
D03*
X324803Y147480D02*
D03*
X344803Y146949D02*
D03*
X372047Y147480D02*
D03*
X392047Y146949D02*
D03*
X419291Y147480D02*
D03*
X439291Y146949D02*
D03*
X297244Y376142D02*
D03*
X277244Y376673D02*
D03*
X344488Y376142D02*
D03*
X324488Y376673D02*
D03*
X371732D02*
D03*
X391732Y376142D02*
D03*
X466221Y377067D02*
D03*
X486221Y376535D02*
D03*
D20*
X428740Y366142D02*
D03*
X436221D02*
D03*
X421260D02*
D03*
X239764D02*
D03*
X247244D02*
D03*
X232283D02*
D03*
X476772Y157480D02*
D03*
X469291D02*
D03*
X484252D02*
D03*
X200000Y366142D02*
D03*
X192520D02*
D03*
X185039D02*
D03*
X437008Y157480D02*
D03*
X422047D02*
D03*
X389764D02*
D03*
X374803D02*
D03*
X342520D02*
D03*
X327559D02*
D03*
X295276D02*
D03*
X280315D02*
D03*
X248031D02*
D03*
X233071D02*
D03*
X200787D02*
D03*
X185827D02*
D03*
X468504Y366535D02*
D03*
X483465D02*
D03*
X374016Y366142D02*
D03*
X388976D02*
D03*
X326772D02*
D03*
X341732D02*
D03*
X279528D02*
D03*
X294488D02*
D03*
X193307Y157480D02*
D03*
X240551D02*
D03*
X287795D02*
D03*
X335039D02*
D03*
X382283D02*
D03*
X429528D02*
D03*
X287008Y366142D02*
D03*
X334252D02*
D03*
X381496D02*
D03*
X475984Y366535D02*
D03*
D21*
X428740Y346063D02*
D03*
X239764D02*
D03*
X476772Y177559D02*
D03*
X192520Y346063D02*
D03*
X193307Y177559D02*
D03*
X240551D02*
D03*
X287795D02*
D03*
X335039D02*
D03*
X382283D02*
D03*
X429528D02*
D03*
X287008Y346063D02*
D03*
X334252D02*
D03*
X381496D02*
D03*
X475984Y346457D02*
D03*
D22*
X137795Y137795D02*
D03*
X531496D02*
D03*
Y374016D02*
D03*
X137795D02*
D03*
M02*
