G04*
G04 #@! TF.GenerationSoftware,Altium Limited,Altium Designer,20.2.6 (244)*
G04*
G04 Layer_Color=65535*
%FSLAX25Y25*%
%MOIN*%
G70*
G04*
G04 #@! TF.SameCoordinates,78553FFF-4CE1-44D2-B870-6997896BCA41*
G04*
G04*
G04 #@! TF.FilePolarity,Positive*
G04*
G01*
G75*
%ADD10C,0.00787*%
%ADD11C,0.00394*%
%ADD12C,0.01000*%
D10*
X345285Y240905D02*
X344498D01*
X345285D01*
X422244Y291142D02*
X428150D01*
X422244Y283661D02*
X428150D01*
X390021Y302953D02*
X395927D01*
X390021Y295472D02*
X395927D01*
X363189Y310827D02*
X369094D01*
X363189Y303346D02*
X369094D01*
X284449Y315158D02*
X290354D01*
X284449Y322638D02*
X290354D01*
X241142Y307283D02*
X247047D01*
X241142Y314764D02*
X247047D01*
X174213Y295472D02*
X180118D01*
X174213Y302953D02*
X180118D01*
X208465Y205709D02*
Y211614D01*
X200984Y205709D02*
Y211614D01*
X302953Y205709D02*
Y211614D01*
X295472Y205709D02*
Y211614D01*
X338386Y205709D02*
Y211614D01*
X330906Y205709D02*
Y211614D01*
X255709Y205709D02*
Y211614D01*
X248228Y205709D02*
Y211614D01*
X377756Y205709D02*
Y211614D01*
X370276Y205709D02*
Y211614D01*
X425000Y205709D02*
Y211614D01*
X417520Y205709D02*
Y211614D01*
X472244Y237205D02*
Y243110D01*
X464764Y237205D02*
Y243110D01*
X351378Y326969D02*
X357283D01*
X351378Y334449D02*
X357283D01*
D11*
X511811Y137795D02*
Y385827D01*
X157480Y137795D02*
Y385827D01*
D12*
X522746Y388764D02*
Y384765D01*
Y386764D01*
X516748D01*
Y379767D02*
Y381766D01*
X517748Y382766D01*
X519747D01*
X520747Y381766D01*
Y379767D01*
X519747Y378767D01*
X518747D01*
Y382766D01*
X516748Y376768D02*
Y373769D01*
X517748Y372769D01*
X518747Y373769D01*
Y375768D01*
X519747Y376768D01*
X520747Y375768D01*
Y372769D01*
X521746Y369770D02*
X520747D01*
Y370770D01*
Y368770D01*
Y369770D01*
X517748D01*
X516748Y368770D01*
Y359773D02*
X522746D01*
Y356774D01*
X521746Y355774D01*
X519747D01*
X518747Y356774D01*
Y359773D01*
Y357774D02*
X516748Y355774D01*
Y350776D02*
Y352775D01*
X517748Y353775D01*
X519747D01*
X520747Y352775D01*
Y350776D01*
X519747Y349776D01*
X518747D01*
Y353775D01*
X520747Y343778D02*
Y346777D01*
X519747Y347777D01*
X517748D01*
X516748Y346777D01*
Y343778D01*
Y338780D02*
Y340779D01*
X517748Y341779D01*
X519747D01*
X520747Y340779D01*
Y338780D01*
X519747Y337780D01*
X518747D01*
Y341779D01*
X516748Y335781D02*
Y333782D01*
Y334781D01*
X520747D01*
Y335781D01*
Y330783D02*
X516748Y328783D01*
X520747Y326784D01*
X516748Y321785D02*
Y323785D01*
X517748Y324784D01*
X519747D01*
X520747Y323785D01*
Y321785D01*
X519747Y320786D01*
X518747D01*
Y324784D01*
X520747Y318786D02*
X516748D01*
X518747D01*
X519747Y317787D01*
X520747Y316787D01*
Y315787D01*
X138733Y170291D02*
X132735D01*
Y173290D01*
X133735Y174290D01*
X135734D01*
X136734Y173290D01*
Y170291D01*
X138733Y177289D02*
Y179288D01*
X137733Y180288D01*
X135734D01*
X134734Y179288D01*
Y177289D01*
X135734Y176289D01*
X137733D01*
X138733Y177289D01*
X140732Y182288D02*
X134734D01*
Y185286D01*
X135734Y186286D01*
X137733D01*
X138733Y185286D01*
Y182288D01*
X134734Y188286D02*
X137733D01*
X138733Y189285D01*
Y192284D01*
X134734D01*
X138733Y194284D02*
Y196283D01*
Y195283D01*
X132735D01*
Y194284D01*
X134734Y200282D02*
Y202281D01*
X135734Y203281D01*
X138733D01*
Y200282D01*
X137733Y199282D01*
X136734Y200282D01*
Y203281D01*
X133735Y206280D02*
X134734D01*
Y205280D01*
Y207279D01*
Y206280D01*
X137733D01*
X138733Y207279D01*
Y213277D02*
Y211278D01*
X137733Y210278D01*
X135734D01*
X134734Y211278D01*
Y213277D01*
X135734Y214277D01*
X136734D01*
Y210278D01*
X138733Y222274D02*
X132735D01*
Y225273D01*
X133735Y226273D01*
X135734D01*
X136734Y225273D01*
Y222274D01*
Y224274D02*
X138733Y226273D01*
Y231272D02*
Y229272D01*
X137733Y228273D01*
X135734D01*
X134734Y229272D01*
Y231272D01*
X135734Y232271D01*
X136734D01*
Y228273D01*
X134734Y238269D02*
Y235270D01*
X135734Y234271D01*
X137733D01*
X138733Y235270D01*
Y238269D01*
Y243268D02*
Y241268D01*
X137733Y240269D01*
X135734D01*
X134734Y241268D01*
Y243268D01*
X135734Y244267D01*
X136734D01*
Y240269D01*
X138733Y246267D02*
Y248266D01*
Y247266D01*
X134734D01*
Y246267D01*
Y251265D02*
X138733Y253264D01*
X134734Y255264D01*
X138733Y260262D02*
Y258263D01*
X137733Y257263D01*
X135734D01*
X134734Y258263D01*
Y260262D01*
X135734Y261262D01*
X136734D01*
Y257263D01*
X134734Y263261D02*
X138733D01*
X136734D01*
X135734Y264261D01*
X134734Y265261D01*
Y266260D01*
X138733Y269259D02*
Y272258D01*
X137733Y273258D01*
X136734Y272258D01*
Y270259D01*
X135734Y269259D01*
X134734Y270259D01*
Y273258D01*
X138733Y282255D02*
Y284255D01*
X137733Y285254D01*
X135734D01*
X134734Y284255D01*
Y282255D01*
X135734Y281255D01*
X137733D01*
X138733Y282255D01*
Y287253D02*
X134734D01*
Y290252D01*
X135734Y291252D01*
X138733D01*
X133735Y300249D02*
X134734D01*
Y299250D01*
Y301249D01*
Y300249D01*
X137733D01*
X138733Y301249D01*
X132735Y304248D02*
X138733D01*
X135734D01*
X134734Y305248D01*
Y307247D01*
X135734Y308247D01*
X138733D01*
Y310246D02*
Y312245D01*
Y311246D01*
X134734D01*
Y310246D01*
X138733Y315244D02*
Y318244D01*
X137733Y319243D01*
X136734Y318244D01*
Y316244D01*
X135734Y315244D01*
X134734Y316244D01*
Y319243D01*
X133735Y331239D02*
X132735Y330240D01*
Y328240D01*
X133735Y327241D01*
X134734D01*
X135734Y328240D01*
Y330240D01*
X136734Y331239D01*
X137733D01*
X138733Y330240D01*
Y328240D01*
X137733Y327241D01*
X138733Y333239D02*
Y335238D01*
Y334238D01*
X134734D01*
Y333239D01*
X132735Y342236D02*
X138733D01*
Y339237D01*
X137733Y338237D01*
X135734D01*
X134734Y339237D01*
Y342236D01*
X138733Y347234D02*
Y345235D01*
X137733Y344235D01*
X135734D01*
X134734Y345235D01*
Y347234D01*
X135734Y348234D01*
X136734D01*
Y344235D01*
X530558Y345457D02*
X536556D01*
Y342458D01*
X535557Y341458D01*
X533557D01*
X532558Y342458D01*
Y345457D01*
X530558Y338459D02*
Y336460D01*
X531558Y335460D01*
X533557D01*
X534557Y336460D01*
Y338459D01*
X533557Y339459D01*
X531558D01*
X530558Y338459D01*
X528559Y333461D02*
X534557D01*
Y330462D01*
X533557Y329462D01*
X531558D01*
X530558Y330462D01*
Y333461D01*
X534557Y327463D02*
X531558D01*
X530558Y326463D01*
Y323464D01*
X534557D01*
X530558Y321464D02*
Y319465D01*
Y320465D01*
X536556D01*
Y321464D01*
X534557Y315466D02*
Y313467D01*
X533557Y312467D01*
X530558D01*
Y315466D01*
X531558Y316466D01*
X532558Y315466D01*
Y312467D01*
X535557Y309468D02*
X534557D01*
Y310468D01*
Y308469D01*
Y309468D01*
X531558D01*
X530558Y308469D01*
Y302471D02*
Y304470D01*
X531558Y305470D01*
X533557D01*
X534557Y304470D01*
Y302471D01*
X533557Y301471D01*
X532558D01*
Y305470D01*
X530558Y293474D02*
X536556D01*
Y290475D01*
X535557Y289475D01*
X533557D01*
X532558Y290475D01*
Y293474D01*
Y291474D02*
X530558Y289475D01*
Y284476D02*
Y286476D01*
X531558Y287475D01*
X533557D01*
X534557Y286476D01*
Y284476D01*
X533557Y283477D01*
X532558D01*
Y287475D01*
X534557Y277479D02*
Y280478D01*
X533557Y281477D01*
X531558D01*
X530558Y280478D01*
Y277479D01*
Y272480D02*
Y274480D01*
X531558Y275479D01*
X533557D01*
X534557Y274480D01*
Y272480D01*
X533557Y271481D01*
X532558D01*
Y275479D01*
X530558Y269481D02*
Y267482D01*
Y268482D01*
X534557D01*
Y269481D01*
Y264483D02*
X530558Y262484D01*
X534557Y260484D01*
X530558Y255486D02*
Y257485D01*
X531558Y258485D01*
X533557D01*
X534557Y257485D01*
Y255486D01*
X533557Y254486D01*
X532558D01*
Y258485D01*
X534557Y252487D02*
X530558D01*
X532558D01*
X533557Y251487D01*
X534557Y250487D01*
Y249488D01*
X530558Y246489D02*
Y243490D01*
X531558Y242490D01*
X532558Y243490D01*
Y245489D01*
X533557Y246489D01*
X534557Y245489D01*
Y242490D01*
X530558Y233493D02*
Y231494D01*
X531558Y230494D01*
X533557D01*
X534557Y231494D01*
Y233493D01*
X533557Y234493D01*
X531558D01*
X530558Y233493D01*
Y228495D02*
X534557D01*
Y225496D01*
X533557Y224496D01*
X530558D01*
X535557Y215499D02*
X534557D01*
Y216498D01*
Y214499D01*
Y215499D01*
X531558D01*
X530558Y214499D01*
X536556Y211500D02*
X530558D01*
X533557D01*
X534557Y210500D01*
Y208501D01*
X533557Y207501D01*
X530558D01*
Y205502D02*
Y203503D01*
Y204502D01*
X534557D01*
Y205502D01*
X530558Y200504D02*
Y197505D01*
X531558Y196505D01*
X532558Y197505D01*
Y199504D01*
X533557Y200504D01*
X534557Y199504D01*
Y196505D01*
X535557Y184509D02*
X536556Y185508D01*
Y187508D01*
X535557Y188507D01*
X534557D01*
X533557Y187508D01*
Y185508D01*
X532558Y184509D01*
X531558D01*
X530558Y185508D01*
Y187508D01*
X531558Y188507D01*
X530558Y182509D02*
Y180510D01*
Y181510D01*
X534557D01*
Y182509D01*
X536556Y173512D02*
X530558D01*
Y176511D01*
X531558Y177511D01*
X533557D01*
X534557Y176511D01*
Y173512D01*
X530558Y168514D02*
Y170513D01*
X531558Y171513D01*
X533557D01*
X534557Y170513D01*
Y168514D01*
X533557Y167514D01*
X532558D01*
Y171513D01*
X374599Y219500D02*
X370600D01*
X374599Y223499D01*
Y224498D01*
X373599Y225498D01*
X371600D01*
X370600Y224498D01*
X376598Y219500D02*
Y225498D01*
Y221499D02*
X379597Y223499D01*
X376598Y221499D02*
X379597Y219500D01*
X382596D02*
Y225498D01*
X385595D01*
X386595Y224498D01*
Y222499D01*
X385595Y221499D01*
X382596D01*
X384595D02*
X386595Y219500D01*
X388594Y224498D02*
X389594Y225498D01*
X391593D01*
X392593Y224498D01*
Y223499D01*
X391593Y222499D01*
X390594D01*
X391593D01*
X392593Y221499D01*
Y220500D01*
X391593Y219500D01*
X389594D01*
X388594Y220500D01*
X421799Y219500D02*
X417800D01*
X421799Y223499D01*
Y224498D01*
X420799Y225498D01*
X418800D01*
X417800Y224498D01*
X423798Y219500D02*
Y225498D01*
Y221499D02*
X426797Y223499D01*
X423798Y221499D02*
X426797Y219500D01*
X429796D02*
Y225498D01*
X432795D01*
X433795Y224498D01*
Y222499D01*
X432795Y221499D01*
X429796D01*
X431796D02*
X433795Y219500D01*
X439793D02*
X435794D01*
X439793Y223499D01*
Y224498D01*
X438793Y225498D01*
X436794D01*
X435794Y224498D01*
X469099Y251000D02*
X465100D01*
X469099Y254999D01*
Y255998D01*
X468099Y256998D01*
X466100D01*
X465100Y255998D01*
X471098Y251000D02*
Y256998D01*
Y252999D02*
X474097Y254999D01*
X471098Y252999D02*
X474097Y251000D01*
X477096D02*
Y256998D01*
X480095D01*
X481095Y255998D01*
Y253999D01*
X480095Y252999D01*
X477096D01*
X479096D02*
X481095Y251000D01*
X483094D02*
X485093D01*
X484094D01*
Y256998D01*
X483094Y255998D01*
X422136Y272591D02*
X418137D01*
X422136Y276590D01*
Y277590D01*
X421136Y278590D01*
X419137D01*
X418137Y277590D01*
X424135Y272591D02*
Y278590D01*
Y274591D02*
X427135Y276590D01*
X424135Y274591D02*
X427135Y272591D01*
X430133D02*
Y278590D01*
X433133D01*
X434132Y277590D01*
Y275590D01*
X433133Y274591D01*
X430133D01*
X432133D02*
X434132Y272591D01*
X436132Y277590D02*
X437131Y278590D01*
X439131D01*
X440130Y277590D01*
Y276590D01*
X439131Y275590D01*
X440130Y274591D01*
Y273591D01*
X439131Y272591D01*
X437131D01*
X436132Y273591D01*
Y274591D01*
X437131Y275590D01*
X436132Y276590D01*
Y277590D01*
X437131Y275590D02*
X439131D01*
X390640Y284402D02*
X386641D01*
X390640Y288401D01*
Y289401D01*
X389640Y290401D01*
X387641D01*
X386641Y289401D01*
X392639Y284402D02*
Y290401D01*
Y286402D02*
X395638Y288401D01*
X392639Y286402D02*
X395638Y284402D01*
X398638D02*
Y290401D01*
X401637D01*
X402636Y289401D01*
Y287402D01*
X401637Y286402D01*
X398638D01*
X400637D02*
X402636Y284402D01*
X404635Y285402D02*
X405635Y284402D01*
X407635D01*
X408634Y285402D01*
Y289401D01*
X407635Y290401D01*
X405635D01*
X404635Y289401D01*
Y288401D01*
X405635Y287402D01*
X408634D01*
X360582Y292277D02*
X356583D01*
X360582Y296275D01*
Y297275D01*
X359582Y298275D01*
X357583D01*
X356583Y297275D01*
X362581Y292277D02*
Y298275D01*
Y294276D02*
X365580Y296275D01*
X362581Y294276D02*
X365580Y292277D01*
X368579D02*
Y298275D01*
X371578D01*
X372578Y297275D01*
Y295276D01*
X371578Y294276D01*
X368579D01*
X370579D02*
X372578Y292277D01*
X374577D02*
X376577D01*
X375577D01*
Y298275D01*
X374577Y297275D01*
X379576D02*
X380575Y298275D01*
X382575D01*
X383574Y297275D01*
Y293276D01*
X382575Y292277D01*
X380575D01*
X379576Y293276D01*
Y297275D01*
X351499Y338200D02*
X347500D01*
X351499Y342199D01*
Y343198D01*
X350499Y344198D01*
X348500D01*
X347500Y343198D01*
X353498Y338200D02*
Y344198D01*
Y340199D02*
X356497Y342199D01*
X353498Y340199D02*
X356497Y338200D01*
X359496D02*
Y344198D01*
X362495D01*
X363495Y343198D01*
Y341199D01*
X362495Y340199D01*
X359496D01*
X361495D02*
X363495Y338200D01*
X365494D02*
X367494D01*
X366494D01*
Y344198D01*
X365494Y343198D01*
X370493Y338200D02*
X372492D01*
X371492D01*
Y344198D01*
X370493Y343198D01*
X277905Y304088D02*
X273906D01*
X277905Y308086D01*
Y309086D01*
X276905Y310086D01*
X274906D01*
X273906Y309086D01*
X279904Y304088D02*
Y310086D01*
Y306087D02*
X282903Y308086D01*
X279904Y306087D02*
X282903Y304088D01*
X285902D02*
Y310086D01*
X288901D01*
X289901Y309086D01*
Y307087D01*
X288901Y306087D01*
X285902D01*
X287901D02*
X289901Y304088D01*
X291900D02*
X293899D01*
X292900D01*
Y310086D01*
X291900Y309086D01*
X300897Y304088D02*
X296899D01*
X300897Y308086D01*
Y309086D01*
X299898Y310086D01*
X297898D01*
X296899Y309086D01*
X234598Y296214D02*
X230599D01*
X234598Y300212D01*
Y301212D01*
X233598Y302212D01*
X231598D01*
X230599Y301212D01*
X236597Y296214D02*
Y302212D01*
Y298213D02*
X239596Y300212D01*
X236597Y298213D02*
X239596Y296214D01*
X242595D02*
Y302212D01*
X245594D01*
X246594Y301212D01*
Y299213D01*
X245594Y298213D01*
X242595D01*
X244594D02*
X246594Y296214D01*
X248593D02*
X250592D01*
X249593D01*
Y302212D01*
X248593Y301212D01*
X253591D02*
X254591Y302212D01*
X256591D01*
X257590Y301212D01*
Y300212D01*
X256591Y299213D01*
X255591D01*
X256591D01*
X257590Y298213D01*
Y297213D01*
X256591Y296214D01*
X254591D01*
X253591Y297213D01*
X171605Y284402D02*
X167607D01*
X171605Y288401D01*
Y289401D01*
X170606Y290401D01*
X168606D01*
X167607Y289401D01*
X173605Y284402D02*
Y290401D01*
Y286402D02*
X176604Y288401D01*
X173605Y286402D02*
X176604Y284402D01*
X179603D02*
Y290401D01*
X182602D01*
X183602Y289401D01*
Y287402D01*
X182602Y286402D01*
X179603D01*
X181602D02*
X183602Y284402D01*
X185601D02*
X187600D01*
X186601D01*
Y290401D01*
X185601Y289401D01*
X193598Y284402D02*
Y290401D01*
X190599Y287402D01*
X194598D01*
X205299Y219500D02*
X201300D01*
X205299Y223499D01*
Y224498D01*
X204299Y225498D01*
X202300D01*
X201300Y224498D01*
X207298Y219500D02*
Y225498D01*
Y221499D02*
X210297Y223499D01*
X207298Y221499D02*
X210297Y219500D01*
X213296D02*
Y225498D01*
X216295D01*
X217295Y224498D01*
Y222499D01*
X216295Y221499D01*
X213296D01*
X215296D02*
X217295Y219500D01*
X219294Y225498D02*
X223293D01*
Y224498D01*
X219294Y220500D01*
Y219500D01*
X252499D02*
X248500D01*
X252499Y223499D01*
Y224498D01*
X251499Y225498D01*
X249500D01*
X248500Y224498D01*
X254498Y219500D02*
Y225498D01*
Y221499D02*
X257497Y223499D01*
X254498Y221499D02*
X257497Y219500D01*
X260496D02*
Y225498D01*
X263495D01*
X264495Y224498D01*
Y222499D01*
X263495Y221499D01*
X260496D01*
X262495D02*
X264495Y219500D01*
X270493Y225498D02*
X268494Y224498D01*
X266494Y222499D01*
Y220500D01*
X267494Y219500D01*
X269493D01*
X270493Y220500D01*
Y221499D01*
X269493Y222499D01*
X266494D01*
X299799Y219500D02*
X295800D01*
X299799Y223499D01*
Y224498D01*
X298799Y225498D01*
X296800D01*
X295800Y224498D01*
X301798Y219500D02*
Y225498D01*
Y221499D02*
X304797Y223499D01*
X301798Y221499D02*
X304797Y219500D01*
X307796D02*
Y225498D01*
X310795D01*
X311795Y224498D01*
Y222499D01*
X310795Y221499D01*
X307796D01*
X309795D02*
X311795Y219500D01*
X317793Y225498D02*
X313794D01*
Y222499D01*
X315793Y223499D01*
X316793D01*
X317793Y222499D01*
Y220500D01*
X316793Y219500D01*
X314794D01*
X313794Y220500D01*
X335199Y219500D02*
X331200D01*
X335199Y223499D01*
Y224498D01*
X334199Y225498D01*
X332200D01*
X331200Y224498D01*
X337198Y219500D02*
Y225498D01*
Y221499D02*
X340197Y223499D01*
X337198Y221499D02*
X340197Y219500D01*
X343196D02*
Y225498D01*
X346195D01*
X347195Y224498D01*
Y222499D01*
X346195Y221499D01*
X343196D01*
X345196D02*
X347195Y219500D01*
X352193D02*
Y225498D01*
X349194Y222499D01*
X353193D01*
X301718Y239719D02*
Y233721D01*
X304717D01*
X305717Y234721D01*
Y235721D01*
X304717Y236720D01*
X301718D01*
X304717D01*
X305717Y237720D01*
Y238720D01*
X304717Y239719D01*
X301718D01*
X308716Y233721D02*
X310715D01*
X311715Y234721D01*
Y236720D01*
X310715Y237720D01*
X308716D01*
X307716Y236720D01*
Y234721D01*
X308716Y233721D01*
X314714Y237720D02*
X316713D01*
X317713Y236720D01*
Y233721D01*
X314714D01*
X313714Y234721D01*
X314714Y235721D01*
X317713D01*
X319712Y237720D02*
Y233721D01*
Y235721D01*
X320712Y236720D01*
X321712Y237720D01*
X322711D01*
X329709Y239719D02*
Y233721D01*
X326710D01*
X325710Y234721D01*
Y236720D01*
X326710Y237720D01*
X329709D01*
X331708Y232722D02*
X335707D01*
X341705Y238720D02*
X340705Y239719D01*
X338706D01*
X337706Y238720D01*
Y234721D01*
X338706Y233721D01*
X340705D01*
X341705Y234721D01*
X344704Y233721D02*
X346704D01*
X347703Y234721D01*
Y236720D01*
X346704Y237720D01*
X344704D01*
X343705Y236720D01*
Y234721D01*
X344704Y233721D01*
X349703D02*
Y237720D01*
X352701D01*
X353701Y236720D01*
Y233721D01*
X355701D02*
Y237720D01*
X358700D01*
X359699Y236720D01*
Y233721D01*
X189415Y329771D02*
X187415D01*
X188415D01*
Y324772D01*
X187415Y323773D01*
X186416D01*
X185416Y324772D01*
X191414Y323773D02*
X193413D01*
X192414D01*
Y329771D01*
X191414Y328771D01*
X200411Y329771D02*
X198412Y328771D01*
X196412Y326772D01*
Y324772D01*
X197412Y323773D01*
X199411D01*
X200411Y324772D01*
Y325772D01*
X199411Y326772D01*
X196412D01*
X236659Y329771D02*
X234659D01*
X235659D01*
Y324772D01*
X234659Y323773D01*
X233660D01*
X232660Y324772D01*
X238658Y323773D02*
X240657D01*
X239658D01*
Y329771D01*
X238658Y328771D01*
X247655Y329771D02*
X243656D01*
Y326772D01*
X245656Y327771D01*
X246655D01*
X247655Y326772D01*
Y324772D01*
X246655Y323773D01*
X244656D01*
X243656Y324772D01*
X276029Y333708D02*
X274029D01*
X275029D01*
Y328709D01*
X274029Y327710D01*
X273030D01*
X272030Y328709D01*
X278028Y327710D02*
X280027D01*
X279028D01*
Y333708D01*
X278028Y332708D01*
X286026Y327710D02*
Y333708D01*
X283026Y330709D01*
X287025D01*
X331147Y329771D02*
X329147D01*
X330147D01*
Y324772D01*
X329147Y323773D01*
X328148D01*
X327148Y324772D01*
X333146Y323773D02*
X335145D01*
X334146D01*
Y329771D01*
X333146Y328771D01*
X338144D02*
X339144Y329771D01*
X341144D01*
X342143Y328771D01*
Y327771D01*
X341144Y326772D01*
X340144D01*
X341144D01*
X342143Y325772D01*
Y324772D01*
X341144Y323773D01*
X339144D01*
X338144Y324772D01*
X378391Y329771D02*
X376392D01*
X377391D01*
Y324772D01*
X376392Y323773D01*
X375392D01*
X374392Y324772D01*
X380390Y323773D02*
X382390D01*
X381390D01*
Y329771D01*
X380390Y328771D01*
X389387Y323773D02*
X385389D01*
X389387Y327771D01*
Y328771D01*
X388388Y329771D01*
X386388D01*
X385389Y328771D01*
X426635Y329771D02*
X424635D01*
X425635D01*
Y324772D01*
X424635Y323773D01*
X423636D01*
X422636Y324772D01*
X428634Y323773D02*
X430633D01*
X429634D01*
Y329771D01*
X428634Y328771D01*
X433632Y323773D02*
X435632D01*
X434632D01*
Y329771D01*
X433632Y328771D01*
X476816Y330164D02*
X474817D01*
X475816D01*
Y325166D01*
X474817Y324166D01*
X473817D01*
X472817Y325166D01*
X478815Y324166D02*
X480815D01*
X479815D01*
Y330164D01*
X478815Y329165D01*
X483814D02*
X484813Y330164D01*
X486813D01*
X487813Y329165D01*
Y325166D01*
X486813Y324166D01*
X484813D01*
X483814Y325166D01*
Y329165D01*
X191914Y195912D02*
X189914D01*
X190914D01*
Y190914D01*
X189914Y189914D01*
X188915D01*
X187915Y190914D01*
X193913Y195912D02*
X197912D01*
Y194913D01*
X193913Y190914D01*
Y189914D01*
X239158Y195912D02*
X237158D01*
X238158D01*
Y190914D01*
X237158Y189914D01*
X236159D01*
X235159Y190914D01*
X245156Y195912D02*
X243157Y194913D01*
X241157Y192913D01*
Y190914D01*
X242157Y189914D01*
X244156D01*
X245156Y190914D01*
Y191914D01*
X244156Y192913D01*
X241157D01*
X286402Y195912D02*
X284402D01*
X285402D01*
Y190914D01*
X284402Y189914D01*
X283403D01*
X282403Y190914D01*
X292400Y195912D02*
X288401D01*
Y192913D01*
X290401Y193913D01*
X291400D01*
X292400Y192913D01*
Y190914D01*
X291400Y189914D01*
X289401D01*
X288401Y190914D01*
X333646Y195912D02*
X331647D01*
X332646D01*
Y190914D01*
X331647Y189914D01*
X330647D01*
X329647Y190914D01*
X338644Y189914D02*
Y195912D01*
X335645Y192913D01*
X339644D01*
X380890Y195912D02*
X378891D01*
X379890D01*
Y190914D01*
X378891Y189914D01*
X377891D01*
X376891Y190914D01*
X382889Y194913D02*
X383889Y195912D01*
X385889D01*
X386888Y194913D01*
Y193913D01*
X385889Y192913D01*
X384889D01*
X385889D01*
X386888Y191914D01*
Y190914D01*
X385889Y189914D01*
X383889D01*
X382889Y190914D01*
X428134Y195912D02*
X426135D01*
X427135D01*
Y190914D01*
X426135Y189914D01*
X425135D01*
X424135Y190914D01*
X434132Y189914D02*
X430133D01*
X434132Y193913D01*
Y194913D01*
X433133Y195912D01*
X431133D01*
X430133Y194913D01*
X476378Y195912D02*
X474379D01*
X475378D01*
Y190914D01*
X474379Y189914D01*
X473379D01*
X472379Y190914D01*
X478377Y189914D02*
X480377D01*
X479377D01*
Y195912D01*
X478377Y194913D01*
M02*
