G04*
G04 #@! TF.GenerationSoftware,Altium Limited,Altium Designer,21.1.1 (26)*
G04*
G04 Layer_Color=16711935*
%FSLAX25Y25*%
%MOIN*%
G70*
G04*
G04 #@! TF.SameCoordinates,037F275B-A6FD-482A-AA4E-5CA96C5587D5*
G04*
G04*
G04 #@! TF.FilePolarity,Positive*
G04*
G01*
G75*
%ADD10C,0.00787*%
%ADD11C,0.00394*%
%ADD46C,0.02000*%
%ADD51C,0.00100*%
D10*
X345285Y240905D02*
X344498D01*
X345285D01*
X165354Y351870D02*
Y356791D01*
X173228D01*
Y351870D02*
Y356791D01*
X165354Y351870D02*
X173228D01*
X503937Y174705D02*
Y179626D01*
X496063Y174705D02*
X503937D01*
X496063D02*
Y179626D01*
X503937D01*
X208661Y174705D02*
Y179626D01*
X216535D01*
Y174705D02*
Y179626D01*
X208661Y174705D02*
X216535D01*
X216535Y351870D02*
X224410D01*
Y356791D01*
X216535D02*
X224410D01*
X216535Y351870D02*
Y356791D01*
X259842Y351870D02*
X267717D01*
Y356791D01*
X259842D02*
X267717D01*
X259842Y351870D02*
Y356791D01*
X307087Y351870D02*
X314961D01*
Y356791D01*
X307087D02*
X314961D01*
X307087Y351870D02*
Y356791D01*
X354331Y351870D02*
X362205D01*
Y356791D01*
X354331D02*
X362205D01*
X354331Y351870D02*
Y356791D01*
X393701Y320374D02*
X401575D01*
Y325295D01*
X393701D02*
X401575D01*
X393701Y320374D02*
Y325295D01*
X444882Y320374D02*
X452756D01*
Y325295D01*
X444882D02*
X452756D01*
X444882Y320374D02*
Y325295D01*
Y174705D02*
X452756D01*
Y179626D01*
X444882D02*
X452756D01*
X444882Y174705D02*
Y179626D01*
X397638Y174705D02*
X405512D01*
Y179626D01*
X397638D02*
X405512D01*
X397638Y174705D02*
Y179626D01*
X350394Y174705D02*
X358268D01*
Y179626D01*
X350394D02*
X358268D01*
X350394Y174705D02*
Y179626D01*
X303150Y174705D02*
X311024D01*
Y179626D01*
X303150D02*
X311024D01*
X303150Y174705D02*
Y179626D01*
X255906Y174705D02*
X263779D01*
Y179626D01*
X255906D02*
X263779D01*
X255906Y174705D02*
Y179626D01*
X324644Y243465D02*
X344648D01*
Y244843D01*
X324644Y243465D02*
Y244843D01*
Y323465D02*
X344648D01*
Y322087D02*
Y323465D01*
X324644Y322087D02*
Y323465D01*
X331496Y309449D02*
X337795D01*
Y296850D02*
Y309449D01*
X331496Y296850D02*
X337795D01*
X331496D02*
Y309449D01*
X330988Y301483D02*
Y304816D01*
X338304Y301483D02*
Y304816D01*
X414862Y311024D02*
X419783D01*
Y303150D02*
Y311024D01*
X414862Y303150D02*
X419783D01*
X414862D02*
Y311024D01*
D11*
X162894Y362894D02*
Y369390D01*
X175689Y362894D02*
Y369390D01*
X162894Y362894D02*
X175689D01*
X162894Y369390D02*
X175689D01*
X442421Y331398D02*
Y337894D01*
X455217Y331398D02*
Y337894D01*
X442421Y331398D02*
X455217D01*
X442421Y337894D02*
X455217D01*
X496260Y162106D02*
Y168602D01*
X509055Y162106D02*
Y168602D01*
X496260Y162106D02*
X509055D01*
X496260Y168602D02*
X509055D01*
X218996Y162106D02*
Y168602D01*
X206201Y162106D02*
Y168602D01*
X218996D01*
X206201Y162106D02*
X218996D01*
X214075Y369390D02*
X226870D01*
X214075Y362894D02*
X226870D01*
Y369390D01*
X214075Y362894D02*
Y369390D01*
X257382D02*
X270177D01*
X257382Y362894D02*
X270177D01*
Y369390D01*
X257382Y362894D02*
Y369390D01*
X304626D02*
X317421D01*
X304626Y362894D02*
X317421D01*
Y369390D01*
X304626Y362894D02*
Y369390D01*
X351870D02*
X364665D01*
X351870Y362894D02*
X364665D01*
Y369390D01*
X351870Y362894D02*
Y369390D01*
X391240Y337894D02*
X404035D01*
X391240Y331398D02*
X404035D01*
Y337894D01*
X391240Y331398D02*
Y337894D01*
X487106Y302756D02*
Y311417D01*
X481398Y302756D02*
Y311417D01*
Y302756D02*
X487106D01*
X481398Y311417D02*
X487106D01*
X442421Y162106D02*
X455217D01*
X442421Y168602D02*
X455217D01*
X442421Y162106D02*
Y168602D01*
X455217Y162106D02*
Y168602D01*
X395177Y162106D02*
X407972D01*
X395177Y168602D02*
X407972D01*
X395177Y162106D02*
Y168602D01*
X407972Y162106D02*
Y168602D01*
X347933Y162106D02*
X360728D01*
X347933Y168602D02*
X360728D01*
X347933Y162106D02*
Y168602D01*
X360728Y162106D02*
Y168602D01*
X300689Y162106D02*
X313484D01*
X300689Y168602D02*
X313484D01*
X300689Y162106D02*
Y168602D01*
X313484Y162106D02*
Y168602D01*
X253445Y162106D02*
X266240D01*
X253445Y168602D02*
X266240D01*
X253445Y162106D02*
Y168602D01*
X266240Y162106D02*
Y168602D01*
X324644Y243465D02*
X344648D01*
X324644D02*
Y323465D01*
X344648D01*
Y243465D02*
Y323465D01*
X324644Y243465D02*
X344648D01*
X324644D02*
Y323465D01*
X344648D01*
X264862Y301083D02*
Y305217D01*
X262697Y301083D02*
Y305217D01*
Y301083D02*
X264862D01*
X262697Y305217D02*
X264862D01*
X446850Y301181D02*
X458661D01*
X446850D02*
Y312992D01*
X458661D01*
Y301181D02*
Y312992D01*
X368110Y301181D02*
X379921D01*
X368110D02*
Y312992D01*
X379921D01*
Y301181D02*
Y312992D01*
X289370Y301181D02*
X301181D01*
X289370D02*
Y312992D01*
X301181D01*
Y301181D02*
Y312992D01*
X210630Y301181D02*
X222441D01*
X210630D02*
Y312992D01*
X222441D01*
Y301181D02*
Y312992D01*
D46*
X177504Y254921D02*
X177153Y255885D01*
X176264Y256399D01*
X175253Y256220D01*
X174594Y255434D01*
Y254408D01*
X175253Y253622D01*
X176264Y253444D01*
X177153Y253957D01*
X177504Y254921D01*
D51*
X164015Y276043D02*
X190315D01*
X164015Y243642D02*
Y276043D01*
Y243642D02*
X190315D01*
Y276043D01*
M02*
