G04*
G04 #@! TF.GenerationSoftware,Altium Limited,Altium Designer,23.5.1 (21)*
G04*
G04 Layer_Color=128*
%FSLAX25Y25*%
%MOIN*%
G70*
G04*
G04 #@! TF.SameCoordinates,1A84014D-912B-431A-891A-BB623E0DE537*
G04*
G04*
G04 #@! TF.FilePolarity,Positive*
G04*
G01*
G75*
%ADD31R,0.03543X0.06102*%
%ADD32R,0.05500X0.05800*%
D31*
X174508Y366142D02*
D03*
X164075D02*
D03*
X225689D02*
D03*
X215256D02*
D03*
X268996D02*
D03*
X258563D02*
D03*
X316240D02*
D03*
X305807D02*
D03*
X363484D02*
D03*
X353051D02*
D03*
X402854Y334646D02*
D03*
X392421D02*
D03*
X454035D02*
D03*
X443602D02*
D03*
X207382Y165354D02*
D03*
X217815D02*
D03*
X254626Y165354D02*
D03*
X265059D02*
D03*
X301870D02*
D03*
X312303D02*
D03*
X349114D02*
D03*
X359547D02*
D03*
X396358D02*
D03*
X406791D02*
D03*
X443602D02*
D03*
X454035D02*
D03*
X507874D02*
D03*
X497441D02*
D03*
D32*
X172838Y354331D02*
D03*
X165745D02*
D03*
X496454Y177165D02*
D03*
X503546D02*
D03*
X216145D02*
D03*
X209052D02*
D03*
X216926Y354331D02*
D03*
X224019D02*
D03*
X260233D02*
D03*
X267326D02*
D03*
X307477D02*
D03*
X314570D02*
D03*
X354721D02*
D03*
X361814D02*
D03*
X394091Y322835D02*
D03*
X401184D02*
D03*
X445272D02*
D03*
X452365D02*
D03*
X445272Y177165D02*
D03*
X452365D02*
D03*
X398028D02*
D03*
X405121D02*
D03*
X350784D02*
D03*
X357877D02*
D03*
X303540D02*
D03*
X310633D02*
D03*
X256296D02*
D03*
X263389D02*
D03*
M02*
