G04*
G04 #@! TF.GenerationSoftware,Altium Limited,Altium Designer,20.2.6 (244)*
G04*
G04 Layer_Color=8421504*
%FSLAX25Y25*%
%MOIN*%
G70*
G04*
G04 #@! TF.SameCoordinates,8424CAA1-D01E-41BF-9092-1BA52A19D79E*
G04*
G04*
G04 #@! TF.FilePolarity,Positive*
G04*
G01*
G75*
%ADD13R,0.04182X0.04469*%
%ADD14R,0.12500X0.04488*%
%ADD15R,0.04469X0.04182*%
D13*
X236221Y205451D02*
D03*
Y211872D02*
D03*
X299213D02*
D03*
Y205451D02*
D03*
X334646Y211872D02*
D03*
Y205451D02*
D03*
X251969Y211872D02*
D03*
Y205451D02*
D03*
X374016Y211872D02*
D03*
Y205451D02*
D03*
X421260Y211872D02*
D03*
Y205451D02*
D03*
X468504Y243368D02*
D03*
Y236947D02*
D03*
D14*
X340955Y235591D02*
D03*
X320463D02*
D03*
X340955Y245590D02*
D03*
X320463D02*
D03*
X340955Y255591D02*
D03*
X320463D02*
D03*
X340955Y265591D02*
D03*
X320463D02*
D03*
X340955Y275590D02*
D03*
X320463D02*
D03*
X340955Y285591D02*
D03*
X320463D02*
D03*
X340955Y295590D02*
D03*
X320463D02*
D03*
X340955Y305591D02*
D03*
X320463D02*
D03*
X340955Y315591D02*
D03*
X320463D02*
D03*
D15*
X421987Y287402D02*
D03*
X428407D02*
D03*
X389764Y299213D02*
D03*
X396184D02*
D03*
X362931Y307087D02*
D03*
X369352D02*
D03*
X290612Y318898D02*
D03*
X284191D02*
D03*
X247305Y311024D02*
D03*
X240884D02*
D03*
X180376Y299213D02*
D03*
X173955D02*
D03*
X357541Y330709D02*
D03*
X351120D02*
D03*
M02*
