G04*
G04 #@! TF.GenerationSoftware,Altium Limited,Altium Designer,20.2.6 (244)*
G04*
G04 Layer_Physical_Order=4*
G04 Layer_Color=16711680*
%FSLAX25Y25*%
%MOIN*%
G70*
G04*
G04 #@! TF.SameCoordinates,497CC9B7-7792-49EA-9D7E-492ABDADDE37*
G04*
G04*
G04 #@! TF.FilePolarity,Positive*
G04*
G01*
G75*
%ADD12C,0.01000*%
%ADD26C,0.05000*%
%ADD27C,0.06496*%
%ADD28R,0.06496X0.06496*%
%ADD29R,0.04724X0.04724*%
%ADD30C,0.04724*%
%ADD31C,0.07874*%
%ADD32R,0.03937X0.03937*%
%ADD33C,0.12402*%
%ADD34C,0.05000*%
%ADD35C,0.09843*%
%ADD36R,0.03543X0.06102*%
%ADD37R,0.05500X0.05800*%
G36*
X547244Y118110D02*
X118110D01*
Y393701D01*
X164614D01*
X164646Y393201D01*
X164441Y393174D01*
X163589Y392821D01*
X162858Y392260D01*
X162297Y391529D01*
X161944Y390677D01*
X161824Y389764D01*
X161944Y388850D01*
X162297Y387999D01*
X162858Y387267D01*
X163589Y386706D01*
X163817Y386612D01*
Y370193D01*
X161303D01*
Y362090D01*
X166847D01*
Y367266D01*
X166876Y367413D01*
Y386606D01*
X167119Y386706D01*
X167851Y387267D01*
X168412Y387999D01*
X168764Y388850D01*
X168885Y389764D01*
X168764Y390677D01*
X168412Y391529D01*
X167851Y392260D01*
X167119Y392821D01*
X166268Y393174D01*
X166062Y393201D01*
X166095Y393701D01*
X215795D01*
X215828Y393201D01*
X215622Y393174D01*
X214770Y392821D01*
X214039Y392260D01*
X213478Y391529D01*
X213125Y390677D01*
X213005Y389764D01*
X213125Y388850D01*
X213478Y387999D01*
X214039Y387267D01*
X214770Y386706D01*
X214998Y386612D01*
Y370193D01*
X212484D01*
Y362090D01*
X218028D01*
Y367266D01*
X218057Y367413D01*
Y386606D01*
X218301Y386706D01*
X219032Y387267D01*
X219593Y387999D01*
X219945Y388850D01*
X220066Y389764D01*
X219945Y390677D01*
X219593Y391529D01*
X219032Y392260D01*
X218301Y392821D01*
X217449Y393174D01*
X217243Y393201D01*
X217276Y393701D01*
X259102D01*
X259135Y393201D01*
X258929Y393174D01*
X258077Y392821D01*
X257346Y392260D01*
X256785Y391529D01*
X256433Y390677D01*
X256312Y389764D01*
X256433Y388850D01*
X256785Y387999D01*
X257346Y387267D01*
X258077Y386706D01*
X258313Y386609D01*
Y378340D01*
X258305Y378300D01*
Y370193D01*
X255791D01*
Y362090D01*
X261335D01*
Y367266D01*
X261364Y367413D01*
Y378269D01*
X261372Y378308D01*
Y386609D01*
X261608Y386706D01*
X262339Y387267D01*
X262900Y387999D01*
X263252Y388850D01*
X263373Y389764D01*
X263252Y390677D01*
X262900Y391529D01*
X262339Y392260D01*
X261608Y392821D01*
X260756Y393174D01*
X260550Y393201D01*
X260583Y393701D01*
X306346D01*
X306379Y393201D01*
X306173Y393174D01*
X305322Y392821D01*
X304590Y392260D01*
X304029Y391529D01*
X303677Y390677D01*
X303556Y389764D01*
X303677Y388850D01*
X304029Y387999D01*
X304590Y387267D01*
X305322Y386706D01*
X305549Y386612D01*
Y370193D01*
X303035D01*
Y362090D01*
X308579D01*
Y367266D01*
X308608Y367413D01*
Y386606D01*
X308852Y386706D01*
X309583Y387267D01*
X310144Y387999D01*
X310496Y388850D01*
X310617Y389764D01*
X310496Y390677D01*
X310144Y391529D01*
X309583Y392260D01*
X308852Y392821D01*
X308000Y393174D01*
X307794Y393201D01*
X307827Y393701D01*
X353590D01*
X353623Y393201D01*
X353417Y393174D01*
X352566Y392821D01*
X351835Y392260D01*
X351273Y391529D01*
X350921Y390677D01*
X350800Y389764D01*
X350921Y388850D01*
X351273Y387999D01*
X351835Y387267D01*
X352566Y386706D01*
X352801Y386609D01*
Y372435D01*
X352793Y372395D01*
Y370193D01*
X350279D01*
Y362090D01*
X355823D01*
Y367266D01*
X355852Y367413D01*
Y372363D01*
X355860Y372403D01*
Y386609D01*
X356096Y386706D01*
X356827Y387267D01*
X357388Y387999D01*
X357741Y388850D01*
X357861Y389764D01*
X357741Y390677D01*
X357388Y391529D01*
X356827Y392260D01*
X356096Y392821D01*
X355244Y393174D01*
X355038Y393201D01*
X355071Y393701D01*
X400834D01*
X400867Y393201D01*
X400661Y393174D01*
X399810Y392821D01*
X399079Y392260D01*
X398518Y391529D01*
X398177Y390707D01*
X397638D01*
X397053Y390591D01*
X396556Y390259D01*
X396225Y389763D01*
X396108Y389178D01*
Y379370D01*
X395608Y379200D01*
X395253Y379663D01*
X394222Y380454D01*
X393021Y380952D01*
X391732Y381121D01*
X390443Y380952D01*
X389243Y380454D01*
X388211Y379663D01*
X387420Y378631D01*
X386922Y377431D01*
X386753Y376142D01*
X386922Y374853D01*
X387420Y373652D01*
X388211Y372621D01*
X389243Y371829D01*
X390443Y371332D01*
X391732Y371162D01*
X393021Y371332D01*
X394222Y371829D01*
X395253Y372621D01*
X395608Y373083D01*
X396108Y372914D01*
Y359797D01*
X394224D01*
X393638Y359681D01*
X393142Y359349D01*
X392556Y358763D01*
X392225Y358267D01*
X392108Y357682D01*
Y338697D01*
X389650D01*
Y330594D01*
X395193D01*
Y338697D01*
X395167D01*
Y356738D01*
X397052D01*
X397637Y356855D01*
X398133Y357186D01*
X398719Y357772D01*
X399051Y358268D01*
X399167Y358854D01*
Y386634D01*
X399616Y386856D01*
X399810Y386706D01*
X400661Y386354D01*
X401575Y386234D01*
X402489Y386354D01*
X403340Y386706D01*
X404071Y387267D01*
X404632Y387999D01*
X404985Y388850D01*
X405105Y389764D01*
X404985Y390677D01*
X404632Y391529D01*
X404071Y392260D01*
X403340Y392821D01*
X402489Y393174D01*
X402283Y393201D01*
X402315Y393701D01*
X448078D01*
X448111Y393201D01*
X447905Y393174D01*
X447054Y392821D01*
X446323Y392260D01*
X445762Y391529D01*
X445409Y390677D01*
X445289Y389764D01*
X445409Y388850D01*
X445762Y387999D01*
X446323Y387267D01*
X447054Y386706D01*
X447290Y386609D01*
Y344049D01*
X445468D01*
X444882Y343933D01*
X444386Y343601D01*
X443793Y343007D01*
X443461Y342511D01*
X443345Y341926D01*
Y338697D01*
X440831D01*
Y330594D01*
X446374D01*
Y335770D01*
X446403Y335917D01*
Y340990D01*
X448233D01*
X448818Y341107D01*
X449314Y341438D01*
X449900Y342024D01*
X450232Y342520D01*
X450348Y343106D01*
Y386609D01*
X450584Y386706D01*
X451315Y387267D01*
X451876Y387999D01*
X452229Y388850D01*
X452349Y389764D01*
X452229Y390677D01*
X451876Y391529D01*
X451315Y392260D01*
X450584Y392821D01*
X449733Y393174D01*
X449527Y393201D01*
X449559Y393701D01*
X547244D01*
Y118110D01*
D02*
G37*
%LPC*%
G36*
X149606Y389357D02*
X148693Y389237D01*
X147841Y388884D01*
X147110Y388323D01*
X146549Y387592D01*
X146196Y386740D01*
X146076Y385827D01*
X146196Y384913D01*
X146549Y384062D01*
X147110Y383330D01*
X147841Y382769D01*
X148693Y382417D01*
X149606Y382297D01*
X150520Y382417D01*
X151371Y382769D01*
X152102Y383330D01*
X152664Y384062D01*
X153016Y384913D01*
X153137Y385827D01*
X153016Y386740D01*
X152664Y387592D01*
X152102Y388323D01*
X151371Y388884D01*
X150520Y389237D01*
X149606Y389357D01*
D02*
G37*
G36*
X466221Y382047D02*
X464932Y381877D01*
X463731Y381379D01*
X462699Y380588D01*
X461908Y379557D01*
X461411Y378356D01*
X461241Y377067D01*
X461411Y375778D01*
X461908Y374577D01*
X462699Y373546D01*
X463731Y372755D01*
X464932Y372257D01*
X466221Y372087D01*
X467509Y372257D01*
X468710Y372755D01*
X469742Y373546D01*
X470533Y374577D01*
X471030Y375778D01*
X471200Y377067D01*
X471030Y378356D01*
X470533Y379557D01*
X469742Y380588D01*
X468710Y381379D01*
X467509Y381877D01*
X466221Y382047D01*
D02*
G37*
G36*
X418976Y381653D02*
X417688Y381483D01*
X416487Y380986D01*
X415455Y380194D01*
X414664Y379163D01*
X414166Y377962D01*
X413997Y376673D01*
X414166Y375384D01*
X414664Y374183D01*
X415455Y373152D01*
X416487Y372361D01*
X417688Y371863D01*
X418976Y371694D01*
X420265Y371863D01*
X421466Y372361D01*
X422498Y373152D01*
X423289Y374183D01*
X423786Y375384D01*
X423956Y376673D01*
X423786Y377962D01*
X423289Y379163D01*
X422498Y380194D01*
X421466Y380986D01*
X420265Y381483D01*
X418976Y381653D01*
D02*
G37*
G36*
X371732D02*
X370444Y381483D01*
X369243Y380986D01*
X368211Y380194D01*
X367420Y379163D01*
X366922Y377962D01*
X366753Y376673D01*
X366922Y375384D01*
X367420Y374183D01*
X368211Y373152D01*
X369243Y372361D01*
X370444Y371863D01*
X371732Y371694D01*
X373021Y371863D01*
X374222Y372361D01*
X375253Y373152D01*
X376045Y374183D01*
X376542Y375384D01*
X376712Y376673D01*
X376542Y377962D01*
X376045Y379163D01*
X375253Y380194D01*
X374222Y380986D01*
X373021Y381483D01*
X371732Y381653D01*
D02*
G37*
G36*
X324488D02*
X323199Y381483D01*
X321998Y380986D01*
X320967Y380194D01*
X320176Y379163D01*
X319678Y377962D01*
X319509Y376673D01*
X319678Y375384D01*
X320176Y374183D01*
X320967Y373152D01*
X321998Y372361D01*
X323199Y371863D01*
X324488Y371694D01*
X325777Y371863D01*
X326978Y372361D01*
X328009Y373152D01*
X328801Y374183D01*
X329298Y375384D01*
X329468Y376673D01*
X329298Y377962D01*
X328801Y379163D01*
X328009Y380194D01*
X326978Y380986D01*
X325777Y381483D01*
X324488Y381653D01*
D02*
G37*
G36*
X277244D02*
X275955Y381483D01*
X274754Y380986D01*
X273723Y380194D01*
X272932Y379163D01*
X272434Y377962D01*
X272265Y376673D01*
X272434Y375384D01*
X272932Y374183D01*
X273723Y373152D01*
X274754Y372361D01*
X275955Y371863D01*
X277244Y371694D01*
X278533Y371863D01*
X279734Y372361D01*
X280765Y373152D01*
X281557Y374183D01*
X282054Y375384D01*
X282224Y376673D01*
X282054Y377962D01*
X281557Y379163D01*
X280765Y380194D01*
X279734Y380986D01*
X278533Y381483D01*
X277244Y381653D01*
D02*
G37*
G36*
X230000D02*
X228711Y381483D01*
X227510Y380986D01*
X226479Y380194D01*
X225688Y379163D01*
X225190Y377962D01*
X225020Y376673D01*
X225190Y375384D01*
X225688Y374183D01*
X226479Y373152D01*
X227510Y372361D01*
X228711Y371863D01*
X230000Y371694D01*
X231289Y371863D01*
X232490Y372361D01*
X233521Y373152D01*
X234313Y374183D01*
X234810Y375384D01*
X234980Y376673D01*
X234810Y377962D01*
X234313Y379163D01*
X233521Y380194D01*
X232490Y380986D01*
X231289Y381483D01*
X230000Y381653D01*
D02*
G37*
G36*
X182756D02*
X181467Y381483D01*
X180266Y380986D01*
X179235Y380194D01*
X178443Y379163D01*
X177946Y377962D01*
X177776Y376673D01*
X177946Y375384D01*
X178443Y374183D01*
X179235Y373152D01*
X180266Y372361D01*
X181467Y371863D01*
X182756Y371694D01*
X184045Y371863D01*
X185246Y372361D01*
X186277Y373152D01*
X187068Y374183D01*
X187566Y375384D01*
X187735Y376673D01*
X187566Y377962D01*
X187068Y379163D01*
X186277Y380194D01*
X185246Y380986D01*
X184045Y381483D01*
X182756Y381653D01*
D02*
G37*
G36*
X486221Y381515D02*
X484932Y381345D01*
X483731Y380848D01*
X482699Y380057D01*
X481908Y379025D01*
X481411Y377824D01*
X481241Y376535D01*
X481411Y375247D01*
X481908Y374046D01*
X482699Y373014D01*
X483731Y372223D01*
X484932Y371726D01*
X486221Y371556D01*
X487509Y371726D01*
X488710Y372223D01*
X489742Y373014D01*
X490533Y374046D01*
X491030Y375247D01*
X491200Y376535D01*
X491030Y377824D01*
X490533Y379025D01*
X489742Y380057D01*
X488710Y380848D01*
X487509Y381345D01*
X486221Y381515D01*
D02*
G37*
G36*
X438976Y381121D02*
X437688Y380952D01*
X436487Y380454D01*
X435455Y379663D01*
X434664Y378631D01*
X434166Y377431D01*
X433997Y376142D01*
X434166Y374853D01*
X434664Y373652D01*
X435455Y372621D01*
X436487Y371829D01*
X437688Y371332D01*
X438976Y371162D01*
X440265Y371332D01*
X441466Y371829D01*
X442497Y372621D01*
X443289Y373652D01*
X443786Y374853D01*
X443956Y376142D01*
X443786Y377431D01*
X443289Y378631D01*
X442497Y379663D01*
X441466Y380454D01*
X440265Y380952D01*
X438976Y381121D01*
D02*
G37*
G36*
X344488D02*
X343199Y380952D01*
X341998Y380454D01*
X340967Y379663D01*
X340176Y378631D01*
X339678Y377431D01*
X339509Y376142D01*
X339678Y374853D01*
X340176Y373652D01*
X340967Y372621D01*
X341998Y371829D01*
X343199Y371332D01*
X344488Y371162D01*
X345777Y371332D01*
X346978Y371829D01*
X348009Y372621D01*
X348801Y373652D01*
X349298Y374853D01*
X349468Y376142D01*
X349298Y377431D01*
X348801Y378631D01*
X348009Y379663D01*
X346978Y380454D01*
X345777Y380952D01*
X344488Y381121D01*
D02*
G37*
G36*
X297244D02*
X295955Y380952D01*
X294754Y380454D01*
X293723Y379663D01*
X292932Y378631D01*
X292434Y377431D01*
X292265Y376142D01*
X292434Y374853D01*
X292932Y373652D01*
X293723Y372621D01*
X294754Y371829D01*
X295955Y371332D01*
X297244Y371162D01*
X298533Y371332D01*
X299734Y371829D01*
X300765Y372621D01*
X301557Y373652D01*
X302054Y374853D01*
X302224Y376142D01*
X302054Y377431D01*
X301557Y378631D01*
X300765Y379663D01*
X299734Y380454D01*
X298533Y380952D01*
X297244Y381121D01*
D02*
G37*
G36*
X250000D02*
X248711Y380952D01*
X247510Y380454D01*
X246479Y379663D01*
X245688Y378631D01*
X245190Y377431D01*
X245020Y376142D01*
X245190Y374853D01*
X245688Y373652D01*
X246479Y372621D01*
X247510Y371829D01*
X248711Y371332D01*
X250000Y371162D01*
X251289Y371332D01*
X252490Y371829D01*
X253521Y372621D01*
X254312Y373652D01*
X254810Y374853D01*
X254980Y376142D01*
X254810Y377431D01*
X254312Y378631D01*
X253521Y379663D01*
X252490Y380454D01*
X251289Y380952D01*
X250000Y381121D01*
D02*
G37*
G36*
X202756D02*
X201467Y380952D01*
X200266Y380454D01*
X199235Y379663D01*
X198443Y378631D01*
X197946Y377431D01*
X197776Y376142D01*
X197946Y374853D01*
X198443Y373652D01*
X199235Y372621D01*
X200266Y371829D01*
X201467Y371332D01*
X202756Y371162D01*
X204045Y371332D01*
X205246Y371829D01*
X206277Y372621D01*
X207068Y373652D01*
X207566Y374853D01*
X207735Y376142D01*
X207566Y377431D01*
X207068Y378631D01*
X206277Y379663D01*
X205246Y380454D01*
X204045Y380952D01*
X202756Y381121D01*
D02*
G37*
G36*
X531496Y379966D02*
X530335Y379851D01*
X529219Y379513D01*
X528191Y378963D01*
X527289Y378223D01*
X526549Y377321D01*
X525999Y376293D01*
X525661Y375177D01*
X525546Y374016D01*
X525661Y372855D01*
X525999Y371739D01*
X526549Y370710D01*
X527289Y369809D01*
X528191Y369069D01*
X529219Y368519D01*
X530335Y368180D01*
X531496Y368066D01*
X532657Y368180D01*
X533773Y368519D01*
X534802Y369069D01*
X535703Y369809D01*
X536443Y370710D01*
X536993Y371739D01*
X537332Y372855D01*
X537446Y374016D01*
X537332Y375177D01*
X536993Y376293D01*
X536443Y377321D01*
X535703Y378223D01*
X534802Y378963D01*
X533773Y379513D01*
X532657Y379851D01*
X531496Y379966D01*
D02*
G37*
G36*
X137795D02*
X136635Y379851D01*
X135518Y379513D01*
X134490Y378963D01*
X133588Y378223D01*
X132848Y377321D01*
X132298Y376293D01*
X131960Y375177D01*
X131845Y374016D01*
X131960Y372855D01*
X132298Y371739D01*
X132848Y370710D01*
X133588Y369809D01*
X134490Y369069D01*
X135518Y368519D01*
X136635Y368180D01*
X137795Y368066D01*
X138956Y368180D01*
X140072Y368519D01*
X141101Y369069D01*
X142002Y369809D01*
X142743Y370710D01*
X143292Y371739D01*
X143631Y372855D01*
X143745Y374016D01*
X143631Y375177D01*
X143292Y376293D01*
X142743Y377321D01*
X142002Y378223D01*
X141101Y378963D01*
X140072Y379513D01*
X138956Y379851D01*
X137795Y379966D01*
D02*
G37*
G36*
X486433Y369504D02*
X480496D01*
Y363567D01*
X486433D01*
Y369504D01*
D02*
G37*
G36*
X478953D02*
X473016D01*
Y363567D01*
X478953D01*
Y369504D01*
D02*
G37*
G36*
X471472D02*
X465535D01*
Y367671D01*
X460630D01*
X460045Y367555D01*
X459549Y367223D01*
X459217Y366727D01*
X459100Y366142D01*
Y336175D01*
X456807D01*
Y338697D01*
X451264D01*
Y330594D01*
X452506D01*
Y326735D01*
X441523D01*
Y324364D01*
X436226D01*
X436128Y324600D01*
X435567Y325331D01*
X434836Y325892D01*
X433985Y326245D01*
X433071Y326365D01*
X432157Y326245D01*
X431306Y325892D01*
X430575Y325331D01*
X430014Y324600D01*
X429661Y323748D01*
X429541Y322835D01*
X429661Y321921D01*
X430014Y321070D01*
X430575Y320338D01*
X431306Y319777D01*
X432157Y319425D01*
X433071Y319304D01*
X433985Y319425D01*
X434836Y319777D01*
X435567Y320338D01*
X436128Y321070D01*
X436226Y321305D01*
X441523D01*
Y318935D01*
X456115D01*
Y326735D01*
X455565D01*
Y330594D01*
X456807D01*
Y333116D01*
X460044D01*
X460629Y333233D01*
X461126Y333564D01*
X461711Y334150D01*
X462043Y334646D01*
X462159Y335231D01*
Y364612D01*
X465535D01*
Y363567D01*
X471472D01*
Y369504D01*
D02*
G37*
G36*
X439189Y369110D02*
X433252D01*
Y363173D01*
X439189D01*
Y369110D01*
D02*
G37*
G36*
X431709D02*
X425772D01*
Y363173D01*
X431709D01*
Y369110D01*
D02*
G37*
G36*
X424228D02*
X418291D01*
Y367671D01*
X409449D01*
X408863Y367555D01*
X408367Y367223D01*
X408036Y366727D01*
X407919Y366142D01*
Y336175D01*
X405626D01*
Y338697D01*
X400083D01*
Y330594D01*
X401325D01*
Y326735D01*
X390341D01*
Y324364D01*
X388982D01*
X388884Y324600D01*
X388323Y325331D01*
X387592Y325892D01*
X386740Y326245D01*
X385827Y326365D01*
X384913Y326245D01*
X384062Y325892D01*
X383330Y325331D01*
X382769Y324600D01*
X382417Y323748D01*
X382297Y322835D01*
X382417Y321921D01*
X382769Y321070D01*
X383330Y320338D01*
X384062Y319777D01*
X384913Y319425D01*
X385827Y319304D01*
X386740Y319425D01*
X387592Y319777D01*
X388323Y320338D01*
X388884Y321070D01*
X388982Y321305D01*
X390341D01*
Y318935D01*
X404934D01*
Y326735D01*
X404384D01*
Y330594D01*
X405626D01*
Y333116D01*
X408863D01*
X409448Y333233D01*
X409944Y333564D01*
X410530Y334150D01*
X410862Y334646D01*
X410978Y335231D01*
Y364612D01*
X418291D01*
Y363173D01*
X424228D01*
Y369110D01*
D02*
G37*
G36*
X391945D02*
X386008D01*
Y363173D01*
X391945D01*
Y369110D01*
D02*
G37*
G36*
X384465D02*
X378528D01*
Y363173D01*
X384465D01*
Y369110D01*
D02*
G37*
G36*
X366256Y370193D02*
X360713D01*
Y362090D01*
X361955D01*
Y358231D01*
X350971D01*
Y350431D01*
X352801D01*
Y345675D01*
X352566Y345577D01*
X351835Y345016D01*
X351273Y344285D01*
X350921Y343433D01*
X350800Y342520D01*
X350921Y341606D01*
X351273Y340755D01*
X351835Y340023D01*
X352566Y339462D01*
X353417Y339110D01*
X354331Y338989D01*
X355244Y339110D01*
X356096Y339462D01*
X356827Y340023D01*
X357388Y340755D01*
X357741Y341606D01*
X357861Y342520D01*
X357741Y343433D01*
X357388Y344285D01*
X356827Y345016D01*
X356096Y345577D01*
X355860Y345675D01*
Y350431D01*
X365564D01*
Y358231D01*
X365014D01*
Y362090D01*
X366256D01*
Y364612D01*
X371047D01*
Y363173D01*
X376984D01*
Y369110D01*
X371047D01*
Y367671D01*
X366256D01*
Y370193D01*
D02*
G37*
G36*
X344701Y369110D02*
X338764D01*
Y363173D01*
X344701D01*
Y369110D01*
D02*
G37*
G36*
X337221D02*
X331283D01*
Y363173D01*
X337221D01*
Y369110D01*
D02*
G37*
G36*
X319012Y370193D02*
X313469D01*
Y362090D01*
X314711D01*
Y358231D01*
X303727D01*
Y350431D01*
X305557D01*
Y345675D01*
X305322Y345577D01*
X304590Y345016D01*
X304029Y344285D01*
X303677Y343433D01*
X303556Y342520D01*
X303677Y341606D01*
X304029Y340755D01*
X304590Y340023D01*
X305322Y339462D01*
X306173Y339110D01*
X307087Y338989D01*
X308000Y339110D01*
X308852Y339462D01*
X309583Y340023D01*
X310144Y340755D01*
X310496Y341606D01*
X310617Y342520D01*
X310496Y343433D01*
X310144Y344285D01*
X309583Y345016D01*
X308852Y345577D01*
X308616Y345675D01*
Y350431D01*
X318320D01*
Y358231D01*
X317770D01*
Y362090D01*
X319012D01*
Y364612D01*
X323803D01*
Y363173D01*
X329740D01*
Y369110D01*
X323803D01*
Y367671D01*
X319012D01*
Y370193D01*
D02*
G37*
G36*
X297457Y369110D02*
X291520D01*
Y363173D01*
X297457D01*
Y369110D01*
D02*
G37*
G36*
X289976D02*
X284039D01*
Y363173D01*
X289976D01*
Y369110D01*
D02*
G37*
G36*
X271768Y370193D02*
X266224D01*
Y364244D01*
X265913Y363777D01*
X265796Y363192D01*
Y358231D01*
X256483D01*
Y350431D01*
X258313D01*
Y345675D01*
X258077Y345577D01*
X257346Y345016D01*
X256785Y344285D01*
X256433Y343433D01*
X256312Y342520D01*
X256433Y341606D01*
X256785Y340755D01*
X257346Y340023D01*
X258077Y339462D01*
X258929Y339110D01*
X259842Y338989D01*
X260756Y339110D01*
X261608Y339462D01*
X262339Y340023D01*
X262900Y340755D01*
X263252Y341606D01*
X263373Y342520D01*
X263252Y343433D01*
X262900Y344285D01*
X262339Y345016D01*
X261608Y345577D01*
X261372Y345675D01*
Y350431D01*
X271076D01*
Y358231D01*
X268855D01*
Y362090D01*
X271768D01*
Y364612D01*
X276559D01*
Y363173D01*
X282496D01*
Y369110D01*
X276559D01*
Y367671D01*
X271768D01*
Y370193D01*
D02*
G37*
G36*
X250213Y369110D02*
X244276D01*
Y363173D01*
X250213D01*
Y369110D01*
D02*
G37*
G36*
X242732D02*
X236795D01*
Y363173D01*
X242732D01*
Y369110D01*
D02*
G37*
G36*
X228461Y370193D02*
X222917D01*
Y364244D01*
X222606Y363777D01*
X222489Y363192D01*
Y358231D01*
X213176D01*
Y350431D01*
X215397D01*
Y345414D01*
X214897Y345168D01*
X214364Y345577D01*
X213512Y345930D01*
X212598Y346050D01*
X211685Y345930D01*
X210833Y345577D01*
X210102Y345016D01*
X209541Y344285D01*
X209189Y343433D01*
X209068Y342520D01*
X209189Y341606D01*
X209541Y340755D01*
X210102Y340023D01*
X210833Y339462D01*
X211685Y339110D01*
X212598Y338989D01*
X213512Y339110D01*
X214364Y339462D01*
X215095Y340023D01*
X215656Y340755D01*
X215806Y341118D01*
X216926D01*
X217511Y341235D01*
X218007Y341566D01*
X218339Y342062D01*
X218455Y342648D01*
Y350431D01*
X227769D01*
Y358231D01*
X225548D01*
Y362090D01*
X228461D01*
Y364612D01*
X229315D01*
Y363173D01*
X235252D01*
Y369110D01*
X229315D01*
Y367671D01*
X228461D01*
Y370193D01*
D02*
G37*
G36*
X202969Y369110D02*
X197031D01*
Y363173D01*
X202969D01*
Y369110D01*
D02*
G37*
G36*
X195488D02*
X189551D01*
Y363173D01*
X195488D01*
Y369110D01*
D02*
G37*
G36*
X177279Y370193D02*
X171736D01*
Y362090D01*
X172978D01*
Y358231D01*
X161995D01*
Y350431D01*
X163825D01*
Y345675D01*
X163589Y345577D01*
X162858Y345016D01*
X162297Y344285D01*
X161944Y343433D01*
X161824Y342520D01*
X161944Y341606D01*
X162297Y340755D01*
X162858Y340023D01*
X163589Y339462D01*
X164441Y339110D01*
X165354Y338989D01*
X166268Y339110D01*
X167119Y339462D01*
X167851Y340023D01*
X168412Y340755D01*
X168764Y341606D01*
X168885Y342520D01*
X168764Y343433D01*
X168412Y344285D01*
X167851Y345016D01*
X167119Y345577D01*
X166884Y345675D01*
Y350431D01*
X176588D01*
Y358231D01*
X176037D01*
Y362090D01*
X177279D01*
Y364612D01*
X182071D01*
Y363173D01*
X188008D01*
Y369110D01*
X182071D01*
Y367671D01*
X177279D01*
Y370193D01*
D02*
G37*
G36*
X137795Y353924D02*
X136882Y353804D01*
X136030Y353451D01*
X135299Y352890D01*
X134738Y352159D01*
X134385Y351307D01*
X134265Y350394D01*
X134385Y349480D01*
X134738Y348629D01*
X135299Y347898D01*
X136030Y347337D01*
X136882Y346984D01*
X137795Y346864D01*
X138709Y346984D01*
X139560Y347337D01*
X140292Y347898D01*
X140852Y348629D01*
X141205Y349480D01*
X141325Y350394D01*
X141205Y351307D01*
X140852Y352159D01*
X140292Y352890D01*
X139560Y353451D01*
X138709Y353804D01*
X137795Y353924D01*
D02*
G37*
G36*
X475984Y353692D02*
X474573Y353553D01*
X473215Y353141D01*
X471964Y352473D01*
X470868Y351573D01*
X469968Y350477D01*
X469299Y349226D01*
X468888Y347868D01*
X468749Y346457D01*
X468888Y345045D01*
X469299Y343688D01*
X469968Y342437D01*
X470868Y341340D01*
X471964Y340441D01*
X473215Y339772D01*
X474573Y339360D01*
X475984Y339221D01*
X477396Y339360D01*
X478753Y339772D01*
X480004Y340441D01*
X481101Y341340D01*
X482000Y342437D01*
X482669Y343688D01*
X483081Y345045D01*
X483220Y346457D01*
X483081Y347868D01*
X482669Y349226D01*
X482000Y350477D01*
X481101Y351573D01*
X480004Y352473D01*
X478753Y353141D01*
X477396Y353553D01*
X475984Y353692D01*
D02*
G37*
G36*
X428740Y353299D02*
X427328Y353160D01*
X425971Y352748D01*
X424720Y352079D01*
X423624Y351179D01*
X422724Y350083D01*
X422055Y348832D01*
X421644Y347475D01*
X421504Y346063D01*
X421644Y344651D01*
X422055Y343294D01*
X422724Y342043D01*
X423624Y340947D01*
X424720Y340047D01*
X425971Y339378D01*
X427328Y338966D01*
X428740Y338827D01*
X430152Y338966D01*
X431509Y339378D01*
X432760Y340047D01*
X433856Y340947D01*
X434756Y342043D01*
X435425Y343294D01*
X435837Y344651D01*
X435976Y346063D01*
X435837Y347475D01*
X435425Y348832D01*
X434756Y350083D01*
X433856Y351179D01*
X432760Y352079D01*
X431509Y352748D01*
X430152Y353160D01*
X428740Y353299D01*
D02*
G37*
G36*
X381496D02*
X380084Y353160D01*
X378727Y352748D01*
X377476Y352079D01*
X376380Y351179D01*
X375480Y350083D01*
X374811Y348832D01*
X374399Y347475D01*
X374260Y346063D01*
X374399Y344651D01*
X374811Y343294D01*
X375480Y342043D01*
X376380Y340947D01*
X377476Y340047D01*
X378727Y339378D01*
X380084Y338966D01*
X381496Y338827D01*
X382908Y338966D01*
X384265Y339378D01*
X385516Y340047D01*
X386612Y340947D01*
X387512Y342043D01*
X388181Y343294D01*
X388593Y344651D01*
X388732Y346063D01*
X388593Y347475D01*
X388181Y348832D01*
X387512Y350083D01*
X386612Y351179D01*
X385516Y352079D01*
X384265Y352748D01*
X382908Y353160D01*
X381496Y353299D01*
D02*
G37*
G36*
X334252D02*
X332840Y353160D01*
X331483Y352748D01*
X330232Y352079D01*
X329136Y351179D01*
X328236Y350083D01*
X327567Y348832D01*
X327155Y347475D01*
X327016Y346063D01*
X327155Y344651D01*
X327567Y343294D01*
X328236Y342043D01*
X329136Y340947D01*
X330232Y340047D01*
X331483Y339378D01*
X332840Y338966D01*
X334252Y338827D01*
X335664Y338966D01*
X337021Y339378D01*
X338272Y340047D01*
X339368Y340947D01*
X340268Y342043D01*
X340937Y343294D01*
X341349Y344651D01*
X341488Y346063D01*
X341349Y347475D01*
X340937Y348832D01*
X340268Y350083D01*
X339368Y351179D01*
X338272Y352079D01*
X337021Y352748D01*
X335664Y353160D01*
X334252Y353299D01*
D02*
G37*
G36*
X287008D02*
X285596Y353160D01*
X284239Y352748D01*
X282988Y352079D01*
X281891Y351179D01*
X280992Y350083D01*
X280323Y348832D01*
X279911Y347475D01*
X279772Y346063D01*
X279911Y344651D01*
X280323Y343294D01*
X280992Y342043D01*
X281891Y340947D01*
X282988Y340047D01*
X284239Y339378D01*
X285596Y338966D01*
X287008Y338827D01*
X288420Y338966D01*
X289777Y339378D01*
X291028Y340047D01*
X292124Y340947D01*
X293024Y342043D01*
X293693Y343294D01*
X294105Y344651D01*
X294244Y346063D01*
X294105Y347475D01*
X293693Y348832D01*
X293024Y350083D01*
X292124Y351179D01*
X291028Y352079D01*
X289777Y352748D01*
X288420Y353160D01*
X287008Y353299D01*
D02*
G37*
G36*
X239764D02*
X238352Y353160D01*
X236995Y352748D01*
X235744Y352079D01*
X234647Y351179D01*
X233748Y350083D01*
X233079Y348832D01*
X232667Y347475D01*
X232528Y346063D01*
X232667Y344651D01*
X233079Y343294D01*
X233748Y342043D01*
X234647Y340947D01*
X235744Y340047D01*
X236995Y339378D01*
X238352Y338966D01*
X239764Y338827D01*
X241175Y338966D01*
X242533Y339378D01*
X243784Y340047D01*
X244880Y340947D01*
X245780Y342043D01*
X246449Y343294D01*
X246860Y344651D01*
X246999Y346063D01*
X246860Y347475D01*
X246449Y348832D01*
X245780Y350083D01*
X244880Y351179D01*
X243784Y352079D01*
X242533Y352748D01*
X241175Y353160D01*
X239764Y353299D01*
D02*
G37*
G36*
X192520D02*
X191108Y353160D01*
X189751Y352748D01*
X188500Y352079D01*
X187403Y351179D01*
X186504Y350083D01*
X185835Y348832D01*
X185423Y347475D01*
X185284Y346063D01*
X185423Y344651D01*
X185835Y343294D01*
X186504Y342043D01*
X187403Y340947D01*
X188500Y340047D01*
X189751Y339378D01*
X191108Y338966D01*
X192520Y338827D01*
X193931Y338966D01*
X195289Y339378D01*
X196540Y340047D01*
X197636Y340947D01*
X198536Y342043D01*
X199205Y343294D01*
X199616Y344651D01*
X199755Y346063D01*
X199616Y347475D01*
X199205Y348832D01*
X198536Y350083D01*
X197636Y351179D01*
X196540Y352079D01*
X195289Y352748D01*
X193931Y353160D01*
X192520Y353299D01*
D02*
G37*
G36*
X342957Y328333D02*
X342043Y328213D01*
X341192Y327860D01*
X340460Y327299D01*
X339899Y326568D01*
X339547Y325717D01*
X339427Y324803D01*
X339547Y323889D01*
X339899Y323038D01*
X340460Y322307D01*
X341192Y321746D01*
X342043Y321393D01*
X342957Y321273D01*
X343870Y321393D01*
X344722Y321746D01*
X345453Y322307D01*
X346014Y323038D01*
X346367Y323889D01*
X346487Y324803D01*
X346367Y325717D01*
X346014Y326568D01*
X345453Y327299D01*
X344722Y327860D01*
X343870Y328213D01*
X342957Y328333D01*
D02*
G37*
G36*
X322070D02*
X321156Y328213D01*
X320305Y327860D01*
X319574Y327299D01*
X319013Y326568D01*
X318660Y325717D01*
X318540Y324803D01*
X318660Y323889D01*
X319013Y323038D01*
X319574Y322307D01*
X320305Y321746D01*
X321156Y321393D01*
X322070Y321273D01*
X322984Y321393D01*
X323835Y321746D01*
X324566Y322307D01*
X325127Y323038D01*
X325480Y323889D01*
X325600Y324803D01*
X325480Y325717D01*
X325127Y326568D01*
X324566Y327299D01*
X323835Y327860D01*
X322984Y328213D01*
X322070Y328333D01*
D02*
G37*
G36*
X186542Y283999D02*
X185433Y283853D01*
X184400Y283425D01*
X184163Y283244D01*
X173636D01*
X173402Y283423D01*
X172369Y283851D01*
X171260Y283997D01*
X170151Y283851D01*
X169117Y283423D01*
X168641Y283058D01*
X158131D01*
X157654Y283423D01*
X156621Y283851D01*
X155512Y283997D01*
X154403Y283851D01*
X153369Y283423D01*
X152482Y282742D01*
X151801Y281855D01*
X151373Y280822D01*
X151227Y279713D01*
X151373Y278604D01*
X151801Y277570D01*
X152482Y276683D01*
X153369Y276002D01*
X154403Y275574D01*
X155512Y275428D01*
X156621Y275574D01*
X157643Y275997D01*
X169129D01*
X170151Y275574D01*
X171260Y275428D01*
X172369Y275574D01*
X173402Y276002D01*
X173639Y276183D01*
X183012D01*
Y269464D01*
X173636D01*
X173402Y269644D01*
X172369Y270072D01*
X171260Y270218D01*
X170151Y270072D01*
X169117Y269644D01*
X168618Y269261D01*
X158153D01*
X157654Y269644D01*
X156621Y270072D01*
X155512Y270218D01*
X154403Y270072D01*
X153369Y269644D01*
X152482Y268963D01*
X151801Y268075D01*
X151373Y267042D01*
X151227Y265933D01*
X151373Y264824D01*
X151801Y263791D01*
X152482Y262903D01*
X153369Y262222D01*
X154403Y261794D01*
X155512Y261648D01*
X156621Y261794D01*
X157601Y262200D01*
X169171D01*
X170151Y261794D01*
X171260Y261648D01*
X172369Y261794D01*
X173402Y262222D01*
X173639Y262404D01*
X184166D01*
X184400Y262224D01*
X185433Y261796D01*
X186542Y261650D01*
X187651Y261796D01*
X188685Y262224D01*
X188918Y262404D01*
X202346D01*
X202582Y262222D01*
X203615Y261794D01*
X204724Y261648D01*
X205833Y261794D01*
X206867Y262222D01*
X207010Y262332D01*
X218187D01*
X218330Y262222D01*
X219363Y261794D01*
X220472Y261648D01*
X221581Y261794D01*
X222615Y262222D01*
X223502Y262903D01*
X224183Y263791D01*
X224611Y264824D01*
X224757Y265933D01*
X224611Y267042D01*
X224183Y268075D01*
X223502Y268963D01*
X222615Y269644D01*
X221581Y270072D01*
X220472Y270218D01*
X219363Y270072D01*
X218330Y269644D01*
X218003Y269393D01*
X207194D01*
X206867Y269644D01*
X205833Y270072D01*
X204724Y270218D01*
X203615Y270072D01*
X202582Y269644D01*
X202348Y269464D01*
X190073D01*
Y276183D01*
X202346D01*
X202582Y276002D01*
X203615Y275574D01*
X204724Y275428D01*
X205833Y275574D01*
X206856Y275997D01*
X218341D01*
X219363Y275574D01*
X220472Y275428D01*
X221581Y275574D01*
X222615Y276002D01*
X223502Y276683D01*
X224183Y277570D01*
X224611Y278604D01*
X224757Y279713D01*
X224611Y280822D01*
X224183Y281855D01*
X223502Y282742D01*
X222615Y283423D01*
X221581Y283851D01*
X220472Y283997D01*
X219363Y283851D01*
X218330Y283423D01*
X217854Y283058D01*
X207343D01*
X206867Y283423D01*
X205833Y283851D01*
X204724Y283997D01*
X203615Y283851D01*
X202582Y283423D01*
X202348Y283244D01*
X188921D01*
X188685Y283425D01*
X187651Y283853D01*
X186542Y283999D01*
D02*
G37*
G36*
Y256440D02*
X185433Y256294D01*
X184400Y255866D01*
X183513Y255185D01*
X182832Y254298D01*
X182404Y253264D01*
X182258Y252155D01*
X182404Y251046D01*
X182832Y250013D01*
X183513Y249126D01*
X184400Y248445D01*
X185433Y248017D01*
X186542Y247871D01*
X187651Y248017D01*
X188685Y248445D01*
X189572Y249126D01*
X190253Y250013D01*
X190681Y251046D01*
X190827Y252155D01*
X190681Y253264D01*
X190253Y254298D01*
X189572Y255185D01*
X188685Y255866D01*
X187651Y256294D01*
X186542Y256440D01*
D02*
G37*
G36*
X171260Y256438D02*
X170151Y256292D01*
X169117Y255864D01*
X168230Y255183D01*
X167549Y254296D01*
X167121Y253262D01*
X166975Y252153D01*
X167121Y251045D01*
X167549Y250011D01*
X168230Y249124D01*
X169117Y248443D01*
X170151Y248015D01*
X171260Y247869D01*
X172369Y248015D01*
X173402Y248443D01*
X174290Y249124D01*
X174970Y250011D01*
X175399Y251045D01*
X175545Y252153D01*
X175399Y253262D01*
X174970Y254296D01*
X174290Y255183D01*
X173402Y255864D01*
X172369Y256292D01*
X171260Y256438D01*
D02*
G37*
G36*
X155512D02*
X154403Y256292D01*
X153369Y255864D01*
X152482Y255183D01*
X151801Y254296D01*
X151373Y253262D01*
X151227Y252153D01*
X151373Y251045D01*
X151801Y250011D01*
X152482Y249124D01*
X153369Y248443D01*
X154403Y248015D01*
X155512Y247869D01*
X156621Y248015D01*
X157654Y248443D01*
X158542Y249124D01*
X159222Y250011D01*
X159651Y251045D01*
X159797Y252153D01*
X159651Y253262D01*
X159222Y254296D01*
X158542Y255183D01*
X157654Y255864D01*
X156621Y256292D01*
X155512Y256438D01*
D02*
G37*
G36*
X220472Y256253D02*
X219363Y256107D01*
X218330Y255679D01*
X217443Y254998D01*
X216762Y254111D01*
X216334Y253078D01*
X216188Y251969D01*
X216334Y250859D01*
X216762Y249826D01*
X217443Y248939D01*
X218330Y248258D01*
X219363Y247830D01*
X220472Y247684D01*
X221581Y247830D01*
X222615Y248258D01*
X223502Y248939D01*
X224183Y249826D01*
X224611Y250859D01*
X224757Y251969D01*
X224611Y253078D01*
X224183Y254111D01*
X223502Y254998D01*
X222615Y255679D01*
X221581Y256107D01*
X220472Y256253D01*
D02*
G37*
G36*
X204724D02*
X203615Y256107D01*
X202582Y255679D01*
X201695Y254998D01*
X201014Y254111D01*
X200586Y253078D01*
X200440Y251969D01*
X200586Y250859D01*
X201014Y249826D01*
X201695Y248939D01*
X202582Y248258D01*
X203615Y247830D01*
X204724Y247684D01*
X205833Y247830D01*
X206867Y248258D01*
X207754Y248939D01*
X208435Y249826D01*
X208863Y250859D01*
X209009Y251969D01*
X208863Y253078D01*
X208435Y254111D01*
X207754Y254998D01*
X206867Y255679D01*
X205833Y256107D01*
X204724Y256253D01*
D02*
G37*
G36*
X190790Y242624D02*
X182294D01*
Y234128D01*
X190790D01*
Y242624D01*
D02*
G37*
G36*
X204724Y242661D02*
X203615Y242515D01*
X202582Y242087D01*
X201695Y241406D01*
X201014Y240518D01*
X200586Y239485D01*
X200440Y238376D01*
X200586Y237267D01*
X201014Y236234D01*
X201695Y235346D01*
X202582Y234665D01*
X203615Y234237D01*
X204724Y234091D01*
X205833Y234237D01*
X206867Y234665D01*
X207754Y235346D01*
X208435Y236234D01*
X208863Y237267D01*
X209009Y238376D01*
X208863Y239485D01*
X208435Y240518D01*
X207754Y241406D01*
X206867Y242087D01*
X205833Y242515D01*
X204724Y242661D01*
D02*
G37*
G36*
X220472Y242659D02*
X219363Y242513D01*
X218330Y242085D01*
X217443Y241404D01*
X216762Y240516D01*
X216334Y239483D01*
X216188Y238374D01*
X216334Y237265D01*
X216762Y236232D01*
X217443Y235344D01*
X218330Y234663D01*
X219363Y234235D01*
X220472Y234089D01*
X221581Y234235D01*
X222615Y234663D01*
X223502Y235344D01*
X224183Y236232D01*
X224611Y237265D01*
X224757Y238374D01*
X224611Y239483D01*
X224183Y240516D01*
X223502Y241404D01*
X222615Y242085D01*
X221581Y242513D01*
X220472Y242659D01*
D02*
G37*
G36*
X171260D02*
X170151Y242513D01*
X169117Y242085D01*
X168230Y241404D01*
X167549Y240516D01*
X167121Y239483D01*
X166975Y238374D01*
X167121Y237265D01*
X167549Y236232D01*
X168230Y235344D01*
X169117Y234663D01*
X170151Y234235D01*
X171260Y234089D01*
X172369Y234235D01*
X173402Y234663D01*
X174290Y235344D01*
X174970Y236232D01*
X175399Y237265D01*
X175545Y238374D01*
X175399Y239483D01*
X174970Y240516D01*
X174290Y241404D01*
X173402Y242085D01*
X172369Y242513D01*
X171260Y242659D01*
D02*
G37*
G36*
X155512D02*
X154403Y242513D01*
X153369Y242085D01*
X152482Y241404D01*
X151801Y240516D01*
X151373Y239483D01*
X151227Y238374D01*
X151373Y237265D01*
X151801Y236232D01*
X152482Y235344D01*
X153369Y234663D01*
X154403Y234235D01*
X155512Y234089D01*
X156621Y234235D01*
X157654Y234663D01*
X158542Y235344D01*
X159222Y236232D01*
X159651Y237265D01*
X159797Y238374D01*
X159651Y239483D01*
X159222Y240516D01*
X158542Y241404D01*
X157654Y242085D01*
X156621Y242513D01*
X155512Y242659D01*
D02*
G37*
G36*
X344526Y233784D02*
X343612Y233663D01*
X342760Y233311D01*
X342029Y232750D01*
X341468Y232019D01*
X341116Y231167D01*
X340995Y230254D01*
X341116Y229340D01*
X341468Y228488D01*
X342029Y227757D01*
X342760Y227196D01*
X343612Y226844D01*
X344526Y226723D01*
X345439Y226844D01*
X346291Y227196D01*
X347022Y227757D01*
X347583Y228488D01*
X347936Y229340D01*
X348056Y230254D01*
X347936Y231167D01*
X347583Y232019D01*
X347022Y232750D01*
X346291Y233311D01*
X345439Y233663D01*
X344526Y233784D01*
D02*
G37*
G36*
X322835Y231877D02*
X321921Y231756D01*
X321070Y231404D01*
X320338Y230843D01*
X319777Y230112D01*
X319425Y229260D01*
X319304Y228346D01*
X319425Y227433D01*
X319777Y226581D01*
X320338Y225850D01*
X321070Y225289D01*
X321921Y224937D01*
X322835Y224816D01*
X323748Y224937D01*
X324600Y225289D01*
X325331Y225850D01*
X325892Y226581D01*
X326245Y227433D01*
X326365Y228346D01*
X326245Y229260D01*
X325892Y230112D01*
X325331Y230843D01*
X324600Y231404D01*
X323748Y231756D01*
X322835Y231877D01*
D02*
G37*
G36*
X471866Y219898D02*
X465142D01*
Y213173D01*
X471866D01*
Y219898D01*
D02*
G37*
G36*
X468504Y209927D02*
X467626Y209811D01*
X466808Y209472D01*
X466106Y208933D01*
X465567Y208231D01*
X465228Y207413D01*
X465113Y206535D01*
X465228Y205658D01*
X465567Y204840D01*
X466106Y204137D01*
X466808Y203599D01*
X467626Y203260D01*
X468504Y203144D01*
X469382Y203260D01*
X470199Y203599D01*
X470902Y204137D01*
X471441Y204840D01*
X471780Y205658D01*
X471895Y206535D01*
X471780Y207413D01*
X471441Y208231D01*
X470902Y208933D01*
X470199Y209472D01*
X469382Y209811D01*
X468504Y209927D01*
D02*
G37*
G36*
X500000Y196305D02*
X499122Y196189D01*
X498304Y195850D01*
X497602Y195311D01*
X497063Y194609D01*
X496994Y194443D01*
X488775D01*
X488190Y194326D01*
X487693Y193995D01*
X487108Y193409D01*
X486776Y192913D01*
X486660Y192328D01*
Y160449D01*
X481284D01*
Y154512D01*
X487220D01*
Y155951D01*
X487603D01*
X488189Y156067D01*
X488685Y156399D01*
X489270Y156985D01*
X489602Y157481D01*
X489718Y158066D01*
Y191384D01*
X496994D01*
X497063Y191218D01*
X497602Y190515D01*
X498304Y189977D01*
X499122Y189638D01*
X500000Y189522D01*
X500878Y189638D01*
X501696Y189977D01*
X502398Y190515D01*
X502937Y191218D01*
X503276Y192036D01*
X503391Y192913D01*
X503276Y193791D01*
X502937Y194609D01*
X502398Y195311D01*
X501696Y195850D01*
X500878Y196189D01*
X500000Y196305D01*
D02*
G37*
G36*
X476772Y184795D02*
X475360Y184656D01*
X474003Y184244D01*
X472752Y183575D01*
X471655Y182675D01*
X470755Y181579D01*
X470087Y180328D01*
X469675Y178971D01*
X469536Y177559D01*
X469675Y176147D01*
X470087Y174790D01*
X470755Y173539D01*
X471655Y172443D01*
X472752Y171543D01*
X474003Y170874D01*
X475360Y170463D01*
X476772Y170323D01*
X478183Y170463D01*
X479541Y170874D01*
X480792Y171543D01*
X481888Y172443D01*
X482788Y173539D01*
X483457Y174790D01*
X483868Y176147D01*
X484007Y177559D01*
X483868Y178971D01*
X483457Y180328D01*
X482788Y181579D01*
X481888Y182675D01*
X480792Y183575D01*
X479541Y184244D01*
X478183Y184656D01*
X476772Y184795D01*
D02*
G37*
G36*
X429528D02*
X428116Y184656D01*
X426759Y184244D01*
X425508Y183575D01*
X424411Y182675D01*
X423511Y181579D01*
X422843Y180328D01*
X422431Y178971D01*
X422292Y177559D01*
X422431Y176147D01*
X422843Y174790D01*
X423511Y173539D01*
X424411Y172443D01*
X425508Y171543D01*
X426759Y170874D01*
X428116Y170463D01*
X429528Y170323D01*
X430939Y170463D01*
X432297Y170874D01*
X433547Y171543D01*
X434644Y172443D01*
X435544Y173539D01*
X436212Y174790D01*
X436624Y176147D01*
X436763Y177559D01*
X436624Y178971D01*
X436212Y180328D01*
X435544Y181579D01*
X434644Y182675D01*
X433547Y183575D01*
X432297Y184244D01*
X430939Y184656D01*
X429528Y184795D01*
D02*
G37*
G36*
X382283D02*
X380872Y184656D01*
X379515Y184244D01*
X378264Y183575D01*
X377167Y182675D01*
X376267Y181579D01*
X375599Y180328D01*
X375187Y178971D01*
X375048Y177559D01*
X375187Y176147D01*
X375599Y174790D01*
X376267Y173539D01*
X377167Y172443D01*
X378264Y171543D01*
X379515Y170874D01*
X380872Y170463D01*
X382283Y170323D01*
X383695Y170463D01*
X385052Y170874D01*
X386303Y171543D01*
X387400Y172443D01*
X388300Y173539D01*
X388968Y174790D01*
X389380Y176147D01*
X389519Y177559D01*
X389380Y178971D01*
X388968Y180328D01*
X388300Y181579D01*
X387400Y182675D01*
X386303Y183575D01*
X385052Y184244D01*
X383695Y184656D01*
X382283Y184795D01*
D02*
G37*
G36*
X335039D02*
X333628Y184656D01*
X332270Y184244D01*
X331019Y183575D01*
X329923Y182675D01*
X329023Y181579D01*
X328355Y180328D01*
X327943Y178971D01*
X327804Y177559D01*
X327943Y176147D01*
X328355Y174790D01*
X329023Y173539D01*
X329923Y172443D01*
X331019Y171543D01*
X332270Y170874D01*
X333628Y170463D01*
X335039Y170323D01*
X336451Y170463D01*
X337808Y170874D01*
X339059Y171543D01*
X340156Y172443D01*
X341056Y173539D01*
X341724Y174790D01*
X342136Y176147D01*
X342275Y177559D01*
X342136Y178971D01*
X341724Y180328D01*
X341056Y181579D01*
X340156Y182675D01*
X339059Y183575D01*
X337808Y184244D01*
X336451Y184656D01*
X335039Y184795D01*
D02*
G37*
G36*
X287795D02*
X286384Y184656D01*
X285026Y184244D01*
X283775Y183575D01*
X282679Y182675D01*
X281779Y181579D01*
X281110Y180328D01*
X280699Y178971D01*
X280560Y177559D01*
X280699Y176147D01*
X281110Y174790D01*
X281779Y173539D01*
X282679Y172443D01*
X283775Y171543D01*
X285026Y170874D01*
X286384Y170463D01*
X287795Y170323D01*
X289207Y170463D01*
X290564Y170874D01*
X291815Y171543D01*
X292912Y172443D01*
X293811Y173539D01*
X294480Y174790D01*
X294892Y176147D01*
X295031Y177559D01*
X294892Y178971D01*
X294480Y180328D01*
X293811Y181579D01*
X292912Y182675D01*
X291815Y183575D01*
X290564Y184244D01*
X289207Y184656D01*
X287795Y184795D01*
D02*
G37*
G36*
X240551D02*
X239140Y184656D01*
X237782Y184244D01*
X236531Y183575D01*
X235435Y182675D01*
X234535Y181579D01*
X233866Y180328D01*
X233455Y178971D01*
X233316Y177559D01*
X233455Y176147D01*
X233866Y174790D01*
X234535Y173539D01*
X235435Y172443D01*
X236531Y171543D01*
X237782Y170874D01*
X239140Y170463D01*
X240551Y170323D01*
X241963Y170463D01*
X243320Y170874D01*
X244571Y171543D01*
X245668Y172443D01*
X246567Y173539D01*
X247236Y174790D01*
X247648Y176147D01*
X247787Y177559D01*
X247648Y178971D01*
X247236Y180328D01*
X246567Y181579D01*
X245668Y182675D01*
X244571Y183575D01*
X243320Y184244D01*
X241963Y184656D01*
X240551Y184795D01*
D02*
G37*
G36*
X193307D02*
X191895Y184656D01*
X190538Y184244D01*
X189287Y183575D01*
X188191Y182675D01*
X187291Y181579D01*
X186622Y180328D01*
X186211Y178971D01*
X186072Y177559D01*
X186211Y176147D01*
X186622Y174790D01*
X187291Y173539D01*
X188191Y172443D01*
X189287Y171543D01*
X190538Y170874D01*
X191895Y170463D01*
X193307Y170323D01*
X194719Y170463D01*
X196076Y170874D01*
X197327Y171543D01*
X198424Y172443D01*
X199323Y173539D01*
X199992Y174790D01*
X200404Y176147D01*
X200543Y177559D01*
X200404Y178971D01*
X199992Y180328D01*
X199323Y181579D01*
X198424Y182675D01*
X197327Y183575D01*
X196076Y184244D01*
X194719Y184656D01*
X193307Y184795D01*
D02*
G37*
G36*
X503362Y206276D02*
X496638D01*
Y199551D01*
X501714D01*
X501862Y199522D01*
X506345D01*
Y186569D01*
X504523D01*
X503937Y186452D01*
X503441Y186121D01*
X502856Y185535D01*
X502524Y185039D01*
X502408Y184454D01*
Y181065D01*
X492704D01*
Y178693D01*
X492127Y178578D01*
X491630Y178247D01*
X491045Y177661D01*
X490713Y177165D01*
X490597Y176580D01*
Y154129D01*
X490713Y153544D01*
X491045Y153048D01*
X491630Y152462D01*
X492127Y152130D01*
X492712Y152014D01*
X494534D01*
Y140950D01*
X494298Y140852D01*
X493567Y140292D01*
X493006Y139560D01*
X492653Y138709D01*
X492533Y137795D01*
X492653Y136882D01*
X493006Y136030D01*
X493567Y135299D01*
X494298Y134738D01*
X495149Y134385D01*
X496063Y134265D01*
X496977Y134385D01*
X497828Y134738D01*
X498559Y135299D01*
X499120Y136030D01*
X499473Y136882D01*
X499593Y137795D01*
X499473Y138709D01*
X499120Y139560D01*
X498559Y140292D01*
X497828Y140852D01*
X497592Y140950D01*
Y153543D01*
X497476Y154129D01*
X497144Y154625D01*
X496648Y154956D01*
X496063Y155073D01*
X493655D01*
Y173265D01*
X506345D01*
Y169405D01*
X505102D01*
Y161303D01*
X510646D01*
Y169405D01*
X509403D01*
Y176580D01*
X509287Y177165D01*
X508955Y177661D01*
X508370Y178247D01*
X507873Y178578D01*
X507296Y178693D01*
Y181065D01*
X505466D01*
Y183510D01*
X507288D01*
X507873Y183626D01*
X508370Y183958D01*
X508955Y184544D01*
X509287Y185040D01*
X509403Y185625D01*
Y200202D01*
X509287Y200787D01*
X508955Y201283D01*
X508106Y202133D01*
X507610Y202464D01*
X507024Y202581D01*
X503362D01*
Y206276D01*
D02*
G37*
G36*
X452756Y192507D02*
X451842Y192386D01*
X450991Y192034D01*
X450260Y191473D01*
X449699Y190742D01*
X449346Y189890D01*
X449226Y188976D01*
X449346Y188063D01*
X449699Y187211D01*
X450260Y186480D01*
X450991Y185919D01*
X451227Y185821D01*
Y181065D01*
X441523D01*
Y173265D01*
X443743D01*
Y169405D01*
X440831D01*
Y166884D01*
X437594D01*
X437008Y166767D01*
X436512Y166436D01*
X435926Y165850D01*
X435595Y165354D01*
X435478Y164769D01*
Y160449D01*
X434039D01*
Y154512D01*
X439976D01*
Y160449D01*
X438537D01*
Y163825D01*
X440831D01*
Y161303D01*
X446374D01*
Y167253D01*
X446686Y167719D01*
X446802Y168304D01*
Y173265D01*
X456115D01*
Y181065D01*
X454285D01*
Y185821D01*
X454521Y185919D01*
X455252Y186480D01*
X455813Y187211D01*
X456166Y188063D01*
X456286Y188976D01*
X456166Y189890D01*
X455813Y190742D01*
X455252Y191473D01*
X454521Y192034D01*
X453670Y192386D01*
X452756Y192507D01*
D02*
G37*
G36*
X405512D02*
X404598Y192386D01*
X403747Y192034D01*
X403016Y191473D01*
X402455Y190742D01*
X402102Y189890D01*
X401982Y188976D01*
X402102Y188063D01*
X402455Y187211D01*
X403016Y186480D01*
X403747Y185919D01*
X403982Y185821D01*
Y181065D01*
X394278D01*
Y173265D01*
X394829D01*
Y169405D01*
X393587D01*
Y166884D01*
X390350D01*
X389764Y166767D01*
X389268Y166436D01*
X388682Y165850D01*
X388351Y165354D01*
X388234Y164769D01*
Y160449D01*
X386795D01*
Y154512D01*
X392732D01*
Y160449D01*
X391293D01*
Y163825D01*
X393587D01*
Y161303D01*
X399130D01*
Y169405D01*
X397888D01*
Y173265D01*
X408871D01*
Y181065D01*
X407041D01*
Y185821D01*
X407277Y185919D01*
X408008Y186480D01*
X408569Y187211D01*
X408922Y188063D01*
X409042Y188976D01*
X408922Y189890D01*
X408569Y190742D01*
X408008Y191473D01*
X407277Y192034D01*
X406426Y192386D01*
X405512Y192507D01*
D02*
G37*
G36*
X358268D02*
X357354Y192386D01*
X356503Y192034D01*
X355771Y191473D01*
X355210Y190742D01*
X354858Y189890D01*
X354737Y188976D01*
X354858Y188063D01*
X355210Y187211D01*
X355771Y186480D01*
X356503Y185919D01*
X356738Y185821D01*
Y181065D01*
X347034D01*
Y173265D01*
X349255D01*
Y169405D01*
X346342D01*
Y166884D01*
X343106D01*
X342520Y166767D01*
X342024Y166436D01*
X341438Y165850D01*
X341107Y165354D01*
X340990Y164769D01*
Y160449D01*
X339551D01*
Y154512D01*
X345488D01*
Y160449D01*
X344049D01*
Y163825D01*
X346342D01*
Y161303D01*
X351886D01*
Y167253D01*
X352197Y167719D01*
X352314Y168304D01*
Y173265D01*
X361627D01*
Y181065D01*
X359797D01*
Y185821D01*
X360033Y185919D01*
X360764Y186480D01*
X361325Y187211D01*
X361678Y188063D01*
X361798Y188976D01*
X361678Y189890D01*
X361325Y190742D01*
X360764Y191473D01*
X360033Y192034D01*
X359181Y192386D01*
X358268Y192507D01*
D02*
G37*
G36*
X311024D02*
X310110Y192386D01*
X309259Y192034D01*
X308527Y191473D01*
X307966Y190742D01*
X307614Y189890D01*
X307493Y188976D01*
X307614Y188063D01*
X307966Y187211D01*
X308527Y186480D01*
X309259Y185919D01*
X309494Y185821D01*
Y181065D01*
X299790D01*
Y173265D01*
X302011D01*
Y169405D01*
X299098D01*
Y166884D01*
X295861D01*
X295276Y166767D01*
X294780Y166436D01*
X294194Y165850D01*
X293863Y165354D01*
X293746Y164769D01*
Y160449D01*
X292307D01*
Y154512D01*
X298244D01*
Y160449D01*
X296805D01*
Y163825D01*
X299098D01*
Y161303D01*
X304642D01*
Y167253D01*
X304953Y167719D01*
X305070Y168304D01*
Y173265D01*
X314383D01*
Y181065D01*
X312553D01*
Y185821D01*
X312789Y185919D01*
X313520Y186480D01*
X314081Y187211D01*
X314434Y188063D01*
X314554Y188976D01*
X314434Y189890D01*
X314081Y190742D01*
X313520Y191473D01*
X312789Y192034D01*
X311937Y192386D01*
X311024Y192507D01*
D02*
G37*
G36*
X263779D02*
X262866Y192386D01*
X262014Y192034D01*
X261283Y191473D01*
X260722Y190742D01*
X260370Y189890D01*
X260249Y188976D01*
X260370Y188063D01*
X260722Y187211D01*
X261283Y186480D01*
X262014Y185919D01*
X262250Y185821D01*
Y181065D01*
X252546D01*
Y173265D01*
X253097D01*
Y169405D01*
X251854D01*
Y166884D01*
X248617D01*
X248032Y166767D01*
X247536Y166436D01*
X246950Y165850D01*
X246619Y165354D01*
X246502Y164769D01*
Y160449D01*
X245063D01*
Y154512D01*
X251000D01*
Y160449D01*
X249561D01*
Y163825D01*
X251854D01*
Y161303D01*
X257398D01*
Y169405D01*
X256155D01*
Y173265D01*
X267139D01*
Y181065D01*
X265309D01*
Y185821D01*
X265545Y185919D01*
X266276Y186480D01*
X266837Y187211D01*
X267189Y188063D01*
X267310Y188976D01*
X267189Y189890D01*
X266837Y190742D01*
X266276Y191473D01*
X265545Y192034D01*
X264693Y192386D01*
X263779Y192507D01*
D02*
G37*
G36*
X216535D02*
X215622Y192386D01*
X214770Y192034D01*
X214039Y191473D01*
X213478Y190742D01*
X213125Y189890D01*
X213005Y188976D01*
X213125Y188063D01*
X213478Y187211D01*
X214039Y186480D01*
X214770Y185919D01*
X215006Y185821D01*
Y181065D01*
X205302D01*
Y173265D01*
X207523D01*
Y169405D01*
X204610D01*
Y166884D01*
X201373D01*
X200788Y166767D01*
X200292Y166436D01*
X199706Y165850D01*
X199374Y165354D01*
X199258Y164769D01*
Y160449D01*
X197819D01*
Y154512D01*
X203756D01*
Y160449D01*
X202317D01*
Y163825D01*
X204610D01*
Y161303D01*
X210154D01*
Y167253D01*
X210465Y167719D01*
X210581Y168304D01*
Y173265D01*
X219895D01*
Y181065D01*
X218065D01*
Y185821D01*
X218301Y185919D01*
X219032Y186480D01*
X219593Y187211D01*
X219945Y188063D01*
X220066Y188976D01*
X219945Y189890D01*
X219593Y190742D01*
X219032Y191473D01*
X218301Y192034D01*
X217449Y192386D01*
X216535Y192507D01*
D02*
G37*
G36*
X479740Y160449D02*
X473803D01*
Y154512D01*
X479740D01*
Y160449D01*
D02*
G37*
G36*
X472260D02*
X466323D01*
Y154512D01*
X472260D01*
Y160449D01*
D02*
G37*
G36*
X432496D02*
X426559D01*
Y154512D01*
X432496D01*
Y160449D01*
D02*
G37*
G36*
X425016D02*
X419079D01*
Y154512D01*
X425016D01*
Y160449D01*
D02*
G37*
G36*
X385252D02*
X379315D01*
Y154512D01*
X385252D01*
Y160449D01*
D02*
G37*
G36*
X377772D02*
X371835D01*
Y154512D01*
X377772D01*
Y160449D01*
D02*
G37*
G36*
X338008D02*
X332071D01*
Y154512D01*
X338008D01*
Y160449D01*
D02*
G37*
G36*
X330528D02*
X324591D01*
Y154512D01*
X330528D01*
Y160449D01*
D02*
G37*
G36*
X290764D02*
X284827D01*
Y154512D01*
X290764D01*
Y160449D01*
D02*
G37*
G36*
X283283D02*
X277346D01*
Y154512D01*
X283283D01*
Y160449D01*
D02*
G37*
G36*
X243520D02*
X237583D01*
Y154512D01*
X243520D01*
Y160449D01*
D02*
G37*
G36*
X236039D02*
X230102D01*
Y154512D01*
X236039D01*
Y160449D01*
D02*
G37*
G36*
X196276D02*
X190339D01*
Y154512D01*
X196276D01*
Y160449D01*
D02*
G37*
G36*
X188795D02*
X182858D01*
Y154512D01*
X188795D01*
Y160449D01*
D02*
G37*
G36*
X466535Y152460D02*
X465247Y152290D01*
X464046Y151793D01*
X463014Y151001D01*
X462223Y149970D01*
X461726Y148769D01*
X461556Y147480D01*
X461726Y146192D01*
X462223Y144991D01*
X463014Y143959D01*
X464046Y143168D01*
X465247Y142670D01*
X466535Y142501D01*
X467824Y142670D01*
X469025Y143168D01*
X470056Y143959D01*
X470848Y144991D01*
X471345Y146192D01*
X471515Y147480D01*
X471345Y148769D01*
X470848Y149970D01*
X470056Y151001D01*
X469025Y151793D01*
X467824Y152290D01*
X466535Y152460D01*
D02*
G37*
G36*
X419291D02*
X418003Y152290D01*
X416802Y151793D01*
X415770Y151001D01*
X414979Y149970D01*
X414481Y148769D01*
X414312Y147480D01*
X414481Y146192D01*
X414979Y144991D01*
X415770Y143959D01*
X416802Y143168D01*
X418003Y142670D01*
X419291Y142501D01*
X420580Y142670D01*
X421781Y143168D01*
X422812Y143959D01*
X423604Y144991D01*
X424101Y146192D01*
X424271Y147480D01*
X424101Y148769D01*
X423604Y149970D01*
X422812Y151001D01*
X421781Y151793D01*
X420580Y152290D01*
X419291Y152460D01*
D02*
G37*
G36*
X372047D02*
X370758Y152290D01*
X369557Y151793D01*
X368526Y151001D01*
X367735Y149970D01*
X367237Y148769D01*
X367068Y147480D01*
X367237Y146192D01*
X367735Y144991D01*
X368526Y143959D01*
X369557Y143168D01*
X370758Y142670D01*
X372047Y142501D01*
X373336Y142670D01*
X374537Y143168D01*
X375568Y143959D01*
X376360Y144991D01*
X376857Y146192D01*
X377027Y147480D01*
X376857Y148769D01*
X376360Y149970D01*
X375568Y151001D01*
X374537Y151793D01*
X373336Y152290D01*
X372047Y152460D01*
D02*
G37*
G36*
X324803D02*
X323514Y152290D01*
X322313Y151793D01*
X321282Y151001D01*
X320491Y149970D01*
X319993Y148769D01*
X319824Y147480D01*
X319993Y146192D01*
X320491Y144991D01*
X321282Y143959D01*
X322313Y143168D01*
X323514Y142670D01*
X324803Y142501D01*
X326092Y142670D01*
X327293Y143168D01*
X328324Y143959D01*
X329116Y144991D01*
X329613Y146192D01*
X329783Y147480D01*
X329613Y148769D01*
X329116Y149970D01*
X328324Y151001D01*
X327293Y151793D01*
X326092Y152290D01*
X324803Y152460D01*
D02*
G37*
G36*
X277559D02*
X276270Y152290D01*
X275069Y151793D01*
X274038Y151001D01*
X273247Y149970D01*
X272749Y148769D01*
X272579Y147480D01*
X272749Y146192D01*
X273247Y144991D01*
X274038Y143959D01*
X275069Y143168D01*
X276270Y142670D01*
X277559Y142501D01*
X278848Y142670D01*
X280049Y143168D01*
X281080Y143959D01*
X281872Y144991D01*
X282369Y146192D01*
X282539Y147480D01*
X282369Y148769D01*
X281872Y149970D01*
X281080Y151001D01*
X280049Y151793D01*
X278848Y152290D01*
X277559Y152460D01*
D02*
G37*
G36*
X230315D02*
X229026Y152290D01*
X227825Y151793D01*
X226794Y151001D01*
X226003Y149970D01*
X225505Y148769D01*
X225335Y147480D01*
X225505Y146192D01*
X226003Y144991D01*
X226794Y143959D01*
X227825Y143168D01*
X229026Y142670D01*
X230315Y142501D01*
X231604Y142670D01*
X232805Y143168D01*
X233836Y143959D01*
X234627Y144991D01*
X235125Y146192D01*
X235295Y147480D01*
X235125Y148769D01*
X234627Y149970D01*
X233836Y151001D01*
X232805Y151793D01*
X231604Y152290D01*
X230315Y152460D01*
D02*
G37*
G36*
X183071D02*
X181782Y152290D01*
X180581Y151793D01*
X179550Y151001D01*
X178758Y149970D01*
X178261Y148769D01*
X178091Y147480D01*
X178261Y146192D01*
X178758Y144991D01*
X179550Y143959D01*
X180581Y143168D01*
X181782Y142670D01*
X183071Y142501D01*
X184360Y142670D01*
X185561Y143168D01*
X186592Y143959D01*
X187383Y144991D01*
X187881Y146192D01*
X188050Y147480D01*
X187881Y148769D01*
X187383Y149970D01*
X186592Y151001D01*
X185561Y151793D01*
X184360Y152290D01*
X183071Y152460D01*
D02*
G37*
G36*
X486535Y151928D02*
X485247Y151759D01*
X484046Y151261D01*
X483014Y150470D01*
X482223Y149439D01*
X481726Y148238D01*
X481556Y146949D01*
X481726Y145660D01*
X482223Y144459D01*
X483014Y143428D01*
X484046Y142636D01*
X485247Y142139D01*
X486535Y141969D01*
X487824Y142139D01*
X489025Y142636D01*
X490057Y143428D01*
X490848Y144459D01*
X491345Y145660D01*
X491515Y146949D01*
X491345Y148238D01*
X490848Y149439D01*
X490057Y150470D01*
X489025Y151261D01*
X487824Y151759D01*
X486535Y151928D01*
D02*
G37*
G36*
X439291D02*
X438002Y151759D01*
X436801Y151261D01*
X435770Y150470D01*
X434979Y149439D01*
X434481Y148238D01*
X434312Y146949D01*
X434481Y145660D01*
X434979Y144459D01*
X435770Y143428D01*
X436801Y142636D01*
X438002Y142139D01*
X439291Y141969D01*
X440580Y142139D01*
X441781Y142636D01*
X442812Y143428D01*
X443604Y144459D01*
X444101Y145660D01*
X444271Y146949D01*
X444101Y148238D01*
X443604Y149439D01*
X442812Y150470D01*
X441781Y151261D01*
X440580Y151759D01*
X439291Y151928D01*
D02*
G37*
G36*
X392047D02*
X390758Y151759D01*
X389557Y151261D01*
X388526Y150470D01*
X387735Y149439D01*
X387237Y148238D01*
X387068Y146949D01*
X387237Y145660D01*
X387735Y144459D01*
X388526Y143428D01*
X389557Y142636D01*
X390758Y142139D01*
X392047Y141969D01*
X393336Y142139D01*
X394537Y142636D01*
X395568Y143428D01*
X396360Y144459D01*
X396857Y145660D01*
X397027Y146949D01*
X396857Y148238D01*
X396360Y149439D01*
X395568Y150470D01*
X394537Y151261D01*
X393336Y151759D01*
X392047Y151928D01*
D02*
G37*
G36*
X344803D02*
X343514Y151759D01*
X342313Y151261D01*
X341282Y150470D01*
X340491Y149439D01*
X339993Y148238D01*
X339824Y146949D01*
X339993Y145660D01*
X340491Y144459D01*
X341282Y143428D01*
X342313Y142636D01*
X343514Y142139D01*
X344803Y141969D01*
X346092Y142139D01*
X347293Y142636D01*
X348324Y143428D01*
X349116Y144459D01*
X349613Y145660D01*
X349783Y146949D01*
X349613Y148238D01*
X349116Y149439D01*
X348324Y150470D01*
X347293Y151261D01*
X346092Y151759D01*
X344803Y151928D01*
D02*
G37*
G36*
X297559D02*
X296270Y151759D01*
X295069Y151261D01*
X294038Y150470D01*
X293247Y149439D01*
X292749Y148238D01*
X292579Y146949D01*
X292749Y145660D01*
X293247Y144459D01*
X294038Y143428D01*
X295069Y142636D01*
X296270Y142139D01*
X297559Y141969D01*
X298848Y142139D01*
X300049Y142636D01*
X301080Y143428D01*
X301871Y144459D01*
X302369Y145660D01*
X302539Y146949D01*
X302369Y148238D01*
X301871Y149439D01*
X301080Y150470D01*
X300049Y151261D01*
X298848Y151759D01*
X297559Y151928D01*
D02*
G37*
G36*
X250315D02*
X249026Y151759D01*
X247825Y151261D01*
X246794Y150470D01*
X246003Y149439D01*
X245505Y148238D01*
X245335Y146949D01*
X245505Y145660D01*
X246003Y144459D01*
X246794Y143428D01*
X247825Y142636D01*
X249026Y142139D01*
X250315Y141969D01*
X251604Y142139D01*
X252805Y142636D01*
X253836Y143428D01*
X254627Y144459D01*
X255125Y145660D01*
X255295Y146949D01*
X255125Y148238D01*
X254627Y149439D01*
X253836Y150470D01*
X252805Y151261D01*
X251604Y151759D01*
X250315Y151928D01*
D02*
G37*
G36*
X203071D02*
X201782Y151759D01*
X200581Y151261D01*
X199550Y150470D01*
X198758Y149439D01*
X198261Y148238D01*
X198091Y146949D01*
X198261Y145660D01*
X198758Y144459D01*
X199550Y143428D01*
X200581Y142636D01*
X201782Y142139D01*
X203071Y141969D01*
X204360Y142139D01*
X205561Y142636D01*
X206592Y143428D01*
X207383Y144459D01*
X207881Y145660D01*
X208050Y146949D01*
X207881Y148238D01*
X207383Y149439D01*
X206592Y150470D01*
X205561Y151261D01*
X204360Y151759D01*
X203071Y151928D01*
D02*
G37*
G36*
X157480Y141325D02*
X156567Y141205D01*
X155715Y140852D01*
X154984Y140292D01*
X154423Y139560D01*
X154070Y138709D01*
X153950Y137795D01*
X154070Y136882D01*
X154423Y136030D01*
X154984Y135299D01*
X155715Y134738D01*
X156567Y134385D01*
X157480Y134265D01*
X158394Y134385D01*
X159245Y134738D01*
X159976Y135299D01*
X160538Y136030D01*
X160890Y136882D01*
X161011Y137795D01*
X160890Y138709D01*
X160538Y139560D01*
X159976Y140292D01*
X159245Y140852D01*
X158394Y141205D01*
X157480Y141325D01*
D02*
G37*
G36*
X531496Y143745D02*
X530335Y143631D01*
X529219Y143292D01*
X528191Y142743D01*
X527289Y142002D01*
X526549Y141101D01*
X525999Y140072D01*
X525661Y138956D01*
X525546Y137795D01*
X525661Y136635D01*
X525999Y135518D01*
X526549Y134490D01*
X527289Y133588D01*
X528191Y132848D01*
X529219Y132298D01*
X530335Y131960D01*
X531496Y131845D01*
X532657Y131960D01*
X533773Y132298D01*
X534802Y132848D01*
X535703Y133588D01*
X536443Y134490D01*
X536993Y135518D01*
X537332Y136635D01*
X537446Y137795D01*
X537332Y138956D01*
X536993Y140072D01*
X536443Y141101D01*
X535703Y142002D01*
X534802Y142743D01*
X533773Y143292D01*
X532657Y143631D01*
X531496Y143745D01*
D02*
G37*
G36*
X137795D02*
X136635Y143631D01*
X135518Y143292D01*
X134490Y142743D01*
X133588Y142002D01*
X132848Y141101D01*
X132298Y140072D01*
X131960Y138956D01*
X131845Y137795D01*
X131960Y136635D01*
X132298Y135518D01*
X132848Y134490D01*
X133588Y133588D01*
X134490Y132848D01*
X135518Y132298D01*
X136635Y131960D01*
X137795Y131845D01*
X138956Y131960D01*
X140072Y132298D01*
X141101Y132848D01*
X142002Y133588D01*
X142743Y134490D01*
X143292Y135518D01*
X143631Y136635D01*
X143745Y137795D01*
X143631Y138956D01*
X143292Y140072D01*
X142743Y141101D01*
X142002Y142002D01*
X141101Y142743D01*
X140072Y143292D01*
X138956Y143631D01*
X137795Y143745D01*
D02*
G37*
G36*
X500213Y169405D02*
X494669D01*
Y161303D01*
X498471D01*
Y146255D01*
X498587Y145670D01*
X498919Y145174D01*
X499504Y144588D01*
X500000Y144256D01*
X500586Y144140D01*
X502408D01*
Y133076D01*
X502172Y132978D01*
X501441Y132418D01*
X500880Y131686D01*
X500527Y130835D01*
X500407Y129921D01*
X500527Y129008D01*
X500880Y128156D01*
X501441Y127425D01*
X502172Y126864D01*
X503023Y126511D01*
X503937Y126391D01*
X504851Y126511D01*
X505702Y126864D01*
X506433Y127425D01*
X506994Y128156D01*
X507347Y129008D01*
X507467Y129921D01*
X507347Y130835D01*
X506994Y131686D01*
X506433Y132418D01*
X505702Y132978D01*
X505466Y133076D01*
Y145083D01*
X505350Y145669D01*
X505019Y146165D01*
X504433Y146751D01*
X503936Y147082D01*
X503351Y147199D01*
X501529D01*
Y164769D01*
X501413Y165354D01*
X501081Y165850D01*
X500496Y166436D01*
X500213Y166625D01*
Y169405D01*
D02*
G37*
G36*
X456807D02*
X451264D01*
Y164231D01*
X451234Y164083D01*
Y133079D01*
X450991Y132978D01*
X450260Y132418D01*
X449699Y131686D01*
X449346Y130835D01*
X449226Y129921D01*
X449346Y129008D01*
X449699Y128156D01*
X450260Y127425D01*
X450991Y126864D01*
X451842Y126511D01*
X452756Y126391D01*
X453670Y126511D01*
X454521Y126864D01*
X455252Y127425D01*
X455813Y128156D01*
X456166Y129008D01*
X456286Y129921D01*
X456166Y130835D01*
X455813Y131686D01*
X455252Y132418D01*
X454521Y132978D01*
X454293Y133073D01*
Y161303D01*
X456807D01*
Y169405D01*
D02*
G37*
G36*
X409563D02*
X404020D01*
Y164231D01*
X403990Y164083D01*
Y133079D01*
X403747Y132978D01*
X403016Y132418D01*
X402455Y131686D01*
X402102Y130835D01*
X401982Y129921D01*
X402102Y129008D01*
X402455Y128156D01*
X403016Y127425D01*
X403747Y126864D01*
X404598Y126511D01*
X405512Y126391D01*
X406426Y126511D01*
X407277Y126864D01*
X408008Y127425D01*
X408569Y128156D01*
X408922Y129008D01*
X409042Y129921D01*
X408922Y130835D01*
X408569Y131686D01*
X408008Y132418D01*
X407277Y132978D01*
X407049Y133073D01*
Y161303D01*
X409563D01*
Y169405D01*
D02*
G37*
G36*
X362319D02*
X356776D01*
Y164231D01*
X356746Y164083D01*
Y133079D01*
X356503Y132978D01*
X355771Y132418D01*
X355210Y131686D01*
X354858Y130835D01*
X354737Y129921D01*
X354858Y129008D01*
X355210Y128156D01*
X355771Y127425D01*
X356503Y126864D01*
X357354Y126511D01*
X358268Y126391D01*
X359181Y126511D01*
X360033Y126864D01*
X360764Y127425D01*
X361325Y128156D01*
X361678Y129008D01*
X361798Y129921D01*
X361678Y130835D01*
X361325Y131686D01*
X360764Y132418D01*
X360033Y132978D01*
X359805Y133073D01*
Y161303D01*
X362319D01*
Y169405D01*
D02*
G37*
G36*
X315075D02*
X309531D01*
Y164231D01*
X309502Y164083D01*
Y133079D01*
X309259Y132978D01*
X308527Y132418D01*
X307966Y131686D01*
X307614Y130835D01*
X307493Y129921D01*
X307614Y129008D01*
X307966Y128156D01*
X308527Y127425D01*
X309259Y126864D01*
X310110Y126511D01*
X311024Y126391D01*
X311937Y126511D01*
X312789Y126864D01*
X313520Y127425D01*
X314081Y128156D01*
X314434Y129008D01*
X314554Y129921D01*
X314434Y130835D01*
X314081Y131686D01*
X313520Y132418D01*
X312789Y132978D01*
X312561Y133073D01*
Y161303D01*
X315075D01*
Y169405D01*
D02*
G37*
G36*
X267831D02*
X262287D01*
Y164262D01*
X262250Y164075D01*
Y133076D01*
X262014Y132978D01*
X261283Y132418D01*
X260722Y131686D01*
X260370Y130835D01*
X260249Y129921D01*
X260370Y129008D01*
X260722Y128156D01*
X261283Y127425D01*
X262014Y126864D01*
X262866Y126511D01*
X263779Y126391D01*
X264693Y126511D01*
X265545Y126864D01*
X266276Y127425D01*
X266837Y128156D01*
X267189Y129008D01*
X267310Y129921D01*
X267189Y130835D01*
X266837Y131686D01*
X266276Y132418D01*
X265545Y132978D01*
X265309Y133076D01*
Y161303D01*
X267831D01*
Y169405D01*
D02*
G37*
G36*
X220587Y169405D02*
X215043D01*
Y164231D01*
X215014Y164083D01*
Y133079D01*
X214770Y132978D01*
X214039Y132418D01*
X213478Y131686D01*
X213125Y130835D01*
X213005Y129921D01*
X213125Y129008D01*
X213478Y128156D01*
X214039Y127425D01*
X214770Y126864D01*
X215622Y126511D01*
X216535Y126391D01*
X217449Y126511D01*
X218301Y126864D01*
X219032Y127425D01*
X219593Y128156D01*
X219945Y129008D01*
X220066Y129921D01*
X219945Y130835D01*
X219593Y131686D01*
X219032Y132418D01*
X218301Y132978D01*
X218073Y133073D01*
Y161303D01*
X220587D01*
Y169405D01*
D02*
G37*
%LPD*%
D12*
X212598Y342520D02*
X212726Y342648D01*
X216926D01*
Y354331D01*
X259842Y342520D02*
Y353940D01*
X260233Y354331D01*
X216627Y354032D02*
X216926Y354331D01*
X186541Y252154D02*
X186542Y252155D01*
X186540Y238374D02*
X186542Y238376D01*
Y252155D02*
X186636Y252062D01*
X186338Y265730D02*
X186542Y265935D01*
X444874Y341926D02*
X445468Y342520D01*
X448233D01*
X443602Y334646D02*
X444874Y335917D01*
Y341926D01*
X448233Y342520D02*
X448819Y343106D01*
Y389764D01*
X448513Y389458D02*
X448819Y389764D01*
X468110Y366142D02*
X468504Y366535D01*
X460630Y366142D02*
X468110D01*
X460630Y335231D02*
Y366142D01*
X409449Y335231D02*
Y366142D01*
X421260D01*
X401184Y322835D02*
X402854Y324505D01*
Y334646D01*
X433071Y322835D02*
X445272D01*
X385827D02*
X394091D01*
X452365D02*
X454035Y324505D01*
Y334646D01*
X460044D01*
X460630Y335231D01*
X397638Y358854D02*
Y389178D01*
X400989D02*
X401575Y389764D01*
X397638Y389178D02*
X400989D01*
X394224Y358268D02*
X397052D01*
X397638Y358854D01*
X393638Y357682D02*
X394224Y358268D01*
X393638Y335862D02*
Y357682D01*
X392421Y334646D02*
X393638Y335862D01*
X408863Y334646D02*
X409449Y335231D01*
X402854Y334646D02*
X408863D01*
X496063Y137795D02*
Y153543D01*
X492712D02*
X496063D01*
X492126Y154129D02*
X492712Y153543D01*
X492126Y154129D02*
Y176580D01*
X500586Y145669D02*
X503351D01*
X503937Y129921D02*
Y145083D01*
X503351Y145669D02*
X503937Y145083D01*
X500000Y146255D02*
Y164769D01*
Y146255D02*
X500586Y145669D01*
X497441Y165354D02*
X499414D01*
X500000Y164769D01*
X492126Y176580D02*
X492712Y177165D01*
X496454D01*
X488189Y192328D02*
X488775Y192913D01*
X488189Y158066D02*
Y192328D01*
X488775Y192913D02*
X500000D01*
X501862Y201051D02*
X507024D01*
X507874Y185625D02*
Y200202D01*
X500000Y202913D02*
X501862Y201051D01*
X507024D02*
X507874Y200202D01*
X507288Y185039D02*
X507874Y185625D01*
X504523Y185039D02*
X507288D01*
X503937Y177556D02*
Y184454D01*
X504523Y185039D01*
X503546Y177165D02*
X503937Y177556D01*
X503546Y177165D02*
X507288D01*
X507874Y165354D02*
Y176580D01*
X507288Y177165D02*
X507874Y176580D01*
X216528Y389756D02*
X216535Y389764D01*
X215256Y366142D02*
X216528Y367413D01*
Y389756D01*
X216535Y177556D02*
Y188976D01*
X216145Y177165D02*
X216535Y177556D01*
X216543Y129929D02*
Y164083D01*
X216535Y129921D02*
X216543Y129929D01*
Y164083D02*
X217815Y165354D01*
X209052Y168304D02*
Y177165D01*
X207382Y166634D02*
X209052Y168304D01*
X207382Y165354D02*
Y166634D01*
X200787Y157480D02*
Y164769D01*
X201373Y165354D02*
X207382D01*
X200787Y164769D02*
X201373Y165354D01*
X263779Y177556D02*
Y188976D01*
X263389Y177165D02*
X263779Y177556D01*
Y129921D02*
Y164075D01*
X265059Y165354D01*
X254626D02*
Y175495D01*
X256296Y177165D01*
X248031Y157480D02*
Y164769D01*
X248617Y165354D01*
X254626D01*
X311024Y177556D02*
Y188976D01*
X310633Y177165D02*
X311024Y177556D01*
X311032Y164083D02*
X312303Y165354D01*
X311032Y129929D02*
Y164083D01*
X311024Y129921D02*
X311032Y129929D01*
X301870Y166634D02*
X303540Y168304D01*
Y177165D01*
X301870Y165354D02*
Y166634D01*
X295276Y157480D02*
Y164769D01*
X295861Y165354D01*
X301870D01*
X358268Y177556D02*
Y188976D01*
X357877Y177165D02*
X358268Y177556D01*
X358276Y129929D02*
Y164083D01*
X358268Y129921D02*
X358276Y129929D01*
Y164083D02*
X359547Y165354D01*
X343106D02*
X349114D01*
X342520Y157480D02*
Y164769D01*
X343106Y165354D01*
X349114Y166634D02*
X350784Y168304D01*
X349114Y165354D02*
Y166634D01*
X350784Y168304D02*
Y177165D01*
X405512Y177556D02*
Y188976D01*
X405121Y177165D02*
X405512Y177556D01*
X405520Y164083D02*
X406791Y165354D01*
X405520Y129929D02*
Y164083D01*
X405512Y129921D02*
X405520Y129929D01*
X389764Y157480D02*
Y164769D01*
X390350Y165354D01*
X396358D01*
Y175495D02*
X398028Y177165D01*
X396358Y165354D02*
Y175495D01*
X503929Y129929D02*
X503937Y129921D01*
X452756D02*
X452764Y129929D01*
Y164083D02*
X454035Y165354D01*
X452764Y129929D02*
Y164083D01*
X452756Y177556D02*
Y188976D01*
X452365Y177165D02*
X452756Y177556D01*
X437008Y157480D02*
Y164769D01*
X437594Y165354D02*
X443602D01*
X437008Y164769D02*
X437594Y165354D01*
X443602D02*
Y166634D01*
X445272Y168304D02*
Y177165D01*
X443602Y166634D02*
X445272Y168304D01*
X484252Y157480D02*
X487603D01*
X488189Y158066D01*
X165347Y367413D02*
Y389756D01*
X165354Y389764D01*
X164075Y366142D02*
X165347Y367413D01*
X165354Y342520D02*
Y353940D01*
X165745Y354331D01*
X354331Y372403D02*
Y389764D01*
X307079Y367413D02*
Y389756D01*
X307087Y389764D01*
X259842Y378308D02*
Y389764D01*
X258563Y366142D02*
X259835Y367413D01*
Y378300D02*
X259842Y378308D01*
X259835Y367413D02*
Y378300D01*
X305807Y366142D02*
X307079Y367413D01*
X307087Y342520D02*
Y353940D01*
X307477Y354331D01*
X353051Y366142D02*
X354323Y367413D01*
Y372395D01*
X354331Y372403D01*
Y342520D02*
Y353940D01*
X354721Y354331D01*
X361814D02*
X363484Y356001D01*
Y366142D01*
X374016D01*
X316240Y356001D02*
Y366142D01*
X314570Y354331D02*
X316240Y356001D01*
Y366142D02*
X326772D01*
X268996D02*
X279528D01*
X267326Y363192D02*
X268996Y364862D01*
Y366142D01*
X267326Y354331D02*
Y363192D01*
X225689Y366142D02*
X232283D01*
X224019Y354331D02*
Y363192D01*
X225689Y364862D01*
Y366142D01*
X172838Y354331D02*
X174508Y356001D01*
Y366142D01*
X185039D01*
D26*
X156702Y265730D02*
X171760D01*
X171964Y265934D02*
X186541D01*
X186543D02*
X204050D01*
X204122Y265862D02*
X220369D01*
X204043Y279528D02*
X220580D01*
X186543Y279714D02*
X203857D01*
X186542Y265935D02*
Y279714D01*
X171629Y279714D02*
X186541D01*
X156095Y279528D02*
X171443D01*
D27*
X186542Y279714D02*
D03*
Y265935D02*
D03*
Y252155D02*
D03*
X220472Y265933D02*
D03*
X204724D02*
D03*
X171260Y252153D02*
D03*
Y238374D02*
D03*
X220472Y279713D02*
D03*
X155512D02*
D03*
X171260D02*
D03*
X204724D02*
D03*
X155512Y265933D02*
D03*
X171260D02*
D03*
X155512Y252153D02*
D03*
Y238374D02*
D03*
X220472D02*
D03*
X204724Y238376D02*
D03*
Y251969D02*
D03*
X220472D02*
D03*
D28*
X186542Y238376D02*
D03*
D29*
X500000Y202913D02*
D03*
X468504Y216535D02*
D03*
D30*
X500000Y192913D02*
D03*
X468504Y206535D02*
D03*
D31*
X438976Y376142D02*
D03*
X418976Y376673D02*
D03*
X230000D02*
D03*
X250000Y376142D02*
D03*
X486535Y146949D02*
D03*
X466535Y147480D02*
D03*
X182756Y376673D02*
D03*
X202756Y376142D02*
D03*
X183071Y147480D02*
D03*
X203071Y146949D02*
D03*
X250315D02*
D03*
X230315Y147480D02*
D03*
X277559D02*
D03*
X297559Y146949D02*
D03*
X324803Y147480D02*
D03*
X344803Y146949D02*
D03*
X372047Y147480D02*
D03*
X392047Y146949D02*
D03*
X419291Y147480D02*
D03*
X439291Y146949D02*
D03*
X297244Y376142D02*
D03*
X277244Y376673D02*
D03*
X344488Y376142D02*
D03*
X324488Y376673D02*
D03*
X371732D02*
D03*
X391732Y376142D02*
D03*
X466221Y377067D02*
D03*
X486221Y376535D02*
D03*
D32*
X428740Y366142D02*
D03*
X436221D02*
D03*
X421260D02*
D03*
X239764D02*
D03*
X247244D02*
D03*
X232283D02*
D03*
X476772Y157480D02*
D03*
X469291D02*
D03*
X484252D02*
D03*
X200000Y366142D02*
D03*
X192520D02*
D03*
X185039D02*
D03*
X437008Y157480D02*
D03*
X422047D02*
D03*
X389764D02*
D03*
X374803D02*
D03*
X342520D02*
D03*
X327559D02*
D03*
X295276D02*
D03*
X280315D02*
D03*
X248031D02*
D03*
X233071D02*
D03*
X200787D02*
D03*
X185827D02*
D03*
X468504Y366535D02*
D03*
X483465D02*
D03*
X374016Y366142D02*
D03*
X388976D02*
D03*
X326772D02*
D03*
X341732D02*
D03*
X279528D02*
D03*
X294488D02*
D03*
X193307Y157480D02*
D03*
X240551D02*
D03*
X287795D02*
D03*
X335039D02*
D03*
X382283D02*
D03*
X429528D02*
D03*
X287008Y366142D02*
D03*
X334252D02*
D03*
X381496D02*
D03*
X475984Y366535D02*
D03*
D33*
X428740Y346063D02*
D03*
X239764D02*
D03*
X476772Y177559D02*
D03*
X192520Y346063D02*
D03*
X193307Y177559D02*
D03*
X240551D02*
D03*
X287795D02*
D03*
X335039D02*
D03*
X382283D02*
D03*
X429528D02*
D03*
X287008Y346063D02*
D03*
X334252D02*
D03*
X381496D02*
D03*
X475984Y346457D02*
D03*
D34*
X212598Y342520D02*
D03*
X259842D02*
D03*
X342957Y324803D02*
D03*
X322070D02*
D03*
X322835Y228346D02*
D03*
X137795Y350394D02*
D03*
X496063Y137795D02*
D03*
X216535Y389764D02*
D03*
Y188976D02*
D03*
Y129921D02*
D03*
X263779Y188976D02*
D03*
Y129921D02*
D03*
X311024Y188976D02*
D03*
Y129921D02*
D03*
X358268Y188976D02*
D03*
Y129921D02*
D03*
X405512Y188976D02*
D03*
Y129921D02*
D03*
X503937D02*
D03*
X452756D02*
D03*
Y188976D02*
D03*
X149606Y385827D02*
D03*
X165354Y389764D02*
D03*
Y342520D02*
D03*
X448819Y389764D02*
D03*
X401575D02*
D03*
X354331D02*
D03*
X307087D02*
D03*
X259842D02*
D03*
X307087Y342520D02*
D03*
X354331D02*
D03*
X385827Y322835D02*
D03*
X433071D02*
D03*
X157480Y137795D02*
D03*
X344526Y230254D02*
D03*
D35*
X137795Y374016D02*
D03*
Y137795D02*
D03*
X531496D02*
D03*
Y374016D02*
D03*
D36*
X164075Y366142D02*
D03*
X174508D02*
D03*
X443602Y334646D02*
D03*
X454035D02*
D03*
X497441Y165354D02*
D03*
X507874D02*
D03*
X217815Y165354D02*
D03*
X207382D02*
D03*
X225689Y366142D02*
D03*
X215256D02*
D03*
X268996D02*
D03*
X258563D02*
D03*
X316240D02*
D03*
X305807D02*
D03*
X363484D02*
D03*
X353051D02*
D03*
X402854Y334646D02*
D03*
X392421D02*
D03*
X443602Y165354D02*
D03*
X454035D02*
D03*
X396358D02*
D03*
X406791D02*
D03*
X349114D02*
D03*
X359547D02*
D03*
X301870D02*
D03*
X312303D02*
D03*
X254626D02*
D03*
X265059D02*
D03*
D37*
X172838Y354331D02*
D03*
X165745D02*
D03*
X496454Y177165D02*
D03*
X503546D02*
D03*
X216145D02*
D03*
X209052D02*
D03*
X216926Y354331D02*
D03*
X224019D02*
D03*
X260233D02*
D03*
X267326D02*
D03*
X307477D02*
D03*
X314570D02*
D03*
X354721D02*
D03*
X361814D02*
D03*
X394091Y322835D02*
D03*
X401184D02*
D03*
X445272D02*
D03*
X452365D02*
D03*
X445272Y177165D02*
D03*
X452365D02*
D03*
X398028D02*
D03*
X405121D02*
D03*
X350784D02*
D03*
X357877D02*
D03*
X303540D02*
D03*
X310633D02*
D03*
X256296D02*
D03*
X263389D02*
D03*
M02*
