G04*
G04 #@! TF.GenerationSoftware,Altium Limited,Altium Designer,20.2.6 (244)*
G04*
G04 Layer_Physical_Order=2*
G04 Layer_Color=36540*
%FSLAX25Y25*%
%MOIN*%
G70*
G04*
G04 #@! TF.SameCoordinates,49C804FE-1F55-4C35-86A9-3D4A2AB346A9*
G04*
G04*
G04 #@! TF.FilePolarity,Positive*
G04*
G01*
G75*
%ADD29C,0.05000*%
G36*
X547244Y118110D02*
X118110D01*
Y393701D01*
X547244D01*
Y118110D01*
D02*
G37*
%LPC*%
G36*
X188976Y389357D02*
X188063Y389237D01*
X187211Y388884D01*
X186480Y388323D01*
X185919Y387592D01*
X185566Y386740D01*
X185446Y385827D01*
X185566Y384913D01*
X185919Y384062D01*
X186480Y383330D01*
X187211Y382769D01*
X188063Y382417D01*
X188976Y382297D01*
X189890Y382417D01*
X190742Y382769D01*
X191473Y383330D01*
X192034Y384062D01*
X192386Y384913D01*
X192507Y385827D01*
X192386Y386740D01*
X192034Y387592D01*
X191473Y388323D01*
X190742Y388884D01*
X189890Y389237D01*
X188976Y389357D01*
D02*
G37*
G36*
X488189Y381483D02*
X487275Y381363D01*
X486424Y381010D01*
X485693Y380449D01*
X485132Y379718D01*
X484779Y378866D01*
X484659Y377953D01*
X484779Y377039D01*
X485132Y376188D01*
X485693Y375457D01*
X486424Y374896D01*
X487275Y374543D01*
X488189Y374423D01*
X489103Y374543D01*
X489954Y374896D01*
X490685Y375457D01*
X491246Y376188D01*
X491599Y377039D01*
X491719Y377953D01*
X491599Y378866D01*
X491246Y379718D01*
X490685Y380449D01*
X489954Y381010D01*
X489103Y381363D01*
X488189Y381483D01*
D02*
G37*
G36*
X425197D02*
X424283Y381363D01*
X423432Y381010D01*
X422701Y380449D01*
X422140Y379718D01*
X421787Y378866D01*
X421667Y377953D01*
X421787Y377039D01*
X422140Y376188D01*
X422701Y375457D01*
X423432Y374896D01*
X424283Y374543D01*
X425197Y374423D01*
X426111Y374543D01*
X426962Y374896D01*
X427693Y375457D01*
X428254Y376188D01*
X428607Y377039D01*
X428727Y377953D01*
X428607Y378866D01*
X428254Y379718D01*
X427693Y380449D01*
X426962Y381010D01*
X426111Y381363D01*
X425197Y381483D01*
D02*
G37*
G36*
X366142D02*
X365228Y381363D01*
X364377Y381010D01*
X363646Y380449D01*
X363085Y379718D01*
X362732Y378866D01*
X362612Y377953D01*
X362732Y377039D01*
X363085Y376188D01*
X363646Y375457D01*
X364377Y374896D01*
X365228Y374543D01*
X366142Y374423D01*
X367055Y374543D01*
X367907Y374896D01*
X368638Y375457D01*
X369199Y376188D01*
X369552Y377039D01*
X369672Y377953D01*
X369552Y378866D01*
X369199Y379718D01*
X368638Y380449D01*
X367907Y381010D01*
X367055Y381363D01*
X366142Y381483D01*
D02*
G37*
G36*
X307087D02*
X306173Y381363D01*
X305322Y381010D01*
X304590Y380449D01*
X304029Y379718D01*
X303677Y378866D01*
X303556Y377953D01*
X303677Y377039D01*
X304029Y376188D01*
X304590Y375457D01*
X305322Y374896D01*
X306173Y374543D01*
X307087Y374423D01*
X308000Y374543D01*
X308852Y374896D01*
X309583Y375457D01*
X310144Y376188D01*
X310496Y377039D01*
X310617Y377953D01*
X310496Y378866D01*
X310144Y379718D01*
X309583Y380449D01*
X308852Y381010D01*
X308000Y381363D01*
X307087Y381483D01*
D02*
G37*
G36*
X248031D02*
X247118Y381363D01*
X246266Y381010D01*
X245535Y380449D01*
X244974Y379718D01*
X244622Y378866D01*
X244501Y377953D01*
X244622Y377039D01*
X244974Y376188D01*
X245535Y375457D01*
X246266Y374896D01*
X247118Y374543D01*
X248031Y374423D01*
X248945Y374543D01*
X249797Y374896D01*
X250528Y375457D01*
X251089Y376188D01*
X251441Y377039D01*
X251562Y377953D01*
X251441Y378866D01*
X251089Y379718D01*
X250528Y380449D01*
X249797Y381010D01*
X248945Y381363D01*
X248031Y381483D01*
D02*
G37*
G36*
X458976Y381653D02*
X457688Y381483D01*
X456487Y380986D01*
X455455Y380194D01*
X454664Y379163D01*
X454166Y377962D01*
X453997Y376673D01*
X454166Y375384D01*
X454664Y374183D01*
X455455Y373152D01*
X456487Y372361D01*
X457688Y371863D01*
X458976Y371694D01*
X460265Y371863D01*
X461466Y372361D01*
X462498Y373152D01*
X463289Y374183D01*
X463786Y375384D01*
X463956Y376673D01*
X463786Y377962D01*
X463289Y379163D01*
X462498Y380194D01*
X461466Y380986D01*
X460265Y381483D01*
X458976Y381653D01*
D02*
G37*
G36*
X399921D02*
X398632Y381483D01*
X397431Y380986D01*
X396400Y380194D01*
X395609Y379163D01*
X395111Y377962D01*
X394942Y376673D01*
X395111Y375384D01*
X395609Y374183D01*
X396400Y373152D01*
X397431Y372361D01*
X398632Y371863D01*
X399921Y371694D01*
X401210Y371863D01*
X402411Y372361D01*
X403442Y373152D01*
X404234Y374183D01*
X404731Y375384D01*
X404901Y376673D01*
X404731Y377962D01*
X404234Y379163D01*
X403442Y380194D01*
X402411Y380986D01*
X401210Y381483D01*
X399921Y381653D01*
D02*
G37*
G36*
X340866D02*
X339577Y381483D01*
X338376Y380986D01*
X337345Y380194D01*
X336554Y379163D01*
X336056Y377962D01*
X335887Y376673D01*
X336056Y375384D01*
X336554Y374183D01*
X337345Y373152D01*
X338376Y372361D01*
X339577Y371863D01*
X340866Y371694D01*
X342155Y371863D01*
X343356Y372361D01*
X344387Y373152D01*
X345179Y374183D01*
X345676Y375384D01*
X345846Y376673D01*
X345676Y377962D01*
X345179Y379163D01*
X344387Y380194D01*
X343356Y380986D01*
X342155Y381483D01*
X340866Y381653D01*
D02*
G37*
G36*
X281811D02*
X280522Y381483D01*
X279321Y380986D01*
X278290Y380194D01*
X277499Y379163D01*
X277001Y377962D01*
X276831Y376673D01*
X277001Y375384D01*
X277499Y374183D01*
X278290Y373152D01*
X279321Y372361D01*
X280522Y371863D01*
X281811Y371694D01*
X283100Y371863D01*
X284301Y372361D01*
X285332Y373152D01*
X286123Y374183D01*
X286621Y375384D01*
X286791Y376673D01*
X286621Y377962D01*
X286123Y379163D01*
X285332Y380194D01*
X284301Y380986D01*
X283100Y381483D01*
X281811Y381653D01*
D02*
G37*
G36*
X222756D02*
X221467Y381483D01*
X220266Y380986D01*
X219235Y380194D01*
X218443Y379163D01*
X217946Y377962D01*
X217776Y376673D01*
X217946Y375384D01*
X218443Y374183D01*
X219235Y373152D01*
X220266Y372361D01*
X221467Y371863D01*
X222756Y371694D01*
X224045Y371863D01*
X225246Y372361D01*
X226277Y373152D01*
X227068Y374183D01*
X227566Y375384D01*
X227735Y376673D01*
X227566Y377962D01*
X227068Y379163D01*
X226277Y380194D01*
X225246Y380986D01*
X224045Y381483D01*
X222756Y381653D01*
D02*
G37*
G36*
X438976Y381121D02*
X437688Y380952D01*
X436487Y380454D01*
X435455Y379663D01*
X434664Y378631D01*
X434166Y377431D01*
X433997Y376142D01*
X434166Y374853D01*
X434664Y373652D01*
X435455Y372621D01*
X436487Y371829D01*
X437688Y371332D01*
X438976Y371162D01*
X440265Y371332D01*
X441466Y371829D01*
X442497Y372621D01*
X443289Y373652D01*
X443786Y374853D01*
X443956Y376142D01*
X443786Y377431D01*
X443289Y378631D01*
X442497Y379663D01*
X441466Y380454D01*
X440265Y380952D01*
X438976Y381121D01*
D02*
G37*
G36*
X379921D02*
X378632Y380952D01*
X377431Y380454D01*
X376400Y379663D01*
X375609Y378631D01*
X375111Y377431D01*
X374942Y376142D01*
X375111Y374853D01*
X375609Y373652D01*
X376400Y372621D01*
X377431Y371829D01*
X378632Y371332D01*
X379921Y371162D01*
X381210Y371332D01*
X382411Y371829D01*
X383442Y372621D01*
X384234Y373652D01*
X384731Y374853D01*
X384901Y376142D01*
X384731Y377431D01*
X384234Y378631D01*
X383442Y379663D01*
X382411Y380454D01*
X381210Y380952D01*
X379921Y381121D01*
D02*
G37*
G36*
X320866D02*
X319577Y380952D01*
X318376Y380454D01*
X317345Y379663D01*
X316554Y378631D01*
X316056Y377431D01*
X315886Y376142D01*
X316056Y374853D01*
X316554Y373652D01*
X317345Y372621D01*
X318376Y371829D01*
X319577Y371332D01*
X320866Y371162D01*
X322155Y371332D01*
X323356Y371829D01*
X324387Y372621D01*
X325179Y373652D01*
X325676Y374853D01*
X325846Y376142D01*
X325676Y377431D01*
X325179Y378631D01*
X324387Y379663D01*
X323356Y380454D01*
X322155Y380952D01*
X320866Y381121D01*
D02*
G37*
G36*
X261811D02*
X260522Y380952D01*
X259321Y380454D01*
X258290Y379663D01*
X257499Y378631D01*
X257001Y377431D01*
X256831Y376142D01*
X257001Y374853D01*
X257499Y373652D01*
X258290Y372621D01*
X259321Y371829D01*
X260522Y371332D01*
X261811Y371162D01*
X263100Y371332D01*
X264301Y371829D01*
X265332Y372621D01*
X266124Y373652D01*
X266621Y374853D01*
X266791Y376142D01*
X266621Y377431D01*
X266124Y378631D01*
X265332Y379663D01*
X264301Y380454D01*
X263100Y380952D01*
X261811Y381121D01*
D02*
G37*
G36*
X202756D02*
X201467Y380952D01*
X200266Y380454D01*
X199235Y379663D01*
X198443Y378631D01*
X197946Y377431D01*
X197776Y376142D01*
X197946Y374853D01*
X198443Y373652D01*
X199235Y372621D01*
X200266Y371829D01*
X201467Y371332D01*
X202756Y371162D01*
X204045Y371332D01*
X205246Y371829D01*
X206277Y372621D01*
X207068Y373652D01*
X207566Y374853D01*
X207735Y376142D01*
X207566Y377431D01*
X207068Y378631D01*
X206277Y379663D01*
X205246Y380454D01*
X204045Y380952D01*
X202756Y381121D01*
D02*
G37*
G36*
X531496Y379966D02*
X530335Y379851D01*
X529219Y379513D01*
X528191Y378963D01*
X527289Y378223D01*
X526549Y377321D01*
X525999Y376293D01*
X525661Y375177D01*
X525546Y374016D01*
X525661Y372855D01*
X525999Y371739D01*
X526549Y370710D01*
X527289Y369809D01*
X528191Y369069D01*
X529219Y368519D01*
X530335Y368180D01*
X531496Y368066D01*
X532657Y368180D01*
X533773Y368519D01*
X534802Y369069D01*
X535703Y369809D01*
X536443Y370710D01*
X536993Y371739D01*
X537332Y372855D01*
X537446Y374016D01*
X537332Y375177D01*
X536993Y376293D01*
X536443Y377321D01*
X535703Y378223D01*
X534802Y378963D01*
X533773Y379513D01*
X532657Y379851D01*
X531496Y379966D01*
D02*
G37*
G36*
X137795D02*
X136635Y379851D01*
X135518Y379513D01*
X134490Y378963D01*
X133588Y378223D01*
X132848Y377321D01*
X132298Y376293D01*
X131960Y375177D01*
X131845Y374016D01*
X131960Y372855D01*
X132298Y371739D01*
X132848Y370710D01*
X133588Y369809D01*
X134490Y369069D01*
X135518Y368519D01*
X136635Y368180D01*
X137795Y368066D01*
X138956Y368180D01*
X140072Y368519D01*
X141101Y369069D01*
X142002Y369809D01*
X142743Y370710D01*
X143292Y371739D01*
X143631Y372855D01*
X143745Y374016D01*
X143631Y375177D01*
X143292Y376293D01*
X142743Y377321D01*
X142002Y378223D01*
X141101Y378963D01*
X140072Y379513D01*
X138956Y379851D01*
X137795Y379966D01*
D02*
G37*
G36*
X488689Y369606D02*
Y366642D01*
X491653D01*
X491599Y367055D01*
X491246Y367907D01*
X490685Y368638D01*
X489954Y369199D01*
X489103Y369552D01*
X488689Y369606D01*
D02*
G37*
G36*
X487689D02*
X487275Y369552D01*
X486424Y369199D01*
X485693Y368638D01*
X485132Y367907D01*
X484779Y367055D01*
X484725Y366642D01*
X487689D01*
Y369606D01*
D02*
G37*
G36*
X425697D02*
Y366642D01*
X428661D01*
X428607Y367055D01*
X428254Y367907D01*
X427693Y368638D01*
X426962Y369199D01*
X426111Y369552D01*
X425697Y369606D01*
D02*
G37*
G36*
X424697D02*
X424283Y369552D01*
X423432Y369199D01*
X422701Y368638D01*
X422140Y367907D01*
X421787Y367055D01*
X421733Y366642D01*
X424697D01*
Y369606D01*
D02*
G37*
G36*
X366642D02*
Y366642D01*
X369606D01*
X369552Y367055D01*
X369199Y367907D01*
X368638Y368638D01*
X367907Y369199D01*
X367055Y369552D01*
X366642Y369606D01*
D02*
G37*
G36*
X365642D02*
X365228Y369552D01*
X364377Y369199D01*
X363646Y368638D01*
X363085Y367907D01*
X362732Y367055D01*
X362677Y366642D01*
X365642D01*
Y369606D01*
D02*
G37*
G36*
X307587D02*
Y366642D01*
X310551D01*
X310496Y367055D01*
X310144Y367907D01*
X309583Y368638D01*
X308852Y369199D01*
X308000Y369552D01*
X307587Y369606D01*
D02*
G37*
G36*
X306587D02*
X306173Y369552D01*
X305322Y369199D01*
X304590Y368638D01*
X304029Y367907D01*
X303677Y367055D01*
X303622Y366642D01*
X306587D01*
Y369606D01*
D02*
G37*
G36*
X248532D02*
Y366642D01*
X251496D01*
X251441Y367055D01*
X251089Y367907D01*
X250528Y368638D01*
X249797Y369199D01*
X248945Y369552D01*
X248532Y369606D01*
D02*
G37*
G36*
X247532D02*
X247118Y369552D01*
X246266Y369199D01*
X245535Y368638D01*
X244974Y367907D01*
X244622Y367055D01*
X244567Y366642D01*
X247532D01*
Y369606D01*
D02*
G37*
G36*
X459661Y369110D02*
X453724D01*
Y363173D01*
X459661D01*
Y369110D01*
D02*
G37*
G36*
X452181D02*
X446244D01*
Y363173D01*
X452181D01*
Y369110D01*
D02*
G37*
G36*
X444701D02*
X438764D01*
Y363173D01*
X444701D01*
Y369110D01*
D02*
G37*
G36*
X400606D02*
X394669D01*
Y363173D01*
X400606D01*
Y369110D01*
D02*
G37*
G36*
X393126D02*
X387189D01*
Y363173D01*
X393126D01*
Y369110D01*
D02*
G37*
G36*
X385646D02*
X379709D01*
Y363173D01*
X385646D01*
Y369110D01*
D02*
G37*
G36*
X341551D02*
X335614D01*
Y363173D01*
X341551D01*
Y369110D01*
D02*
G37*
G36*
X334071D02*
X328134D01*
Y363173D01*
X334071D01*
Y369110D01*
D02*
G37*
G36*
X326590D02*
X320654D01*
Y363173D01*
X326590D01*
Y369110D01*
D02*
G37*
G36*
X282496D02*
X276559D01*
Y363173D01*
X282496D01*
Y369110D01*
D02*
G37*
G36*
X275016D02*
X269079D01*
Y363173D01*
X275016D01*
Y369110D01*
D02*
G37*
G36*
X267535D02*
X261598D01*
Y363173D01*
X267535D01*
Y369110D01*
D02*
G37*
G36*
X223441D02*
X217504D01*
Y363173D01*
X223441D01*
Y369110D01*
D02*
G37*
G36*
X215961D02*
X210024D01*
Y363173D01*
X215961D01*
Y369110D01*
D02*
G37*
G36*
X208480D02*
X202543D01*
Y363173D01*
X208480D01*
Y369110D01*
D02*
G37*
G36*
X491653Y365642D02*
X488689D01*
Y362677D01*
X489103Y362732D01*
X489954Y363085D01*
X490685Y363646D01*
X491246Y364377D01*
X491599Y365228D01*
X491653Y365642D01*
D02*
G37*
G36*
X487689D02*
X484725D01*
X484779Y365228D01*
X485132Y364377D01*
X485693Y363646D01*
X486424Y363085D01*
X487275Y362732D01*
X487689Y362677D01*
Y365642D01*
D02*
G37*
G36*
X428661D02*
X425697D01*
Y362677D01*
X426111Y362732D01*
X426962Y363085D01*
X427693Y363646D01*
X428254Y364377D01*
X428607Y365228D01*
X428661Y365642D01*
D02*
G37*
G36*
X424697D02*
X421733D01*
X421787Y365228D01*
X422140Y364377D01*
X422701Y363646D01*
X423432Y363085D01*
X424283Y362732D01*
X424697Y362677D01*
Y365642D01*
D02*
G37*
G36*
X369606D02*
X366642D01*
Y362677D01*
X367055Y362732D01*
X367907Y363085D01*
X368638Y363646D01*
X369199Y364377D01*
X369552Y365228D01*
X369606Y365642D01*
D02*
G37*
G36*
X365642D02*
X362677D01*
X362732Y365228D01*
X363085Y364377D01*
X363646Y363646D01*
X364377Y363085D01*
X365228Y362732D01*
X365642Y362677D01*
Y365642D01*
D02*
G37*
G36*
X310551D02*
X307587D01*
Y362677D01*
X308000Y362732D01*
X308852Y363085D01*
X309583Y363646D01*
X310144Y364377D01*
X310496Y365228D01*
X310551Y365642D01*
D02*
G37*
G36*
X306587D02*
X303622D01*
X303677Y365228D01*
X304029Y364377D01*
X304590Y363646D01*
X305322Y363085D01*
X306173Y362732D01*
X306587Y362677D01*
Y365642D01*
D02*
G37*
G36*
X251496D02*
X248532D01*
Y362677D01*
X248945Y362732D01*
X249797Y363085D01*
X250528Y363646D01*
X251089Y364377D01*
X251441Y365228D01*
X251496Y365642D01*
D02*
G37*
G36*
X247532D02*
X244567D01*
X244622Y365228D01*
X244974Y364377D01*
X245535Y363646D01*
X246266Y363085D01*
X247118Y362732D01*
X247532Y362677D01*
Y365642D01*
D02*
G37*
G36*
X449213Y353299D02*
X447801Y353160D01*
X446444Y352748D01*
X445193Y352079D01*
X444096Y351179D01*
X443196Y350083D01*
X442528Y348832D01*
X442116Y347475D01*
X441977Y346063D01*
X442116Y344651D01*
X442528Y343294D01*
X443196Y342043D01*
X444096Y340947D01*
X445193Y340047D01*
X446444Y339378D01*
X447801Y338966D01*
X449213Y338827D01*
X450624Y338966D01*
X451981Y339378D01*
X453232Y340047D01*
X454329Y340947D01*
X455229Y342043D01*
X455897Y343294D01*
X456309Y344651D01*
X456448Y346063D01*
X456309Y347475D01*
X455897Y348832D01*
X455229Y350083D01*
X454329Y351179D01*
X453232Y352079D01*
X451981Y352748D01*
X450624Y353160D01*
X449213Y353299D01*
D02*
G37*
G36*
X390158D02*
X388746Y353160D01*
X387388Y352748D01*
X386138Y352079D01*
X385041Y351179D01*
X384141Y350083D01*
X383473Y348832D01*
X383061Y347475D01*
X382922Y346063D01*
X383061Y344651D01*
X383473Y343294D01*
X384141Y342043D01*
X385041Y340947D01*
X386138Y340047D01*
X387388Y339378D01*
X388746Y338966D01*
X390158Y338827D01*
X391569Y338966D01*
X392926Y339378D01*
X394177Y340047D01*
X395274Y340947D01*
X396174Y342043D01*
X396842Y343294D01*
X397254Y344651D01*
X397393Y346063D01*
X397254Y347475D01*
X396842Y348832D01*
X396174Y350083D01*
X395274Y351179D01*
X394177Y352079D01*
X392926Y352748D01*
X391569Y353160D01*
X390158Y353299D01*
D02*
G37*
G36*
X331102D02*
X329691Y353160D01*
X328333Y352748D01*
X327082Y352079D01*
X325986Y351179D01*
X325086Y350083D01*
X324417Y348832D01*
X324006Y347475D01*
X323867Y346063D01*
X324006Y344651D01*
X324417Y343294D01*
X325086Y342043D01*
X325986Y340947D01*
X327082Y340047D01*
X328333Y339378D01*
X329691Y338966D01*
X331102Y338827D01*
X332514Y338966D01*
X333871Y339378D01*
X335122Y340047D01*
X336219Y340947D01*
X337119Y342043D01*
X337787Y343294D01*
X338199Y344651D01*
X338338Y346063D01*
X338199Y347475D01*
X337787Y348832D01*
X337119Y350083D01*
X336219Y351179D01*
X335122Y352079D01*
X333871Y352748D01*
X332514Y353160D01*
X331102Y353299D01*
D02*
G37*
G36*
X272047D02*
X270636Y353160D01*
X269278Y352748D01*
X268027Y352079D01*
X266931Y351179D01*
X266031Y350083D01*
X265362Y348832D01*
X264951Y347475D01*
X264812Y346063D01*
X264951Y344651D01*
X265362Y343294D01*
X266031Y342043D01*
X266931Y340947D01*
X268027Y340047D01*
X269278Y339378D01*
X270636Y338966D01*
X272047Y338827D01*
X273459Y338966D01*
X274816Y339378D01*
X276067Y340047D01*
X277164Y340947D01*
X278063Y342043D01*
X278732Y343294D01*
X279144Y344651D01*
X279283Y346063D01*
X279144Y347475D01*
X278732Y348832D01*
X278063Y350083D01*
X277164Y351179D01*
X276067Y352079D01*
X274816Y352748D01*
X273459Y353160D01*
X272047Y353299D01*
D02*
G37*
G36*
X212992D02*
X211580Y353160D01*
X210223Y352748D01*
X208972Y352079D01*
X207876Y351179D01*
X206976Y350083D01*
X206307Y348832D01*
X205895Y347475D01*
X205756Y346063D01*
X205895Y344651D01*
X206307Y343294D01*
X206976Y342043D01*
X207876Y340947D01*
X208972Y340047D01*
X210223Y339378D01*
X211580Y338966D01*
X212992Y338827D01*
X214404Y338966D01*
X215761Y339378D01*
X217012Y340047D01*
X218109Y340947D01*
X219008Y342043D01*
X219677Y343294D01*
X220089Y344651D01*
X220228Y346063D01*
X220089Y347475D01*
X219677Y348832D01*
X219008Y350083D01*
X218109Y351179D01*
X217012Y352079D01*
X215761Y352748D01*
X214404Y353160D01*
X212992Y353299D01*
D02*
G37*
G36*
X332632Y326566D02*
X331719Y326446D01*
X330867Y326093D01*
X330136Y325532D01*
X329575Y324801D01*
X329222Y323949D01*
X329102Y323036D01*
X329222Y322122D01*
X329575Y321270D01*
X330136Y320539D01*
X330867Y319978D01*
X331719Y319626D01*
X332632Y319505D01*
X333546Y319626D01*
X334397Y319978D01*
X335128Y320539D01*
X335689Y321270D01*
X336042Y322122D01*
X336162Y323036D01*
X336042Y323949D01*
X335689Y324801D01*
X335128Y325532D01*
X334397Y326093D01*
X333546Y326446D01*
X332632Y326566D01*
D02*
G37*
G36*
X251969Y326365D02*
X251055Y326245D01*
X250203Y325892D01*
X249472Y325331D01*
X248911Y324600D01*
X248559Y323748D01*
X248438Y322835D01*
X248559Y321921D01*
X248911Y321070D01*
X249472Y320338D01*
X250203Y319777D01*
X251055Y319425D01*
X251969Y319304D01*
X252882Y319425D01*
X253734Y319777D01*
X254465Y320338D01*
X255026Y321070D01*
X255378Y321921D01*
X255499Y322835D01*
X255378Y323748D01*
X255026Y324600D01*
X254465Y325331D01*
X253734Y325892D01*
X252882Y326245D01*
X251969Y326365D01*
D02*
G37*
G36*
X410428Y326282D02*
X409514Y326162D01*
X408662Y325809D01*
X407931Y325248D01*
X407370Y324517D01*
X407018Y323665D01*
X406897Y322752D01*
X407018Y321838D01*
X407370Y320987D01*
X407931Y320255D01*
X408662Y319694D01*
X409514Y319342D01*
X410428Y319221D01*
X411341Y319342D01*
X412193Y319694D01*
X412924Y320255D01*
X413485Y320987D01*
X413837Y321838D01*
X413958Y322752D01*
X413837Y323665D01*
X413485Y324517D01*
X412924Y325248D01*
X412193Y325809D01*
X411341Y326162D01*
X410428Y326282D01*
D02*
G37*
G36*
X531496Y302743D02*
X530582Y302623D01*
X529731Y302270D01*
X529000Y301709D01*
X528439Y300978D01*
X528086Y300126D01*
X527966Y299213D01*
X528086Y298299D01*
X528439Y297447D01*
X529000Y296716D01*
X529731Y296155D01*
X530582Y295803D01*
X531496Y295682D01*
X532410Y295803D01*
X533261Y296155D01*
X533992Y296716D01*
X534553Y297447D01*
X534906Y298299D01*
X535026Y299213D01*
X534906Y300126D01*
X534553Y300978D01*
X533992Y301709D01*
X533261Y302270D01*
X532410Y302623D01*
X531496Y302743D01*
D02*
G37*
G36*
X137795D02*
X136882Y302623D01*
X136030Y302270D01*
X135299Y301709D01*
X134738Y300978D01*
X134385Y300126D01*
X134265Y299213D01*
X134385Y298299D01*
X134738Y297447D01*
X135299Y296716D01*
X136030Y296155D01*
X136882Y295803D01*
X137795Y295682D01*
X138709Y295803D01*
X139560Y296155D01*
X140292Y296716D01*
X140852Y297447D01*
X141205Y298299D01*
X141325Y299213D01*
X141205Y300126D01*
X140852Y300978D01*
X140292Y301709D01*
X139560Y302270D01*
X138709Y302623D01*
X137795Y302743D01*
D02*
G37*
G36*
X532060Y291583D02*
Y288619D01*
X535024D01*
X534970Y289032D01*
X534617Y289884D01*
X534056Y290615D01*
X533325Y291176D01*
X532474Y291529D01*
X532060Y291583D01*
D02*
G37*
G36*
X531060D02*
X530646Y291529D01*
X529795Y291176D01*
X529064Y290615D01*
X528503Y289884D01*
X528150Y289032D01*
X528095Y288619D01*
X531060D01*
Y291583D01*
D02*
G37*
G36*
X138295Y290866D02*
Y287902D01*
X141260D01*
X141205Y288315D01*
X140852Y289167D01*
X140292Y289898D01*
X139560Y290459D01*
X138709Y290811D01*
X138295Y290866D01*
D02*
G37*
G36*
X137295D02*
X136882Y290811D01*
X136030Y290459D01*
X135299Y289898D01*
X134738Y289167D01*
X134385Y288315D01*
X134331Y287902D01*
X137295D01*
Y290866D01*
D02*
G37*
G36*
X535024Y287619D02*
X532060D01*
Y284654D01*
X532474Y284709D01*
X533325Y285061D01*
X534056Y285622D01*
X534617Y286353D01*
X534970Y287205D01*
X535024Y287619D01*
D02*
G37*
G36*
X531060D02*
X528095D01*
X528150Y287205D01*
X528503Y286353D01*
X529064Y285622D01*
X529795Y285061D01*
X530646Y284709D01*
X531060Y284654D01*
Y287619D01*
D02*
G37*
G36*
X141260Y286902D02*
X138295D01*
Y283937D01*
X138709Y283992D01*
X139560Y284344D01*
X140292Y284905D01*
X140852Y285636D01*
X141205Y286488D01*
X141260Y286902D01*
D02*
G37*
G36*
X137295D02*
X134331D01*
X134385Y286488D01*
X134738Y285636D01*
X135299Y284905D01*
X136030Y284344D01*
X136882Y283992D01*
X137295Y283937D01*
Y286902D01*
D02*
G37*
G36*
X370079Y290932D02*
X369165Y290811D01*
X368314Y290459D01*
X367583Y289898D01*
X367021Y289167D01*
X366669Y288315D01*
X366548Y287402D01*
X366669Y286488D01*
X367021Y285636D01*
X367583Y284905D01*
X368314Y284344D01*
X369165Y283992D01*
X370079Y283871D01*
X370992Y283992D01*
X371844Y284344D01*
X372575Y284905D01*
X373136Y285636D01*
X373489Y286488D01*
X373609Y287402D01*
X373489Y288315D01*
X373136Y289167D01*
X372575Y289898D01*
X371844Y290459D01*
X370992Y290811D01*
X370079Y290932D01*
D02*
G37*
G36*
X448819Y286995D02*
X447905Y286875D01*
X447054Y286522D01*
X446323Y285961D01*
X445762Y285230D01*
X445409Y284378D01*
X445289Y283465D01*
X445409Y282551D01*
X445762Y281699D01*
X446323Y280968D01*
X447054Y280407D01*
X447905Y280055D01*
X448819Y279934D01*
X449733Y280055D01*
X450584Y280407D01*
X451315Y280968D01*
X451876Y281699D01*
X452229Y282551D01*
X452349Y283465D01*
X452229Y284378D01*
X451876Y285230D01*
X451315Y285961D01*
X450584Y286522D01*
X449733Y286875D01*
X448819Y286995D01*
D02*
G37*
G36*
X393701D02*
X392787Y286875D01*
X391936Y286522D01*
X391205Y285961D01*
X390644Y285230D01*
X390291Y284378D01*
X390171Y283465D01*
X390291Y282551D01*
X390644Y281699D01*
X391205Y280968D01*
X391936Y280407D01*
X392787Y280055D01*
X393701Y279934D01*
X394615Y280055D01*
X395466Y280407D01*
X396197Y280968D01*
X396758Y281699D01*
X397111Y282551D01*
X397231Y283465D01*
X397111Y284378D01*
X396758Y285230D01*
X396197Y285961D01*
X395466Y286522D01*
X394615Y286875D01*
X393701Y286995D01*
D02*
G37*
G36*
X232283D02*
X231370Y286875D01*
X230518Y286522D01*
X229787Y285961D01*
X229226Y285230D01*
X228873Y284378D01*
X228753Y283465D01*
X228873Y282551D01*
X229226Y281699D01*
X229787Y280968D01*
X230518Y280407D01*
X231370Y280055D01*
X232283Y279934D01*
X233197Y280055D01*
X234049Y280407D01*
X234780Y280968D01*
X235341Y281699D01*
X235693Y282551D01*
X235814Y283465D01*
X235693Y284378D01*
X235341Y285230D01*
X234780Y285961D01*
X234049Y286522D01*
X233197Y286875D01*
X232283Y286995D01*
D02*
G37*
G36*
X192913D02*
X192000Y286875D01*
X191148Y286522D01*
X190417Y285961D01*
X189856Y285230D01*
X189504Y284378D01*
X189383Y283465D01*
X189504Y282551D01*
X189856Y281699D01*
X190417Y280968D01*
X191148Y280407D01*
X192000Y280055D01*
X192913Y279934D01*
X193827Y280055D01*
X194678Y280407D01*
X195410Y280968D01*
X195971Y281699D01*
X196323Y282551D01*
X196444Y283465D01*
X196323Y284378D01*
X195971Y285230D01*
X195410Y285961D01*
X194678Y286522D01*
X193827Y286875D01*
X192913Y286995D01*
D02*
G37*
G36*
X421500Y286707D02*
X420586Y286587D01*
X419735Y286234D01*
X419003Y285673D01*
X418442Y284942D01*
X418090Y284091D01*
X417970Y283177D01*
X418090Y282264D01*
X418442Y281412D01*
X419003Y280681D01*
X419735Y280120D01*
X420586Y279767D01*
X421500Y279647D01*
X422413Y279767D01*
X423265Y280120D01*
X423996Y280681D01*
X424557Y281412D01*
X424910Y282264D01*
X425030Y283177D01*
X424910Y284091D01*
X424557Y284942D01*
X423996Y285673D01*
X423265Y286234D01*
X422413Y286587D01*
X421500Y286707D01*
D02*
G37*
G36*
X475239Y284784D02*
X474326Y284664D01*
X473474Y284311D01*
X472743Y283750D01*
X472182Y283019D01*
X471830Y282168D01*
X471709Y281254D01*
X471830Y280341D01*
X472182Y279489D01*
X472743Y278758D01*
X473474Y278197D01*
X474326Y277844D01*
X475239Y277724D01*
X476153Y277844D01*
X477004Y278197D01*
X477736Y278758D01*
X478297Y279489D01*
X478649Y280341D01*
X478770Y281254D01*
X478649Y282168D01*
X478297Y283019D01*
X477736Y283750D01*
X477004Y284311D01*
X476153Y284664D01*
X475239Y284784D01*
D02*
G37*
G36*
X200012Y283651D02*
X199098Y283531D01*
X198247Y283178D01*
X197516Y282617D01*
X196955Y281886D01*
X196602Y281035D01*
X196482Y280121D01*
X196602Y279208D01*
X196955Y278356D01*
X197516Y277625D01*
X198247Y277064D01*
X199098Y276711D01*
X200012Y276591D01*
X200925Y276711D01*
X201777Y277064D01*
X202508Y277625D01*
X203069Y278356D01*
X203422Y279208D01*
X203542Y280121D01*
X203422Y281035D01*
X203069Y281886D01*
X202508Y282617D01*
X201777Y283178D01*
X200925Y283531D01*
X200012Y283651D01*
D02*
G37*
G36*
X275590Y283074D02*
X274677Y282954D01*
X273826Y282601D01*
X273094Y282040D01*
X272533Y281309D01*
X272181Y280457D01*
X272060Y279544D01*
X272181Y278630D01*
X272533Y277779D01*
X273094Y277047D01*
X273826Y276486D01*
X274677Y276134D01*
X275590Y276013D01*
X276504Y276134D01*
X277356Y276486D01*
X278087Y277047D01*
X278648Y277779D01*
X279000Y278630D01*
X279121Y279544D01*
X279000Y280457D01*
X278648Y281309D01*
X278087Y282040D01*
X277356Y282601D01*
X276504Y282954D01*
X275590Y283074D01*
D02*
G37*
G36*
X409449Y283058D02*
X408535Y282938D01*
X407684Y282585D01*
X406953Y282024D01*
X406392Y281293D01*
X406039Y280441D01*
X405919Y279528D01*
X406039Y278614D01*
X406392Y277763D01*
X406953Y277031D01*
X407684Y276470D01*
X408535Y276118D01*
X409449Y275997D01*
X410362Y276118D01*
X411214Y276470D01*
X411945Y277031D01*
X412506Y277763D01*
X412859Y278614D01*
X412979Y279528D01*
X412859Y280441D01*
X412506Y281293D01*
X411945Y282024D01*
X411214Y282585D01*
X410362Y282938D01*
X409449Y283058D01*
D02*
G37*
G36*
X291339D02*
X290425Y282938D01*
X289574Y282585D01*
X288842Y282024D01*
X288281Y281293D01*
X287929Y280441D01*
X287808Y279528D01*
X287929Y278614D01*
X288281Y277763D01*
X288842Y277031D01*
X289574Y276470D01*
X290425Y276118D01*
X291339Y275997D01*
X292252Y276118D01*
X293104Y276470D01*
X293835Y277031D01*
X294396Y277763D01*
X294748Y278614D01*
X294869Y279528D01*
X294748Y280441D01*
X294396Y281293D01*
X293835Y282024D01*
X293104Y282585D01*
X292252Y282938D01*
X291339Y283058D01*
D02*
G37*
G36*
X531496Y267310D02*
X530582Y267189D01*
X529731Y266837D01*
X529000Y266276D01*
X528439Y265545D01*
X528086Y264693D01*
X527966Y263779D01*
X528086Y262866D01*
X528439Y262014D01*
X529000Y261283D01*
X529731Y260722D01*
X530582Y260370D01*
X531496Y260249D01*
X532410Y260370D01*
X533261Y260722D01*
X533992Y261283D01*
X534553Y262014D01*
X534906Y262866D01*
X535026Y263779D01*
X534906Y264693D01*
X534553Y265545D01*
X533992Y266276D01*
X533261Y266837D01*
X532410Y267189D01*
X531496Y267310D01*
D02*
G37*
G36*
X293065Y257885D02*
Y254920D01*
X296029D01*
X295975Y255334D01*
X295622Y256185D01*
X295061Y256916D01*
X294330Y257477D01*
X293479Y257830D01*
X293065Y257885D01*
D02*
G37*
G36*
X292065D02*
X291651Y257830D01*
X290800Y257477D01*
X290069Y256916D01*
X289508Y256185D01*
X289155Y255334D01*
X289101Y254920D01*
X292065D01*
Y257885D01*
D02*
G37*
G36*
X296029Y253920D02*
X293065D01*
Y250956D01*
X293479Y251010D01*
X294330Y251363D01*
X295061Y251924D01*
X295622Y252655D01*
X295975Y253506D01*
X296029Y253920D01*
D02*
G37*
G36*
X292065D02*
X289101D01*
X289155Y253506D01*
X289508Y252655D01*
X290069Y251924D01*
X290800Y251363D01*
X291651Y251010D01*
X292065Y250956D01*
Y253920D01*
D02*
G37*
G36*
X448819Y255499D02*
X447905Y255378D01*
X447054Y255026D01*
X446323Y254465D01*
X445762Y253734D01*
X445409Y252882D01*
X445289Y251969D01*
X445409Y251055D01*
X445762Y250203D01*
X446323Y249472D01*
X447054Y248911D01*
X447905Y248559D01*
X448819Y248438D01*
X449733Y248559D01*
X450584Y248911D01*
X451315Y249472D01*
X451876Y250203D01*
X452229Y251055D01*
X452349Y251969D01*
X452229Y252882D01*
X451876Y253734D01*
X451315Y254465D01*
X450584Y255026D01*
X449733Y255378D01*
X448819Y255499D01*
D02*
G37*
G36*
X369106Y251670D02*
X368193Y251550D01*
X367341Y251198D01*
X366610Y250637D01*
X366049Y249905D01*
X365697Y249054D01*
X365576Y248140D01*
X365697Y247227D01*
X366049Y246375D01*
X366610Y245644D01*
X367341Y245083D01*
X368193Y244730D01*
X369106Y244610D01*
X370020Y244730D01*
X370871Y245083D01*
X371603Y245644D01*
X372164Y246375D01*
X372516Y247227D01*
X372637Y248140D01*
X372516Y249054D01*
X372164Y249905D01*
X371603Y250637D01*
X370871Y251198D01*
X370020Y251550D01*
X369106Y251670D01*
D02*
G37*
G36*
X346957Y243622D02*
Y240657D01*
X349921D01*
X349867Y241071D01*
X349514Y241923D01*
X348953Y242654D01*
X348222Y243215D01*
X347370Y243567D01*
X346957Y243622D01*
D02*
G37*
G36*
X345957D02*
X345543Y243567D01*
X344692Y243215D01*
X343960Y242654D01*
X343399Y241923D01*
X343047Y241071D01*
X342992Y240657D01*
X345957D01*
Y243622D01*
D02*
G37*
G36*
X349921Y239657D02*
X346957D01*
Y236693D01*
X347370Y236748D01*
X348222Y237100D01*
X348953Y237661D01*
X349514Y238392D01*
X349867Y239244D01*
X349921Y239657D01*
D02*
G37*
G36*
X345957D02*
X342992D01*
X343047Y239244D01*
X343399Y238392D01*
X343960Y237661D01*
X344692Y237100D01*
X345543Y236748D01*
X345957Y236693D01*
Y239657D01*
D02*
G37*
G36*
X311024Y243688D02*
X310110Y243567D01*
X309259Y243215D01*
X308527Y242654D01*
X307966Y241923D01*
X307614Y241071D01*
X307493Y240158D01*
X307614Y239244D01*
X307966Y238392D01*
X308527Y237661D01*
X309259Y237100D01*
X310110Y236748D01*
X311024Y236627D01*
X311937Y236748D01*
X312789Y237100D01*
X313520Y237661D01*
X314081Y238392D01*
X314434Y239244D01*
X314554Y240158D01*
X314434Y241071D01*
X314081Y241923D01*
X313520Y242654D01*
X312789Y243215D01*
X311937Y243567D01*
X311024Y243688D01*
D02*
G37*
G36*
X291339D02*
X290425Y243567D01*
X289574Y243215D01*
X288842Y242654D01*
X288281Y241923D01*
X287929Y241071D01*
X287808Y240158D01*
X287929Y239244D01*
X288281Y238392D01*
X288842Y237661D01*
X289574Y237100D01*
X290425Y236748D01*
X291339Y236627D01*
X292252Y236748D01*
X293104Y237100D01*
X293835Y237661D01*
X294396Y238392D01*
X294748Y239244D01*
X294869Y240158D01*
X294748Y241071D01*
X294396Y241923D01*
X293835Y242654D01*
X293104Y243215D01*
X292252Y243567D01*
X291339Y243688D01*
D02*
G37*
G36*
X208661D02*
X207748Y243567D01*
X206896Y243215D01*
X206165Y242654D01*
X205604Y241923D01*
X205252Y241071D01*
X205131Y240158D01*
X205252Y239244D01*
X205604Y238392D01*
X206165Y237661D01*
X206896Y237100D01*
X207748Y236748D01*
X208661Y236627D01*
X209575Y236748D01*
X210426Y237100D01*
X211158Y237661D01*
X211719Y238392D01*
X212071Y239244D01*
X212192Y240158D01*
X212071Y241071D01*
X211719Y241923D01*
X211158Y242654D01*
X210426Y243215D01*
X209575Y243567D01*
X208661Y243688D01*
D02*
G37*
G36*
X182189Y243388D02*
X181275Y243268D01*
X180424Y242915D01*
X179693Y242354D01*
X179132Y241623D01*
X178779Y240772D01*
X178659Y239858D01*
X178779Y238944D01*
X179132Y238093D01*
X179693Y237362D01*
X180424Y236801D01*
X181275Y236448D01*
X182189Y236328D01*
X183103Y236448D01*
X183954Y236801D01*
X184685Y237362D01*
X185247Y238093D01*
X185599Y238944D01*
X185719Y239858D01*
X185599Y240772D01*
X185247Y241623D01*
X184685Y242354D01*
X183954Y242915D01*
X183103Y243268D01*
X182189Y243388D01*
D02*
G37*
G36*
X484991Y241133D02*
X484078Y241013D01*
X483226Y240660D01*
X482495Y240099D01*
X481934Y239368D01*
X481581Y238516D01*
X481461Y237603D01*
X481581Y236689D01*
X481934Y235838D01*
X482495Y235106D01*
X483226Y234545D01*
X484078Y234193D01*
X484991Y234072D01*
X485905Y234193D01*
X486756Y234545D01*
X487487Y235106D01*
X488048Y235838D01*
X488401Y236689D01*
X488521Y237603D01*
X488401Y238516D01*
X488048Y239368D01*
X487487Y240099D01*
X486756Y240660D01*
X485905Y241013D01*
X484991Y241133D01*
D02*
G37*
G36*
X429134Y239751D02*
X428220Y239630D01*
X427369Y239278D01*
X426638Y238717D01*
X426077Y237986D01*
X425724Y237134D01*
X425604Y236221D01*
X425724Y235307D01*
X426077Y234455D01*
X426638Y233724D01*
X427369Y233163D01*
X428220Y232811D01*
X429134Y232690D01*
X430048Y232811D01*
X430899Y233163D01*
X431630Y233724D01*
X432191Y234455D01*
X432544Y235307D01*
X432664Y236221D01*
X432544Y237134D01*
X432191Y237986D01*
X431630Y238717D01*
X430899Y239278D01*
X430048Y239630D01*
X429134Y239751D01*
D02*
G37*
G36*
X138229Y231106D02*
Y228142D01*
X141193D01*
X141139Y228556D01*
X140786Y229407D01*
X140225Y230138D01*
X139494Y230699D01*
X138642Y231052D01*
X138229Y231106D01*
D02*
G37*
G36*
X137229D02*
X136815Y231052D01*
X135964Y230699D01*
X135232Y230138D01*
X134671Y229407D01*
X134319Y228556D01*
X134264Y228142D01*
X137229D01*
Y231106D01*
D02*
G37*
G36*
X141193Y227142D02*
X138229D01*
Y224178D01*
X138642Y224232D01*
X139494Y224585D01*
X140225Y225146D01*
X140786Y225877D01*
X141139Y226728D01*
X141193Y227142D01*
D02*
G37*
G36*
X137229D02*
X134264D01*
X134319Y226728D01*
X134671Y225877D01*
X135232Y225146D01*
X135964Y224585D01*
X136815Y224232D01*
X137229Y224178D01*
Y227142D01*
D02*
G37*
G36*
X531996Y223937D02*
Y220972D01*
X534960D01*
X534906Y221386D01*
X534553Y222237D01*
X533992Y222969D01*
X533261Y223530D01*
X532410Y223882D01*
X531996Y223937D01*
D02*
G37*
G36*
X530996D02*
X530582Y223882D01*
X529731Y223530D01*
X529000Y222969D01*
X528439Y222237D01*
X528086Y221386D01*
X528032Y220972D01*
X530996D01*
Y223937D01*
D02*
G37*
G36*
X534960Y219972D02*
X531996D01*
Y217008D01*
X532410Y217062D01*
X533261Y217415D01*
X533992Y217976D01*
X534553Y218707D01*
X534906Y219559D01*
X534960Y219972D01*
D02*
G37*
G36*
X530996D02*
X528032D01*
X528086Y219559D01*
X528439Y218707D01*
X529000Y217976D01*
X529731Y217415D01*
X530582Y217062D01*
X530996Y217008D01*
Y219972D01*
D02*
G37*
G36*
X137795Y220066D02*
X136882Y219945D01*
X136030Y219593D01*
X135299Y219032D01*
X134738Y218301D01*
X134385Y217449D01*
X134265Y216535D01*
X134385Y215622D01*
X134738Y214770D01*
X135299Y214039D01*
X136030Y213478D01*
X136882Y213125D01*
X137795Y213005D01*
X138709Y213125D01*
X139560Y213478D01*
X140292Y214039D01*
X140852Y214770D01*
X141205Y215622D01*
X141325Y216535D01*
X141205Y217449D01*
X140852Y218301D01*
X140292Y219032D01*
X139560Y219593D01*
X138709Y219945D01*
X137795Y220066D01*
D02*
G37*
G36*
X409449Y200381D02*
X408535Y200260D01*
X407684Y199908D01*
X406953Y199347D01*
X406392Y198616D01*
X406039Y197764D01*
X405919Y196850D01*
X406039Y195937D01*
X406392Y195085D01*
X406953Y194354D01*
X407684Y193793D01*
X408535Y193440D01*
X409449Y193320D01*
X410362Y193440D01*
X411214Y193793D01*
X411945Y194354D01*
X412506Y195085D01*
X412859Y195937D01*
X412979Y196850D01*
X412859Y197764D01*
X412506Y198616D01*
X411945Y199347D01*
X411214Y199908D01*
X410362Y200260D01*
X409449Y200381D01*
D02*
G37*
G36*
X385827D02*
X384913Y200260D01*
X384062Y199908D01*
X383330Y199347D01*
X382769Y198616D01*
X382417Y197764D01*
X382297Y196850D01*
X382417Y195937D01*
X382769Y195085D01*
X383330Y194354D01*
X384062Y193793D01*
X384913Y193440D01*
X385827Y193320D01*
X386740Y193440D01*
X387592Y193793D01*
X388323Y194354D01*
X388884Y195085D01*
X389237Y195937D01*
X389357Y196850D01*
X389237Y197764D01*
X388884Y198616D01*
X388323Y199347D01*
X387592Y199908D01*
X386740Y200260D01*
X385827Y200381D01*
D02*
G37*
G36*
X354331D02*
X353417Y200260D01*
X352566Y199908D01*
X351835Y199347D01*
X351273Y198616D01*
X350921Y197764D01*
X350800Y196850D01*
X350921Y195937D01*
X351273Y195085D01*
X351835Y194354D01*
X352566Y193793D01*
X353417Y193440D01*
X354331Y193320D01*
X355244Y193440D01*
X356096Y193793D01*
X356827Y194354D01*
X357388Y195085D01*
X357741Y195937D01*
X357861Y196850D01*
X357741Y197764D01*
X357388Y198616D01*
X356827Y199347D01*
X356096Y199908D01*
X355244Y200260D01*
X354331Y200381D01*
D02*
G37*
G36*
X275590D02*
X274677Y200260D01*
X273826Y199908D01*
X273094Y199347D01*
X272533Y198616D01*
X272181Y197764D01*
X272060Y196850D01*
X272181Y195937D01*
X272533Y195085D01*
X273094Y194354D01*
X273826Y193793D01*
X274677Y193440D01*
X275590Y193320D01*
X276504Y193440D01*
X277356Y193793D01*
X278087Y194354D01*
X278648Y195085D01*
X279000Y195937D01*
X279121Y196850D01*
X279000Y197764D01*
X278648Y198616D01*
X278087Y199347D01*
X277356Y199908D01*
X276504Y200260D01*
X275590Y200381D01*
D02*
G37*
G36*
X232283D02*
X231370Y200260D01*
X230518Y199908D01*
X229787Y199347D01*
X229226Y198616D01*
X228873Y197764D01*
X228753Y196850D01*
X228873Y195937D01*
X229226Y195085D01*
X229787Y194354D01*
X230518Y193793D01*
X231370Y193440D01*
X232283Y193320D01*
X233197Y193440D01*
X234049Y193793D01*
X234780Y194354D01*
X235341Y195085D01*
X235693Y195937D01*
X235814Y196850D01*
X235693Y197764D01*
X235341Y198616D01*
X234780Y199347D01*
X234049Y199908D01*
X233197Y200260D01*
X232283Y200381D01*
D02*
G37*
G36*
X286412Y200278D02*
X285499Y200158D01*
X284647Y199805D01*
X283916Y199244D01*
X283355Y198513D01*
X283002Y197661D01*
X282882Y196748D01*
X283002Y195834D01*
X283355Y194983D01*
X283916Y194252D01*
X284647Y193691D01*
X285499Y193338D01*
X286412Y193218D01*
X287326Y193338D01*
X288177Y193691D01*
X288909Y194252D01*
X289470Y194983D01*
X289822Y195834D01*
X289943Y196748D01*
X289822Y197661D01*
X289470Y198513D01*
X288909Y199244D01*
X288177Y199805D01*
X287326Y200158D01*
X286412Y200278D01*
D02*
G37*
G36*
X313400Y199670D02*
X312486Y199549D01*
X311635Y199197D01*
X310904Y198636D01*
X310342Y197905D01*
X309990Y197053D01*
X309870Y196139D01*
X309990Y195226D01*
X310342Y194374D01*
X310904Y193643D01*
X311635Y193082D01*
X312486Y192729D01*
X313400Y192609D01*
X314313Y192729D01*
X315165Y193082D01*
X315896Y193643D01*
X316457Y194374D01*
X316810Y195226D01*
X316930Y196139D01*
X316810Y197053D01*
X316457Y197905D01*
X315896Y198636D01*
X315165Y199197D01*
X314313Y199549D01*
X313400Y199670D01*
D02*
G37*
G36*
X531496Y196444D02*
X530582Y196323D01*
X529731Y195971D01*
X529000Y195410D01*
X528439Y194678D01*
X528086Y193827D01*
X527966Y192913D01*
X528086Y192000D01*
X528439Y191148D01*
X529000Y190417D01*
X529731Y189856D01*
X530582Y189504D01*
X531496Y189383D01*
X532410Y189504D01*
X533261Y189856D01*
X533992Y190417D01*
X534553Y191148D01*
X534906Y192000D01*
X535026Y192913D01*
X534906Y193827D01*
X534553Y194678D01*
X533992Y195410D01*
X533261Y195971D01*
X532410Y196323D01*
X531496Y196444D01*
D02*
G37*
G36*
X137795D02*
X136882Y196323D01*
X136030Y195971D01*
X135299Y195410D01*
X134738Y194678D01*
X134385Y193827D01*
X134265Y192913D01*
X134385Y192000D01*
X134738Y191148D01*
X135299Y190417D01*
X136030Y189856D01*
X136882Y189504D01*
X137795Y189383D01*
X138709Y189504D01*
X139560Y189856D01*
X140292Y190417D01*
X140852Y191148D01*
X141205Y192000D01*
X141325Y192913D01*
X141205Y193827D01*
X140852Y194678D01*
X140292Y195410D01*
X139560Y195971D01*
X138709Y196323D01*
X137795Y196444D01*
D02*
G37*
G36*
X370079Y196381D02*
X369165Y196260D01*
X368314Y195908D01*
X367583Y195347D01*
X367021Y194615D01*
X366669Y193764D01*
X366548Y192850D01*
X366669Y191937D01*
X367021Y191085D01*
X367583Y190354D01*
X368314Y189793D01*
X369165Y189441D01*
X370079Y189320D01*
X370992Y189441D01*
X371844Y189793D01*
X372575Y190354D01*
X373136Y191085D01*
X373489Y191937D01*
X373609Y192850D01*
X373489Y193764D01*
X373136Y194615D01*
X372575Y195347D01*
X371844Y195908D01*
X370992Y196260D01*
X370079Y196381D01*
D02*
G37*
G36*
X266732D02*
X265819Y196260D01*
X264967Y195908D01*
X264236Y195347D01*
X263675Y194615D01*
X263322Y193764D01*
X263202Y192850D01*
X263322Y191937D01*
X263675Y191085D01*
X264236Y190354D01*
X264967Y189793D01*
X265819Y189441D01*
X266732Y189320D01*
X267646Y189441D01*
X268497Y189793D01*
X269229Y190354D01*
X269790Y191085D01*
X270142Y191937D01*
X270263Y192850D01*
X270142Y193764D01*
X269790Y194615D01*
X269229Y195347D01*
X268497Y195908D01*
X267646Y196260D01*
X266732Y196381D01*
D02*
G37*
G36*
X330875Y195609D02*
X329961Y195489D01*
X329110Y195136D01*
X328378Y194575D01*
X327817Y193844D01*
X327465Y192993D01*
X327344Y192079D01*
X327465Y191165D01*
X327817Y190314D01*
X328378Y189583D01*
X329110Y189022D01*
X329961Y188669D01*
X330875Y188549D01*
X331788Y188669D01*
X332640Y189022D01*
X333371Y189583D01*
X333932Y190314D01*
X334284Y191165D01*
X334405Y192079D01*
X334284Y192993D01*
X333932Y193844D01*
X333371Y194575D01*
X332640Y195136D01*
X331788Y195489D01*
X330875Y195609D01*
D02*
G37*
G36*
X295776Y180630D02*
Y177665D01*
X298740D01*
X298686Y178079D01*
X298333Y178930D01*
X297772Y179662D01*
X297041Y180223D01*
X296189Y180575D01*
X295776Y180630D01*
D02*
G37*
G36*
X294776D02*
X294362Y180575D01*
X293511Y180223D01*
X292779Y179662D01*
X292218Y178930D01*
X291866Y178079D01*
X291811Y177665D01*
X294776D01*
Y180630D01*
D02*
G37*
G36*
X298740Y176665D02*
X295776D01*
Y173701D01*
X296189Y173755D01*
X297041Y174108D01*
X297772Y174669D01*
X298333Y175400D01*
X298686Y176252D01*
X298740Y176665D01*
D02*
G37*
G36*
X294776D02*
X291811D01*
X291866Y176252D01*
X292218Y175400D01*
X292779Y174669D01*
X293511Y174108D01*
X294362Y173755D01*
X294776Y173701D01*
Y176665D01*
D02*
G37*
G36*
X448425Y184795D02*
X447014Y184656D01*
X445656Y184244D01*
X444405Y183575D01*
X443309Y182675D01*
X442409Y181579D01*
X441740Y180328D01*
X441329Y178971D01*
X441190Y177559D01*
X441329Y176147D01*
X441740Y174790D01*
X442409Y173539D01*
X443309Y172443D01*
X444405Y171543D01*
X445656Y170874D01*
X447014Y170463D01*
X448425Y170323D01*
X449837Y170463D01*
X451194Y170874D01*
X452445Y171543D01*
X453542Y172443D01*
X454441Y173539D01*
X455110Y174790D01*
X455522Y176147D01*
X455661Y177559D01*
X455522Y178971D01*
X455110Y180328D01*
X454441Y181579D01*
X453542Y182675D01*
X452445Y183575D01*
X451194Y184244D01*
X449837Y184656D01*
X448425Y184795D01*
D02*
G37*
G36*
X389370D02*
X387959Y184656D01*
X386601Y184244D01*
X385350Y183575D01*
X384254Y182675D01*
X383354Y181579D01*
X382685Y180328D01*
X382274Y178971D01*
X382135Y177559D01*
X382274Y176147D01*
X382685Y174790D01*
X383354Y173539D01*
X384254Y172443D01*
X385350Y171543D01*
X386601Y170874D01*
X387959Y170463D01*
X389370Y170323D01*
X390782Y170463D01*
X392139Y170874D01*
X393390Y171543D01*
X394486Y172443D01*
X395386Y173539D01*
X396055Y174790D01*
X396467Y176147D01*
X396606Y177559D01*
X396467Y178971D01*
X396055Y180328D01*
X395386Y181579D01*
X394486Y182675D01*
X393390Y183575D01*
X392139Y184244D01*
X390782Y184656D01*
X389370Y184795D01*
D02*
G37*
G36*
X330315D02*
X328903Y184656D01*
X327546Y184244D01*
X326295Y183575D01*
X325199Y182675D01*
X324299Y181579D01*
X323630Y180328D01*
X323218Y178971D01*
X323079Y177559D01*
X323218Y176147D01*
X323630Y174790D01*
X324299Y173539D01*
X325199Y172443D01*
X326295Y171543D01*
X327546Y170874D01*
X328903Y170463D01*
X330315Y170323D01*
X331727Y170463D01*
X333084Y170874D01*
X334335Y171543D01*
X335431Y172443D01*
X336331Y173539D01*
X337000Y174790D01*
X337411Y176147D01*
X337551Y177559D01*
X337411Y178971D01*
X337000Y180328D01*
X336331Y181579D01*
X335431Y182675D01*
X334335Y183575D01*
X333084Y184244D01*
X331727Y184656D01*
X330315Y184795D01*
D02*
G37*
G36*
X271260D02*
X269848Y184656D01*
X268491Y184244D01*
X267240Y183575D01*
X266143Y182675D01*
X265244Y181579D01*
X264575Y180328D01*
X264163Y178971D01*
X264024Y177559D01*
X264163Y176147D01*
X264575Y174790D01*
X265244Y173539D01*
X266143Y172443D01*
X267240Y171543D01*
X268491Y170874D01*
X269848Y170463D01*
X271260Y170323D01*
X272671Y170463D01*
X274029Y170874D01*
X275280Y171543D01*
X276376Y172443D01*
X277276Y173539D01*
X277945Y174790D01*
X278356Y176147D01*
X278496Y177559D01*
X278356Y178971D01*
X277945Y180328D01*
X277276Y181579D01*
X276376Y182675D01*
X275280Y183575D01*
X274029Y184244D01*
X272671Y184656D01*
X271260Y184795D01*
D02*
G37*
G36*
X212205D02*
X210793Y184656D01*
X209436Y184244D01*
X208185Y183575D01*
X207088Y182675D01*
X206189Y181579D01*
X205520Y180328D01*
X205108Y178971D01*
X204969Y177559D01*
X205108Y176147D01*
X205520Y174790D01*
X206189Y173539D01*
X207088Y172443D01*
X208185Y171543D01*
X209436Y170874D01*
X210793Y170463D01*
X212205Y170323D01*
X213616Y170463D01*
X214974Y170874D01*
X216225Y171543D01*
X217321Y172443D01*
X218221Y173539D01*
X218890Y174790D01*
X219301Y176147D01*
X219440Y177559D01*
X219301Y178971D01*
X218890Y180328D01*
X218221Y181579D01*
X217321Y182675D01*
X216225Y183575D01*
X214974Y184244D01*
X213616Y184656D01*
X212205Y184795D01*
D02*
G37*
G36*
X413886Y160945D02*
Y157980D01*
X416850D01*
X416796Y158394D01*
X416443Y159245D01*
X415882Y159976D01*
X415151Y160538D01*
X414299Y160890D01*
X413886Y160945D01*
D02*
G37*
G36*
X412886D02*
X412472Y160890D01*
X411621Y160538D01*
X410890Y159976D01*
X410329Y159245D01*
X409976Y158394D01*
X409922Y157980D01*
X412886D01*
Y160945D01*
D02*
G37*
G36*
X354831D02*
Y157980D01*
X357795D01*
X357741Y158394D01*
X357388Y159245D01*
X356827Y159976D01*
X356096Y160538D01*
X355244Y160890D01*
X354831Y160945D01*
D02*
G37*
G36*
X353831D02*
X353417Y160890D01*
X352566Y160538D01*
X351835Y159976D01*
X351273Y159245D01*
X350921Y158394D01*
X350866Y157980D01*
X353831D01*
Y160945D01*
D02*
G37*
G36*
X295776D02*
Y157980D01*
X298740D01*
X298686Y158394D01*
X298333Y159245D01*
X297772Y159976D01*
X297041Y160538D01*
X296189Y160890D01*
X295776Y160945D01*
D02*
G37*
G36*
X294776D02*
X294362Y160890D01*
X293511Y160538D01*
X292779Y159976D01*
X292218Y159245D01*
X291866Y158394D01*
X291811Y157980D01*
X294776D01*
Y160945D01*
D02*
G37*
G36*
X236720D02*
Y157980D01*
X239685D01*
X239630Y158394D01*
X239278Y159245D01*
X238717Y159976D01*
X237986Y160538D01*
X237134Y160890D01*
X236720Y160945D01*
D02*
G37*
G36*
X235720D02*
X235307Y160890D01*
X234455Y160538D01*
X233724Y159976D01*
X233163Y159245D01*
X232811Y158394D01*
X232756Y157980D01*
X235720D01*
Y160945D01*
D02*
G37*
G36*
X173728D02*
Y157980D01*
X176693D01*
X176638Y158394D01*
X176286Y159245D01*
X175725Y159976D01*
X174994Y160538D01*
X174142Y160890D01*
X173728Y160945D01*
D02*
G37*
G36*
X172728D02*
X172315Y160890D01*
X171463Y160538D01*
X170732Y159976D01*
X170171Y159245D01*
X169818Y158394D01*
X169764Y157980D01*
X172728D01*
Y160945D01*
D02*
G37*
G36*
X458874Y160449D02*
X452937D01*
Y154512D01*
X458874D01*
Y160449D01*
D02*
G37*
G36*
X451394D02*
X445457D01*
Y154512D01*
X451394D01*
Y160449D01*
D02*
G37*
G36*
X443913D02*
X437976D01*
Y154512D01*
X443913D01*
Y160449D01*
D02*
G37*
G36*
X399819D02*
X393882D01*
Y154512D01*
X399819D01*
Y160449D01*
D02*
G37*
G36*
X392339D02*
X386402D01*
Y154512D01*
X392339D01*
Y160449D01*
D02*
G37*
G36*
X384858D02*
X378921D01*
Y154512D01*
X384858D01*
Y160449D01*
D02*
G37*
G36*
X340764D02*
X334827D01*
Y154512D01*
X340764D01*
Y160449D01*
D02*
G37*
G36*
X333283D02*
X327346D01*
Y154512D01*
X333283D01*
Y160449D01*
D02*
G37*
G36*
X325803D02*
X319866D01*
Y154512D01*
X325803D01*
Y160449D01*
D02*
G37*
G36*
X281709D02*
X275772D01*
Y154512D01*
X281709D01*
Y160449D01*
D02*
G37*
G36*
X274228D02*
X268291D01*
Y154512D01*
X274228D01*
Y160449D01*
D02*
G37*
G36*
X266748D02*
X260811D01*
Y154512D01*
X266748D01*
Y160449D01*
D02*
G37*
G36*
X222654D02*
X216717D01*
Y154512D01*
X222654D01*
Y160449D01*
D02*
G37*
G36*
X215173D02*
X209236D01*
Y154512D01*
X215173D01*
Y160449D01*
D02*
G37*
G36*
X207693D02*
X201756D01*
Y154512D01*
X207693D01*
Y160449D01*
D02*
G37*
G36*
X416850Y156980D02*
X413886D01*
Y154016D01*
X414299Y154070D01*
X415151Y154423D01*
X415882Y154984D01*
X416443Y155715D01*
X416796Y156567D01*
X416850Y156980D01*
D02*
G37*
G36*
X412886D02*
X409922D01*
X409976Y156567D01*
X410329Y155715D01*
X410890Y154984D01*
X411621Y154423D01*
X412472Y154070D01*
X412886Y154016D01*
Y156980D01*
D02*
G37*
G36*
X357795D02*
X354831D01*
Y154016D01*
X355244Y154070D01*
X356096Y154423D01*
X356827Y154984D01*
X357388Y155715D01*
X357741Y156567D01*
X357795Y156980D01*
D02*
G37*
G36*
X353831D02*
X350866D01*
X350921Y156567D01*
X351273Y155715D01*
X351835Y154984D01*
X352566Y154423D01*
X353417Y154070D01*
X353831Y154016D01*
Y156980D01*
D02*
G37*
G36*
X298740D02*
X295776D01*
Y154016D01*
X296189Y154070D01*
X297041Y154423D01*
X297772Y154984D01*
X298333Y155715D01*
X298686Y156567D01*
X298740Y156980D01*
D02*
G37*
G36*
X294776D02*
X291811D01*
X291866Y156567D01*
X292218Y155715D01*
X292779Y154984D01*
X293511Y154423D01*
X294362Y154070D01*
X294776Y154016D01*
Y156980D01*
D02*
G37*
G36*
X239685D02*
X236720D01*
Y154016D01*
X237134Y154070D01*
X237986Y154423D01*
X238717Y154984D01*
X239278Y155715D01*
X239630Y156567D01*
X239685Y156980D01*
D02*
G37*
G36*
X235720D02*
X232756D01*
X232811Y156567D01*
X233163Y155715D01*
X233724Y154984D01*
X234455Y154423D01*
X235307Y154070D01*
X235720Y154016D01*
Y156980D01*
D02*
G37*
G36*
X176693D02*
X173728D01*
Y154016D01*
X174142Y154070D01*
X174994Y154423D01*
X175725Y154984D01*
X176286Y155715D01*
X176638Y156567D01*
X176693Y156980D01*
D02*
G37*
G36*
X172728D02*
X169764D01*
X169818Y156567D01*
X170171Y155715D01*
X170732Y154984D01*
X171463Y154423D01*
X172315Y154070D01*
X172728Y154016D01*
Y156980D01*
D02*
G37*
G36*
X458661Y152460D02*
X457373Y152290D01*
X456172Y151793D01*
X455140Y151001D01*
X454349Y149970D01*
X453852Y148769D01*
X453682Y147480D01*
X453852Y146192D01*
X454349Y144991D01*
X455140Y143959D01*
X456172Y143168D01*
X457373Y142670D01*
X458661Y142501D01*
X459950Y142670D01*
X461151Y143168D01*
X462183Y143959D01*
X462974Y144991D01*
X463471Y146192D01*
X463641Y147480D01*
X463471Y148769D01*
X462974Y149970D01*
X462183Y151001D01*
X461151Y151793D01*
X459950Y152290D01*
X458661Y152460D01*
D02*
G37*
G36*
X399606D02*
X398318Y152290D01*
X397116Y151793D01*
X396085Y151001D01*
X395294Y149970D01*
X394796Y148769D01*
X394627Y147480D01*
X394796Y146192D01*
X395294Y144991D01*
X396085Y143959D01*
X397116Y143168D01*
X398318Y142670D01*
X399606Y142501D01*
X400895Y142670D01*
X402096Y143168D01*
X403127Y143959D01*
X403919Y144991D01*
X404416Y146192D01*
X404586Y147480D01*
X404416Y148769D01*
X403919Y149970D01*
X403127Y151001D01*
X402096Y151793D01*
X400895Y152290D01*
X399606Y152460D01*
D02*
G37*
G36*
X340551D02*
X339262Y152290D01*
X338061Y151793D01*
X337030Y151001D01*
X336239Y149970D01*
X335741Y148769D01*
X335572Y147480D01*
X335741Y146192D01*
X336239Y144991D01*
X337030Y143959D01*
X338061Y143168D01*
X339262Y142670D01*
X340551Y142501D01*
X341840Y142670D01*
X343041Y143168D01*
X344072Y143959D01*
X344864Y144991D01*
X345361Y146192D01*
X345531Y147480D01*
X345361Y148769D01*
X344864Y149970D01*
X344072Y151001D01*
X343041Y151793D01*
X341840Y152290D01*
X340551Y152460D01*
D02*
G37*
G36*
X281496D02*
X280207Y152290D01*
X279006Y151793D01*
X277975Y151001D01*
X277184Y149970D01*
X276686Y148769D01*
X276517Y147480D01*
X276686Y146192D01*
X277184Y144991D01*
X277975Y143959D01*
X279006Y143168D01*
X280207Y142670D01*
X281496Y142501D01*
X282785Y142670D01*
X283986Y143168D01*
X285017Y143959D01*
X285808Y144991D01*
X286306Y146192D01*
X286476Y147480D01*
X286306Y148769D01*
X285808Y149970D01*
X285017Y151001D01*
X283986Y151793D01*
X282785Y152290D01*
X281496Y152460D01*
D02*
G37*
G36*
X222441D02*
X221152Y152290D01*
X219951Y151793D01*
X218920Y151001D01*
X218128Y149970D01*
X217631Y148769D01*
X217461Y147480D01*
X217631Y146192D01*
X218128Y144991D01*
X218920Y143959D01*
X219951Y143168D01*
X221152Y142670D01*
X222441Y142501D01*
X223730Y142670D01*
X224931Y143168D01*
X225962Y143959D01*
X226753Y144991D01*
X227251Y146192D01*
X227421Y147480D01*
X227251Y148769D01*
X226753Y149970D01*
X225962Y151001D01*
X224931Y151793D01*
X223730Y152290D01*
X222441Y152460D01*
D02*
G37*
G36*
X413386Y149199D02*
X412472Y149079D01*
X411621Y148726D01*
X410890Y148166D01*
X410329Y147434D01*
X409976Y146583D01*
X409856Y145669D01*
X409976Y144756D01*
X410329Y143904D01*
X410890Y143173D01*
X411621Y142612D01*
X412472Y142259D01*
X413386Y142139D01*
X414299Y142259D01*
X415151Y142612D01*
X415882Y143173D01*
X416443Y143904D01*
X416796Y144756D01*
X416916Y145669D01*
X416796Y146583D01*
X416443Y147434D01*
X415882Y148166D01*
X415151Y148726D01*
X414299Y149079D01*
X413386Y149199D01*
D02*
G37*
G36*
X354331D02*
X353417Y149079D01*
X352566Y148726D01*
X351835Y148166D01*
X351273Y147434D01*
X350921Y146583D01*
X350800Y145669D01*
X350921Y144756D01*
X351273Y143904D01*
X351835Y143173D01*
X352566Y142612D01*
X353417Y142259D01*
X354331Y142139D01*
X355244Y142259D01*
X356096Y142612D01*
X356827Y143173D01*
X357388Y143904D01*
X357741Y144756D01*
X357861Y145669D01*
X357741Y146583D01*
X357388Y147434D01*
X356827Y148166D01*
X356096Y148726D01*
X355244Y149079D01*
X354331Y149199D01*
D02*
G37*
G36*
X295276D02*
X294362Y149079D01*
X293511Y148726D01*
X292779Y148166D01*
X292218Y147434D01*
X291866Y146583D01*
X291745Y145669D01*
X291866Y144756D01*
X292218Y143904D01*
X292779Y143173D01*
X293511Y142612D01*
X294362Y142259D01*
X295276Y142139D01*
X296189Y142259D01*
X297041Y142612D01*
X297772Y143173D01*
X298333Y143904D01*
X298686Y144756D01*
X298806Y145669D01*
X298686Y146583D01*
X298333Y147434D01*
X297772Y148166D01*
X297041Y148726D01*
X296189Y149079D01*
X295276Y149199D01*
D02*
G37*
G36*
X236221D02*
X235307Y149079D01*
X234455Y148726D01*
X233724Y148166D01*
X233163Y147434D01*
X232811Y146583D01*
X232690Y145669D01*
X232811Y144756D01*
X233163Y143904D01*
X233724Y143173D01*
X234455Y142612D01*
X235307Y142259D01*
X236221Y142139D01*
X237134Y142259D01*
X237986Y142612D01*
X238717Y143173D01*
X239278Y143904D01*
X239630Y144756D01*
X239751Y145669D01*
X239630Y146583D01*
X239278Y147434D01*
X238717Y148166D01*
X237986Y148726D01*
X237134Y149079D01*
X236221Y149199D01*
D02*
G37*
G36*
X173228D02*
X172315Y149079D01*
X171463Y148726D01*
X170732Y148166D01*
X170171Y147434D01*
X169818Y146583D01*
X169698Y145669D01*
X169818Y144756D01*
X170171Y143904D01*
X170732Y143173D01*
X171463Y142612D01*
X172315Y142259D01*
X173228Y142139D01*
X174142Y142259D01*
X174994Y142612D01*
X175725Y143173D01*
X176286Y143904D01*
X176638Y144756D01*
X176759Y145669D01*
X176638Y146583D01*
X176286Y147434D01*
X175725Y148166D01*
X174994Y148726D01*
X174142Y149079D01*
X173228Y149199D01*
D02*
G37*
G36*
X438661Y151928D02*
X437373Y151759D01*
X436172Y151261D01*
X435140Y150470D01*
X434349Y149439D01*
X433851Y148238D01*
X433682Y146949D01*
X433851Y145660D01*
X434349Y144459D01*
X435140Y143428D01*
X436172Y142636D01*
X437373Y142139D01*
X438661Y141969D01*
X439950Y142139D01*
X441151Y142636D01*
X442182Y143428D01*
X442974Y144459D01*
X443471Y145660D01*
X443641Y146949D01*
X443471Y148238D01*
X442974Y149439D01*
X442182Y150470D01*
X441151Y151261D01*
X439950Y151759D01*
X438661Y151928D01*
D02*
G37*
G36*
X379606D02*
X378317Y151759D01*
X377116Y151261D01*
X376085Y150470D01*
X375294Y149439D01*
X374796Y148238D01*
X374627Y146949D01*
X374796Y145660D01*
X375294Y144459D01*
X376085Y143428D01*
X377116Y142636D01*
X378317Y142139D01*
X379606Y141969D01*
X380895Y142139D01*
X382096Y142636D01*
X383127Y143428D01*
X383919Y144459D01*
X384416Y145660D01*
X384586Y146949D01*
X384416Y148238D01*
X383919Y149439D01*
X383127Y150470D01*
X382096Y151261D01*
X380895Y151759D01*
X379606Y151928D01*
D02*
G37*
G36*
X320551D02*
X319262Y151759D01*
X318061Y151261D01*
X317030Y150470D01*
X316239Y149439D01*
X315741Y148238D01*
X315572Y146949D01*
X315741Y145660D01*
X316239Y144459D01*
X317030Y143428D01*
X318061Y142636D01*
X319262Y142139D01*
X320551Y141969D01*
X321840Y142139D01*
X323041Y142636D01*
X324072Y143428D01*
X324864Y144459D01*
X325361Y145660D01*
X325531Y146949D01*
X325361Y148238D01*
X324864Y149439D01*
X324072Y150470D01*
X323041Y151261D01*
X321840Y151759D01*
X320551Y151928D01*
D02*
G37*
G36*
X261496D02*
X260207Y151759D01*
X259006Y151261D01*
X257975Y150470D01*
X257184Y149439D01*
X256686Y148238D01*
X256517Y146949D01*
X256686Y145660D01*
X257184Y144459D01*
X257975Y143428D01*
X259006Y142636D01*
X260207Y142139D01*
X261496Y141969D01*
X262785Y142139D01*
X263986Y142636D01*
X265017Y143428D01*
X265809Y144459D01*
X266306Y145660D01*
X266476Y146949D01*
X266306Y148238D01*
X265809Y149439D01*
X265017Y150470D01*
X263986Y151261D01*
X262785Y151759D01*
X261496Y151928D01*
D02*
G37*
G36*
X202441D02*
X201152Y151759D01*
X199951Y151261D01*
X198920Y150470D01*
X198128Y149439D01*
X197631Y148238D01*
X197461Y146949D01*
X197631Y145660D01*
X198128Y144459D01*
X198920Y143428D01*
X199951Y142636D01*
X201152Y142139D01*
X202441Y141969D01*
X203730Y142139D01*
X204931Y142636D01*
X205962Y143428D01*
X206753Y144459D01*
X207251Y145660D01*
X207421Y146949D01*
X207251Y148238D01*
X206753Y149439D01*
X205962Y150470D01*
X204931Y151261D01*
X203730Y151759D01*
X202441Y151928D01*
D02*
G37*
G36*
X228346Y141325D02*
X227433Y141205D01*
X226581Y140852D01*
X225850Y140292D01*
X225289Y139560D01*
X224937Y138709D01*
X224816Y137795D01*
X224937Y136882D01*
X225289Y136030D01*
X225850Y135299D01*
X226581Y134738D01*
X227433Y134385D01*
X228346Y134265D01*
X229260Y134385D01*
X230112Y134738D01*
X230843Y135299D01*
X231404Y136030D01*
X231756Y136882D01*
X231877Y137795D01*
X231756Y138709D01*
X231404Y139560D01*
X230843Y140292D01*
X230112Y140852D01*
X229260Y141205D01*
X228346Y141325D01*
D02*
G37*
G36*
X531496Y143745D02*
X530335Y143631D01*
X529219Y143292D01*
X528191Y142743D01*
X527289Y142002D01*
X526549Y141101D01*
X525999Y140072D01*
X525661Y138956D01*
X525546Y137795D01*
X525661Y136635D01*
X525999Y135518D01*
X526549Y134490D01*
X527289Y133588D01*
X528191Y132848D01*
X529219Y132298D01*
X530335Y131960D01*
X531496Y131845D01*
X532657Y131960D01*
X533773Y132298D01*
X534802Y132848D01*
X535703Y133588D01*
X536443Y134490D01*
X536993Y135518D01*
X537332Y136635D01*
X537446Y137795D01*
X537332Y138956D01*
X536993Y140072D01*
X536443Y141101D01*
X535703Y142002D01*
X534802Y142743D01*
X533773Y143292D01*
X532657Y143631D01*
X531496Y143745D01*
D02*
G37*
G36*
X137795D02*
X136635Y143631D01*
X135518Y143292D01*
X134490Y142743D01*
X133588Y142002D01*
X132848Y141101D01*
X132298Y140072D01*
X131960Y138956D01*
X131845Y137795D01*
X131960Y136635D01*
X132298Y135518D01*
X132848Y134490D01*
X133588Y133588D01*
X134490Y132848D01*
X135518Y132298D01*
X136635Y131960D01*
X137795Y131845D01*
X138956Y131960D01*
X140072Y132298D01*
X141101Y132848D01*
X142002Y133588D01*
X142743Y134490D01*
X143292Y135518D01*
X143631Y136635D01*
X143745Y137795D01*
X143631Y138956D01*
X143292Y140072D01*
X142743Y141101D01*
X142002Y142002D01*
X141101Y142743D01*
X140072Y143292D01*
X138956Y143631D01*
X137795Y143745D01*
D02*
G37*
%LPD*%
D29*
X173228Y157480D02*
D03*
X236221D02*
D03*
X295276D02*
D03*
X354331D02*
D03*
X413386D02*
D03*
X488189Y366142D02*
D03*
X425197D02*
D03*
X366142D02*
D03*
X307087D02*
D03*
X248031D02*
D03*
X295276Y177165D02*
D03*
X292565Y254420D02*
D03*
X531560Y288119D02*
D03*
X137795Y287402D02*
D03*
X531496Y220472D02*
D03*
X137729Y227642D02*
D03*
X346457Y240158D02*
D03*
M02*
