G04*
G04 #@! TF.GenerationSoftware,Altium Limited,Altium Designer,20.2.6 (244)*
G04*
G04 Layer_Color=8421504*
%FSLAX25Y25*%
%MOIN*%
G70*
G04*
G04 #@! TF.SameCoordinates,DE4CB47F-8CA2-4EB0-BB09-0AE2ED907EE7*
G04*
G04*
G04 #@! TF.FilePolarity,Positive*
G04*
G01*
G75*
%ADD13R,0.04182X0.04469*%
%ADD14R,0.03543X0.06102*%
%ADD15R,0.05500X0.05800*%
%ADD16O,0.02362X0.05118*%
%ADD17R,0.08740X0.04016*%
D13*
X488189Y326045D02*
D03*
Y319624D02*
D03*
X181102Y329982D02*
D03*
Y323561D02*
D03*
X208661Y329982D02*
D03*
Y323561D02*
D03*
X429134Y326045D02*
D03*
Y319624D02*
D03*
X456693Y326045D02*
D03*
Y319624D02*
D03*
X472441Y173955D02*
D03*
Y180376D02*
D03*
X173228Y173955D02*
D03*
Y180376D02*
D03*
X224410Y173955D02*
D03*
Y180376D02*
D03*
X374016Y173955D02*
D03*
Y180376D02*
D03*
X433071Y173955D02*
D03*
Y180376D02*
D03*
D14*
X190256Y157480D02*
D03*
X179823D02*
D03*
X430413D02*
D03*
X419980D02*
D03*
X477658Y366142D02*
D03*
X467224D02*
D03*
X241437D02*
D03*
X231004D02*
D03*
X360925Y157480D02*
D03*
X371358D02*
D03*
X301870D02*
D03*
X312303D02*
D03*
X242815D02*
D03*
X253248D02*
D03*
X408169Y366142D02*
D03*
X418602D02*
D03*
X349114D02*
D03*
X359547D02*
D03*
X288779D02*
D03*
X299213D02*
D03*
D15*
X188586Y145669D02*
D03*
X181493D02*
D03*
X428743D02*
D03*
X421651D02*
D03*
X475987Y377953D02*
D03*
X468894D02*
D03*
X239767D02*
D03*
X232674D02*
D03*
X362595Y145669D02*
D03*
X369688D02*
D03*
X303540D02*
D03*
X310633D02*
D03*
X244485D02*
D03*
X251578D02*
D03*
X409839Y377953D02*
D03*
X416932D02*
D03*
X350784D02*
D03*
X357877D02*
D03*
X292120D02*
D03*
X299213D02*
D03*
D16*
X182165Y310236D02*
D03*
X172165D02*
D03*
Y288189D02*
D03*
X182165D02*
D03*
X430197D02*
D03*
X420197D02*
D03*
Y310236D02*
D03*
X430197D02*
D03*
X457756Y288189D02*
D03*
X447756D02*
D03*
Y310236D02*
D03*
X457756D02*
D03*
X485315Y288189D02*
D03*
X475315D02*
D03*
Y310236D02*
D03*
X485315D02*
D03*
X402638Y205512D02*
D03*
X392638D02*
D03*
Y227559D02*
D03*
X402638D02*
D03*
X319961Y205512D02*
D03*
X309961D02*
D03*
Y227559D02*
D03*
X319961D02*
D03*
X375079Y248819D02*
D03*
X365079D02*
D03*
Y270866D02*
D03*
X375079D02*
D03*
Y288189D02*
D03*
X365079D02*
D03*
Y310236D02*
D03*
X375079D02*
D03*
X402638Y288189D02*
D03*
X392638D02*
D03*
Y310236D02*
D03*
X402638D02*
D03*
X475315Y227559D02*
D03*
X485315D02*
D03*
Y205512D02*
D03*
X475315D02*
D03*
X447756Y227559D02*
D03*
X457756D02*
D03*
Y205512D02*
D03*
X447756D02*
D03*
X420197Y227559D02*
D03*
X430197D02*
D03*
Y205512D02*
D03*
X420197D02*
D03*
X199724Y227559D02*
D03*
X209724D02*
D03*
Y205512D02*
D03*
X199724D02*
D03*
X172165Y227559D02*
D03*
X182165Y205512D02*
D03*
Y227559D02*
D03*
X172165Y205512D02*
D03*
X264843Y288189D02*
D03*
X254842D02*
D03*
Y310236D02*
D03*
X264843D02*
D03*
X375079Y205512D02*
D03*
X365079D02*
D03*
Y227559D02*
D03*
X375079D02*
D03*
X347520Y205512D02*
D03*
X337520D02*
D03*
Y227559D02*
D03*
X347520D02*
D03*
X292402Y288189D02*
D03*
X282402D02*
D03*
Y310236D02*
D03*
X292402D02*
D03*
Y248819D02*
D03*
X282402D02*
D03*
Y270866D02*
D03*
X292402D02*
D03*
X237283Y205512D02*
D03*
X227284D02*
D03*
Y227559D02*
D03*
X237283D02*
D03*
X264843Y205512D02*
D03*
X254842D02*
D03*
Y227559D02*
D03*
X264843D02*
D03*
X292402Y205512D02*
D03*
X282402D02*
D03*
Y227559D02*
D03*
X292402D02*
D03*
X237283Y310236D02*
D03*
X227284D02*
D03*
Y288189D02*
D03*
X237283D02*
D03*
X209724Y310236D02*
D03*
X199724D02*
D03*
Y288189D02*
D03*
X209724D02*
D03*
D17*
X323524Y248465D02*
D03*
X345768D02*
D03*
X323524Y258465D02*
D03*
X345768D02*
D03*
X323524Y268465D02*
D03*
X345768D02*
D03*
X323524Y278465D02*
D03*
X345768D02*
D03*
X323524Y288465D02*
D03*
X345768D02*
D03*
X323524Y298465D02*
D03*
X345768D02*
D03*
X323524Y308465D02*
D03*
X345768D02*
D03*
X323524Y318465D02*
D03*
X345768D02*
D03*
M02*
