M48
;Layer_Color=9474304
;FILE_FORMAT=2:4
INCH,TZ
;TYPE=PLATED
T2F00S00C0.0280
T3F00S00C0.0433
T4F00S00C0.0787
T5F00S00C0.1240
;TYPE=NON_PLATED
T6F00S00C0.0984
%
T02
X15748Y13780
X21654Y12992
X26378
X31102
X35827
X40551
X45276
X49606Y13780
X50394Y12992
X45276Y18898
X40551
X35827
X34453Y23025
X32283Y22835
X31102Y18898
X26378
X21654
X13780Y35039
X14961Y38583
X16535Y38976
Y34252
X21260
X25984
Y38976
X21654
X30709
Y34252
X32207Y32480
X34296
X35433Y34252
Y38976
X40157
X44882
X43307Y32283
X38583
T03
X16339Y23837
Y25215
Y26593
Y27971
X18700Y27968
Y26590
Y25212
Y23834
X20866Y23838
Y25197
Y26593
Y27971
X22441
Y26593
Y25197
Y23837
X14764
Y25215
Y26593
Y27971
T04
X18307Y14748
X20307Y14695
X23031Y14748
X25031Y14695
X27756Y14748
X29756Y14695
X32480Y14748
X34480Y14695
X37205Y14748
X39205Y14695
X41929Y14748
X43929Y14695
X46654Y14748
X48654Y14695
X29724Y37614
X27724Y37667
X25000Y37614
X23000Y37667
X20276Y37614
X18276Y37667
X32449
X34449Y37614
X37173Y37667
X39173Y37614
X41898Y37667
X43898Y37614
X46622Y37707
X48622Y37654
T05
X47677Y17756
X42953
X38228
X33504
X28780
X24055
X19331
X19252Y34606
X23976
X28701
X33425
X38150
X42874
X47598Y34646
T06
X13780Y13780
X53150
X13780Y37402
X53150
M30
