G04*
G04 #@! TF.GenerationSoftware,Altium Limited,Altium Designer,23.5.1 (21)*
G04*
G04 Layer_Color=0*
%FSLAX25Y25*%
%MOIN*%
G70*
G04*
G04 #@! TF.SameCoordinates,1A84014D-912B-431A-891A-BB623E0DE537*
G04*
G04*
G04 #@! TF.FilePolarity,Positive*
G04*
G01*
G75*
%ADD11C,0.00394*%
D11*
X236221Y206693D02*
Y210630D01*
X234252Y208661D02*
X238189D01*
X425197Y285433D02*
Y289370D01*
X423228Y287402D02*
X427165D01*
X392974Y297244D02*
Y301181D01*
X391005Y299213D02*
X394942D01*
X366142Y305118D02*
Y309055D01*
X364173Y307087D02*
X368110D01*
X287402Y316929D02*
Y320866D01*
X285433Y318898D02*
X289370D01*
X244094Y309055D02*
Y312992D01*
X242126Y311024D02*
X246063D01*
X177165Y297244D02*
Y301181D01*
X175197Y299213D02*
X179134D01*
X297244Y208661D02*
X301181D01*
X299213Y206693D02*
Y210630D01*
X332677Y208661D02*
X336614D01*
X334646Y206693D02*
Y210630D01*
X250000Y208661D02*
X253937D01*
X251969Y206693D02*
Y210630D01*
X372047Y208661D02*
X375984D01*
X374016Y206693D02*
Y210630D01*
X419291Y208661D02*
X423228D01*
X421260Y206693D02*
Y210630D01*
X466535Y240158D02*
X470472D01*
X468504Y238189D02*
Y242126D01*
X354331Y328740D02*
Y332677D01*
X352362Y330709D02*
X356299D01*
X169291Y352362D02*
Y356299D01*
X167323Y354331D02*
X171260D01*
X500000Y175197D02*
Y179134D01*
X498032Y177165D02*
X501968D01*
X212598Y175197D02*
Y179134D01*
X210630Y177165D02*
X214567D01*
X218504Y354331D02*
X222441D01*
X220472Y352362D02*
Y356299D01*
X261811Y354331D02*
X265748D01*
X263779Y352362D02*
Y356299D01*
X309055Y354331D02*
X312992D01*
X311024Y352362D02*
Y356299D01*
X356299Y354331D02*
X360236D01*
X358268Y352362D02*
Y356299D01*
X395669Y322835D02*
X399606D01*
X397638Y320866D02*
Y324803D01*
X446850Y322835D02*
X450787D01*
X448819Y320866D02*
Y324803D01*
X446850Y177165D02*
X450787D01*
X448819Y175197D02*
Y179134D01*
X399606Y177165D02*
X403543D01*
X401575Y175197D02*
Y179134D01*
X352362Y177165D02*
X356299D01*
X354331Y175197D02*
Y179134D01*
X305118Y177165D02*
X309055D01*
X307087Y175197D02*
Y179134D01*
X257874Y177165D02*
X261811D01*
X259842Y175197D02*
Y179134D01*
M02*
