G04*
G04 #@! TF.GenerationSoftware,Altium Limited,Altium Designer,20.2.6 (244)*
G04*
G04 Layer_Physical_Order=1*
G04 Layer_Color=255*
%FSLAX25Y25*%
%MOIN*%
G70*
G04*
G04 #@! TF.SameCoordinates,FDEE98C7-7E5E-487F-AEB3-E854705123D1*
G04*
G04*
G04 #@! TF.FilePolarity,Positive*
G04*
G01*
G75*
%ADD12C,0.01000*%
%ADD13R,0.08740X0.04016*%
%ADD14R,0.04182X0.04469*%
%ADD15R,0.03543X0.06102*%
%ADD16R,0.05500X0.05800*%
%ADD17O,0.02362X0.05118*%
%ADD25C,0.09843*%
%ADD26C,0.12402*%
%ADD27R,0.03937X0.03937*%
%ADD28C,0.07874*%
%ADD29C,0.05000*%
G36*
X547244Y118110D02*
X118110D01*
Y393701D01*
X547244D01*
Y118110D01*
D02*
G37*
%LPC*%
G36*
X188976Y389357D02*
X188063Y389237D01*
X187211Y388884D01*
X186480Y388323D01*
X185919Y387592D01*
X185566Y386740D01*
X185446Y385827D01*
X185566Y384913D01*
X185919Y384062D01*
X186480Y383330D01*
X187211Y382769D01*
X188063Y382417D01*
X188976Y382297D01*
X189890Y382417D01*
X190742Y382769D01*
X191473Y383330D01*
X192034Y384062D01*
X192386Y384913D01*
X192507Y385827D01*
X192386Y386740D01*
X192034Y387592D01*
X191473Y388323D01*
X190742Y388884D01*
X189890Y389237D01*
X188976Y389357D01*
D02*
G37*
G36*
X479737Y381853D02*
X465144D01*
Y374053D01*
X465695D01*
Y370193D01*
X464453D01*
Y367671D01*
X459661D01*
Y369110D01*
X453724D01*
Y363173D01*
X459661D01*
Y364612D01*
X464453D01*
Y362090D01*
X469996D01*
Y370193D01*
X468754D01*
Y374053D01*
X479737D01*
Y376423D01*
X485034D01*
X485132Y376188D01*
X485693Y375457D01*
X486424Y374896D01*
X487275Y374543D01*
X488189Y374423D01*
X489103Y374543D01*
X489954Y374896D01*
X490685Y375457D01*
X491246Y376188D01*
X491599Y377039D01*
X491719Y377953D01*
X491599Y378866D01*
X491246Y379718D01*
X490685Y380449D01*
X489954Y381010D01*
X489103Y381363D01*
X488189Y381483D01*
X487275Y381363D01*
X486424Y381010D01*
X485693Y380449D01*
X485132Y379718D01*
X485034Y379482D01*
X479737D01*
Y381853D01*
D02*
G37*
G36*
X420682D02*
X406089D01*
Y374053D01*
X408310D01*
Y370193D01*
X405398D01*
Y367671D01*
X400606D01*
Y369110D01*
X394669D01*
Y363173D01*
X400606D01*
Y364612D01*
X405398D01*
Y362090D01*
X410941D01*
Y368040D01*
X411252Y368506D01*
X411369Y369091D01*
Y374053D01*
X420682D01*
Y376423D01*
X422042D01*
X422140Y376188D01*
X422701Y375457D01*
X423432Y374896D01*
X424283Y374543D01*
X425197Y374423D01*
X426111Y374543D01*
X426962Y374896D01*
X427693Y375457D01*
X428254Y376188D01*
X428607Y377039D01*
X428727Y377953D01*
X428607Y378866D01*
X428254Y379718D01*
X427693Y380449D01*
X426962Y381010D01*
X426111Y381363D01*
X425197Y381483D01*
X424283Y381363D01*
X423432Y381010D01*
X422701Y380449D01*
X422140Y379718D01*
X422042Y379482D01*
X420682D01*
Y381853D01*
D02*
G37*
G36*
X361627D02*
X347034D01*
Y374053D01*
X349255D01*
Y370193D01*
X346342D01*
Y367671D01*
X341551D01*
Y369110D01*
X335614D01*
Y363173D01*
X341551D01*
Y364612D01*
X346342D01*
Y362090D01*
X351886D01*
Y368040D01*
X352197Y368506D01*
X352314Y369091D01*
Y374053D01*
X361627D01*
Y376423D01*
X362987D01*
X363085Y376188D01*
X363646Y375457D01*
X364377Y374896D01*
X365228Y374543D01*
X366142Y374423D01*
X367055Y374543D01*
X367907Y374896D01*
X368638Y375457D01*
X369199Y376188D01*
X369552Y377039D01*
X369672Y377953D01*
X369552Y378866D01*
X369199Y379718D01*
X368638Y380449D01*
X367907Y381010D01*
X367055Y381363D01*
X366142Y381483D01*
X365228Y381363D01*
X364377Y381010D01*
X363646Y380449D01*
X363085Y379718D01*
X362987Y379482D01*
X361627D01*
Y381853D01*
D02*
G37*
G36*
X302963D02*
X288370D01*
Y374053D01*
X289809D01*
Y370193D01*
X286008D01*
Y367671D01*
X282496D01*
Y369110D01*
X276559D01*
Y363173D01*
X282496D01*
Y364612D01*
X286008D01*
Y362090D01*
X291551D01*
Y365240D01*
X291924Y365315D01*
X292420Y365646D01*
X292752Y366142D01*
X292868Y366727D01*
Y374053D01*
X302963D01*
Y376423D01*
X303932D01*
X304029Y376188D01*
X304590Y375457D01*
X305322Y374896D01*
X306173Y374543D01*
X307087Y374423D01*
X308000Y374543D01*
X308852Y374896D01*
X309583Y375457D01*
X310144Y376188D01*
X310496Y377039D01*
X310617Y377953D01*
X310496Y378866D01*
X310144Y379718D01*
X309583Y380449D01*
X308852Y381010D01*
X308000Y381363D01*
X307087Y381483D01*
X306173Y381363D01*
X305322Y381010D01*
X304590Y380449D01*
X304029Y379718D01*
X303932Y379482D01*
X302963D01*
Y381853D01*
D02*
G37*
G36*
X243517D02*
X228924D01*
Y374053D01*
X229474D01*
Y370193D01*
X228232D01*
Y367671D01*
X223441D01*
Y369110D01*
X217504D01*
Y363173D01*
X223441D01*
Y364612D01*
X228232D01*
Y362090D01*
X233776D01*
Y370193D01*
X232533D01*
Y374053D01*
X243517D01*
Y376423D01*
X244877D01*
X244974Y376188D01*
X245535Y375457D01*
X246266Y374896D01*
X247118Y374543D01*
X248031Y374423D01*
X248945Y374543D01*
X249797Y374896D01*
X250528Y375457D01*
X251089Y376188D01*
X251441Y377039D01*
X251562Y377953D01*
X251441Y378866D01*
X251089Y379718D01*
X250528Y380449D01*
X249797Y381010D01*
X248945Y381363D01*
X248031Y381483D01*
X247118Y381363D01*
X246266Y381010D01*
X245535Y380449D01*
X244974Y379718D01*
X244877Y379482D01*
X243517D01*
Y381853D01*
D02*
G37*
G36*
X458976Y381653D02*
X457688Y381483D01*
X456487Y380986D01*
X455455Y380194D01*
X454664Y379163D01*
X454166Y377962D01*
X453997Y376673D01*
X454166Y375384D01*
X454664Y374183D01*
X455455Y373152D01*
X456487Y372361D01*
X457688Y371863D01*
X458976Y371694D01*
X460265Y371863D01*
X461466Y372361D01*
X462498Y373152D01*
X463289Y374183D01*
X463786Y375384D01*
X463956Y376673D01*
X463786Y377962D01*
X463289Y379163D01*
X462498Y380194D01*
X461466Y380986D01*
X460265Y381483D01*
X458976Y381653D01*
D02*
G37*
G36*
X399921D02*
X398632Y381483D01*
X397431Y380986D01*
X396400Y380194D01*
X395609Y379163D01*
X395111Y377962D01*
X394942Y376673D01*
X395111Y375384D01*
X395609Y374183D01*
X396400Y373152D01*
X397431Y372361D01*
X398632Y371863D01*
X399921Y371694D01*
X401210Y371863D01*
X402411Y372361D01*
X403442Y373152D01*
X404234Y374183D01*
X404731Y375384D01*
X404901Y376673D01*
X404731Y377962D01*
X404234Y379163D01*
X403442Y380194D01*
X402411Y380986D01*
X401210Y381483D01*
X399921Y381653D01*
D02*
G37*
G36*
X340866D02*
X339577Y381483D01*
X338376Y380986D01*
X337345Y380194D01*
X336554Y379163D01*
X336056Y377962D01*
X335887Y376673D01*
X336056Y375384D01*
X336554Y374183D01*
X337345Y373152D01*
X338376Y372361D01*
X339577Y371863D01*
X340866Y371694D01*
X342155Y371863D01*
X343356Y372361D01*
X344387Y373152D01*
X345179Y374183D01*
X345676Y375384D01*
X345846Y376673D01*
X345676Y377962D01*
X345179Y379163D01*
X344387Y380194D01*
X343356Y380986D01*
X342155Y381483D01*
X340866Y381653D01*
D02*
G37*
G36*
X281811D02*
X280522Y381483D01*
X279321Y380986D01*
X278290Y380194D01*
X277499Y379163D01*
X277001Y377962D01*
X276831Y376673D01*
X277001Y375384D01*
X277499Y374183D01*
X278290Y373152D01*
X279321Y372361D01*
X280522Y371863D01*
X281811Y371694D01*
X283100Y371863D01*
X284301Y372361D01*
X285332Y373152D01*
X286123Y374183D01*
X286621Y375384D01*
X286791Y376673D01*
X286621Y377962D01*
X286123Y379163D01*
X285332Y380194D01*
X284301Y380986D01*
X283100Y381483D01*
X281811Y381653D01*
D02*
G37*
G36*
X222756D02*
X221467Y381483D01*
X220266Y380986D01*
X219235Y380194D01*
X218443Y379163D01*
X217946Y377962D01*
X217776Y376673D01*
X217946Y375384D01*
X218443Y374183D01*
X219235Y373152D01*
X220266Y372361D01*
X221467Y371863D01*
X222756Y371694D01*
X224045Y371863D01*
X225246Y372361D01*
X226277Y373152D01*
X227068Y374183D01*
X227566Y375384D01*
X227735Y376673D01*
X227566Y377962D01*
X227068Y379163D01*
X226277Y380194D01*
X225246Y380986D01*
X224045Y381483D01*
X222756Y381653D01*
D02*
G37*
G36*
X438976Y381121D02*
X437688Y380952D01*
X436487Y380454D01*
X435455Y379663D01*
X434664Y378631D01*
X434166Y377431D01*
X433997Y376142D01*
X434166Y374853D01*
X434664Y373652D01*
X435455Y372621D01*
X436487Y371829D01*
X437688Y371332D01*
X438976Y371162D01*
X440265Y371332D01*
X441466Y371829D01*
X442497Y372621D01*
X443289Y373652D01*
X443786Y374853D01*
X443956Y376142D01*
X443786Y377431D01*
X443289Y378631D01*
X442497Y379663D01*
X441466Y380454D01*
X440265Y380952D01*
X438976Y381121D01*
D02*
G37*
G36*
X379921D02*
X378632Y380952D01*
X377431Y380454D01*
X376400Y379663D01*
X375609Y378631D01*
X375111Y377431D01*
X374942Y376142D01*
X375111Y374853D01*
X375609Y373652D01*
X376400Y372621D01*
X377431Y371829D01*
X378632Y371332D01*
X379921Y371162D01*
X381210Y371332D01*
X382411Y371829D01*
X383442Y372621D01*
X384234Y373652D01*
X384731Y374853D01*
X384901Y376142D01*
X384731Y377431D01*
X384234Y378631D01*
X383442Y379663D01*
X382411Y380454D01*
X381210Y380952D01*
X379921Y381121D01*
D02*
G37*
G36*
X320866D02*
X319577Y380952D01*
X318376Y380454D01*
X317345Y379663D01*
X316554Y378631D01*
X316056Y377431D01*
X315886Y376142D01*
X316056Y374853D01*
X316554Y373652D01*
X317345Y372621D01*
X318376Y371829D01*
X319577Y371332D01*
X320866Y371162D01*
X322155Y371332D01*
X323356Y371829D01*
X324387Y372621D01*
X325179Y373652D01*
X325676Y374853D01*
X325846Y376142D01*
X325676Y377431D01*
X325179Y378631D01*
X324387Y379663D01*
X323356Y380454D01*
X322155Y380952D01*
X320866Y381121D01*
D02*
G37*
G36*
X261811D02*
X260522Y380952D01*
X259321Y380454D01*
X258290Y379663D01*
X257499Y378631D01*
X257001Y377431D01*
X256831Y376142D01*
X257001Y374853D01*
X257499Y373652D01*
X258290Y372621D01*
X259321Y371829D01*
X260522Y371332D01*
X261811Y371162D01*
X263100Y371332D01*
X264301Y371829D01*
X265332Y372621D01*
X266124Y373652D01*
X266621Y374853D01*
X266791Y376142D01*
X266621Y377431D01*
X266124Y378631D01*
X265332Y379663D01*
X264301Y380454D01*
X263100Y380952D01*
X261811Y381121D01*
D02*
G37*
G36*
X202756D02*
X201467Y380952D01*
X200266Y380454D01*
X199235Y379663D01*
X198443Y378631D01*
X197946Y377431D01*
X197776Y376142D01*
X197946Y374853D01*
X198443Y373652D01*
X199235Y372621D01*
X200266Y371829D01*
X201467Y371332D01*
X202756Y371162D01*
X204045Y371332D01*
X205246Y371829D01*
X206277Y372621D01*
X207068Y373652D01*
X207566Y374853D01*
X207735Y376142D01*
X207566Y377431D01*
X207068Y378631D01*
X206277Y379663D01*
X205246Y380454D01*
X204045Y380952D01*
X202756Y381121D01*
D02*
G37*
G36*
X531496Y379966D02*
X530335Y379851D01*
X529219Y379513D01*
X528191Y378963D01*
X527289Y378223D01*
X526549Y377321D01*
X525999Y376293D01*
X525661Y375177D01*
X525546Y374016D01*
X525661Y372855D01*
X525999Y371739D01*
X526549Y370710D01*
X527289Y369809D01*
X528191Y369069D01*
X529219Y368519D01*
X530335Y368180D01*
X531496Y368066D01*
X532657Y368180D01*
X533773Y368519D01*
X534802Y369069D01*
X535703Y369809D01*
X536443Y370710D01*
X536993Y371739D01*
X537332Y372855D01*
X537446Y374016D01*
X537332Y375177D01*
X536993Y376293D01*
X536443Y377321D01*
X535703Y378223D01*
X534802Y378963D01*
X533773Y379513D01*
X532657Y379851D01*
X531496Y379966D01*
D02*
G37*
G36*
X137795D02*
X136635Y379851D01*
X135518Y379513D01*
X134490Y378963D01*
X133588Y378223D01*
X132848Y377321D01*
X132298Y376293D01*
X131960Y375177D01*
X131845Y374016D01*
X131960Y372855D01*
X132298Y371739D01*
X132848Y370710D01*
X133588Y369809D01*
X134490Y369069D01*
X135518Y368519D01*
X136635Y368180D01*
X137795Y368066D01*
X138956Y368180D01*
X140072Y368519D01*
X141101Y369069D01*
X142002Y369809D01*
X142743Y370710D01*
X143292Y371739D01*
X143631Y372855D01*
X143745Y374016D01*
X143631Y375177D01*
X143292Y376293D01*
X142743Y377321D01*
X142002Y378223D01*
X141101Y378963D01*
X140072Y379513D01*
X138956Y379851D01*
X137795Y379966D01*
D02*
G37*
G36*
X444701Y369110D02*
X438764D01*
Y363173D01*
X444701D01*
Y369110D01*
D02*
G37*
G36*
X385646D02*
X379709D01*
Y363173D01*
X385646D01*
Y369110D01*
D02*
G37*
G36*
X326590D02*
X320654D01*
Y363173D01*
X326590D01*
Y369110D01*
D02*
G37*
G36*
X267535D02*
X261598D01*
Y363173D01*
X267535D01*
Y369110D01*
D02*
G37*
G36*
X208480D02*
X202543D01*
Y363173D01*
X208480D01*
Y369110D01*
D02*
G37*
G36*
X480429Y370193D02*
X474886D01*
Y362090D01*
X480429D01*
Y364612D01*
X485034D01*
X485132Y364377D01*
X485693Y363646D01*
X486424Y363085D01*
X487275Y362732D01*
X488189Y362612D01*
X489103Y362732D01*
X489954Y363085D01*
X490685Y363646D01*
X491246Y364377D01*
X491599Y365228D01*
X491719Y366142D01*
X491599Y367055D01*
X491246Y367907D01*
X490685Y368638D01*
X489954Y369199D01*
X489103Y369552D01*
X488189Y369672D01*
X487275Y369552D01*
X486424Y369199D01*
X485693Y368638D01*
X485132Y367907D01*
X485034Y367671D01*
X480429D01*
Y370193D01*
D02*
G37*
G36*
X421374D02*
X415831D01*
Y362090D01*
X421374D01*
Y364612D01*
X422042D01*
X422140Y364377D01*
X422701Y363646D01*
X423432Y363085D01*
X424283Y362732D01*
X425197Y362612D01*
X426111Y362732D01*
X426962Y363085D01*
X427693Y363646D01*
X428254Y364377D01*
X428607Y365228D01*
X428727Y366142D01*
X428607Y367055D01*
X428254Y367907D01*
X427693Y368638D01*
X426962Y369199D01*
X426111Y369552D01*
X425197Y369672D01*
X424283Y369552D01*
X423432Y369199D01*
X422701Y368638D01*
X422140Y367907D01*
X422042Y367671D01*
X421374D01*
Y370193D01*
D02*
G37*
G36*
X362319D02*
X356776D01*
Y362090D01*
X362319D01*
Y364612D01*
X362987D01*
X363085Y364377D01*
X363646Y363646D01*
X364377Y363085D01*
X365228Y362732D01*
X366142Y362612D01*
X367055Y362732D01*
X367907Y363085D01*
X368638Y363646D01*
X369199Y364377D01*
X369552Y365228D01*
X369672Y366142D01*
X369552Y367055D01*
X369199Y367907D01*
X368638Y368638D01*
X367907Y369199D01*
X367055Y369552D01*
X366142Y369672D01*
X365228Y369552D01*
X364377Y369199D01*
X363646Y368638D01*
X363085Y367907D01*
X362987Y367671D01*
X362319D01*
Y370193D01*
D02*
G37*
G36*
X301984D02*
X296441D01*
Y362090D01*
X301984D01*
Y364612D01*
X303932D01*
X304029Y364377D01*
X304590Y363646D01*
X305322Y363085D01*
X306173Y362732D01*
X307087Y362612D01*
X308000Y362732D01*
X308852Y363085D01*
X309583Y363646D01*
X310144Y364377D01*
X310496Y365228D01*
X310617Y366142D01*
X310496Y367055D01*
X310144Y367907D01*
X309583Y368638D01*
X308852Y369199D01*
X308000Y369552D01*
X307087Y369672D01*
X306173Y369552D01*
X305322Y369199D01*
X304590Y368638D01*
X304029Y367907D01*
X303932Y367671D01*
X301984D01*
Y370193D01*
D02*
G37*
G36*
X244209D02*
X238665D01*
Y362090D01*
X244209D01*
Y364612D01*
X244877D01*
X244974Y364377D01*
X245535Y363646D01*
X246266Y363085D01*
X247118Y362732D01*
X248031Y362612D01*
X248945Y362732D01*
X249797Y363085D01*
X250528Y363646D01*
X251089Y364377D01*
X251441Y365228D01*
X251562Y366142D01*
X251441Y367055D01*
X251089Y367907D01*
X250528Y368638D01*
X249797Y369199D01*
X248945Y369552D01*
X248031Y369672D01*
X247118Y369552D01*
X246266Y369199D01*
X245535Y368638D01*
X244974Y367907D01*
X244877Y367671D01*
X244209D01*
Y370193D01*
D02*
G37*
G36*
X393126Y369110D02*
X387189D01*
Y363173D01*
X388234D01*
Y354917D01*
X388351Y354331D01*
X388682Y353835D01*
X388846Y353672D01*
X388785Y353360D01*
X388673Y353137D01*
X387388Y352748D01*
X386138Y352079D01*
X385041Y351179D01*
X384141Y350083D01*
X383919Y349667D01*
X383419Y349793D01*
Y353745D01*
X383303Y354330D01*
X382971Y354826D01*
X382385Y355412D01*
X381889Y355744D01*
X381304Y355860D01*
X332238D01*
Y363173D01*
X334071D01*
Y369110D01*
X328134D01*
Y363173D01*
X329179D01*
Y354917D01*
X329296Y354331D01*
X329627Y353835D01*
X329790Y353672D01*
X329730Y353360D01*
X329618Y353137D01*
X328333Y352748D01*
X327082Y352079D01*
X325986Y351179D01*
X325086Y350083D01*
X324417Y348832D01*
X324006Y347475D01*
X323867Y346063D01*
X324006Y344651D01*
X324417Y343294D01*
X325086Y342043D01*
X325986Y340947D01*
X327082Y340047D01*
X328333Y339378D01*
X329691Y338966D01*
X331102Y338827D01*
X332514Y338966D01*
X333871Y339378D01*
X335122Y340047D01*
X336219Y340947D01*
X337119Y342043D01*
X337787Y343294D01*
X338199Y344651D01*
X338338Y346063D01*
X338199Y347475D01*
X337787Y348832D01*
X337119Y350083D01*
X336219Y351179D01*
X335122Y352079D01*
X334707Y352301D01*
X334832Y352801D01*
X380360D01*
Y339169D01*
X380477Y338583D01*
X380808Y338087D01*
X381615Y337281D01*
X382111Y336949D01*
X382696Y336833D01*
X427604D01*
Y329279D01*
X426043D01*
Y322811D01*
Y316390D01*
X427604D01*
Y313046D01*
X427721Y312460D01*
X428045Y311976D01*
X427973Y311614D01*
Y308858D01*
X428142Y308007D01*
X428624Y307286D01*
X429346Y306804D01*
X430197Y306634D01*
X431048Y306804D01*
X431769Y307286D01*
X432251Y308007D01*
X432421Y308858D01*
Y311614D01*
X432251Y312465D01*
X431769Y313187D01*
X431048Y313669D01*
X430663Y313745D01*
Y316390D01*
X432225D01*
Y322811D01*
Y329279D01*
X430663D01*
Y337776D01*
X430547Y338362D01*
X430215Y338858D01*
X429630Y339444D01*
X429133Y339775D01*
X428548Y339892D01*
X394776D01*
X394598Y340392D01*
X395274Y340947D01*
X396174Y342043D01*
X396842Y343294D01*
X397254Y344651D01*
X397393Y346063D01*
X397254Y347475D01*
X396842Y348832D01*
X396174Y350083D01*
X395274Y351179D01*
X394177Y352079D01*
X393762Y352301D01*
X393887Y352801D01*
X435478D01*
Y335231D01*
X435595Y334646D01*
X435926Y334150D01*
X436512Y333564D01*
X437008Y333233D01*
X437594Y333116D01*
X455163D01*
Y329279D01*
X453602D01*
Y322811D01*
Y316390D01*
X455163D01*
Y313046D01*
X455280Y312460D01*
X455604Y311976D01*
X455532Y311614D01*
Y308858D01*
X455701Y308007D01*
X456183Y307286D01*
X456905Y306804D01*
X457756Y306634D01*
X458607Y306804D01*
X459328Y307286D01*
X459810Y308007D01*
X459980Y308858D01*
Y311614D01*
X459810Y312465D01*
X459328Y313187D01*
X458607Y313669D01*
X458222Y313745D01*
Y316390D01*
X459784D01*
Y322811D01*
Y329279D01*
X458222D01*
Y334646D01*
X458106Y335231D01*
X457774Y335727D01*
X457278Y336059D01*
X456693Y336175D01*
X438537D01*
Y353745D01*
X438421Y354330D01*
X438089Y354826D01*
X437503Y355412D01*
X437007Y355744D01*
X436422Y355860D01*
X391293D01*
Y363173D01*
X393126D01*
Y369110D01*
D02*
G37*
G36*
X275016D02*
X269079D01*
Y363173D01*
X270124D01*
Y355860D01*
X224995D01*
X224410Y355744D01*
X223914Y355412D01*
X223328Y354826D01*
X222996Y354330D01*
X222880Y353745D01*
Y336175D01*
X209247D01*
X208662Y336059D01*
X208166Y335727D01*
X207580Y335141D01*
X207248Y334645D01*
X207132Y334060D01*
Y333216D01*
X205571D01*
Y326747D01*
Y320327D01*
X207132D01*
Y313046D01*
X207248Y312460D01*
X207573Y311976D01*
X207501Y311614D01*
Y308858D01*
X207670Y308007D01*
X208152Y307286D01*
X208873Y306804D01*
X209724Y306634D01*
X210575Y306804D01*
X211297Y307286D01*
X211779Y308007D01*
X211948Y308858D01*
Y311614D01*
X211779Y312465D01*
X211297Y313187D01*
X210575Y313669D01*
X210191Y313745D01*
Y320327D01*
X211752D01*
Y326747D01*
Y333116D01*
X223824D01*
X224409Y333233D01*
X224905Y333564D01*
X225491Y334150D01*
X225822Y334646D01*
X225939Y335231D01*
Y352801D01*
X268318D01*
X268443Y352301D01*
X268027Y352079D01*
X266931Y351179D01*
X266031Y350083D01*
X265362Y348832D01*
X264951Y347475D01*
X264812Y346063D01*
X264951Y344651D01*
X265362Y343294D01*
X266031Y342043D01*
X266931Y340947D01*
X268027Y340047D01*
X269278Y339378D01*
X270636Y338966D01*
X272047Y338827D01*
X273459Y338966D01*
X274816Y339378D01*
X276067Y340047D01*
X277164Y340947D01*
X278063Y342043D01*
X278732Y343294D01*
X279144Y344651D01*
X279283Y346063D01*
X279144Y347475D01*
X278732Y348832D01*
X278063Y350083D01*
X277164Y351179D01*
X276067Y352079D01*
X274816Y352748D01*
X273459Y353160D01*
X272767Y353228D01*
X272598Y353698D01*
X272735Y353835D01*
X273066Y354331D01*
X273183Y354917D01*
Y363173D01*
X275016D01*
Y369110D01*
D02*
G37*
G36*
X215961D02*
X210024D01*
Y363173D01*
X211069D01*
Y355860D01*
X181688D01*
X181103Y355744D01*
X180607Y355412D01*
X180021Y354826D01*
X179689Y354330D01*
X179573Y353745D01*
Y333216D01*
X178012D01*
Y326747D01*
Y321048D01*
X177512Y320948D01*
X177467Y321056D01*
X176906Y321788D01*
X176174Y322349D01*
X175323Y322701D01*
X174409Y322821D01*
X173496Y322701D01*
X172644Y322349D01*
X171913Y321788D01*
X171352Y321056D01*
X171000Y320205D01*
X170879Y319291D01*
X171000Y318378D01*
X171352Y317526D01*
X171913Y316795D01*
X172644Y316234D01*
X172880Y316137D01*
Y314090D01*
X172494Y313773D01*
X172165Y313838D01*
X171314Y313669D01*
X170593Y313187D01*
X170111Y312465D01*
X169941Y311614D01*
Y308858D01*
X170111Y308007D01*
X170593Y307286D01*
X171314Y306804D01*
X172165Y306634D01*
X173016Y306804D01*
X173738Y307286D01*
X174220Y308007D01*
X174389Y308858D01*
Y310533D01*
X175491Y311635D01*
X175822Y312131D01*
X175939Y312717D01*
Y316137D01*
X176174Y316234D01*
X176906Y316795D01*
X177467Y317526D01*
X177819Y318378D01*
X177940Y319291D01*
X177861Y319889D01*
X178282Y320327D01*
X179573D01*
Y313046D01*
X179689Y312460D01*
X180013Y311976D01*
X179941Y311614D01*
Y308858D01*
X180111Y308007D01*
X180593Y307286D01*
X181314Y306804D01*
X182165Y306634D01*
X183016Y306804D01*
X183738Y307286D01*
X184220Y308007D01*
X184389Y308858D01*
Y311614D01*
X184220Y312465D01*
X183738Y313187D01*
X183016Y313669D01*
X182632Y313745D01*
Y320327D01*
X184193D01*
Y326747D01*
Y333216D01*
X182632D01*
Y352801D01*
X209263D01*
X209388Y352301D01*
X208972Y352079D01*
X207876Y351179D01*
X206976Y350083D01*
X206307Y348832D01*
X205895Y347475D01*
X205756Y346063D01*
X205895Y344651D01*
X206307Y343294D01*
X206976Y342043D01*
X207876Y340947D01*
X208972Y340047D01*
X210223Y339378D01*
X211580Y338966D01*
X212992Y338827D01*
X214404Y338966D01*
X215761Y339378D01*
X217012Y340047D01*
X218109Y340947D01*
X219008Y342043D01*
X219677Y343294D01*
X220089Y344651D01*
X220228Y346063D01*
X220089Y347475D01*
X219677Y348832D01*
X219008Y350083D01*
X218109Y351179D01*
X217012Y352079D01*
X215761Y352748D01*
X214404Y353160D01*
X213712Y353228D01*
X213543Y353698D01*
X213680Y353835D01*
X214011Y354331D01*
X214128Y354917D01*
Y363173D01*
X215961D01*
Y369110D01*
D02*
G37*
G36*
X345538Y344083D02*
X344624Y343962D01*
X343773Y343610D01*
X343041Y343049D01*
X342480Y342318D01*
X342128Y341466D01*
X342007Y340552D01*
X342128Y339639D01*
X342480Y338787D01*
X343041Y338056D01*
X343773Y337495D01*
X344624Y337143D01*
X345538Y337022D01*
X346451Y337143D01*
X347303Y337495D01*
X348034Y338056D01*
X348595Y338787D01*
X348948Y339639D01*
X349068Y340552D01*
X348948Y341466D01*
X348595Y342318D01*
X348034Y343049D01*
X347303Y343610D01*
X346451Y343962D01*
X345538Y344083D01*
D02*
G37*
G36*
X306693Y344081D02*
X305779Y343961D01*
X304928Y343608D01*
X304197Y343047D01*
X303636Y342316D01*
X303283Y341465D01*
X303163Y340551D01*
X303283Y339637D01*
X303636Y338786D01*
X304197Y338055D01*
X304928Y337494D01*
X305779Y337141D01*
X306693Y337021D01*
X307607Y337141D01*
X308458Y337494D01*
X309189Y338055D01*
X309750Y338786D01*
X310103Y339637D01*
X310223Y340551D01*
X310103Y341465D01*
X309750Y342316D01*
X309189Y343047D01*
X308458Y343608D01*
X307607Y343961D01*
X306693Y344081D01*
D02*
G37*
G36*
X311811Y332238D02*
X267717D01*
X267131Y332122D01*
X266635Y331790D01*
X266304Y331294D01*
X266187Y330709D01*
Y328136D01*
X265687Y327966D01*
X265229Y328563D01*
X264498Y329124D01*
X263647Y329477D01*
X262733Y329597D01*
X261819Y329477D01*
X260968Y329124D01*
X260237Y328563D01*
X259676Y327832D01*
X259323Y326980D01*
X259203Y326067D01*
X259323Y325153D01*
X259676Y324302D01*
X260237Y323570D01*
X260968Y323009D01*
X261819Y322657D01*
X262733Y322536D01*
X263647Y322657D01*
X264498Y323009D01*
X265229Y323570D01*
X265687Y324167D01*
X266187Y323998D01*
Y313869D01*
X265746Y313633D01*
X265693Y313669D01*
X264843Y313838D01*
X263991Y313669D01*
X263270Y313187D01*
X262788Y312465D01*
X262619Y311614D01*
Y308858D01*
X262788Y308007D01*
X263270Y307286D01*
X263991Y306804D01*
X264843Y306634D01*
X265693Y306804D01*
X266415Y307286D01*
X266897Y308007D01*
X267066Y308858D01*
Y309494D01*
X267717D01*
X268302Y309611D01*
X268798Y309942D01*
X269129Y310438D01*
X269246Y311024D01*
Y329179D01*
X310282D01*
Y296176D01*
X310398Y295591D01*
X310730Y295095D01*
X311315Y294509D01*
X311811Y294178D01*
X312397Y294061D01*
X314216D01*
Y292583D01*
X324957D01*
Y298598D01*
X314216D01*
Y297120D01*
X313340D01*
Y330709D01*
X313224Y331294D01*
X312893Y331790D01*
X312396Y332122D01*
X311811Y332238D01*
D02*
G37*
G36*
X464173Y333452D02*
X463260Y333331D01*
X462408Y332979D01*
X461677Y332417D01*
X461116Y331686D01*
X460763Y330835D01*
X460643Y329921D01*
X460763Y329008D01*
X461116Y328156D01*
X461677Y327425D01*
X462408Y326864D01*
X463260Y326511D01*
X464173Y326391D01*
X465087Y326511D01*
X465938Y326864D01*
X466670Y327425D01*
X467231Y328156D01*
X467583Y329008D01*
X467703Y329921D01*
X467583Y330835D01*
X467231Y331686D01*
X466670Y332417D01*
X465938Y332979D01*
X465087Y333331D01*
X464173Y333452D01*
D02*
G37*
G36*
X420472Y332664D02*
X419559Y332544D01*
X418707Y332191D01*
X417976Y331630D01*
X417415Y330899D01*
X417063Y330047D01*
X416942Y329134D01*
X417063Y328220D01*
X417415Y327369D01*
X417976Y326638D01*
X418707Y326077D01*
X419559Y325724D01*
X420472Y325604D01*
X421386Y325724D01*
X422237Y326077D01*
X422969Y326638D01*
X423530Y327369D01*
X423882Y328220D01*
X424003Y329134D01*
X423882Y330047D01*
X423530Y330899D01*
X422969Y331630D01*
X422237Y332191D01*
X421386Y332544D01*
X420472Y332664D01*
D02*
G37*
G36*
X227361Y332561D02*
X226447Y332441D01*
X225596Y332088D01*
X224865Y331527D01*
X224304Y330796D01*
X223951Y329945D01*
X223831Y329031D01*
X223951Y328117D01*
X224304Y327266D01*
X224865Y326535D01*
X225596Y325974D01*
X226447Y325621D01*
X227361Y325501D01*
X228274Y325621D01*
X229126Y325974D01*
X229857Y326535D01*
X230418Y327266D01*
X230771Y328117D01*
X230891Y329031D01*
X230771Y329945D01*
X230418Y330796D01*
X229857Y331527D01*
X229126Y332088D01*
X228274Y332441D01*
X227361Y332561D01*
D02*
G37*
G36*
X385222Y330944D02*
X384309Y330824D01*
X383457Y330471D01*
X382726Y329910D01*
X382165Y329179D01*
X381812Y328328D01*
X381692Y327414D01*
X381812Y326500D01*
X382165Y325649D01*
X382726Y324918D01*
X383457Y324357D01*
X384309Y324004D01*
X385222Y323884D01*
X386136Y324004D01*
X386987Y324357D01*
X387718Y324918D01*
X388279Y325649D01*
X388632Y326500D01*
X388752Y327414D01*
X388632Y328328D01*
X388279Y329179D01*
X387718Y329910D01*
X386987Y330471D01*
X386136Y330824D01*
X385222Y330944D01*
D02*
G37*
G36*
X188687Y323735D02*
X187774Y323615D01*
X186922Y323262D01*
X186191Y322701D01*
X185630Y321970D01*
X185277Y321119D01*
X185157Y320205D01*
X185277Y319291D01*
X185630Y318440D01*
X186191Y317709D01*
X186922Y317148D01*
X187774Y316795D01*
X188687Y316675D01*
X189601Y316795D01*
X190452Y317148D01*
X191183Y317709D01*
X191744Y318440D01*
X192097Y319291D01*
X192217Y320205D01*
X192097Y321119D01*
X191744Y321970D01*
X191183Y322701D01*
X190452Y323262D01*
X189601Y323615D01*
X188687Y323735D01*
D02*
G37*
G36*
X340732Y328464D02*
X339819Y328343D01*
X338967Y327991D01*
X338236Y327430D01*
X337675Y326698D01*
X337322Y325847D01*
X337202Y324933D01*
X337322Y324020D01*
X337675Y323168D01*
X338236Y322437D01*
X338967Y321876D01*
X339819Y321523D01*
X340301Y321460D01*
Y318598D01*
X336461D01*
Y312583D01*
X347201D01*
Y318598D01*
X343360D01*
Y322608D01*
X343790Y323168D01*
X344142Y324020D01*
X344263Y324933D01*
X344142Y325847D01*
X343790Y326698D01*
X343229Y327430D01*
X342497Y327991D01*
X341646Y328343D01*
X340732Y328464D01*
D02*
G37*
G36*
X319497Y328252D02*
X318584Y328132D01*
X317732Y327779D01*
X317001Y327218D01*
X316440Y326487D01*
X316087Y325636D01*
X315967Y324722D01*
X316087Y323808D01*
X316440Y322957D01*
X317001Y322226D01*
X317732Y321665D01*
X318057Y321530D01*
Y318598D01*
X314216D01*
Y312583D01*
X324957D01*
Y318598D01*
X321116D01*
Y321604D01*
X321262Y321665D01*
X321993Y322226D01*
X322554Y322957D01*
X322907Y323808D01*
X323027Y324722D01*
X322907Y325636D01*
X322554Y326487D01*
X321993Y327218D01*
X321262Y327779D01*
X320411Y328132D01*
X319497Y328252D01*
D02*
G37*
G36*
X326580Y336175D02*
X237869D01*
X237284Y336059D01*
X236788Y335727D01*
X236202Y335141D01*
X235871Y334645D01*
X235754Y334060D01*
Y313215D01*
X235711Y313187D01*
X235229Y312465D01*
X235060Y311614D01*
Y308858D01*
X235229Y308007D01*
X235711Y307286D01*
X236432Y306804D01*
X237283Y306634D01*
X238135Y306804D01*
X238856Y307286D01*
X239338Y308007D01*
X239507Y308858D01*
Y311614D01*
X239338Y312465D01*
X238856Y313187D01*
X238813Y313215D01*
Y333116D01*
X325636D01*
Y307120D01*
X324957D01*
Y308598D01*
X314216D01*
Y302583D01*
X324957D01*
Y304061D01*
X326580D01*
X327165Y304178D01*
X327661Y304509D01*
X328247Y305095D01*
X328578Y305591D01*
X328695Y306176D01*
Y334060D01*
X328578Y334645D01*
X328247Y335141D01*
X327661Y335727D01*
X327165Y336059D01*
X326580Y336175D01*
D02*
G37*
G36*
X452181Y369110D02*
X446244D01*
Y363173D01*
X447290D01*
Y354917D01*
X447406Y354331D01*
X447738Y353835D01*
X447901Y353672D01*
X447840Y353360D01*
X447728Y353137D01*
X446444Y352748D01*
X445193Y352079D01*
X444096Y351179D01*
X443196Y350083D01*
X442528Y348832D01*
X442116Y347475D01*
X441977Y346063D01*
X442116Y344651D01*
X442528Y343294D01*
X443196Y342043D01*
X444096Y340947D01*
X445193Y340047D01*
X446444Y339378D01*
X447801Y338966D01*
X449213Y338827D01*
X450624Y338966D01*
X451981Y339378D01*
X453232Y340047D01*
X454329Y340947D01*
X455229Y342043D01*
X455897Y343294D01*
X456309Y344651D01*
X456448Y346063D01*
X456309Y347475D01*
X455897Y348832D01*
X455229Y350083D01*
X454329Y351179D01*
X453232Y352079D01*
X452817Y352301D01*
X452942Y352801D01*
X486660D01*
Y329279D01*
X485098D01*
Y322811D01*
Y319158D01*
X484819Y318971D01*
X484234Y318386D01*
X483902Y317890D01*
X483786Y317304D01*
Y313215D01*
X483743Y313187D01*
X483260Y312465D01*
X483091Y311614D01*
Y308858D01*
X483260Y308007D01*
X483743Y307286D01*
X484464Y306804D01*
X485315Y306634D01*
X486166Y306804D01*
X486887Y307286D01*
X487369Y308007D01*
X487539Y308858D01*
Y311614D01*
X487369Y312465D01*
X486887Y313187D01*
X486844Y313215D01*
Y316390D01*
X491280D01*
Y322811D01*
Y329279D01*
X489718D01*
Y353745D01*
X489602Y354330D01*
X489270Y354826D01*
X488685Y355412D01*
X488189Y355744D01*
X487603Y355860D01*
X450348D01*
Y363173D01*
X452181D01*
Y369110D01*
D02*
G37*
G36*
X475315Y334751D02*
X474401Y334630D01*
X473550Y334278D01*
X472819Y333717D01*
X472258Y332986D01*
X471905Y332134D01*
X471785Y331221D01*
X471905Y330307D01*
X472258Y329455D01*
X472819Y328724D01*
X473550Y328163D01*
X473786Y328066D01*
Y313215D01*
X473742Y313187D01*
X473260Y312465D01*
X473091Y311614D01*
Y308858D01*
X473260Y308007D01*
X473742Y307286D01*
X474464Y306804D01*
X475315Y306634D01*
X476166Y306804D01*
X476887Y307286D01*
X477369Y308007D01*
X477539Y308858D01*
Y311614D01*
X477369Y312465D01*
X476887Y313187D01*
X476844Y313215D01*
Y328066D01*
X477080Y328163D01*
X477811Y328724D01*
X478372Y329455D01*
X478725Y330307D01*
X478845Y331221D01*
X478725Y332134D01*
X478372Y332986D01*
X477811Y333717D01*
X477080Y334278D01*
X476229Y334630D01*
X475315Y334751D01*
D02*
G37*
G36*
X447244Y322428D02*
X446330Y322307D01*
X445479Y321955D01*
X444748Y321394D01*
X444187Y320663D01*
X443834Y319811D01*
X443714Y318898D01*
X443834Y317984D01*
X444187Y317132D01*
X444748Y316401D01*
X445479Y315840D01*
X446227Y315531D01*
Y313215D01*
X446183Y313187D01*
X445701Y312465D01*
X445532Y311614D01*
Y308858D01*
X445701Y308007D01*
X446183Y307286D01*
X446905Y306804D01*
X447756Y306634D01*
X448607Y306804D01*
X449328Y307286D01*
X449811Y308007D01*
X449980Y308858D01*
Y311614D01*
X449811Y312465D01*
X449328Y313187D01*
X449285Y313215D01*
Y316052D01*
X449740Y316401D01*
X450301Y317132D01*
X450654Y317984D01*
X450774Y318898D01*
X450654Y319811D01*
X450301Y320663D01*
X449740Y321394D01*
X449009Y321955D01*
X448158Y322307D01*
X447244Y322428D01*
D02*
G37*
G36*
X420305Y324233D02*
X419391Y324113D01*
X418540Y323760D01*
X417808Y323199D01*
X417247Y322468D01*
X416895Y321617D01*
X416775Y320703D01*
X416895Y319789D01*
X417247Y318938D01*
X417808Y318207D01*
X418540Y317646D01*
X418721Y317570D01*
Y313251D01*
X418624Y313187D01*
X418142Y312465D01*
X417973Y311614D01*
Y308858D01*
X418142Y308007D01*
X418624Y307286D01*
X419346Y306804D01*
X420197Y306634D01*
X421048Y306804D01*
X421769Y307286D01*
X422251Y308007D01*
X422421Y308858D01*
Y311614D01*
X422251Y312465D01*
X421780Y313171D01*
Y317526D01*
X422070Y317646D01*
X422801Y318207D01*
X423362Y318938D01*
X423715Y319789D01*
X423835Y320703D01*
X423715Y321617D01*
X423362Y322468D01*
X422801Y323199D01*
X422070Y323760D01*
X421218Y324113D01*
X420305Y324233D01*
D02*
G37*
G36*
X400989Y336175D02*
X334444D01*
X333859Y336059D01*
X333363Y335727D01*
X332777Y335141D01*
X332445Y334645D01*
X332329Y334060D01*
Y306176D01*
X332445Y305591D01*
X332777Y305095D01*
X333363Y304509D01*
X333859Y304178D01*
X334444Y304061D01*
X336461D01*
Y302583D01*
X347201D01*
Y308598D01*
X336461D01*
Y307120D01*
X335388D01*
Y333116D01*
X392518D01*
X392550Y332616D01*
X392000Y332544D01*
X391148Y332191D01*
X390417Y331630D01*
X389856Y330899D01*
X389504Y330047D01*
X389383Y329134D01*
X389504Y328220D01*
X389856Y327369D01*
X390417Y326638D01*
X391148Y326077D01*
X391384Y325979D01*
Y313400D01*
X391065Y313187D01*
X390583Y312465D01*
X390414Y311614D01*
Y308858D01*
X390583Y308007D01*
X391065Y307286D01*
X391787Y306804D01*
X392638Y306634D01*
X393489Y306804D01*
X394210Y307286D01*
X394692Y308007D01*
X394862Y308858D01*
Y311614D01*
X394692Y312465D01*
X394443Y312839D01*
Y325979D01*
X394678Y326077D01*
X395410Y326638D01*
X395971Y327369D01*
X396323Y328220D01*
X396444Y329134D01*
X396323Y330047D01*
X395971Y330899D01*
X395410Y331630D01*
X394678Y332191D01*
X393827Y332544D01*
X393276Y332616D01*
X393309Y333116D01*
X400355D01*
X401108Y332363D01*
Y313215D01*
X401065Y313187D01*
X400583Y312465D01*
X400414Y311614D01*
Y308858D01*
X400583Y308007D01*
X401065Y307286D01*
X401787Y306804D01*
X402638Y306634D01*
X403489Y306804D01*
X404210Y307286D01*
X404692Y308007D01*
X404862Y308858D01*
Y311614D01*
X404692Y312465D01*
X404210Y313187D01*
X404167Y313215D01*
Y332997D01*
X404051Y333582D01*
X403719Y334078D01*
X402070Y335727D01*
X401574Y336059D01*
X400989Y336175D01*
D02*
G37*
G36*
X374016Y332238D02*
X358854D01*
X358268Y332122D01*
X357772Y331790D01*
X357186Y331204D01*
X356855Y330708D01*
X356738Y330123D01*
Y297120D01*
X347201D01*
Y298598D01*
X336461D01*
Y292583D01*
X347201D01*
Y294061D01*
X358268D01*
X358853Y294178D01*
X359349Y294509D01*
X359681Y295005D01*
X359797Y295590D01*
Y329179D01*
X373382D01*
X373549Y329012D01*
Y313215D01*
X373506Y313187D01*
X373024Y312465D01*
X372855Y311614D01*
Y308858D01*
X373024Y308007D01*
X373506Y307286D01*
X374228Y306804D01*
X375079Y306634D01*
X375930Y306804D01*
X376651Y307286D01*
X377133Y308007D01*
X377303Y308858D01*
Y311614D01*
X377133Y312465D01*
X376651Y313187D01*
X376608Y313215D01*
Y329646D01*
X376492Y330231D01*
X376160Y330727D01*
X375097Y331790D01*
X374601Y332122D01*
X374016Y332238D01*
D02*
G37*
G36*
X365597Y324240D02*
X364683Y324120D01*
X363832Y323767D01*
X363101Y323206D01*
X362540Y322475D01*
X362187Y321624D01*
X362067Y320710D01*
X362187Y319796D01*
X362540Y318945D01*
X363101Y318214D01*
X363808Y317671D01*
Y313389D01*
X363506Y313187D01*
X363024Y312465D01*
X362855Y311614D01*
Y308858D01*
X363024Y308007D01*
X363506Y307286D01*
X364228Y306804D01*
X365079Y306634D01*
X365930Y306804D01*
X366651Y307286D01*
X367133Y308007D01*
X367303Y308858D01*
Y311614D01*
X367133Y312465D01*
X366867Y312863D01*
Y317448D01*
X367362Y317653D01*
X368093Y318214D01*
X368654Y318945D01*
X369007Y319796D01*
X369127Y320710D01*
X369007Y321624D01*
X368654Y322475D01*
X368093Y323206D01*
X367362Y323767D01*
X366511Y324120D01*
X365597Y324240D01*
D02*
G37*
G36*
X282363Y324394D02*
X281449Y324274D01*
X280598Y323921D01*
X279867Y323360D01*
X279306Y322629D01*
X278953Y321778D01*
X278833Y320864D01*
X278953Y319950D01*
X279306Y319099D01*
X279867Y318368D01*
X280598Y317807D01*
X280833Y317709D01*
Y313190D01*
X280829Y313187D01*
X280347Y312465D01*
X280178Y311614D01*
Y308858D01*
X280347Y308007D01*
X280829Y307286D01*
X281551Y306804D01*
X282402Y306634D01*
X283253Y306804D01*
X283974Y307286D01*
X284456Y308007D01*
X284625Y308858D01*
Y311614D01*
X284456Y312465D01*
X283974Y313187D01*
X283892Y313241D01*
Y317709D01*
X284128Y317807D01*
X284859Y318368D01*
X285420Y319099D01*
X285773Y319950D01*
X285893Y320864D01*
X285773Y321778D01*
X285420Y322629D01*
X284859Y323360D01*
X284128Y323921D01*
X283276Y324274D01*
X282363Y324394D01*
D02*
G37*
G36*
X255015Y323886D02*
X254102Y323765D01*
X253250Y323413D01*
X252519Y322852D01*
X251958Y322121D01*
X251605Y321269D01*
X251485Y320356D01*
X251605Y319442D01*
X251958Y318590D01*
X252519Y317859D01*
X253250Y317298D01*
X253313Y317272D01*
Y313215D01*
X253270Y313187D01*
X252788Y312465D01*
X252619Y311614D01*
Y308858D01*
X252788Y308007D01*
X253270Y307286D01*
X253992Y306804D01*
X254842Y306634D01*
X255694Y306804D01*
X256415Y307286D01*
X256897Y308007D01*
X257066Y308858D01*
Y311614D01*
X256897Y312465D01*
X256415Y313187D01*
X256372Y313215D01*
Y317129D01*
X256780Y317298D01*
X257511Y317859D01*
X258072Y318590D01*
X258425Y319442D01*
X258545Y320356D01*
X258425Y321269D01*
X258072Y322121D01*
X257511Y322852D01*
X256780Y323413D01*
X255929Y323765D01*
X255015Y323886D01*
D02*
G37*
G36*
X220866Y325971D02*
X219953Y325851D01*
X219101Y325498D01*
X218370Y324937D01*
X217809Y324206D01*
X217456Y323355D01*
X217336Y322441D01*
X217456Y321527D01*
X217809Y320676D01*
X218370Y319945D01*
X219101Y319384D01*
X219953Y319031D01*
X220866Y318911D01*
X221780Y319031D01*
X222016Y319129D01*
X225754Y315390D01*
Y313215D01*
X225711Y313187D01*
X225229Y312465D01*
X225060Y311614D01*
Y308858D01*
X225229Y308007D01*
X225711Y307286D01*
X226432Y306804D01*
X227284Y306634D01*
X228134Y306804D01*
X228856Y307286D01*
X229338Y308007D01*
X229507Y308858D01*
Y311614D01*
X229338Y312465D01*
X228856Y313187D01*
X228813Y313215D01*
Y316024D01*
X228696Y316609D01*
X228365Y317105D01*
X224178Y321292D01*
X224276Y321527D01*
X224396Y322441D01*
X224276Y323355D01*
X223923Y324206D01*
X223362Y324937D01*
X222631Y325498D01*
X221780Y325851D01*
X220866Y325971D01*
D02*
G37*
G36*
X200000Y335026D02*
X199086Y334906D01*
X198235Y334553D01*
X197504Y333992D01*
X196943Y333261D01*
X196590Y332410D01*
X196470Y331496D01*
X196590Y330582D01*
X196943Y329731D01*
X197504Y329000D01*
X198235Y328439D01*
X198471Y328341D01*
Y313400D01*
X198152Y313187D01*
X197670Y312465D01*
X197501Y311614D01*
Y308858D01*
X197670Y308007D01*
X198152Y307286D01*
X198873Y306804D01*
X199724Y306634D01*
X200575Y306804D01*
X201297Y307286D01*
X201779Y308007D01*
X201948Y308858D01*
Y311614D01*
X201779Y312465D01*
X201529Y312839D01*
Y328341D01*
X201765Y328439D01*
X202496Y329000D01*
X203057Y329731D01*
X203410Y330582D01*
X203530Y331496D01*
X203410Y332410D01*
X203057Y333261D01*
X202496Y333992D01*
X201765Y334553D01*
X200914Y334906D01*
X200000Y335026D01*
D02*
G37*
G36*
X409449Y302349D02*
X408535Y302229D01*
X407684Y301876D01*
X406953Y301315D01*
X406392Y300584D01*
X406039Y299733D01*
X405919Y298819D01*
X406039Y297905D01*
X406137Y297670D01*
X401556Y293089D01*
X401225Y292593D01*
X401108Y292008D01*
Y291168D01*
X401065Y291139D01*
X400583Y290418D01*
X400414Y289567D01*
Y286811D01*
X400583Y285960D01*
X401065Y285239D01*
X401787Y284756D01*
X402638Y284587D01*
X403489Y284756D01*
X404210Y285239D01*
X404692Y285960D01*
X404862Y286811D01*
Y289567D01*
X404692Y290418D01*
X404210Y291139D01*
X404388Y291595D01*
X408299Y295507D01*
X408535Y295409D01*
X409449Y295289D01*
X410362Y295409D01*
X411214Y295762D01*
X411945Y296323D01*
X412506Y297054D01*
X412859Y297905D01*
X412979Y298819D01*
X412859Y299733D01*
X412506Y300584D01*
X411945Y301315D01*
X411214Y301876D01*
X410362Y302229D01*
X409449Y302349D01*
D02*
G37*
G36*
X372086D02*
X371172Y302229D01*
X370321Y301876D01*
X369590Y301315D01*
X369029Y300584D01*
X368676Y299733D01*
X368556Y298819D01*
X368676Y297905D01*
X369029Y297054D01*
X369590Y296323D01*
X370321Y295762D01*
X371172Y295409D01*
X372086Y295289D01*
X373000Y295409D01*
X373168Y295479D01*
X373549Y295167D01*
Y291168D01*
X373506Y291139D01*
X373024Y290418D01*
X372979Y290192D01*
X372875Y290116D01*
X372433Y290007D01*
X371844Y290459D01*
X370992Y290811D01*
X370079Y290932D01*
X369165Y290811D01*
X368314Y290459D01*
X367725Y290007D01*
X367282Y290116D01*
X367178Y290192D01*
X367133Y290418D01*
X366651Y291139D01*
X365930Y291621D01*
X365079Y291791D01*
X364228Y291621D01*
X363506Y291139D01*
X363024Y290418D01*
X362855Y289567D01*
Y286811D01*
X363024Y285960D01*
X363506Y285239D01*
X364228Y284756D01*
X365079Y284587D01*
X365930Y284756D01*
X366651Y285239D01*
X366672Y285270D01*
X367287Y285290D01*
X367583Y284905D01*
X368314Y284344D01*
X369165Y283992D01*
X370079Y283871D01*
X370992Y283992D01*
X371844Y284344D01*
X372575Y284905D01*
X372870Y285290D01*
X373485Y285270D01*
X373506Y285239D01*
X374228Y284756D01*
X375079Y284587D01*
X375930Y284756D01*
X376651Y285239D01*
X377133Y285960D01*
X377303Y286811D01*
Y289567D01*
X377133Y290418D01*
X376651Y291139D01*
X376608Y291168D01*
Y295826D01*
X376492Y296412D01*
X376160Y296908D01*
X375398Y297670D01*
X375496Y297905D01*
X375616Y298819D01*
X375496Y299733D01*
X375144Y300584D01*
X374583Y301315D01*
X373851Y301876D01*
X373000Y302229D01*
X372086Y302349D01*
D02*
G37*
G36*
X173079Y303136D02*
X172165Y303016D01*
X171313Y302663D01*
X170582Y302102D01*
X170021Y301371D01*
X169669Y300520D01*
X169548Y299606D01*
X169669Y298693D01*
X170021Y297841D01*
X170582Y297110D01*
X171313Y296549D01*
X172165Y296196D01*
X173079Y296076D01*
X173992Y296196D01*
X174844Y296549D01*
X175157Y296790D01*
X180362Y291585D01*
X180593Y291139D01*
X180111Y290418D01*
X179941Y289567D01*
Y286811D01*
X180111Y285960D01*
X180422Y285494D01*
X180155Y284994D01*
X173955D01*
Y285564D01*
X174220Y285960D01*
X174389Y286811D01*
Y289567D01*
X174220Y290418D01*
X173738Y291139D01*
X173016Y291621D01*
X172165Y291791D01*
X171314Y291621D01*
X170593Y291139D01*
X170111Y290418D01*
X169941Y289567D01*
Y286811D01*
X170111Y285960D01*
X170593Y285239D01*
X170897Y285036D01*
Y284267D01*
X171013Y283682D01*
X171345Y283186D01*
X172147Y282383D01*
X172643Y282052D01*
X173228Y281935D01*
X189759D01*
X189856Y281699D01*
X190417Y280968D01*
X191148Y280407D01*
X192000Y280055D01*
X192913Y279934D01*
X193827Y280055D01*
X194678Y280407D01*
X195410Y280968D01*
X195971Y281699D01*
X196323Y282551D01*
X196444Y283465D01*
X196323Y284378D01*
X195971Y285230D01*
X195410Y285961D01*
X194678Y286522D01*
X193827Y286875D01*
X192913Y286995D01*
X192000Y286875D01*
X191148Y286522D01*
X190417Y285961D01*
X189856Y285230D01*
X189759Y284994D01*
X184176D01*
X183908Y285494D01*
X184220Y285960D01*
X184389Y286811D01*
Y289567D01*
X184220Y290418D01*
X183738Y291139D01*
X183695Y291168D01*
Y291944D01*
X183578Y292530D01*
X183247Y293026D01*
X176600Y299673D01*
X176488Y300520D01*
X176136Y301371D01*
X175575Y302102D01*
X174844Y302663D01*
X173992Y303016D01*
X173079Y303136D01*
D02*
G37*
G36*
X486181D02*
X485268Y303016D01*
X484416Y302663D01*
X483685Y302102D01*
X483124Y301371D01*
X482772Y300520D01*
X482651Y299606D01*
X482772Y298693D01*
X483124Y297841D01*
X483685Y297110D01*
X484046Y296833D01*
Y291342D01*
X483743Y291139D01*
X483260Y290418D01*
X483091Y289567D01*
Y286811D01*
X483260Y285960D01*
X483743Y285239D01*
X484464Y284756D01*
X485315Y284587D01*
X486166Y284756D01*
X486887Y285239D01*
X487369Y285960D01*
X487539Y286811D01*
Y289567D01*
X487369Y290418D01*
X487105Y290814D01*
Y296200D01*
X487947Y296549D01*
X488678Y297110D01*
X489239Y297841D01*
X489591Y298693D01*
X489712Y299606D01*
X489591Y300520D01*
X489239Y301371D01*
X488678Y302102D01*
X487947Y302663D01*
X487095Y303016D01*
X486181Y303136D01*
D02*
G37*
G36*
X450826Y302743D02*
X449913Y302623D01*
X449061Y302270D01*
X448330Y301709D01*
X447769Y300978D01*
X447416Y300126D01*
X447296Y299213D01*
X447416Y298299D01*
X447769Y297447D01*
X448330Y296716D01*
X449061Y296155D01*
X449913Y295803D01*
X450826Y295682D01*
X451740Y295803D01*
X451976Y295900D01*
X456226Y291650D01*
Y291168D01*
X456183Y291139D01*
X455701Y290418D01*
X455532Y289567D01*
Y286811D01*
X455701Y285960D01*
X456183Y285239D01*
X456905Y284756D01*
X457756Y284587D01*
X458607Y284756D01*
X459328Y285239D01*
X459810Y285960D01*
X459980Y286811D01*
Y289567D01*
X459810Y290418D01*
X459328Y291139D01*
X459285Y291168D01*
Y292283D01*
X459169Y292868D01*
X458837Y293365D01*
X454139Y298063D01*
X454236Y298299D01*
X454357Y299213D01*
X454236Y300126D01*
X453884Y300978D01*
X453323Y301709D01*
X452592Y302270D01*
X451740Y302623D01*
X450826Y302743D01*
D02*
G37*
G36*
X292126Y303136D02*
X291212Y303016D01*
X290361Y302663D01*
X289630Y302102D01*
X289069Y301371D01*
X288716Y300520D01*
X288596Y299606D01*
X288716Y298693D01*
X289069Y297841D01*
X289630Y297110D01*
X290361Y296549D01*
X290734Y296394D01*
Y290998D01*
X290347Y290418D01*
X290178Y289567D01*
Y286811D01*
X290347Y285960D01*
X290829Y285239D01*
X291551Y284756D01*
X292402Y284587D01*
X293253Y284756D01*
X293974Y285239D01*
X294456Y285960D01*
X294625Y286811D01*
Y289567D01*
X294456Y290418D01*
X293974Y291139D01*
X293793Y291260D01*
Y296509D01*
X293891Y296549D01*
X294622Y297110D01*
X295183Y297841D01*
X295536Y298693D01*
X295656Y299606D01*
X295536Y300520D01*
X295183Y301371D01*
X294622Y302102D01*
X293891Y302663D01*
X293040Y303016D01*
X292126Y303136D01*
D02*
G37*
G36*
X250000Y303924D02*
X249086Y303804D01*
X248235Y303451D01*
X247504Y302890D01*
X246943Y302159D01*
X246590Y301307D01*
X246535Y300891D01*
X246263Y300710D01*
X237334Y291781D01*
X237283Y291791D01*
X236432Y291621D01*
X235711Y291139D01*
X235229Y290418D01*
X235060Y289567D01*
Y286811D01*
X235167Y286270D01*
X234959Y286104D01*
X234708Y286016D01*
X234049Y286522D01*
X233197Y286875D01*
X232283Y286995D01*
X231370Y286875D01*
X230518Y286522D01*
X229859Y286016D01*
X229608Y286104D01*
X229400Y286270D01*
X229507Y286811D01*
Y289567D01*
X229338Y290418D01*
X228856Y291139D01*
X228134Y291621D01*
X227284Y291791D01*
X226432Y291621D01*
X225711Y291139D01*
X225229Y290418D01*
X225060Y289567D01*
Y286811D01*
X225229Y285960D01*
X225711Y285239D01*
X226015Y285036D01*
Y284267D01*
X226099Y283841D01*
X225632Y283629D01*
X225380Y283957D01*
X224649Y284518D01*
X223798Y284871D01*
X222884Y284991D01*
X221970Y284871D01*
X221119Y284518D01*
X220388Y283957D01*
X219827Y283226D01*
X219474Y282375D01*
X219354Y281461D01*
X219474Y280547D01*
X219827Y279696D01*
X220388Y278965D01*
X221119Y278404D01*
X221970Y278051D01*
X222884Y277931D01*
X223798Y278051D01*
X224649Y278404D01*
X225380Y278965D01*
X225941Y279696D01*
X226294Y280547D01*
X226414Y281461D01*
X226294Y282375D01*
X226083Y282884D01*
X226463Y283186D01*
X227265Y282383D01*
X227761Y282052D01*
X228346Y281935D01*
X229129D01*
X229226Y281699D01*
X229787Y280968D01*
X230518Y280407D01*
X231370Y280055D01*
X232283Y279934D01*
X233197Y280055D01*
X234049Y280407D01*
X234780Y280968D01*
X235341Y281699D01*
X235693Y282551D01*
X235814Y283465D01*
X235693Y284378D01*
X235538Y284753D01*
X235942Y285084D01*
X236432Y284756D01*
X237283Y284587D01*
X238135Y284756D01*
X238856Y285239D01*
X239338Y285960D01*
X239507Y286811D01*
Y289567D01*
X239497Y289618D01*
X247658Y297779D01*
X248235Y297337D01*
X249086Y296984D01*
X250000Y296864D01*
X250517Y296932D01*
X250591Y296879D01*
X250846Y296470D01*
X250566Y295796D01*
X250446Y294882D01*
X250566Y293968D01*
X250919Y293117D01*
X251480Y292386D01*
X252211Y291825D01*
X252964Y291513D01*
X252998Y291472D01*
X253108Y291199D01*
X253148Y290956D01*
X252788Y290418D01*
X252619Y289567D01*
Y286811D01*
X252788Y285960D01*
X253270Y285239D01*
X253313Y285210D01*
Y280591D01*
X253430Y280005D01*
X253761Y279509D01*
X254824Y278446D01*
X255320Y278115D01*
X255906Y277998D01*
X272442D01*
X272533Y277779D01*
X273094Y277047D01*
X273826Y276486D01*
X274677Y276134D01*
X275590Y276013D01*
X276504Y276134D01*
X277356Y276486D01*
X278087Y277047D01*
X278648Y277779D01*
X279000Y278630D01*
X279121Y279544D01*
X279000Y280457D01*
X278648Y281309D01*
X278087Y282040D01*
X277356Y282601D01*
X276504Y282954D01*
X275590Y283074D01*
X274677Y282954D01*
X273826Y282601D01*
X273094Y282040D01*
X272533Y281309D01*
X272429Y281057D01*
X256539D01*
X256372Y281224D01*
Y285210D01*
X256415Y285239D01*
X256897Y285960D01*
X257066Y286811D01*
Y289567D01*
X256897Y290418D01*
X256415Y291139D01*
X256001Y291416D01*
X255996Y292021D01*
X256472Y292386D01*
X257033Y293117D01*
X257131Y293353D01*
X261177D01*
X262985Y291545D01*
X263270Y291139D01*
X262788Y290418D01*
X262619Y289567D01*
Y286811D01*
X262788Y285960D01*
X263270Y285239D01*
X263991Y284756D01*
X264843Y284587D01*
X265693Y284756D01*
X266415Y285239D01*
X266897Y285960D01*
X267066Y286811D01*
Y289567D01*
X266897Y290418D01*
X266415Y291139D01*
X266372Y291168D01*
Y291850D01*
X266255Y292436D01*
X265924Y292932D01*
X262893Y295963D01*
X262396Y296295D01*
X261811Y296411D01*
X257131D01*
X257033Y296647D01*
X256472Y297378D01*
X255741Y297939D01*
X254890Y298292D01*
X253976Y298412D01*
X253459Y298344D01*
X253385Y298397D01*
X253130Y298805D01*
X253410Y299480D01*
X253530Y300394D01*
X253410Y301307D01*
X253057Y302159D01*
X252496Y302890D01*
X251765Y303451D01*
X250914Y303804D01*
X250000Y303924D01*
D02*
G37*
G36*
X210591Y301168D02*
X209677Y301048D01*
X208826Y300695D01*
X208095Y300134D01*
X207534Y299403D01*
X207181Y298552D01*
X207061Y297638D01*
X207181Y296724D01*
X207534Y295873D01*
X208095Y295142D01*
X208456Y294865D01*
Y291342D01*
X208152Y291139D01*
X207670Y290418D01*
X207501Y289567D01*
Y286811D01*
X207670Y285960D01*
X208152Y285239D01*
X208873Y284756D01*
X209724Y284587D01*
X210575Y284756D01*
X211297Y285239D01*
X211779Y285960D01*
X211948Y286811D01*
Y289567D01*
X211779Y290418D01*
X211514Y290814D01*
Y294232D01*
X212356Y294581D01*
X213087Y295142D01*
X213648Y295873D01*
X214001Y296724D01*
X214121Y297638D01*
X214001Y298552D01*
X213648Y299403D01*
X213087Y300134D01*
X212356Y300695D01*
X211505Y301048D01*
X210591Y301168D01*
D02*
G37*
G36*
X347201Y288598D02*
X336461D01*
Y283753D01*
X335961Y283506D01*
X335623Y283765D01*
X334771Y284118D01*
X333858Y284238D01*
X332944Y284118D01*
X332092Y283765D01*
X331361Y283204D01*
X330800Y282473D01*
X330448Y281622D01*
X330327Y280708D01*
X330448Y279794D01*
X330800Y278943D01*
X331361Y278212D01*
X332092Y277651D01*
X332167Y277620D01*
X332068Y277120D01*
X328538D01*
X327953Y277004D01*
X327457Y276672D01*
X326871Y276086D01*
X326540Y275590D01*
X326423Y275005D01*
Y229088D01*
X322154D01*
X322015Y229788D01*
X321533Y230509D01*
X320812Y230992D01*
X319961Y231161D01*
X319110Y230992D01*
X318388Y230509D01*
X317906Y229788D01*
X317737Y228937D01*
Y226181D01*
X317906Y225330D01*
X318388Y224609D01*
X319110Y224127D01*
X319961Y223957D01*
X320812Y224127D01*
X321533Y224609D01*
X322015Y225330D01*
X322154Y226030D01*
X327367D01*
X327952Y226146D01*
X328448Y226478D01*
X329034Y227063D01*
X329366Y227560D01*
X329482Y228145D01*
Y232541D01*
X329982Y232787D01*
X330518Y232376D01*
X331370Y232023D01*
X332283Y231903D01*
X333197Y232023D01*
X334049Y232376D01*
X334780Y232937D01*
X335341Y233668D01*
X335504Y234061D01*
X336461D01*
Y232583D01*
X347201D01*
Y238598D01*
X336461D01*
Y237120D01*
X335373D01*
X335341Y237198D01*
X334780Y237929D01*
X334049Y238490D01*
X333197Y238843D01*
X332283Y238963D01*
X331370Y238843D01*
X330518Y238490D01*
X329982Y238079D01*
X329482Y238325D01*
Y274061D01*
X336461D01*
Y272583D01*
X347201D01*
Y278598D01*
X337224D01*
X336979Y279098D01*
X337267Y279794D01*
X337388Y280708D01*
X337267Y281622D01*
X337077Y282083D01*
X337411Y282583D01*
X347201D01*
Y284061D01*
X356738D01*
Y280113D01*
X356855Y279528D01*
X357186Y279032D01*
X357772Y278446D01*
X358268Y278115D01*
X358854Y277998D01*
X372797D01*
X373549Y277245D01*
Y273845D01*
X373506Y273817D01*
X373024Y273095D01*
X372855Y272244D01*
Y269488D01*
X373024Y268637D01*
X373506Y267916D01*
X374228Y267434D01*
X375079Y267264D01*
X375930Y267434D01*
X376651Y267916D01*
X377133Y268637D01*
X377303Y269488D01*
Y272244D01*
X377133Y273095D01*
X376651Y273817D01*
X376608Y273845D01*
Y277879D01*
X376492Y278464D01*
X376160Y278960D01*
X374511Y280609D01*
X374015Y280941D01*
X373430Y281057D01*
X359797D01*
Y285005D01*
X359681Y285590D01*
X359349Y286086D01*
X358763Y286672D01*
X358267Y287003D01*
X357682Y287120D01*
X347201D01*
Y288598D01*
D02*
G37*
G36*
X307087Y324364D02*
X292987D01*
X292402Y324248D01*
X291906Y323916D01*
X291320Y323330D01*
X290989Y322834D01*
X290872Y322249D01*
Y313215D01*
X290829Y313187D01*
X290347Y312465D01*
X290178Y311614D01*
Y308858D01*
X290347Y308007D01*
X290829Y307286D01*
X291551Y306804D01*
X292402Y306634D01*
X293253Y306804D01*
X293974Y307286D01*
X294456Y308007D01*
X294625Y308858D01*
Y311614D01*
X294456Y312465D01*
X293974Y313187D01*
X293931Y313215D01*
Y321305D01*
X305557D01*
Y286176D01*
X305674Y285591D01*
X306005Y285095D01*
X306591Y284509D01*
X307087Y284178D01*
X307672Y284061D01*
X314216D01*
Y282583D01*
X324957D01*
Y288598D01*
X314216D01*
Y287120D01*
X308616D01*
Y322835D01*
X308500Y323420D01*
X308168Y323916D01*
X307672Y324248D01*
X307087Y324364D01*
D02*
G37*
G36*
X447756Y291791D02*
X446905Y291621D01*
X446183Y291139D01*
X445701Y290418D01*
X445532Y289567D01*
Y286811D01*
X445701Y285960D01*
X445990Y285528D01*
X445762Y285230D01*
X445409Y284378D01*
X445289Y283465D01*
X445409Y282551D01*
X445762Y281699D01*
X446323Y280968D01*
X447054Y280407D01*
X447905Y280055D01*
X448819Y279934D01*
X449733Y280055D01*
X450584Y280407D01*
X451315Y280968D01*
X451876Y281699D01*
X452229Y282551D01*
X452349Y283465D01*
X452229Y284378D01*
X451876Y285230D01*
X451315Y285961D01*
X450584Y286522D01*
X450348Y286619D01*
Y287126D01*
X450232Y287711D01*
X449980Y288089D01*
Y289567D01*
X449811Y290418D01*
X449328Y291139D01*
X448607Y291621D01*
X447756Y291791D01*
D02*
G37*
G36*
X392638D02*
X391787Y291621D01*
X391065Y291139D01*
X390583Y290418D01*
X390414Y289567D01*
Y286811D01*
X390583Y285960D01*
X390872Y285528D01*
X390644Y285230D01*
X390291Y284378D01*
X390171Y283465D01*
X390291Y282551D01*
X390644Y281699D01*
X391205Y280968D01*
X391936Y280407D01*
X392787Y280055D01*
X393701Y279934D01*
X394615Y280055D01*
X395466Y280407D01*
X396197Y280968D01*
X396758Y281699D01*
X397111Y282551D01*
X397231Y283465D01*
X397111Y284378D01*
X396758Y285230D01*
X396197Y285961D01*
X395466Y286522D01*
X394854Y286775D01*
X394862Y286811D01*
Y289567D01*
X394692Y290418D01*
X394210Y291139D01*
X393489Y291621D01*
X392638Y291791D01*
D02*
G37*
G36*
X420197D02*
X419346Y291621D01*
X418624Y291139D01*
X418142Y290418D01*
X417973Y289567D01*
Y286811D01*
X418142Y285960D01*
X418624Y285239D01*
X418632Y285190D01*
X418442Y284942D01*
X418090Y284091D01*
X417970Y283177D01*
X418090Y282264D01*
X418442Y281412D01*
X419003Y280681D01*
X419735Y280120D01*
X420586Y279767D01*
X421500Y279647D01*
X422413Y279767D01*
X423265Y280120D01*
X423996Y280681D01*
X424557Y281412D01*
X424910Y282264D01*
X425030Y283177D01*
X424910Y284091D01*
X424557Y284942D01*
X423996Y285673D01*
X423265Y286234D01*
X422413Y286587D01*
X422384Y286628D01*
X422421Y286811D01*
Y289567D01*
X422251Y290418D01*
X421769Y291139D01*
X421048Y291621D01*
X420197Y291791D01*
D02*
G37*
G36*
X384820Y285730D02*
X383906Y285609D01*
X383055Y285257D01*
X382324Y284696D01*
X381763Y283964D01*
X381410Y283113D01*
X381290Y282199D01*
X381410Y281286D01*
X381763Y280434D01*
X382324Y279703D01*
X383055Y279142D01*
X383906Y278789D01*
X384820Y278669D01*
X385734Y278789D01*
X386585Y279142D01*
X387316Y279703D01*
X387877Y280434D01*
X388230Y281286D01*
X388350Y282199D01*
X388230Y283113D01*
X387877Y283964D01*
X387316Y284696D01*
X386585Y285257D01*
X385734Y285609D01*
X384820Y285730D01*
D02*
G37*
G36*
X475315Y291791D02*
X474464Y291621D01*
X473742Y291139D01*
X473260Y290418D01*
X473091Y289567D01*
Y286811D01*
X473260Y285960D01*
X473742Y285239D01*
X473748Y285235D01*
Y284425D01*
X473474Y284311D01*
X472743Y283750D01*
X472182Y283019D01*
X471830Y282168D01*
X471709Y281254D01*
X471830Y280341D01*
X472182Y279489D01*
X472743Y278758D01*
X473474Y278197D01*
X474326Y277844D01*
X475239Y277724D01*
X476153Y277844D01*
X477004Y278197D01*
X477736Y278758D01*
X478297Y279489D01*
X478649Y280341D01*
X478770Y281254D01*
X478649Y282168D01*
X478297Y283019D01*
X477736Y283750D01*
X477004Y284311D01*
X476807Y284393D01*
Y285185D01*
X476887Y285239D01*
X477369Y285960D01*
X477539Y286811D01*
Y289567D01*
X477369Y290418D01*
X476887Y291139D01*
X476166Y291621D01*
X475315Y291791D01*
D02*
G37*
G36*
X199724D02*
X198873Y291621D01*
X198152Y291139D01*
X197670Y290418D01*
X197501Y289567D01*
Y286811D01*
X197670Y285960D01*
X198152Y285239D01*
X198339Y285114D01*
Y283217D01*
X198247Y283178D01*
X197516Y282617D01*
X196955Y281886D01*
X196602Y281035D01*
X196482Y280121D01*
X196602Y279208D01*
X196955Y278356D01*
X197516Y277625D01*
X198247Y277064D01*
X199098Y276711D01*
X200012Y276591D01*
X200925Y276711D01*
X201777Y277064D01*
X202508Y277625D01*
X203069Y278356D01*
X203422Y279208D01*
X203542Y280121D01*
X203422Y281035D01*
X203069Y281886D01*
X202508Y282617D01*
X201777Y283178D01*
X201397Y283336D01*
Y285389D01*
X201779Y285960D01*
X201948Y286811D01*
Y289567D01*
X201779Y290418D01*
X201297Y291139D01*
X200575Y291621D01*
X199724Y291791D01*
D02*
G37*
G36*
X282402D02*
X281551Y291621D01*
X280829Y291139D01*
X280347Y290418D01*
X280178Y289567D01*
Y286811D01*
X280347Y285960D01*
X280829Y285239D01*
X280872Y285210D01*
Y280591D01*
X280989Y280005D01*
X281320Y279509D01*
X282383Y278446D01*
X282879Y278115D01*
X283465Y277998D01*
X288184D01*
X288281Y277763D01*
X288842Y277031D01*
X289574Y276470D01*
X290425Y276118D01*
X291339Y275997D01*
X292252Y276118D01*
X293104Y276470D01*
X293835Y277031D01*
X294396Y277763D01*
X294748Y278614D01*
X294869Y279528D01*
X294748Y280441D01*
X294396Y281293D01*
X293835Y282024D01*
X293104Y282585D01*
X292252Y282938D01*
X291339Y283058D01*
X290425Y282938D01*
X289574Y282585D01*
X288842Y282024D01*
X288281Y281293D01*
X288184Y281057D01*
X284098D01*
X283931Y281224D01*
Y285210D01*
X283974Y285239D01*
X284456Y285960D01*
X284625Y286811D01*
Y289567D01*
X284456Y290418D01*
X283974Y291139D01*
X283253Y291621D01*
X282402Y291791D01*
D02*
G37*
G36*
X463800Y282995D02*
X462887Y282874D01*
X462035Y282522D01*
X461304Y281961D01*
X460743Y281230D01*
X460390Y280378D01*
X460270Y279465D01*
X460390Y278551D01*
X460743Y277699D01*
X461304Y276968D01*
X462035Y276407D01*
X462887Y276055D01*
X463800Y275934D01*
X464714Y276055D01*
X465565Y276407D01*
X466297Y276968D01*
X466858Y277699D01*
X467210Y278551D01*
X467331Y279465D01*
X467210Y280378D01*
X466858Y281230D01*
X466297Y281961D01*
X465565Y282522D01*
X464714Y282874D01*
X463800Y282995D01*
D02*
G37*
G36*
X430197Y291791D02*
X429346Y291621D01*
X428624Y291139D01*
X428142Y290418D01*
X427973Y289567D01*
Y286811D01*
X428142Y285960D01*
X428600Y285275D01*
Y282368D01*
X428297Y282243D01*
X427566Y281682D01*
X427005Y280950D01*
X426653Y280099D01*
X426532Y279185D01*
X426653Y278272D01*
X427005Y277420D01*
X427566Y276689D01*
X428297Y276128D01*
X429149Y275776D01*
X430062Y275655D01*
X430976Y275776D01*
X431828Y276128D01*
X432559Y276689D01*
X433120Y277420D01*
X433472Y278272D01*
X433593Y279185D01*
X433472Y280099D01*
X433120Y280950D01*
X432559Y281682D01*
X431828Y282243D01*
X431659Y282312D01*
Y285165D01*
X431769Y285239D01*
X432251Y285960D01*
X432421Y286811D01*
Y289567D01*
X432251Y290418D01*
X431769Y291139D01*
X431048Y291621D01*
X430197Y291791D01*
D02*
G37*
G36*
X324957Y278598D02*
X314216D01*
Y277120D01*
X299798D01*
X299213Y277004D01*
X298717Y276672D01*
X298131Y276086D01*
X297800Y275590D01*
X297683Y275005D01*
Y272395D01*
X294595D01*
X294456Y273095D01*
X293974Y273817D01*
X293253Y274299D01*
X292402Y274468D01*
X291551Y274299D01*
X290829Y273817D01*
X290347Y273095D01*
X290178Y272244D01*
Y269488D01*
X290347Y268637D01*
X290829Y267916D01*
X291551Y267434D01*
X292402Y267264D01*
X293253Y267434D01*
X293974Y267916D01*
X294456Y268637D01*
X294595Y269337D01*
X298425D01*
X299010Y269453D01*
X299507Y269785D01*
X300294Y270572D01*
X300626Y271068D01*
X300742Y271654D01*
Y274061D01*
X314216D01*
Y272583D01*
X324957D01*
Y278598D01*
D02*
G37*
G36*
X282402Y274468D02*
X281551Y274299D01*
X280829Y273817D01*
X280347Y273095D01*
X280208Y272395D01*
X272785D01*
X272536Y272720D01*
X271805Y273281D01*
X270953Y273634D01*
X270040Y273754D01*
X269126Y273634D01*
X268274Y273281D01*
X267543Y272720D01*
X266982Y271989D01*
X266630Y271137D01*
X266509Y270224D01*
X266630Y269310D01*
X266982Y268459D01*
X267543Y267727D01*
X268274Y267166D01*
X269126Y266814D01*
X270040Y266693D01*
X270953Y266814D01*
X271805Y267166D01*
X272536Y267727D01*
X273097Y268459D01*
X273449Y269310D01*
X273453Y269337D01*
X280208D01*
X280347Y268637D01*
X280829Y267916D01*
X281551Y267434D01*
X282402Y267264D01*
X283253Y267434D01*
X283974Y267916D01*
X284456Y268637D01*
X284625Y269488D01*
Y272244D01*
X284456Y273095D01*
X283974Y273817D01*
X283253Y274299D01*
X282402Y274468D01*
D02*
G37*
G36*
X324957Y268598D02*
X314216D01*
Y267120D01*
X302161D01*
X301575Y267003D01*
X301079Y266672D01*
X300493Y266086D01*
X300162Y265590D01*
X300106Y265309D01*
X240743D01*
X240158Y265193D01*
X239662Y264861D01*
X239076Y264275D01*
X238744Y263779D01*
X238628Y263194D01*
Y231192D01*
X238187Y230956D01*
X238135Y230992D01*
X237283Y231161D01*
X236432Y230992D01*
X235711Y230509D01*
X235229Y229788D01*
X235060Y228937D01*
Y226181D01*
X235229Y225330D01*
X235711Y224609D01*
X236432Y224127D01*
X237283Y223957D01*
X238135Y224127D01*
X238856Y224609D01*
X239338Y225330D01*
X239507Y226181D01*
Y226817D01*
X240158D01*
X240743Y226934D01*
X241239Y227265D01*
X241570Y227761D01*
X241687Y228346D01*
Y262250D01*
X301575D01*
X302160Y262367D01*
X302656Y262698D01*
X302988Y263194D01*
X303104Y263779D01*
Y264061D01*
X314216D01*
Y262583D01*
X324957D01*
Y268598D01*
D02*
G37*
G36*
X365079Y274468D02*
X364228Y274299D01*
X363506Y273817D01*
X363024Y273095D01*
X362855Y272244D01*
Y269488D01*
X363024Y268637D01*
X363506Y267916D01*
X363549Y267887D01*
Y264016D01*
X363666Y263431D01*
X363997Y262935D01*
X364759Y262173D01*
X364661Y261937D01*
X364541Y261024D01*
X364661Y260110D01*
X365014Y259259D01*
X365575Y258527D01*
X366306Y257966D01*
X367158Y257614D01*
X368071Y257493D01*
X368985Y257614D01*
X369836Y257966D01*
X370567Y258527D01*
X371129Y259259D01*
X371481Y260110D01*
X371602Y261024D01*
X371481Y261937D01*
X371129Y262789D01*
X370567Y263520D01*
X369836Y264081D01*
X368985Y264434D01*
X368071Y264554D01*
X367158Y264434D01*
X366990Y264364D01*
X366608Y264675D01*
Y267887D01*
X366651Y267916D01*
X367133Y268637D01*
X367303Y269488D01*
Y272244D01*
X367133Y273095D01*
X366651Y273817D01*
X365930Y274299D01*
X365079Y274468D01*
D02*
G37*
G36*
X292800Y261372D02*
X268302D01*
X267717Y261256D01*
X267221Y260924D01*
X266635Y260338D01*
X266304Y259842D01*
X266187Y259257D01*
Y242175D01*
X265687Y242076D01*
X265561Y242380D01*
X265000Y243112D01*
X264269Y243673D01*
X263417Y244025D01*
X262504Y244146D01*
X261590Y244025D01*
X260739Y243673D01*
X260008Y243112D01*
X259447Y242380D01*
X259094Y241529D01*
X258974Y240615D01*
X259094Y239702D01*
X259447Y238850D01*
X260008Y238119D01*
X260739Y237558D01*
X261590Y237206D01*
X262504Y237085D01*
X263417Y237206D01*
X264269Y237558D01*
X265000Y238119D01*
X265561Y238850D01*
X265687Y239155D01*
X266187Y239055D01*
Y231192D01*
X265746Y230956D01*
X265693Y230992D01*
X264843Y231161D01*
X263991Y230992D01*
X263270Y230509D01*
X262788Y229788D01*
X262619Y228937D01*
Y226181D01*
X262788Y225330D01*
X263270Y224609D01*
X263991Y224127D01*
X264843Y223957D01*
X265693Y224127D01*
X266415Y224609D01*
X266897Y225330D01*
X267066Y226181D01*
Y226817D01*
X267717D01*
X268302Y226934D01*
X268798Y227265D01*
X269129Y227761D01*
X269246Y228346D01*
Y258313D01*
X291564D01*
X291651Y257830D01*
X290800Y257477D01*
X290069Y256916D01*
X289508Y256185D01*
X289155Y255334D01*
X289035Y254420D01*
X289155Y253506D01*
X289508Y252655D01*
X290069Y251924D01*
X290640Y251486D01*
X290347Y251048D01*
X290178Y250197D01*
Y247441D01*
X290347Y246590D01*
X290829Y245868D01*
X291551Y245386D01*
X292402Y245217D01*
X293253Y245386D01*
X293974Y245868D01*
X294456Y246590D01*
X294625Y247441D01*
Y250197D01*
X294456Y251048D01*
X294304Y251276D01*
X294330Y251363D01*
X295061Y251924D01*
X295622Y252655D01*
X295975Y253506D01*
X296023Y253872D01*
X296305Y254066D01*
X296565Y254158D01*
X297052Y254061D01*
X314216D01*
Y252583D01*
X324957D01*
Y258598D01*
X314216D01*
Y257120D01*
X297685D01*
X293881Y260924D01*
X293385Y261256D01*
X292800Y261372D01*
D02*
G37*
G36*
X424026Y248557D02*
X423112Y248436D01*
X422261Y248084D01*
X421530Y247523D01*
X420969Y246792D01*
X420616Y245940D01*
X420496Y245027D01*
X420616Y244113D01*
X420969Y243262D01*
X421530Y242530D01*
X422261Y241969D01*
X423112Y241617D01*
X424026Y241496D01*
X424940Y241617D01*
X425791Y241969D01*
X426522Y242530D01*
X427083Y243262D01*
X427436Y244113D01*
X427556Y245027D01*
X427436Y245940D01*
X427083Y246792D01*
X426522Y247523D01*
X425791Y248084D01*
X424940Y248436D01*
X424026Y248557D01*
D02*
G37*
G36*
X188189Y248018D02*
X187275Y247898D01*
X186424Y247545D01*
X185693Y246984D01*
X185132Y246253D01*
X184779Y245402D01*
X184659Y244488D01*
X184779Y243575D01*
X185132Y242723D01*
X185693Y241992D01*
X186424Y241431D01*
X187275Y241078D01*
X188189Y240958D01*
X189103Y241078D01*
X189954Y241431D01*
X190685Y241992D01*
X191246Y242723D01*
X191599Y243575D01*
X191719Y244488D01*
X191599Y245402D01*
X191246Y246253D01*
X190685Y246984D01*
X189954Y247545D01*
X189103Y247898D01*
X188189Y248018D01*
D02*
G37*
G36*
X448819Y255499D02*
X447905Y255378D01*
X447054Y255026D01*
X446323Y254465D01*
X445762Y253734D01*
X445409Y252882D01*
X445289Y251969D01*
X445409Y251055D01*
X445762Y250203D01*
X446323Y249472D01*
X447054Y248911D01*
X447290Y248814D01*
Y240743D01*
X447406Y240158D01*
X447738Y239662D01*
X448036Y239363D01*
X447802Y238890D01*
X447244Y238963D01*
X446330Y238843D01*
X445479Y238490D01*
X444748Y237929D01*
X444187Y237198D01*
X443834Y236347D01*
X443714Y235433D01*
X443834Y234519D01*
X444187Y233668D01*
X444748Y232937D01*
X445479Y232376D01*
X445971Y232172D01*
Y230191D01*
X445701Y229788D01*
X445532Y228937D01*
Y226181D01*
X445701Y225330D01*
X446183Y224609D01*
X446905Y224127D01*
X447756Y223957D01*
X448607Y224127D01*
X449328Y224609D01*
X449811Y225330D01*
X449980Y226181D01*
Y228937D01*
X449811Y229788D01*
X449328Y230509D01*
X449029Y230709D01*
Y232391D01*
X449740Y232937D01*
X450301Y233668D01*
X450654Y234519D01*
X450774Y235433D01*
X450654Y236347D01*
X450301Y237198D01*
X449740Y237929D01*
X449481Y238128D01*
X449651Y238628D01*
X456059D01*
X456226Y238461D01*
Y230538D01*
X456183Y230509D01*
X455701Y229788D01*
X455532Y228937D01*
Y226181D01*
X455701Y225330D01*
X456183Y224609D01*
X456905Y224127D01*
X457756Y223957D01*
X458607Y224127D01*
X459328Y224609D01*
X459810Y225330D01*
X459980Y226181D01*
Y228937D01*
X459810Y229788D01*
X459328Y230509D01*
X459285Y230538D01*
Y239094D01*
X459169Y239680D01*
X458837Y240176D01*
X457774Y241239D01*
X457278Y241570D01*
X456693Y241687D01*
X450348D01*
Y248814D01*
X450584Y248911D01*
X451315Y249472D01*
X451876Y250203D01*
X452229Y251055D01*
X452349Y251969D01*
X452229Y252882D01*
X451876Y253734D01*
X451315Y254465D01*
X450584Y255026D01*
X449733Y255378D01*
X448819Y255499D01*
D02*
G37*
G36*
X282402Y252421D02*
X281551Y252251D01*
X280829Y251769D01*
X280347Y251048D01*
X280178Y250197D01*
Y247441D01*
X280347Y246590D01*
X280829Y245868D01*
X280872Y245840D01*
Y241220D01*
X280989Y240635D01*
X281320Y240139D01*
X282383Y239076D01*
X282879Y238744D01*
X283465Y238628D01*
X288184D01*
X288281Y238392D01*
X288842Y237661D01*
X289574Y237100D01*
X290425Y236748D01*
X291339Y236627D01*
X292252Y236748D01*
X293104Y237100D01*
X293835Y237661D01*
X294396Y238392D01*
X294748Y239244D01*
X294869Y240158D01*
X294748Y241071D01*
X294396Y241923D01*
X293835Y242654D01*
X293104Y243215D01*
X292252Y243567D01*
X291339Y243688D01*
X290425Y243567D01*
X289574Y243215D01*
X288842Y242654D01*
X288281Y241923D01*
X288184Y241687D01*
X284098D01*
X283931Y241854D01*
Y245840D01*
X283974Y245868D01*
X284456Y246590D01*
X284625Y247441D01*
Y250197D01*
X284456Y251048D01*
X283974Y251769D01*
X283253Y252251D01*
X282402Y252421D01*
D02*
G37*
G36*
X324957Y248598D02*
X314216D01*
Y247120D01*
X299798D01*
X299213Y247004D01*
X298717Y246672D01*
X298131Y246086D01*
X297800Y245590D01*
X297683Y245005D01*
Y229566D01*
X297206Y229088D01*
X294595D01*
X294456Y229788D01*
X293974Y230509D01*
X293253Y230992D01*
X292402Y231161D01*
X291551Y230992D01*
X290829Y230509D01*
X290347Y229788D01*
X290178Y228937D01*
Y226181D01*
X290347Y225330D01*
X290829Y224609D01*
X291551Y224127D01*
X292402Y223957D01*
X293253Y224127D01*
X293974Y224609D01*
X294456Y225330D01*
X294595Y226030D01*
X297839D01*
X298425Y226146D01*
X298921Y226478D01*
X300294Y227851D01*
X300626Y228347D01*
X300742Y228932D01*
Y244061D01*
X310041D01*
X310110Y243567D01*
X309259Y243215D01*
X308527Y242654D01*
X307966Y241923D01*
X307614Y241071D01*
X307493Y240158D01*
X307614Y239244D01*
X307966Y238392D01*
X308527Y237661D01*
X309259Y237100D01*
X310110Y236748D01*
X311024Y236627D01*
X311937Y236748D01*
X312789Y237100D01*
X313520Y237661D01*
X313717Y237918D01*
X314216Y237748D01*
Y232583D01*
X324957D01*
Y238598D01*
X322915D01*
X322637Y239014D01*
X322701Y239169D01*
X322821Y240083D01*
X322701Y240996D01*
X322349Y241848D01*
X322168Y242083D01*
X322415Y242583D01*
X324957D01*
Y248598D01*
D02*
G37*
G36*
X347201D02*
X336461D01*
Y242583D01*
X347201D01*
Y242783D01*
X348471D01*
Y231480D01*
X347971Y231071D01*
X347520Y231161D01*
X346669Y230992D01*
X345947Y230509D01*
X345465Y229788D01*
X345296Y228937D01*
Y226181D01*
X345465Y225330D01*
X345947Y224609D01*
X346669Y224127D01*
X347520Y223957D01*
X348371Y224127D01*
X349092Y224609D01*
X349574Y225330D01*
X349744Y226181D01*
Y227767D01*
X350186Y228062D01*
X351081Y228958D01*
X351413Y229454D01*
X351529Y230039D01*
Y243727D01*
X351413Y244312D01*
X351081Y244808D01*
X350496Y245394D01*
X349999Y245726D01*
X349414Y245842D01*
X347201D01*
Y248598D01*
D02*
G37*
G36*
X484991Y241133D02*
X484078Y241013D01*
X483226Y240660D01*
X482495Y240099D01*
X481934Y239368D01*
X481581Y238516D01*
X481461Y237603D01*
X481581Y236689D01*
X481934Y235838D01*
X482495Y235106D01*
X483226Y234545D01*
X483462Y234448D01*
Y230089D01*
X483260Y229788D01*
X483091Y228937D01*
Y226181D01*
X483260Y225330D01*
X483743Y224609D01*
X484464Y224127D01*
X485315Y223957D01*
X486166Y224127D01*
X486887Y224609D01*
X487369Y225330D01*
X487539Y226181D01*
Y228937D01*
X487369Y229788D01*
X486887Y230509D01*
X486521Y230755D01*
Y234448D01*
X486756Y234545D01*
X487487Y235106D01*
X488048Y235838D01*
X488401Y236689D01*
X488521Y237603D01*
X488401Y238516D01*
X488048Y239368D01*
X487487Y240099D01*
X486756Y240660D01*
X485905Y241013D01*
X484991Y241133D01*
D02*
G37*
G36*
X471260Y244869D02*
X470346Y244748D01*
X469495Y244396D01*
X468764Y243835D01*
X468203Y243104D01*
X467850Y242252D01*
X467730Y241339D01*
X467850Y240425D01*
X468203Y239574D01*
X468764Y238842D01*
X469495Y238281D01*
X470346Y237929D01*
X471260Y237808D01*
X471598Y237853D01*
X473786Y235666D01*
Y230538D01*
X473742Y230509D01*
X473260Y229788D01*
X473091Y228937D01*
Y226181D01*
X473260Y225330D01*
X473742Y224609D01*
X474464Y224127D01*
X475315Y223957D01*
X476166Y224127D01*
X476887Y224609D01*
X477369Y225330D01*
X477539Y226181D01*
Y228937D01*
X477369Y229788D01*
X476887Y230509D01*
X476844Y230538D01*
Y235737D01*
X476907Y236053D01*
Y236237D01*
X476791Y236822D01*
X476459Y237318D01*
X474268Y239509D01*
X474317Y239574D01*
X474670Y240425D01*
X474790Y241339D01*
X474670Y242252D01*
X474317Y243104D01*
X473756Y243835D01*
X473025Y244396D01*
X472174Y244748D01*
X471260Y244869D01*
D02*
G37*
G36*
X429134Y239751D02*
X428220Y239630D01*
X427369Y239278D01*
X426638Y238717D01*
X426077Y237986D01*
X425724Y237134D01*
X425604Y236221D01*
X425724Y235307D01*
X426077Y234455D01*
X426638Y233724D01*
X427369Y233163D01*
X428220Y232811D01*
X428667Y232752D01*
Y230538D01*
X428624Y230509D01*
X428142Y229788D01*
X427973Y228937D01*
Y226181D01*
X428142Y225330D01*
X428624Y224609D01*
X429346Y224127D01*
X430197Y223957D01*
X431048Y224127D01*
X431769Y224609D01*
X432251Y225330D01*
X432421Y226181D01*
Y228937D01*
X432251Y229788D01*
X431769Y230509D01*
X431726Y230538D01*
Y233850D01*
X432191Y234455D01*
X432544Y235307D01*
X432664Y236221D01*
X432544Y237134D01*
X432191Y237986D01*
X431630Y238717D01*
X430899Y239278D01*
X430048Y239630D01*
X429134Y239751D01*
D02*
G37*
G36*
X419309Y241716D02*
X418395Y241596D01*
X417544Y241244D01*
X416813Y240683D01*
X416252Y239951D01*
X415899Y239100D01*
X415779Y238186D01*
X415899Y237273D01*
X416252Y236421D01*
X416813Y235690D01*
X417544Y235129D01*
X418395Y234776D01*
X418668Y234740D01*
Y230538D01*
X418624Y230509D01*
X418142Y229788D01*
X417973Y228937D01*
Y226181D01*
X418142Y225330D01*
X418624Y224609D01*
X419346Y224127D01*
X420197Y223957D01*
X421048Y224127D01*
X421769Y224609D01*
X422251Y225330D01*
X422421Y226181D01*
Y228937D01*
X422251Y229788D01*
X421769Y230509D01*
X421726Y230538D01*
Y235629D01*
X421805Y235690D01*
X422366Y236421D01*
X422719Y237273D01*
X422839Y238186D01*
X422719Y239100D01*
X422366Y239951D01*
X421805Y240683D01*
X421074Y241244D01*
X420223Y241596D01*
X419309Y241716D01*
D02*
G37*
G36*
X347201Y268598D02*
X336461D01*
Y262583D01*
X347201D01*
Y264061D01*
X356738D01*
Y240743D01*
X356855Y240158D01*
X357186Y239662D01*
X357772Y239076D01*
X358268Y238744D01*
X358854Y238628D01*
X400941D01*
X401108Y238461D01*
Y230538D01*
X401065Y230509D01*
X400583Y229788D01*
X400414Y228937D01*
Y226181D01*
X400583Y225330D01*
X401065Y224609D01*
X401787Y224127D01*
X402638Y223957D01*
X403489Y224127D01*
X404210Y224609D01*
X404692Y225330D01*
X404862Y226181D01*
Y228937D01*
X404692Y229788D01*
X404210Y230509D01*
X404167Y230538D01*
Y239094D01*
X404051Y239680D01*
X403719Y240176D01*
X402656Y241239D01*
X402160Y241570D01*
X401575Y241687D01*
X385397D01*
X385227Y242187D01*
X385567Y242447D01*
X386128Y243179D01*
X386481Y244030D01*
X386601Y244944D01*
X386481Y245857D01*
X386128Y246709D01*
X385567Y247440D01*
X384836Y248001D01*
X383984Y248354D01*
X383071Y248474D01*
X382157Y248354D01*
X381922Y248256D01*
X380277Y249900D01*
X379781Y250232D01*
X379196Y250348D01*
X377272D01*
X377133Y251048D01*
X376651Y251769D01*
X375930Y252251D01*
X375079Y252421D01*
X374228Y252251D01*
X373506Y251769D01*
X373024Y251048D01*
X372855Y250197D01*
Y249543D01*
X372355Y249444D01*
X372164Y249905D01*
X371603Y250637D01*
X370871Y251198D01*
X370020Y251550D01*
X369106Y251670D01*
X368193Y251550D01*
X367535Y251278D01*
X367341Y251198D01*
X366859Y251458D01*
X366651Y251769D01*
X365930Y252251D01*
X365079Y252421D01*
X364228Y252251D01*
X363506Y251769D01*
X363024Y251048D01*
X362855Y250197D01*
Y247441D01*
X363024Y246590D01*
X363506Y245868D01*
X364228Y245386D01*
X365079Y245217D01*
X365930Y245386D01*
X366510Y245774D01*
X366610Y245644D01*
X367341Y245083D01*
X368193Y244730D01*
X369106Y244610D01*
X370020Y244730D01*
X370871Y245083D01*
X371603Y245644D01*
X372164Y246375D01*
X372429Y247017D01*
X372950Y246966D01*
X373024Y246590D01*
X373506Y245868D01*
X374228Y245386D01*
X375079Y245217D01*
X375930Y245386D01*
X376651Y245868D01*
X377133Y246590D01*
X377272Y247289D01*
X378562D01*
X379759Y246093D01*
X379661Y245857D01*
X379541Y244944D01*
X379661Y244030D01*
X380014Y243179D01*
X380575Y242447D01*
X380914Y242187D01*
X380745Y241687D01*
X359797D01*
Y265354D01*
X359681Y265940D01*
X359349Y266436D01*
X359113Y266672D01*
X358617Y267003D01*
X358032Y267120D01*
X347201D01*
Y268598D01*
D02*
G37*
G36*
X389187Y237987D02*
X388273Y237866D01*
X387422Y237514D01*
X386690Y236953D01*
X386129Y236222D01*
X385777Y235370D01*
X385657Y234456D01*
X385777Y233543D01*
X386129Y232691D01*
X386690Y231960D01*
X387422Y231399D01*
X388273Y231047D01*
X388558Y231009D01*
X388871Y230541D01*
X390424Y228988D01*
X390414Y228937D01*
Y226181D01*
X390583Y225330D01*
X391065Y224609D01*
X391787Y224127D01*
X392638Y223957D01*
X393489Y224127D01*
X394210Y224609D01*
X394692Y225330D01*
X394862Y226181D01*
Y228937D01*
X394692Y229788D01*
X394210Y230509D01*
X393489Y230992D01*
X392638Y231161D01*
X392587Y231151D01*
X391724Y232014D01*
X392244Y232691D01*
X392597Y233543D01*
X392717Y234456D01*
X392597Y235370D01*
X392244Y236222D01*
X391683Y236953D01*
X390952Y237514D01*
X390101Y237866D01*
X389187Y237987D01*
D02*
G37*
G36*
X347201Y258598D02*
X336461D01*
Y252583D01*
X347201D01*
Y254061D01*
X352801D01*
Y236806D01*
X352918Y236221D01*
X353249Y235725D01*
X353835Y235139D01*
X354331Y234807D01*
X354917Y234691D01*
X373382D01*
X373549Y234524D01*
Y230538D01*
X373506Y230509D01*
X373024Y229788D01*
X372855Y228937D01*
Y226181D01*
X373024Y225330D01*
X373506Y224609D01*
X374228Y224127D01*
X375079Y223957D01*
X375930Y224127D01*
X376651Y224609D01*
X377133Y225330D01*
X377303Y226181D01*
Y228937D01*
X377133Y229788D01*
X376651Y230509D01*
X376608Y230538D01*
Y235157D01*
X376492Y235743D01*
X376160Y236239D01*
X375097Y237302D01*
X374601Y237633D01*
X374016Y237750D01*
X355860D01*
Y255512D01*
X355744Y256097D01*
X355412Y256593D01*
X355333Y256672D01*
X354837Y257003D01*
X354252Y257120D01*
X347201D01*
Y258598D01*
D02*
G37*
G36*
X278393Y239767D02*
X277479Y239647D01*
X276628Y239294D01*
X275897Y238733D01*
X275336Y238002D01*
X274983Y237150D01*
X274863Y236237D01*
X274983Y235323D01*
X275336Y234472D01*
X275897Y233740D01*
X276628Y233179D01*
X277131Y232971D01*
X277312Y232701D01*
X280327Y229686D01*
X280178Y228937D01*
Y226181D01*
X280347Y225330D01*
X280829Y224609D01*
X281551Y224127D01*
X282402Y223957D01*
X283253Y224127D01*
X283974Y224609D01*
X284456Y225330D01*
X284625Y226181D01*
Y228937D01*
X284456Y229788D01*
X283974Y230509D01*
X283504Y230823D01*
X283483Y230855D01*
X280871Y233467D01*
X280889Y233740D01*
X281450Y234472D01*
X281803Y235323D01*
X281923Y236237D01*
X281803Y237150D01*
X281450Y238002D01*
X280889Y238733D01*
X280158Y239294D01*
X279307Y239647D01*
X278393Y239767D01*
D02*
G37*
G36*
X254724Y242507D02*
X253811Y242386D01*
X252959Y242034D01*
X252228Y241473D01*
X251667Y240741D01*
X251314Y239890D01*
X251194Y238976D01*
X251314Y238063D01*
X251667Y237211D01*
X252228Y236480D01*
X252959Y235919D01*
X253313Y235773D01*
Y230538D01*
X253270Y230509D01*
X252788Y229788D01*
X252619Y228937D01*
Y226181D01*
X252788Y225330D01*
X253270Y224609D01*
X253992Y224127D01*
X254842Y223957D01*
X255694Y224127D01*
X256415Y224609D01*
X256897Y225330D01*
X257066Y226181D01*
Y228937D01*
X256897Y229788D01*
X256415Y230509D01*
X256372Y230538D01*
Y235870D01*
X256489Y235919D01*
X257221Y236480D01*
X257782Y237211D01*
X258134Y238063D01*
X258255Y238976D01*
X258134Y239890D01*
X257782Y240741D01*
X257221Y241473D01*
X256489Y242034D01*
X255638Y242386D01*
X254724Y242507D01*
D02*
G37*
G36*
X227433Y242225D02*
X226519Y242105D01*
X225668Y241752D01*
X224936Y241191D01*
X224375Y240460D01*
X224023Y239608D01*
X223902Y238695D01*
X224023Y237781D01*
X224375Y236930D01*
X224936Y236198D01*
X225668Y235637D01*
X225754Y235602D01*
Y230538D01*
X225711Y230509D01*
X225229Y229788D01*
X225060Y228937D01*
Y226181D01*
X225229Y225330D01*
X225711Y224609D01*
X226432Y224127D01*
X227284Y223957D01*
X228134Y224127D01*
X228856Y224609D01*
X229338Y225330D01*
X229507Y226181D01*
Y228937D01*
X229338Y229788D01*
X228856Y230509D01*
X228813Y230538D01*
Y235478D01*
X229198Y235637D01*
X229929Y236198D01*
X230490Y236930D01*
X230842Y237781D01*
X230963Y238695D01*
X230842Y239608D01*
X230490Y240460D01*
X229929Y241191D01*
X229198Y241752D01*
X228346Y242105D01*
X227433Y242225D01*
D02*
G37*
G36*
X208661Y243688D02*
X207748Y243567D01*
X206896Y243215D01*
X206165Y242654D01*
X205604Y241923D01*
X205252Y241071D01*
X205131Y240158D01*
X205252Y239244D01*
X205604Y238392D01*
X206165Y237661D01*
X206896Y237100D01*
X207748Y236748D01*
X208195Y236689D01*
Y230538D01*
X208152Y230509D01*
X207670Y229788D01*
X207501Y228937D01*
Y226181D01*
X207670Y225330D01*
X208152Y224609D01*
X208873Y224127D01*
X209724Y223957D01*
X210575Y224127D01*
X211297Y224609D01*
X211779Y225330D01*
X211948Y226181D01*
Y228937D01*
X211779Y229788D01*
X211297Y230509D01*
X211254Y230538D01*
Y237787D01*
X211719Y238392D01*
X212071Y239244D01*
X212192Y240158D01*
X212071Y241071D01*
X211719Y241923D01*
X211158Y242654D01*
X210426Y243215D01*
X209575Y243567D01*
X208661Y243688D01*
D02*
G37*
G36*
X199606Y240932D02*
X198693Y240811D01*
X197841Y240459D01*
X197110Y239898D01*
X196549Y239167D01*
X196196Y238315D01*
X196076Y237402D01*
X196196Y236488D01*
X196549Y235636D01*
X197110Y234905D01*
X197841Y234344D01*
X198136Y234222D01*
Y230486D01*
X197670Y229788D01*
X197501Y228937D01*
Y226181D01*
X197670Y225330D01*
X198152Y224609D01*
X198873Y224127D01*
X199724Y223957D01*
X200575Y224127D01*
X201297Y224609D01*
X201779Y225330D01*
X201948Y226181D01*
Y228937D01*
X201779Y229788D01*
X201297Y230509D01*
X201195Y230578D01*
Y234271D01*
X201371Y234344D01*
X202102Y234905D01*
X202663Y235636D01*
X203016Y236488D01*
X203136Y237402D01*
X203016Y238315D01*
X202663Y239167D01*
X202102Y239898D01*
X201371Y240459D01*
X200520Y240811D01*
X199606Y240932D01*
D02*
G37*
G36*
X182189Y243388D02*
X181275Y243268D01*
X180424Y242915D01*
X179693Y242354D01*
X179132Y241623D01*
X178779Y240772D01*
X178659Y239858D01*
X178779Y238944D01*
X179132Y238093D01*
X179693Y237362D01*
X180424Y236801D01*
X180636Y236713D01*
Y230538D01*
X180593Y230509D01*
X180111Y229788D01*
X179941Y228937D01*
Y226181D01*
X180111Y225330D01*
X180593Y224609D01*
X181314Y224127D01*
X182165Y223957D01*
X183016Y224127D01*
X183738Y224609D01*
X184220Y225330D01*
X184389Y226181D01*
Y228937D01*
X184220Y229788D01*
X183738Y230509D01*
X183695Y230538D01*
Y236693D01*
X183954Y236801D01*
X184685Y237362D01*
X185247Y238093D01*
X185599Y238944D01*
X185719Y239858D01*
X185599Y240772D01*
X185247Y241623D01*
X184685Y242354D01*
X183954Y242915D01*
X183103Y243268D01*
X182189Y243388D01*
D02*
G37*
G36*
X172246Y242511D02*
X171333Y242390D01*
X170481Y242038D01*
X169750Y241477D01*
X169189Y240745D01*
X168836Y239894D01*
X168716Y238980D01*
X168836Y238067D01*
X169189Y237215D01*
X169750Y236484D01*
X170481Y235923D01*
X170636Y235859D01*
Y230538D01*
X170593Y230509D01*
X170111Y229788D01*
X169941Y228937D01*
Y226181D01*
X170111Y225330D01*
X170593Y224609D01*
X171314Y224127D01*
X172165Y223957D01*
X173016Y224127D01*
X173738Y224609D01*
X174220Y225330D01*
X174389Y226181D01*
Y228937D01*
X174220Y229788D01*
X173738Y230509D01*
X173695Y230538D01*
Y235792D01*
X174012Y235923D01*
X174743Y236484D01*
X175304Y237215D01*
X175656Y238067D01*
X175777Y238980D01*
X175656Y239894D01*
X175304Y240745D01*
X174743Y241477D01*
X174012Y242038D01*
X173160Y242390D01*
X172246Y242511D01*
D02*
G37*
G36*
X337520Y231161D02*
X336669Y230992D01*
X335947Y230509D01*
X335465Y229788D01*
X335296Y228937D01*
Y226181D01*
X335465Y225330D01*
X335947Y224609D01*
X335990Y224580D01*
Y222366D01*
X333865Y220241D01*
X333630Y220339D01*
X332716Y220459D01*
X331803Y220339D01*
X330951Y219986D01*
X330220Y219425D01*
X329659Y218694D01*
X329306Y217843D01*
X329186Y216929D01*
X329306Y216016D01*
X329659Y215164D01*
X330220Y214433D01*
X330951Y213872D01*
X331803Y213519D01*
X332716Y213399D01*
X333630Y213519D01*
X334481Y213872D01*
X335212Y214433D01*
X335773Y215164D01*
X336126Y216016D01*
X336246Y216929D01*
X336126Y217843D01*
X336028Y218078D01*
X338601Y220651D01*
X338933Y221147D01*
X339049Y221733D01*
Y224580D01*
X339092Y224609D01*
X339574Y225330D01*
X339743Y226181D01*
Y228937D01*
X339574Y229788D01*
X339092Y230509D01*
X338371Y230992D01*
X337520Y231161D01*
D02*
G37*
G36*
X309961D02*
X309110Y230992D01*
X308388Y230509D01*
X307906Y229788D01*
X307737Y228937D01*
Y226181D01*
X307906Y225330D01*
X308388Y224609D01*
X308157Y224163D01*
X302452Y218458D01*
X298824D01*
X298726Y218694D01*
X298165Y219425D01*
X297434Y219986D01*
X296582Y220339D01*
X295669Y220459D01*
X294755Y220339D01*
X293904Y219986D01*
X293173Y219425D01*
X292612Y218694D01*
X292259Y217842D01*
X292139Y216929D01*
X292259Y216015D01*
X292612Y215164D01*
X293173Y214433D01*
X293904Y213872D01*
X294755Y213519D01*
X295669Y213399D01*
X296582Y213519D01*
X297434Y213872D01*
X298165Y214433D01*
X298726Y215164D01*
X298824Y215399D01*
X303086D01*
X303671Y215516D01*
X304167Y215847D01*
X311042Y222722D01*
X311374Y223218D01*
X311490Y223804D01*
Y224580D01*
X311533Y224609D01*
X312015Y225330D01*
X312185Y226181D01*
Y228937D01*
X312015Y229788D01*
X311533Y230509D01*
X310812Y230992D01*
X309961Y231161D01*
D02*
G37*
G36*
X365079D02*
X364228Y230992D01*
X363506Y230509D01*
X363024Y229788D01*
X362855Y228937D01*
Y226181D01*
X363024Y225330D01*
X363506Y224609D01*
X363549Y224580D01*
Y221890D01*
X363666Y221305D01*
X363997Y220809D01*
X364759Y220047D01*
X364661Y219811D01*
X364541Y218898D01*
X364661Y217984D01*
X365014Y217132D01*
X365575Y216401D01*
X366306Y215840D01*
X367158Y215488D01*
X368071Y215367D01*
X368985Y215488D01*
X369836Y215840D01*
X370567Y216401D01*
X371129Y217132D01*
X371481Y217984D01*
X371602Y218898D01*
X371481Y219811D01*
X371129Y220663D01*
X370567Y221394D01*
X369836Y221955D01*
X368985Y222307D01*
X368071Y222428D01*
X367158Y222307D01*
X366990Y222238D01*
X366608Y222550D01*
Y224580D01*
X366651Y224609D01*
X367133Y225330D01*
X367303Y226181D01*
Y228937D01*
X367133Y229788D01*
X366651Y230509D01*
X365930Y230992D01*
X365079Y231161D01*
D02*
G37*
G36*
X407441Y216916D02*
X406528Y216796D01*
X405676Y216443D01*
X404945Y215882D01*
X404384Y215151D01*
X404031Y214300D01*
X403911Y213386D01*
X403955Y213051D01*
X401556Y210652D01*
X401225Y210156D01*
X401108Y209571D01*
Y208491D01*
X401065Y208462D01*
X400583Y207741D01*
X400414Y206890D01*
Y204134D01*
X400583Y203283D01*
X401065Y202561D01*
X401787Y202079D01*
X402638Y201910D01*
X403489Y202079D01*
X404210Y202561D01*
X404692Y203283D01*
X404862Y204134D01*
Y206890D01*
X404692Y207741D01*
X404210Y208462D01*
X404188Y208958D01*
X405610Y210380D01*
X405676Y210329D01*
X406528Y209976D01*
X407441Y209856D01*
X408355Y209976D01*
X409206Y210329D01*
X409938Y210890D01*
X410499Y211621D01*
X410851Y212472D01*
X410971Y213386D01*
X410851Y214300D01*
X410499Y215151D01*
X409938Y215882D01*
X409206Y216443D01*
X408355Y216796D01*
X407441Y216916D01*
D02*
G37*
G36*
X486181Y219237D02*
X485268Y219116D01*
X484416Y218764D01*
X483685Y218203D01*
X483124Y217472D01*
X482772Y216620D01*
X482651Y215706D01*
X482772Y214793D01*
X483124Y213941D01*
X483685Y213210D01*
X484046Y212933D01*
Y208665D01*
X483743Y208462D01*
X483260Y207741D01*
X483091Y206890D01*
Y204134D01*
X483260Y203283D01*
X483743Y202561D01*
X484464Y202079D01*
X485315Y201910D01*
X486166Y202079D01*
X486887Y202561D01*
X487369Y203283D01*
X487539Y204134D01*
Y206890D01*
X487369Y207741D01*
X487105Y208137D01*
Y212301D01*
X487947Y212649D01*
X488678Y213210D01*
X489239Y213941D01*
X489591Y214793D01*
X489712Y215706D01*
X489591Y216620D01*
X489239Y217472D01*
X488678Y218203D01*
X487947Y218764D01*
X487095Y219116D01*
X486181Y219237D01*
D02*
G37*
G36*
X475315Y209114D02*
X474464Y208944D01*
X473742Y208462D01*
X473260Y207741D01*
X473091Y206890D01*
Y206254D01*
X472441D01*
X471856Y206137D01*
X471359Y205806D01*
X471028Y205310D01*
X470912Y204724D01*
Y183610D01*
X469350D01*
Y177141D01*
Y170821D01*
X452155D01*
X452030Y171321D01*
X452445Y171543D01*
X453542Y172443D01*
X454441Y173539D01*
X455110Y174790D01*
X455522Y176147D01*
X455661Y177559D01*
X455522Y178971D01*
X455110Y180328D01*
X454441Y181579D01*
X453542Y182675D01*
X452445Y183575D01*
X451194Y184244D01*
X449837Y184656D01*
X448425Y184795D01*
X447014Y184656D01*
X445656Y184244D01*
X444405Y183575D01*
X443309Y182675D01*
X442409Y181579D01*
X441740Y180328D01*
X441329Y178971D01*
X441190Y177559D01*
X441329Y176147D01*
X441740Y174790D01*
X442409Y173539D01*
X443309Y172443D01*
X444405Y171543D01*
X445656Y170874D01*
X447014Y170463D01*
X447347Y170430D01*
X447516Y169959D01*
X447344Y169787D01*
X447012Y169291D01*
X446896Y168705D01*
Y160449D01*
X445457D01*
Y154512D01*
X451394D01*
Y160449D01*
X449955D01*
Y167762D01*
X471855D01*
X472440Y167878D01*
X472937Y168210D01*
X473522Y168796D01*
X473854Y169292D01*
X473970Y169877D01*
Y170721D01*
X475532D01*
Y177141D01*
Y183610D01*
X473970D01*
Y201879D01*
X474411Y202115D01*
X474464Y202079D01*
X475315Y201910D01*
X476166Y202079D01*
X476887Y202561D01*
X477369Y203283D01*
X477539Y204134D01*
Y206890D01*
X477369Y207741D01*
X476887Y208462D01*
X476166Y208944D01*
X475315Y209114D01*
D02*
G37*
G36*
X428105Y218097D02*
X427191Y217977D01*
X426340Y217624D01*
X425609Y217063D01*
X425048Y216332D01*
X424695Y215481D01*
X424575Y214567D01*
X424695Y213653D01*
X425048Y212802D01*
X425609Y212071D01*
X426340Y211510D01*
X427191Y211157D01*
X428105Y211037D01*
X428293Y211061D01*
X428667Y210716D01*
Y208491D01*
X428624Y208462D01*
X428142Y207741D01*
X427973Y206890D01*
Y204134D01*
X428142Y203283D01*
X428624Y202561D01*
X429346Y202079D01*
X430197Y201910D01*
X431048Y202079D01*
X431769Y202561D01*
X432251Y203283D01*
X432421Y204134D01*
Y206890D01*
X432251Y207741D01*
X431769Y208462D01*
X431726Y208491D01*
Y211393D01*
X431610Y211978D01*
X431278Y212474D01*
X431071Y212682D01*
X431162Y212802D01*
X431515Y213653D01*
X431635Y214567D01*
X431515Y215481D01*
X431162Y216332D01*
X430601Y217063D01*
X429870Y217624D01*
X429019Y217977D01*
X428105Y218097D01*
D02*
G37*
G36*
X370873Y214154D02*
X369959Y214033D01*
X369108Y213681D01*
X368376Y213120D01*
X367815Y212389D01*
X367463Y211537D01*
X367342Y210624D01*
X367463Y209710D01*
X367815Y208858D01*
X368376Y208127D01*
X369108Y207566D01*
X369959Y207214D01*
X370873Y207093D01*
X371786Y207214D01*
X372189Y207380D01*
X372855Y206715D01*
Y204134D01*
X373024Y203283D01*
X373506Y202561D01*
X374228Y202079D01*
X375079Y201910D01*
X375930Y202079D01*
X376651Y202561D01*
X377133Y203283D01*
X377303Y204134D01*
Y206890D01*
X377133Y207741D01*
X376651Y208462D01*
X375930Y208944D01*
X375079Y209114D01*
X374831Y209064D01*
X374254Y209641D01*
X374283Y209710D01*
X374403Y210624D01*
X374283Y211537D01*
X373930Y212389D01*
X373369Y213120D01*
X372638Y213681D01*
X371786Y214033D01*
X370873Y214154D01*
D02*
G37*
G36*
X331890Y212192D02*
X330976Y212071D01*
X330125Y211719D01*
X329394Y211158D01*
X328833Y210426D01*
X328480Y209575D01*
X328360Y208661D01*
X328480Y207748D01*
X328833Y206896D01*
X329394Y206165D01*
X330125Y205604D01*
X330976Y205252D01*
X331890Y205131D01*
X332803Y205252D01*
X333655Y205604D01*
X334386Y206165D01*
X334796Y206699D01*
X335296Y206530D01*
Y204134D01*
X335465Y203283D01*
X335947Y202561D01*
X335990Y202533D01*
Y197913D01*
X336107Y197328D01*
X336438Y196832D01*
X337501Y195769D01*
X337997Y195437D01*
X338583Y195321D01*
X345336D01*
X345369Y194821D01*
X344798Y194746D01*
X343946Y194393D01*
X343215Y193832D01*
X342654Y193101D01*
X342302Y192250D01*
X342181Y191336D01*
X342302Y190422D01*
X342654Y189571D01*
X343215Y188840D01*
X343946Y188279D01*
X344798Y187926D01*
X345711Y187806D01*
X346625Y187926D01*
X347477Y188279D01*
X348208Y188840D01*
X348769Y189571D01*
X349121Y190422D01*
X349242Y191336D01*
X349121Y192250D01*
X348769Y193101D01*
X348208Y193832D01*
X347477Y194393D01*
X346625Y194746D01*
X346054Y194821D01*
X346087Y195321D01*
X351176D01*
X351273Y195085D01*
X351835Y194354D01*
X352566Y193793D01*
X353417Y193440D01*
X354331Y193320D01*
X355244Y193440D01*
X356096Y193793D01*
X356827Y194354D01*
X357388Y195085D01*
X357741Y195937D01*
X357861Y196850D01*
X357741Y197764D01*
X357388Y198616D01*
X356827Y199347D01*
X356096Y199908D01*
X355244Y200260D01*
X354331Y200381D01*
X353417Y200260D01*
X352566Y199908D01*
X351835Y199347D01*
X351273Y198616D01*
X351176Y198380D01*
X339216D01*
X339049Y198547D01*
Y202533D01*
X339092Y202561D01*
X339574Y203283D01*
X339743Y204134D01*
Y206890D01*
X339614Y207541D01*
X339929Y208042D01*
X341818D01*
X345296Y204563D01*
Y204134D01*
X345465Y203283D01*
X345947Y202561D01*
X346669Y202079D01*
X347520Y201910D01*
X348371Y202079D01*
X349092Y202561D01*
X349574Y203283D01*
X349744Y204134D01*
Y206890D01*
X349574Y207741D01*
X349092Y208462D01*
X348371Y208944D01*
X347520Y209114D01*
X346669Y208944D01*
X345947Y208462D01*
X345743Y208442D01*
X343533Y210652D01*
X343037Y210984D01*
X342451Y211100D01*
X336409D01*
X335824Y210984D01*
X335356Y210671D01*
X335325Y210653D01*
X334707Y210739D01*
X334386Y211158D01*
X333655Y211719D01*
X332803Y212071D01*
X331890Y212192D01*
D02*
G37*
G36*
X253976Y218023D02*
X253062Y217903D01*
X252211Y217550D01*
X251480Y216989D01*
X250919Y216258D01*
X250566Y215406D01*
X250446Y214493D01*
X250566Y213579D01*
X250919Y212728D01*
X251480Y211997D01*
X252211Y211436D01*
X253062Y211083D01*
X253976Y210963D01*
X254890Y211083D01*
X255741Y211436D01*
X256472Y211997D01*
X257033Y212728D01*
X257131Y212963D01*
X263384D01*
Y208538D01*
X263270Y208462D01*
X262788Y207741D01*
X262619Y206890D01*
Y204134D01*
X262788Y203283D01*
X263270Y202561D01*
X263991Y202079D01*
X264843Y201910D01*
X265693Y202079D01*
X266415Y202561D01*
X266897Y203283D01*
X267066Y204134D01*
Y206890D01*
X266897Y207741D01*
X266443Y208421D01*
Y214493D01*
X266326Y215078D01*
X265995Y215574D01*
X265499Y215906D01*
X264913Y216022D01*
X257131D01*
X257033Y216258D01*
X256472Y216989D01*
X255741Y217550D01*
X254890Y217903D01*
X253976Y218023D01*
D02*
G37*
G36*
X319961Y209114D02*
X319110Y208944D01*
X318388Y208462D01*
X317906Y207741D01*
X317737Y206890D01*
Y204134D01*
X317906Y203283D01*
X318388Y202561D01*
X318692Y202358D01*
Y199200D01*
X318370Y198953D01*
X317809Y198222D01*
X317456Y197370D01*
X317364Y196671D01*
X316860D01*
X316810Y197053D01*
X316457Y197905D01*
X315896Y198636D01*
X315165Y199197D01*
X314313Y199549D01*
X313400Y199670D01*
X312929Y199608D01*
X312553Y199937D01*
Y204449D01*
X312437Y205034D01*
X312185Y205411D01*
Y206890D01*
X312015Y207741D01*
X311533Y208462D01*
X310812Y208944D01*
X309961Y209114D01*
X309110Y208944D01*
X308388Y208462D01*
X307906Y207741D01*
X307737Y206890D01*
Y204134D01*
X307906Y203283D01*
X308388Y202561D01*
X309110Y202079D01*
X309494Y202003D01*
Y196850D01*
X309611Y196265D01*
X309912Y195814D01*
X309990Y195226D01*
X310342Y194374D01*
X310904Y193643D01*
X311635Y193082D01*
X312486Y192729D01*
X313400Y192609D01*
X314313Y192729D01*
X315165Y193082D01*
X315896Y193643D01*
X316457Y194374D01*
X316810Y195226D01*
X316902Y195925D01*
X317406D01*
X317456Y195543D01*
X317809Y194692D01*
X318370Y193960D01*
X319101Y193400D01*
X319953Y193047D01*
X320866Y192927D01*
X321780Y193047D01*
X322631Y193400D01*
X323362Y193960D01*
X323923Y194692D01*
X324276Y195543D01*
X324396Y196457D01*
X324276Y197370D01*
X323923Y198222D01*
X323362Y198953D01*
X322631Y199514D01*
X321780Y199867D01*
X321751Y199870D01*
Y202887D01*
X322015Y203283D01*
X322184Y204134D01*
Y206890D01*
X322015Y207741D01*
X321533Y208462D01*
X320812Y208944D01*
X319961Y209114D01*
D02*
G37*
G36*
X182165D02*
X181314Y208944D01*
X180593Y208462D01*
X180111Y207741D01*
X179941Y206890D01*
Y204134D01*
X180111Y203283D01*
X180593Y202561D01*
X180636Y202533D01*
Y199463D01*
X180031Y198998D01*
X179470Y198267D01*
X179117Y197416D01*
X178997Y196502D01*
X179117Y195588D01*
X179470Y194737D01*
X180031Y194006D01*
X180762Y193445D01*
X181613Y193092D01*
X182527Y192972D01*
X183441Y193092D01*
X184292Y193445D01*
X185023Y194006D01*
X185584Y194737D01*
X185937Y195588D01*
X186012Y196158D01*
X186545Y196379D01*
X186893Y196112D01*
X187745Y195759D01*
X188659Y195639D01*
X189572Y195759D01*
X190424Y196112D01*
X191155Y196673D01*
X191716Y197404D01*
X192069Y198255D01*
X192189Y199169D01*
X192069Y200083D01*
X191716Y200934D01*
X191155Y201665D01*
X190424Y202226D01*
X189572Y202579D01*
X188659Y202699D01*
X187745Y202579D01*
X186893Y202226D01*
X186162Y201665D01*
X185601Y200934D01*
X185249Y200083D01*
X185174Y199513D01*
X184640Y199292D01*
X184292Y199559D01*
X183695Y199806D01*
Y202533D01*
X183738Y202561D01*
X184220Y203283D01*
X184389Y204134D01*
Y206890D01*
X184220Y207741D01*
X183738Y208462D01*
X183016Y208944D01*
X182165Y209114D01*
D02*
G37*
G36*
X457756D02*
X456905Y208944D01*
X456183Y208462D01*
X455701Y207741D01*
X455532Y206890D01*
Y204134D01*
X455701Y203283D01*
X456183Y202561D01*
X456226Y202533D01*
Y200774D01*
X456188Y200769D01*
X455336Y200416D01*
X454605Y199855D01*
X454044Y199124D01*
X453691Y198272D01*
X453571Y197359D01*
X453691Y196445D01*
X454044Y195594D01*
X454605Y194862D01*
X455336Y194301D01*
X456188Y193949D01*
X457101Y193828D01*
X458015Y193949D01*
X458866Y194301D01*
X459597Y194862D01*
X460158Y195594D01*
X460511Y196445D01*
X460632Y197359D01*
X460511Y198272D01*
X460158Y199124D01*
X459597Y199855D01*
X459285Y200095D01*
Y202533D01*
X459328Y202561D01*
X459810Y203283D01*
X459980Y204134D01*
Y206890D01*
X459810Y207741D01*
X459328Y208462D01*
X458607Y208944D01*
X457756Y209114D01*
D02*
G37*
G36*
X237283D02*
X236432Y208944D01*
X235711Y208462D01*
X235229Y207741D01*
X235060Y206890D01*
Y204134D01*
X235229Y203283D01*
X235711Y202561D01*
X236432Y202079D01*
X236899Y201986D01*
X239865Y199021D01*
X239856Y199009D01*
X239504Y198158D01*
X239383Y197244D01*
X239504Y196330D01*
X239856Y195479D01*
X240417Y194748D01*
X241148Y194187D01*
X242000Y193834D01*
X242913Y193714D01*
X243827Y193834D01*
X244678Y194187D01*
X245410Y194748D01*
X245971Y195479D01*
X246323Y196330D01*
X246444Y197244D01*
X246323Y198158D01*
X245971Y199009D01*
X245410Y199740D01*
X244678Y200301D01*
X243827Y200654D01*
X242913Y200774D01*
X242493Y200719D01*
X239436Y203776D01*
X239507Y204134D01*
Y206890D01*
X239338Y207741D01*
X238856Y208462D01*
X238135Y208944D01*
X237283Y209114D01*
D02*
G37*
G36*
X392638D02*
X391787Y208944D01*
X391065Y208462D01*
X390583Y207741D01*
X390414Y206890D01*
Y204134D01*
X390583Y203283D01*
X391065Y202561D01*
X391108Y202533D01*
Y197913D01*
X391225Y197328D01*
X391556Y196832D01*
X392619Y195769D01*
X393115Y195437D01*
X393701Y195321D01*
X406294D01*
X406392Y195085D01*
X406953Y194354D01*
X407684Y193793D01*
X408535Y193440D01*
X409449Y193320D01*
X410362Y193440D01*
X411214Y193793D01*
X411945Y194354D01*
X412506Y195085D01*
X412859Y195937D01*
X412979Y196850D01*
X412859Y197764D01*
X412506Y198616D01*
X411945Y199347D01*
X411214Y199908D01*
X410362Y200260D01*
X409449Y200381D01*
X408535Y200260D01*
X407684Y199908D01*
X406953Y199347D01*
X406392Y198616D01*
X406294Y198380D01*
X394334D01*
X394167Y198547D01*
Y202533D01*
X394210Y202561D01*
X394692Y203283D01*
X394862Y204134D01*
Y206890D01*
X394692Y207741D01*
X394210Y208462D01*
X393489Y208944D01*
X392638Y209114D01*
D02*
G37*
G36*
X420197D02*
X419346Y208944D01*
X418624Y208462D01*
X418142Y207741D01*
X417973Y206890D01*
Y204134D01*
X418142Y203283D01*
X418624Y202561D01*
X418668Y202533D01*
Y190506D01*
X374335D01*
X374324Y190513D01*
X374027Y191006D01*
X374276Y191606D01*
X374396Y192520D01*
X374276Y193433D01*
X373923Y194285D01*
X373512Y194821D01*
X373758Y195321D01*
X382672D01*
X382769Y195085D01*
X383330Y194354D01*
X384062Y193793D01*
X384913Y193440D01*
X385827Y193320D01*
X386740Y193440D01*
X387592Y193793D01*
X388323Y194354D01*
X388884Y195085D01*
X389237Y195937D01*
X389357Y196850D01*
X389237Y197764D01*
X388884Y198616D01*
X388323Y199347D01*
X387592Y199908D01*
X386740Y200260D01*
X385827Y200381D01*
X384913Y200260D01*
X384062Y199908D01*
X383330Y199347D01*
X382769Y198616D01*
X382672Y198380D01*
X366775D01*
X366608Y198547D01*
Y202533D01*
X366651Y202561D01*
X367133Y203283D01*
X367303Y204134D01*
Y206890D01*
X367133Y207741D01*
X366651Y208462D01*
X365930Y208944D01*
X365079Y209114D01*
X364228Y208944D01*
X363506Y208462D01*
X363024Y207741D01*
X362855Y206890D01*
Y204134D01*
X363024Y203283D01*
X363506Y202561D01*
X363549Y202533D01*
Y197913D01*
X363666Y197328D01*
X363997Y196832D01*
X365060Y195769D01*
X365556Y195437D01*
X366142Y195321D01*
X367974D01*
X368220Y194821D01*
X367809Y194285D01*
X367456Y193433D01*
X367336Y192520D01*
X367456Y191606D01*
X367809Y190755D01*
X368370Y190024D01*
X369101Y189462D01*
X369953Y189110D01*
X370866Y188989D01*
X371780Y189110D01*
X372096Y189241D01*
X372486Y188861D01*
Y183610D01*
X370925D01*
Y177141D01*
Y170821D01*
X334045D01*
X333919Y171321D01*
X334335Y171543D01*
X335431Y172443D01*
X336331Y173539D01*
X337000Y174790D01*
X337411Y176147D01*
X337551Y177559D01*
X337411Y178971D01*
X337000Y180328D01*
X336331Y181579D01*
X335431Y182675D01*
X334335Y183575D01*
X333084Y184244D01*
X331727Y184656D01*
X330315Y184795D01*
X328903Y184656D01*
X327546Y184244D01*
X326295Y183575D01*
X325199Y182675D01*
X324299Y181579D01*
X323630Y180328D01*
X323218Y178971D01*
X323079Y177559D01*
X323218Y176147D01*
X323630Y174790D01*
X324299Y173539D01*
X325199Y172443D01*
X326295Y171543D01*
X327546Y170874D01*
X328903Y170463D01*
X329595Y170394D01*
X329764Y169923D01*
X329627Y169787D01*
X329296Y169291D01*
X329179Y168705D01*
Y160449D01*
X327346D01*
Y154512D01*
X333283D01*
Y160449D01*
X332238D01*
Y167762D01*
X374016D01*
X374601Y167878D01*
X375097Y168210D01*
X375429Y168706D01*
X375545Y169291D01*
Y170721D01*
X377107D01*
Y177141D01*
Y183610D01*
X375545D01*
Y187447D01*
X419611D01*
X420196Y187563D01*
X420692Y187895D01*
X421278Y188481D01*
X421610Y188977D01*
X421726Y189562D01*
Y191192D01*
X422175Y191413D01*
X422432Y191216D01*
X423283Y190864D01*
X424197Y190743D01*
X425110Y190864D01*
X425962Y191216D01*
X426693Y191777D01*
X427254Y192508D01*
X427607Y193360D01*
X427727Y194273D01*
X427607Y195187D01*
X427254Y196038D01*
X426693Y196770D01*
X425962Y197331D01*
X425110Y197683D01*
X424197Y197804D01*
X423283Y197683D01*
X422432Y197331D01*
X422175Y197133D01*
X421726Y197354D01*
Y202533D01*
X421769Y202561D01*
X422251Y203283D01*
X422421Y204134D01*
Y206890D01*
X422251Y207741D01*
X421769Y208462D01*
X421048Y208944D01*
X420197Y209114D01*
D02*
G37*
G36*
X254842D02*
X253992Y208944D01*
X253270Y208462D01*
X252788Y207741D01*
X252619Y206890D01*
Y204134D01*
X252788Y203283D01*
X253270Y202561D01*
X253313Y202533D01*
Y197913D01*
X253430Y197328D01*
X253761Y196832D01*
X254824Y195769D01*
X255320Y195437D01*
X255906Y195321D01*
X263819D01*
X264056Y194821D01*
X263638Y194276D01*
X263286Y193424D01*
X263165Y192511D01*
X263286Y191597D01*
X263638Y190746D01*
X264199Y190015D01*
X264930Y189454D01*
X265782Y189101D01*
X266695Y188981D01*
X267609Y189101D01*
X268461Y189454D01*
X269192Y190015D01*
X269753Y190746D01*
X270105Y191597D01*
X270226Y192511D01*
X270105Y193424D01*
X269753Y194276D01*
X269335Y194821D01*
X269572Y195321D01*
X272436D01*
X272533Y195085D01*
X273094Y194354D01*
X273826Y193793D01*
X274677Y193440D01*
X275590Y193320D01*
X276504Y193440D01*
X277356Y193793D01*
X278087Y194354D01*
X278648Y195085D01*
X279000Y195937D01*
X279121Y196850D01*
X279000Y197764D01*
X278648Y198616D01*
X278087Y199347D01*
X277356Y199908D01*
X276504Y200260D01*
X275590Y200381D01*
X274677Y200260D01*
X273826Y199908D01*
X273094Y199347D01*
X272533Y198616D01*
X272436Y198380D01*
X256539D01*
X256372Y198547D01*
Y202533D01*
X256415Y202561D01*
X256897Y203283D01*
X257066Y204134D01*
Y206890D01*
X256897Y207741D01*
X256415Y208462D01*
X255694Y208944D01*
X254842Y209114D01*
D02*
G37*
G36*
X227284D02*
X226432Y208944D01*
X225711Y208462D01*
X225229Y207741D01*
X225060Y206890D01*
Y204134D01*
X225229Y203283D01*
X225711Y202561D01*
X225754Y202533D01*
Y198996D01*
X225870Y198410D01*
X226202Y197914D01*
X227582Y196534D01*
X228078Y196203D01*
X228663Y196086D01*
X228854D01*
X228873Y195937D01*
X229226Y195085D01*
X229787Y194354D01*
X230518Y193793D01*
X231370Y193440D01*
X232283Y193320D01*
X233197Y193440D01*
X234049Y193793D01*
X234780Y194354D01*
X235341Y195085D01*
X235693Y195937D01*
X235814Y196850D01*
X235693Y197764D01*
X235341Y198616D01*
X234780Y199347D01*
X234049Y199908D01*
X233197Y200260D01*
X232283Y200381D01*
X231370Y200260D01*
X230518Y199908D01*
X229787Y199347D01*
X229739Y199284D01*
X229185Y199258D01*
X228813Y199629D01*
Y202533D01*
X228856Y202561D01*
X229338Y203283D01*
X229507Y204134D01*
Y206890D01*
X229338Y207741D01*
X228856Y208462D01*
X228134Y208944D01*
X227284Y209114D01*
D02*
G37*
G36*
X282402D02*
X281551Y208944D01*
X280829Y208462D01*
X280347Y207741D01*
X280178Y206890D01*
Y204134D01*
X280347Y203283D01*
X280829Y202561D01*
X280872Y202533D01*
Y197913D01*
X280989Y197328D01*
X281320Y196832D01*
X282383Y195769D01*
X282879Y195437D01*
X283193Y195375D01*
X283355Y194983D01*
X283916Y194252D01*
X284647Y193691D01*
X285499Y193338D01*
X286412Y193218D01*
X287326Y193338D01*
X288177Y193691D01*
X288909Y194252D01*
X289470Y194983D01*
X289822Y195834D01*
X289943Y196748D01*
X289822Y197661D01*
X289470Y198513D01*
X288909Y199244D01*
X288177Y199805D01*
X287326Y200158D01*
X286412Y200278D01*
X285499Y200158D01*
X284647Y199805D01*
X284379Y199600D01*
X283931Y199821D01*
Y202533D01*
X283974Y202561D01*
X284456Y203283D01*
X284625Y204134D01*
Y206890D01*
X284456Y207741D01*
X283974Y208462D01*
X283253Y208944D01*
X282402Y209114D01*
D02*
G37*
G36*
X209724D02*
X208873Y208944D01*
X208152Y208462D01*
X207670Y207741D01*
X207501Y206890D01*
Y204134D01*
X207670Y203283D01*
X208152Y202561D01*
X208195Y202533D01*
Y199710D01*
X208100Y199698D01*
X207248Y199345D01*
X206517Y198784D01*
X205956Y198053D01*
X205604Y197201D01*
X205483Y196288D01*
X205604Y195374D01*
X205956Y194523D01*
X206517Y193791D01*
X207248Y193230D01*
X208100Y192878D01*
X209013Y192757D01*
X209927Y192878D01*
X210778Y193230D01*
X211510Y193791D01*
X212071Y194523D01*
X212423Y195374D01*
X212544Y196288D01*
X212423Y197201D01*
X212071Y198053D01*
X211510Y198784D01*
X211254Y198980D01*
Y202533D01*
X211297Y202561D01*
X211779Y203283D01*
X211948Y204134D01*
Y206890D01*
X211779Y207741D01*
X211297Y208462D01*
X210575Y208944D01*
X209724Y209114D01*
D02*
G37*
G36*
X303543Y199593D02*
X302630Y199473D01*
X301778Y199120D01*
X301047Y198559D01*
X300486Y197828D01*
X300133Y196977D01*
X300013Y196063D01*
X300133Y195149D01*
X300486Y194298D01*
X301047Y193567D01*
X301778Y193006D01*
X302630Y192653D01*
X303543Y192533D01*
X304457Y192653D01*
X305308Y193006D01*
X306040Y193567D01*
X306601Y194298D01*
X306953Y195149D01*
X307073Y196063D01*
X306953Y196977D01*
X306601Y197828D01*
X306040Y198559D01*
X305308Y199120D01*
X304457Y199473D01*
X303543Y199593D01*
D02*
G37*
G36*
X221460Y198881D02*
X220546Y198760D01*
X219694Y198408D01*
X218963Y197847D01*
X218402Y197115D01*
X218050Y196264D01*
X217929Y195350D01*
X218050Y194437D01*
X218402Y193585D01*
X218963Y192854D01*
X219694Y192293D01*
X220546Y191940D01*
X221460Y191820D01*
X222373Y191940D01*
X223225Y192293D01*
X223956Y192854D01*
X224517Y193585D01*
X224869Y194437D01*
X224990Y195350D01*
X224869Y196264D01*
X224517Y197115D01*
X223956Y197847D01*
X223225Y198408D01*
X222373Y198760D01*
X221460Y198881D01*
D02*
G37*
G36*
X464089Y195258D02*
X463175Y195138D01*
X462324Y194785D01*
X461593Y194224D01*
X461032Y193493D01*
X460679Y192641D01*
X460559Y191728D01*
X460679Y190814D01*
X461032Y189962D01*
X461593Y189231D01*
X462324Y188670D01*
X463175Y188318D01*
X464089Y188197D01*
X465002Y188318D01*
X465854Y188670D01*
X466585Y189231D01*
X467146Y189962D01*
X467499Y190814D01*
X467619Y191728D01*
X467499Y192641D01*
X467146Y193493D01*
X466585Y194224D01*
X465854Y194785D01*
X465002Y195138D01*
X464089Y195258D01*
D02*
G37*
G36*
X292402Y209114D02*
X291551Y208944D01*
X290829Y208462D01*
X290347Y207741D01*
X290178Y206890D01*
Y204134D01*
X290347Y203283D01*
X290829Y202561D01*
X290872Y202533D01*
Y180039D01*
X290989Y179454D01*
X291320Y178958D01*
X291963Y178315D01*
X291866Y178079D01*
X291745Y177165D01*
X291866Y176252D01*
X292218Y175400D01*
X292779Y174669D01*
X293511Y174108D01*
X294362Y173755D01*
X295276Y173635D01*
X296189Y173755D01*
X297041Y174108D01*
X297772Y174669D01*
X298333Y175400D01*
X298686Y176252D01*
X298806Y177165D01*
X298686Y178079D01*
X298333Y178930D01*
X297772Y179662D01*
X297041Y180223D01*
X296189Y180575D01*
X295276Y180696D01*
X294392Y180579D01*
X294329Y180603D01*
X293931Y180936D01*
Y202533D01*
X293974Y202561D01*
X294456Y203283D01*
X294625Y204134D01*
Y206890D01*
X294456Y207741D01*
X293974Y208462D01*
X293253Y208944D01*
X292402Y209114D01*
D02*
G37*
G36*
X447756D02*
X446905Y208944D01*
X446183Y208462D01*
X445701Y207741D01*
X445532Y206890D01*
Y204134D01*
X445701Y203283D01*
X446183Y202561D01*
X446227Y202533D01*
Y194443D01*
X433657D01*
X433071Y194326D01*
X432575Y193995D01*
X431989Y193409D01*
X431658Y192913D01*
X431541Y192328D01*
Y183610D01*
X429980D01*
Y177141D01*
Y170821D01*
X393100D01*
X392974Y171321D01*
X393390Y171543D01*
X394486Y172443D01*
X395386Y173539D01*
X396055Y174790D01*
X396467Y176147D01*
X396606Y177559D01*
X396467Y178971D01*
X396055Y180328D01*
X395386Y181579D01*
X394486Y182675D01*
X393390Y183575D01*
X392139Y184244D01*
X390782Y184656D01*
X389370Y184795D01*
X387959Y184656D01*
X386601Y184244D01*
X385350Y183575D01*
X384254Y182675D01*
X383354Y181579D01*
X382685Y180328D01*
X382274Y178971D01*
X382135Y177559D01*
X382274Y176147D01*
X382685Y174790D01*
X383354Y173539D01*
X384254Y172443D01*
X385350Y171543D01*
X386601Y170874D01*
X387959Y170463D01*
X388292Y170430D01*
X388460Y169959D01*
X388289Y169787D01*
X387957Y169291D01*
X387841Y168705D01*
Y160449D01*
X386402D01*
Y154512D01*
X392339D01*
Y160449D01*
X390899D01*
Y167762D01*
X433071D01*
X433656Y167878D01*
X434152Y168210D01*
X434484Y168706D01*
X434600Y169291D01*
Y170721D01*
X436162D01*
Y177141D01*
Y183610D01*
X434600D01*
Y191384D01*
X447170D01*
X447755Y191500D01*
X448252Y191832D01*
X448837Y192418D01*
X449169Y192914D01*
X449285Y193499D01*
Y202533D01*
X449328Y202561D01*
X449811Y203283D01*
X449980Y204134D01*
Y206890D01*
X449811Y207741D01*
X449328Y208462D01*
X448607Y208944D01*
X447756Y209114D01*
D02*
G37*
G36*
X199724D02*
X198873Y208944D01*
X198152Y208462D01*
X197670Y207741D01*
X197501Y206890D01*
Y204134D01*
X197670Y203283D01*
X198152Y202561D01*
X198195Y202533D01*
Y185846D01*
X198311Y185260D01*
X198643Y184764D01*
X199229Y184178D01*
X199725Y183847D01*
X200310Y183730D01*
X207586D01*
X207765Y183230D01*
X207088Y182675D01*
X206189Y181579D01*
X205520Y180328D01*
X205108Y178971D01*
X204969Y177559D01*
X205108Y176147D01*
X205520Y174790D01*
X206189Y173539D01*
X207088Y172443D01*
X208185Y171543D01*
X208600Y171321D01*
X208475Y170821D01*
X176319D01*
Y177141D01*
Y183610D01*
X173695D01*
Y202533D01*
X173738Y202561D01*
X174220Y203283D01*
X174389Y204134D01*
Y206890D01*
X174220Y207741D01*
X173738Y208462D01*
X173016Y208944D01*
X172165Y209114D01*
X171314Y208944D01*
X170593Y208462D01*
X170111Y207741D01*
X169941Y206890D01*
Y204134D01*
X170111Y203283D01*
X170593Y202561D01*
X170636Y202533D01*
Y183610D01*
X170138D01*
Y177141D01*
Y170721D01*
X171699D01*
Y169877D01*
X171815Y169292D01*
X172147Y168796D01*
X172733Y168210D01*
X173229Y167878D01*
X173814Y167762D01*
X211069D01*
Y160449D01*
X209236D01*
Y154512D01*
X215173D01*
Y160449D01*
X214128D01*
Y168705D01*
X214011Y169291D01*
X213680Y169787D01*
X213517Y169950D01*
X213577Y170262D01*
X213689Y170485D01*
X214974Y170874D01*
X216225Y171543D01*
X217321Y172443D01*
X218221Y173539D01*
X218890Y174790D01*
X219301Y176147D01*
X219440Y177559D01*
X219301Y178971D01*
X218890Y180328D01*
X218221Y181579D01*
X217321Y182675D01*
X216645Y183230D01*
X216824Y183730D01*
X220869D01*
X221319Y183610D01*
Y177141D01*
Y170721D01*
X222880D01*
Y169291D01*
X222996Y168706D01*
X223328Y168210D01*
X223824Y167878D01*
X224410Y167762D01*
X270124D01*
Y160449D01*
X268291D01*
Y154512D01*
X274228D01*
Y160449D01*
X273183D01*
Y168705D01*
X273066Y169291D01*
X272735Y169787D01*
X272572Y169950D01*
X272633Y170262D01*
X272744Y170485D01*
X274029Y170874D01*
X275280Y171543D01*
X276376Y172443D01*
X277276Y173539D01*
X277945Y174790D01*
X278356Y176147D01*
X278496Y177559D01*
X278356Y178971D01*
X277945Y180328D01*
X277276Y181579D01*
X276376Y182675D01*
X275280Y183575D01*
X274029Y184244D01*
X272671Y184656D01*
X271260Y184795D01*
X269848Y184656D01*
X268491Y184244D01*
X267240Y183575D01*
X266143Y182675D01*
X265244Y181579D01*
X264575Y180328D01*
X264163Y178971D01*
X264024Y177559D01*
X264163Y176147D01*
X264575Y174790D01*
X265244Y173539D01*
X266143Y172443D01*
X267240Y171543D01*
X267655Y171321D01*
X267530Y170821D01*
X227500D01*
Y177141D01*
Y183610D01*
X225939D01*
Y185260D01*
X225822Y185845D01*
X225491Y186341D01*
X224995Y186673D01*
X224410Y186789D01*
X201254D01*
Y202533D01*
X201297Y202561D01*
X201779Y203283D01*
X201948Y204134D01*
Y206890D01*
X201779Y207741D01*
X201297Y208462D01*
X200575Y208944D01*
X199724Y209114D01*
D02*
G37*
G36*
X422752Y161531D02*
X417209D01*
Y159010D01*
X416541D01*
X416443Y159245D01*
X415882Y159976D01*
X415151Y160538D01*
X414299Y160890D01*
X413386Y161011D01*
X412472Y160890D01*
X411621Y160538D01*
X410890Y159976D01*
X410329Y159245D01*
X409976Y158394D01*
X409856Y157480D01*
X409976Y156567D01*
X410329Y155715D01*
X410890Y154984D01*
X411621Y154423D01*
X412472Y154070D01*
X413386Y153950D01*
X414299Y154070D01*
X415151Y154423D01*
X415882Y154984D01*
X416443Y155715D01*
X416541Y155951D01*
X417209D01*
Y153429D01*
X422752D01*
Y161531D01*
D02*
G37*
G36*
X363697D02*
X358154D01*
Y159010D01*
X357486D01*
X357388Y159245D01*
X356827Y159976D01*
X356096Y160538D01*
X355244Y160890D01*
X354331Y161011D01*
X353417Y160890D01*
X352566Y160538D01*
X351835Y159976D01*
X351273Y159245D01*
X350921Y158394D01*
X350800Y157480D01*
X350921Y156567D01*
X351273Y155715D01*
X351835Y154984D01*
X352566Y154423D01*
X353417Y154070D01*
X354331Y153950D01*
X355244Y154070D01*
X356096Y154423D01*
X356827Y154984D01*
X357388Y155715D01*
X357486Y155951D01*
X358154D01*
Y153429D01*
X363697D01*
Y161531D01*
D02*
G37*
G36*
X304642D02*
X299098D01*
Y159010D01*
X298430D01*
X298333Y159245D01*
X297772Y159976D01*
X297041Y160538D01*
X296189Y160890D01*
X295276Y161011D01*
X294362Y160890D01*
X293511Y160538D01*
X292779Y159976D01*
X292218Y159245D01*
X291866Y158394D01*
X291745Y157480D01*
X291866Y156567D01*
X292218Y155715D01*
X292779Y154984D01*
X293511Y154423D01*
X294362Y154070D01*
X295276Y153950D01*
X296189Y154070D01*
X297041Y154423D01*
X297772Y154984D01*
X298333Y155715D01*
X298430Y155951D01*
X299098D01*
Y153429D01*
X304642D01*
Y161531D01*
D02*
G37*
G36*
X245587D02*
X240043D01*
Y159010D01*
X239375D01*
X239278Y159245D01*
X238717Y159976D01*
X237986Y160538D01*
X237134Y160890D01*
X236221Y161011D01*
X235307Y160890D01*
X234455Y160538D01*
X233724Y159976D01*
X233163Y159245D01*
X232811Y158394D01*
X232690Y157480D01*
X232811Y156567D01*
X233163Y155715D01*
X233724Y154984D01*
X234455Y154423D01*
X235307Y154070D01*
X236221Y153950D01*
X237134Y154070D01*
X237986Y154423D01*
X238717Y154984D01*
X239278Y155715D01*
X239375Y155951D01*
X240043D01*
Y153429D01*
X245587D01*
Y161531D01*
D02*
G37*
G36*
X182595D02*
X177051D01*
Y159010D01*
X176383D01*
X176286Y159245D01*
X175725Y159976D01*
X174994Y160538D01*
X174142Y160890D01*
X173228Y161011D01*
X172315Y160890D01*
X171463Y160538D01*
X170732Y159976D01*
X170171Y159245D01*
X169818Y158394D01*
X169698Y157480D01*
X169818Y156567D01*
X170171Y155715D01*
X170732Y154984D01*
X171463Y154423D01*
X172315Y154070D01*
X173228Y153950D01*
X174142Y154070D01*
X174994Y154423D01*
X175725Y154984D01*
X176286Y155715D01*
X176383Y155951D01*
X177051D01*
Y153429D01*
X182595D01*
Y161531D01*
D02*
G37*
G36*
X458874Y160449D02*
X452937D01*
Y154512D01*
X458874D01*
Y160449D01*
D02*
G37*
G36*
X433185Y161531D02*
X427642D01*
Y156356D01*
X427612Y156209D01*
Y152307D01*
X427330Y151885D01*
X427214Y151300D01*
Y149569D01*
X417901D01*
Y147199D01*
X416541D01*
X416443Y147434D01*
X415882Y148166D01*
X415151Y148726D01*
X414299Y149079D01*
X413386Y149199D01*
X412472Y149079D01*
X411621Y148726D01*
X410890Y148166D01*
X410329Y147434D01*
X409976Y146583D01*
X409856Y145669D01*
X409976Y144756D01*
X410329Y143904D01*
X410890Y143173D01*
X411621Y142612D01*
X412472Y142259D01*
X413386Y142139D01*
X414299Y142259D01*
X415151Y142612D01*
X415882Y143173D01*
X416443Y143904D01*
X416541Y144140D01*
X417901D01*
Y141769D01*
X432493D01*
Y149569D01*
X430273D01*
Y150691D01*
X430555Y151113D01*
X430671Y151699D01*
Y153429D01*
X433185D01*
Y155951D01*
X437976D01*
Y154512D01*
X443913D01*
Y160449D01*
X437976D01*
Y159010D01*
X433185D01*
Y161531D01*
D02*
G37*
G36*
X399819Y160449D02*
X393882D01*
Y154512D01*
X399819D01*
Y160449D01*
D02*
G37*
G36*
X374130Y161531D02*
X368587D01*
Y155582D01*
X368275Y155116D01*
X368159Y154531D01*
Y149569D01*
X358845D01*
Y147199D01*
X357486D01*
X357388Y147434D01*
X356827Y148166D01*
X356096Y148726D01*
X355244Y149079D01*
X354331Y149199D01*
X353417Y149079D01*
X352566Y148726D01*
X351835Y148166D01*
X351273Y147434D01*
X350921Y146583D01*
X350800Y145669D01*
X350921Y144756D01*
X351273Y143904D01*
X351835Y143173D01*
X352566Y142612D01*
X353417Y142259D01*
X354331Y142139D01*
X355244Y142259D01*
X356096Y142612D01*
X356827Y143173D01*
X357388Y143904D01*
X357486Y144140D01*
X358845D01*
Y141769D01*
X373438D01*
Y149569D01*
X371217D01*
Y153429D01*
X374130D01*
Y155951D01*
X378921D01*
Y154512D01*
X384858D01*
Y160449D01*
X378921D01*
Y159010D01*
X374130D01*
Y161531D01*
D02*
G37*
G36*
X340764Y160449D02*
X334827D01*
Y154512D01*
X340764D01*
Y160449D01*
D02*
G37*
G36*
X315075Y161531D02*
X309531D01*
Y155582D01*
X309220Y155116D01*
X309104Y154531D01*
Y149569D01*
X299790D01*
Y147199D01*
X298430D01*
X298333Y147434D01*
X297772Y148166D01*
X297041Y148726D01*
X296189Y149079D01*
X295276Y149199D01*
X294362Y149079D01*
X293511Y148726D01*
X292779Y148166D01*
X292218Y147434D01*
X291866Y146583D01*
X291745Y145669D01*
X291866Y144756D01*
X292218Y143904D01*
X292779Y143173D01*
X293511Y142612D01*
X294362Y142259D01*
X295276Y142139D01*
X296189Y142259D01*
X297041Y142612D01*
X297772Y143173D01*
X298333Y143904D01*
X298430Y144140D01*
X299790D01*
Y141769D01*
X314383D01*
Y149569D01*
X312162D01*
Y153429D01*
X315075D01*
Y155951D01*
X319866D01*
Y154512D01*
X325803D01*
Y160449D01*
X319866D01*
Y159010D01*
X315075D01*
Y161531D01*
D02*
G37*
G36*
X281709Y160449D02*
X275772D01*
Y154512D01*
X281709D01*
Y160449D01*
D02*
G37*
G36*
X256020Y161531D02*
X250476D01*
Y155582D01*
X250165Y155116D01*
X250048Y154531D01*
Y149569D01*
X240735D01*
Y147199D01*
X239375D01*
X239278Y147434D01*
X238717Y148166D01*
X237986Y148726D01*
X237134Y149079D01*
X236221Y149199D01*
X235307Y149079D01*
X234455Y148726D01*
X233724Y148166D01*
X233163Y147434D01*
X232811Y146583D01*
X232690Y145669D01*
X232811Y144756D01*
X233163Y143904D01*
X233724Y143173D01*
X234455Y142612D01*
X235307Y142259D01*
X236221Y142139D01*
X237134Y142259D01*
X237986Y142612D01*
X238717Y143173D01*
X239278Y143904D01*
X239375Y144140D01*
X240735D01*
Y141769D01*
X255328D01*
Y149569D01*
X253107D01*
Y153429D01*
X256020D01*
Y155951D01*
X260811D01*
Y154512D01*
X266748D01*
Y160449D01*
X260811D01*
Y159010D01*
X256020D01*
Y161531D01*
D02*
G37*
G36*
X222654Y160449D02*
X216717D01*
Y154512D01*
X222654D01*
Y160449D01*
D02*
G37*
G36*
X193028Y161531D02*
X187484D01*
Y155582D01*
X187173Y155116D01*
X187056Y154531D01*
Y149569D01*
X177743D01*
Y147199D01*
X176383D01*
X176286Y147434D01*
X175725Y148166D01*
X174994Y148726D01*
X174142Y149079D01*
X173228Y149199D01*
X172315Y149079D01*
X171463Y148726D01*
X170732Y148166D01*
X170171Y147434D01*
X169818Y146583D01*
X169698Y145669D01*
X169818Y144756D01*
X170171Y143904D01*
X170732Y143173D01*
X171463Y142612D01*
X172315Y142259D01*
X173228Y142139D01*
X174142Y142259D01*
X174994Y142612D01*
X175725Y143173D01*
X176286Y143904D01*
X176383Y144140D01*
X177743D01*
Y141769D01*
X192336D01*
Y149569D01*
X190115D01*
Y153429D01*
X193028D01*
Y155951D01*
X201756D01*
Y154512D01*
X207693D01*
Y160449D01*
X201756D01*
Y159010D01*
X193028D01*
Y161531D01*
D02*
G37*
G36*
X458661Y152460D02*
X457373Y152290D01*
X456172Y151793D01*
X455140Y151001D01*
X454349Y149970D01*
X453852Y148769D01*
X453682Y147480D01*
X453852Y146192D01*
X454349Y144991D01*
X455140Y143959D01*
X456172Y143168D01*
X457373Y142670D01*
X458661Y142501D01*
X459950Y142670D01*
X461151Y143168D01*
X462183Y143959D01*
X462974Y144991D01*
X463471Y146192D01*
X463641Y147480D01*
X463471Y148769D01*
X462974Y149970D01*
X462183Y151001D01*
X461151Y151793D01*
X459950Y152290D01*
X458661Y152460D01*
D02*
G37*
G36*
X399606D02*
X398318Y152290D01*
X397116Y151793D01*
X396085Y151001D01*
X395294Y149970D01*
X394796Y148769D01*
X394627Y147480D01*
X394796Y146192D01*
X395294Y144991D01*
X396085Y143959D01*
X397116Y143168D01*
X398318Y142670D01*
X399606Y142501D01*
X400895Y142670D01*
X402096Y143168D01*
X403127Y143959D01*
X403919Y144991D01*
X404416Y146192D01*
X404586Y147480D01*
X404416Y148769D01*
X403919Y149970D01*
X403127Y151001D01*
X402096Y151793D01*
X400895Y152290D01*
X399606Y152460D01*
D02*
G37*
G36*
X340551D02*
X339262Y152290D01*
X338061Y151793D01*
X337030Y151001D01*
X336239Y149970D01*
X335741Y148769D01*
X335572Y147480D01*
X335741Y146192D01*
X336239Y144991D01*
X337030Y143959D01*
X338061Y143168D01*
X339262Y142670D01*
X340551Y142501D01*
X341840Y142670D01*
X343041Y143168D01*
X344072Y143959D01*
X344864Y144991D01*
X345361Y146192D01*
X345531Y147480D01*
X345361Y148769D01*
X344864Y149970D01*
X344072Y151001D01*
X343041Y151793D01*
X341840Y152290D01*
X340551Y152460D01*
D02*
G37*
G36*
X281496D02*
X280207Y152290D01*
X279006Y151793D01*
X277975Y151001D01*
X277184Y149970D01*
X276686Y148769D01*
X276517Y147480D01*
X276686Y146192D01*
X277184Y144991D01*
X277975Y143959D01*
X279006Y143168D01*
X280207Y142670D01*
X281496Y142501D01*
X282785Y142670D01*
X283986Y143168D01*
X285017Y143959D01*
X285808Y144991D01*
X286306Y146192D01*
X286476Y147480D01*
X286306Y148769D01*
X285808Y149970D01*
X285017Y151001D01*
X283986Y151793D01*
X282785Y152290D01*
X281496Y152460D01*
D02*
G37*
G36*
X222441D02*
X221152Y152290D01*
X219951Y151793D01*
X218920Y151001D01*
X218128Y149970D01*
X217631Y148769D01*
X217461Y147480D01*
X217631Y146192D01*
X218128Y144991D01*
X218920Y143959D01*
X219951Y143168D01*
X221152Y142670D01*
X222441Y142501D01*
X223730Y142670D01*
X224931Y143168D01*
X225962Y143959D01*
X226753Y144991D01*
X227251Y146192D01*
X227421Y147480D01*
X227251Y148769D01*
X226753Y149970D01*
X225962Y151001D01*
X224931Y151793D01*
X223730Y152290D01*
X222441Y152460D01*
D02*
G37*
G36*
X438661Y151928D02*
X437373Y151759D01*
X436172Y151261D01*
X435140Y150470D01*
X434349Y149439D01*
X433851Y148238D01*
X433682Y146949D01*
X433851Y145660D01*
X434349Y144459D01*
X435140Y143428D01*
X436172Y142636D01*
X437373Y142139D01*
X438661Y141969D01*
X439950Y142139D01*
X441151Y142636D01*
X442182Y143428D01*
X442974Y144459D01*
X443471Y145660D01*
X443641Y146949D01*
X443471Y148238D01*
X442974Y149439D01*
X442182Y150470D01*
X441151Y151261D01*
X439950Y151759D01*
X438661Y151928D01*
D02*
G37*
G36*
X379606D02*
X378317Y151759D01*
X377116Y151261D01*
X376085Y150470D01*
X375294Y149439D01*
X374796Y148238D01*
X374627Y146949D01*
X374796Y145660D01*
X375294Y144459D01*
X376085Y143428D01*
X377116Y142636D01*
X378317Y142139D01*
X379606Y141969D01*
X380895Y142139D01*
X382096Y142636D01*
X383127Y143428D01*
X383919Y144459D01*
X384416Y145660D01*
X384586Y146949D01*
X384416Y148238D01*
X383919Y149439D01*
X383127Y150470D01*
X382096Y151261D01*
X380895Y151759D01*
X379606Y151928D01*
D02*
G37*
G36*
X320551D02*
X319262Y151759D01*
X318061Y151261D01*
X317030Y150470D01*
X316239Y149439D01*
X315741Y148238D01*
X315572Y146949D01*
X315741Y145660D01*
X316239Y144459D01*
X317030Y143428D01*
X318061Y142636D01*
X319262Y142139D01*
X320551Y141969D01*
X321840Y142139D01*
X323041Y142636D01*
X324072Y143428D01*
X324864Y144459D01*
X325361Y145660D01*
X325531Y146949D01*
X325361Y148238D01*
X324864Y149439D01*
X324072Y150470D01*
X323041Y151261D01*
X321840Y151759D01*
X320551Y151928D01*
D02*
G37*
G36*
X261496D02*
X260207Y151759D01*
X259006Y151261D01*
X257975Y150470D01*
X257184Y149439D01*
X256686Y148238D01*
X256517Y146949D01*
X256686Y145660D01*
X257184Y144459D01*
X257975Y143428D01*
X259006Y142636D01*
X260207Y142139D01*
X261496Y141969D01*
X262785Y142139D01*
X263986Y142636D01*
X265017Y143428D01*
X265809Y144459D01*
X266306Y145660D01*
X266476Y146949D01*
X266306Y148238D01*
X265809Y149439D01*
X265017Y150470D01*
X263986Y151261D01*
X262785Y151759D01*
X261496Y151928D01*
D02*
G37*
G36*
X202441D02*
X201152Y151759D01*
X199951Y151261D01*
X198920Y150470D01*
X198128Y149439D01*
X197631Y148238D01*
X197461Y146949D01*
X197631Y145660D01*
X198128Y144459D01*
X198920Y143428D01*
X199951Y142636D01*
X201152Y142139D01*
X202441Y141969D01*
X203730Y142139D01*
X204931Y142636D01*
X205962Y143428D01*
X206753Y144459D01*
X207251Y145660D01*
X207421Y146949D01*
X207251Y148238D01*
X206753Y149439D01*
X205962Y150470D01*
X204931Y151261D01*
X203730Y151759D01*
X202441Y151928D01*
D02*
G37*
G36*
X228346Y141325D02*
X227433Y141205D01*
X226581Y140852D01*
X225850Y140292D01*
X225289Y139560D01*
X224937Y138709D01*
X224816Y137795D01*
X224937Y136882D01*
X225289Y136030D01*
X225850Y135299D01*
X226581Y134738D01*
X227433Y134385D01*
X228346Y134265D01*
X229260Y134385D01*
X230112Y134738D01*
X230843Y135299D01*
X231404Y136030D01*
X231756Y136882D01*
X231877Y137795D01*
X231756Y138709D01*
X231404Y139560D01*
X230843Y140292D01*
X230112Y140852D01*
X229260Y141205D01*
X228346Y141325D01*
D02*
G37*
G36*
X531496Y143745D02*
X530335Y143631D01*
X529219Y143292D01*
X528191Y142743D01*
X527289Y142002D01*
X526549Y141101D01*
X525999Y140072D01*
X525661Y138956D01*
X525546Y137795D01*
X525661Y136635D01*
X525999Y135518D01*
X526549Y134490D01*
X527289Y133588D01*
X528191Y132848D01*
X529219Y132298D01*
X530335Y131960D01*
X531496Y131845D01*
X532657Y131960D01*
X533773Y132298D01*
X534802Y132848D01*
X535703Y133588D01*
X536443Y134490D01*
X536993Y135518D01*
X537332Y136635D01*
X537446Y137795D01*
X537332Y138956D01*
X536993Y140072D01*
X536443Y141101D01*
X535703Y142002D01*
X534802Y142743D01*
X533773Y143292D01*
X532657Y143631D01*
X531496Y143745D01*
D02*
G37*
G36*
X137795D02*
X136635Y143631D01*
X135518Y143292D01*
X134490Y142743D01*
X133588Y142002D01*
X132848Y141101D01*
X132298Y140072D01*
X131960Y138956D01*
X131845Y137795D01*
X131960Y136635D01*
X132298Y135518D01*
X132848Y134490D01*
X133588Y133588D01*
X134490Y132848D01*
X135518Y132298D01*
X136635Y131960D01*
X137795Y131845D01*
X138956Y131960D01*
X140072Y132298D01*
X141101Y132848D01*
X142002Y133588D01*
X142743Y134490D01*
X143292Y135518D01*
X143631Y136635D01*
X143745Y137795D01*
X143631Y138956D01*
X143292Y140072D01*
X142743Y141101D01*
X142002Y142002D01*
X141101Y142743D01*
X140072Y143292D01*
X138956Y143631D01*
X137795Y143745D01*
D02*
G37*
%LPD*%
D12*
X338583Y196850D02*
X354331D01*
X337520Y197913D02*
X338583Y196850D01*
X337520Y197913D02*
Y205512D01*
X340732Y324933D02*
X341831Y323835D01*
Y315591D02*
Y323835D01*
X319497Y324722D02*
X319587Y324633D01*
Y315591D02*
Y324633D01*
X319291Y235886D02*
X319587Y235591D01*
X319291Y235886D02*
Y240083D01*
X319961Y227559D02*
Y228937D01*
X327953Y228145D02*
Y275005D01*
X332283Y235433D02*
X332441Y235591D01*
X341831D01*
X343109Y244313D02*
X349414D01*
X350000Y243727D01*
X347520Y227559D02*
Y228515D01*
X348149Y229144D01*
X349104D01*
X350000Y230039D01*
Y243727D01*
X341831Y245590D02*
X343109Y244313D01*
X358268Y240743D02*
Y265354D01*
X341831Y265591D02*
X358032D01*
X358268Y265354D01*
X341831Y255591D02*
X354252D01*
X354331Y255512D01*
X341831Y295590D02*
X358268D01*
X341831Y285591D02*
X357682D01*
X358268Y285005D01*
Y280113D02*
Y285005D01*
X333858Y306176D02*
Y334060D01*
X334444Y334646D01*
Y305591D02*
X341831D01*
X333858Y306176D02*
X334444Y305591D01*
X319961Y227559D02*
X327367D01*
X327953Y228145D01*
X328538Y275590D02*
X341831D01*
X327953Y275005D02*
X328538Y275590D01*
X299798D02*
X319587D01*
X299213Y275005D02*
X299798Y275590D01*
X299213Y271654D02*
Y275005D01*
X240743Y263779D02*
X301575D01*
X302161Y265591D02*
X319587D01*
X301575Y265005D02*
X302161Y265591D01*
X301575Y263779D02*
Y265005D01*
X297052Y255591D02*
X319587D01*
X292800Y259842D02*
X297052Y255591D01*
X268302Y259842D02*
X292800D01*
X299213Y245005D02*
X299798Y245590D01*
X319587D01*
X299213Y228932D02*
Y245005D01*
X292402Y227559D02*
X297839D01*
X299213Y228932D01*
X307087Y286176D02*
Y322835D01*
X307672Y285591D02*
X319587D01*
X307087Y286176D02*
X307672Y285591D01*
X267717Y330709D02*
X311811D01*
X312397Y295590D02*
X319587D01*
X311811Y296176D02*
X312397Y295590D01*
X311811Y296176D02*
Y330709D01*
X327165Y306176D02*
Y334060D01*
X319587Y305591D02*
X326580D01*
X237869Y334646D02*
X326580D01*
X327165Y334060D01*
X326580Y305591D02*
X327165Y306176D01*
X471260Y240354D02*
X475378Y236237D01*
X471260Y240354D02*
Y241339D01*
X475378Y236053D02*
Y236237D01*
X475315Y235990D02*
X475378Y236053D01*
X475315Y227559D02*
Y235990D01*
X370873Y210624D02*
X371109D01*
X375079Y206653D01*
X366142Y196850D02*
X385827D01*
X365079Y197913D02*
X366142Y196850D01*
X365079Y197913D02*
Y205512D01*
X374016Y188976D02*
X419611D01*
X374016Y180376D02*
Y188976D01*
X358268Y240743D02*
X358854Y240158D01*
X401575D01*
X336409Y209571D02*
X342451D01*
X347520Y204503D01*
X331890Y208661D02*
X335500D01*
X336409Y209571D01*
X347520Y204503D02*
Y205512D01*
X295669Y216929D02*
X303086D01*
X309961Y223804D01*
Y227559D01*
X292402Y180039D02*
Y205512D01*
Y180039D02*
X295276Y177165D01*
X255906Y196850D02*
X275590D01*
X267717Y228346D02*
Y259257D01*
X254842Y280591D02*
X255906Y279528D01*
X275574D01*
X254842Y280591D02*
Y288189D01*
X275574Y279528D02*
X275590Y279544D01*
X227284Y288031D02*
Y288189D01*
X227544Y284267D02*
X228346Y283465D01*
X232283D01*
X226654Y287402D02*
X227284Y288031D01*
X227544Y284267D02*
Y287928D01*
X227284Y288189D02*
X227544Y287928D01*
X227284Y238546D02*
X227433Y238695D01*
X227284Y227559D02*
Y238546D01*
X172165Y288189D02*
X172426Y287928D01*
X173228Y283465D02*
X192913D01*
X172426Y284267D02*
Y287928D01*
Y284267D02*
X173228Y283465D01*
X182165Y288189D02*
Y291944D01*
X174503Y299606D02*
X182165Y291944D01*
X173079Y299606D02*
X174503D01*
X172047Y310354D02*
X174409Y312717D01*
Y319291D01*
X392913Y310512D02*
Y329134D01*
X392638Y310236D02*
X392913Y310512D01*
X475315Y310236D02*
Y331221D01*
X237283Y310236D02*
Y334060D01*
X237869Y334646D01*
X292987Y322835D02*
X307087D01*
X292402Y322249D02*
X292987Y322835D01*
X292402Y310236D02*
Y322249D01*
X200000Y310770D02*
Y331496D01*
X199595Y310365D02*
X200000Y310770D01*
X220866Y322441D02*
X227284Y316024D01*
Y310236D02*
Y316024D01*
X485315Y205512D02*
X485576Y205772D01*
Y215101D01*
X486181Y215706D01*
X457101Y197359D02*
X457756Y198013D01*
Y205512D01*
X447500Y227815D02*
X447756Y227559D01*
X447500Y227815D02*
Y235177D01*
X447244Y235433D02*
X447500Y235177D01*
X430197Y205512D02*
Y211393D01*
X428105Y213485D02*
X430197Y211393D01*
X428105Y213485D02*
Y214567D01*
X420197Y227559D02*
Y236216D01*
X419309Y237104D02*
X420197Y236216D01*
X419309Y237104D02*
Y238186D01*
X402638Y205512D02*
Y209571D01*
X406453Y213386D01*
X407441D01*
X392638Y227559D02*
Y228937D01*
X389952Y231623D02*
X392638Y228937D01*
X389952Y231623D02*
Y233691D01*
X389187Y234456D02*
X389952Y233691D01*
X375079Y205512D02*
Y206653D01*
X365079Y221890D02*
Y227559D01*
Y221890D02*
X368071Y218898D01*
X354331Y236806D02*
Y255512D01*
X354917Y236221D02*
X374016D01*
X354331Y236806D02*
X354917Y236221D01*
X337520Y221733D02*
Y227559D01*
X332716Y216929D02*
X337520Y221733D01*
X319961Y205512D02*
X320221Y205251D01*
Y197102D02*
Y205251D01*
Y197102D02*
X320866Y196457D01*
X278393Y233782D02*
X282402Y229774D01*
X278393Y233782D02*
Y236237D01*
X282402Y227559D02*
Y229774D01*
Y241220D02*
X283465Y240158D01*
X291339D01*
X282402Y241220D02*
Y248819D01*
X254724Y238976D02*
X254842Y238858D01*
Y227559D02*
Y238858D01*
X253976Y214493D02*
X264913D01*
Y205583D02*
Y214493D01*
X264843Y205512D02*
X264913Y205583D01*
X237283Y203765D02*
Y205512D01*
Y203765D02*
X242913Y198135D01*
Y197244D02*
Y198135D01*
X199606Y237402D02*
X199665Y237343D01*
Y227618D02*
X199724Y227559D01*
X199665Y227618D02*
Y237343D01*
X209013Y196288D02*
X209724Y196999D01*
Y205512D01*
X182165Y196863D02*
X182527Y196502D01*
X182165Y196863D02*
Y205512D01*
X172165Y238899D02*
X172246Y238980D01*
X172165Y227559D02*
Y238899D01*
X375079Y248819D02*
X379196D01*
X383071Y244944D01*
X393701Y283465D02*
Y284547D01*
X392898Y285349D02*
X393701Y284547D01*
X392638Y288189D02*
X392898Y287928D01*
Y285349D02*
Y287928D01*
X365079Y264016D02*
Y270866D01*
Y264016D02*
X368071Y261024D01*
X270040Y270224D02*
X270682Y270866D01*
X282402D01*
X199595Y310365D02*
X199724Y310236D01*
X254842Y320183D02*
X255015Y320356D01*
X254842Y310236D02*
Y320183D01*
X282363Y310275D02*
Y320864D01*
Y310275D02*
X282402Y310236D01*
X365079D02*
X365338Y310495D01*
Y320451D01*
X365597Y320710D01*
X420197Y310236D02*
X420251Y310290D01*
Y320649D01*
X420305Y320703D01*
X375079Y288189D02*
Y295826D01*
X372086Y298819D02*
X375079Y295826D01*
X402638Y288189D02*
Y292008D01*
X409449Y298819D01*
X430130Y288122D02*
X430197Y288189D01*
X430130Y279253D02*
Y288122D01*
X430062Y279185D02*
X430130Y279253D01*
X457756Y288189D02*
Y292283D01*
X450826Y299213D02*
X457756Y292283D01*
X485315Y288189D02*
X485576Y288450D01*
Y299000D01*
X486181Y299606D01*
X292264Y288327D02*
X292402Y288189D01*
X292264Y288327D02*
Y299468D01*
X292126Y299606D02*
X292264Y299468D01*
X264843Y288189D02*
Y291850D01*
X261811Y294882D02*
X264843Y291850D01*
X253976Y294882D02*
X261811D01*
X237283Y288189D02*
Y289567D01*
X247345Y299628D01*
X249235D01*
X250000Y300394D01*
X209724Y288189D02*
X209985Y288450D01*
Y297032D01*
X210591Y297638D01*
X364823Y310492D02*
X365079Y310236D01*
X392579Y310295D02*
X392638Y310236D01*
X475256Y310295D02*
X475315Y310236D01*
X447244Y318898D02*
X447756Y318386D01*
Y310236D02*
Y318386D01*
X254784Y310295D02*
X254842Y310236D01*
X172047Y310354D02*
X172165Y310236D01*
X475315Y205354D02*
Y205512D01*
X474686Y204724D02*
X475315Y205354D01*
X472441Y204724D02*
X474686D01*
X472441Y180376D02*
Y204724D01*
Y169877D02*
Y173955D01*
X471855Y169291D02*
X472441Y169877D01*
X433657Y192913D02*
X447170D01*
X447756Y193499D01*
Y205512D01*
X433071Y180376D02*
Y192328D01*
X433657Y192913D01*
X433071Y169291D02*
Y173955D01*
X199724Y185846D02*
Y205512D01*
Y185846D02*
X200310Y185260D01*
X224410D01*
X420197Y189562D02*
Y205512D01*
X419611Y188976D02*
X420197Y189562D01*
X393701Y196850D02*
X409449D01*
X374016Y169291D02*
Y173955D01*
X224410Y181102D02*
Y185260D01*
Y169291D02*
Y174682D01*
X173814Y169291D02*
X212013D01*
X173228Y169877D02*
X173814Y169291D01*
X173228Y169877D02*
Y173955D01*
X172165Y181439D02*
Y205512D01*
Y181439D02*
X173228Y180376D01*
X181102Y313046D02*
Y323561D01*
Y313046D02*
X182165Y311983D01*
Y310236D02*
Y311983D01*
X181102Y329982D02*
Y353745D01*
X181688Y354331D01*
X428548Y338362D02*
X429134Y337776D01*
X382696Y338362D02*
X428548D01*
X429134Y326045D02*
Y337776D01*
Y313046D02*
Y319624D01*
Y313046D02*
X430197Y311983D01*
Y310236D02*
Y311983D01*
X485315Y310236D02*
Y317304D01*
X488189Y319481D02*
Y319624D01*
X485901Y317890D02*
X486598D01*
X485315Y317304D02*
X485901Y317890D01*
X486598D02*
X488189Y319481D01*
Y326045D02*
Y353745D01*
X487603Y354331D02*
X488189Y353745D01*
X449405Y354331D02*
X487603D01*
X456693Y313046D02*
Y319624D01*
Y313046D02*
X457756Y311983D01*
Y310236D02*
Y311983D01*
X456693Y326045D02*
Y334646D01*
X209247D02*
X223824D01*
X208661Y329982D02*
Y334060D01*
X209247Y334646D01*
X224410Y335231D02*
Y353745D01*
X223824Y334646D02*
X224410Y335231D01*
X224995Y354331D02*
X271068D01*
X224410Y353745D02*
X224995Y354331D01*
X208661Y313046D02*
Y323561D01*
Y313046D02*
X209724Y311983D01*
Y310236D02*
Y311983D01*
X173228Y145669D02*
X181493D01*
X173228Y157480D02*
X179823D01*
X236221Y145669D02*
X244485D01*
X236221Y157480D02*
X242815D01*
X295276Y145669D02*
X303540D01*
X295276Y157480D02*
X301870D01*
X354331Y145669D02*
X362595D01*
X354331Y157480D02*
X360925D01*
X413386Y145669D02*
X421651D01*
X413386Y157480D02*
X419980D01*
X428743Y145669D02*
Y151300D01*
X429142Y156209D02*
X430413Y157480D01*
X429142Y151699D02*
Y156209D01*
X428743Y151300D02*
X429142Y151699D01*
X430413Y157480D02*
X440945D01*
X371358D02*
X381890D01*
X369688Y154531D02*
X371358Y156201D01*
Y157480D01*
X369688Y145669D02*
Y154531D01*
X253248Y157480D02*
X263779D01*
X253248Y156201D02*
Y157480D01*
X251578Y145669D02*
Y154531D01*
X253248Y156201D01*
X312303Y157480D02*
X322835D01*
X310633Y154531D02*
X312303Y156201D01*
Y157480D01*
X310633Y145669D02*
Y154531D01*
X188586D02*
X190256Y156201D01*
X188586Y145669D02*
Y154531D01*
X190256Y156201D02*
Y157480D01*
X204724D01*
X475987Y377953D02*
X488189D01*
X477658Y366142D02*
X488189D01*
X416932Y377953D02*
X425197D01*
X418602Y366142D02*
X425197D01*
X357877Y377953D02*
X366142D01*
X359547Y366142D02*
X366142D01*
X299213Y377953D02*
X307087D01*
X299213Y366142D02*
X307087D01*
X239767Y377953D02*
X248031D01*
X241437Y366142D02*
X248031D01*
X397638D02*
X408169D01*
Y367421D01*
X409839Y369091D02*
Y377953D01*
X408169Y367421D02*
X409839Y369091D01*
X467224Y376283D02*
X468894Y377953D01*
X467224Y366142D02*
Y376283D01*
X456693Y366142D02*
X467224D01*
X349114D02*
Y367421D01*
X350784Y369091D02*
Y377953D01*
X349114Y367421D02*
X350784Y369091D01*
X338583Y366142D02*
X349114D01*
X231004Y376283D02*
X232674Y377953D01*
X231004Y366142D02*
Y376283D01*
X288779Y366142D02*
X289365Y366727D01*
X291339D01*
Y377171D01*
X292120Y377953D01*
X279528Y366142D02*
X288779D01*
X220472D02*
X231004D01*
X271068Y169291D02*
X271654Y168705D01*
X224410Y169291D02*
X271068D01*
X292402Y254257D02*
X292565Y254420D01*
X292402Y248819D02*
Y254257D01*
X286310Y196850D02*
X286412Y196748D01*
X283465Y196850D02*
X286310D01*
X282402Y197913D02*
Y205512D01*
Y197913D02*
X283465Y196850D01*
X254842Y197913D02*
X255906Y196850D01*
X254842Y197913D02*
Y205512D01*
X182165Y239834D02*
X182189Y239858D01*
X182165Y227559D02*
Y239834D01*
X231518Y197616D02*
X232283Y196850D01*
X227284Y198996D02*
X228663Y197616D01*
X231518D01*
X227284Y198996D02*
Y205512D01*
X209724Y227559D02*
Y238012D01*
X208661Y239075D02*
X209724Y238012D01*
X208661Y239075D02*
Y240158D01*
X311024Y196850D02*
Y204449D01*
X309961Y205512D02*
X311024Y204449D01*
X392638Y197913D02*
X393701Y196850D01*
X392638Y197913D02*
Y205512D01*
X430197Y227559D02*
Y234075D01*
X429134Y235138D02*
X430197Y234075D01*
X429134Y235138D02*
Y236221D01*
X448819Y240743D02*
X449405Y240158D01*
X456693D01*
X448819Y240743D02*
Y251969D01*
X457756Y227559D02*
Y239094D01*
X456693Y240158D02*
X457756Y239094D01*
X484991Y227883D02*
Y237603D01*
Y227883D02*
X485315Y227559D01*
X368428Y248819D02*
X369106Y248140D01*
X365079Y248819D02*
X368428D01*
X475239Y281254D02*
X475277Y281292D01*
Y288151D02*
X475315Y288189D01*
X475277Y281292D02*
Y288151D01*
X448819Y283465D02*
Y287126D01*
X447756Y288189D02*
X448819Y287126D01*
X420197Y288189D02*
X420458Y287928D01*
Y285302D02*
Y287928D01*
Y285302D02*
X421500Y284260D01*
Y283177D02*
Y284260D01*
X365079Y288189D02*
X365472Y287795D01*
X369685D02*
X370079Y287402D01*
X365472Y287795D02*
X369685D01*
X358268Y280113D02*
X358854Y279528D01*
X373430D01*
X375079Y277879D01*
X283465Y279528D02*
X291339D01*
X282402Y280591D02*
Y288189D01*
Y280591D02*
X283465Y279528D01*
X199724Y288189D02*
X199868Y288045D01*
Y280265D02*
Y288045D01*
Y280265D02*
X200012Y280121D01*
X375079Y288189D02*
X375280Y287987D01*
X402638Y227559D02*
Y239094D01*
X401575Y240158D02*
X402638Y239094D01*
X375079Y227559D02*
Y235157D01*
X374016Y236221D02*
X375079Y235157D01*
X264843Y227717D02*
X265472Y228346D01*
X264843Y227559D02*
Y227717D01*
X265472Y228346D02*
X267717D01*
Y259257D02*
X268302Y259842D01*
X237913Y228346D02*
X240158D01*
Y263194D01*
X240743Y263779D01*
X292402Y270866D02*
X298425D01*
X299213Y271654D01*
X237283Y227717D02*
X237913Y228346D01*
X237283Y227559D02*
Y227717D01*
X331294Y169291D02*
X374016D01*
X389956D02*
X433071D01*
X264843Y310394D02*
X265472Y311024D01*
X267717D01*
X264843Y310236D02*
Y310394D01*
X267717Y311024D02*
Y330709D01*
X374016D02*
X375079Y329646D01*
Y310236D02*
Y329646D01*
X358854Y330709D02*
X374016D01*
X358268Y330123D02*
X358854Y330709D01*
X358268Y295590D02*
Y330123D01*
X402638Y310236D02*
Y332997D01*
X334444Y334646D02*
X400989D01*
X402638Y332997D01*
X381890Y339169D02*
Y353745D01*
Y339169D02*
X382696Y338362D01*
X375079Y270866D02*
Y277879D01*
X331294Y354331D02*
X381304D01*
X381890Y353745D01*
X437594Y334646D02*
X456693D01*
X437008Y335231D02*
Y353745D01*
Y335231D02*
X437594Y334646D01*
X436422Y354331D02*
X437008Y353745D01*
X390350Y354331D02*
X436422D01*
X181688D02*
X212013D01*
X212598Y354917D02*
Y365748D01*
X212013Y354331D02*
X212598Y354917D01*
Y365748D02*
X212992Y366142D01*
X271654Y354917D02*
Y365748D01*
X271068Y354331D02*
X271654Y354917D01*
Y365748D02*
X272047Y366142D01*
X330709Y354917D02*
Y365748D01*
Y354917D02*
X331294Y354331D01*
X330709Y365748D02*
X331102Y366142D01*
X389764Y354917D02*
Y365748D01*
Y354917D02*
X390350Y354331D01*
X389764Y365748D02*
X390158Y366142D01*
X448819Y354917D02*
X449405Y354331D01*
X448819Y354917D02*
Y365748D01*
X449213Y366142D01*
X449011Y169291D02*
X471855D01*
X448425Y157480D02*
Y168705D01*
X449011Y169291D01*
X389370Y168705D02*
X389956Y169291D01*
X389370Y157480D02*
Y168705D01*
X330709Y157874D02*
Y168705D01*
X331294Y169291D01*
X330315Y157480D02*
X330709Y157874D01*
X271654D02*
Y168705D01*
X271260Y157480D02*
X271654Y157874D01*
X212013Y169291D02*
X212598Y168705D01*
Y157874D02*
Y168705D01*
X212205Y157480D02*
X212598Y157874D01*
D13*
X341831Y315591D02*
D03*
X319587D02*
D03*
X341831Y305591D02*
D03*
X319587D02*
D03*
X341831Y295590D02*
D03*
X319587D02*
D03*
X341831Y285591D02*
D03*
X319587D02*
D03*
X341831Y275590D02*
D03*
X319587D02*
D03*
X341831Y265591D02*
D03*
X319587D02*
D03*
X341831Y255591D02*
D03*
X319587D02*
D03*
X341831Y245590D02*
D03*
X319587D02*
D03*
X341831Y235591D02*
D03*
X319587D02*
D03*
D14*
X488189Y326045D02*
D03*
Y319624D02*
D03*
X181102Y329982D02*
D03*
Y323561D02*
D03*
X208661Y329982D02*
D03*
Y323561D02*
D03*
X429134Y326045D02*
D03*
Y319624D02*
D03*
X456693Y326045D02*
D03*
Y319624D02*
D03*
X472441Y173955D02*
D03*
Y180376D02*
D03*
X173228Y173955D02*
D03*
Y180376D02*
D03*
X224410Y173955D02*
D03*
Y180376D02*
D03*
X374016Y173955D02*
D03*
Y180376D02*
D03*
X433071Y173955D02*
D03*
Y180376D02*
D03*
D15*
X190256Y157480D02*
D03*
X179823D02*
D03*
X430413D02*
D03*
X419980D02*
D03*
X477658Y366142D02*
D03*
X467224D02*
D03*
X241437D02*
D03*
X231004D02*
D03*
X360925Y157480D02*
D03*
X371358D02*
D03*
X301870D02*
D03*
X312303D02*
D03*
X242815D02*
D03*
X253248D02*
D03*
X408169Y366142D02*
D03*
X418602D02*
D03*
X349114D02*
D03*
X359547D02*
D03*
X288779D02*
D03*
X299213D02*
D03*
D16*
X188586Y145669D02*
D03*
X181493D02*
D03*
X428743D02*
D03*
X421651D02*
D03*
X475987Y377953D02*
D03*
X468894D02*
D03*
X239767D02*
D03*
X232674D02*
D03*
X362595Y145669D02*
D03*
X369688D02*
D03*
X303540D02*
D03*
X310633D02*
D03*
X244485D02*
D03*
X251578D02*
D03*
X409839Y377953D02*
D03*
X416932D02*
D03*
X350784D02*
D03*
X357877D02*
D03*
X292120D02*
D03*
X299213D02*
D03*
D17*
X182165Y310236D02*
D03*
X172165D02*
D03*
Y288189D02*
D03*
X182165D02*
D03*
X430197D02*
D03*
X420197D02*
D03*
Y310236D02*
D03*
X430197D02*
D03*
X457756Y288189D02*
D03*
X447756D02*
D03*
Y310236D02*
D03*
X457756D02*
D03*
X485315Y288189D02*
D03*
X475315D02*
D03*
Y310236D02*
D03*
X485315D02*
D03*
X402638Y205512D02*
D03*
X392638D02*
D03*
Y227559D02*
D03*
X402638D02*
D03*
X319961Y205512D02*
D03*
X309961D02*
D03*
Y227559D02*
D03*
X319961D02*
D03*
X375079Y248819D02*
D03*
X365079D02*
D03*
Y270866D02*
D03*
X375079D02*
D03*
Y288189D02*
D03*
X365079D02*
D03*
Y310236D02*
D03*
X375079D02*
D03*
X402638Y288189D02*
D03*
X392638D02*
D03*
Y310236D02*
D03*
X402638D02*
D03*
X475315Y227559D02*
D03*
X485315D02*
D03*
Y205512D02*
D03*
X475315D02*
D03*
X447756Y227559D02*
D03*
X457756D02*
D03*
Y205512D02*
D03*
X447756D02*
D03*
X420197Y227559D02*
D03*
X430197D02*
D03*
Y205512D02*
D03*
X420197D02*
D03*
X199724Y227559D02*
D03*
X209724D02*
D03*
Y205512D02*
D03*
X199724D02*
D03*
X172165Y227559D02*
D03*
X182165Y205512D02*
D03*
Y227559D02*
D03*
X172165Y205512D02*
D03*
X264843Y288189D02*
D03*
X254842D02*
D03*
Y310236D02*
D03*
X264843D02*
D03*
X375079Y205512D02*
D03*
X365079D02*
D03*
Y227559D02*
D03*
X375079D02*
D03*
X347520Y205512D02*
D03*
X337520D02*
D03*
Y227559D02*
D03*
X347520D02*
D03*
X292402Y288189D02*
D03*
X282402D02*
D03*
Y310236D02*
D03*
X292402D02*
D03*
Y248819D02*
D03*
X282402D02*
D03*
Y270866D02*
D03*
X292402D02*
D03*
X237283Y205512D02*
D03*
X227284D02*
D03*
Y227559D02*
D03*
X237283D02*
D03*
X264843Y205512D02*
D03*
X254842D02*
D03*
Y227559D02*
D03*
X264843D02*
D03*
X292402Y205512D02*
D03*
X282402D02*
D03*
Y227559D02*
D03*
X292402D02*
D03*
X237283Y310236D02*
D03*
X227284D02*
D03*
Y288189D02*
D03*
X237283D02*
D03*
X209724Y310236D02*
D03*
X199724D02*
D03*
Y288189D02*
D03*
X209724D02*
D03*
D25*
X137795Y137795D02*
D03*
X531496D02*
D03*
Y374016D02*
D03*
X137795D02*
D03*
D26*
X449213Y346063D02*
D03*
X390158D02*
D03*
X331102D02*
D03*
X272047D02*
D03*
X212992D02*
D03*
X212205Y177559D02*
D03*
X271260D02*
D03*
X330315D02*
D03*
X389370D02*
D03*
X448425D02*
D03*
D27*
X441732Y366142D02*
D03*
X449213D02*
D03*
X456693D02*
D03*
X382677D02*
D03*
X390158D02*
D03*
X397638D02*
D03*
X323622D02*
D03*
X331102D02*
D03*
X338583D02*
D03*
X264567D02*
D03*
X272047D02*
D03*
X279528D02*
D03*
X212992D02*
D03*
X220472D02*
D03*
X205512D02*
D03*
X322835Y157480D02*
D03*
X204724D02*
D03*
X212205D02*
D03*
X219685D02*
D03*
X263779D02*
D03*
X271260D02*
D03*
X278740D02*
D03*
X330315D02*
D03*
X337795D02*
D03*
X381890D02*
D03*
X389370D02*
D03*
X396850D02*
D03*
X440945D02*
D03*
X448425D02*
D03*
X455905D02*
D03*
D28*
X458976Y376673D02*
D03*
X438976Y376142D02*
D03*
X399921Y376673D02*
D03*
X379921Y376142D02*
D03*
X340866Y376673D02*
D03*
X320866Y376142D02*
D03*
X281811Y376673D02*
D03*
X261811Y376142D02*
D03*
X222756Y376673D02*
D03*
X202756Y376142D02*
D03*
X222441Y147480D02*
D03*
X202441Y146949D02*
D03*
X281496Y147480D02*
D03*
X261496Y146949D02*
D03*
X340551Y147480D02*
D03*
X320551Y146949D02*
D03*
X399606Y147480D02*
D03*
X379606Y146949D02*
D03*
X458661Y147480D02*
D03*
X438661Y146949D02*
D03*
D29*
X354331Y196850D02*
D03*
X340732Y324933D02*
D03*
X319497Y324722D02*
D03*
X319291Y240083D02*
D03*
X332283Y235433D02*
D03*
X333858Y280708D02*
D03*
X471260Y241339D02*
D03*
X464089Y191728D02*
D03*
X424197Y194273D02*
D03*
X370866Y192520D02*
D03*
X370873Y210624D02*
D03*
X383071Y244944D02*
D03*
X385827Y196850D02*
D03*
X345711Y191336D02*
D03*
X331890Y208661D02*
D03*
X303543Y196063D02*
D03*
X295669Y216929D02*
D03*
X311024Y240158D02*
D03*
X266695Y192511D02*
D03*
X221460Y195350D02*
D03*
X188659Y199169D02*
D03*
X424026Y245027D02*
D03*
X463800Y279465D02*
D03*
X384820Y282199D02*
D03*
X291339Y240158D02*
D03*
X262504Y240615D02*
D03*
X222884Y281461D02*
D03*
X232283Y283465D02*
D03*
X227433Y238695D02*
D03*
X188189Y244488D02*
D03*
X192913Y283465D02*
D03*
X173079Y299606D02*
D03*
X174409Y319291D02*
D03*
X392913Y329134D02*
D03*
X475315Y331221D02*
D03*
X464173Y329921D02*
D03*
X420472Y329134D02*
D03*
X385222Y327414D02*
D03*
X345538Y340552D02*
D03*
X306693Y340551D02*
D03*
X262733Y326067D02*
D03*
X227361Y329031D02*
D03*
X188687Y320205D02*
D03*
X200000Y331496D02*
D03*
X220866Y322441D02*
D03*
X486181Y215706D02*
D03*
X457101Y197359D02*
D03*
X447244Y235433D02*
D03*
X428105Y214567D02*
D03*
X419309Y238186D02*
D03*
X407441Y213386D02*
D03*
X389187Y234456D02*
D03*
X368071Y218898D02*
D03*
X332716Y216929D02*
D03*
X320866Y196457D02*
D03*
X278393Y236237D02*
D03*
X254724Y238976D02*
D03*
X253976Y214493D02*
D03*
X242913Y197244D02*
D03*
X232283Y196850D02*
D03*
X199606Y237402D02*
D03*
X209013Y196288D02*
D03*
X182527Y196502D02*
D03*
X172246Y238980D02*
D03*
X393701Y283465D02*
D03*
X368071Y261024D02*
D03*
X270040Y270224D02*
D03*
X255015Y320356D02*
D03*
X282363Y320864D02*
D03*
X365597Y320710D02*
D03*
X420305Y320703D02*
D03*
X372086Y298819D02*
D03*
X409449D02*
D03*
X430062Y279185D02*
D03*
X450826Y299213D02*
D03*
X486181Y299606D02*
D03*
X292126D02*
D03*
X253976Y294882D02*
D03*
X250000Y300394D02*
D03*
X210591Y297638D02*
D03*
X447244Y318898D02*
D03*
X409449Y196850D02*
D03*
X173228Y145669D02*
D03*
Y157480D02*
D03*
X236221Y145669D02*
D03*
Y157480D02*
D03*
X295276Y145669D02*
D03*
Y157480D02*
D03*
X354331Y145669D02*
D03*
Y157480D02*
D03*
X413386Y145669D02*
D03*
Y157480D02*
D03*
X228346Y137795D02*
D03*
X488189Y377953D02*
D03*
Y366142D02*
D03*
X425197Y377953D02*
D03*
Y366142D02*
D03*
X366142Y377953D02*
D03*
Y366142D02*
D03*
X307087Y377953D02*
D03*
Y366142D02*
D03*
X248031Y377953D02*
D03*
Y366142D02*
D03*
X188976Y385827D02*
D03*
X295276Y177165D02*
D03*
X292565Y254420D02*
D03*
X286412Y196748D02*
D03*
X275590Y196850D02*
D03*
X182189Y239858D02*
D03*
X208661Y240158D02*
D03*
X313400Y196139D02*
D03*
X429134Y236221D02*
D03*
X448819Y251969D02*
D03*
X484991Y237603D02*
D03*
X369106Y248140D02*
D03*
X475239Y281254D02*
D03*
X448819Y283465D02*
D03*
X421500Y283177D02*
D03*
X370079Y287402D02*
D03*
X291339Y279528D02*
D03*
X275590Y279544D02*
D03*
X200012Y280121D02*
D03*
M02*
