M48
;Layer_Color=9474304
;FILE_FORMAT=2:4
INCH,TZ
;TYPE=PLATED
T2F00S00C0.0280
T3F00S00C0.0787
T4F00S00C0.0984
T5F00S00C0.1240
%
T02
X17323Y14567
X23622
X22835Y13780
X29528Y14567
X35433
X41339
X48499Y23760
X47524Y28125
X53156Y28812
X53150Y29921
Y26378
Y22047
Y19291
X40945Y19685
X38583
X37008Y19285
X35433Y19685
X33087Y19208
X31340Y19614
X34646Y24016
X36911Y24814
X37008Y28740
X39370Y28346
X40945Y27953
X42150Y28318
X44882Y28346
Y25197
X42913Y23622
X41339Y15748
X35433
X29528
Y17717
X28641Y19675
X27559Y19685
X26673Y19285
X23228Y19685
X23622Y15748
X17323
X18219Y23986
X20866Y24016
X20001Y28012
X19291Y28346
X23228
X27559Y27954
X29134Y27953
X29256Y25442
X29134Y24016
X31102
X13773Y22764
X13780Y21654
Y19291
Y28740
Y29921
X25197Y32283
X24803Y36614
Y37795
X30709
Y36614
X18898Y38583
X36614Y37795
Y36614
X42520
Y37795
X41043Y32275
X33263Y32304
X48819Y36614
Y37795
T03
X20244Y14695
X22244Y14748
X26150Y14695
X28150Y14748
X32055Y14695
X34055Y14748
X37961Y14695
X39961Y14748
X43866Y14695
X45866Y14748
X28181Y37667
X26181Y37614
X22276Y37667
X20276Y37614
X32087
X34087Y37667
X37992Y37614
X39992Y37667
X43898Y37614
X45898Y37667
T04
X13780Y13780
X53150
X13780Y37402
X53150
T05
X33031Y17756
X38937
X44843
X27126
X21220
X21299Y34606
X27205
X33110
X39016
X44921
M30
